%TF.GenerationSoftware,KiCad,Pcbnew,7.0.9*%
%TF.CreationDate,2024-02-10T00:09:35-05:00*%
%TF.ProjectId,BREAD_Slice,42524541-445f-4536-9c69-63652e6b6963,rev?*%
%TF.SameCoordinates,PX74eba40PY8552dc0*%
%TF.FileFunction,Copper,L1,Top*%
%TF.FilePolarity,Positive*%
%FSLAX46Y46*%
G04 Gerber Fmt 4.6, Leading zero omitted, Abs format (unit mm)*
G04 Created by KiCad (PCBNEW 7.0.9) date 2024-02-10 00:09:35*
%MOMM*%
%LPD*%
G01*
G04 APERTURE LIST*
G04 Aperture macros list*
%AMRoundRect*
0 Rectangle with rounded corners*
0 $1 Rounding radius*
0 $2 $3 $4 $5 $6 $7 $8 $9 X,Y pos of 4 corners*
0 Add a 4 corners polygon primitive as box body*
4,1,4,$2,$3,$4,$5,$6,$7,$8,$9,$2,$3,0*
0 Add four circle primitives for the rounded corners*
1,1,$1+$1,$2,$3*
1,1,$1+$1,$4,$5*
1,1,$1+$1,$6,$7*
1,1,$1+$1,$8,$9*
0 Add four rect primitives between the rounded corners*
20,1,$1+$1,$2,$3,$4,$5,0*
20,1,$1+$1,$4,$5,$6,$7,0*
20,1,$1+$1,$6,$7,$8,$9,0*
20,1,$1+$1,$8,$9,$2,$3,0*%
G04 Aperture macros list end*
%TA.AperFunction,ComponentPad*%
%ADD10C,2.300000*%
%TD*%
%TA.AperFunction,SMDPad,CuDef*%
%ADD11RoundRect,1.000000X-5.000000X-5.000000X5.000000X-5.000000X5.000000X5.000000X-5.000000X5.000000X0*%
%TD*%
%TA.AperFunction,SMDPad,CuDef*%
%ADD12R,1.651000X1.000000*%
%TD*%
%TA.AperFunction,ComponentPad*%
%ADD13R,1.600000X1.600000*%
%TD*%
%TA.AperFunction,ComponentPad*%
%ADD14O,1.600000X1.600000*%
%TD*%
%TA.AperFunction,ComponentPad*%
%ADD15R,1.700000X1.700000*%
%TD*%
%TA.AperFunction,ComponentPad*%
%ADD16O,1.700000X1.700000*%
%TD*%
%TA.AperFunction,ComponentPad*%
%ADD17R,1.800000X1.800000*%
%TD*%
%TA.AperFunction,ComponentPad*%
%ADD18O,1.800000X1.800000*%
%TD*%
%TA.AperFunction,ComponentPad*%
%ADD19C,2.200000*%
%TD*%
%TA.AperFunction,ComponentPad*%
%ADD20C,3.000000*%
%TD*%
%TA.AperFunction,ViaPad*%
%ADD21C,0.800000*%
%TD*%
%TA.AperFunction,ViaPad*%
%ADD22C,0.500000*%
%TD*%
%TA.AperFunction,ViaPad*%
%ADD23C,1.500000*%
%TD*%
%TA.AperFunction,Conductor*%
%ADD24C,0.500000*%
%TD*%
%TA.AperFunction,Conductor*%
%ADD25C,1.000000*%
%TD*%
%TA.AperFunction,Conductor*%
%ADD26C,3.000000*%
%TD*%
%TA.AperFunction,Conductor*%
%ADD27C,1.500000*%
%TD*%
G04 APERTURE END LIST*
D10*
%TO.P,J11,1,1*%
%TO.N,GND*%
X58000000Y69600000D03*
X66200000Y69600000D03*
%TD*%
%TO.P,J17,1,1*%
%TO.N,GND*%
X58000000Y45400000D03*
X66200000Y45400000D03*
%TD*%
D11*
%TO.P,HS1,1*%
%TO.N,GND*%
X12700000Y77100000D03*
%TD*%
D12*
%TO.P,D2,1,VDD*%
%TO.N,+5V*%
X48123000Y5267231D03*
%TO.P,D2,2,DOUT*%
%TO.N,unconnected-(D2-DOUT-Pad2)*%
X48123000Y2067231D03*
%TO.P,D2,3,VSS*%
%TO.N,GND*%
X53277000Y2067231D03*
%TO.P,D2,4,DIN*%
%TO.N,/LED*%
X53277000Y5267231D03*
%TD*%
D13*
%TO.P,A1,1,D1/TX*%
%TO.N,unconnected-(A1-D1{slash}TX-Pad1)*%
X12400000Y39800000D03*
D14*
%TO.P,A1,2,D0/RX*%
%TO.N,unconnected-(A1-D0{slash}RX-Pad2)*%
X12400000Y37260000D03*
%TO.P,A1,3,~{RESET}*%
%TO.N,unconnected-(A1-~{RESET}-Pad3)*%
X12400000Y34720000D03*
%TO.P,A1,4,GND*%
%TO.N,GND*%
X12400000Y32180000D03*
%TO.P,A1,5,D2*%
%TO.N,/E_STOP*%
X12400000Y29640000D03*
%TO.P,A1,6,D3*%
%TO.N,/INT*%
X12400000Y27100000D03*
%TO.P,A1,7,D4*%
%TO.N,/SYNC*%
X12400000Y24560000D03*
%TO.P,A1,8,D5*%
%TO.N,/LED*%
X12400000Y22020000D03*
%TO.P,A1,9,D6*%
%TO.N,/DIR1*%
X12400000Y19480000D03*
%TO.P,A1,10,D7*%
%TO.N,/MC1*%
X12400000Y16940000D03*
%TO.P,A1,11,D8*%
%TO.N,/BR1*%
X12400000Y14400000D03*
%TO.P,A1,12,D9*%
%TO.N,/THRM1*%
X12400000Y11860000D03*
%TO.P,A1,13,D10*%
%TO.N,/DIR2*%
X12400000Y9320000D03*
%TO.P,A1,14,D11*%
%TO.N,/MC2*%
X12400000Y6780000D03*
%TO.P,A1,15,D12*%
%TO.N,/BR2*%
X12400000Y4240000D03*
%TO.P,A1,16,D13*%
%TO.N,/THRM2*%
X27640000Y4240000D03*
%TO.P,A1,17,3V3*%
%TO.N,unconnected-(A1-3V3-Pad17)*%
X27640000Y6780000D03*
%TO.P,A1,18,AREF*%
%TO.N,unconnected-(A1-AREF-Pad18)*%
X27640000Y9320000D03*
%TO.P,A1,19,A0*%
%TO.N,/B2*%
X27640000Y11860000D03*
%TO.P,A1,20,A1*%
%TO.N,/A2*%
X27640000Y14400000D03*
%TO.P,A1,21,A2*%
%TO.N,/B1*%
X27640000Y16940000D03*
%TO.P,A1,22,A3*%
%TO.N,/A1*%
X27640000Y19480000D03*
%TO.P,A1,23,A4*%
%TO.N,/I2C_DAT*%
X27640000Y22020000D03*
%TO.P,A1,24,A5*%
%TO.N,/I2C_CLK*%
X27640000Y24560000D03*
%TO.P,A1,25,A6*%
%TO.N,/CSEN1*%
X27640000Y27100000D03*
%TO.P,A1,26,A7*%
%TO.N,/CSEN2*%
X27640000Y29640000D03*
%TO.P,A1,27,+5V*%
%TO.N,+5V*%
X27640000Y32180000D03*
%TO.P,A1,28,~{RESET}*%
%TO.N,unconnected-(A1-~{RESET}-Pad28)*%
X27640000Y34720000D03*
%TO.P,A1,29,GND*%
%TO.N,GND*%
X27640000Y37260000D03*
%TO.P,A1,30,VIN*%
%TO.N,unconnected-(A1-VIN-Pad30)*%
X27640000Y39800000D03*
%TD*%
D15*
%TO.P,J1,1,Pin_1*%
%TO.N,GND*%
X3600000Y61450000D03*
D16*
%TO.P,J1,2,Pin_2*%
%TO.N,+12V*%
X3600000Y58910000D03*
%TO.P,J1,3,Pin_3*%
%TO.N,/I2C_CLK*%
X3600000Y56370000D03*
%TO.P,J1,4,Pin_4*%
%TO.N,/I2C_DAT*%
X3600000Y53830000D03*
%TO.P,J1,5,Pin_5*%
%TO.N,GND*%
X3600000Y51290000D03*
%TO.P,J1,6,Pin_6*%
%TO.N,/E_STOP*%
X3600000Y48750000D03*
%TO.P,J1,7,Pin_7*%
%TO.N,/INT*%
X3600000Y46210000D03*
%TO.P,J1,8,Pin_8*%
%TO.N,/SYNC*%
X3600000Y43670000D03*
%TO.P,J1,9,Pin_9*%
%TO.N,+12V*%
X3600000Y41130000D03*
%TO.P,J1,10,Pin_10*%
%TO.N,GND*%
X3600000Y38590000D03*
%TD*%
D17*
%TO.P,U3,1,BOOTSTRAP1*%
%TO.N,Net-(U3-BOOTSTRAP1)*%
X34000000Y37700000D03*
D18*
%TO.P,U3,2,OUTPUT1*%
%TO.N,Net-(U3-OUTPUT1)*%
X39080000Y36000000D03*
%TO.P,U3,3,DIRECTION*%
%TO.N,/DIR2*%
X34000000Y34300000D03*
%TO.P,U3,4,BRAKE*%
%TO.N,/BR2*%
X39080000Y32600000D03*
%TO.P,U3,5,PWM*%
%TO.N,/MC2*%
X34000000Y30900000D03*
%TO.P,U3,6,VS*%
%TO.N,Net-(SW2-B)*%
X39080000Y29200000D03*
%TO.P,U3,7,GND*%
%TO.N,GND*%
X34000000Y27500000D03*
%TO.P,U3,8,CURRENT_SENSE_OUTPUT*%
%TO.N,/CSEN2*%
X39080000Y25800000D03*
%TO.P,U3,9,~{THERMAL_FLAG_OUTPUT}*%
%TO.N,/THRM2*%
X34000000Y24100000D03*
%TO.P,U3,10,OUTPUT2*%
%TO.N,Net-(U3-OUTPUT2)*%
X39080000Y22400000D03*
%TO.P,U3,11,BOOTSTRAP2*%
%TO.N,Net-(U3-BOOTSTRAP2)*%
X34000000Y20700000D03*
%TD*%
D10*
%TO.P,J13,1,1*%
%TO.N,Net-(U1-OUTPUT2)*%
X58000000Y79600000D03*
X66200000Y79600000D03*
%TD*%
D17*
%TO.P,U1,1,BOOTSTRAP1*%
%TO.N,Net-(U1-BOOTSTRAP1)*%
X33965000Y77600000D03*
D18*
%TO.P,U1,2,OUTPUT1*%
%TO.N,Net-(U1-OUTPUT1)*%
X39045000Y75900000D03*
%TO.P,U1,3,DIRECTION*%
%TO.N,/DIR1*%
X33965000Y74200000D03*
%TO.P,U1,4,BRAKE*%
%TO.N,/BR1*%
X39045000Y72500000D03*
%TO.P,U1,5,PWM*%
%TO.N,/MC1*%
X33965000Y70800000D03*
%TO.P,U1,6,VS*%
%TO.N,Net-(SW1-B)*%
X39045000Y69100000D03*
%TO.P,U1,7,GND*%
%TO.N,GND*%
X33965000Y67400000D03*
%TO.P,U1,8,CURRENT_SENSE_OUTPUT*%
%TO.N,/CSEN1*%
X39045000Y65700000D03*
%TO.P,U1,9,~{THERMAL_FLAG_OUTPUT}*%
%TO.N,/THRM1*%
X33965000Y64000000D03*
%TO.P,U1,10,OUTPUT2*%
%TO.N,Net-(U1-OUTPUT2)*%
X39045000Y62300000D03*
%TO.P,U1,11,BOOTSTRAP2*%
%TO.N,Net-(U1-BOOTSTRAP2)*%
X33965000Y60600000D03*
%TD*%
D10*
%TO.P,J14,1,1*%
%TO.N,Net-(U3-OUTPUT1)*%
X58000000Y60400000D03*
X66200000Y60400000D03*
%TD*%
%TO.P,J12,1,1*%
%TO.N,Net-(U1-OUTPUT1)*%
X58000000Y84600000D03*
X66200000Y84600000D03*
%TD*%
D19*
%TO.P,J8,1,1*%
%TO.N,+5V*%
X58000000Y29700000D03*
X66200000Y29700000D03*
%TD*%
%TO.P,J4,1,1*%
%TO.N,+5V*%
X58000000Y15700000D03*
X66200000Y15700000D03*
%TD*%
%TO.P,J3,1,1*%
%TO.N,/B2*%
X58000000Y19200000D03*
X66200000Y19200000D03*
%TD*%
D20*
%TO.P,SW2,1,A*%
%TO.N,+12V*%
X37700000Y43900000D03*
X37700000Y49600000D03*
%TO.P,SW2,2,B*%
%TO.N,Net-(SW2-B)*%
X42450000Y43900000D03*
X42450000Y49600000D03*
%TO.P,SW2,3,C*%
%TO.N,/CUST2*%
X47200000Y43900000D03*
X47200000Y49600000D03*
%TD*%
D19*
%TO.P,J2,1,1*%
%TO.N,/A2*%
X58000000Y22700000D03*
X66200000Y22700000D03*
%TD*%
%TO.P,J6,1,1*%
%TO.N,/A1*%
X58000000Y36700000D03*
X66200000Y36700000D03*
%TD*%
D10*
%TO.P,J15,1,1*%
%TO.N,Net-(U3-OUTPUT2)*%
X58000000Y55400000D03*
X66200000Y55400000D03*
%TD*%
%TO.P,J10,1,1*%
%TO.N,/CUST1*%
X58000000Y74600000D03*
X66200000Y74600000D03*
%TD*%
%TO.P,J16,1,1*%
%TO.N,/CUST2*%
X58000000Y50400000D03*
X66200000Y50400000D03*
%TD*%
D19*
%TO.P,J9,1,1*%
%TO.N,GND*%
X58000000Y26200000D03*
X66200000Y26200000D03*
%TD*%
%TO.P,J7,1,1*%
%TO.N,/B1*%
X58000000Y33200000D03*
X66200000Y33200000D03*
%TD*%
%TO.P,J5,1,1*%
%TO.N,GND*%
X58000000Y12200000D03*
X66200000Y12200000D03*
%TD*%
D20*
%TO.P,SW1,1,A*%
%TO.N,+12V*%
X37700000Y84200000D03*
X37700000Y89900000D03*
%TO.P,SW1,2,B*%
%TO.N,Net-(SW1-B)*%
X42450000Y84200000D03*
X42450000Y89900000D03*
%TO.P,SW1,3,C*%
%TO.N,/CUST1*%
X47200000Y84200000D03*
X47200000Y89900000D03*
%TD*%
D21*
%TO.N,GND*%
X18100000Y72650000D03*
X18100000Y80550000D03*
D22*
X11100000Y77500000D03*
X12400000Y78400000D03*
X10000000Y74800000D03*
X12000000Y77500000D03*
X11300000Y80500000D03*
X13600000Y80500000D03*
X12400000Y79700000D03*
D21*
X11200000Y82250000D03*
X7400000Y75250000D03*
X7600000Y72000000D03*
X18100000Y77650000D03*
X50200000Y2100000D03*
D23*
%TO.N,+5V*%
X16400000Y54600000D03*
D21*
X20500000Y3300000D03*
%TO.N,/I2C_CLK*%
X24200000Y24500000D03*
X18500000Y7200000D03*
%TO.N,/I2C_DAT*%
X19500000Y7200000D03*
X24200000Y22000000D03*
%TO.N,/CSEN1*%
X30000000Y45300000D03*
X29949500Y27100000D03*
%TD*%
D24*
%TO.N,/CSEN1*%
X30000000Y45300000D02*
X30000000Y27150500D01*
X30000000Y27150500D02*
X29949500Y27100000D01*
D25*
%TO.N,+12V*%
X6290000Y58910000D02*
X6300000Y58900000D01*
X3600000Y58910000D02*
X6290000Y58910000D01*
D26*
X28400000Y58900000D02*
X6300000Y58900000D01*
X37700000Y49600000D02*
X28400000Y58900000D01*
%TO.N,Net-(SW1-B)*%
X42450000Y71050000D02*
X40500000Y69100000D01*
X40500000Y69100000D02*
X39045000Y69100000D01*
X42450000Y84200000D02*
X42450000Y71050000D01*
%TO.N,Net-(SW2-B)*%
X40500000Y29200000D02*
X39080000Y29200000D01*
X42450000Y31150000D02*
X40500000Y29200000D01*
X42450000Y43900000D02*
X42450000Y31150000D01*
%TO.N,+12V*%
X34200000Y84200000D02*
X37700000Y84200000D01*
X28900000Y78900000D02*
X34200000Y84200000D01*
X28900000Y58400000D02*
X28900000Y78900000D01*
X30900000Y56400000D02*
X28900000Y58400000D01*
D27*
%TO.N,+5V*%
X25300000Y42400000D02*
X25300000Y34500000D01*
X16400000Y54600000D02*
X16400000Y51300000D01*
X16400000Y51300000D02*
X25300000Y42400000D01*
X27620000Y32180000D02*
X27640000Y32180000D01*
X25300000Y34500000D02*
X27620000Y32180000D01*
%TO.N,GND*%
X66200000Y26200000D02*
X58000000Y26200000D01*
X66200000Y45400000D02*
X58000000Y45400000D01*
X66200000Y69600000D02*
X58000000Y69600000D01*
D24*
X50200000Y2100000D02*
X50232769Y2067231D01*
D27*
X58000000Y12200000D02*
X66200000Y12200000D01*
D24*
X50232769Y2067231D02*
X53277000Y2067231D01*
%TO.N,+5V*%
X21000000Y2800000D02*
X28200000Y2800000D01*
D27*
X58000000Y15700000D02*
X66200000Y15700000D01*
D24*
X29100000Y3700000D02*
X29100000Y9300000D01*
X27670000Y32180000D02*
X29100000Y30750000D01*
D27*
X58000000Y29700000D02*
X66200000Y29700000D01*
D24*
X48123000Y5823000D02*
X48123000Y5267231D01*
X29100000Y9300000D02*
X29100000Y7900000D01*
X31732769Y5267231D02*
X48123000Y5267231D01*
X28200000Y2800000D02*
X29100000Y3700000D01*
X27640000Y32180000D02*
X27670000Y32180000D01*
X29100000Y30750000D02*
X29100000Y9300000D01*
X58000000Y15700000D02*
X48123000Y5823000D01*
X20500000Y3300000D02*
X21000000Y2800000D01*
X29100000Y7900000D02*
X31732769Y5267231D01*
%TO.N,/LED*%
X14150000Y20270000D02*
X14150000Y7100000D01*
X45257500Y1400000D02*
X47457500Y3600000D01*
X12400000Y22020000D02*
X14150000Y20270000D01*
X51609769Y3600000D02*
X53277000Y5267231D01*
X47457500Y3600000D02*
X51609769Y3600000D01*
X19850000Y1400000D02*
X45257500Y1400000D01*
X14150000Y7100000D02*
X19850000Y1400000D01*
%TO.N,/I2C_CLK*%
X26000000Y32102944D02*
X24100000Y34002944D01*
X18500000Y7402082D02*
X21500000Y10402082D01*
X21500000Y21800000D02*
X24200000Y24500000D01*
X3670000Y56300000D02*
X3600000Y56370000D01*
X26000000Y26200000D02*
X26000000Y32102944D01*
X24100000Y41900000D02*
X9700000Y56300000D01*
X27640000Y24560000D02*
X26000000Y26200000D01*
X9700000Y56300000D02*
X3670000Y56300000D01*
X18500000Y7200000D02*
X18500000Y7402082D01*
X24100000Y34002944D02*
X24100000Y41900000D01*
X21500000Y10402082D02*
X21500000Y21800000D01*
%TO.N,/I2C_DAT*%
X23400000Y33712995D02*
X23400000Y41610050D01*
X23400000Y41610050D02*
X11210050Y53800000D01*
X27640000Y22020000D02*
X25300000Y24360000D01*
X25300000Y31812994D02*
X23400000Y33712995D01*
X19500000Y7200000D02*
X22200000Y9900000D01*
X25300000Y24360000D02*
X25300000Y31812994D01*
X3630000Y53800000D02*
X3600000Y53830000D01*
X22200000Y9900000D02*
X22200000Y20000000D01*
X11210050Y53800000D02*
X3630000Y53800000D01*
X22200000Y20000000D02*
X24200000Y22000000D01*
%TO.N,/SYNC*%
X5800000Y42200000D02*
X5800000Y31160000D01*
X5800000Y31160000D02*
X12400000Y24560000D01*
X4330000Y43670000D02*
X5800000Y42200000D01*
X3600000Y43670000D02*
X4330000Y43670000D01*
%TO.N,/E_STOP*%
X7200000Y45800000D02*
X7200000Y34840000D01*
X7200000Y34840000D02*
X12400000Y29640000D01*
X4250000Y48750000D02*
X7200000Y45800000D01*
X3600000Y48750000D02*
X4250000Y48750000D01*
D27*
%TO.N,+12V*%
X37700000Y89900000D02*
X37700000Y84200000D01*
X1800000Y57115585D02*
X3594415Y58910000D01*
X2860000Y41870000D02*
X2854415Y41870000D01*
X2854415Y41870000D02*
X1800000Y42924415D01*
X3600000Y41130000D02*
X2860000Y41870000D01*
X1800000Y42924415D02*
X1800000Y57115585D01*
X37700000Y49600000D02*
X37700000Y43900000D01*
D24*
%TO.N,/INT*%
X6500000Y44000000D02*
X6500000Y33000000D01*
X4290000Y46210000D02*
X6500000Y44000000D01*
X3600000Y46210000D02*
X4290000Y46210000D01*
X6500000Y33000000D02*
X12400000Y27100000D01*
D27*
%TO.N,Net-(SW1-B)*%
X42450000Y89900000D02*
X42450000Y84200000D01*
%TO.N,Net-(SW2-B)*%
X42450000Y49600000D02*
X42450000Y43900000D01*
%TO.N,Net-(U1-OUTPUT1)*%
X58000000Y84600000D02*
X66200000Y84600000D01*
%TO.N,Net-(U1-OUTPUT2)*%
X66200000Y79600000D02*
X58000000Y79600000D01*
%TO.N,Net-(U3-OUTPUT1)*%
X58000000Y60400000D02*
X66200000Y60400000D01*
%TO.N,Net-(U3-OUTPUT2)*%
X66200000Y55400000D02*
X58000000Y55400000D01*
%TO.N,/A2*%
X58000000Y22700000D02*
X66200000Y22700000D01*
%TO.N,/B2*%
X66200000Y19200000D02*
X58000000Y19200000D01*
%TO.N,/A1*%
X58000000Y36700000D02*
X66200000Y36700000D01*
%TO.N,/B1*%
X58000000Y33200000D02*
X66200000Y33200000D01*
%TO.N,/CUST1*%
X58000000Y74600000D02*
X66200000Y74600000D01*
X47200000Y89900000D02*
X47200000Y84200000D01*
%TO.N,/CUST2*%
X47200000Y49600000D02*
X47200000Y43900000D01*
X58000000Y50400000D02*
X66200000Y50400000D01*
%TD*%
M02*
