%TF.GenerationSoftware,KiCad,Pcbnew,7.0.9*%
%TF.CreationDate,2024-02-10T00:09:35-05:00*%
%TF.ProjectId,BREAD_Slice,42524541-445f-4536-9c69-63652e6b6963,rev?*%
%TF.SameCoordinates,PX74eba40PY8552dc0*%
%TF.FileFunction,Paste,Bot*%
%TF.FilePolarity,Positive*%
%FSLAX46Y46*%
G04 Gerber Fmt 4.6, Leading zero omitted, Abs format (unit mm)*
G04 Created by KiCad (PCBNEW 7.0.9) date 2024-02-10 00:09:35*
%MOMM*%
%LPD*%
G01*
G04 APERTURE LIST*
G04 Aperture macros list*
%AMRoundRect*
0 Rectangle with rounded corners*
0 $1 Rounding radius*
0 $2 $3 $4 $5 $6 $7 $8 $9 X,Y pos of 4 corners*
0 Add a 4 corners polygon primitive as box body*
4,1,4,$2,$3,$4,$5,$6,$7,$8,$9,$2,$3,0*
0 Add four circle primitives for the rounded corners*
1,1,$1+$1,$2,$3*
1,1,$1+$1,$4,$5*
1,1,$1+$1,$6,$7*
1,1,$1+$1,$8,$9*
0 Add four rect primitives between the rounded corners*
20,1,$1+$1,$2,$3,$4,$5,0*
20,1,$1+$1,$4,$5,$6,$7,0*
20,1,$1+$1,$6,$7,$8,$9,0*
20,1,$1+$1,$8,$9,$2,$3,0*%
G04 Aperture macros list end*
%ADD10RoundRect,0.150000X-0.512500X-0.150000X0.512500X-0.150000X0.512500X0.150000X-0.512500X0.150000X0*%
%ADD11RoundRect,0.250000X0.412500X0.650000X-0.412500X0.650000X-0.412500X-0.650000X0.412500X-0.650000X0*%
%ADD12RoundRect,0.250000X-0.325000X-0.650000X0.325000X-0.650000X0.325000X0.650000X-0.325000X0.650000X0*%
%ADD13RoundRect,0.150000X0.150000X0.625000X-0.150000X0.625000X-0.150000X-0.625000X0.150000X-0.625000X0*%
%ADD14RoundRect,0.250000X0.350000X0.650000X-0.350000X0.650000X-0.350000X-0.650000X0.350000X-0.650000X0*%
%ADD15RoundRect,0.250000X-0.400000X-0.625000X0.400000X-0.625000X0.400000X0.625000X-0.400000X0.625000X0*%
%ADD16RoundRect,0.250000X-0.375000X-1.075000X0.375000X-1.075000X0.375000X1.075000X-0.375000X1.075000X0*%
%ADD17RoundRect,0.250000X0.325000X0.650000X-0.325000X0.650000X-0.325000X-0.650000X0.325000X-0.650000X0*%
%ADD18RoundRect,0.250000X-0.412500X-0.650000X0.412500X-0.650000X0.412500X0.650000X-0.412500X0.650000X0*%
G04 APERTURE END LIST*
D10*
%TO.C,U2*%
X11137500Y74650000D03*
X11137500Y75600000D03*
X11137500Y76550000D03*
X8862500Y76550000D03*
X8862500Y75600000D03*
X8862500Y74650000D03*
%TD*%
D11*
%TO.C,C6*%
X39027500Y78200000D03*
X35902500Y78200000D03*
%TD*%
D12*
%TO.C,C5*%
X13525000Y79000000D03*
X16475000Y79000000D03*
%TD*%
%TO.C,C7*%
X13525000Y82000000D03*
X16475000Y82000000D03*
%TD*%
D13*
%TO.C,J18*%
X21510000Y5400000D03*
X20510000Y5400000D03*
X19510000Y5400000D03*
X18510000Y5400000D03*
D14*
X17210000Y1525000D03*
X22810000Y1525000D03*
%TD*%
D15*
%TO.C,R1*%
X42250000Y63000000D03*
X45350000Y63000000D03*
%TD*%
D11*
%TO.C,C9*%
X39105000Y38300000D03*
X35980000Y38300000D03*
%TD*%
D16*
%TO.C,L1*%
X13600000Y75600000D03*
X16400000Y75600000D03*
%TD*%
D17*
%TO.C,C1*%
X8325000Y79000000D03*
X11275000Y79000000D03*
%TD*%
D15*
%TO.C,R2*%
X42150000Y23100000D03*
X45250000Y23100000D03*
%TD*%
D18*
%TO.C,C10*%
X35917500Y20000000D03*
X39042500Y20000000D03*
%TD*%
D12*
%TO.C,C3*%
X41305000Y29200000D03*
X44255000Y29200000D03*
%TD*%
D18*
%TO.C,C11*%
X42137500Y25800000D03*
X45262500Y25800000D03*
%TD*%
D12*
%TO.C,C2*%
X41190000Y69100000D03*
X44140000Y69100000D03*
%TD*%
D17*
%TO.C,C4*%
X11125000Y72200000D03*
X14075000Y72200000D03*
%TD*%
D18*
%TO.C,C8*%
X35902500Y60000000D03*
X39027500Y60000000D03*
%TD*%
%TO.C,C12*%
X42237500Y65700000D03*
X45362500Y65700000D03*
%TD*%
M02*
