%TF.GenerationSoftware,KiCad,Pcbnew,7.0.9*%
%TF.CreationDate,2024-02-10T00:09:35-05:00*%
%TF.ProjectId,BREAD_Slice,42524541-445f-4536-9c69-63652e6b6963,rev?*%
%TF.SameCoordinates,PX74eba40PY8552dc0*%
%TF.FileFunction,Legend,Top*%
%TF.FilePolarity,Positive*%
%FSLAX46Y46*%
G04 Gerber Fmt 4.6, Leading zero omitted, Abs format (unit mm)*
G04 Created by KiCad (PCBNEW 7.0.9) date 2024-02-10 00:09:35*
%MOMM*%
%LPD*%
G01*
G04 APERTURE LIST*
%ADD10C,0.120000*%
%ADD11C,0.150000*%
%ADD12C,0.100000*%
%ADD13C,0.177800*%
%ADD14C,0.200000*%
%ADD15C,0.010000*%
G04 APERTURE END LIST*
D10*
X53200000Y10600000D02*
X53200000Y11920000D01*
X53200000Y12400000D02*
X53200000Y13720000D01*
X53200000Y14200000D02*
X53200000Y15520000D01*
X53200000Y16000000D02*
X53200000Y17320000D01*
X53200000Y17800000D02*
X53200000Y19120000D01*
X53200000Y19600000D02*
X53200000Y20920000D01*
X53200000Y21400000D02*
X53200000Y22720000D01*
X53200000Y23200000D02*
X53200000Y24520000D01*
X53200000Y25000000D02*
X53200000Y26320000D01*
X53200000Y26800000D02*
X53200000Y28120000D01*
X53200000Y28600000D02*
X53200000Y29920000D01*
X53200000Y30400000D02*
X53200000Y31720000D01*
X53200000Y32200000D02*
X53200000Y33520000D01*
X53200000Y34000000D02*
X53200000Y35320000D01*
X53200000Y35800000D02*
X53200000Y37120000D01*
X53200000Y37600000D02*
X53200000Y38920000D01*
X53200000Y39400000D02*
X53200000Y40500000D01*
X69900000Y40500000D02*
X68580000Y40500000D01*
X68100000Y40500000D02*
X66780000Y40500000D01*
X66300000Y40500000D02*
X64980000Y40500000D01*
X64500000Y40500000D02*
X63180000Y40500000D01*
X62700000Y40500000D02*
X61380000Y40500000D01*
X60900000Y40500000D02*
X59580000Y40500000D01*
X59100000Y40500000D02*
X57780000Y40500000D01*
X57300000Y40500000D02*
X55980000Y40500000D01*
X55500000Y40500000D02*
X54180000Y40500000D01*
X53700000Y40500000D02*
X53200000Y40500000D01*
X69900000Y64800000D02*
X68580000Y64800000D01*
X68100000Y64800000D02*
X66780000Y64800000D01*
X66300000Y64800000D02*
X64980000Y64800000D01*
X64500000Y64800000D02*
X63180000Y64800000D01*
X62700000Y64800000D02*
X61380000Y64800000D01*
X60900000Y64800000D02*
X59580000Y64800000D01*
X59100000Y64800000D02*
X57780000Y64800000D01*
X57300000Y64800000D02*
X55980000Y64800000D01*
X55500000Y64800000D02*
X54180000Y64800000D01*
X53700000Y64800000D02*
X53200000Y64800000D01*
X55300000Y24900000D02*
X53980000Y24900000D01*
X53500000Y24900000D02*
X53200000Y24900000D01*
X53200000Y67000000D02*
X53200000Y68320000D01*
X53200000Y68800000D02*
X53200000Y70120000D01*
X53200000Y70600000D02*
X53200000Y71920000D01*
X53200000Y72400000D02*
X53200000Y73720000D01*
X53200000Y74200000D02*
X53200000Y75520000D01*
X53200000Y76000000D02*
X53200000Y77320000D01*
X53200000Y77800000D02*
X53200000Y79120000D01*
X53200000Y79600000D02*
X53200000Y80920000D01*
X53200000Y81400000D02*
X53200000Y82720000D01*
X53200000Y83200000D02*
X53200000Y84520000D01*
X53200000Y85000000D02*
X53200000Y86320000D01*
X53200000Y86800000D02*
X53200000Y88120000D01*
X53200000Y88600000D02*
X53200000Y89000000D01*
X31900000Y56700000D02*
X33220000Y56700000D01*
X33700000Y56700000D02*
X35020000Y56700000D01*
X35500000Y56700000D02*
X36820000Y56700000D01*
X37300000Y56700000D02*
X38620000Y56700000D01*
X39100000Y56700000D02*
X40420000Y56700000D01*
X40900000Y56700000D02*
X42220000Y56700000D01*
X42700000Y56700000D02*
X44020000Y56700000D01*
X44500000Y56700000D02*
X45820000Y56700000D01*
X46300000Y56700000D02*
X47620000Y56700000D01*
X48100000Y56700000D02*
X49420000Y56700000D01*
X49900000Y56700000D02*
X51220000Y56700000D01*
X51700000Y56700000D02*
X52900000Y56700000D01*
X52900000Y56700000D02*
X52900000Y55380000D01*
X52900000Y54900000D02*
X52900000Y53580000D01*
X52900000Y53100000D02*
X52900000Y51780000D01*
X52900000Y51300000D02*
X52900000Y49980000D01*
X52900000Y49500000D02*
X52900000Y48180000D01*
X52900000Y47700000D02*
X52900000Y46380000D01*
X52900000Y45900000D02*
X52900000Y44580000D01*
X52900000Y44100000D02*
X52900000Y42780000D01*
X52900000Y42300000D02*
X52900000Y40980000D01*
X52900000Y40500000D02*
X52900000Y39180000D01*
X52900000Y38700000D02*
X52900000Y37380000D01*
X52900000Y36900000D02*
X52900000Y35580000D01*
X52900000Y35100000D02*
X52900000Y33780000D01*
X52900000Y33300000D02*
X52900000Y31980000D01*
X52900000Y31500000D02*
X52900000Y30180000D01*
X52900000Y29700000D02*
X52900000Y28380000D01*
X52900000Y27900000D02*
X52900000Y26580000D01*
X52900000Y26100000D02*
X52900000Y24780000D01*
X52900000Y24300000D02*
X52900000Y22980000D01*
X52900000Y22500000D02*
X52900000Y21180000D01*
X52900000Y20700000D02*
X52900000Y19380000D01*
X52900000Y18900000D02*
X52900000Y17580000D01*
X52900000Y17100000D02*
X52900000Y16974600D01*
X52900000Y16974600D02*
X51580000Y16974600D01*
X51100000Y16974600D02*
X49780000Y16974600D01*
X49300000Y16974600D02*
X47980000Y16974600D01*
X47500000Y16974600D02*
X46180000Y16974600D01*
X45700000Y16974600D02*
X44380000Y16974600D01*
X43900000Y16974600D02*
X42580000Y16974600D01*
X42100000Y16974600D02*
X40780000Y16974600D01*
X40300000Y16974600D02*
X38980000Y16974600D01*
X38500000Y16974600D02*
X37180000Y16974600D01*
X36700000Y16974600D02*
X35380000Y16974600D01*
X34900000Y16974600D02*
X33580000Y16974600D01*
X33100000Y16974600D02*
X31900000Y16974600D01*
X31900000Y16974600D02*
X31900000Y18294600D01*
X31900000Y18774600D02*
X31900000Y20094600D01*
X31900000Y20574600D02*
X31900000Y21894600D01*
X31900000Y22374600D02*
X31900000Y23694600D01*
X31900000Y24174600D02*
X31900000Y25494600D01*
X31900000Y25974600D02*
X31900000Y27294600D01*
X31900000Y27774600D02*
X31900000Y29094600D01*
X31900000Y29574600D02*
X31900000Y30894600D01*
X31900000Y31374600D02*
X31900000Y32694600D01*
X31900000Y33174600D02*
X31900000Y34494600D01*
X31900000Y34974600D02*
X31900000Y36294600D01*
X31900000Y36774600D02*
X31900000Y38094600D01*
X31900000Y38574600D02*
X31900000Y39894600D01*
X31900000Y40374600D02*
X31900000Y41694600D01*
X31900000Y42174600D02*
X31900000Y43494600D01*
X31900000Y43974600D02*
X31900000Y45294600D01*
X31900000Y45774600D02*
X31900000Y47094600D01*
X31900000Y47574600D02*
X31900000Y48894600D01*
X31900000Y49374600D02*
X31900000Y50694600D01*
X31900000Y51174600D02*
X31900000Y52494600D01*
X31900000Y52974600D02*
X31900000Y54294600D01*
X31900000Y54774600D02*
X31900000Y56094600D01*
X31900000Y56574600D02*
X31900000Y56700000D01*
X69900000Y89000000D02*
X68580000Y89000000D01*
X68100000Y89000000D02*
X66780000Y89000000D01*
X66300000Y89000000D02*
X64980000Y89000000D01*
X64500000Y89000000D02*
X63180000Y89000000D01*
X62700000Y89000000D02*
X61380000Y89000000D01*
X60900000Y89000000D02*
X59580000Y89000000D01*
X59100000Y89000000D02*
X57780000Y89000000D01*
X57300000Y89000000D02*
X55980000Y89000000D01*
X55500000Y89000000D02*
X54180000Y89000000D01*
X53700000Y89000000D02*
X53200000Y89000000D01*
X31900000Y96425400D02*
X33220000Y96425400D01*
X33700000Y96425400D02*
X35020000Y96425400D01*
X35500000Y96425400D02*
X36820000Y96425400D01*
X37300000Y96425400D02*
X38620000Y96425400D01*
X39100000Y96425400D02*
X40420000Y96425400D01*
X40900000Y96425400D02*
X42220000Y96425400D01*
X42700000Y96425400D02*
X44020000Y96425400D01*
X44500000Y96425400D02*
X45820000Y96425400D01*
X46300000Y96425400D02*
X47620000Y96425400D01*
X48100000Y96425400D02*
X49420000Y96425400D01*
X49900000Y96425400D02*
X51220000Y96425400D01*
X51700000Y96425400D02*
X52900000Y96425400D01*
X52900000Y96425400D02*
X52900000Y95105400D01*
X52900000Y94625400D02*
X52900000Y93305400D01*
X52900000Y92825400D02*
X52900000Y91505400D01*
X52900000Y91025400D02*
X52900000Y89705400D01*
X52900000Y89225400D02*
X52900000Y87905400D01*
X52900000Y87425400D02*
X52900000Y86105400D01*
X52900000Y85625400D02*
X52900000Y84305400D01*
X52900000Y83825400D02*
X52900000Y82505400D01*
X52900000Y82025400D02*
X52900000Y80705400D01*
X52900000Y80225400D02*
X52900000Y78905400D01*
X52900000Y78425400D02*
X52900000Y77105400D01*
X52900000Y76625400D02*
X52900000Y75305400D01*
X52900000Y74825400D02*
X52900000Y73505400D01*
X52900000Y73025400D02*
X52900000Y71705400D01*
X52900000Y71225400D02*
X52900000Y69905400D01*
X52900000Y69425400D02*
X52900000Y68105400D01*
X52900000Y67625400D02*
X52900000Y66305400D01*
X52900000Y65825400D02*
X52900000Y64505400D01*
X52900000Y64025400D02*
X52900000Y62705400D01*
X52900000Y62225400D02*
X52900000Y60905400D01*
X52900000Y60425400D02*
X52900000Y59105400D01*
X52900000Y58625400D02*
X52900000Y57305400D01*
X52900000Y56825400D02*
X52900000Y56700000D01*
X52900000Y56700000D02*
X51580000Y56700000D01*
X51100000Y56700000D02*
X49780000Y56700000D01*
X49300000Y56700000D02*
X47980000Y56700000D01*
X47500000Y56700000D02*
X46180000Y56700000D01*
X45700000Y56700000D02*
X44380000Y56700000D01*
X43900000Y56700000D02*
X42580000Y56700000D01*
X42100000Y56700000D02*
X40780000Y56700000D01*
X40300000Y56700000D02*
X38980000Y56700000D01*
X38500000Y56700000D02*
X37180000Y56700000D01*
X36700000Y56700000D02*
X35380000Y56700000D01*
X34900000Y56700000D02*
X33580000Y56700000D01*
X33100000Y56700000D02*
X31900000Y56700000D01*
X31900000Y56700000D02*
X31900000Y58020000D01*
X31900000Y58500000D02*
X31900000Y59820000D01*
X31900000Y60300000D02*
X31900000Y61620000D01*
X31900000Y62100000D02*
X31900000Y63420000D01*
X31900000Y63900000D02*
X31900000Y65220000D01*
X31900000Y65700000D02*
X31900000Y67020000D01*
X31900000Y67500000D02*
X31900000Y68820000D01*
X31900000Y69300000D02*
X31900000Y70620000D01*
X31900000Y71100000D02*
X31900000Y72420000D01*
X31900000Y72900000D02*
X31900000Y74220000D01*
X31900000Y74700000D02*
X31900000Y76020000D01*
X31900000Y76500000D02*
X31900000Y77820000D01*
X31900000Y78300000D02*
X31900000Y79620000D01*
X31900000Y80100000D02*
X31900000Y81420000D01*
X31900000Y81900000D02*
X31900000Y83220000D01*
X31900000Y83700000D02*
X31900000Y85020000D01*
X31900000Y85500000D02*
X31900000Y86820000D01*
X31900000Y87300000D02*
X31900000Y88620000D01*
X31900000Y89100000D02*
X31900000Y90420000D01*
X31900000Y90900000D02*
X31900000Y92220000D01*
X31900000Y92700000D02*
X31900000Y94020000D01*
X31900000Y94500000D02*
X31900000Y95820000D01*
X31900000Y96300000D02*
X31900000Y96425400D01*
X53200000Y42800000D02*
X53200000Y44120000D01*
X53200000Y44600000D02*
X53200000Y45920000D01*
X53200000Y46400000D02*
X53200000Y47720000D01*
X53200000Y48200000D02*
X53200000Y49520000D01*
X53200000Y50000000D02*
X53200000Y51320000D01*
X53200000Y51800000D02*
X53200000Y53120000D01*
X53200000Y53600000D02*
X53200000Y54920000D01*
X53200000Y55400000D02*
X53200000Y56720000D01*
X53200000Y57200000D02*
X53200000Y58520000D01*
X53200000Y59000000D02*
X53200000Y60320000D01*
X53200000Y60800000D02*
X53200000Y62120000D01*
X53200000Y62600000D02*
X53200000Y63920000D01*
X53200000Y64400000D02*
X53200000Y64800000D01*
X69900000Y42800000D02*
X68580000Y42800000D01*
X68100000Y42800000D02*
X66780000Y42800000D01*
X66300000Y42800000D02*
X64980000Y42800000D01*
X64500000Y42800000D02*
X63180000Y42800000D01*
X62700000Y42800000D02*
X61380000Y42800000D01*
X60900000Y42800000D02*
X59580000Y42800000D01*
X59100000Y42800000D02*
X57780000Y42800000D01*
X57300000Y42800000D02*
X55980000Y42800000D01*
X55500000Y42800000D02*
X54180000Y42800000D01*
X53700000Y42800000D02*
X53200000Y42800000D01*
X69900000Y10600000D02*
X68580000Y10600000D01*
X68100000Y10600000D02*
X66780000Y10600000D01*
X66300000Y10600000D02*
X64980000Y10600000D01*
X64500000Y10600000D02*
X63180000Y10600000D01*
X62700000Y10600000D02*
X61380000Y10600000D01*
X60900000Y10600000D02*
X59580000Y10600000D01*
X59100000Y10600000D02*
X57780000Y10600000D01*
X57300000Y10600000D02*
X55980000Y10600000D01*
X55500000Y10600000D02*
X54180000Y10600000D01*
X53700000Y10600000D02*
X53200000Y10600000D01*
X69900000Y67000000D02*
X68580000Y67000000D01*
X68100000Y67000000D02*
X66780000Y67000000D01*
X66300000Y67000000D02*
X64980000Y67000000D01*
X64500000Y67000000D02*
X63180000Y67000000D01*
X62700000Y67000000D02*
X61380000Y67000000D01*
X60900000Y67000000D02*
X59580000Y67000000D01*
X59100000Y67000000D02*
X57780000Y67000000D01*
X57300000Y67000000D02*
X55980000Y67000000D01*
X55500000Y67000000D02*
X54180000Y67000000D01*
X53700000Y67000000D02*
X53200000Y67000000D01*
D11*
X45709523Y74330181D02*
X45709523Y75330181D01*
X45709523Y75330181D02*
X46042856Y74615896D01*
X46042856Y74615896D02*
X46376189Y75330181D01*
X46376189Y75330181D02*
X46376189Y74330181D01*
X46995237Y74330181D02*
X46899999Y74377800D01*
X46899999Y74377800D02*
X46852380Y74425420D01*
X46852380Y74425420D02*
X46804761Y74520658D01*
X46804761Y74520658D02*
X46804761Y74806372D01*
X46804761Y74806372D02*
X46852380Y74901610D01*
X46852380Y74901610D02*
X46899999Y74949229D01*
X46899999Y74949229D02*
X46995237Y74996848D01*
X46995237Y74996848D02*
X47138094Y74996848D01*
X47138094Y74996848D02*
X47233332Y74949229D01*
X47233332Y74949229D02*
X47280951Y74901610D01*
X47280951Y74901610D02*
X47328570Y74806372D01*
X47328570Y74806372D02*
X47328570Y74520658D01*
X47328570Y74520658D02*
X47280951Y74425420D01*
X47280951Y74425420D02*
X47233332Y74377800D01*
X47233332Y74377800D02*
X47138094Y74330181D01*
X47138094Y74330181D02*
X46995237Y74330181D01*
X47614285Y74996848D02*
X47995237Y74996848D01*
X47757142Y75330181D02*
X47757142Y74473039D01*
X47757142Y74473039D02*
X47804761Y74377800D01*
X47804761Y74377800D02*
X47899999Y74330181D01*
X47899999Y74330181D02*
X47995237Y74330181D01*
X48471428Y74330181D02*
X48376190Y74377800D01*
X48376190Y74377800D02*
X48328571Y74425420D01*
X48328571Y74425420D02*
X48280952Y74520658D01*
X48280952Y74520658D02*
X48280952Y74806372D01*
X48280952Y74806372D02*
X48328571Y74901610D01*
X48328571Y74901610D02*
X48376190Y74949229D01*
X48376190Y74949229D02*
X48471428Y74996848D01*
X48471428Y74996848D02*
X48614285Y74996848D01*
X48614285Y74996848D02*
X48709523Y74949229D01*
X48709523Y74949229D02*
X48757142Y74901610D01*
X48757142Y74901610D02*
X48804761Y74806372D01*
X48804761Y74806372D02*
X48804761Y74520658D01*
X48804761Y74520658D02*
X48757142Y74425420D01*
X48757142Y74425420D02*
X48709523Y74377800D01*
X48709523Y74377800D02*
X48614285Y74330181D01*
X48614285Y74330181D02*
X48471428Y74330181D01*
X49233333Y74330181D02*
X49233333Y74996848D01*
X49233333Y74806372D02*
X49280952Y74901610D01*
X49280952Y74901610D02*
X49328571Y74949229D01*
X49328571Y74949229D02*
X49423809Y74996848D01*
X49423809Y74996848D02*
X49519047Y74996848D01*
X51138095Y74330181D02*
X50566667Y74330181D01*
X50852381Y74330181D02*
X50852381Y75330181D01*
X50852381Y75330181D02*
X50757143Y75187324D01*
X50757143Y75187324D02*
X50661905Y75092086D01*
X50661905Y75092086D02*
X50566667Y75044467D01*
X5790476Y51599610D02*
X5714286Y51637705D01*
X5714286Y51637705D02*
X5600000Y51637705D01*
X5600000Y51637705D02*
X5485714Y51599610D01*
X5485714Y51599610D02*
X5409524Y51523420D01*
X5409524Y51523420D02*
X5371429Y51447229D01*
X5371429Y51447229D02*
X5333333Y51294848D01*
X5333333Y51294848D02*
X5333333Y51180562D01*
X5333333Y51180562D02*
X5371429Y51028181D01*
X5371429Y51028181D02*
X5409524Y50951991D01*
X5409524Y50951991D02*
X5485714Y50875800D01*
X5485714Y50875800D02*
X5600000Y50837705D01*
X5600000Y50837705D02*
X5676191Y50837705D01*
X5676191Y50837705D02*
X5790476Y50875800D01*
X5790476Y50875800D02*
X5828572Y50913896D01*
X5828572Y50913896D02*
X5828572Y51180562D01*
X5828572Y51180562D02*
X5676191Y51180562D01*
X6171429Y50837705D02*
X6171429Y51637705D01*
X6171429Y51637705D02*
X6628572Y50837705D01*
X6628572Y50837705D02*
X6628572Y51637705D01*
X7009524Y50837705D02*
X7009524Y51637705D01*
X7009524Y51637705D02*
X7200000Y51637705D01*
X7200000Y51637705D02*
X7314286Y51599610D01*
X7314286Y51599610D02*
X7390476Y51523420D01*
X7390476Y51523420D02*
X7428571Y51447229D01*
X7428571Y51447229D02*
X7466667Y51294848D01*
X7466667Y51294848D02*
X7466667Y51180562D01*
X7466667Y51180562D02*
X7428571Y51028181D01*
X7428571Y51028181D02*
X7390476Y50951991D01*
X7390476Y50951991D02*
X7314286Y50875800D01*
X7314286Y50875800D02*
X7200000Y50837705D01*
X7200000Y50837705D02*
X7009524Y50837705D01*
X54346009Y13728572D02*
X54346009Y14061905D01*
X54869819Y14204762D02*
X54869819Y13728572D01*
X54869819Y13728572D02*
X53869819Y13728572D01*
X53869819Y13728572D02*
X53869819Y14204762D01*
X54869819Y14633334D02*
X53869819Y14633334D01*
X53869819Y14633334D02*
X54869819Y15204762D01*
X54869819Y15204762D02*
X53869819Y15204762D01*
X54774580Y16252381D02*
X54822200Y16204762D01*
X54822200Y16204762D02*
X54869819Y16061905D01*
X54869819Y16061905D02*
X54869819Y15966667D01*
X54869819Y15966667D02*
X54822200Y15823810D01*
X54822200Y15823810D02*
X54726961Y15728572D01*
X54726961Y15728572D02*
X54631723Y15680953D01*
X54631723Y15680953D02*
X54441247Y15633334D01*
X54441247Y15633334D02*
X54298390Y15633334D01*
X54298390Y15633334D02*
X54107914Y15680953D01*
X54107914Y15680953D02*
X54012676Y15728572D01*
X54012676Y15728572D02*
X53917438Y15823810D01*
X53917438Y15823810D02*
X53869819Y15966667D01*
X53869819Y15966667D02*
X53869819Y16061905D01*
X53869819Y16061905D02*
X53917438Y16204762D01*
X53917438Y16204762D02*
X53965057Y16252381D01*
X53869819Y16871429D02*
X53869819Y17061905D01*
X53869819Y17061905D02*
X53917438Y17157143D01*
X53917438Y17157143D02*
X54012676Y17252381D01*
X54012676Y17252381D02*
X54203152Y17300000D01*
X54203152Y17300000D02*
X54536485Y17300000D01*
X54536485Y17300000D02*
X54726961Y17252381D01*
X54726961Y17252381D02*
X54822200Y17157143D01*
X54822200Y17157143D02*
X54869819Y17061905D01*
X54869819Y17061905D02*
X54869819Y16871429D01*
X54869819Y16871429D02*
X54822200Y16776191D01*
X54822200Y16776191D02*
X54726961Y16680953D01*
X54726961Y16680953D02*
X54536485Y16633334D01*
X54536485Y16633334D02*
X54203152Y16633334D01*
X54203152Y16633334D02*
X54012676Y16680953D01*
X54012676Y16680953D02*
X53917438Y16776191D01*
X53917438Y16776191D02*
X53869819Y16871429D01*
X54869819Y17728572D02*
X53869819Y17728572D01*
X53869819Y17728572D02*
X53869819Y17966667D01*
X53869819Y17966667D02*
X53917438Y18109524D01*
X53917438Y18109524D02*
X54012676Y18204762D01*
X54012676Y18204762D02*
X54107914Y18252381D01*
X54107914Y18252381D02*
X54298390Y18300000D01*
X54298390Y18300000D02*
X54441247Y18300000D01*
X54441247Y18300000D02*
X54631723Y18252381D01*
X54631723Y18252381D02*
X54726961Y18204762D01*
X54726961Y18204762D02*
X54822200Y18109524D01*
X54822200Y18109524D02*
X54869819Y17966667D01*
X54869819Y17966667D02*
X54869819Y17728572D01*
X54346009Y18728572D02*
X54346009Y19061905D01*
X54869819Y19204762D02*
X54869819Y18728572D01*
X54869819Y18728572D02*
X53869819Y18728572D01*
X53869819Y18728572D02*
X53869819Y19204762D01*
X54869819Y20204762D02*
X54393628Y19871429D01*
X54869819Y19633334D02*
X53869819Y19633334D01*
X53869819Y19633334D02*
X53869819Y20014286D01*
X53869819Y20014286D02*
X53917438Y20109524D01*
X53917438Y20109524D02*
X53965057Y20157143D01*
X53965057Y20157143D02*
X54060295Y20204762D01*
X54060295Y20204762D02*
X54203152Y20204762D01*
X54203152Y20204762D02*
X54298390Y20157143D01*
X54298390Y20157143D02*
X54346009Y20109524D01*
X54346009Y20109524D02*
X54393628Y20014286D01*
X54393628Y20014286D02*
X54393628Y19633334D01*
X53965057Y21347620D02*
X53917438Y21395239D01*
X53917438Y21395239D02*
X53869819Y21490477D01*
X53869819Y21490477D02*
X53869819Y21728572D01*
X53869819Y21728572D02*
X53917438Y21823810D01*
X53917438Y21823810D02*
X53965057Y21871429D01*
X53965057Y21871429D02*
X54060295Y21919048D01*
X54060295Y21919048D02*
X54155533Y21919048D01*
X54155533Y21919048D02*
X54298390Y21871429D01*
X54298390Y21871429D02*
X54869819Y21300001D01*
X54869819Y21300001D02*
X54869819Y21919048D01*
X43080952Y94735420D02*
X43033333Y94687800D01*
X43033333Y94687800D02*
X42890476Y94640181D01*
X42890476Y94640181D02*
X42795238Y94640181D01*
X42795238Y94640181D02*
X42652381Y94687800D01*
X42652381Y94687800D02*
X42557143Y94783039D01*
X42557143Y94783039D02*
X42509524Y94878277D01*
X42509524Y94878277D02*
X42461905Y95068753D01*
X42461905Y95068753D02*
X42461905Y95211610D01*
X42461905Y95211610D02*
X42509524Y95402086D01*
X42509524Y95402086D02*
X42557143Y95497324D01*
X42557143Y95497324D02*
X42652381Y95592562D01*
X42652381Y95592562D02*
X42795238Y95640181D01*
X42795238Y95640181D02*
X42890476Y95640181D01*
X42890476Y95640181D02*
X43033333Y95592562D01*
X43033333Y95592562D02*
X43080952Y95544943D01*
X43509524Y95640181D02*
X43509524Y94830658D01*
X43509524Y94830658D02*
X43557143Y94735420D01*
X43557143Y94735420D02*
X43604762Y94687800D01*
X43604762Y94687800D02*
X43700000Y94640181D01*
X43700000Y94640181D02*
X43890476Y94640181D01*
X43890476Y94640181D02*
X43985714Y94687800D01*
X43985714Y94687800D02*
X44033333Y94735420D01*
X44033333Y94735420D02*
X44080952Y94830658D01*
X44080952Y94830658D02*
X44080952Y95640181D01*
X44509524Y94687800D02*
X44652381Y94640181D01*
X44652381Y94640181D02*
X44890476Y94640181D01*
X44890476Y94640181D02*
X44985714Y94687800D01*
X44985714Y94687800D02*
X45033333Y94735420D01*
X45033333Y94735420D02*
X45080952Y94830658D01*
X45080952Y94830658D02*
X45080952Y94925896D01*
X45080952Y94925896D02*
X45033333Y95021134D01*
X45033333Y95021134D02*
X44985714Y95068753D01*
X44985714Y95068753D02*
X44890476Y95116372D01*
X44890476Y95116372D02*
X44700000Y95163991D01*
X44700000Y95163991D02*
X44604762Y95211610D01*
X44604762Y95211610D02*
X44557143Y95259229D01*
X44557143Y95259229D02*
X44509524Y95354467D01*
X44509524Y95354467D02*
X44509524Y95449705D01*
X44509524Y95449705D02*
X44557143Y95544943D01*
X44557143Y95544943D02*
X44604762Y95592562D01*
X44604762Y95592562D02*
X44700000Y95640181D01*
X44700000Y95640181D02*
X44938095Y95640181D01*
X44938095Y95640181D02*
X45080952Y95592562D01*
X45366667Y95640181D02*
X45938095Y95640181D01*
X45652381Y94640181D02*
X45652381Y95640181D01*
X46461905Y95640181D02*
X46652381Y95640181D01*
X46652381Y95640181D02*
X46747619Y95592562D01*
X46747619Y95592562D02*
X46842857Y95497324D01*
X46842857Y95497324D02*
X46890476Y95306848D01*
X46890476Y95306848D02*
X46890476Y94973515D01*
X46890476Y94973515D02*
X46842857Y94783039D01*
X46842857Y94783039D02*
X46747619Y94687800D01*
X46747619Y94687800D02*
X46652381Y94640181D01*
X46652381Y94640181D02*
X46461905Y94640181D01*
X46461905Y94640181D02*
X46366667Y94687800D01*
X46366667Y94687800D02*
X46271429Y94783039D01*
X46271429Y94783039D02*
X46223810Y94973515D01*
X46223810Y94973515D02*
X46223810Y95306848D01*
X46223810Y95306848D02*
X46271429Y95497324D01*
X46271429Y95497324D02*
X46366667Y95592562D01*
X46366667Y95592562D02*
X46461905Y95640181D01*
X47319048Y94640181D02*
X47319048Y95640181D01*
X47319048Y95640181D02*
X47652381Y94925896D01*
X47652381Y94925896D02*
X47985714Y95640181D01*
X47985714Y95640181D02*
X47985714Y94640181D01*
X49223810Y94640181D02*
X49223810Y95640181D01*
X49223810Y95640181D02*
X49604762Y95640181D01*
X49604762Y95640181D02*
X49700000Y95592562D01*
X49700000Y95592562D02*
X49747619Y95544943D01*
X49747619Y95544943D02*
X49795238Y95449705D01*
X49795238Y95449705D02*
X49795238Y95306848D01*
X49795238Y95306848D02*
X49747619Y95211610D01*
X49747619Y95211610D02*
X49700000Y95163991D01*
X49700000Y95163991D02*
X49604762Y95116372D01*
X49604762Y95116372D02*
X49223810Y95116372D01*
X50128572Y95640181D02*
X50366667Y94640181D01*
X50366667Y94640181D02*
X50557143Y95354467D01*
X50557143Y95354467D02*
X50747619Y94640181D01*
X50747619Y94640181D02*
X50985715Y95640181D01*
X51938095Y94640181D02*
X51604762Y95116372D01*
X51366667Y94640181D02*
X51366667Y95640181D01*
X51366667Y95640181D02*
X51747619Y95640181D01*
X51747619Y95640181D02*
X51842857Y95592562D01*
X51842857Y95592562D02*
X51890476Y95544943D01*
X51890476Y95544943D02*
X51938095Y95449705D01*
X51938095Y95449705D02*
X51938095Y95306848D01*
X51938095Y95306848D02*
X51890476Y95211610D01*
X51890476Y95211610D02*
X51842857Y95163991D01*
X51842857Y95163991D02*
X51747619Y95116372D01*
X51747619Y95116372D02*
X51366667Y95116372D01*
X46200000Y93411134D02*
X46961905Y93411134D01*
X47438095Y93696848D02*
X48200000Y93411134D01*
X48200000Y93411134D02*
X47438095Y93125420D01*
X54869819Y75280953D02*
X53869819Y75280953D01*
X53869819Y75280953D02*
X54584104Y75614286D01*
X54584104Y75614286D02*
X53869819Y75947619D01*
X53869819Y75947619D02*
X54869819Y75947619D01*
X53869819Y76614286D02*
X53869819Y76804762D01*
X53869819Y76804762D02*
X53917438Y76900000D01*
X53917438Y76900000D02*
X54012676Y76995238D01*
X54012676Y76995238D02*
X54203152Y77042857D01*
X54203152Y77042857D02*
X54536485Y77042857D01*
X54536485Y77042857D02*
X54726961Y76995238D01*
X54726961Y76995238D02*
X54822200Y76900000D01*
X54822200Y76900000D02*
X54869819Y76804762D01*
X54869819Y76804762D02*
X54869819Y76614286D01*
X54869819Y76614286D02*
X54822200Y76519048D01*
X54822200Y76519048D02*
X54726961Y76423810D01*
X54726961Y76423810D02*
X54536485Y76376191D01*
X54536485Y76376191D02*
X54203152Y76376191D01*
X54203152Y76376191D02*
X54012676Y76423810D01*
X54012676Y76423810D02*
X53917438Y76519048D01*
X53917438Y76519048D02*
X53869819Y76614286D01*
X53869819Y77328572D02*
X53869819Y77900000D01*
X54869819Y77614286D02*
X53869819Y77614286D01*
X53869819Y78423810D02*
X53869819Y78614286D01*
X53869819Y78614286D02*
X53917438Y78709524D01*
X53917438Y78709524D02*
X54012676Y78804762D01*
X54012676Y78804762D02*
X54203152Y78852381D01*
X54203152Y78852381D02*
X54536485Y78852381D01*
X54536485Y78852381D02*
X54726961Y78804762D01*
X54726961Y78804762D02*
X54822200Y78709524D01*
X54822200Y78709524D02*
X54869819Y78614286D01*
X54869819Y78614286D02*
X54869819Y78423810D01*
X54869819Y78423810D02*
X54822200Y78328572D01*
X54822200Y78328572D02*
X54726961Y78233334D01*
X54726961Y78233334D02*
X54536485Y78185715D01*
X54536485Y78185715D02*
X54203152Y78185715D01*
X54203152Y78185715D02*
X54012676Y78233334D01*
X54012676Y78233334D02*
X53917438Y78328572D01*
X53917438Y78328572D02*
X53869819Y78423810D01*
X54869819Y79852381D02*
X54393628Y79519048D01*
X54869819Y79280953D02*
X53869819Y79280953D01*
X53869819Y79280953D02*
X53869819Y79661905D01*
X53869819Y79661905D02*
X53917438Y79757143D01*
X53917438Y79757143D02*
X53965057Y79804762D01*
X53965057Y79804762D02*
X54060295Y79852381D01*
X54060295Y79852381D02*
X54203152Y79852381D01*
X54203152Y79852381D02*
X54298390Y79804762D01*
X54298390Y79804762D02*
X54346009Y79757143D01*
X54346009Y79757143D02*
X54393628Y79661905D01*
X54393628Y79661905D02*
X54393628Y79280953D01*
X54869819Y81566667D02*
X54869819Y80995239D01*
X54869819Y81280953D02*
X53869819Y81280953D01*
X53869819Y81280953D02*
X54012676Y81185715D01*
X54012676Y81185715D02*
X54107914Y81090477D01*
X54107914Y81090477D02*
X54155533Y80995239D01*
X5790476Y40687705D02*
X5333333Y40687705D01*
X5561905Y40687705D02*
X5561905Y41487705D01*
X5561905Y41487705D02*
X5485714Y41373420D01*
X5485714Y41373420D02*
X5409524Y41297229D01*
X5409524Y41297229D02*
X5333333Y41259134D01*
X6095238Y41411515D02*
X6133334Y41449610D01*
X6133334Y41449610D02*
X6209524Y41487705D01*
X6209524Y41487705D02*
X6400000Y41487705D01*
X6400000Y41487705D02*
X6476191Y41449610D01*
X6476191Y41449610D02*
X6514286Y41411515D01*
X6514286Y41411515D02*
X6552381Y41335324D01*
X6552381Y41335324D02*
X6552381Y41259134D01*
X6552381Y41259134D02*
X6514286Y41144848D01*
X6514286Y41144848D02*
X6057143Y40687705D01*
X6057143Y40687705D02*
X6552381Y40687705D01*
X6780953Y41487705D02*
X7047620Y40687705D01*
X7047620Y40687705D02*
X7314286Y41487705D01*
X5333333Y45825800D02*
X5447619Y45787705D01*
X5447619Y45787705D02*
X5638095Y45787705D01*
X5638095Y45787705D02*
X5714286Y45825800D01*
X5714286Y45825800D02*
X5752381Y45863896D01*
X5752381Y45863896D02*
X5790476Y45940086D01*
X5790476Y45940086D02*
X5790476Y46016277D01*
X5790476Y46016277D02*
X5752381Y46092467D01*
X5752381Y46092467D02*
X5714286Y46130562D01*
X5714286Y46130562D02*
X5638095Y46168658D01*
X5638095Y46168658D02*
X5485714Y46206753D01*
X5485714Y46206753D02*
X5409524Y46244848D01*
X5409524Y46244848D02*
X5371429Y46282943D01*
X5371429Y46282943D02*
X5333333Y46359134D01*
X5333333Y46359134D02*
X5333333Y46435324D01*
X5333333Y46435324D02*
X5371429Y46511515D01*
X5371429Y46511515D02*
X5409524Y46549610D01*
X5409524Y46549610D02*
X5485714Y46587705D01*
X5485714Y46587705D02*
X5676191Y46587705D01*
X5676191Y46587705D02*
X5790476Y46549610D01*
X6285715Y46168658D02*
X6285715Y45787705D01*
X6019048Y46587705D02*
X6285715Y46168658D01*
X6285715Y46168658D02*
X6552381Y46587705D01*
X6819048Y45787705D02*
X6819048Y46587705D01*
X6819048Y46587705D02*
X7276191Y45787705D01*
X7276191Y45787705D02*
X7276191Y46587705D01*
X8114286Y45863896D02*
X8076190Y45825800D01*
X8076190Y45825800D02*
X7961905Y45787705D01*
X7961905Y45787705D02*
X7885714Y45787705D01*
X7885714Y45787705D02*
X7771428Y45825800D01*
X7771428Y45825800D02*
X7695238Y45901991D01*
X7695238Y45901991D02*
X7657143Y45978181D01*
X7657143Y45978181D02*
X7619047Y46130562D01*
X7619047Y46130562D02*
X7619047Y46244848D01*
X7619047Y46244848D02*
X7657143Y46397229D01*
X7657143Y46397229D02*
X7695238Y46473420D01*
X7695238Y46473420D02*
X7771428Y46549610D01*
X7771428Y46549610D02*
X7885714Y46587705D01*
X7885714Y46587705D02*
X7961905Y46587705D01*
X7961905Y46587705D02*
X8076190Y46549610D01*
X8076190Y46549610D02*
X8114286Y46511515D01*
X5790476Y38949610D02*
X5714286Y38987705D01*
X5714286Y38987705D02*
X5600000Y38987705D01*
X5600000Y38987705D02*
X5485714Y38949610D01*
X5485714Y38949610D02*
X5409524Y38873420D01*
X5409524Y38873420D02*
X5371429Y38797229D01*
X5371429Y38797229D02*
X5333333Y38644848D01*
X5333333Y38644848D02*
X5333333Y38530562D01*
X5333333Y38530562D02*
X5371429Y38378181D01*
X5371429Y38378181D02*
X5409524Y38301991D01*
X5409524Y38301991D02*
X5485714Y38225800D01*
X5485714Y38225800D02*
X5600000Y38187705D01*
X5600000Y38187705D02*
X5676191Y38187705D01*
X5676191Y38187705D02*
X5790476Y38225800D01*
X5790476Y38225800D02*
X5828572Y38263896D01*
X5828572Y38263896D02*
X5828572Y38530562D01*
X5828572Y38530562D02*
X5676191Y38530562D01*
X6171429Y38187705D02*
X6171429Y38987705D01*
X6171429Y38987705D02*
X6628572Y38187705D01*
X6628572Y38187705D02*
X6628572Y38987705D01*
X7009524Y38187705D02*
X7009524Y38987705D01*
X7009524Y38987705D02*
X7200000Y38987705D01*
X7200000Y38987705D02*
X7314286Y38949610D01*
X7314286Y38949610D02*
X7390476Y38873420D01*
X7390476Y38873420D02*
X7428571Y38797229D01*
X7428571Y38797229D02*
X7466667Y38644848D01*
X7466667Y38644848D02*
X7466667Y38530562D01*
X7466667Y38530562D02*
X7428571Y38378181D01*
X7428571Y38378181D02*
X7390476Y38301991D01*
X7390476Y38301991D02*
X7314286Y38225800D01*
X7314286Y38225800D02*
X7200000Y38187705D01*
X7200000Y38187705D02*
X7009524Y38187705D01*
X6383990Y35829888D02*
X6336371Y35687031D01*
X6336371Y35687031D02*
X6288752Y35639412D01*
X6288752Y35639412D02*
X6193514Y35591793D01*
X6193514Y35591793D02*
X6050657Y35591793D01*
X6050657Y35591793D02*
X5955419Y35639412D01*
X5955419Y35639412D02*
X5907800Y35687031D01*
X5907800Y35687031D02*
X5860180Y35782269D01*
X5860180Y35782269D02*
X5860180Y36163221D01*
X5860180Y36163221D02*
X6860180Y36163221D01*
X6860180Y36163221D02*
X6860180Y35829888D01*
X6860180Y35829888D02*
X6812561Y35734650D01*
X6812561Y35734650D02*
X6764942Y35687031D01*
X6764942Y35687031D02*
X6669704Y35639412D01*
X6669704Y35639412D02*
X6574466Y35639412D01*
X6574466Y35639412D02*
X6479228Y35687031D01*
X6479228Y35687031D02*
X6431609Y35734650D01*
X6431609Y35734650D02*
X6383990Y35829888D01*
X6383990Y35829888D02*
X6383990Y36163221D01*
X5860180Y34591793D02*
X6336371Y34925126D01*
X5860180Y35163221D02*
X6860180Y35163221D01*
X6860180Y35163221D02*
X6860180Y34782269D01*
X6860180Y34782269D02*
X6812561Y34687031D01*
X6812561Y34687031D02*
X6764942Y34639412D01*
X6764942Y34639412D02*
X6669704Y34591793D01*
X6669704Y34591793D02*
X6526847Y34591793D01*
X6526847Y34591793D02*
X6431609Y34639412D01*
X6431609Y34639412D02*
X6383990Y34687031D01*
X6383990Y34687031D02*
X6336371Y34782269D01*
X6336371Y34782269D02*
X6336371Y35163221D01*
X6383990Y34163221D02*
X6383990Y33829888D01*
X5860180Y33687031D02*
X5860180Y34163221D01*
X5860180Y34163221D02*
X6860180Y34163221D01*
X6860180Y34163221D02*
X6860180Y33687031D01*
X6145895Y33306078D02*
X6145895Y32829888D01*
X5860180Y33401316D02*
X6860180Y33067983D01*
X6860180Y33067983D02*
X5860180Y32734650D01*
X5860180Y32401316D02*
X6860180Y32401316D01*
X6860180Y32401316D02*
X6860180Y32163221D01*
X6860180Y32163221D02*
X6812561Y32020364D01*
X6812561Y32020364D02*
X6717323Y31925126D01*
X6717323Y31925126D02*
X6622085Y31877507D01*
X6622085Y31877507D02*
X6431609Y31829888D01*
X6431609Y31829888D02*
X6288752Y31829888D01*
X6288752Y31829888D02*
X6098276Y31877507D01*
X6098276Y31877507D02*
X6003038Y31925126D01*
X6003038Y31925126D02*
X5907800Y32020364D01*
X5907800Y32020364D02*
X5860180Y32163221D01*
X5860180Y32163221D02*
X5860180Y32401316D01*
X5907800Y30687030D02*
X5860180Y30544173D01*
X5860180Y30544173D02*
X5860180Y30306078D01*
X5860180Y30306078D02*
X5907800Y30210840D01*
X5907800Y30210840D02*
X5955419Y30163221D01*
X5955419Y30163221D02*
X6050657Y30115602D01*
X6050657Y30115602D02*
X6145895Y30115602D01*
X6145895Y30115602D02*
X6241133Y30163221D01*
X6241133Y30163221D02*
X6288752Y30210840D01*
X6288752Y30210840D02*
X6336371Y30306078D01*
X6336371Y30306078D02*
X6383990Y30496554D01*
X6383990Y30496554D02*
X6431609Y30591792D01*
X6431609Y30591792D02*
X6479228Y30639411D01*
X6479228Y30639411D02*
X6574466Y30687030D01*
X6574466Y30687030D02*
X6669704Y30687030D01*
X6669704Y30687030D02*
X6764942Y30639411D01*
X6764942Y30639411D02*
X6812561Y30591792D01*
X6812561Y30591792D02*
X6860180Y30496554D01*
X6860180Y30496554D02*
X6860180Y30258459D01*
X6860180Y30258459D02*
X6812561Y30115602D01*
X5860180Y29544173D02*
X5907800Y29639411D01*
X5907800Y29639411D02*
X6003038Y29687030D01*
X6003038Y29687030D02*
X6860180Y29687030D01*
X5860180Y29163220D02*
X6526847Y29163220D01*
X6860180Y29163220D02*
X6812561Y29210839D01*
X6812561Y29210839D02*
X6764942Y29163220D01*
X6764942Y29163220D02*
X6812561Y29115601D01*
X6812561Y29115601D02*
X6860180Y29163220D01*
X6860180Y29163220D02*
X6764942Y29163220D01*
X5907800Y28258459D02*
X5860180Y28353697D01*
X5860180Y28353697D02*
X5860180Y28544173D01*
X5860180Y28544173D02*
X5907800Y28639411D01*
X5907800Y28639411D02*
X5955419Y28687030D01*
X5955419Y28687030D02*
X6050657Y28734649D01*
X6050657Y28734649D02*
X6336371Y28734649D01*
X6336371Y28734649D02*
X6431609Y28687030D01*
X6431609Y28687030D02*
X6479228Y28639411D01*
X6479228Y28639411D02*
X6526847Y28544173D01*
X6526847Y28544173D02*
X6526847Y28353697D01*
X6526847Y28353697D02*
X6479228Y28258459D01*
X5907800Y27448935D02*
X5860180Y27544173D01*
X5860180Y27544173D02*
X5860180Y27734649D01*
X5860180Y27734649D02*
X5907800Y27829887D01*
X5907800Y27829887D02*
X6003038Y27877506D01*
X6003038Y27877506D02*
X6383990Y27877506D01*
X6383990Y27877506D02*
X6479228Y27829887D01*
X6479228Y27829887D02*
X6526847Y27734649D01*
X6526847Y27734649D02*
X6526847Y27544173D01*
X6526847Y27544173D02*
X6479228Y27448935D01*
X6479228Y27448935D02*
X6383990Y27401316D01*
X6383990Y27401316D02*
X6288752Y27401316D01*
X6288752Y27401316D02*
X6193514Y27877506D01*
X4250180Y36163221D02*
X5250180Y36163221D01*
X5250180Y36163221D02*
X5250180Y35925126D01*
X5250180Y35925126D02*
X5202561Y35782269D01*
X5202561Y35782269D02*
X5107323Y35687031D01*
X5107323Y35687031D02*
X5012085Y35639412D01*
X5012085Y35639412D02*
X4821609Y35591793D01*
X4821609Y35591793D02*
X4678752Y35591793D01*
X4678752Y35591793D02*
X4488276Y35639412D01*
X4488276Y35639412D02*
X4393038Y35687031D01*
X4393038Y35687031D02*
X4297800Y35782269D01*
X4297800Y35782269D02*
X4250180Y35925126D01*
X4250180Y35925126D02*
X4250180Y36163221D01*
X4345419Y34591793D02*
X4297800Y34639412D01*
X4297800Y34639412D02*
X4250180Y34782269D01*
X4250180Y34782269D02*
X4250180Y34877507D01*
X4250180Y34877507D02*
X4297800Y35020364D01*
X4297800Y35020364D02*
X4393038Y35115602D01*
X4393038Y35115602D02*
X4488276Y35163221D01*
X4488276Y35163221D02*
X4678752Y35210840D01*
X4678752Y35210840D02*
X4821609Y35210840D01*
X4821609Y35210840D02*
X5012085Y35163221D01*
X5012085Y35163221D02*
X5107323Y35115602D01*
X5107323Y35115602D02*
X5202561Y35020364D01*
X5202561Y35020364D02*
X5250180Y34877507D01*
X5250180Y34877507D02*
X5250180Y34782269D01*
X5250180Y34782269D02*
X5202561Y34639412D01*
X5202561Y34639412D02*
X5154942Y34591793D01*
X4250180Y33401316D02*
X5250180Y33401316D01*
X5250180Y33401316D02*
X4535895Y33067983D01*
X4535895Y33067983D02*
X5250180Y32734650D01*
X5250180Y32734650D02*
X4250180Y32734650D01*
X4250180Y32115602D02*
X4297800Y32210840D01*
X4297800Y32210840D02*
X4345419Y32258459D01*
X4345419Y32258459D02*
X4440657Y32306078D01*
X4440657Y32306078D02*
X4726371Y32306078D01*
X4726371Y32306078D02*
X4821609Y32258459D01*
X4821609Y32258459D02*
X4869228Y32210840D01*
X4869228Y32210840D02*
X4916847Y32115602D01*
X4916847Y32115602D02*
X4916847Y31972745D01*
X4916847Y31972745D02*
X4869228Y31877507D01*
X4869228Y31877507D02*
X4821609Y31829888D01*
X4821609Y31829888D02*
X4726371Y31782269D01*
X4726371Y31782269D02*
X4440657Y31782269D01*
X4440657Y31782269D02*
X4345419Y31829888D01*
X4345419Y31829888D02*
X4297800Y31877507D01*
X4297800Y31877507D02*
X4250180Y31972745D01*
X4250180Y31972745D02*
X4250180Y32115602D01*
X4916847Y31496554D02*
X4916847Y31115602D01*
X5250180Y31353697D02*
X4393038Y31353697D01*
X4393038Y31353697D02*
X4297800Y31306078D01*
X4297800Y31306078D02*
X4250180Y31210840D01*
X4250180Y31210840D02*
X4250180Y31115602D01*
X4250180Y30639411D02*
X4297800Y30734649D01*
X4297800Y30734649D02*
X4345419Y30782268D01*
X4345419Y30782268D02*
X4440657Y30829887D01*
X4440657Y30829887D02*
X4726371Y30829887D01*
X4726371Y30829887D02*
X4821609Y30782268D01*
X4821609Y30782268D02*
X4869228Y30734649D01*
X4869228Y30734649D02*
X4916847Y30639411D01*
X4916847Y30639411D02*
X4916847Y30496554D01*
X4916847Y30496554D02*
X4869228Y30401316D01*
X4869228Y30401316D02*
X4821609Y30353697D01*
X4821609Y30353697D02*
X4726371Y30306078D01*
X4726371Y30306078D02*
X4440657Y30306078D01*
X4440657Y30306078D02*
X4345419Y30353697D01*
X4345419Y30353697D02*
X4297800Y30401316D01*
X4297800Y30401316D02*
X4250180Y30496554D01*
X4250180Y30496554D02*
X4250180Y30639411D01*
X4250180Y29877506D02*
X4916847Y29877506D01*
X4726371Y29877506D02*
X4821609Y29829887D01*
X4821609Y29829887D02*
X4869228Y29782268D01*
X4869228Y29782268D02*
X4916847Y29687030D01*
X4916847Y29687030D02*
X4916847Y29591792D01*
X4345419Y27925125D02*
X4297800Y27972744D01*
X4297800Y27972744D02*
X4250180Y28115601D01*
X4250180Y28115601D02*
X4250180Y28210839D01*
X4250180Y28210839D02*
X4297800Y28353696D01*
X4297800Y28353696D02*
X4393038Y28448934D01*
X4393038Y28448934D02*
X4488276Y28496553D01*
X4488276Y28496553D02*
X4678752Y28544172D01*
X4678752Y28544172D02*
X4821609Y28544172D01*
X4821609Y28544172D02*
X5012085Y28496553D01*
X5012085Y28496553D02*
X5107323Y28448934D01*
X5107323Y28448934D02*
X5202561Y28353696D01*
X5202561Y28353696D02*
X5250180Y28210839D01*
X5250180Y28210839D02*
X5250180Y28115601D01*
X5250180Y28115601D02*
X5202561Y27972744D01*
X5202561Y27972744D02*
X5154942Y27925125D01*
X4250180Y27353696D02*
X4297800Y27448934D01*
X4297800Y27448934D02*
X4345419Y27496553D01*
X4345419Y27496553D02*
X4440657Y27544172D01*
X4440657Y27544172D02*
X4726371Y27544172D01*
X4726371Y27544172D02*
X4821609Y27496553D01*
X4821609Y27496553D02*
X4869228Y27448934D01*
X4869228Y27448934D02*
X4916847Y27353696D01*
X4916847Y27353696D02*
X4916847Y27210839D01*
X4916847Y27210839D02*
X4869228Y27115601D01*
X4869228Y27115601D02*
X4821609Y27067982D01*
X4821609Y27067982D02*
X4726371Y27020363D01*
X4726371Y27020363D02*
X4440657Y27020363D01*
X4440657Y27020363D02*
X4345419Y27067982D01*
X4345419Y27067982D02*
X4297800Y27115601D01*
X4297800Y27115601D02*
X4250180Y27210839D01*
X4250180Y27210839D02*
X4250180Y27353696D01*
X4916847Y26591791D02*
X4250180Y26591791D01*
X4821609Y26591791D02*
X4869228Y26544172D01*
X4869228Y26544172D02*
X4916847Y26448934D01*
X4916847Y26448934D02*
X4916847Y26306077D01*
X4916847Y26306077D02*
X4869228Y26210839D01*
X4869228Y26210839D02*
X4773990Y26163220D01*
X4773990Y26163220D02*
X4250180Y26163220D01*
X4916847Y25829886D02*
X4916847Y25448934D01*
X5250180Y25687029D02*
X4393038Y25687029D01*
X4393038Y25687029D02*
X4297800Y25639410D01*
X4297800Y25639410D02*
X4250180Y25544172D01*
X4250180Y25544172D02*
X4250180Y25448934D01*
X4250180Y25115600D02*
X4916847Y25115600D01*
X4726371Y25115600D02*
X4821609Y25067981D01*
X4821609Y25067981D02*
X4869228Y25020362D01*
X4869228Y25020362D02*
X4916847Y24925124D01*
X4916847Y24925124D02*
X4916847Y24829886D01*
X4250180Y24353695D02*
X4297800Y24448933D01*
X4297800Y24448933D02*
X4345419Y24496552D01*
X4345419Y24496552D02*
X4440657Y24544171D01*
X4440657Y24544171D02*
X4726371Y24544171D01*
X4726371Y24544171D02*
X4821609Y24496552D01*
X4821609Y24496552D02*
X4869228Y24448933D01*
X4869228Y24448933D02*
X4916847Y24353695D01*
X4916847Y24353695D02*
X4916847Y24210838D01*
X4916847Y24210838D02*
X4869228Y24115600D01*
X4869228Y24115600D02*
X4821609Y24067981D01*
X4821609Y24067981D02*
X4726371Y24020362D01*
X4726371Y24020362D02*
X4440657Y24020362D01*
X4440657Y24020362D02*
X4345419Y24067981D01*
X4345419Y24067981D02*
X4297800Y24115600D01*
X4297800Y24115600D02*
X4250180Y24210838D01*
X4250180Y24210838D02*
X4250180Y24353695D01*
X4250180Y23448933D02*
X4297800Y23544171D01*
X4297800Y23544171D02*
X4393038Y23591790D01*
X4393038Y23591790D02*
X5250180Y23591790D01*
X4250180Y22925123D02*
X4297800Y23020361D01*
X4297800Y23020361D02*
X4393038Y23067980D01*
X4393038Y23067980D02*
X5250180Y23067980D01*
X4297800Y22163218D02*
X4250180Y22258456D01*
X4250180Y22258456D02*
X4250180Y22448932D01*
X4250180Y22448932D02*
X4297800Y22544170D01*
X4297800Y22544170D02*
X4393038Y22591789D01*
X4393038Y22591789D02*
X4773990Y22591789D01*
X4773990Y22591789D02*
X4869228Y22544170D01*
X4869228Y22544170D02*
X4916847Y22448932D01*
X4916847Y22448932D02*
X4916847Y22258456D01*
X4916847Y22258456D02*
X4869228Y22163218D01*
X4869228Y22163218D02*
X4773990Y22115599D01*
X4773990Y22115599D02*
X4678752Y22115599D01*
X4678752Y22115599D02*
X4583514Y22591789D01*
X4250180Y21687027D02*
X4916847Y21687027D01*
X4726371Y21687027D02*
X4821609Y21639408D01*
X4821609Y21639408D02*
X4869228Y21591789D01*
X4869228Y21591789D02*
X4916847Y21496551D01*
X4916847Y21496551D02*
X4916847Y21401313D01*
X2687800Y36210840D02*
X2640180Y36067983D01*
X2640180Y36067983D02*
X2640180Y35829888D01*
X2640180Y35829888D02*
X2687800Y35734650D01*
X2687800Y35734650D02*
X2735419Y35687031D01*
X2735419Y35687031D02*
X2830657Y35639412D01*
X2830657Y35639412D02*
X2925895Y35639412D01*
X2925895Y35639412D02*
X3021133Y35687031D01*
X3021133Y35687031D02*
X3068752Y35734650D01*
X3068752Y35734650D02*
X3116371Y35829888D01*
X3116371Y35829888D02*
X3163990Y36020364D01*
X3163990Y36020364D02*
X3211609Y36115602D01*
X3211609Y36115602D02*
X3259228Y36163221D01*
X3259228Y36163221D02*
X3354466Y36210840D01*
X3354466Y36210840D02*
X3449704Y36210840D01*
X3449704Y36210840D02*
X3544942Y36163221D01*
X3544942Y36163221D02*
X3592561Y36115602D01*
X3592561Y36115602D02*
X3640180Y36020364D01*
X3640180Y36020364D02*
X3640180Y35782269D01*
X3640180Y35782269D02*
X3592561Y35639412D01*
X2640180Y34734650D02*
X2640180Y35210840D01*
X2640180Y35210840D02*
X3640180Y35210840D01*
X2735419Y33829888D02*
X2687800Y33877507D01*
X2687800Y33877507D02*
X2640180Y34020364D01*
X2640180Y34020364D02*
X2640180Y34115602D01*
X2640180Y34115602D02*
X2687800Y34258459D01*
X2687800Y34258459D02*
X2783038Y34353697D01*
X2783038Y34353697D02*
X2878276Y34401316D01*
X2878276Y34401316D02*
X3068752Y34448935D01*
X3068752Y34448935D02*
X3211609Y34448935D01*
X3211609Y34448935D02*
X3402085Y34401316D01*
X3402085Y34401316D02*
X3497323Y34353697D01*
X3497323Y34353697D02*
X3592561Y34258459D01*
X3592561Y34258459D02*
X3640180Y34115602D01*
X3640180Y34115602D02*
X3640180Y34020364D01*
X3640180Y34020364D02*
X3592561Y33877507D01*
X3592561Y33877507D02*
X3544942Y33829888D01*
X2544942Y33639411D02*
X2544942Y32877507D01*
X2640180Y32639411D02*
X3640180Y32639411D01*
X3640180Y32639411D02*
X3640180Y32401316D01*
X3640180Y32401316D02*
X3592561Y32258459D01*
X3592561Y32258459D02*
X3497323Y32163221D01*
X3497323Y32163221D02*
X3402085Y32115602D01*
X3402085Y32115602D02*
X3211609Y32067983D01*
X3211609Y32067983D02*
X3068752Y32067983D01*
X3068752Y32067983D02*
X2878276Y32115602D01*
X2878276Y32115602D02*
X2783038Y32163221D01*
X2783038Y32163221D02*
X2687800Y32258459D01*
X2687800Y32258459D02*
X2640180Y32401316D01*
X2640180Y32401316D02*
X2640180Y32639411D01*
X2735419Y31067983D02*
X2687800Y31115602D01*
X2687800Y31115602D02*
X2640180Y31258459D01*
X2640180Y31258459D02*
X2640180Y31353697D01*
X2640180Y31353697D02*
X2687800Y31496554D01*
X2687800Y31496554D02*
X2783038Y31591792D01*
X2783038Y31591792D02*
X2878276Y31639411D01*
X2878276Y31639411D02*
X3068752Y31687030D01*
X3068752Y31687030D02*
X3211609Y31687030D01*
X3211609Y31687030D02*
X3402085Y31639411D01*
X3402085Y31639411D02*
X3497323Y31591792D01*
X3497323Y31591792D02*
X3592561Y31496554D01*
X3592561Y31496554D02*
X3640180Y31353697D01*
X3640180Y31353697D02*
X3640180Y31258459D01*
X3640180Y31258459D02*
X3592561Y31115602D01*
X3592561Y31115602D02*
X3544942Y31067983D01*
X2640180Y30639411D02*
X3640180Y30639411D01*
X3640180Y30639411D02*
X2925895Y30306078D01*
X2925895Y30306078D02*
X3640180Y29972745D01*
X3640180Y29972745D02*
X2640180Y29972745D01*
X3640180Y29639411D02*
X3640180Y29067983D01*
X2640180Y29353697D02*
X3640180Y29353697D01*
X1030180Y35591793D02*
X1506371Y35925126D01*
X1030180Y36163221D02*
X2030180Y36163221D01*
X2030180Y36163221D02*
X2030180Y35782269D01*
X2030180Y35782269D02*
X1982561Y35687031D01*
X1982561Y35687031D02*
X1934942Y35639412D01*
X1934942Y35639412D02*
X1839704Y35591793D01*
X1839704Y35591793D02*
X1696847Y35591793D01*
X1696847Y35591793D02*
X1601609Y35639412D01*
X1601609Y35639412D02*
X1553990Y35687031D01*
X1553990Y35687031D02*
X1506371Y35782269D01*
X1506371Y35782269D02*
X1506371Y36163221D01*
X1030180Y34639412D02*
X1030180Y35210840D01*
X1030180Y34925126D02*
X2030180Y34925126D01*
X2030180Y34925126D02*
X1887323Y35020364D01*
X1887323Y35020364D02*
X1792085Y35115602D01*
X1792085Y35115602D02*
X1744466Y35210840D01*
X1934942Y33496554D02*
X1982561Y33448935D01*
X1982561Y33448935D02*
X2030180Y33353697D01*
X2030180Y33353697D02*
X2030180Y33115602D01*
X2030180Y33115602D02*
X1982561Y33020364D01*
X1982561Y33020364D02*
X1934942Y32972745D01*
X1934942Y32972745D02*
X1839704Y32925126D01*
X1839704Y32925126D02*
X1744466Y32925126D01*
X1744466Y32925126D02*
X1601609Y32972745D01*
X1601609Y32972745D02*
X1030180Y33544173D01*
X1030180Y33544173D02*
X1030180Y32925126D01*
X2030180Y32306078D02*
X2030180Y32210840D01*
X2030180Y32210840D02*
X1982561Y32115602D01*
X1982561Y32115602D02*
X1934942Y32067983D01*
X1934942Y32067983D02*
X1839704Y32020364D01*
X1839704Y32020364D02*
X1649228Y31972745D01*
X1649228Y31972745D02*
X1411133Y31972745D01*
X1411133Y31972745D02*
X1220657Y32020364D01*
X1220657Y32020364D02*
X1125419Y32067983D01*
X1125419Y32067983D02*
X1077800Y32115602D01*
X1077800Y32115602D02*
X1030180Y32210840D01*
X1030180Y32210840D02*
X1030180Y32306078D01*
X1030180Y32306078D02*
X1077800Y32401316D01*
X1077800Y32401316D02*
X1125419Y32448935D01*
X1125419Y32448935D02*
X1220657Y32496554D01*
X1220657Y32496554D02*
X1411133Y32544173D01*
X1411133Y32544173D02*
X1649228Y32544173D01*
X1649228Y32544173D02*
X1839704Y32496554D01*
X1839704Y32496554D02*
X1934942Y32448935D01*
X1934942Y32448935D02*
X1982561Y32401316D01*
X1982561Y32401316D02*
X2030180Y32306078D01*
X1934942Y31591792D02*
X1982561Y31544173D01*
X1982561Y31544173D02*
X2030180Y31448935D01*
X2030180Y31448935D02*
X2030180Y31210840D01*
X2030180Y31210840D02*
X1982561Y31115602D01*
X1982561Y31115602D02*
X1934942Y31067983D01*
X1934942Y31067983D02*
X1839704Y31020364D01*
X1839704Y31020364D02*
X1744466Y31020364D01*
X1744466Y31020364D02*
X1601609Y31067983D01*
X1601609Y31067983D02*
X1030180Y31639411D01*
X1030180Y31639411D02*
X1030180Y31020364D01*
X1696847Y30163221D02*
X1030180Y30163221D01*
X2077800Y30401316D02*
X1363514Y30639411D01*
X1363514Y30639411D02*
X1363514Y30020364D01*
X37080952Y54440181D02*
X36509524Y54440181D01*
X36795238Y54440181D02*
X36795238Y55440181D01*
X36795238Y55440181D02*
X36700000Y55297324D01*
X36700000Y55297324D02*
X36604762Y55202086D01*
X36604762Y55202086D02*
X36509524Y55154467D01*
X37461905Y55344943D02*
X37509524Y55392562D01*
X37509524Y55392562D02*
X37604762Y55440181D01*
X37604762Y55440181D02*
X37842857Y55440181D01*
X37842857Y55440181D02*
X37938095Y55392562D01*
X37938095Y55392562D02*
X37985714Y55344943D01*
X37985714Y55344943D02*
X38033333Y55249705D01*
X38033333Y55249705D02*
X38033333Y55154467D01*
X38033333Y55154467D02*
X37985714Y55011610D01*
X37985714Y55011610D02*
X37414286Y54440181D01*
X37414286Y54440181D02*
X38033333Y54440181D01*
X38319048Y55440181D02*
X38652381Y54440181D01*
X38652381Y54440181D02*
X38985714Y55440181D01*
X37461905Y53496848D02*
X36700000Y53211134D01*
X36700000Y53211134D02*
X37461905Y52925420D01*
X37938095Y53211134D02*
X38700000Y53211134D01*
X5790476Y61799610D02*
X5714286Y61837705D01*
X5714286Y61837705D02*
X5600000Y61837705D01*
X5600000Y61837705D02*
X5485714Y61799610D01*
X5485714Y61799610D02*
X5409524Y61723420D01*
X5409524Y61723420D02*
X5371429Y61647229D01*
X5371429Y61647229D02*
X5333333Y61494848D01*
X5333333Y61494848D02*
X5333333Y61380562D01*
X5333333Y61380562D02*
X5371429Y61228181D01*
X5371429Y61228181D02*
X5409524Y61151991D01*
X5409524Y61151991D02*
X5485714Y61075800D01*
X5485714Y61075800D02*
X5600000Y61037705D01*
X5600000Y61037705D02*
X5676191Y61037705D01*
X5676191Y61037705D02*
X5790476Y61075800D01*
X5790476Y61075800D02*
X5828572Y61113896D01*
X5828572Y61113896D02*
X5828572Y61380562D01*
X5828572Y61380562D02*
X5676191Y61380562D01*
X6171429Y61037705D02*
X6171429Y61837705D01*
X6171429Y61837705D02*
X6628572Y61037705D01*
X6628572Y61037705D02*
X6628572Y61837705D01*
X7009524Y61037705D02*
X7009524Y61837705D01*
X7009524Y61837705D02*
X7200000Y61837705D01*
X7200000Y61837705D02*
X7314286Y61799610D01*
X7314286Y61799610D02*
X7390476Y61723420D01*
X7390476Y61723420D02*
X7428571Y61647229D01*
X7428571Y61647229D02*
X7466667Y61494848D01*
X7466667Y61494848D02*
X7466667Y61380562D01*
X7466667Y61380562D02*
X7428571Y61228181D01*
X7428571Y61228181D02*
X7390476Y61151991D01*
X7390476Y61151991D02*
X7314286Y61075800D01*
X7314286Y61075800D02*
X7200000Y61037705D01*
X7200000Y61037705D02*
X7009524Y61037705D01*
X45709523Y34628431D02*
X45709523Y35628431D01*
X45709523Y35628431D02*
X46042856Y34914146D01*
X46042856Y34914146D02*
X46376189Y35628431D01*
X46376189Y35628431D02*
X46376189Y34628431D01*
X46995237Y34628431D02*
X46899999Y34676050D01*
X46899999Y34676050D02*
X46852380Y34723670D01*
X46852380Y34723670D02*
X46804761Y34818908D01*
X46804761Y34818908D02*
X46804761Y35104622D01*
X46804761Y35104622D02*
X46852380Y35199860D01*
X46852380Y35199860D02*
X46899999Y35247479D01*
X46899999Y35247479D02*
X46995237Y35295098D01*
X46995237Y35295098D02*
X47138094Y35295098D01*
X47138094Y35295098D02*
X47233332Y35247479D01*
X47233332Y35247479D02*
X47280951Y35199860D01*
X47280951Y35199860D02*
X47328570Y35104622D01*
X47328570Y35104622D02*
X47328570Y34818908D01*
X47328570Y34818908D02*
X47280951Y34723670D01*
X47280951Y34723670D02*
X47233332Y34676050D01*
X47233332Y34676050D02*
X47138094Y34628431D01*
X47138094Y34628431D02*
X46995237Y34628431D01*
X47614285Y35295098D02*
X47995237Y35295098D01*
X47757142Y35628431D02*
X47757142Y34771289D01*
X47757142Y34771289D02*
X47804761Y34676050D01*
X47804761Y34676050D02*
X47899999Y34628431D01*
X47899999Y34628431D02*
X47995237Y34628431D01*
X48471428Y34628431D02*
X48376190Y34676050D01*
X48376190Y34676050D02*
X48328571Y34723670D01*
X48328571Y34723670D02*
X48280952Y34818908D01*
X48280952Y34818908D02*
X48280952Y35104622D01*
X48280952Y35104622D02*
X48328571Y35199860D01*
X48328571Y35199860D02*
X48376190Y35247479D01*
X48376190Y35247479D02*
X48471428Y35295098D01*
X48471428Y35295098D02*
X48614285Y35295098D01*
X48614285Y35295098D02*
X48709523Y35247479D01*
X48709523Y35247479D02*
X48757142Y35199860D01*
X48757142Y35199860D02*
X48804761Y35104622D01*
X48804761Y35104622D02*
X48804761Y34818908D01*
X48804761Y34818908D02*
X48757142Y34723670D01*
X48757142Y34723670D02*
X48709523Y34676050D01*
X48709523Y34676050D02*
X48614285Y34628431D01*
X48614285Y34628431D02*
X48471428Y34628431D01*
X49233333Y34628431D02*
X49233333Y35295098D01*
X49233333Y35104622D02*
X49280952Y35199860D01*
X49280952Y35199860D02*
X49328571Y35247479D01*
X49328571Y35247479D02*
X49423809Y35295098D01*
X49423809Y35295098D02*
X49519047Y35295098D01*
X50566667Y35533193D02*
X50614286Y35580812D01*
X50614286Y35580812D02*
X50709524Y35628431D01*
X50709524Y35628431D02*
X50947619Y35628431D01*
X50947619Y35628431D02*
X51042857Y35580812D01*
X51042857Y35580812D02*
X51090476Y35533193D01*
X51090476Y35533193D02*
X51138095Y35437955D01*
X51138095Y35437955D02*
X51138095Y35342717D01*
X51138095Y35342717D02*
X51090476Y35199860D01*
X51090476Y35199860D02*
X50519048Y34628431D01*
X50519048Y34628431D02*
X51138095Y34628431D01*
X5371428Y48756753D02*
X5638094Y48756753D01*
X5752380Y48337705D02*
X5371428Y48337705D01*
X5371428Y48337705D02*
X5371428Y49137705D01*
X5371428Y49137705D02*
X5752380Y49137705D01*
X6057142Y48375800D02*
X6171428Y48337705D01*
X6171428Y48337705D02*
X6361904Y48337705D01*
X6361904Y48337705D02*
X6438095Y48375800D01*
X6438095Y48375800D02*
X6476190Y48413896D01*
X6476190Y48413896D02*
X6514285Y48490086D01*
X6514285Y48490086D02*
X6514285Y48566277D01*
X6514285Y48566277D02*
X6476190Y48642467D01*
X6476190Y48642467D02*
X6438095Y48680562D01*
X6438095Y48680562D02*
X6361904Y48718658D01*
X6361904Y48718658D02*
X6209523Y48756753D01*
X6209523Y48756753D02*
X6133333Y48794848D01*
X6133333Y48794848D02*
X6095238Y48832943D01*
X6095238Y48832943D02*
X6057142Y48909134D01*
X6057142Y48909134D02*
X6057142Y48985324D01*
X6057142Y48985324D02*
X6095238Y49061515D01*
X6095238Y49061515D02*
X6133333Y49099610D01*
X6133333Y49099610D02*
X6209523Y49137705D01*
X6209523Y49137705D02*
X6400000Y49137705D01*
X6400000Y49137705D02*
X6514285Y49099610D01*
X6742857Y49137705D02*
X7200000Y49137705D01*
X6971428Y48337705D02*
X6971428Y49137705D01*
X7619048Y49137705D02*
X7771429Y49137705D01*
X7771429Y49137705D02*
X7847619Y49099610D01*
X7847619Y49099610D02*
X7923810Y49023420D01*
X7923810Y49023420D02*
X7961905Y48871039D01*
X7961905Y48871039D02*
X7961905Y48604372D01*
X7961905Y48604372D02*
X7923810Y48451991D01*
X7923810Y48451991D02*
X7847619Y48375800D01*
X7847619Y48375800D02*
X7771429Y48337705D01*
X7771429Y48337705D02*
X7619048Y48337705D01*
X7619048Y48337705D02*
X7542857Y48375800D01*
X7542857Y48375800D02*
X7466667Y48451991D01*
X7466667Y48451991D02*
X7428571Y48604372D01*
X7428571Y48604372D02*
X7428571Y48871039D01*
X7428571Y48871039D02*
X7466667Y49023420D01*
X7466667Y49023420D02*
X7542857Y49099610D01*
X7542857Y49099610D02*
X7619048Y49137705D01*
X8304762Y48337705D02*
X8304762Y49137705D01*
X8304762Y49137705D02*
X8609524Y49137705D01*
X8609524Y49137705D02*
X8685714Y49099610D01*
X8685714Y49099610D02*
X8723809Y49061515D01*
X8723809Y49061515D02*
X8761905Y48985324D01*
X8761905Y48985324D02*
X8761905Y48871039D01*
X8761905Y48871039D02*
X8723809Y48794848D01*
X8723809Y48794848D02*
X8685714Y48756753D01*
X8685714Y48756753D02*
X8609524Y48718658D01*
X8609524Y48718658D02*
X8304762Y48718658D01*
X5371429Y43237705D02*
X5371429Y44037705D01*
X5752381Y43237705D02*
X5752381Y44037705D01*
X5752381Y44037705D02*
X6209524Y43237705D01*
X6209524Y43237705D02*
X6209524Y44037705D01*
X6476190Y44037705D02*
X6933333Y44037705D01*
X6704761Y43237705D02*
X6704761Y44037705D01*
X5333333Y53425800D02*
X5447619Y53387705D01*
X5447619Y53387705D02*
X5638095Y53387705D01*
X5638095Y53387705D02*
X5714286Y53425800D01*
X5714286Y53425800D02*
X5752381Y53463896D01*
X5752381Y53463896D02*
X5790476Y53540086D01*
X5790476Y53540086D02*
X5790476Y53616277D01*
X5790476Y53616277D02*
X5752381Y53692467D01*
X5752381Y53692467D02*
X5714286Y53730562D01*
X5714286Y53730562D02*
X5638095Y53768658D01*
X5638095Y53768658D02*
X5485714Y53806753D01*
X5485714Y53806753D02*
X5409524Y53844848D01*
X5409524Y53844848D02*
X5371429Y53882943D01*
X5371429Y53882943D02*
X5333333Y53959134D01*
X5333333Y53959134D02*
X5333333Y54035324D01*
X5333333Y54035324D02*
X5371429Y54111515D01*
X5371429Y54111515D02*
X5409524Y54149610D01*
X5409524Y54149610D02*
X5485714Y54187705D01*
X5485714Y54187705D02*
X5676191Y54187705D01*
X5676191Y54187705D02*
X5790476Y54149610D01*
X6133334Y53387705D02*
X6133334Y54187705D01*
X6133334Y54187705D02*
X6323810Y54187705D01*
X6323810Y54187705D02*
X6438096Y54149610D01*
X6438096Y54149610D02*
X6514286Y54073420D01*
X6514286Y54073420D02*
X6552381Y53997229D01*
X6552381Y53997229D02*
X6590477Y53844848D01*
X6590477Y53844848D02*
X6590477Y53730562D01*
X6590477Y53730562D02*
X6552381Y53578181D01*
X6552381Y53578181D02*
X6514286Y53501991D01*
X6514286Y53501991D02*
X6438096Y53425800D01*
X6438096Y53425800D02*
X6323810Y53387705D01*
X6323810Y53387705D02*
X6133334Y53387705D01*
X6895238Y53616277D02*
X7276191Y53616277D01*
X6819048Y53387705D02*
X7085715Y54187705D01*
X7085715Y54187705D02*
X7352381Y53387705D01*
X5333333Y55975800D02*
X5447619Y55937705D01*
X5447619Y55937705D02*
X5638095Y55937705D01*
X5638095Y55937705D02*
X5714286Y55975800D01*
X5714286Y55975800D02*
X5752381Y56013896D01*
X5752381Y56013896D02*
X5790476Y56090086D01*
X5790476Y56090086D02*
X5790476Y56166277D01*
X5790476Y56166277D02*
X5752381Y56242467D01*
X5752381Y56242467D02*
X5714286Y56280562D01*
X5714286Y56280562D02*
X5638095Y56318658D01*
X5638095Y56318658D02*
X5485714Y56356753D01*
X5485714Y56356753D02*
X5409524Y56394848D01*
X5409524Y56394848D02*
X5371429Y56432943D01*
X5371429Y56432943D02*
X5333333Y56509134D01*
X5333333Y56509134D02*
X5333333Y56585324D01*
X5333333Y56585324D02*
X5371429Y56661515D01*
X5371429Y56661515D02*
X5409524Y56699610D01*
X5409524Y56699610D02*
X5485714Y56737705D01*
X5485714Y56737705D02*
X5676191Y56737705D01*
X5676191Y56737705D02*
X5790476Y56699610D01*
X6590477Y56013896D02*
X6552381Y55975800D01*
X6552381Y55975800D02*
X6438096Y55937705D01*
X6438096Y55937705D02*
X6361905Y55937705D01*
X6361905Y55937705D02*
X6247619Y55975800D01*
X6247619Y55975800D02*
X6171429Y56051991D01*
X6171429Y56051991D02*
X6133334Y56128181D01*
X6133334Y56128181D02*
X6095238Y56280562D01*
X6095238Y56280562D02*
X6095238Y56394848D01*
X6095238Y56394848D02*
X6133334Y56547229D01*
X6133334Y56547229D02*
X6171429Y56623420D01*
X6171429Y56623420D02*
X6247619Y56699610D01*
X6247619Y56699610D02*
X6361905Y56737705D01*
X6361905Y56737705D02*
X6438096Y56737705D01*
X6438096Y56737705D02*
X6552381Y56699610D01*
X6552381Y56699610D02*
X6590477Y56661515D01*
X7314286Y55937705D02*
X6933334Y55937705D01*
X6933334Y55937705D02*
X6933334Y56737705D01*
X37080952Y94640181D02*
X36509524Y94640181D01*
X36795238Y94640181D02*
X36795238Y95640181D01*
X36795238Y95640181D02*
X36700000Y95497324D01*
X36700000Y95497324D02*
X36604762Y95402086D01*
X36604762Y95402086D02*
X36509524Y95354467D01*
X37461905Y95544943D02*
X37509524Y95592562D01*
X37509524Y95592562D02*
X37604762Y95640181D01*
X37604762Y95640181D02*
X37842857Y95640181D01*
X37842857Y95640181D02*
X37938095Y95592562D01*
X37938095Y95592562D02*
X37985714Y95544943D01*
X37985714Y95544943D02*
X38033333Y95449705D01*
X38033333Y95449705D02*
X38033333Y95354467D01*
X38033333Y95354467D02*
X37985714Y95211610D01*
X37985714Y95211610D02*
X37414286Y94640181D01*
X37414286Y94640181D02*
X38033333Y94640181D01*
X38319048Y95640181D02*
X38652381Y94640181D01*
X38652381Y94640181D02*
X38985714Y95640181D01*
X37461905Y93696848D02*
X36700000Y93411134D01*
X36700000Y93411134D02*
X37461905Y93125420D01*
X37938095Y93411134D02*
X38700000Y93411134D01*
X20356009Y9892858D02*
X20356009Y10845239D01*
X20927438Y9702382D02*
X18927438Y10369048D01*
X18927438Y10369048D02*
X20927438Y11035715D01*
X20927438Y12845239D02*
X19975057Y12178572D01*
X20927438Y11702382D02*
X18927438Y11702382D01*
X18927438Y11702382D02*
X18927438Y12464287D01*
X18927438Y12464287D02*
X19022676Y12654763D01*
X19022676Y12654763D02*
X19117914Y12750001D01*
X19117914Y12750001D02*
X19308390Y12845239D01*
X19308390Y12845239D02*
X19594104Y12845239D01*
X19594104Y12845239D02*
X19784580Y12750001D01*
X19784580Y12750001D02*
X19879819Y12654763D01*
X19879819Y12654763D02*
X19975057Y12464287D01*
X19975057Y12464287D02*
X19975057Y11702382D01*
X20927438Y13702382D02*
X18927438Y13702382D01*
X18927438Y13702382D02*
X18927438Y14178572D01*
X18927438Y14178572D02*
X19022676Y14464287D01*
X19022676Y14464287D02*
X19213152Y14654763D01*
X19213152Y14654763D02*
X19403628Y14750001D01*
X19403628Y14750001D02*
X19784580Y14845239D01*
X19784580Y14845239D02*
X20070295Y14845239D01*
X20070295Y14845239D02*
X20451247Y14750001D01*
X20451247Y14750001D02*
X20641723Y14654763D01*
X20641723Y14654763D02*
X20832200Y14464287D01*
X20832200Y14464287D02*
X20927438Y14178572D01*
X20927438Y14178572D02*
X20927438Y13702382D01*
X18927438Y15702382D02*
X20546485Y15702382D01*
X20546485Y15702382D02*
X20736961Y15797620D01*
X20736961Y15797620D02*
X20832200Y15892858D01*
X20832200Y15892858D02*
X20927438Y16083334D01*
X20927438Y16083334D02*
X20927438Y16464287D01*
X20927438Y16464287D02*
X20832200Y16654763D01*
X20832200Y16654763D02*
X20736961Y16750001D01*
X20736961Y16750001D02*
X20546485Y16845239D01*
X20546485Y16845239D02*
X18927438Y16845239D01*
X20927438Y17797620D02*
X18927438Y17797620D01*
X20927438Y18750001D02*
X18927438Y18750001D01*
X18927438Y18750001D02*
X20927438Y19892858D01*
X20927438Y19892858D02*
X18927438Y19892858D01*
X18927438Y21226191D02*
X18927438Y21607144D01*
X18927438Y21607144D02*
X19022676Y21797620D01*
X19022676Y21797620D02*
X19213152Y21988096D01*
X19213152Y21988096D02*
X19594104Y22083334D01*
X19594104Y22083334D02*
X20260771Y22083334D01*
X20260771Y22083334D02*
X20641723Y21988096D01*
X20641723Y21988096D02*
X20832200Y21797620D01*
X20832200Y21797620D02*
X20927438Y21607144D01*
X20927438Y21607144D02*
X20927438Y21226191D01*
X20927438Y21226191D02*
X20832200Y21035715D01*
X20832200Y21035715D02*
X20641723Y20845239D01*
X20641723Y20845239D02*
X20260771Y20750001D01*
X20260771Y20750001D02*
X19594104Y20750001D01*
X19594104Y20750001D02*
X19213152Y20845239D01*
X19213152Y20845239D02*
X19022676Y21035715D01*
X19022676Y21035715D02*
X18927438Y21226191D01*
X20927438Y24464287D02*
X18927438Y24464287D01*
X18927438Y24464287D02*
X20927438Y25607144D01*
X20927438Y25607144D02*
X18927438Y25607144D01*
X20356009Y26464287D02*
X20356009Y27416668D01*
X20927438Y26273811D02*
X18927438Y26940477D01*
X18927438Y26940477D02*
X20927438Y27607144D01*
X20927438Y28273811D02*
X18927438Y28273811D01*
X18927438Y28273811D02*
X20927438Y29416668D01*
X20927438Y29416668D02*
X18927438Y29416668D01*
X18927438Y30750001D02*
X18927438Y31130954D01*
X18927438Y31130954D02*
X19022676Y31321430D01*
X19022676Y31321430D02*
X19213152Y31511906D01*
X19213152Y31511906D02*
X19594104Y31607144D01*
X19594104Y31607144D02*
X20260771Y31607144D01*
X20260771Y31607144D02*
X20641723Y31511906D01*
X20641723Y31511906D02*
X20832200Y31321430D01*
X20832200Y31321430D02*
X20927438Y31130954D01*
X20927438Y31130954D02*
X20927438Y30750001D01*
X20927438Y30750001D02*
X20832200Y30559525D01*
X20832200Y30559525D02*
X20641723Y30369049D01*
X20641723Y30369049D02*
X20260771Y30273811D01*
X20260771Y30273811D02*
X19594104Y30273811D01*
X19594104Y30273811D02*
X19213152Y30369049D01*
X19213152Y30369049D02*
X19022676Y30559525D01*
X19022676Y30559525D02*
X18927438Y30750001D01*
X43080952Y54535420D02*
X43033333Y54487800D01*
X43033333Y54487800D02*
X42890476Y54440181D01*
X42890476Y54440181D02*
X42795238Y54440181D01*
X42795238Y54440181D02*
X42652381Y54487800D01*
X42652381Y54487800D02*
X42557143Y54583039D01*
X42557143Y54583039D02*
X42509524Y54678277D01*
X42509524Y54678277D02*
X42461905Y54868753D01*
X42461905Y54868753D02*
X42461905Y55011610D01*
X42461905Y55011610D02*
X42509524Y55202086D01*
X42509524Y55202086D02*
X42557143Y55297324D01*
X42557143Y55297324D02*
X42652381Y55392562D01*
X42652381Y55392562D02*
X42795238Y55440181D01*
X42795238Y55440181D02*
X42890476Y55440181D01*
X42890476Y55440181D02*
X43033333Y55392562D01*
X43033333Y55392562D02*
X43080952Y55344943D01*
X43509524Y55440181D02*
X43509524Y54630658D01*
X43509524Y54630658D02*
X43557143Y54535420D01*
X43557143Y54535420D02*
X43604762Y54487800D01*
X43604762Y54487800D02*
X43700000Y54440181D01*
X43700000Y54440181D02*
X43890476Y54440181D01*
X43890476Y54440181D02*
X43985714Y54487800D01*
X43985714Y54487800D02*
X44033333Y54535420D01*
X44033333Y54535420D02*
X44080952Y54630658D01*
X44080952Y54630658D02*
X44080952Y55440181D01*
X44509524Y54487800D02*
X44652381Y54440181D01*
X44652381Y54440181D02*
X44890476Y54440181D01*
X44890476Y54440181D02*
X44985714Y54487800D01*
X44985714Y54487800D02*
X45033333Y54535420D01*
X45033333Y54535420D02*
X45080952Y54630658D01*
X45080952Y54630658D02*
X45080952Y54725896D01*
X45080952Y54725896D02*
X45033333Y54821134D01*
X45033333Y54821134D02*
X44985714Y54868753D01*
X44985714Y54868753D02*
X44890476Y54916372D01*
X44890476Y54916372D02*
X44700000Y54963991D01*
X44700000Y54963991D02*
X44604762Y55011610D01*
X44604762Y55011610D02*
X44557143Y55059229D01*
X44557143Y55059229D02*
X44509524Y55154467D01*
X44509524Y55154467D02*
X44509524Y55249705D01*
X44509524Y55249705D02*
X44557143Y55344943D01*
X44557143Y55344943D02*
X44604762Y55392562D01*
X44604762Y55392562D02*
X44700000Y55440181D01*
X44700000Y55440181D02*
X44938095Y55440181D01*
X44938095Y55440181D02*
X45080952Y55392562D01*
X45366667Y55440181D02*
X45938095Y55440181D01*
X45652381Y54440181D02*
X45652381Y55440181D01*
X46461905Y55440181D02*
X46652381Y55440181D01*
X46652381Y55440181D02*
X46747619Y55392562D01*
X46747619Y55392562D02*
X46842857Y55297324D01*
X46842857Y55297324D02*
X46890476Y55106848D01*
X46890476Y55106848D02*
X46890476Y54773515D01*
X46890476Y54773515D02*
X46842857Y54583039D01*
X46842857Y54583039D02*
X46747619Y54487800D01*
X46747619Y54487800D02*
X46652381Y54440181D01*
X46652381Y54440181D02*
X46461905Y54440181D01*
X46461905Y54440181D02*
X46366667Y54487800D01*
X46366667Y54487800D02*
X46271429Y54583039D01*
X46271429Y54583039D02*
X46223810Y54773515D01*
X46223810Y54773515D02*
X46223810Y55106848D01*
X46223810Y55106848D02*
X46271429Y55297324D01*
X46271429Y55297324D02*
X46366667Y55392562D01*
X46366667Y55392562D02*
X46461905Y55440181D01*
X47319048Y54440181D02*
X47319048Y55440181D01*
X47319048Y55440181D02*
X47652381Y54725896D01*
X47652381Y54725896D02*
X47985714Y55440181D01*
X47985714Y55440181D02*
X47985714Y54440181D01*
X49223810Y54440181D02*
X49223810Y55440181D01*
X49223810Y55440181D02*
X49604762Y55440181D01*
X49604762Y55440181D02*
X49700000Y55392562D01*
X49700000Y55392562D02*
X49747619Y55344943D01*
X49747619Y55344943D02*
X49795238Y55249705D01*
X49795238Y55249705D02*
X49795238Y55106848D01*
X49795238Y55106848D02*
X49747619Y55011610D01*
X49747619Y55011610D02*
X49700000Y54963991D01*
X49700000Y54963991D02*
X49604762Y54916372D01*
X49604762Y54916372D02*
X49223810Y54916372D01*
X50128572Y55440181D02*
X50366667Y54440181D01*
X50366667Y54440181D02*
X50557143Y55154467D01*
X50557143Y55154467D02*
X50747619Y54440181D01*
X50747619Y54440181D02*
X50985715Y55440181D01*
X51938095Y54440181D02*
X51604762Y54916372D01*
X51366667Y54440181D02*
X51366667Y55440181D01*
X51366667Y55440181D02*
X51747619Y55440181D01*
X51747619Y55440181D02*
X51842857Y55392562D01*
X51842857Y55392562D02*
X51890476Y55344943D01*
X51890476Y55344943D02*
X51938095Y55249705D01*
X51938095Y55249705D02*
X51938095Y55106848D01*
X51938095Y55106848D02*
X51890476Y55011610D01*
X51890476Y55011610D02*
X51842857Y54963991D01*
X51842857Y54963991D02*
X51747619Y54916372D01*
X51747619Y54916372D02*
X51366667Y54916372D01*
X46200000Y53211134D02*
X46961905Y53211134D01*
X47438095Y53496848D02*
X48200000Y53211134D01*
X48200000Y53211134D02*
X47438095Y52925420D01*
X54869819Y50580953D02*
X53869819Y50580953D01*
X53869819Y50580953D02*
X54584104Y50914286D01*
X54584104Y50914286D02*
X53869819Y51247619D01*
X53869819Y51247619D02*
X54869819Y51247619D01*
X53869819Y51914286D02*
X53869819Y52104762D01*
X53869819Y52104762D02*
X53917438Y52200000D01*
X53917438Y52200000D02*
X54012676Y52295238D01*
X54012676Y52295238D02*
X54203152Y52342857D01*
X54203152Y52342857D02*
X54536485Y52342857D01*
X54536485Y52342857D02*
X54726961Y52295238D01*
X54726961Y52295238D02*
X54822200Y52200000D01*
X54822200Y52200000D02*
X54869819Y52104762D01*
X54869819Y52104762D02*
X54869819Y51914286D01*
X54869819Y51914286D02*
X54822200Y51819048D01*
X54822200Y51819048D02*
X54726961Y51723810D01*
X54726961Y51723810D02*
X54536485Y51676191D01*
X54536485Y51676191D02*
X54203152Y51676191D01*
X54203152Y51676191D02*
X54012676Y51723810D01*
X54012676Y51723810D02*
X53917438Y51819048D01*
X53917438Y51819048D02*
X53869819Y51914286D01*
X53869819Y52628572D02*
X53869819Y53200000D01*
X54869819Y52914286D02*
X53869819Y52914286D01*
X53869819Y53723810D02*
X53869819Y53914286D01*
X53869819Y53914286D02*
X53917438Y54009524D01*
X53917438Y54009524D02*
X54012676Y54104762D01*
X54012676Y54104762D02*
X54203152Y54152381D01*
X54203152Y54152381D02*
X54536485Y54152381D01*
X54536485Y54152381D02*
X54726961Y54104762D01*
X54726961Y54104762D02*
X54822200Y54009524D01*
X54822200Y54009524D02*
X54869819Y53914286D01*
X54869819Y53914286D02*
X54869819Y53723810D01*
X54869819Y53723810D02*
X54822200Y53628572D01*
X54822200Y53628572D02*
X54726961Y53533334D01*
X54726961Y53533334D02*
X54536485Y53485715D01*
X54536485Y53485715D02*
X54203152Y53485715D01*
X54203152Y53485715D02*
X54012676Y53533334D01*
X54012676Y53533334D02*
X53917438Y53628572D01*
X53917438Y53628572D02*
X53869819Y53723810D01*
X54869819Y55152381D02*
X54393628Y54819048D01*
X54869819Y54580953D02*
X53869819Y54580953D01*
X53869819Y54580953D02*
X53869819Y54961905D01*
X53869819Y54961905D02*
X53917438Y55057143D01*
X53917438Y55057143D02*
X53965057Y55104762D01*
X53965057Y55104762D02*
X54060295Y55152381D01*
X54060295Y55152381D02*
X54203152Y55152381D01*
X54203152Y55152381D02*
X54298390Y55104762D01*
X54298390Y55104762D02*
X54346009Y55057143D01*
X54346009Y55057143D02*
X54393628Y54961905D01*
X54393628Y54961905D02*
X54393628Y54580953D01*
X53965057Y56295239D02*
X53917438Y56342858D01*
X53917438Y56342858D02*
X53869819Y56438096D01*
X53869819Y56438096D02*
X53869819Y56676191D01*
X53869819Y56676191D02*
X53917438Y56771429D01*
X53917438Y56771429D02*
X53965057Y56819048D01*
X53965057Y56819048D02*
X54060295Y56866667D01*
X54060295Y56866667D02*
X54155533Y56866667D01*
X54155533Y56866667D02*
X54298390Y56819048D01*
X54298390Y56819048D02*
X54869819Y56247620D01*
X54869819Y56247620D02*
X54869819Y56866667D01*
X5790476Y58487705D02*
X5333333Y58487705D01*
X5561905Y58487705D02*
X5561905Y59287705D01*
X5561905Y59287705D02*
X5485714Y59173420D01*
X5485714Y59173420D02*
X5409524Y59097229D01*
X5409524Y59097229D02*
X5333333Y59059134D01*
X6095238Y59211515D02*
X6133334Y59249610D01*
X6133334Y59249610D02*
X6209524Y59287705D01*
X6209524Y59287705D02*
X6400000Y59287705D01*
X6400000Y59287705D02*
X6476191Y59249610D01*
X6476191Y59249610D02*
X6514286Y59211515D01*
X6514286Y59211515D02*
X6552381Y59135324D01*
X6552381Y59135324D02*
X6552381Y59059134D01*
X6552381Y59059134D02*
X6514286Y58944848D01*
X6514286Y58944848D02*
X6057143Y58487705D01*
X6057143Y58487705D02*
X6552381Y58487705D01*
X6780953Y59287705D02*
X7047620Y58487705D01*
X7047620Y58487705D02*
X7314286Y59287705D01*
X54346009Y28628572D02*
X54346009Y28961905D01*
X54869819Y29104762D02*
X54869819Y28628572D01*
X54869819Y28628572D02*
X53869819Y28628572D01*
X53869819Y28628572D02*
X53869819Y29104762D01*
X54869819Y29533334D02*
X53869819Y29533334D01*
X53869819Y29533334D02*
X54869819Y30104762D01*
X54869819Y30104762D02*
X53869819Y30104762D01*
X54774580Y31152381D02*
X54822200Y31104762D01*
X54822200Y31104762D02*
X54869819Y30961905D01*
X54869819Y30961905D02*
X54869819Y30866667D01*
X54869819Y30866667D02*
X54822200Y30723810D01*
X54822200Y30723810D02*
X54726961Y30628572D01*
X54726961Y30628572D02*
X54631723Y30580953D01*
X54631723Y30580953D02*
X54441247Y30533334D01*
X54441247Y30533334D02*
X54298390Y30533334D01*
X54298390Y30533334D02*
X54107914Y30580953D01*
X54107914Y30580953D02*
X54012676Y30628572D01*
X54012676Y30628572D02*
X53917438Y30723810D01*
X53917438Y30723810D02*
X53869819Y30866667D01*
X53869819Y30866667D02*
X53869819Y30961905D01*
X53869819Y30961905D02*
X53917438Y31104762D01*
X53917438Y31104762D02*
X53965057Y31152381D01*
X53869819Y31771429D02*
X53869819Y31961905D01*
X53869819Y31961905D02*
X53917438Y32057143D01*
X53917438Y32057143D02*
X54012676Y32152381D01*
X54012676Y32152381D02*
X54203152Y32200000D01*
X54203152Y32200000D02*
X54536485Y32200000D01*
X54536485Y32200000D02*
X54726961Y32152381D01*
X54726961Y32152381D02*
X54822200Y32057143D01*
X54822200Y32057143D02*
X54869819Y31961905D01*
X54869819Y31961905D02*
X54869819Y31771429D01*
X54869819Y31771429D02*
X54822200Y31676191D01*
X54822200Y31676191D02*
X54726961Y31580953D01*
X54726961Y31580953D02*
X54536485Y31533334D01*
X54536485Y31533334D02*
X54203152Y31533334D01*
X54203152Y31533334D02*
X54012676Y31580953D01*
X54012676Y31580953D02*
X53917438Y31676191D01*
X53917438Y31676191D02*
X53869819Y31771429D01*
X54869819Y32628572D02*
X53869819Y32628572D01*
X53869819Y32628572D02*
X53869819Y32866667D01*
X53869819Y32866667D02*
X53917438Y33009524D01*
X53917438Y33009524D02*
X54012676Y33104762D01*
X54012676Y33104762D02*
X54107914Y33152381D01*
X54107914Y33152381D02*
X54298390Y33200000D01*
X54298390Y33200000D02*
X54441247Y33200000D01*
X54441247Y33200000D02*
X54631723Y33152381D01*
X54631723Y33152381D02*
X54726961Y33104762D01*
X54726961Y33104762D02*
X54822200Y33009524D01*
X54822200Y33009524D02*
X54869819Y32866667D01*
X54869819Y32866667D02*
X54869819Y32628572D01*
X54346009Y33628572D02*
X54346009Y33961905D01*
X54869819Y34104762D02*
X54869819Y33628572D01*
X54869819Y33628572D02*
X53869819Y33628572D01*
X53869819Y33628572D02*
X53869819Y34104762D01*
X54869819Y35104762D02*
X54393628Y34771429D01*
X54869819Y34533334D02*
X53869819Y34533334D01*
X53869819Y34533334D02*
X53869819Y34914286D01*
X53869819Y34914286D02*
X53917438Y35009524D01*
X53917438Y35009524D02*
X53965057Y35057143D01*
X53965057Y35057143D02*
X54060295Y35104762D01*
X54060295Y35104762D02*
X54203152Y35104762D01*
X54203152Y35104762D02*
X54298390Y35057143D01*
X54298390Y35057143D02*
X54346009Y35009524D01*
X54346009Y35009524D02*
X54393628Y34914286D01*
X54393628Y34914286D02*
X54393628Y34533334D01*
X54869819Y36819048D02*
X54869819Y36247620D01*
X54869819Y36533334D02*
X53869819Y36533334D01*
X53869819Y36533334D02*
X54012676Y36438096D01*
X54012676Y36438096D02*
X54107914Y36342858D01*
X54107914Y36342858D02*
X54155533Y36247620D01*
X55157142Y3145181D02*
X54680952Y3145181D01*
X54680952Y3145181D02*
X54680952Y4145181D01*
X55490476Y3668991D02*
X55823809Y3668991D01*
X55966666Y3145181D02*
X55490476Y3145181D01*
X55490476Y3145181D02*
X55490476Y4145181D01*
X55490476Y4145181D02*
X55966666Y4145181D01*
X56395238Y3145181D02*
X56395238Y4145181D01*
X56395238Y4145181D02*
X56633333Y4145181D01*
X56633333Y4145181D02*
X56776190Y4097562D01*
X56776190Y4097562D02*
X56871428Y4002324D01*
X56871428Y4002324D02*
X56919047Y3907086D01*
X56919047Y3907086D02*
X56966666Y3716610D01*
X56966666Y3716610D02*
X56966666Y3573753D01*
X56966666Y3573753D02*
X56919047Y3383277D01*
X56919047Y3383277D02*
X56871428Y3288039D01*
X56871428Y3288039D02*
X56776190Y3192800D01*
X56776190Y3192800D02*
X56633333Y3145181D01*
X56633333Y3145181D02*
X56395238Y3145181D01*
X56222493Y71945181D02*
X56222493Y71230896D01*
X56222493Y71230896D02*
X56174874Y71088039D01*
X56174874Y71088039D02*
X56079636Y70992800D01*
X56079636Y70992800D02*
X55936779Y70945181D01*
X55936779Y70945181D02*
X55841541Y70945181D01*
X57222493Y70945181D02*
X56651065Y70945181D01*
X56936779Y70945181D02*
X56936779Y71945181D01*
X56936779Y71945181D02*
X56841541Y71802324D01*
X56841541Y71802324D02*
X56746303Y71707086D01*
X56746303Y71707086D02*
X56651065Y71659467D01*
X58174874Y70945181D02*
X57603446Y70945181D01*
X57889160Y70945181D02*
X57889160Y71945181D01*
X57889160Y71945181D02*
X57793922Y71802324D01*
X57793922Y71802324D02*
X57698684Y71707086D01*
X57698684Y71707086D02*
X57603446Y71659467D01*
D12*
X60170550Y69014010D02*
X60146741Y68990200D01*
X60146741Y68990200D02*
X60075312Y68966391D01*
X60075312Y68966391D02*
X60027693Y68966391D01*
X60027693Y68966391D02*
X59956265Y68990200D01*
X59956265Y68990200D02*
X59908646Y69037820D01*
X59908646Y69037820D02*
X59884836Y69085439D01*
X59884836Y69085439D02*
X59861027Y69180677D01*
X59861027Y69180677D02*
X59861027Y69252105D01*
X59861027Y69252105D02*
X59884836Y69347343D01*
X59884836Y69347343D02*
X59908646Y69394962D01*
X59908646Y69394962D02*
X59956265Y69442581D01*
X59956265Y69442581D02*
X60027693Y69466391D01*
X60027693Y69466391D02*
X60075312Y69466391D01*
X60075312Y69466391D02*
X60146741Y69442581D01*
X60146741Y69442581D02*
X60170550Y69418772D01*
X60456265Y68966391D02*
X60408646Y68990200D01*
X60408646Y68990200D02*
X60384836Y69014010D01*
X60384836Y69014010D02*
X60361027Y69061629D01*
X60361027Y69061629D02*
X60361027Y69204486D01*
X60361027Y69204486D02*
X60384836Y69252105D01*
X60384836Y69252105D02*
X60408646Y69275915D01*
X60408646Y69275915D02*
X60456265Y69299724D01*
X60456265Y69299724D02*
X60527693Y69299724D01*
X60527693Y69299724D02*
X60575312Y69275915D01*
X60575312Y69275915D02*
X60599122Y69252105D01*
X60599122Y69252105D02*
X60622931Y69204486D01*
X60622931Y69204486D02*
X60622931Y69061629D01*
X60622931Y69061629D02*
X60599122Y69014010D01*
X60599122Y69014010D02*
X60575312Y68990200D01*
X60575312Y68990200D02*
X60527693Y68966391D01*
X60527693Y68966391D02*
X60456265Y68966391D01*
X60837217Y69299724D02*
X60837217Y68966391D01*
X60837217Y69252105D02*
X60861027Y69275915D01*
X60861027Y69275915D02*
X60908646Y69299724D01*
X60908646Y69299724D02*
X60980074Y69299724D01*
X60980074Y69299724D02*
X61027693Y69275915D01*
X61027693Y69275915D02*
X61051503Y69228296D01*
X61051503Y69228296D02*
X61051503Y68966391D01*
X61289598Y69299724D02*
X61289598Y68966391D01*
X61289598Y69252105D02*
X61313408Y69275915D01*
X61313408Y69275915D02*
X61361027Y69299724D01*
X61361027Y69299724D02*
X61432455Y69299724D01*
X61432455Y69299724D02*
X61480074Y69275915D01*
X61480074Y69275915D02*
X61503884Y69228296D01*
X61503884Y69228296D02*
X61503884Y68966391D01*
X61932455Y68990200D02*
X61884836Y68966391D01*
X61884836Y68966391D02*
X61789598Y68966391D01*
X61789598Y68966391D02*
X61741979Y68990200D01*
X61741979Y68990200D02*
X61718170Y69037820D01*
X61718170Y69037820D02*
X61718170Y69228296D01*
X61718170Y69228296D02*
X61741979Y69275915D01*
X61741979Y69275915D02*
X61789598Y69299724D01*
X61789598Y69299724D02*
X61884836Y69299724D01*
X61884836Y69299724D02*
X61932455Y69275915D01*
X61932455Y69275915D02*
X61956265Y69228296D01*
X61956265Y69228296D02*
X61956265Y69180677D01*
X61956265Y69180677D02*
X61718170Y69133058D01*
X62384836Y68990200D02*
X62337217Y68966391D01*
X62337217Y68966391D02*
X62241979Y68966391D01*
X62241979Y68966391D02*
X62194360Y68990200D01*
X62194360Y68990200D02*
X62170550Y69014010D01*
X62170550Y69014010D02*
X62146741Y69061629D01*
X62146741Y69061629D02*
X62146741Y69204486D01*
X62146741Y69204486D02*
X62170550Y69252105D01*
X62170550Y69252105D02*
X62194360Y69275915D01*
X62194360Y69275915D02*
X62241979Y69299724D01*
X62241979Y69299724D02*
X62337217Y69299724D01*
X62337217Y69299724D02*
X62384836Y69275915D01*
X62527693Y69299724D02*
X62718169Y69299724D01*
X62599121Y69466391D02*
X62599121Y69037820D01*
X62599121Y69037820D02*
X62622931Y68990200D01*
X62622931Y68990200D02*
X62670550Y68966391D01*
X62670550Y68966391D02*
X62718169Y68966391D01*
X63265787Y68966391D02*
X63265787Y69466391D01*
X63265787Y69466391D02*
X63551501Y68966391D01*
X63551501Y68966391D02*
X63551501Y69466391D01*
X63980073Y68990200D02*
X63932454Y68966391D01*
X63932454Y68966391D02*
X63837216Y68966391D01*
X63837216Y68966391D02*
X63789597Y68990200D01*
X63789597Y68990200D02*
X63765788Y69037820D01*
X63765788Y69037820D02*
X63765788Y69228296D01*
X63765788Y69228296D02*
X63789597Y69275915D01*
X63789597Y69275915D02*
X63837216Y69299724D01*
X63837216Y69299724D02*
X63932454Y69299724D01*
X63932454Y69299724D02*
X63980073Y69275915D01*
X63980073Y69275915D02*
X64003883Y69228296D01*
X64003883Y69228296D02*
X64003883Y69180677D01*
X64003883Y69180677D02*
X63765788Y69133058D01*
X64170549Y68966391D02*
X64432454Y69299724D01*
X64170549Y69299724D02*
X64432454Y68966391D01*
X64551502Y69299724D02*
X64741978Y69299724D01*
X64622930Y69466391D02*
X64622930Y69037820D01*
X64622930Y69037820D02*
X64646740Y68990200D01*
X64646740Y68990200D02*
X64694359Y68966391D01*
X64694359Y68966391D02*
X64741978Y68966391D01*
D11*
X56222493Y47745181D02*
X56222493Y47030896D01*
X56222493Y47030896D02*
X56174874Y46888039D01*
X56174874Y46888039D02*
X56079636Y46792800D01*
X56079636Y46792800D02*
X55936779Y46745181D01*
X55936779Y46745181D02*
X55841541Y46745181D01*
X57222493Y46745181D02*
X56651065Y46745181D01*
X56936779Y46745181D02*
X56936779Y47745181D01*
X56936779Y47745181D02*
X56841541Y47602324D01*
X56841541Y47602324D02*
X56746303Y47507086D01*
X56746303Y47507086D02*
X56651065Y47459467D01*
X57555827Y47745181D02*
X58222493Y47745181D01*
X58222493Y47745181D02*
X57793922Y46745181D01*
D12*
X60170550Y44814010D02*
X60146741Y44790200D01*
X60146741Y44790200D02*
X60075312Y44766391D01*
X60075312Y44766391D02*
X60027693Y44766391D01*
X60027693Y44766391D02*
X59956265Y44790200D01*
X59956265Y44790200D02*
X59908646Y44837820D01*
X59908646Y44837820D02*
X59884836Y44885439D01*
X59884836Y44885439D02*
X59861027Y44980677D01*
X59861027Y44980677D02*
X59861027Y45052105D01*
X59861027Y45052105D02*
X59884836Y45147343D01*
X59884836Y45147343D02*
X59908646Y45194962D01*
X59908646Y45194962D02*
X59956265Y45242581D01*
X59956265Y45242581D02*
X60027693Y45266391D01*
X60027693Y45266391D02*
X60075312Y45266391D01*
X60075312Y45266391D02*
X60146741Y45242581D01*
X60146741Y45242581D02*
X60170550Y45218772D01*
X60456265Y44766391D02*
X60408646Y44790200D01*
X60408646Y44790200D02*
X60384836Y44814010D01*
X60384836Y44814010D02*
X60361027Y44861629D01*
X60361027Y44861629D02*
X60361027Y45004486D01*
X60361027Y45004486D02*
X60384836Y45052105D01*
X60384836Y45052105D02*
X60408646Y45075915D01*
X60408646Y45075915D02*
X60456265Y45099724D01*
X60456265Y45099724D02*
X60527693Y45099724D01*
X60527693Y45099724D02*
X60575312Y45075915D01*
X60575312Y45075915D02*
X60599122Y45052105D01*
X60599122Y45052105D02*
X60622931Y45004486D01*
X60622931Y45004486D02*
X60622931Y44861629D01*
X60622931Y44861629D02*
X60599122Y44814010D01*
X60599122Y44814010D02*
X60575312Y44790200D01*
X60575312Y44790200D02*
X60527693Y44766391D01*
X60527693Y44766391D02*
X60456265Y44766391D01*
X60837217Y45099724D02*
X60837217Y44766391D01*
X60837217Y45052105D02*
X60861027Y45075915D01*
X60861027Y45075915D02*
X60908646Y45099724D01*
X60908646Y45099724D02*
X60980074Y45099724D01*
X60980074Y45099724D02*
X61027693Y45075915D01*
X61027693Y45075915D02*
X61051503Y45028296D01*
X61051503Y45028296D02*
X61051503Y44766391D01*
X61289598Y45099724D02*
X61289598Y44766391D01*
X61289598Y45052105D02*
X61313408Y45075915D01*
X61313408Y45075915D02*
X61361027Y45099724D01*
X61361027Y45099724D02*
X61432455Y45099724D01*
X61432455Y45099724D02*
X61480074Y45075915D01*
X61480074Y45075915D02*
X61503884Y45028296D01*
X61503884Y45028296D02*
X61503884Y44766391D01*
X61932455Y44790200D02*
X61884836Y44766391D01*
X61884836Y44766391D02*
X61789598Y44766391D01*
X61789598Y44766391D02*
X61741979Y44790200D01*
X61741979Y44790200D02*
X61718170Y44837820D01*
X61718170Y44837820D02*
X61718170Y45028296D01*
X61718170Y45028296D02*
X61741979Y45075915D01*
X61741979Y45075915D02*
X61789598Y45099724D01*
X61789598Y45099724D02*
X61884836Y45099724D01*
X61884836Y45099724D02*
X61932455Y45075915D01*
X61932455Y45075915D02*
X61956265Y45028296D01*
X61956265Y45028296D02*
X61956265Y44980677D01*
X61956265Y44980677D02*
X61718170Y44933058D01*
X62384836Y44790200D02*
X62337217Y44766391D01*
X62337217Y44766391D02*
X62241979Y44766391D01*
X62241979Y44766391D02*
X62194360Y44790200D01*
X62194360Y44790200D02*
X62170550Y44814010D01*
X62170550Y44814010D02*
X62146741Y44861629D01*
X62146741Y44861629D02*
X62146741Y45004486D01*
X62146741Y45004486D02*
X62170550Y45052105D01*
X62170550Y45052105D02*
X62194360Y45075915D01*
X62194360Y45075915D02*
X62241979Y45099724D01*
X62241979Y45099724D02*
X62337217Y45099724D01*
X62337217Y45099724D02*
X62384836Y45075915D01*
X62527693Y45099724D02*
X62718169Y45099724D01*
X62599121Y45266391D02*
X62599121Y44837820D01*
X62599121Y44837820D02*
X62622931Y44790200D01*
X62622931Y44790200D02*
X62670550Y44766391D01*
X62670550Y44766391D02*
X62718169Y44766391D01*
X63265787Y44766391D02*
X63265787Y45266391D01*
X63265787Y45266391D02*
X63551501Y44766391D01*
X63551501Y44766391D02*
X63551501Y45266391D01*
X63980073Y44790200D02*
X63932454Y44766391D01*
X63932454Y44766391D02*
X63837216Y44766391D01*
X63837216Y44766391D02*
X63789597Y44790200D01*
X63789597Y44790200D02*
X63765788Y44837820D01*
X63765788Y44837820D02*
X63765788Y45028296D01*
X63765788Y45028296D02*
X63789597Y45075915D01*
X63789597Y45075915D02*
X63837216Y45099724D01*
X63837216Y45099724D02*
X63932454Y45099724D01*
X63932454Y45099724D02*
X63980073Y45075915D01*
X63980073Y45075915D02*
X64003883Y45028296D01*
X64003883Y45028296D02*
X64003883Y44980677D01*
X64003883Y44980677D02*
X63765788Y44933058D01*
X64170549Y44766391D02*
X64432454Y45099724D01*
X64170549Y45099724D02*
X64432454Y44766391D01*
X64551502Y45099724D02*
X64741978Y45099724D01*
X64622930Y45266391D02*
X64622930Y44837820D01*
X64622930Y44837820D02*
X64646740Y44790200D01*
X64646740Y44790200D02*
X64694359Y44766391D01*
X64694359Y44766391D02*
X64741978Y44766391D01*
X9295238Y83342581D02*
X9295238Y84342581D01*
X9295238Y83866391D02*
X9866666Y83866391D01*
X9866666Y83342581D02*
X9866666Y84342581D01*
X10723809Y83390200D02*
X10628571Y83342581D01*
X10628571Y83342581D02*
X10438095Y83342581D01*
X10438095Y83342581D02*
X10342857Y83390200D01*
X10342857Y83390200D02*
X10295238Y83485439D01*
X10295238Y83485439D02*
X10295238Y83866391D01*
X10295238Y83866391D02*
X10342857Y83961629D01*
X10342857Y83961629D02*
X10438095Y84009248D01*
X10438095Y84009248D02*
X10628571Y84009248D01*
X10628571Y84009248D02*
X10723809Y83961629D01*
X10723809Y83961629D02*
X10771428Y83866391D01*
X10771428Y83866391D02*
X10771428Y83771153D01*
X10771428Y83771153D02*
X10295238Y83675915D01*
X11628571Y83342581D02*
X11628571Y83866391D01*
X11628571Y83866391D02*
X11580952Y83961629D01*
X11580952Y83961629D02*
X11485714Y84009248D01*
X11485714Y84009248D02*
X11295238Y84009248D01*
X11295238Y84009248D02*
X11200000Y83961629D01*
X11628571Y83390200D02*
X11533333Y83342581D01*
X11533333Y83342581D02*
X11295238Y83342581D01*
X11295238Y83342581D02*
X11200000Y83390200D01*
X11200000Y83390200D02*
X11152381Y83485439D01*
X11152381Y83485439D02*
X11152381Y83580677D01*
X11152381Y83580677D02*
X11200000Y83675915D01*
X11200000Y83675915D02*
X11295238Y83723534D01*
X11295238Y83723534D02*
X11533333Y83723534D01*
X11533333Y83723534D02*
X11628571Y83771153D01*
X11961905Y84009248D02*
X12342857Y84009248D01*
X12104762Y84342581D02*
X12104762Y83485439D01*
X12104762Y83485439D02*
X12152381Y83390200D01*
X12152381Y83390200D02*
X12247619Y83342581D01*
X12247619Y83342581D02*
X12342857Y83342581D01*
X13390477Y83390200D02*
X13533334Y83342581D01*
X13533334Y83342581D02*
X13771429Y83342581D01*
X13771429Y83342581D02*
X13866667Y83390200D01*
X13866667Y83390200D02*
X13914286Y83437820D01*
X13914286Y83437820D02*
X13961905Y83533058D01*
X13961905Y83533058D02*
X13961905Y83628296D01*
X13961905Y83628296D02*
X13914286Y83723534D01*
X13914286Y83723534D02*
X13866667Y83771153D01*
X13866667Y83771153D02*
X13771429Y83818772D01*
X13771429Y83818772D02*
X13580953Y83866391D01*
X13580953Y83866391D02*
X13485715Y83914010D01*
X13485715Y83914010D02*
X13438096Y83961629D01*
X13438096Y83961629D02*
X13390477Y84056867D01*
X13390477Y84056867D02*
X13390477Y84152105D01*
X13390477Y84152105D02*
X13438096Y84247343D01*
X13438096Y84247343D02*
X13485715Y84294962D01*
X13485715Y84294962D02*
X13580953Y84342581D01*
X13580953Y84342581D02*
X13819048Y84342581D01*
X13819048Y84342581D02*
X13961905Y84294962D01*
X14390477Y83342581D02*
X14390477Y84009248D01*
X14390477Y84342581D02*
X14342858Y84294962D01*
X14342858Y84294962D02*
X14390477Y84247343D01*
X14390477Y84247343D02*
X14438096Y84294962D01*
X14438096Y84294962D02*
X14390477Y84342581D01*
X14390477Y84342581D02*
X14390477Y84247343D01*
X14866667Y84009248D02*
X14866667Y83342581D01*
X14866667Y83914010D02*
X14914286Y83961629D01*
X14914286Y83961629D02*
X15009524Y84009248D01*
X15009524Y84009248D02*
X15152381Y84009248D01*
X15152381Y84009248D02*
X15247619Y83961629D01*
X15247619Y83961629D02*
X15295238Y83866391D01*
X15295238Y83866391D02*
X15295238Y83342581D01*
X15771429Y83342581D02*
X15771429Y84342581D01*
X15866667Y83723534D02*
X16152381Y83342581D01*
X16152381Y84009248D02*
X15771429Y83628296D01*
D11*
X49961905Y3197412D02*
X49961905Y4197412D01*
X49961905Y4197412D02*
X50200000Y4197412D01*
X50200000Y4197412D02*
X50342857Y4149793D01*
X50342857Y4149793D02*
X50438095Y4054555D01*
X50438095Y4054555D02*
X50485714Y3959317D01*
X50485714Y3959317D02*
X50533333Y3768841D01*
X50533333Y3768841D02*
X50533333Y3625984D01*
X50533333Y3625984D02*
X50485714Y3435508D01*
X50485714Y3435508D02*
X50438095Y3340270D01*
X50438095Y3340270D02*
X50342857Y3245031D01*
X50342857Y3245031D02*
X50200000Y3197412D01*
X50200000Y3197412D02*
X49961905Y3197412D01*
X50914286Y4102174D02*
X50961905Y4149793D01*
X50961905Y4149793D02*
X51057143Y4197412D01*
X51057143Y4197412D02*
X51295238Y4197412D01*
X51295238Y4197412D02*
X51390476Y4149793D01*
X51390476Y4149793D02*
X51438095Y4102174D01*
X51438095Y4102174D02*
X51485714Y4006936D01*
X51485714Y4006936D02*
X51485714Y3911698D01*
X51485714Y3911698D02*
X51438095Y3768841D01*
X51438095Y3768841D02*
X50866667Y3197412D01*
X50866667Y3197412D02*
X51485714Y3197412D01*
X19305714Y44710896D02*
X19781904Y44710896D01*
X19210476Y44425181D02*
X19543809Y45425181D01*
X19543809Y45425181D02*
X19877142Y44425181D01*
X20734285Y44425181D02*
X20162857Y44425181D01*
X20448571Y44425181D02*
X20448571Y45425181D01*
X20448571Y45425181D02*
X20353333Y45282324D01*
X20353333Y45282324D02*
X20258095Y45187086D01*
X20258095Y45187086D02*
X20162857Y45139467D01*
X18758095Y4785181D02*
X18758095Y3975658D01*
X18758095Y3975658D02*
X18805714Y3880420D01*
X18805714Y3880420D02*
X18853333Y3832800D01*
X18853333Y3832800D02*
X18948571Y3785181D01*
X18948571Y3785181D02*
X19139047Y3785181D01*
X19139047Y3785181D02*
X19234285Y3832800D01*
X19234285Y3832800D02*
X19281904Y3880420D01*
X19281904Y3880420D02*
X19329523Y3975658D01*
X19329523Y3975658D02*
X19329523Y4785181D01*
X19758095Y3832800D02*
X19900952Y3785181D01*
X19900952Y3785181D02*
X20139047Y3785181D01*
X20139047Y3785181D02*
X20234285Y3832800D01*
X20234285Y3832800D02*
X20281904Y3880420D01*
X20281904Y3880420D02*
X20329523Y3975658D01*
X20329523Y3975658D02*
X20329523Y4070896D01*
X20329523Y4070896D02*
X20281904Y4166134D01*
X20281904Y4166134D02*
X20234285Y4213753D01*
X20234285Y4213753D02*
X20139047Y4261372D01*
X20139047Y4261372D02*
X19948571Y4308991D01*
X19948571Y4308991D02*
X19853333Y4356610D01*
X19853333Y4356610D02*
X19805714Y4404229D01*
X19805714Y4404229D02*
X19758095Y4499467D01*
X19758095Y4499467D02*
X19758095Y4594705D01*
X19758095Y4594705D02*
X19805714Y4689943D01*
X19805714Y4689943D02*
X19853333Y4737562D01*
X19853333Y4737562D02*
X19948571Y4785181D01*
X19948571Y4785181D02*
X20186666Y4785181D01*
X20186666Y4785181D02*
X20329523Y4737562D01*
X21091428Y4308991D02*
X21234285Y4261372D01*
X21234285Y4261372D02*
X21281904Y4213753D01*
X21281904Y4213753D02*
X21329523Y4118515D01*
X21329523Y4118515D02*
X21329523Y3975658D01*
X21329523Y3975658D02*
X21281904Y3880420D01*
X21281904Y3880420D02*
X21234285Y3832800D01*
X21234285Y3832800D02*
X21139047Y3785181D01*
X21139047Y3785181D02*
X20758095Y3785181D01*
X20758095Y3785181D02*
X20758095Y4785181D01*
X20758095Y4785181D02*
X21091428Y4785181D01*
X21091428Y4785181D02*
X21186666Y4737562D01*
X21186666Y4737562D02*
X21234285Y4689943D01*
X21234285Y4689943D02*
X21281904Y4594705D01*
X21281904Y4594705D02*
X21281904Y4499467D01*
X21281904Y4499467D02*
X21234285Y4404229D01*
X21234285Y4404229D02*
X21186666Y4356610D01*
X21186666Y4356610D02*
X21091428Y4308991D01*
X21091428Y4308991D02*
X20758095Y4308991D01*
X766666Y59545181D02*
X766666Y58830896D01*
X766666Y58830896D02*
X719047Y58688039D01*
X719047Y58688039D02*
X623809Y58592800D01*
X623809Y58592800D02*
X480952Y58545181D01*
X480952Y58545181D02*
X385714Y58545181D01*
X1766666Y58545181D02*
X1195238Y58545181D01*
X1480952Y58545181D02*
X1480952Y59545181D01*
X1480952Y59545181D02*
X1385714Y59402324D01*
X1385714Y59402324D02*
X1290476Y59307086D01*
X1290476Y59307086D02*
X1195238Y59259467D01*
X44154819Y28438096D02*
X44964342Y28438096D01*
X44964342Y28438096D02*
X45059580Y28485715D01*
X45059580Y28485715D02*
X45107200Y28533334D01*
X45107200Y28533334D02*
X45154819Y28628572D01*
X45154819Y28628572D02*
X45154819Y28819048D01*
X45154819Y28819048D02*
X45107200Y28914286D01*
X45107200Y28914286D02*
X45059580Y28961905D01*
X45059580Y28961905D02*
X44964342Y29009524D01*
X44964342Y29009524D02*
X44154819Y29009524D01*
X44154819Y29390477D02*
X44154819Y30009524D01*
X44154819Y30009524D02*
X44535771Y29676191D01*
X44535771Y29676191D02*
X44535771Y29819048D01*
X44535771Y29819048D02*
X44583390Y29914286D01*
X44583390Y29914286D02*
X44631009Y29961905D01*
X44631009Y29961905D02*
X44726247Y30009524D01*
X44726247Y30009524D02*
X44964342Y30009524D01*
X44964342Y30009524D02*
X45059580Y29961905D01*
X45059580Y29961905D02*
X45107200Y29914286D01*
X45107200Y29914286D02*
X45154819Y29819048D01*
X45154819Y29819048D02*
X45154819Y29533334D01*
X45154819Y29533334D02*
X45107200Y29438096D01*
X45107200Y29438096D02*
X45059580Y29390477D01*
X56222493Y81945181D02*
X56222493Y81230896D01*
X56222493Y81230896D02*
X56174874Y81088039D01*
X56174874Y81088039D02*
X56079636Y80992800D01*
X56079636Y80992800D02*
X55936779Y80945181D01*
X55936779Y80945181D02*
X55841541Y80945181D01*
X57222493Y80945181D02*
X56651065Y80945181D01*
X56936779Y80945181D02*
X56936779Y81945181D01*
X56936779Y81945181D02*
X56841541Y81802324D01*
X56841541Y81802324D02*
X56746303Y81707086D01*
X56746303Y81707086D02*
X56651065Y81659467D01*
X57555827Y81945181D02*
X58174874Y81945181D01*
X58174874Y81945181D02*
X57841541Y81564229D01*
X57841541Y81564229D02*
X57984398Y81564229D01*
X57984398Y81564229D02*
X58079636Y81516610D01*
X58079636Y81516610D02*
X58127255Y81468991D01*
X58127255Y81468991D02*
X58174874Y81373753D01*
X58174874Y81373753D02*
X58174874Y81135658D01*
X58174874Y81135658D02*
X58127255Y81040420D01*
X58127255Y81040420D02*
X58079636Y80992800D01*
X58079636Y80992800D02*
X57984398Y80945181D01*
X57984398Y80945181D02*
X57698684Y80945181D01*
X57698684Y80945181D02*
X57603446Y80992800D01*
X57603446Y80992800D02*
X57555827Y81040420D01*
D12*
X60170550Y79014010D02*
X60146741Y78990200D01*
X60146741Y78990200D02*
X60075312Y78966391D01*
X60075312Y78966391D02*
X60027693Y78966391D01*
X60027693Y78966391D02*
X59956265Y78990200D01*
X59956265Y78990200D02*
X59908646Y79037820D01*
X59908646Y79037820D02*
X59884836Y79085439D01*
X59884836Y79085439D02*
X59861027Y79180677D01*
X59861027Y79180677D02*
X59861027Y79252105D01*
X59861027Y79252105D02*
X59884836Y79347343D01*
X59884836Y79347343D02*
X59908646Y79394962D01*
X59908646Y79394962D02*
X59956265Y79442581D01*
X59956265Y79442581D02*
X60027693Y79466391D01*
X60027693Y79466391D02*
X60075312Y79466391D01*
X60075312Y79466391D02*
X60146741Y79442581D01*
X60146741Y79442581D02*
X60170550Y79418772D01*
X60456265Y78966391D02*
X60408646Y78990200D01*
X60408646Y78990200D02*
X60384836Y79014010D01*
X60384836Y79014010D02*
X60361027Y79061629D01*
X60361027Y79061629D02*
X60361027Y79204486D01*
X60361027Y79204486D02*
X60384836Y79252105D01*
X60384836Y79252105D02*
X60408646Y79275915D01*
X60408646Y79275915D02*
X60456265Y79299724D01*
X60456265Y79299724D02*
X60527693Y79299724D01*
X60527693Y79299724D02*
X60575312Y79275915D01*
X60575312Y79275915D02*
X60599122Y79252105D01*
X60599122Y79252105D02*
X60622931Y79204486D01*
X60622931Y79204486D02*
X60622931Y79061629D01*
X60622931Y79061629D02*
X60599122Y79014010D01*
X60599122Y79014010D02*
X60575312Y78990200D01*
X60575312Y78990200D02*
X60527693Y78966391D01*
X60527693Y78966391D02*
X60456265Y78966391D01*
X60837217Y79299724D02*
X60837217Y78966391D01*
X60837217Y79252105D02*
X60861027Y79275915D01*
X60861027Y79275915D02*
X60908646Y79299724D01*
X60908646Y79299724D02*
X60980074Y79299724D01*
X60980074Y79299724D02*
X61027693Y79275915D01*
X61027693Y79275915D02*
X61051503Y79228296D01*
X61051503Y79228296D02*
X61051503Y78966391D01*
X61289598Y79299724D02*
X61289598Y78966391D01*
X61289598Y79252105D02*
X61313408Y79275915D01*
X61313408Y79275915D02*
X61361027Y79299724D01*
X61361027Y79299724D02*
X61432455Y79299724D01*
X61432455Y79299724D02*
X61480074Y79275915D01*
X61480074Y79275915D02*
X61503884Y79228296D01*
X61503884Y79228296D02*
X61503884Y78966391D01*
X61932455Y78990200D02*
X61884836Y78966391D01*
X61884836Y78966391D02*
X61789598Y78966391D01*
X61789598Y78966391D02*
X61741979Y78990200D01*
X61741979Y78990200D02*
X61718170Y79037820D01*
X61718170Y79037820D02*
X61718170Y79228296D01*
X61718170Y79228296D02*
X61741979Y79275915D01*
X61741979Y79275915D02*
X61789598Y79299724D01*
X61789598Y79299724D02*
X61884836Y79299724D01*
X61884836Y79299724D02*
X61932455Y79275915D01*
X61932455Y79275915D02*
X61956265Y79228296D01*
X61956265Y79228296D02*
X61956265Y79180677D01*
X61956265Y79180677D02*
X61718170Y79133058D01*
X62384836Y78990200D02*
X62337217Y78966391D01*
X62337217Y78966391D02*
X62241979Y78966391D01*
X62241979Y78966391D02*
X62194360Y78990200D01*
X62194360Y78990200D02*
X62170550Y79014010D01*
X62170550Y79014010D02*
X62146741Y79061629D01*
X62146741Y79061629D02*
X62146741Y79204486D01*
X62146741Y79204486D02*
X62170550Y79252105D01*
X62170550Y79252105D02*
X62194360Y79275915D01*
X62194360Y79275915D02*
X62241979Y79299724D01*
X62241979Y79299724D02*
X62337217Y79299724D01*
X62337217Y79299724D02*
X62384836Y79275915D01*
X62527693Y79299724D02*
X62718169Y79299724D01*
X62599121Y79466391D02*
X62599121Y79037820D01*
X62599121Y79037820D02*
X62622931Y78990200D01*
X62622931Y78990200D02*
X62670550Y78966391D01*
X62670550Y78966391D02*
X62718169Y78966391D01*
X63265787Y78966391D02*
X63265787Y79466391D01*
X63265787Y79466391D02*
X63551501Y78966391D01*
X63551501Y78966391D02*
X63551501Y79466391D01*
X63980073Y78990200D02*
X63932454Y78966391D01*
X63932454Y78966391D02*
X63837216Y78966391D01*
X63837216Y78966391D02*
X63789597Y78990200D01*
X63789597Y78990200D02*
X63765788Y79037820D01*
X63765788Y79037820D02*
X63765788Y79228296D01*
X63765788Y79228296D02*
X63789597Y79275915D01*
X63789597Y79275915D02*
X63837216Y79299724D01*
X63837216Y79299724D02*
X63932454Y79299724D01*
X63932454Y79299724D02*
X63980073Y79275915D01*
X63980073Y79275915D02*
X64003883Y79228296D01*
X64003883Y79228296D02*
X64003883Y79180677D01*
X64003883Y79180677D02*
X63765788Y79133058D01*
X64170549Y78966391D02*
X64432454Y79299724D01*
X64170549Y79299724D02*
X64432454Y78966391D01*
X64551502Y79299724D02*
X64741978Y79299724D01*
X64622930Y79466391D02*
X64622930Y79037820D01*
X64622930Y79037820D02*
X64646740Y78990200D01*
X64646740Y78990200D02*
X64694359Y78966391D01*
X64694359Y78966391D02*
X64741978Y78966391D01*
D11*
X44119819Y68338096D02*
X44929342Y68338096D01*
X44929342Y68338096D02*
X45024580Y68385715D01*
X45024580Y68385715D02*
X45072200Y68433334D01*
X45072200Y68433334D02*
X45119819Y68528572D01*
X45119819Y68528572D02*
X45119819Y68719048D01*
X45119819Y68719048D02*
X45072200Y68814286D01*
X45072200Y68814286D02*
X45024580Y68861905D01*
X45024580Y68861905D02*
X44929342Y68909524D01*
X44929342Y68909524D02*
X44119819Y68909524D01*
X45119819Y69909524D02*
X45119819Y69338096D01*
X45119819Y69623810D02*
X44119819Y69623810D01*
X44119819Y69623810D02*
X44262676Y69528572D01*
X44262676Y69528572D02*
X44357914Y69433334D01*
X44357914Y69433334D02*
X44405533Y69338096D01*
X56222493Y62745181D02*
X56222493Y62030896D01*
X56222493Y62030896D02*
X56174874Y61888039D01*
X56174874Y61888039D02*
X56079636Y61792800D01*
X56079636Y61792800D02*
X55936779Y61745181D01*
X55936779Y61745181D02*
X55841541Y61745181D01*
X57222493Y61745181D02*
X56651065Y61745181D01*
X56936779Y61745181D02*
X56936779Y62745181D01*
X56936779Y62745181D02*
X56841541Y62602324D01*
X56841541Y62602324D02*
X56746303Y62507086D01*
X56746303Y62507086D02*
X56651065Y62459467D01*
X58079636Y62411848D02*
X58079636Y61745181D01*
X57841541Y62792800D02*
X57603446Y62078515D01*
X57603446Y62078515D02*
X58222493Y62078515D01*
D12*
X61473809Y63835796D02*
X61640476Y63835796D01*
X61711904Y63573891D02*
X61473809Y63573891D01*
X61473809Y63573891D02*
X61473809Y64073891D01*
X61473809Y64073891D02*
X61711904Y64073891D01*
X61926190Y63907224D02*
X61926190Y63573891D01*
X61926190Y63859605D02*
X61950000Y63883415D01*
X61950000Y63883415D02*
X61997619Y63907224D01*
X61997619Y63907224D02*
X62069047Y63907224D01*
X62069047Y63907224D02*
X62116666Y63883415D01*
X62116666Y63883415D02*
X62140476Y63835796D01*
X62140476Y63835796D02*
X62140476Y63573891D01*
X62592857Y63573891D02*
X62592857Y64073891D01*
X62592857Y63597700D02*
X62545238Y63573891D01*
X62545238Y63573891D02*
X62450000Y63573891D01*
X62450000Y63573891D02*
X62402381Y63597700D01*
X62402381Y63597700D02*
X62378571Y63621510D01*
X62378571Y63621510D02*
X62354762Y63669129D01*
X62354762Y63669129D02*
X62354762Y63811986D01*
X62354762Y63811986D02*
X62378571Y63859605D01*
X62378571Y63859605D02*
X62402381Y63883415D01*
X62402381Y63883415D02*
X62450000Y63907224D01*
X62450000Y63907224D02*
X62545238Y63907224D01*
X62545238Y63907224D02*
X62592857Y63883415D01*
X63045238Y63597700D02*
X62997619Y63573891D01*
X62997619Y63573891D02*
X62902381Y63573891D01*
X62902381Y63573891D02*
X62854762Y63597700D01*
X62854762Y63597700D02*
X62830952Y63621510D01*
X62830952Y63621510D02*
X62807143Y63669129D01*
X62807143Y63669129D02*
X62807143Y63811986D01*
X62807143Y63811986D02*
X62830952Y63859605D01*
X62830952Y63859605D02*
X62854762Y63883415D01*
X62854762Y63883415D02*
X62902381Y63907224D01*
X62902381Y63907224D02*
X62997619Y63907224D01*
X62997619Y63907224D02*
X63045238Y63883415D01*
X63473809Y63573891D02*
X63473809Y63835796D01*
X63473809Y63835796D02*
X63449999Y63883415D01*
X63449999Y63883415D02*
X63402380Y63907224D01*
X63402380Y63907224D02*
X63307142Y63907224D01*
X63307142Y63907224D02*
X63259523Y63883415D01*
X63473809Y63597700D02*
X63426190Y63573891D01*
X63426190Y63573891D02*
X63307142Y63573891D01*
X63307142Y63573891D02*
X63259523Y63597700D01*
X63259523Y63597700D02*
X63235714Y63645320D01*
X63235714Y63645320D02*
X63235714Y63692939D01*
X63235714Y63692939D02*
X63259523Y63740558D01*
X63259523Y63740558D02*
X63307142Y63764367D01*
X63307142Y63764367D02*
X63426190Y63764367D01*
X63426190Y63764367D02*
X63473809Y63788177D01*
X63711904Y63907224D02*
X63711904Y63407224D01*
X63711904Y63883415D02*
X63759523Y63907224D01*
X63759523Y63907224D02*
X63854761Y63907224D01*
X63854761Y63907224D02*
X63902380Y63883415D01*
X63902380Y63883415D02*
X63926190Y63859605D01*
X63926190Y63859605D02*
X63949999Y63811986D01*
X63949999Y63811986D02*
X63949999Y63669129D01*
X63949999Y63669129D02*
X63926190Y63621510D01*
X63926190Y63621510D02*
X63902380Y63597700D01*
X63902380Y63597700D02*
X63854761Y63573891D01*
X63854761Y63573891D02*
X63759523Y63573891D01*
X63759523Y63573891D02*
X63711904Y63597700D01*
D11*
X56222493Y86945181D02*
X56222493Y86230896D01*
X56222493Y86230896D02*
X56174874Y86088039D01*
X56174874Y86088039D02*
X56079636Y85992800D01*
X56079636Y85992800D02*
X55936779Y85945181D01*
X55936779Y85945181D02*
X55841541Y85945181D01*
X57222493Y85945181D02*
X56651065Y85945181D01*
X56936779Y85945181D02*
X56936779Y86945181D01*
X56936779Y86945181D02*
X56841541Y86802324D01*
X56841541Y86802324D02*
X56746303Y86707086D01*
X56746303Y86707086D02*
X56651065Y86659467D01*
X57603446Y86849943D02*
X57651065Y86897562D01*
X57651065Y86897562D02*
X57746303Y86945181D01*
X57746303Y86945181D02*
X57984398Y86945181D01*
X57984398Y86945181D02*
X58079636Y86897562D01*
X58079636Y86897562D02*
X58127255Y86849943D01*
X58127255Y86849943D02*
X58174874Y86754705D01*
X58174874Y86754705D02*
X58174874Y86659467D01*
X58174874Y86659467D02*
X58127255Y86516610D01*
X58127255Y86516610D02*
X57555827Y85945181D01*
X57555827Y85945181D02*
X58174874Y85945181D01*
D12*
X61473809Y88035796D02*
X61640476Y88035796D01*
X61711904Y87773891D02*
X61473809Y87773891D01*
X61473809Y87773891D02*
X61473809Y88273891D01*
X61473809Y88273891D02*
X61711904Y88273891D01*
X61926190Y88107224D02*
X61926190Y87773891D01*
X61926190Y88059605D02*
X61950000Y88083415D01*
X61950000Y88083415D02*
X61997619Y88107224D01*
X61997619Y88107224D02*
X62069047Y88107224D01*
X62069047Y88107224D02*
X62116666Y88083415D01*
X62116666Y88083415D02*
X62140476Y88035796D01*
X62140476Y88035796D02*
X62140476Y87773891D01*
X62592857Y87773891D02*
X62592857Y88273891D01*
X62592857Y87797700D02*
X62545238Y87773891D01*
X62545238Y87773891D02*
X62450000Y87773891D01*
X62450000Y87773891D02*
X62402381Y87797700D01*
X62402381Y87797700D02*
X62378571Y87821510D01*
X62378571Y87821510D02*
X62354762Y87869129D01*
X62354762Y87869129D02*
X62354762Y88011986D01*
X62354762Y88011986D02*
X62378571Y88059605D01*
X62378571Y88059605D02*
X62402381Y88083415D01*
X62402381Y88083415D02*
X62450000Y88107224D01*
X62450000Y88107224D02*
X62545238Y88107224D01*
X62545238Y88107224D02*
X62592857Y88083415D01*
X63045238Y87797700D02*
X62997619Y87773891D01*
X62997619Y87773891D02*
X62902381Y87773891D01*
X62902381Y87773891D02*
X62854762Y87797700D01*
X62854762Y87797700D02*
X62830952Y87821510D01*
X62830952Y87821510D02*
X62807143Y87869129D01*
X62807143Y87869129D02*
X62807143Y88011986D01*
X62807143Y88011986D02*
X62830952Y88059605D01*
X62830952Y88059605D02*
X62854762Y88083415D01*
X62854762Y88083415D02*
X62902381Y88107224D01*
X62902381Y88107224D02*
X62997619Y88107224D01*
X62997619Y88107224D02*
X63045238Y88083415D01*
X63473809Y87773891D02*
X63473809Y88035796D01*
X63473809Y88035796D02*
X63449999Y88083415D01*
X63449999Y88083415D02*
X63402380Y88107224D01*
X63402380Y88107224D02*
X63307142Y88107224D01*
X63307142Y88107224D02*
X63259523Y88083415D01*
X63473809Y87797700D02*
X63426190Y87773891D01*
X63426190Y87773891D02*
X63307142Y87773891D01*
X63307142Y87773891D02*
X63259523Y87797700D01*
X63259523Y87797700D02*
X63235714Y87845320D01*
X63235714Y87845320D02*
X63235714Y87892939D01*
X63235714Y87892939D02*
X63259523Y87940558D01*
X63259523Y87940558D02*
X63307142Y87964367D01*
X63307142Y87964367D02*
X63426190Y87964367D01*
X63426190Y87964367D02*
X63473809Y87988177D01*
X63711904Y88107224D02*
X63711904Y87607224D01*
X63711904Y88083415D02*
X63759523Y88107224D01*
X63759523Y88107224D02*
X63854761Y88107224D01*
X63854761Y88107224D02*
X63902380Y88083415D01*
X63902380Y88083415D02*
X63926190Y88059605D01*
X63926190Y88059605D02*
X63949999Y88011986D01*
X63949999Y88011986D02*
X63949999Y87869129D01*
X63949999Y87869129D02*
X63926190Y87821510D01*
X63926190Y87821510D02*
X63902380Y87797700D01*
X63902380Y87797700D02*
X63854761Y87773891D01*
X63854761Y87773891D02*
X63759523Y87773891D01*
X63759523Y87773891D02*
X63711904Y87797700D01*
D11*
X59522493Y31545181D02*
X59522493Y30830896D01*
X59522493Y30830896D02*
X59474874Y30688039D01*
X59474874Y30688039D02*
X59379636Y30592800D01*
X59379636Y30592800D02*
X59236779Y30545181D01*
X59236779Y30545181D02*
X59141541Y30545181D01*
X60141541Y31116610D02*
X60046303Y31164229D01*
X60046303Y31164229D02*
X59998684Y31211848D01*
X59998684Y31211848D02*
X59951065Y31307086D01*
X59951065Y31307086D02*
X59951065Y31354705D01*
X59951065Y31354705D02*
X59998684Y31449943D01*
X59998684Y31449943D02*
X60046303Y31497562D01*
X60046303Y31497562D02*
X60141541Y31545181D01*
X60141541Y31545181D02*
X60332017Y31545181D01*
X60332017Y31545181D02*
X60427255Y31497562D01*
X60427255Y31497562D02*
X60474874Y31449943D01*
X60474874Y31449943D02*
X60522493Y31354705D01*
X60522493Y31354705D02*
X60522493Y31307086D01*
X60522493Y31307086D02*
X60474874Y31211848D01*
X60474874Y31211848D02*
X60427255Y31164229D01*
X60427255Y31164229D02*
X60332017Y31116610D01*
X60332017Y31116610D02*
X60141541Y31116610D01*
X60141541Y31116610D02*
X60046303Y31068991D01*
X60046303Y31068991D02*
X59998684Y31021372D01*
X59998684Y31021372D02*
X59951065Y30926134D01*
X59951065Y30926134D02*
X59951065Y30735658D01*
X59951065Y30735658D02*
X59998684Y30640420D01*
X59998684Y30640420D02*
X60046303Y30592800D01*
X60046303Y30592800D02*
X60141541Y30545181D01*
X60141541Y30545181D02*
X60332017Y30545181D01*
X60332017Y30545181D02*
X60427255Y30592800D01*
X60427255Y30592800D02*
X60474874Y30640420D01*
X60474874Y30640420D02*
X60522493Y30735658D01*
X60522493Y30735658D02*
X60522493Y30926134D01*
X60522493Y30926134D02*
X60474874Y31021372D01*
X60474874Y31021372D02*
X60427255Y31068991D01*
X60427255Y31068991D02*
X60332017Y31116610D01*
D12*
X60170550Y29114010D02*
X60146741Y29090200D01*
X60146741Y29090200D02*
X60075312Y29066391D01*
X60075312Y29066391D02*
X60027693Y29066391D01*
X60027693Y29066391D02*
X59956265Y29090200D01*
X59956265Y29090200D02*
X59908646Y29137820D01*
X59908646Y29137820D02*
X59884836Y29185439D01*
X59884836Y29185439D02*
X59861027Y29280677D01*
X59861027Y29280677D02*
X59861027Y29352105D01*
X59861027Y29352105D02*
X59884836Y29447343D01*
X59884836Y29447343D02*
X59908646Y29494962D01*
X59908646Y29494962D02*
X59956265Y29542581D01*
X59956265Y29542581D02*
X60027693Y29566391D01*
X60027693Y29566391D02*
X60075312Y29566391D01*
X60075312Y29566391D02*
X60146741Y29542581D01*
X60146741Y29542581D02*
X60170550Y29518772D01*
X60456265Y29066391D02*
X60408646Y29090200D01*
X60408646Y29090200D02*
X60384836Y29114010D01*
X60384836Y29114010D02*
X60361027Y29161629D01*
X60361027Y29161629D02*
X60361027Y29304486D01*
X60361027Y29304486D02*
X60384836Y29352105D01*
X60384836Y29352105D02*
X60408646Y29375915D01*
X60408646Y29375915D02*
X60456265Y29399724D01*
X60456265Y29399724D02*
X60527693Y29399724D01*
X60527693Y29399724D02*
X60575312Y29375915D01*
X60575312Y29375915D02*
X60599122Y29352105D01*
X60599122Y29352105D02*
X60622931Y29304486D01*
X60622931Y29304486D02*
X60622931Y29161629D01*
X60622931Y29161629D02*
X60599122Y29114010D01*
X60599122Y29114010D02*
X60575312Y29090200D01*
X60575312Y29090200D02*
X60527693Y29066391D01*
X60527693Y29066391D02*
X60456265Y29066391D01*
X60837217Y29399724D02*
X60837217Y29066391D01*
X60837217Y29352105D02*
X60861027Y29375915D01*
X60861027Y29375915D02*
X60908646Y29399724D01*
X60908646Y29399724D02*
X60980074Y29399724D01*
X60980074Y29399724D02*
X61027693Y29375915D01*
X61027693Y29375915D02*
X61051503Y29328296D01*
X61051503Y29328296D02*
X61051503Y29066391D01*
X61289598Y29399724D02*
X61289598Y29066391D01*
X61289598Y29352105D02*
X61313408Y29375915D01*
X61313408Y29375915D02*
X61361027Y29399724D01*
X61361027Y29399724D02*
X61432455Y29399724D01*
X61432455Y29399724D02*
X61480074Y29375915D01*
X61480074Y29375915D02*
X61503884Y29328296D01*
X61503884Y29328296D02*
X61503884Y29066391D01*
X61932455Y29090200D02*
X61884836Y29066391D01*
X61884836Y29066391D02*
X61789598Y29066391D01*
X61789598Y29066391D02*
X61741979Y29090200D01*
X61741979Y29090200D02*
X61718170Y29137820D01*
X61718170Y29137820D02*
X61718170Y29328296D01*
X61718170Y29328296D02*
X61741979Y29375915D01*
X61741979Y29375915D02*
X61789598Y29399724D01*
X61789598Y29399724D02*
X61884836Y29399724D01*
X61884836Y29399724D02*
X61932455Y29375915D01*
X61932455Y29375915D02*
X61956265Y29328296D01*
X61956265Y29328296D02*
X61956265Y29280677D01*
X61956265Y29280677D02*
X61718170Y29233058D01*
X62384836Y29090200D02*
X62337217Y29066391D01*
X62337217Y29066391D02*
X62241979Y29066391D01*
X62241979Y29066391D02*
X62194360Y29090200D01*
X62194360Y29090200D02*
X62170550Y29114010D01*
X62170550Y29114010D02*
X62146741Y29161629D01*
X62146741Y29161629D02*
X62146741Y29304486D01*
X62146741Y29304486D02*
X62170550Y29352105D01*
X62170550Y29352105D02*
X62194360Y29375915D01*
X62194360Y29375915D02*
X62241979Y29399724D01*
X62241979Y29399724D02*
X62337217Y29399724D01*
X62337217Y29399724D02*
X62384836Y29375915D01*
X62527693Y29399724D02*
X62718169Y29399724D01*
X62599121Y29566391D02*
X62599121Y29137820D01*
X62599121Y29137820D02*
X62622931Y29090200D01*
X62622931Y29090200D02*
X62670550Y29066391D01*
X62670550Y29066391D02*
X62718169Y29066391D01*
X63265787Y29066391D02*
X63265787Y29566391D01*
X63265787Y29566391D02*
X63551501Y29066391D01*
X63551501Y29066391D02*
X63551501Y29566391D01*
X63980073Y29090200D02*
X63932454Y29066391D01*
X63932454Y29066391D02*
X63837216Y29066391D01*
X63837216Y29066391D02*
X63789597Y29090200D01*
X63789597Y29090200D02*
X63765788Y29137820D01*
X63765788Y29137820D02*
X63765788Y29328296D01*
X63765788Y29328296D02*
X63789597Y29375915D01*
X63789597Y29375915D02*
X63837216Y29399724D01*
X63837216Y29399724D02*
X63932454Y29399724D01*
X63932454Y29399724D02*
X63980073Y29375915D01*
X63980073Y29375915D02*
X64003883Y29328296D01*
X64003883Y29328296D02*
X64003883Y29280677D01*
X64003883Y29280677D02*
X63765788Y29233058D01*
X64170549Y29066391D02*
X64432454Y29399724D01*
X64170549Y29399724D02*
X64432454Y29066391D01*
X64551502Y29399724D02*
X64741978Y29399724D01*
X64622930Y29566391D02*
X64622930Y29137820D01*
X64622930Y29137820D02*
X64646740Y29090200D01*
X64646740Y29090200D02*
X64694359Y29066391D01*
X64694359Y29066391D02*
X64741978Y29066391D01*
D11*
X59522493Y17545181D02*
X59522493Y16830896D01*
X59522493Y16830896D02*
X59474874Y16688039D01*
X59474874Y16688039D02*
X59379636Y16592800D01*
X59379636Y16592800D02*
X59236779Y16545181D01*
X59236779Y16545181D02*
X59141541Y16545181D01*
X60427255Y17211848D02*
X60427255Y16545181D01*
X60189160Y17592800D02*
X59951065Y16878515D01*
X59951065Y16878515D02*
X60570112Y16878515D01*
D12*
X60170550Y15114010D02*
X60146741Y15090200D01*
X60146741Y15090200D02*
X60075312Y15066391D01*
X60075312Y15066391D02*
X60027693Y15066391D01*
X60027693Y15066391D02*
X59956265Y15090200D01*
X59956265Y15090200D02*
X59908646Y15137820D01*
X59908646Y15137820D02*
X59884836Y15185439D01*
X59884836Y15185439D02*
X59861027Y15280677D01*
X59861027Y15280677D02*
X59861027Y15352105D01*
X59861027Y15352105D02*
X59884836Y15447343D01*
X59884836Y15447343D02*
X59908646Y15494962D01*
X59908646Y15494962D02*
X59956265Y15542581D01*
X59956265Y15542581D02*
X60027693Y15566391D01*
X60027693Y15566391D02*
X60075312Y15566391D01*
X60075312Y15566391D02*
X60146741Y15542581D01*
X60146741Y15542581D02*
X60170550Y15518772D01*
X60456265Y15066391D02*
X60408646Y15090200D01*
X60408646Y15090200D02*
X60384836Y15114010D01*
X60384836Y15114010D02*
X60361027Y15161629D01*
X60361027Y15161629D02*
X60361027Y15304486D01*
X60361027Y15304486D02*
X60384836Y15352105D01*
X60384836Y15352105D02*
X60408646Y15375915D01*
X60408646Y15375915D02*
X60456265Y15399724D01*
X60456265Y15399724D02*
X60527693Y15399724D01*
X60527693Y15399724D02*
X60575312Y15375915D01*
X60575312Y15375915D02*
X60599122Y15352105D01*
X60599122Y15352105D02*
X60622931Y15304486D01*
X60622931Y15304486D02*
X60622931Y15161629D01*
X60622931Y15161629D02*
X60599122Y15114010D01*
X60599122Y15114010D02*
X60575312Y15090200D01*
X60575312Y15090200D02*
X60527693Y15066391D01*
X60527693Y15066391D02*
X60456265Y15066391D01*
X60837217Y15399724D02*
X60837217Y15066391D01*
X60837217Y15352105D02*
X60861027Y15375915D01*
X60861027Y15375915D02*
X60908646Y15399724D01*
X60908646Y15399724D02*
X60980074Y15399724D01*
X60980074Y15399724D02*
X61027693Y15375915D01*
X61027693Y15375915D02*
X61051503Y15328296D01*
X61051503Y15328296D02*
X61051503Y15066391D01*
X61289598Y15399724D02*
X61289598Y15066391D01*
X61289598Y15352105D02*
X61313408Y15375915D01*
X61313408Y15375915D02*
X61361027Y15399724D01*
X61361027Y15399724D02*
X61432455Y15399724D01*
X61432455Y15399724D02*
X61480074Y15375915D01*
X61480074Y15375915D02*
X61503884Y15328296D01*
X61503884Y15328296D02*
X61503884Y15066391D01*
X61932455Y15090200D02*
X61884836Y15066391D01*
X61884836Y15066391D02*
X61789598Y15066391D01*
X61789598Y15066391D02*
X61741979Y15090200D01*
X61741979Y15090200D02*
X61718170Y15137820D01*
X61718170Y15137820D02*
X61718170Y15328296D01*
X61718170Y15328296D02*
X61741979Y15375915D01*
X61741979Y15375915D02*
X61789598Y15399724D01*
X61789598Y15399724D02*
X61884836Y15399724D01*
X61884836Y15399724D02*
X61932455Y15375915D01*
X61932455Y15375915D02*
X61956265Y15328296D01*
X61956265Y15328296D02*
X61956265Y15280677D01*
X61956265Y15280677D02*
X61718170Y15233058D01*
X62384836Y15090200D02*
X62337217Y15066391D01*
X62337217Y15066391D02*
X62241979Y15066391D01*
X62241979Y15066391D02*
X62194360Y15090200D01*
X62194360Y15090200D02*
X62170550Y15114010D01*
X62170550Y15114010D02*
X62146741Y15161629D01*
X62146741Y15161629D02*
X62146741Y15304486D01*
X62146741Y15304486D02*
X62170550Y15352105D01*
X62170550Y15352105D02*
X62194360Y15375915D01*
X62194360Y15375915D02*
X62241979Y15399724D01*
X62241979Y15399724D02*
X62337217Y15399724D01*
X62337217Y15399724D02*
X62384836Y15375915D01*
X62527693Y15399724D02*
X62718169Y15399724D01*
X62599121Y15566391D02*
X62599121Y15137820D01*
X62599121Y15137820D02*
X62622931Y15090200D01*
X62622931Y15090200D02*
X62670550Y15066391D01*
X62670550Y15066391D02*
X62718169Y15066391D01*
X63265787Y15066391D02*
X63265787Y15566391D01*
X63265787Y15566391D02*
X63551501Y15066391D01*
X63551501Y15066391D02*
X63551501Y15566391D01*
X63980073Y15090200D02*
X63932454Y15066391D01*
X63932454Y15066391D02*
X63837216Y15066391D01*
X63837216Y15066391D02*
X63789597Y15090200D01*
X63789597Y15090200D02*
X63765788Y15137820D01*
X63765788Y15137820D02*
X63765788Y15328296D01*
X63765788Y15328296D02*
X63789597Y15375915D01*
X63789597Y15375915D02*
X63837216Y15399724D01*
X63837216Y15399724D02*
X63932454Y15399724D01*
X63932454Y15399724D02*
X63980073Y15375915D01*
X63980073Y15375915D02*
X64003883Y15328296D01*
X64003883Y15328296D02*
X64003883Y15280677D01*
X64003883Y15280677D02*
X63765788Y15233058D01*
X64170549Y15066391D02*
X64432454Y15399724D01*
X64170549Y15399724D02*
X64432454Y15066391D01*
X64551502Y15399724D02*
X64741978Y15399724D01*
X64622930Y15566391D02*
X64622930Y15137820D01*
X64622930Y15137820D02*
X64646740Y15090200D01*
X64646740Y15090200D02*
X64694359Y15066391D01*
X64694359Y15066391D02*
X64741978Y15066391D01*
D11*
X59522493Y21045181D02*
X59522493Y20330896D01*
X59522493Y20330896D02*
X59474874Y20188039D01*
X59474874Y20188039D02*
X59379636Y20092800D01*
X59379636Y20092800D02*
X59236779Y20045181D01*
X59236779Y20045181D02*
X59141541Y20045181D01*
X59903446Y21045181D02*
X60522493Y21045181D01*
X60522493Y21045181D02*
X60189160Y20664229D01*
X60189160Y20664229D02*
X60332017Y20664229D01*
X60332017Y20664229D02*
X60427255Y20616610D01*
X60427255Y20616610D02*
X60474874Y20568991D01*
X60474874Y20568991D02*
X60522493Y20473753D01*
X60522493Y20473753D02*
X60522493Y20235658D01*
X60522493Y20235658D02*
X60474874Y20140420D01*
X60474874Y20140420D02*
X60427255Y20092800D01*
X60427255Y20092800D02*
X60332017Y20045181D01*
X60332017Y20045181D02*
X60046303Y20045181D01*
X60046303Y20045181D02*
X59951065Y20092800D01*
X59951065Y20092800D02*
X59903446Y20140420D01*
D12*
X60170550Y18614010D02*
X60146741Y18590200D01*
X60146741Y18590200D02*
X60075312Y18566391D01*
X60075312Y18566391D02*
X60027693Y18566391D01*
X60027693Y18566391D02*
X59956265Y18590200D01*
X59956265Y18590200D02*
X59908646Y18637820D01*
X59908646Y18637820D02*
X59884836Y18685439D01*
X59884836Y18685439D02*
X59861027Y18780677D01*
X59861027Y18780677D02*
X59861027Y18852105D01*
X59861027Y18852105D02*
X59884836Y18947343D01*
X59884836Y18947343D02*
X59908646Y18994962D01*
X59908646Y18994962D02*
X59956265Y19042581D01*
X59956265Y19042581D02*
X60027693Y19066391D01*
X60027693Y19066391D02*
X60075312Y19066391D01*
X60075312Y19066391D02*
X60146741Y19042581D01*
X60146741Y19042581D02*
X60170550Y19018772D01*
X60456265Y18566391D02*
X60408646Y18590200D01*
X60408646Y18590200D02*
X60384836Y18614010D01*
X60384836Y18614010D02*
X60361027Y18661629D01*
X60361027Y18661629D02*
X60361027Y18804486D01*
X60361027Y18804486D02*
X60384836Y18852105D01*
X60384836Y18852105D02*
X60408646Y18875915D01*
X60408646Y18875915D02*
X60456265Y18899724D01*
X60456265Y18899724D02*
X60527693Y18899724D01*
X60527693Y18899724D02*
X60575312Y18875915D01*
X60575312Y18875915D02*
X60599122Y18852105D01*
X60599122Y18852105D02*
X60622931Y18804486D01*
X60622931Y18804486D02*
X60622931Y18661629D01*
X60622931Y18661629D02*
X60599122Y18614010D01*
X60599122Y18614010D02*
X60575312Y18590200D01*
X60575312Y18590200D02*
X60527693Y18566391D01*
X60527693Y18566391D02*
X60456265Y18566391D01*
X60837217Y18899724D02*
X60837217Y18566391D01*
X60837217Y18852105D02*
X60861027Y18875915D01*
X60861027Y18875915D02*
X60908646Y18899724D01*
X60908646Y18899724D02*
X60980074Y18899724D01*
X60980074Y18899724D02*
X61027693Y18875915D01*
X61027693Y18875915D02*
X61051503Y18828296D01*
X61051503Y18828296D02*
X61051503Y18566391D01*
X61289598Y18899724D02*
X61289598Y18566391D01*
X61289598Y18852105D02*
X61313408Y18875915D01*
X61313408Y18875915D02*
X61361027Y18899724D01*
X61361027Y18899724D02*
X61432455Y18899724D01*
X61432455Y18899724D02*
X61480074Y18875915D01*
X61480074Y18875915D02*
X61503884Y18828296D01*
X61503884Y18828296D02*
X61503884Y18566391D01*
X61932455Y18590200D02*
X61884836Y18566391D01*
X61884836Y18566391D02*
X61789598Y18566391D01*
X61789598Y18566391D02*
X61741979Y18590200D01*
X61741979Y18590200D02*
X61718170Y18637820D01*
X61718170Y18637820D02*
X61718170Y18828296D01*
X61718170Y18828296D02*
X61741979Y18875915D01*
X61741979Y18875915D02*
X61789598Y18899724D01*
X61789598Y18899724D02*
X61884836Y18899724D01*
X61884836Y18899724D02*
X61932455Y18875915D01*
X61932455Y18875915D02*
X61956265Y18828296D01*
X61956265Y18828296D02*
X61956265Y18780677D01*
X61956265Y18780677D02*
X61718170Y18733058D01*
X62384836Y18590200D02*
X62337217Y18566391D01*
X62337217Y18566391D02*
X62241979Y18566391D01*
X62241979Y18566391D02*
X62194360Y18590200D01*
X62194360Y18590200D02*
X62170550Y18614010D01*
X62170550Y18614010D02*
X62146741Y18661629D01*
X62146741Y18661629D02*
X62146741Y18804486D01*
X62146741Y18804486D02*
X62170550Y18852105D01*
X62170550Y18852105D02*
X62194360Y18875915D01*
X62194360Y18875915D02*
X62241979Y18899724D01*
X62241979Y18899724D02*
X62337217Y18899724D01*
X62337217Y18899724D02*
X62384836Y18875915D01*
X62527693Y18899724D02*
X62718169Y18899724D01*
X62599121Y19066391D02*
X62599121Y18637820D01*
X62599121Y18637820D02*
X62622931Y18590200D01*
X62622931Y18590200D02*
X62670550Y18566391D01*
X62670550Y18566391D02*
X62718169Y18566391D01*
X63265787Y18566391D02*
X63265787Y19066391D01*
X63265787Y19066391D02*
X63551501Y18566391D01*
X63551501Y18566391D02*
X63551501Y19066391D01*
X63980073Y18590200D02*
X63932454Y18566391D01*
X63932454Y18566391D02*
X63837216Y18566391D01*
X63837216Y18566391D02*
X63789597Y18590200D01*
X63789597Y18590200D02*
X63765788Y18637820D01*
X63765788Y18637820D02*
X63765788Y18828296D01*
X63765788Y18828296D02*
X63789597Y18875915D01*
X63789597Y18875915D02*
X63837216Y18899724D01*
X63837216Y18899724D02*
X63932454Y18899724D01*
X63932454Y18899724D02*
X63980073Y18875915D01*
X63980073Y18875915D02*
X64003883Y18828296D01*
X64003883Y18828296D02*
X64003883Y18780677D01*
X64003883Y18780677D02*
X63765788Y18733058D01*
X64170549Y18566391D02*
X64432454Y18899724D01*
X64170549Y18899724D02*
X64432454Y18566391D01*
X64551502Y18899724D02*
X64741978Y18899724D01*
X64622930Y19066391D02*
X64622930Y18637820D01*
X64622930Y18637820D02*
X64646740Y18590200D01*
X64646740Y18590200D02*
X64694359Y18566391D01*
X64694359Y18566391D02*
X64741978Y18566391D01*
X35209800Y45416668D02*
X35257419Y45559525D01*
X35257419Y45559525D02*
X35257419Y45797620D01*
X35257419Y45797620D02*
X35209800Y45892858D01*
X35209800Y45892858D02*
X35162180Y45940477D01*
X35162180Y45940477D02*
X35066942Y45988096D01*
X35066942Y45988096D02*
X34971704Y45988096D01*
X34971704Y45988096D02*
X34876466Y45940477D01*
X34876466Y45940477D02*
X34828847Y45892858D01*
X34828847Y45892858D02*
X34781228Y45797620D01*
X34781228Y45797620D02*
X34733609Y45607144D01*
X34733609Y45607144D02*
X34685990Y45511906D01*
X34685990Y45511906D02*
X34638371Y45464287D01*
X34638371Y45464287D02*
X34543133Y45416668D01*
X34543133Y45416668D02*
X34447895Y45416668D01*
X34447895Y45416668D02*
X34352657Y45464287D01*
X34352657Y45464287D02*
X34305038Y45511906D01*
X34305038Y45511906D02*
X34257419Y45607144D01*
X34257419Y45607144D02*
X34257419Y45845239D01*
X34257419Y45845239D02*
X34305038Y45988096D01*
X34257419Y46321430D02*
X35257419Y46559525D01*
X35257419Y46559525D02*
X34543133Y46750001D01*
X34543133Y46750001D02*
X35257419Y46940477D01*
X35257419Y46940477D02*
X34257419Y47178572D01*
X34352657Y47511906D02*
X34305038Y47559525D01*
X34305038Y47559525D02*
X34257419Y47654763D01*
X34257419Y47654763D02*
X34257419Y47892858D01*
X34257419Y47892858D02*
X34305038Y47988096D01*
X34305038Y47988096D02*
X34352657Y48035715D01*
X34352657Y48035715D02*
X34447895Y48083334D01*
X34447895Y48083334D02*
X34543133Y48083334D01*
X34543133Y48083334D02*
X34685990Y48035715D01*
X34685990Y48035715D02*
X35257419Y47464287D01*
X35257419Y47464287D02*
X35257419Y48083334D01*
D11*
X59522493Y24545181D02*
X59522493Y23830896D01*
X59522493Y23830896D02*
X59474874Y23688039D01*
X59474874Y23688039D02*
X59379636Y23592800D01*
X59379636Y23592800D02*
X59236779Y23545181D01*
X59236779Y23545181D02*
X59141541Y23545181D01*
X59951065Y24449943D02*
X59998684Y24497562D01*
X59998684Y24497562D02*
X60093922Y24545181D01*
X60093922Y24545181D02*
X60332017Y24545181D01*
X60332017Y24545181D02*
X60427255Y24497562D01*
X60427255Y24497562D02*
X60474874Y24449943D01*
X60474874Y24449943D02*
X60522493Y24354705D01*
X60522493Y24354705D02*
X60522493Y24259467D01*
X60522493Y24259467D02*
X60474874Y24116610D01*
X60474874Y24116610D02*
X59903446Y23545181D01*
X59903446Y23545181D02*
X60522493Y23545181D01*
D12*
X60170550Y22114010D02*
X60146741Y22090200D01*
X60146741Y22090200D02*
X60075312Y22066391D01*
X60075312Y22066391D02*
X60027693Y22066391D01*
X60027693Y22066391D02*
X59956265Y22090200D01*
X59956265Y22090200D02*
X59908646Y22137820D01*
X59908646Y22137820D02*
X59884836Y22185439D01*
X59884836Y22185439D02*
X59861027Y22280677D01*
X59861027Y22280677D02*
X59861027Y22352105D01*
X59861027Y22352105D02*
X59884836Y22447343D01*
X59884836Y22447343D02*
X59908646Y22494962D01*
X59908646Y22494962D02*
X59956265Y22542581D01*
X59956265Y22542581D02*
X60027693Y22566391D01*
X60027693Y22566391D02*
X60075312Y22566391D01*
X60075312Y22566391D02*
X60146741Y22542581D01*
X60146741Y22542581D02*
X60170550Y22518772D01*
X60456265Y22066391D02*
X60408646Y22090200D01*
X60408646Y22090200D02*
X60384836Y22114010D01*
X60384836Y22114010D02*
X60361027Y22161629D01*
X60361027Y22161629D02*
X60361027Y22304486D01*
X60361027Y22304486D02*
X60384836Y22352105D01*
X60384836Y22352105D02*
X60408646Y22375915D01*
X60408646Y22375915D02*
X60456265Y22399724D01*
X60456265Y22399724D02*
X60527693Y22399724D01*
X60527693Y22399724D02*
X60575312Y22375915D01*
X60575312Y22375915D02*
X60599122Y22352105D01*
X60599122Y22352105D02*
X60622931Y22304486D01*
X60622931Y22304486D02*
X60622931Y22161629D01*
X60622931Y22161629D02*
X60599122Y22114010D01*
X60599122Y22114010D02*
X60575312Y22090200D01*
X60575312Y22090200D02*
X60527693Y22066391D01*
X60527693Y22066391D02*
X60456265Y22066391D01*
X60837217Y22399724D02*
X60837217Y22066391D01*
X60837217Y22352105D02*
X60861027Y22375915D01*
X60861027Y22375915D02*
X60908646Y22399724D01*
X60908646Y22399724D02*
X60980074Y22399724D01*
X60980074Y22399724D02*
X61027693Y22375915D01*
X61027693Y22375915D02*
X61051503Y22328296D01*
X61051503Y22328296D02*
X61051503Y22066391D01*
X61289598Y22399724D02*
X61289598Y22066391D01*
X61289598Y22352105D02*
X61313408Y22375915D01*
X61313408Y22375915D02*
X61361027Y22399724D01*
X61361027Y22399724D02*
X61432455Y22399724D01*
X61432455Y22399724D02*
X61480074Y22375915D01*
X61480074Y22375915D02*
X61503884Y22328296D01*
X61503884Y22328296D02*
X61503884Y22066391D01*
X61932455Y22090200D02*
X61884836Y22066391D01*
X61884836Y22066391D02*
X61789598Y22066391D01*
X61789598Y22066391D02*
X61741979Y22090200D01*
X61741979Y22090200D02*
X61718170Y22137820D01*
X61718170Y22137820D02*
X61718170Y22328296D01*
X61718170Y22328296D02*
X61741979Y22375915D01*
X61741979Y22375915D02*
X61789598Y22399724D01*
X61789598Y22399724D02*
X61884836Y22399724D01*
X61884836Y22399724D02*
X61932455Y22375915D01*
X61932455Y22375915D02*
X61956265Y22328296D01*
X61956265Y22328296D02*
X61956265Y22280677D01*
X61956265Y22280677D02*
X61718170Y22233058D01*
X62384836Y22090200D02*
X62337217Y22066391D01*
X62337217Y22066391D02*
X62241979Y22066391D01*
X62241979Y22066391D02*
X62194360Y22090200D01*
X62194360Y22090200D02*
X62170550Y22114010D01*
X62170550Y22114010D02*
X62146741Y22161629D01*
X62146741Y22161629D02*
X62146741Y22304486D01*
X62146741Y22304486D02*
X62170550Y22352105D01*
X62170550Y22352105D02*
X62194360Y22375915D01*
X62194360Y22375915D02*
X62241979Y22399724D01*
X62241979Y22399724D02*
X62337217Y22399724D01*
X62337217Y22399724D02*
X62384836Y22375915D01*
X62527693Y22399724D02*
X62718169Y22399724D01*
X62599121Y22566391D02*
X62599121Y22137820D01*
X62599121Y22137820D02*
X62622931Y22090200D01*
X62622931Y22090200D02*
X62670550Y22066391D01*
X62670550Y22066391D02*
X62718169Y22066391D01*
X63265787Y22066391D02*
X63265787Y22566391D01*
X63265787Y22566391D02*
X63551501Y22066391D01*
X63551501Y22066391D02*
X63551501Y22566391D01*
X63980073Y22090200D02*
X63932454Y22066391D01*
X63932454Y22066391D02*
X63837216Y22066391D01*
X63837216Y22066391D02*
X63789597Y22090200D01*
X63789597Y22090200D02*
X63765788Y22137820D01*
X63765788Y22137820D02*
X63765788Y22328296D01*
X63765788Y22328296D02*
X63789597Y22375915D01*
X63789597Y22375915D02*
X63837216Y22399724D01*
X63837216Y22399724D02*
X63932454Y22399724D01*
X63932454Y22399724D02*
X63980073Y22375915D01*
X63980073Y22375915D02*
X64003883Y22328296D01*
X64003883Y22328296D02*
X64003883Y22280677D01*
X64003883Y22280677D02*
X63765788Y22233058D01*
X64170549Y22066391D02*
X64432454Y22399724D01*
X64170549Y22399724D02*
X64432454Y22066391D01*
X64551502Y22399724D02*
X64741978Y22399724D01*
X64622930Y22566391D02*
X64622930Y22137820D01*
X64622930Y22137820D02*
X64646740Y22090200D01*
X64646740Y22090200D02*
X64694359Y22066391D01*
X64694359Y22066391D02*
X64741978Y22066391D01*
D11*
X59722493Y38545181D02*
X59722493Y37830896D01*
X59722493Y37830896D02*
X59674874Y37688039D01*
X59674874Y37688039D02*
X59579636Y37592800D01*
X59579636Y37592800D02*
X59436779Y37545181D01*
X59436779Y37545181D02*
X59341541Y37545181D01*
X60627255Y38545181D02*
X60436779Y38545181D01*
X60436779Y38545181D02*
X60341541Y38497562D01*
X60341541Y38497562D02*
X60293922Y38449943D01*
X60293922Y38449943D02*
X60198684Y38307086D01*
X60198684Y38307086D02*
X60151065Y38116610D01*
X60151065Y38116610D02*
X60151065Y37735658D01*
X60151065Y37735658D02*
X60198684Y37640420D01*
X60198684Y37640420D02*
X60246303Y37592800D01*
X60246303Y37592800D02*
X60341541Y37545181D01*
X60341541Y37545181D02*
X60532017Y37545181D01*
X60532017Y37545181D02*
X60627255Y37592800D01*
X60627255Y37592800D02*
X60674874Y37640420D01*
X60674874Y37640420D02*
X60722493Y37735658D01*
X60722493Y37735658D02*
X60722493Y37973753D01*
X60722493Y37973753D02*
X60674874Y38068991D01*
X60674874Y38068991D02*
X60627255Y38116610D01*
X60627255Y38116610D02*
X60532017Y38164229D01*
X60532017Y38164229D02*
X60341541Y38164229D01*
X60341541Y38164229D02*
X60246303Y38116610D01*
X60246303Y38116610D02*
X60198684Y38068991D01*
X60198684Y38068991D02*
X60151065Y37973753D01*
D12*
X61473809Y39623096D02*
X61640476Y39623096D01*
X61711904Y39361191D02*
X61473809Y39361191D01*
X61473809Y39361191D02*
X61473809Y39861191D01*
X61473809Y39861191D02*
X61711904Y39861191D01*
X61926190Y39694524D02*
X61926190Y39361191D01*
X61926190Y39646905D02*
X61950000Y39670715D01*
X61950000Y39670715D02*
X61997619Y39694524D01*
X61997619Y39694524D02*
X62069047Y39694524D01*
X62069047Y39694524D02*
X62116666Y39670715D01*
X62116666Y39670715D02*
X62140476Y39623096D01*
X62140476Y39623096D02*
X62140476Y39361191D01*
X62592857Y39361191D02*
X62592857Y39861191D01*
X62592857Y39385000D02*
X62545238Y39361191D01*
X62545238Y39361191D02*
X62450000Y39361191D01*
X62450000Y39361191D02*
X62402381Y39385000D01*
X62402381Y39385000D02*
X62378571Y39408810D01*
X62378571Y39408810D02*
X62354762Y39456429D01*
X62354762Y39456429D02*
X62354762Y39599286D01*
X62354762Y39599286D02*
X62378571Y39646905D01*
X62378571Y39646905D02*
X62402381Y39670715D01*
X62402381Y39670715D02*
X62450000Y39694524D01*
X62450000Y39694524D02*
X62545238Y39694524D01*
X62545238Y39694524D02*
X62592857Y39670715D01*
X63045238Y39385000D02*
X62997619Y39361191D01*
X62997619Y39361191D02*
X62902381Y39361191D01*
X62902381Y39361191D02*
X62854762Y39385000D01*
X62854762Y39385000D02*
X62830952Y39408810D01*
X62830952Y39408810D02*
X62807143Y39456429D01*
X62807143Y39456429D02*
X62807143Y39599286D01*
X62807143Y39599286D02*
X62830952Y39646905D01*
X62830952Y39646905D02*
X62854762Y39670715D01*
X62854762Y39670715D02*
X62902381Y39694524D01*
X62902381Y39694524D02*
X62997619Y39694524D01*
X62997619Y39694524D02*
X63045238Y39670715D01*
X63473809Y39361191D02*
X63473809Y39623096D01*
X63473809Y39623096D02*
X63449999Y39670715D01*
X63449999Y39670715D02*
X63402380Y39694524D01*
X63402380Y39694524D02*
X63307142Y39694524D01*
X63307142Y39694524D02*
X63259523Y39670715D01*
X63473809Y39385000D02*
X63426190Y39361191D01*
X63426190Y39361191D02*
X63307142Y39361191D01*
X63307142Y39361191D02*
X63259523Y39385000D01*
X63259523Y39385000D02*
X63235714Y39432620D01*
X63235714Y39432620D02*
X63235714Y39480239D01*
X63235714Y39480239D02*
X63259523Y39527858D01*
X63259523Y39527858D02*
X63307142Y39551667D01*
X63307142Y39551667D02*
X63426190Y39551667D01*
X63426190Y39551667D02*
X63473809Y39575477D01*
X63711904Y39694524D02*
X63711904Y39194524D01*
X63711904Y39670715D02*
X63759523Y39694524D01*
X63759523Y39694524D02*
X63854761Y39694524D01*
X63854761Y39694524D02*
X63902380Y39670715D01*
X63902380Y39670715D02*
X63926190Y39646905D01*
X63926190Y39646905D02*
X63949999Y39599286D01*
X63949999Y39599286D02*
X63949999Y39456429D01*
X63949999Y39456429D02*
X63926190Y39408810D01*
X63926190Y39408810D02*
X63902380Y39385000D01*
X63902380Y39385000D02*
X63854761Y39361191D01*
X63854761Y39361191D02*
X63759523Y39361191D01*
X63759523Y39361191D02*
X63711904Y39385000D01*
D11*
X56222493Y57745181D02*
X56222493Y57030896D01*
X56222493Y57030896D02*
X56174874Y56888039D01*
X56174874Y56888039D02*
X56079636Y56792800D01*
X56079636Y56792800D02*
X55936779Y56745181D01*
X55936779Y56745181D02*
X55841541Y56745181D01*
X57222493Y56745181D02*
X56651065Y56745181D01*
X56936779Y56745181D02*
X56936779Y57745181D01*
X56936779Y57745181D02*
X56841541Y57602324D01*
X56841541Y57602324D02*
X56746303Y57507086D01*
X56746303Y57507086D02*
X56651065Y57459467D01*
X58127255Y57745181D02*
X57651065Y57745181D01*
X57651065Y57745181D02*
X57603446Y57268991D01*
X57603446Y57268991D02*
X57651065Y57316610D01*
X57651065Y57316610D02*
X57746303Y57364229D01*
X57746303Y57364229D02*
X57984398Y57364229D01*
X57984398Y57364229D02*
X58079636Y57316610D01*
X58079636Y57316610D02*
X58127255Y57268991D01*
X58127255Y57268991D02*
X58174874Y57173753D01*
X58174874Y57173753D02*
X58174874Y56935658D01*
X58174874Y56935658D02*
X58127255Y56840420D01*
X58127255Y56840420D02*
X58079636Y56792800D01*
X58079636Y56792800D02*
X57984398Y56745181D01*
X57984398Y56745181D02*
X57746303Y56745181D01*
X57746303Y56745181D02*
X57651065Y56792800D01*
X57651065Y56792800D02*
X57603446Y56840420D01*
D12*
X60170550Y54814010D02*
X60146741Y54790200D01*
X60146741Y54790200D02*
X60075312Y54766391D01*
X60075312Y54766391D02*
X60027693Y54766391D01*
X60027693Y54766391D02*
X59956265Y54790200D01*
X59956265Y54790200D02*
X59908646Y54837820D01*
X59908646Y54837820D02*
X59884836Y54885439D01*
X59884836Y54885439D02*
X59861027Y54980677D01*
X59861027Y54980677D02*
X59861027Y55052105D01*
X59861027Y55052105D02*
X59884836Y55147343D01*
X59884836Y55147343D02*
X59908646Y55194962D01*
X59908646Y55194962D02*
X59956265Y55242581D01*
X59956265Y55242581D02*
X60027693Y55266391D01*
X60027693Y55266391D02*
X60075312Y55266391D01*
X60075312Y55266391D02*
X60146741Y55242581D01*
X60146741Y55242581D02*
X60170550Y55218772D01*
X60456265Y54766391D02*
X60408646Y54790200D01*
X60408646Y54790200D02*
X60384836Y54814010D01*
X60384836Y54814010D02*
X60361027Y54861629D01*
X60361027Y54861629D02*
X60361027Y55004486D01*
X60361027Y55004486D02*
X60384836Y55052105D01*
X60384836Y55052105D02*
X60408646Y55075915D01*
X60408646Y55075915D02*
X60456265Y55099724D01*
X60456265Y55099724D02*
X60527693Y55099724D01*
X60527693Y55099724D02*
X60575312Y55075915D01*
X60575312Y55075915D02*
X60599122Y55052105D01*
X60599122Y55052105D02*
X60622931Y55004486D01*
X60622931Y55004486D02*
X60622931Y54861629D01*
X60622931Y54861629D02*
X60599122Y54814010D01*
X60599122Y54814010D02*
X60575312Y54790200D01*
X60575312Y54790200D02*
X60527693Y54766391D01*
X60527693Y54766391D02*
X60456265Y54766391D01*
X60837217Y55099724D02*
X60837217Y54766391D01*
X60837217Y55052105D02*
X60861027Y55075915D01*
X60861027Y55075915D02*
X60908646Y55099724D01*
X60908646Y55099724D02*
X60980074Y55099724D01*
X60980074Y55099724D02*
X61027693Y55075915D01*
X61027693Y55075915D02*
X61051503Y55028296D01*
X61051503Y55028296D02*
X61051503Y54766391D01*
X61289598Y55099724D02*
X61289598Y54766391D01*
X61289598Y55052105D02*
X61313408Y55075915D01*
X61313408Y55075915D02*
X61361027Y55099724D01*
X61361027Y55099724D02*
X61432455Y55099724D01*
X61432455Y55099724D02*
X61480074Y55075915D01*
X61480074Y55075915D02*
X61503884Y55028296D01*
X61503884Y55028296D02*
X61503884Y54766391D01*
X61932455Y54790200D02*
X61884836Y54766391D01*
X61884836Y54766391D02*
X61789598Y54766391D01*
X61789598Y54766391D02*
X61741979Y54790200D01*
X61741979Y54790200D02*
X61718170Y54837820D01*
X61718170Y54837820D02*
X61718170Y55028296D01*
X61718170Y55028296D02*
X61741979Y55075915D01*
X61741979Y55075915D02*
X61789598Y55099724D01*
X61789598Y55099724D02*
X61884836Y55099724D01*
X61884836Y55099724D02*
X61932455Y55075915D01*
X61932455Y55075915D02*
X61956265Y55028296D01*
X61956265Y55028296D02*
X61956265Y54980677D01*
X61956265Y54980677D02*
X61718170Y54933058D01*
X62384836Y54790200D02*
X62337217Y54766391D01*
X62337217Y54766391D02*
X62241979Y54766391D01*
X62241979Y54766391D02*
X62194360Y54790200D01*
X62194360Y54790200D02*
X62170550Y54814010D01*
X62170550Y54814010D02*
X62146741Y54861629D01*
X62146741Y54861629D02*
X62146741Y55004486D01*
X62146741Y55004486D02*
X62170550Y55052105D01*
X62170550Y55052105D02*
X62194360Y55075915D01*
X62194360Y55075915D02*
X62241979Y55099724D01*
X62241979Y55099724D02*
X62337217Y55099724D01*
X62337217Y55099724D02*
X62384836Y55075915D01*
X62527693Y55099724D02*
X62718169Y55099724D01*
X62599121Y55266391D02*
X62599121Y54837820D01*
X62599121Y54837820D02*
X62622931Y54790200D01*
X62622931Y54790200D02*
X62670550Y54766391D01*
X62670550Y54766391D02*
X62718169Y54766391D01*
X63265787Y54766391D02*
X63265787Y55266391D01*
X63265787Y55266391D02*
X63551501Y54766391D01*
X63551501Y54766391D02*
X63551501Y55266391D01*
X63980073Y54790200D02*
X63932454Y54766391D01*
X63932454Y54766391D02*
X63837216Y54766391D01*
X63837216Y54766391D02*
X63789597Y54790200D01*
X63789597Y54790200D02*
X63765788Y54837820D01*
X63765788Y54837820D02*
X63765788Y55028296D01*
X63765788Y55028296D02*
X63789597Y55075915D01*
X63789597Y55075915D02*
X63837216Y55099724D01*
X63837216Y55099724D02*
X63932454Y55099724D01*
X63932454Y55099724D02*
X63980073Y55075915D01*
X63980073Y55075915D02*
X64003883Y55028296D01*
X64003883Y55028296D02*
X64003883Y54980677D01*
X64003883Y54980677D02*
X63765788Y54933058D01*
X64170549Y54766391D02*
X64432454Y55099724D01*
X64170549Y55099724D02*
X64432454Y54766391D01*
X64551502Y55099724D02*
X64741978Y55099724D01*
X64622930Y55266391D02*
X64622930Y54837820D01*
X64622930Y54837820D02*
X64646740Y54790200D01*
X64646740Y54790200D02*
X64694359Y54766391D01*
X64694359Y54766391D02*
X64741978Y54766391D01*
D11*
X56222493Y76945181D02*
X56222493Y76230896D01*
X56222493Y76230896D02*
X56174874Y76088039D01*
X56174874Y76088039D02*
X56079636Y75992800D01*
X56079636Y75992800D02*
X55936779Y75945181D01*
X55936779Y75945181D02*
X55841541Y75945181D01*
X57222493Y75945181D02*
X56651065Y75945181D01*
X56936779Y75945181D02*
X56936779Y76945181D01*
X56936779Y76945181D02*
X56841541Y76802324D01*
X56841541Y76802324D02*
X56746303Y76707086D01*
X56746303Y76707086D02*
X56651065Y76659467D01*
X57841541Y76945181D02*
X57936779Y76945181D01*
X57936779Y76945181D02*
X58032017Y76897562D01*
X58032017Y76897562D02*
X58079636Y76849943D01*
X58079636Y76849943D02*
X58127255Y76754705D01*
X58127255Y76754705D02*
X58174874Y76564229D01*
X58174874Y76564229D02*
X58174874Y76326134D01*
X58174874Y76326134D02*
X58127255Y76135658D01*
X58127255Y76135658D02*
X58079636Y76040420D01*
X58079636Y76040420D02*
X58032017Y75992800D01*
X58032017Y75992800D02*
X57936779Y75945181D01*
X57936779Y75945181D02*
X57841541Y75945181D01*
X57841541Y75945181D02*
X57746303Y75992800D01*
X57746303Y75992800D02*
X57698684Y76040420D01*
X57698684Y76040420D02*
X57651065Y76135658D01*
X57651065Y76135658D02*
X57603446Y76326134D01*
X57603446Y76326134D02*
X57603446Y76564229D01*
X57603446Y76564229D02*
X57651065Y76754705D01*
X57651065Y76754705D02*
X57698684Y76849943D01*
X57698684Y76849943D02*
X57746303Y76897562D01*
X57746303Y76897562D02*
X57841541Y76945181D01*
D12*
X60170550Y74014010D02*
X60146741Y73990200D01*
X60146741Y73990200D02*
X60075312Y73966391D01*
X60075312Y73966391D02*
X60027693Y73966391D01*
X60027693Y73966391D02*
X59956265Y73990200D01*
X59956265Y73990200D02*
X59908646Y74037820D01*
X59908646Y74037820D02*
X59884836Y74085439D01*
X59884836Y74085439D02*
X59861027Y74180677D01*
X59861027Y74180677D02*
X59861027Y74252105D01*
X59861027Y74252105D02*
X59884836Y74347343D01*
X59884836Y74347343D02*
X59908646Y74394962D01*
X59908646Y74394962D02*
X59956265Y74442581D01*
X59956265Y74442581D02*
X60027693Y74466391D01*
X60027693Y74466391D02*
X60075312Y74466391D01*
X60075312Y74466391D02*
X60146741Y74442581D01*
X60146741Y74442581D02*
X60170550Y74418772D01*
X60456265Y73966391D02*
X60408646Y73990200D01*
X60408646Y73990200D02*
X60384836Y74014010D01*
X60384836Y74014010D02*
X60361027Y74061629D01*
X60361027Y74061629D02*
X60361027Y74204486D01*
X60361027Y74204486D02*
X60384836Y74252105D01*
X60384836Y74252105D02*
X60408646Y74275915D01*
X60408646Y74275915D02*
X60456265Y74299724D01*
X60456265Y74299724D02*
X60527693Y74299724D01*
X60527693Y74299724D02*
X60575312Y74275915D01*
X60575312Y74275915D02*
X60599122Y74252105D01*
X60599122Y74252105D02*
X60622931Y74204486D01*
X60622931Y74204486D02*
X60622931Y74061629D01*
X60622931Y74061629D02*
X60599122Y74014010D01*
X60599122Y74014010D02*
X60575312Y73990200D01*
X60575312Y73990200D02*
X60527693Y73966391D01*
X60527693Y73966391D02*
X60456265Y73966391D01*
X60837217Y74299724D02*
X60837217Y73966391D01*
X60837217Y74252105D02*
X60861027Y74275915D01*
X60861027Y74275915D02*
X60908646Y74299724D01*
X60908646Y74299724D02*
X60980074Y74299724D01*
X60980074Y74299724D02*
X61027693Y74275915D01*
X61027693Y74275915D02*
X61051503Y74228296D01*
X61051503Y74228296D02*
X61051503Y73966391D01*
X61289598Y74299724D02*
X61289598Y73966391D01*
X61289598Y74252105D02*
X61313408Y74275915D01*
X61313408Y74275915D02*
X61361027Y74299724D01*
X61361027Y74299724D02*
X61432455Y74299724D01*
X61432455Y74299724D02*
X61480074Y74275915D01*
X61480074Y74275915D02*
X61503884Y74228296D01*
X61503884Y74228296D02*
X61503884Y73966391D01*
X61932455Y73990200D02*
X61884836Y73966391D01*
X61884836Y73966391D02*
X61789598Y73966391D01*
X61789598Y73966391D02*
X61741979Y73990200D01*
X61741979Y73990200D02*
X61718170Y74037820D01*
X61718170Y74037820D02*
X61718170Y74228296D01*
X61718170Y74228296D02*
X61741979Y74275915D01*
X61741979Y74275915D02*
X61789598Y74299724D01*
X61789598Y74299724D02*
X61884836Y74299724D01*
X61884836Y74299724D02*
X61932455Y74275915D01*
X61932455Y74275915D02*
X61956265Y74228296D01*
X61956265Y74228296D02*
X61956265Y74180677D01*
X61956265Y74180677D02*
X61718170Y74133058D01*
X62384836Y73990200D02*
X62337217Y73966391D01*
X62337217Y73966391D02*
X62241979Y73966391D01*
X62241979Y73966391D02*
X62194360Y73990200D01*
X62194360Y73990200D02*
X62170550Y74014010D01*
X62170550Y74014010D02*
X62146741Y74061629D01*
X62146741Y74061629D02*
X62146741Y74204486D01*
X62146741Y74204486D02*
X62170550Y74252105D01*
X62170550Y74252105D02*
X62194360Y74275915D01*
X62194360Y74275915D02*
X62241979Y74299724D01*
X62241979Y74299724D02*
X62337217Y74299724D01*
X62337217Y74299724D02*
X62384836Y74275915D01*
X62527693Y74299724D02*
X62718169Y74299724D01*
X62599121Y74466391D02*
X62599121Y74037820D01*
X62599121Y74037820D02*
X62622931Y73990200D01*
X62622931Y73990200D02*
X62670550Y73966391D01*
X62670550Y73966391D02*
X62718169Y73966391D01*
X63265787Y73966391D02*
X63265787Y74466391D01*
X63265787Y74466391D02*
X63551501Y73966391D01*
X63551501Y73966391D02*
X63551501Y74466391D01*
X63980073Y73990200D02*
X63932454Y73966391D01*
X63932454Y73966391D02*
X63837216Y73966391D01*
X63837216Y73966391D02*
X63789597Y73990200D01*
X63789597Y73990200D02*
X63765788Y74037820D01*
X63765788Y74037820D02*
X63765788Y74228296D01*
X63765788Y74228296D02*
X63789597Y74275915D01*
X63789597Y74275915D02*
X63837216Y74299724D01*
X63837216Y74299724D02*
X63932454Y74299724D01*
X63932454Y74299724D02*
X63980073Y74275915D01*
X63980073Y74275915D02*
X64003883Y74228296D01*
X64003883Y74228296D02*
X64003883Y74180677D01*
X64003883Y74180677D02*
X63765788Y74133058D01*
X64170549Y73966391D02*
X64432454Y74299724D01*
X64170549Y74299724D02*
X64432454Y73966391D01*
X64551502Y74299724D02*
X64741978Y74299724D01*
X64622930Y74466391D02*
X64622930Y74037820D01*
X64622930Y74037820D02*
X64646740Y73990200D01*
X64646740Y73990200D02*
X64694359Y73966391D01*
X64694359Y73966391D02*
X64741978Y73966391D01*
D11*
X56222493Y52745181D02*
X56222493Y52030896D01*
X56222493Y52030896D02*
X56174874Y51888039D01*
X56174874Y51888039D02*
X56079636Y51792800D01*
X56079636Y51792800D02*
X55936779Y51745181D01*
X55936779Y51745181D02*
X55841541Y51745181D01*
X57222493Y51745181D02*
X56651065Y51745181D01*
X56936779Y51745181D02*
X56936779Y52745181D01*
X56936779Y52745181D02*
X56841541Y52602324D01*
X56841541Y52602324D02*
X56746303Y52507086D01*
X56746303Y52507086D02*
X56651065Y52459467D01*
X58079636Y52745181D02*
X57889160Y52745181D01*
X57889160Y52745181D02*
X57793922Y52697562D01*
X57793922Y52697562D02*
X57746303Y52649943D01*
X57746303Y52649943D02*
X57651065Y52507086D01*
X57651065Y52507086D02*
X57603446Y52316610D01*
X57603446Y52316610D02*
X57603446Y51935658D01*
X57603446Y51935658D02*
X57651065Y51840420D01*
X57651065Y51840420D02*
X57698684Y51792800D01*
X57698684Y51792800D02*
X57793922Y51745181D01*
X57793922Y51745181D02*
X57984398Y51745181D01*
X57984398Y51745181D02*
X58079636Y51792800D01*
X58079636Y51792800D02*
X58127255Y51840420D01*
X58127255Y51840420D02*
X58174874Y51935658D01*
X58174874Y51935658D02*
X58174874Y52173753D01*
X58174874Y52173753D02*
X58127255Y52268991D01*
X58127255Y52268991D02*
X58079636Y52316610D01*
X58079636Y52316610D02*
X57984398Y52364229D01*
X57984398Y52364229D02*
X57793922Y52364229D01*
X57793922Y52364229D02*
X57698684Y52316610D01*
X57698684Y52316610D02*
X57651065Y52268991D01*
X57651065Y52268991D02*
X57603446Y52173753D01*
D12*
X60170550Y49814010D02*
X60146741Y49790200D01*
X60146741Y49790200D02*
X60075312Y49766391D01*
X60075312Y49766391D02*
X60027693Y49766391D01*
X60027693Y49766391D02*
X59956265Y49790200D01*
X59956265Y49790200D02*
X59908646Y49837820D01*
X59908646Y49837820D02*
X59884836Y49885439D01*
X59884836Y49885439D02*
X59861027Y49980677D01*
X59861027Y49980677D02*
X59861027Y50052105D01*
X59861027Y50052105D02*
X59884836Y50147343D01*
X59884836Y50147343D02*
X59908646Y50194962D01*
X59908646Y50194962D02*
X59956265Y50242581D01*
X59956265Y50242581D02*
X60027693Y50266391D01*
X60027693Y50266391D02*
X60075312Y50266391D01*
X60075312Y50266391D02*
X60146741Y50242581D01*
X60146741Y50242581D02*
X60170550Y50218772D01*
X60456265Y49766391D02*
X60408646Y49790200D01*
X60408646Y49790200D02*
X60384836Y49814010D01*
X60384836Y49814010D02*
X60361027Y49861629D01*
X60361027Y49861629D02*
X60361027Y50004486D01*
X60361027Y50004486D02*
X60384836Y50052105D01*
X60384836Y50052105D02*
X60408646Y50075915D01*
X60408646Y50075915D02*
X60456265Y50099724D01*
X60456265Y50099724D02*
X60527693Y50099724D01*
X60527693Y50099724D02*
X60575312Y50075915D01*
X60575312Y50075915D02*
X60599122Y50052105D01*
X60599122Y50052105D02*
X60622931Y50004486D01*
X60622931Y50004486D02*
X60622931Y49861629D01*
X60622931Y49861629D02*
X60599122Y49814010D01*
X60599122Y49814010D02*
X60575312Y49790200D01*
X60575312Y49790200D02*
X60527693Y49766391D01*
X60527693Y49766391D02*
X60456265Y49766391D01*
X60837217Y50099724D02*
X60837217Y49766391D01*
X60837217Y50052105D02*
X60861027Y50075915D01*
X60861027Y50075915D02*
X60908646Y50099724D01*
X60908646Y50099724D02*
X60980074Y50099724D01*
X60980074Y50099724D02*
X61027693Y50075915D01*
X61027693Y50075915D02*
X61051503Y50028296D01*
X61051503Y50028296D02*
X61051503Y49766391D01*
X61289598Y50099724D02*
X61289598Y49766391D01*
X61289598Y50052105D02*
X61313408Y50075915D01*
X61313408Y50075915D02*
X61361027Y50099724D01*
X61361027Y50099724D02*
X61432455Y50099724D01*
X61432455Y50099724D02*
X61480074Y50075915D01*
X61480074Y50075915D02*
X61503884Y50028296D01*
X61503884Y50028296D02*
X61503884Y49766391D01*
X61932455Y49790200D02*
X61884836Y49766391D01*
X61884836Y49766391D02*
X61789598Y49766391D01*
X61789598Y49766391D02*
X61741979Y49790200D01*
X61741979Y49790200D02*
X61718170Y49837820D01*
X61718170Y49837820D02*
X61718170Y50028296D01*
X61718170Y50028296D02*
X61741979Y50075915D01*
X61741979Y50075915D02*
X61789598Y50099724D01*
X61789598Y50099724D02*
X61884836Y50099724D01*
X61884836Y50099724D02*
X61932455Y50075915D01*
X61932455Y50075915D02*
X61956265Y50028296D01*
X61956265Y50028296D02*
X61956265Y49980677D01*
X61956265Y49980677D02*
X61718170Y49933058D01*
X62384836Y49790200D02*
X62337217Y49766391D01*
X62337217Y49766391D02*
X62241979Y49766391D01*
X62241979Y49766391D02*
X62194360Y49790200D01*
X62194360Y49790200D02*
X62170550Y49814010D01*
X62170550Y49814010D02*
X62146741Y49861629D01*
X62146741Y49861629D02*
X62146741Y50004486D01*
X62146741Y50004486D02*
X62170550Y50052105D01*
X62170550Y50052105D02*
X62194360Y50075915D01*
X62194360Y50075915D02*
X62241979Y50099724D01*
X62241979Y50099724D02*
X62337217Y50099724D01*
X62337217Y50099724D02*
X62384836Y50075915D01*
X62527693Y50099724D02*
X62718169Y50099724D01*
X62599121Y50266391D02*
X62599121Y49837820D01*
X62599121Y49837820D02*
X62622931Y49790200D01*
X62622931Y49790200D02*
X62670550Y49766391D01*
X62670550Y49766391D02*
X62718169Y49766391D01*
X63265787Y49766391D02*
X63265787Y50266391D01*
X63265787Y50266391D02*
X63551501Y49766391D01*
X63551501Y49766391D02*
X63551501Y50266391D01*
X63980073Y49790200D02*
X63932454Y49766391D01*
X63932454Y49766391D02*
X63837216Y49766391D01*
X63837216Y49766391D02*
X63789597Y49790200D01*
X63789597Y49790200D02*
X63765788Y49837820D01*
X63765788Y49837820D02*
X63765788Y50028296D01*
X63765788Y50028296D02*
X63789597Y50075915D01*
X63789597Y50075915D02*
X63837216Y50099724D01*
X63837216Y50099724D02*
X63932454Y50099724D01*
X63932454Y50099724D02*
X63980073Y50075915D01*
X63980073Y50075915D02*
X64003883Y50028296D01*
X64003883Y50028296D02*
X64003883Y49980677D01*
X64003883Y49980677D02*
X63765788Y49933058D01*
X64170549Y49766391D02*
X64432454Y50099724D01*
X64170549Y50099724D02*
X64432454Y49766391D01*
X64551502Y50099724D02*
X64741978Y50099724D01*
X64622930Y50266391D02*
X64622930Y49837820D01*
X64622930Y49837820D02*
X64646740Y49790200D01*
X64646740Y49790200D02*
X64694359Y49766391D01*
X64694359Y49766391D02*
X64741978Y49766391D01*
D11*
X59522493Y28045181D02*
X59522493Y27330896D01*
X59522493Y27330896D02*
X59474874Y27188039D01*
X59474874Y27188039D02*
X59379636Y27092800D01*
X59379636Y27092800D02*
X59236779Y27045181D01*
X59236779Y27045181D02*
X59141541Y27045181D01*
X60046303Y27045181D02*
X60236779Y27045181D01*
X60236779Y27045181D02*
X60332017Y27092800D01*
X60332017Y27092800D02*
X60379636Y27140420D01*
X60379636Y27140420D02*
X60474874Y27283277D01*
X60474874Y27283277D02*
X60522493Y27473753D01*
X60522493Y27473753D02*
X60522493Y27854705D01*
X60522493Y27854705D02*
X60474874Y27949943D01*
X60474874Y27949943D02*
X60427255Y27997562D01*
X60427255Y27997562D02*
X60332017Y28045181D01*
X60332017Y28045181D02*
X60141541Y28045181D01*
X60141541Y28045181D02*
X60046303Y27997562D01*
X60046303Y27997562D02*
X59998684Y27949943D01*
X59998684Y27949943D02*
X59951065Y27854705D01*
X59951065Y27854705D02*
X59951065Y27616610D01*
X59951065Y27616610D02*
X59998684Y27521372D01*
X59998684Y27521372D02*
X60046303Y27473753D01*
X60046303Y27473753D02*
X60141541Y27426134D01*
X60141541Y27426134D02*
X60332017Y27426134D01*
X60332017Y27426134D02*
X60427255Y27473753D01*
X60427255Y27473753D02*
X60474874Y27521372D01*
X60474874Y27521372D02*
X60522493Y27616610D01*
D12*
X60170550Y25614010D02*
X60146741Y25590200D01*
X60146741Y25590200D02*
X60075312Y25566391D01*
X60075312Y25566391D02*
X60027693Y25566391D01*
X60027693Y25566391D02*
X59956265Y25590200D01*
X59956265Y25590200D02*
X59908646Y25637820D01*
X59908646Y25637820D02*
X59884836Y25685439D01*
X59884836Y25685439D02*
X59861027Y25780677D01*
X59861027Y25780677D02*
X59861027Y25852105D01*
X59861027Y25852105D02*
X59884836Y25947343D01*
X59884836Y25947343D02*
X59908646Y25994962D01*
X59908646Y25994962D02*
X59956265Y26042581D01*
X59956265Y26042581D02*
X60027693Y26066391D01*
X60027693Y26066391D02*
X60075312Y26066391D01*
X60075312Y26066391D02*
X60146741Y26042581D01*
X60146741Y26042581D02*
X60170550Y26018772D01*
X60456265Y25566391D02*
X60408646Y25590200D01*
X60408646Y25590200D02*
X60384836Y25614010D01*
X60384836Y25614010D02*
X60361027Y25661629D01*
X60361027Y25661629D02*
X60361027Y25804486D01*
X60361027Y25804486D02*
X60384836Y25852105D01*
X60384836Y25852105D02*
X60408646Y25875915D01*
X60408646Y25875915D02*
X60456265Y25899724D01*
X60456265Y25899724D02*
X60527693Y25899724D01*
X60527693Y25899724D02*
X60575312Y25875915D01*
X60575312Y25875915D02*
X60599122Y25852105D01*
X60599122Y25852105D02*
X60622931Y25804486D01*
X60622931Y25804486D02*
X60622931Y25661629D01*
X60622931Y25661629D02*
X60599122Y25614010D01*
X60599122Y25614010D02*
X60575312Y25590200D01*
X60575312Y25590200D02*
X60527693Y25566391D01*
X60527693Y25566391D02*
X60456265Y25566391D01*
X60837217Y25899724D02*
X60837217Y25566391D01*
X60837217Y25852105D02*
X60861027Y25875915D01*
X60861027Y25875915D02*
X60908646Y25899724D01*
X60908646Y25899724D02*
X60980074Y25899724D01*
X60980074Y25899724D02*
X61027693Y25875915D01*
X61027693Y25875915D02*
X61051503Y25828296D01*
X61051503Y25828296D02*
X61051503Y25566391D01*
X61289598Y25899724D02*
X61289598Y25566391D01*
X61289598Y25852105D02*
X61313408Y25875915D01*
X61313408Y25875915D02*
X61361027Y25899724D01*
X61361027Y25899724D02*
X61432455Y25899724D01*
X61432455Y25899724D02*
X61480074Y25875915D01*
X61480074Y25875915D02*
X61503884Y25828296D01*
X61503884Y25828296D02*
X61503884Y25566391D01*
X61932455Y25590200D02*
X61884836Y25566391D01*
X61884836Y25566391D02*
X61789598Y25566391D01*
X61789598Y25566391D02*
X61741979Y25590200D01*
X61741979Y25590200D02*
X61718170Y25637820D01*
X61718170Y25637820D02*
X61718170Y25828296D01*
X61718170Y25828296D02*
X61741979Y25875915D01*
X61741979Y25875915D02*
X61789598Y25899724D01*
X61789598Y25899724D02*
X61884836Y25899724D01*
X61884836Y25899724D02*
X61932455Y25875915D01*
X61932455Y25875915D02*
X61956265Y25828296D01*
X61956265Y25828296D02*
X61956265Y25780677D01*
X61956265Y25780677D02*
X61718170Y25733058D01*
X62384836Y25590200D02*
X62337217Y25566391D01*
X62337217Y25566391D02*
X62241979Y25566391D01*
X62241979Y25566391D02*
X62194360Y25590200D01*
X62194360Y25590200D02*
X62170550Y25614010D01*
X62170550Y25614010D02*
X62146741Y25661629D01*
X62146741Y25661629D02*
X62146741Y25804486D01*
X62146741Y25804486D02*
X62170550Y25852105D01*
X62170550Y25852105D02*
X62194360Y25875915D01*
X62194360Y25875915D02*
X62241979Y25899724D01*
X62241979Y25899724D02*
X62337217Y25899724D01*
X62337217Y25899724D02*
X62384836Y25875915D01*
X62527693Y25899724D02*
X62718169Y25899724D01*
X62599121Y26066391D02*
X62599121Y25637820D01*
X62599121Y25637820D02*
X62622931Y25590200D01*
X62622931Y25590200D02*
X62670550Y25566391D01*
X62670550Y25566391D02*
X62718169Y25566391D01*
X63265787Y25566391D02*
X63265787Y26066391D01*
X63265787Y26066391D02*
X63551501Y25566391D01*
X63551501Y25566391D02*
X63551501Y26066391D01*
X63980073Y25590200D02*
X63932454Y25566391D01*
X63932454Y25566391D02*
X63837216Y25566391D01*
X63837216Y25566391D02*
X63789597Y25590200D01*
X63789597Y25590200D02*
X63765788Y25637820D01*
X63765788Y25637820D02*
X63765788Y25828296D01*
X63765788Y25828296D02*
X63789597Y25875915D01*
X63789597Y25875915D02*
X63837216Y25899724D01*
X63837216Y25899724D02*
X63932454Y25899724D01*
X63932454Y25899724D02*
X63980073Y25875915D01*
X63980073Y25875915D02*
X64003883Y25828296D01*
X64003883Y25828296D02*
X64003883Y25780677D01*
X64003883Y25780677D02*
X63765788Y25733058D01*
X64170549Y25566391D02*
X64432454Y25899724D01*
X64170549Y25899724D02*
X64432454Y25566391D01*
X64551502Y25899724D02*
X64741978Y25899724D01*
X64622930Y26066391D02*
X64622930Y25637820D01*
X64622930Y25637820D02*
X64646740Y25590200D01*
X64646740Y25590200D02*
X64694359Y25566391D01*
X64694359Y25566391D02*
X64741978Y25566391D01*
D11*
X59522493Y35045181D02*
X59522493Y34330896D01*
X59522493Y34330896D02*
X59474874Y34188039D01*
X59474874Y34188039D02*
X59379636Y34092800D01*
X59379636Y34092800D02*
X59236779Y34045181D01*
X59236779Y34045181D02*
X59141541Y34045181D01*
X59903446Y35045181D02*
X60570112Y35045181D01*
X60570112Y35045181D02*
X60141541Y34045181D01*
D12*
X60170550Y32614010D02*
X60146741Y32590200D01*
X60146741Y32590200D02*
X60075312Y32566391D01*
X60075312Y32566391D02*
X60027693Y32566391D01*
X60027693Y32566391D02*
X59956265Y32590200D01*
X59956265Y32590200D02*
X59908646Y32637820D01*
X59908646Y32637820D02*
X59884836Y32685439D01*
X59884836Y32685439D02*
X59861027Y32780677D01*
X59861027Y32780677D02*
X59861027Y32852105D01*
X59861027Y32852105D02*
X59884836Y32947343D01*
X59884836Y32947343D02*
X59908646Y32994962D01*
X59908646Y32994962D02*
X59956265Y33042581D01*
X59956265Y33042581D02*
X60027693Y33066391D01*
X60027693Y33066391D02*
X60075312Y33066391D01*
X60075312Y33066391D02*
X60146741Y33042581D01*
X60146741Y33042581D02*
X60170550Y33018772D01*
X60456265Y32566391D02*
X60408646Y32590200D01*
X60408646Y32590200D02*
X60384836Y32614010D01*
X60384836Y32614010D02*
X60361027Y32661629D01*
X60361027Y32661629D02*
X60361027Y32804486D01*
X60361027Y32804486D02*
X60384836Y32852105D01*
X60384836Y32852105D02*
X60408646Y32875915D01*
X60408646Y32875915D02*
X60456265Y32899724D01*
X60456265Y32899724D02*
X60527693Y32899724D01*
X60527693Y32899724D02*
X60575312Y32875915D01*
X60575312Y32875915D02*
X60599122Y32852105D01*
X60599122Y32852105D02*
X60622931Y32804486D01*
X60622931Y32804486D02*
X60622931Y32661629D01*
X60622931Y32661629D02*
X60599122Y32614010D01*
X60599122Y32614010D02*
X60575312Y32590200D01*
X60575312Y32590200D02*
X60527693Y32566391D01*
X60527693Y32566391D02*
X60456265Y32566391D01*
X60837217Y32899724D02*
X60837217Y32566391D01*
X60837217Y32852105D02*
X60861027Y32875915D01*
X60861027Y32875915D02*
X60908646Y32899724D01*
X60908646Y32899724D02*
X60980074Y32899724D01*
X60980074Y32899724D02*
X61027693Y32875915D01*
X61027693Y32875915D02*
X61051503Y32828296D01*
X61051503Y32828296D02*
X61051503Y32566391D01*
X61289598Y32899724D02*
X61289598Y32566391D01*
X61289598Y32852105D02*
X61313408Y32875915D01*
X61313408Y32875915D02*
X61361027Y32899724D01*
X61361027Y32899724D02*
X61432455Y32899724D01*
X61432455Y32899724D02*
X61480074Y32875915D01*
X61480074Y32875915D02*
X61503884Y32828296D01*
X61503884Y32828296D02*
X61503884Y32566391D01*
X61932455Y32590200D02*
X61884836Y32566391D01*
X61884836Y32566391D02*
X61789598Y32566391D01*
X61789598Y32566391D02*
X61741979Y32590200D01*
X61741979Y32590200D02*
X61718170Y32637820D01*
X61718170Y32637820D02*
X61718170Y32828296D01*
X61718170Y32828296D02*
X61741979Y32875915D01*
X61741979Y32875915D02*
X61789598Y32899724D01*
X61789598Y32899724D02*
X61884836Y32899724D01*
X61884836Y32899724D02*
X61932455Y32875915D01*
X61932455Y32875915D02*
X61956265Y32828296D01*
X61956265Y32828296D02*
X61956265Y32780677D01*
X61956265Y32780677D02*
X61718170Y32733058D01*
X62384836Y32590200D02*
X62337217Y32566391D01*
X62337217Y32566391D02*
X62241979Y32566391D01*
X62241979Y32566391D02*
X62194360Y32590200D01*
X62194360Y32590200D02*
X62170550Y32614010D01*
X62170550Y32614010D02*
X62146741Y32661629D01*
X62146741Y32661629D02*
X62146741Y32804486D01*
X62146741Y32804486D02*
X62170550Y32852105D01*
X62170550Y32852105D02*
X62194360Y32875915D01*
X62194360Y32875915D02*
X62241979Y32899724D01*
X62241979Y32899724D02*
X62337217Y32899724D01*
X62337217Y32899724D02*
X62384836Y32875915D01*
X62527693Y32899724D02*
X62718169Y32899724D01*
X62599121Y33066391D02*
X62599121Y32637820D01*
X62599121Y32637820D02*
X62622931Y32590200D01*
X62622931Y32590200D02*
X62670550Y32566391D01*
X62670550Y32566391D02*
X62718169Y32566391D01*
X63265787Y32566391D02*
X63265787Y33066391D01*
X63265787Y33066391D02*
X63551501Y32566391D01*
X63551501Y32566391D02*
X63551501Y33066391D01*
X63980073Y32590200D02*
X63932454Y32566391D01*
X63932454Y32566391D02*
X63837216Y32566391D01*
X63837216Y32566391D02*
X63789597Y32590200D01*
X63789597Y32590200D02*
X63765788Y32637820D01*
X63765788Y32637820D02*
X63765788Y32828296D01*
X63765788Y32828296D02*
X63789597Y32875915D01*
X63789597Y32875915D02*
X63837216Y32899724D01*
X63837216Y32899724D02*
X63932454Y32899724D01*
X63932454Y32899724D02*
X63980073Y32875915D01*
X63980073Y32875915D02*
X64003883Y32828296D01*
X64003883Y32828296D02*
X64003883Y32780677D01*
X64003883Y32780677D02*
X63765788Y32733058D01*
X64170549Y32566391D02*
X64432454Y32899724D01*
X64170549Y32899724D02*
X64432454Y32566391D01*
X64551502Y32899724D02*
X64741978Y32899724D01*
X64622930Y33066391D02*
X64622930Y32637820D01*
X64622930Y32637820D02*
X64646740Y32590200D01*
X64646740Y32590200D02*
X64694359Y32566391D01*
X64694359Y32566391D02*
X64741978Y32566391D01*
D11*
X59522493Y14045181D02*
X59522493Y13330896D01*
X59522493Y13330896D02*
X59474874Y13188039D01*
X59474874Y13188039D02*
X59379636Y13092800D01*
X59379636Y13092800D02*
X59236779Y13045181D01*
X59236779Y13045181D02*
X59141541Y13045181D01*
X60474874Y14045181D02*
X59998684Y14045181D01*
X59998684Y14045181D02*
X59951065Y13568991D01*
X59951065Y13568991D02*
X59998684Y13616610D01*
X59998684Y13616610D02*
X60093922Y13664229D01*
X60093922Y13664229D02*
X60332017Y13664229D01*
X60332017Y13664229D02*
X60427255Y13616610D01*
X60427255Y13616610D02*
X60474874Y13568991D01*
X60474874Y13568991D02*
X60522493Y13473753D01*
X60522493Y13473753D02*
X60522493Y13235658D01*
X60522493Y13235658D02*
X60474874Y13140420D01*
X60474874Y13140420D02*
X60427255Y13092800D01*
X60427255Y13092800D02*
X60332017Y13045181D01*
X60332017Y13045181D02*
X60093922Y13045181D01*
X60093922Y13045181D02*
X59998684Y13092800D01*
X59998684Y13092800D02*
X59951065Y13140420D01*
D12*
X60170550Y11614010D02*
X60146741Y11590200D01*
X60146741Y11590200D02*
X60075312Y11566391D01*
X60075312Y11566391D02*
X60027693Y11566391D01*
X60027693Y11566391D02*
X59956265Y11590200D01*
X59956265Y11590200D02*
X59908646Y11637820D01*
X59908646Y11637820D02*
X59884836Y11685439D01*
X59884836Y11685439D02*
X59861027Y11780677D01*
X59861027Y11780677D02*
X59861027Y11852105D01*
X59861027Y11852105D02*
X59884836Y11947343D01*
X59884836Y11947343D02*
X59908646Y11994962D01*
X59908646Y11994962D02*
X59956265Y12042581D01*
X59956265Y12042581D02*
X60027693Y12066391D01*
X60027693Y12066391D02*
X60075312Y12066391D01*
X60075312Y12066391D02*
X60146741Y12042581D01*
X60146741Y12042581D02*
X60170550Y12018772D01*
X60456265Y11566391D02*
X60408646Y11590200D01*
X60408646Y11590200D02*
X60384836Y11614010D01*
X60384836Y11614010D02*
X60361027Y11661629D01*
X60361027Y11661629D02*
X60361027Y11804486D01*
X60361027Y11804486D02*
X60384836Y11852105D01*
X60384836Y11852105D02*
X60408646Y11875915D01*
X60408646Y11875915D02*
X60456265Y11899724D01*
X60456265Y11899724D02*
X60527693Y11899724D01*
X60527693Y11899724D02*
X60575312Y11875915D01*
X60575312Y11875915D02*
X60599122Y11852105D01*
X60599122Y11852105D02*
X60622931Y11804486D01*
X60622931Y11804486D02*
X60622931Y11661629D01*
X60622931Y11661629D02*
X60599122Y11614010D01*
X60599122Y11614010D02*
X60575312Y11590200D01*
X60575312Y11590200D02*
X60527693Y11566391D01*
X60527693Y11566391D02*
X60456265Y11566391D01*
X60837217Y11899724D02*
X60837217Y11566391D01*
X60837217Y11852105D02*
X60861027Y11875915D01*
X60861027Y11875915D02*
X60908646Y11899724D01*
X60908646Y11899724D02*
X60980074Y11899724D01*
X60980074Y11899724D02*
X61027693Y11875915D01*
X61027693Y11875915D02*
X61051503Y11828296D01*
X61051503Y11828296D02*
X61051503Y11566391D01*
X61289598Y11899724D02*
X61289598Y11566391D01*
X61289598Y11852105D02*
X61313408Y11875915D01*
X61313408Y11875915D02*
X61361027Y11899724D01*
X61361027Y11899724D02*
X61432455Y11899724D01*
X61432455Y11899724D02*
X61480074Y11875915D01*
X61480074Y11875915D02*
X61503884Y11828296D01*
X61503884Y11828296D02*
X61503884Y11566391D01*
X61932455Y11590200D02*
X61884836Y11566391D01*
X61884836Y11566391D02*
X61789598Y11566391D01*
X61789598Y11566391D02*
X61741979Y11590200D01*
X61741979Y11590200D02*
X61718170Y11637820D01*
X61718170Y11637820D02*
X61718170Y11828296D01*
X61718170Y11828296D02*
X61741979Y11875915D01*
X61741979Y11875915D02*
X61789598Y11899724D01*
X61789598Y11899724D02*
X61884836Y11899724D01*
X61884836Y11899724D02*
X61932455Y11875915D01*
X61932455Y11875915D02*
X61956265Y11828296D01*
X61956265Y11828296D02*
X61956265Y11780677D01*
X61956265Y11780677D02*
X61718170Y11733058D01*
X62384836Y11590200D02*
X62337217Y11566391D01*
X62337217Y11566391D02*
X62241979Y11566391D01*
X62241979Y11566391D02*
X62194360Y11590200D01*
X62194360Y11590200D02*
X62170550Y11614010D01*
X62170550Y11614010D02*
X62146741Y11661629D01*
X62146741Y11661629D02*
X62146741Y11804486D01*
X62146741Y11804486D02*
X62170550Y11852105D01*
X62170550Y11852105D02*
X62194360Y11875915D01*
X62194360Y11875915D02*
X62241979Y11899724D01*
X62241979Y11899724D02*
X62337217Y11899724D01*
X62337217Y11899724D02*
X62384836Y11875915D01*
X62527693Y11899724D02*
X62718169Y11899724D01*
X62599121Y12066391D02*
X62599121Y11637820D01*
X62599121Y11637820D02*
X62622931Y11590200D01*
X62622931Y11590200D02*
X62670550Y11566391D01*
X62670550Y11566391D02*
X62718169Y11566391D01*
X63265787Y11566391D02*
X63265787Y12066391D01*
X63265787Y12066391D02*
X63551501Y11566391D01*
X63551501Y11566391D02*
X63551501Y12066391D01*
X63980073Y11590200D02*
X63932454Y11566391D01*
X63932454Y11566391D02*
X63837216Y11566391D01*
X63837216Y11566391D02*
X63789597Y11590200D01*
X63789597Y11590200D02*
X63765788Y11637820D01*
X63765788Y11637820D02*
X63765788Y11828296D01*
X63765788Y11828296D02*
X63789597Y11875915D01*
X63789597Y11875915D02*
X63837216Y11899724D01*
X63837216Y11899724D02*
X63932454Y11899724D01*
X63932454Y11899724D02*
X63980073Y11875915D01*
X63980073Y11875915D02*
X64003883Y11828296D01*
X64003883Y11828296D02*
X64003883Y11780677D01*
X64003883Y11780677D02*
X63765788Y11733058D01*
X64170549Y11566391D02*
X64432454Y11899724D01*
X64170549Y11899724D02*
X64432454Y11566391D01*
X64551502Y11899724D02*
X64741978Y11899724D01*
X64622930Y12066391D02*
X64622930Y11637820D01*
X64622930Y11637820D02*
X64646740Y11590200D01*
X64646740Y11590200D02*
X64694359Y11566391D01*
X64694359Y11566391D02*
X64741978Y11566391D01*
X35209800Y85716668D02*
X35257419Y85859525D01*
X35257419Y85859525D02*
X35257419Y86097620D01*
X35257419Y86097620D02*
X35209800Y86192858D01*
X35209800Y86192858D02*
X35162180Y86240477D01*
X35162180Y86240477D02*
X35066942Y86288096D01*
X35066942Y86288096D02*
X34971704Y86288096D01*
X34971704Y86288096D02*
X34876466Y86240477D01*
X34876466Y86240477D02*
X34828847Y86192858D01*
X34828847Y86192858D02*
X34781228Y86097620D01*
X34781228Y86097620D02*
X34733609Y85907144D01*
X34733609Y85907144D02*
X34685990Y85811906D01*
X34685990Y85811906D02*
X34638371Y85764287D01*
X34638371Y85764287D02*
X34543133Y85716668D01*
X34543133Y85716668D02*
X34447895Y85716668D01*
X34447895Y85716668D02*
X34352657Y85764287D01*
X34352657Y85764287D02*
X34305038Y85811906D01*
X34305038Y85811906D02*
X34257419Y85907144D01*
X34257419Y85907144D02*
X34257419Y86145239D01*
X34257419Y86145239D02*
X34305038Y86288096D01*
X34257419Y86621430D02*
X35257419Y86859525D01*
X35257419Y86859525D02*
X34543133Y87050001D01*
X34543133Y87050001D02*
X35257419Y87240477D01*
X35257419Y87240477D02*
X34257419Y87478572D01*
X35257419Y88383334D02*
X35257419Y87811906D01*
X35257419Y88097620D02*
X34257419Y88097620D01*
X34257419Y88097620D02*
X34400276Y88002382D01*
X34400276Y88002382D02*
X34495514Y87907144D01*
X34495514Y87907144D02*
X34543133Y87811906D01*
%TO.C,J11*%
X62500000Y71200000D02*
X61900000Y70600000D01*
X62500000Y71200000D02*
X62500000Y69800000D01*
X62500000Y71200000D02*
X63100000Y70600000D01*
X55600000Y72200000D02*
X69800000Y72200000D01*
X69800000Y72200000D02*
X69800000Y67400000D01*
X69800000Y67400000D02*
X55600000Y67400000D01*
X55600000Y67400000D02*
X55600000Y72200000D01*
X69800000Y70350000D02*
X68800000Y70350000D01*
X68800000Y70350000D02*
X68800000Y68850000D01*
X68800000Y68850000D02*
X69800000Y68850000D01*
X69800000Y68850000D02*
X69800000Y70350000D01*
%TO.C,J17*%
X62500000Y47000000D02*
X61900000Y46400000D01*
X62500000Y47000000D02*
X62500000Y45600000D01*
X62500000Y47000000D02*
X63100000Y46400000D01*
X55600000Y48000000D02*
X69800000Y48000000D01*
X69800000Y48000000D02*
X69800000Y43200000D01*
X69800000Y43200000D02*
X55600000Y43200000D01*
X55600000Y43200000D02*
X55600000Y48000000D01*
X69800000Y46150000D02*
X68800000Y46150000D01*
X68800000Y46150000D02*
X68800000Y44650000D01*
X68800000Y44650000D02*
X69800000Y44650000D01*
X69800000Y44650000D02*
X69800000Y46150000D01*
D13*
%TO.C,D2*%
X48200000Y6267231D02*
X53200000Y6267231D01*
X48200000Y6067231D02*
X48200000Y6267231D01*
X48200000Y2767231D02*
X48200000Y4467231D01*
X48200000Y1267231D02*
X48200000Y1067231D01*
X48200000Y1067231D02*
X53200000Y1067231D01*
X53200000Y6267231D02*
X53200000Y6067231D01*
X53200000Y4567231D02*
X53200000Y3567231D01*
X53200000Y3567231D02*
X50600000Y1067231D01*
X53200000Y3567231D02*
X53200000Y2767231D01*
X53200000Y1067231D02*
X53200000Y1267231D01*
D14*
X53608182Y707769D02*
G75*
G03*
X53608182Y707769I-100000J0D01*
G01*
D10*
%TO.C,A1*%
X13670000Y41070000D02*
X11000000Y41070000D01*
X23960000Y-2240000D02*
X16080000Y-2240000D01*
X29040000Y300000D02*
X29040000Y43740000D01*
X16080000Y-2240000D02*
X16080000Y8180000D01*
X23960000Y8180000D02*
X23960000Y-2240000D01*
X29040000Y300000D02*
X23960000Y300000D01*
X11000000Y38530000D02*
X11000000Y300000D01*
X13670000Y2970000D02*
X11000000Y2970000D01*
X26370000Y41070000D02*
X26370000Y2970000D01*
X13670000Y38530000D02*
X13670000Y41070000D01*
X26370000Y2970000D02*
X29040000Y2970000D01*
X26370000Y41070000D02*
X29040000Y41070000D01*
X13670000Y38530000D02*
X11000000Y38530000D01*
X29040000Y43740000D02*
X11000000Y43740000D01*
X11000000Y300000D02*
X16080000Y300000D01*
X11000000Y43740000D02*
X11000000Y41070000D01*
X16080000Y8180000D02*
X23960000Y8180000D01*
X13670000Y38530000D02*
X13670000Y2970000D01*
%TO.C,J1*%
X-6490000Y62069525D02*
X2140000Y62069525D01*
X-6490000Y62187620D02*
X2140000Y62187620D01*
X2140000Y56730000D02*
X2550000Y56730000D01*
X2140000Y46570000D02*
X2550000Y46570000D01*
X3600000Y62780000D02*
X4710000Y62780000D01*
X-6490000Y50020000D02*
X2140000Y50020000D01*
X-6490000Y60180000D02*
X2140000Y60180000D01*
X-6490000Y47480000D02*
X2140000Y47480000D01*
X-6490000Y61360955D02*
X2140000Y61360955D01*
X-6490000Y37260000D02*
X2140000Y37260000D01*
X-6490000Y61006670D02*
X2140000Y61006670D01*
X2140000Y56010000D02*
X2550000Y56010000D01*
X-6490000Y57640000D02*
X2140000Y57640000D01*
X-6490000Y55100000D02*
X2140000Y55100000D01*
X-6490000Y60534290D02*
X2140000Y60534290D01*
X-6490000Y42400000D02*
X2140000Y42400000D01*
X2140000Y49110000D02*
X2550000Y49110000D01*
X2140000Y59270000D02*
X2550000Y59270000D01*
X-6490000Y39860000D02*
X2140000Y39860000D01*
X4710000Y62780000D02*
X4710000Y61450000D01*
X2140000Y62780000D02*
X2140000Y37260000D01*
X-6490000Y60770480D02*
X2140000Y60770480D01*
X-6490000Y62660000D02*
X2140000Y62660000D01*
X2140000Y48390000D02*
X2550000Y48390000D01*
X-6490000Y61833335D02*
X2140000Y61833335D01*
X2140000Y38230000D02*
X2550000Y38230000D01*
X2140000Y40770000D02*
X2550000Y40770000D01*
X2140000Y43310000D02*
X2550000Y43310000D01*
X-6490000Y60298100D02*
X2140000Y60298100D01*
X-6490000Y61951430D02*
X2140000Y61951430D01*
X2140000Y58550000D02*
X2550000Y58550000D01*
X2140000Y44030000D02*
X2550000Y44030000D01*
X-6490000Y61242860D02*
X2140000Y61242860D01*
X-6490000Y62305715D02*
X2140000Y62305715D01*
X-6490000Y61597145D02*
X2140000Y61597145D01*
X2140000Y53470000D02*
X2550000Y53470000D01*
X-6490000Y60888575D02*
X2140000Y60888575D01*
X-6490000Y61479050D02*
X2140000Y61479050D01*
X-6490000Y44940000D02*
X2140000Y44940000D01*
X-6490000Y60652385D02*
X2140000Y60652385D01*
X-6490000Y61124765D02*
X2140000Y61124765D01*
X2140000Y41490000D02*
X2550000Y41490000D01*
X2140000Y45850000D02*
X2550000Y45850000D01*
X-6490000Y62541905D02*
X2140000Y62541905D01*
X2140000Y38950000D02*
X2550000Y38950000D01*
X-6490000Y62780000D02*
X-6490000Y37260000D01*
X2140000Y54190000D02*
X2550000Y54190000D01*
X-6490000Y61715240D02*
X2140000Y61715240D01*
X-6490000Y60416195D02*
X2140000Y60416195D01*
X-6490000Y52560000D02*
X2140000Y52560000D01*
X2140000Y51650000D02*
X2550000Y51650000D01*
X2140000Y61810000D02*
X2490000Y61810000D01*
X2140000Y61090000D02*
X2490000Y61090000D01*
X2140000Y50930000D02*
X2550000Y50930000D01*
X-6490000Y62423810D02*
X2140000Y62423810D01*
X-6490000Y62780000D02*
X2140000Y62780000D01*
%TO.C,Logo1*%
D15*
X3632872Y70700977D02*
X3736471Y70698382D01*
X3825632Y70694246D01*
X3893928Y70688563D01*
X3934934Y70681331D01*
X3943326Y70676971D01*
X3951792Y70652698D01*
X3965565Y70597426D01*
X3983450Y70516662D01*
X4004252Y70415912D01*
X4026777Y70300683D01*
X4038582Y70237902D01*
X4060849Y70118787D01*
X4081021Y70012565D01*
X4098085Y69924427D01*
X4111031Y69859566D01*
X4118845Y69823174D01*
X4120578Y69817184D01*
X4140110Y69807061D01*
X4187157Y69785662D01*
X4254997Y69755839D01*
X4336909Y69720445D01*
X4426172Y69682332D01*
X4516065Y69644353D01*
X4599865Y69609360D01*
X4670853Y69580206D01*
X4722306Y69559743D01*
X4747503Y69550823D01*
X4748604Y69550657D01*
X4768481Y69560769D01*
X4814223Y69589117D01*
X4881283Y69632723D01*
X4965116Y69688606D01*
X5061174Y69753787D01*
X5116350Y69791679D01*
X5217519Y69860725D01*
X5309370Y69922050D01*
X5387256Y69972663D01*
X5446531Y70009571D01*
X5482549Y70029782D01*
X5490623Y70032701D01*
X5509416Y70020153D01*
X5549543Y69985463D01*
X5606507Y69933063D01*
X5675815Y69867384D01*
X5752969Y69792856D01*
X5833475Y69713913D01*
X5912837Y69634983D01*
X5986560Y69560500D01*
X6050148Y69494894D01*
X6099106Y69442596D01*
X6128939Y69408039D01*
X6136058Y69396478D01*
X6126047Y69377654D01*
X6097922Y69332631D01*
X6054546Y69265787D01*
X5998782Y69181499D01*
X5933494Y69084144D01*
X5883754Y69010707D01*
X5631449Y68639667D01*
X5886445Y68021095D01*
X6331069Y67937275D01*
X6775693Y67853454D01*
X6775693Y66928006D01*
X6331069Y66844186D01*
X5886445Y66760365D01*
X5758947Y66451080D01*
X5631449Y66141794D01*
X5883754Y65770754D01*
X5954004Y65666843D01*
X6016728Y65572913D01*
X6069062Y65493348D01*
X6108143Y65432530D01*
X6131107Y65394843D01*
X6136058Y65384579D01*
X6123324Y65366090D01*
X6088118Y65326580D01*
X6034938Y65270478D01*
X5968282Y65202213D01*
X5892646Y65126214D01*
X5812528Y65046908D01*
X5732426Y64968725D01*
X5656836Y64896093D01*
X5590255Y64833441D01*
X5537182Y64785197D01*
X5502113Y64755790D01*
X5490377Y64748759D01*
X5468740Y64758877D01*
X5421338Y64787241D01*
X5352807Y64830871D01*
X5267785Y64886782D01*
X5170907Y64951994D01*
X5115650Y64989781D01*
X5014752Y65058657D01*
X4923701Y65119860D01*
X4847030Y65170422D01*
X4789272Y65207372D01*
X4754957Y65227742D01*
X4747746Y65230803D01*
X4727252Y65223864D01*
X4679487Y65204949D01*
X4611168Y65176913D01*
X4529011Y65142609D01*
X4439730Y65104891D01*
X4350042Y65066613D01*
X4266662Y65030630D01*
X4196306Y64999794D01*
X4145690Y64976961D01*
X4121529Y64964983D01*
X4120578Y64964276D01*
X4115964Y64945469D01*
X4105672Y64895382D01*
X4090713Y64819207D01*
X4072099Y64722135D01*
X4050841Y64609357D01*
X4038582Y64543558D01*
X4015638Y64423050D01*
X3993805Y64314203D01*
X3974278Y64222524D01*
X3958252Y64153519D01*
X3946921Y64112696D01*
X3943326Y64104489D01*
X3918994Y64096452D01*
X3864041Y64089967D01*
X3784892Y64085030D01*
X3687974Y64081636D01*
X3579713Y64079782D01*
X3466535Y64079462D01*
X3354865Y64080673D01*
X3251132Y64083410D01*
X3161759Y64087669D01*
X3093174Y64093445D01*
X3051803Y64100733D01*
X3043190Y64105105D01*
X3032867Y64131236D01*
X3018108Y64186607D01*
X3000648Y64263893D01*
X2982220Y64355770D01*
X2976259Y64387842D01*
X2947934Y64542476D01*
X2925124Y64664625D01*
X2906920Y64758327D01*
X2892417Y64827616D01*
X2880708Y64876529D01*
X2870885Y64909103D01*
X2862044Y64929372D01*
X2853276Y64941374D01*
X2851543Y64943053D01*
X2823629Y64959816D01*
X2769305Y64985386D01*
X2695223Y65017212D01*
X2608035Y65052740D01*
X2514392Y65089417D01*
X2420948Y65124689D01*
X2334353Y65156004D01*
X2261260Y65180807D01*
X2208322Y65196546D01*
X2182189Y65200668D01*
X2181274Y65200324D01*
X2159914Y65186359D01*
X2112916Y65154678D01*
X2045173Y65108609D01*
X1961577Y65051482D01*
X1867018Y64986627D01*
X1840146Y64968157D01*
X1742725Y64902301D01*
X1653837Y64844350D01*
X1578588Y64797462D01*
X1522080Y64764793D01*
X1489419Y64749500D01*
X1485407Y64748759D01*
X1464316Y64761608D01*
X1422536Y64797112D01*
X1364555Y64850707D01*
X1294865Y64917829D01*
X1217955Y64993913D01*
X1138317Y65074396D01*
X1060439Y65154713D01*
X988814Y65230301D01*
X927930Y65296595D01*
X882279Y65349031D01*
X856350Y65383045D01*
X852117Y65392455D01*
X862088Y65414357D01*
X888980Y65459200D01*
X928264Y65519679D01*
X959883Y65566211D01*
X1017902Y65650525D01*
X1086216Y65750374D01*
X1154421Y65850527D01*
X1190925Y65904373D01*
X1314200Y66086629D01*
X1231480Y66239619D01*
X1195241Y66309318D01*
X1167074Y66368586D01*
X1151009Y66408689D01*
X1148774Y66418897D01*
X1165278Y66431171D01*
X1211918Y66455387D01*
X1284391Y66489737D01*
X1378394Y66532412D01*
X1489626Y66581606D01*
X1613785Y66635510D01*
X1746568Y66692316D01*
X1883673Y66750218D01*
X2020798Y66807407D01*
X2153642Y66862076D01*
X2277902Y66912416D01*
X2389275Y66956620D01*
X2483461Y66992881D01*
X2556156Y67019391D01*
X2603059Y67034342D01*
X2619167Y67036746D01*
X2639714Y67017689D01*
X2673067Y66975964D01*
X2712298Y66920294D01*
X2715401Y66915622D01*
X2830577Y66771736D01*
X2964947Y66655717D01*
X3114216Y66568570D01*
X3274087Y66511301D01*
X3440263Y66484914D01*
X3608448Y66490415D01*
X3774345Y66528810D01*
X3933658Y66601105D01*
X3968513Y66622374D01*
X4109263Y66733004D01*
X4222286Y66863698D01*
X4306997Y67009936D01*
X4362806Y67167192D01*
X4389126Y67330943D01*
X4385370Y67496667D01*
X4350950Y67659838D01*
X4285277Y67815935D01*
X4187765Y67960433D01*
X4148187Y68005131D01*
X4024297Y68118888D01*
X3893876Y68201782D01*
X3747685Y68258644D01*
X3602912Y68290313D01*
X3440140Y68298131D01*
X3276560Y68272062D01*
X3117702Y68214755D01*
X2969094Y68128856D01*
X2836265Y68017014D01*
X2724744Y67881877D01*
X2712989Y67864117D01*
X2674492Y67807850D01*
X2641137Y67765077D01*
X2619840Y67744628D01*
X2619167Y67744331D01*
X2596129Y67748721D01*
X2543843Y67766124D01*
X2466610Y67794732D01*
X2368732Y67832735D01*
X2254509Y67878326D01*
X2128242Y67929697D01*
X1994233Y67985038D01*
X1856782Y68042542D01*
X1720192Y68100399D01*
X1588763Y68156802D01*
X1466795Y68209942D01*
X1358591Y68258010D01*
X1268451Y68299199D01*
X1200677Y68331699D01*
X1159570Y68353703D01*
X1148774Y68362564D01*
X1157181Y68389640D01*
X1179728Y68440303D01*
X1212387Y68505817D01*
X1231480Y68541841D01*
X1314200Y68694832D01*
X1190925Y68877088D01*
X1127772Y68970125D01*
X1058273Y69071985D01*
X992835Y69167438D01*
X959883Y69215250D01*
X914727Y69282495D01*
X878943Y69339436D01*
X857062Y69378646D01*
X852437Y69391381D01*
X864915Y69409917D01*
X899748Y69450941D01*
X953322Y69510475D01*
X1022017Y69584542D01*
X1102219Y69669165D01*
X1153714Y69722685D01*
X1245714Y69816319D01*
X1328001Y69897241D01*
X1397055Y69962177D01*
X1449356Y70007858D01*
X1481384Y70031011D01*
X1487884Y70033232D01*
X1512606Y70022924D01*
X1562595Y69994439D01*
X1632788Y69950937D01*
X1718125Y69895577D01*
X1813544Y69831520D01*
X1840146Y69813303D01*
X1936833Y69746927D01*
X2023883Y69687378D01*
X2096405Y69637984D01*
X2149507Y69602075D01*
X2178297Y69582981D01*
X2181274Y69581136D01*
X2204218Y69583895D01*
X2254664Y69598538D01*
X2325959Y69622513D01*
X2411453Y69653266D01*
X2504493Y69688244D01*
X2598426Y69724893D01*
X2686601Y69760661D01*
X2762366Y69792994D01*
X2819069Y69819338D01*
X2850057Y69837142D01*
X2851543Y69838407D01*
X2860399Y69849294D01*
X2869157Y69867682D01*
X2878723Y69897606D01*
X2890004Y69943103D01*
X2903907Y70008209D01*
X2921337Y70096961D01*
X2943202Y70213393D01*
X2970409Y70361542D01*
X2976259Y70393618D01*
X2994626Y70488686D01*
X3012595Y70571565D01*
X3028431Y70634930D01*
X3040400Y70671458D01*
X3043190Y70676356D01*
X3067928Y70684427D01*
X3123210Y70690987D01*
X3202611Y70696033D01*
X3299704Y70699559D01*
X3408062Y70701561D01*
X3521260Y70702036D01*
X3632872Y70700977D01*
G36*
X3632872Y70700977D02*
G01*
X3736471Y70698382D01*
X3825632Y70694246D01*
X3893928Y70688563D01*
X3934934Y70681331D01*
X3943326Y70676971D01*
X3951792Y70652698D01*
X3965565Y70597426D01*
X3983450Y70516662D01*
X4004252Y70415912D01*
X4026777Y70300683D01*
X4038582Y70237902D01*
X4060849Y70118787D01*
X4081021Y70012565D01*
X4098085Y69924427D01*
X4111031Y69859566D01*
X4118845Y69823174D01*
X4120578Y69817184D01*
X4140110Y69807061D01*
X4187157Y69785662D01*
X4254997Y69755839D01*
X4336909Y69720445D01*
X4426172Y69682332D01*
X4516065Y69644353D01*
X4599865Y69609360D01*
X4670853Y69580206D01*
X4722306Y69559743D01*
X4747503Y69550823D01*
X4748604Y69550657D01*
X4768481Y69560769D01*
X4814223Y69589117D01*
X4881283Y69632723D01*
X4965116Y69688606D01*
X5061174Y69753787D01*
X5116350Y69791679D01*
X5217519Y69860725D01*
X5309370Y69922050D01*
X5387256Y69972663D01*
X5446531Y70009571D01*
X5482549Y70029782D01*
X5490623Y70032701D01*
X5509416Y70020153D01*
X5549543Y69985463D01*
X5606507Y69933063D01*
X5675815Y69867384D01*
X5752969Y69792856D01*
X5833475Y69713913D01*
X5912837Y69634983D01*
X5986560Y69560500D01*
X6050148Y69494894D01*
X6099106Y69442596D01*
X6128939Y69408039D01*
X6136058Y69396478D01*
X6126047Y69377654D01*
X6097922Y69332631D01*
X6054546Y69265787D01*
X5998782Y69181499D01*
X5933494Y69084144D01*
X5883754Y69010707D01*
X5631449Y68639667D01*
X5886445Y68021095D01*
X6331069Y67937275D01*
X6775693Y67853454D01*
X6775693Y66928006D01*
X6331069Y66844186D01*
X5886445Y66760365D01*
X5758947Y66451080D01*
X5631449Y66141794D01*
X5883754Y65770754D01*
X5954004Y65666843D01*
X6016728Y65572913D01*
X6069062Y65493348D01*
X6108143Y65432530D01*
X6131107Y65394843D01*
X6136058Y65384579D01*
X6123324Y65366090D01*
X6088118Y65326580D01*
X6034938Y65270478D01*
X5968282Y65202213D01*
X5892646Y65126214D01*
X5812528Y65046908D01*
X5732426Y64968725D01*
X5656836Y64896093D01*
X5590255Y64833441D01*
X5537182Y64785197D01*
X5502113Y64755790D01*
X5490377Y64748759D01*
X5468740Y64758877D01*
X5421338Y64787241D01*
X5352807Y64830871D01*
X5267785Y64886782D01*
X5170907Y64951994D01*
X5115650Y64989781D01*
X5014752Y65058657D01*
X4923701Y65119860D01*
X4847030Y65170422D01*
X4789272Y65207372D01*
X4754957Y65227742D01*
X4747746Y65230803D01*
X4727252Y65223864D01*
X4679487Y65204949D01*
X4611168Y65176913D01*
X4529011Y65142609D01*
X4439730Y65104891D01*
X4350042Y65066613D01*
X4266662Y65030630D01*
X4196306Y64999794D01*
X4145690Y64976961D01*
X4121529Y64964983D01*
X4120578Y64964276D01*
X4115964Y64945469D01*
X4105672Y64895382D01*
X4090713Y64819207D01*
X4072099Y64722135D01*
X4050841Y64609357D01*
X4038582Y64543558D01*
X4015638Y64423050D01*
X3993805Y64314203D01*
X3974278Y64222524D01*
X3958252Y64153519D01*
X3946921Y64112696D01*
X3943326Y64104489D01*
X3918994Y64096452D01*
X3864041Y64089967D01*
X3784892Y64085030D01*
X3687974Y64081636D01*
X3579713Y64079782D01*
X3466535Y64079462D01*
X3354865Y64080673D01*
X3251132Y64083410D01*
X3161759Y64087669D01*
X3093174Y64093445D01*
X3051803Y64100733D01*
X3043190Y64105105D01*
X3032867Y64131236D01*
X3018108Y64186607D01*
X3000648Y64263893D01*
X2982220Y64355770D01*
X2976259Y64387842D01*
X2947934Y64542476D01*
X2925124Y64664625D01*
X2906920Y64758327D01*
X2892417Y64827616D01*
X2880708Y64876529D01*
X2870885Y64909103D01*
X2862044Y64929372D01*
X2853276Y64941374D01*
X2851543Y64943053D01*
X2823629Y64959816D01*
X2769305Y64985386D01*
X2695223Y65017212D01*
X2608035Y65052740D01*
X2514392Y65089417D01*
X2420948Y65124689D01*
X2334353Y65156004D01*
X2261260Y65180807D01*
X2208322Y65196546D01*
X2182189Y65200668D01*
X2181274Y65200324D01*
X2159914Y65186359D01*
X2112916Y65154678D01*
X2045173Y65108609D01*
X1961577Y65051482D01*
X1867018Y64986627D01*
X1840146Y64968157D01*
X1742725Y64902301D01*
X1653837Y64844350D01*
X1578588Y64797462D01*
X1522080Y64764793D01*
X1489419Y64749500D01*
X1485407Y64748759D01*
X1464316Y64761608D01*
X1422536Y64797112D01*
X1364555Y64850707D01*
X1294865Y64917829D01*
X1217955Y64993913D01*
X1138317Y65074396D01*
X1060439Y65154713D01*
X988814Y65230301D01*
X927930Y65296595D01*
X882279Y65349031D01*
X856350Y65383045D01*
X852117Y65392455D01*
X862088Y65414357D01*
X888980Y65459200D01*
X928264Y65519679D01*
X959883Y65566211D01*
X1017902Y65650525D01*
X1086216Y65750374D01*
X1154421Y65850527D01*
X1190925Y65904373D01*
X1314200Y66086629D01*
X1231480Y66239619D01*
X1195241Y66309318D01*
X1167074Y66368586D01*
X1151009Y66408689D01*
X1148774Y66418897D01*
X1165278Y66431171D01*
X1211918Y66455387D01*
X1284391Y66489737D01*
X1378394Y66532412D01*
X1489626Y66581606D01*
X1613785Y66635510D01*
X1746568Y66692316D01*
X1883673Y66750218D01*
X2020798Y66807407D01*
X2153642Y66862076D01*
X2277902Y66912416D01*
X2389275Y66956620D01*
X2483461Y66992881D01*
X2556156Y67019391D01*
X2603059Y67034342D01*
X2619167Y67036746D01*
X2639714Y67017689D01*
X2673067Y66975964D01*
X2712298Y66920294D01*
X2715401Y66915622D01*
X2830577Y66771736D01*
X2964947Y66655717D01*
X3114216Y66568570D01*
X3274087Y66511301D01*
X3440263Y66484914D01*
X3608448Y66490415D01*
X3774345Y66528810D01*
X3933658Y66601105D01*
X3968513Y66622374D01*
X4109263Y66733004D01*
X4222286Y66863698D01*
X4306997Y67009936D01*
X4362806Y67167192D01*
X4389126Y67330943D01*
X4385370Y67496667D01*
X4350950Y67659838D01*
X4285277Y67815935D01*
X4187765Y67960433D01*
X4148187Y68005131D01*
X4024297Y68118888D01*
X3893876Y68201782D01*
X3747685Y68258644D01*
X3602912Y68290313D01*
X3440140Y68298131D01*
X3276560Y68272062D01*
X3117702Y68214755D01*
X2969094Y68128856D01*
X2836265Y68017014D01*
X2724744Y67881877D01*
X2712989Y67864117D01*
X2674492Y67807850D01*
X2641137Y67765077D01*
X2619840Y67744628D01*
X2619167Y67744331D01*
X2596129Y67748721D01*
X2543843Y67766124D01*
X2466610Y67794732D01*
X2368732Y67832735D01*
X2254509Y67878326D01*
X2128242Y67929697D01*
X1994233Y67985038D01*
X1856782Y68042542D01*
X1720192Y68100399D01*
X1588763Y68156802D01*
X1466795Y68209942D01*
X1358591Y68258010D01*
X1268451Y68299199D01*
X1200677Y68331699D01*
X1159570Y68353703D01*
X1148774Y68362564D01*
X1157181Y68389640D01*
X1179728Y68440303D01*
X1212387Y68505817D01*
X1231480Y68541841D01*
X1314200Y68694832D01*
X1190925Y68877088D01*
X1127772Y68970125D01*
X1058273Y69071985D01*
X992835Y69167438D01*
X959883Y69215250D01*
X914727Y69282495D01*
X878943Y69339436D01*
X857062Y69378646D01*
X852437Y69391381D01*
X864915Y69409917D01*
X899748Y69450941D01*
X953322Y69510475D01*
X1022017Y69584542D01*
X1102219Y69669165D01*
X1153714Y69722685D01*
X1245714Y69816319D01*
X1328001Y69897241D01*
X1397055Y69962177D01*
X1449356Y70007858D01*
X1481384Y70031011D01*
X1487884Y70033232D01*
X1512606Y70022924D01*
X1562595Y69994439D01*
X1632788Y69950937D01*
X1718125Y69895577D01*
X1813544Y69831520D01*
X1840146Y69813303D01*
X1936833Y69746927D01*
X2023883Y69687378D01*
X2096405Y69637984D01*
X2149507Y69602075D01*
X2178297Y69582981D01*
X2181274Y69581136D01*
X2204218Y69583895D01*
X2254664Y69598538D01*
X2325959Y69622513D01*
X2411453Y69653266D01*
X2504493Y69688244D01*
X2598426Y69724893D01*
X2686601Y69760661D01*
X2762366Y69792994D01*
X2819069Y69819338D01*
X2850057Y69837142D01*
X2851543Y69838407D01*
X2860399Y69849294D01*
X2869157Y69867682D01*
X2878723Y69897606D01*
X2890004Y69943103D01*
X2903907Y70008209D01*
X2921337Y70096961D01*
X2943202Y70213393D01*
X2970409Y70361542D01*
X2976259Y70393618D01*
X2994626Y70488686D01*
X3012595Y70571565D01*
X3028431Y70634930D01*
X3040400Y70671458D01*
X3043190Y70676356D01*
X3067928Y70684427D01*
X3123210Y70690987D01*
X3202611Y70696033D01*
X3299704Y70699559D01*
X3408062Y70701561D01*
X3521260Y70702036D01*
X3632872Y70700977D01*
G37*
D10*
%TO.C,U3*%
X38459000Y28275000D02*
X38459000Y26724000D01*
X43700000Y27350000D02*
X41860000Y27350000D01*
X38459000Y20700000D02*
X35065000Y20700000D01*
X38459000Y27500000D02*
X35065000Y27500000D01*
X38459000Y37700000D02*
X35050000Y37700000D01*
X38459000Y21475000D02*
X38459000Y18980000D01*
X38459000Y24100000D02*
X35065000Y24100000D01*
X38459000Y30900000D02*
X35065000Y30900000D01*
X43700000Y39420000D02*
X38459000Y39420000D01*
X38459000Y39420000D02*
X38459000Y36924000D01*
X43700000Y31050000D02*
X41860000Y31050000D01*
X38459000Y35075000D02*
X38459000Y33524000D01*
X38459000Y24875000D02*
X38459000Y23324000D01*
X43700000Y18980000D02*
X38459000Y18980000D01*
X41860000Y39420000D02*
X41860000Y18980000D01*
X38459000Y34300000D02*
X35065000Y34300000D01*
X38459000Y31675000D02*
X38459000Y30124000D01*
X43700000Y39420000D02*
X43700000Y18980000D01*
D12*
%TO.C,J13*%
X62500000Y81200000D02*
X61900000Y80600000D01*
X62500000Y81200000D02*
X62500000Y79800000D01*
X62500000Y81200000D02*
X63100000Y80600000D01*
X55600000Y82200000D02*
X69800000Y82200000D01*
X69800000Y82200000D02*
X69800000Y77400000D01*
X69800000Y77400000D02*
X55600000Y77400000D01*
X55600000Y77400000D02*
X55600000Y82200000D01*
X69800000Y80350000D02*
X68800000Y80350000D01*
X68800000Y80350000D02*
X68800000Y78850000D01*
X68800000Y78850000D02*
X69800000Y78850000D01*
X69800000Y78850000D02*
X69800000Y80350000D01*
D10*
%TO.C,U1*%
X38424000Y68175000D02*
X38424000Y66624000D01*
X43665000Y67250000D02*
X41825000Y67250000D01*
X38424000Y60600000D02*
X35030000Y60600000D01*
X38424000Y67400000D02*
X35030000Y67400000D01*
X38424000Y77600000D02*
X35015000Y77600000D01*
X38424000Y61375000D02*
X38424000Y58880000D01*
X38424000Y64000000D02*
X35030000Y64000000D01*
X38424000Y70800000D02*
X35030000Y70800000D01*
X43665000Y79320000D02*
X38424000Y79320000D01*
X38424000Y79320000D02*
X38424000Y76824000D01*
X43665000Y70950000D02*
X41825000Y70950000D01*
X38424000Y74975000D02*
X38424000Y73424000D01*
X38424000Y64775000D02*
X38424000Y63224000D01*
X43665000Y58880000D02*
X38424000Y58880000D01*
X41825000Y79320000D02*
X41825000Y58880000D01*
X38424000Y74200000D02*
X35030000Y74200000D01*
X38424000Y71575000D02*
X38424000Y70024000D01*
X43665000Y79320000D02*
X43665000Y58880000D01*
D12*
%TO.C,J14*%
X55600000Y64400000D02*
X69800000Y64400000D01*
X69800000Y64400000D02*
X69800000Y63200000D01*
X69800000Y63200000D02*
X55600000Y63200000D01*
X55600000Y63200000D02*
X55600000Y64400000D01*
X55600000Y63000000D02*
X69800000Y63000000D01*
X69800000Y63000000D02*
X69800000Y58200000D01*
X69800000Y58200000D02*
X55600000Y58200000D01*
X55600000Y58200000D02*
X55600000Y63000000D01*
X69800000Y61150000D02*
X68800000Y61150000D01*
X68800000Y61150000D02*
X68800000Y59650000D01*
X68800000Y59650000D02*
X69800000Y59650000D01*
X69800000Y59650000D02*
X69800000Y61150000D01*
%TO.C,J12*%
X55600000Y88600000D02*
X69800000Y88600000D01*
X69800000Y88600000D02*
X69800000Y87400000D01*
X69800000Y87400000D02*
X55600000Y87400000D01*
X55600000Y87400000D02*
X55600000Y88600000D01*
X55600000Y87200000D02*
X69800000Y87200000D01*
X69800000Y87200000D02*
X69800000Y82400000D01*
X69800000Y82400000D02*
X55600000Y82400000D01*
X55600000Y82400000D02*
X55600000Y87200000D01*
X69800000Y85350000D02*
X68800000Y85350000D01*
X68800000Y85350000D02*
X68800000Y83850000D01*
X68800000Y83850000D02*
X69800000Y83850000D01*
X69800000Y83850000D02*
X69800000Y85350000D01*
%TO.C,J8*%
X62500000Y31300000D02*
X61900000Y30700000D01*
X62500000Y31300000D02*
X62500000Y29900000D01*
X62500000Y31300000D02*
X63100000Y30700000D01*
X55600000Y31800000D02*
X69800000Y31800000D01*
X69800000Y31800000D02*
X69800000Y28500000D01*
X69800000Y28500000D02*
X55600000Y28500000D01*
X55600000Y28500000D02*
X55600000Y31800000D01*
X69800000Y30450000D02*
X68800000Y30450000D01*
X68800000Y30450000D02*
X68800000Y28950000D01*
X68800000Y28950000D02*
X69800000Y28950000D01*
X69800000Y28950000D02*
X69800000Y30450000D01*
%TO.C,J4*%
X62500000Y17300000D02*
X61900000Y16700000D01*
X62500000Y17300000D02*
X62500000Y15900000D01*
X62500000Y17300000D02*
X63100000Y16700000D01*
X55600000Y17800000D02*
X69800000Y17800000D01*
X69800000Y17800000D02*
X69800000Y14500000D01*
X69800000Y14500000D02*
X55600000Y14500000D01*
X55600000Y14500000D02*
X55600000Y17800000D01*
X69800000Y16450000D02*
X68800000Y16450000D01*
X68800000Y16450000D02*
X68800000Y14950000D01*
X68800000Y14950000D02*
X69800000Y14950000D01*
X69800000Y14950000D02*
X69800000Y16450000D01*
%TO.C,J3*%
X62500000Y20800000D02*
X61900000Y20200000D01*
X62500000Y20800000D02*
X62500000Y19400000D01*
X62500000Y20800000D02*
X63100000Y20200000D01*
X55600000Y21300000D02*
X69800000Y21300000D01*
X69800000Y21300000D02*
X69800000Y18000000D01*
X69800000Y18000000D02*
X55600000Y18000000D01*
X55600000Y18000000D02*
X55600000Y21300000D01*
X69800000Y19950000D02*
X68800000Y19950000D01*
X68800000Y19950000D02*
X68800000Y18450000D01*
X68800000Y18450000D02*
X69800000Y18450000D01*
X69800000Y18450000D02*
X69800000Y19950000D01*
%TO.C,SW2*%
X33000000Y41450000D02*
X51900000Y41450000D01*
X51900000Y41450000D02*
X51900000Y52050000D01*
X51900000Y52050000D02*
X33000000Y52050000D01*
X33000000Y52050000D02*
X33000000Y41450000D01*
%TO.C,J2*%
X62500000Y24300000D02*
X61900000Y23700000D01*
X62500000Y24300000D02*
X62500000Y22900000D01*
X62500000Y24300000D02*
X63100000Y23700000D01*
X55600000Y24800000D02*
X69800000Y24800000D01*
X69800000Y24800000D02*
X69800000Y21500000D01*
X69800000Y21500000D02*
X55600000Y21500000D01*
X55600000Y21500000D02*
X55600000Y24800000D01*
X69800000Y23450000D02*
X68800000Y23450000D01*
X68800000Y23450000D02*
X68800000Y21950000D01*
X68800000Y21950000D02*
X69800000Y21950000D01*
X69800000Y21950000D02*
X69800000Y23450000D01*
%TO.C,J6*%
X55600000Y40200000D02*
X69800000Y40200000D01*
X69800000Y40200000D02*
X69800000Y38974600D01*
X69800000Y38974600D02*
X55600000Y38974600D01*
X55600000Y38974600D02*
X55600000Y40200000D01*
X55600000Y38800000D02*
X69800000Y38800000D01*
X69800000Y38800000D02*
X69800000Y35500000D01*
X69800000Y35500000D02*
X55600000Y35500000D01*
X55600000Y35500000D02*
X55600000Y38800000D01*
X69800000Y37450000D02*
X68800000Y37450000D01*
X68800000Y37450000D02*
X68800000Y35950000D01*
X68800000Y35950000D02*
X69800000Y35950000D01*
X69800000Y35950000D02*
X69800000Y37450000D01*
%TO.C,J15*%
X62500000Y57000000D02*
X61900000Y56400000D01*
X62500000Y57000000D02*
X62500000Y55600000D01*
X62500000Y57000000D02*
X63100000Y56400000D01*
X55600000Y58000000D02*
X69800000Y58000000D01*
X69800000Y58000000D02*
X69800000Y53200000D01*
X69800000Y53200000D02*
X55600000Y53200000D01*
X55600000Y53200000D02*
X55600000Y58000000D01*
X69800000Y56150000D02*
X68800000Y56150000D01*
X68800000Y56150000D02*
X68800000Y54650000D01*
X68800000Y54650000D02*
X69800000Y54650000D01*
X69800000Y54650000D02*
X69800000Y56150000D01*
%TO.C,J10*%
X62500000Y76200000D02*
X61900000Y75600000D01*
X62500000Y76200000D02*
X62500000Y74800000D01*
X62500000Y76200000D02*
X63100000Y75600000D01*
X55600000Y77200000D02*
X69800000Y77200000D01*
X69800000Y77200000D02*
X69800000Y72400000D01*
X69800000Y72400000D02*
X55600000Y72400000D01*
X55600000Y72400000D02*
X55600000Y77200000D01*
X69800000Y75350000D02*
X68800000Y75350000D01*
X68800000Y75350000D02*
X68800000Y73850000D01*
X68800000Y73850000D02*
X69800000Y73850000D01*
X69800000Y73850000D02*
X69800000Y75350000D01*
%TO.C,J16*%
X62500000Y52000000D02*
X61900000Y51400000D01*
X62500000Y52000000D02*
X62500000Y50600000D01*
X62500000Y52000000D02*
X63100000Y51400000D01*
X55600000Y53000000D02*
X69800000Y53000000D01*
X69800000Y53000000D02*
X69800000Y48200000D01*
X69800000Y48200000D02*
X55600000Y48200000D01*
X55600000Y48200000D02*
X55600000Y53000000D01*
X69800000Y51150000D02*
X68800000Y51150000D01*
X68800000Y51150000D02*
X68800000Y49650000D01*
X68800000Y49650000D02*
X69800000Y49650000D01*
X69800000Y49650000D02*
X69800000Y51150000D01*
%TO.C,J9*%
X62500000Y27800000D02*
X61900000Y27200000D01*
X62500000Y27800000D02*
X62500000Y26400000D01*
X62500000Y27800000D02*
X63100000Y27200000D01*
X55600000Y28300000D02*
X69800000Y28300000D01*
X69800000Y28300000D02*
X69800000Y25000000D01*
X69800000Y25000000D02*
X55600000Y25000000D01*
X55600000Y25000000D02*
X55600000Y28300000D01*
X69800000Y26950000D02*
X68800000Y26950000D01*
X68800000Y26950000D02*
X68800000Y25450000D01*
X68800000Y25450000D02*
X69800000Y25450000D01*
X69800000Y25450000D02*
X69800000Y26950000D01*
%TO.C,J7*%
X62500000Y34800000D02*
X61900000Y34200000D01*
X62500000Y34800000D02*
X62500000Y33400000D01*
X62500000Y34800000D02*
X63100000Y34200000D01*
X55600000Y35300000D02*
X69800000Y35300000D01*
X69800000Y35300000D02*
X69800000Y32000000D01*
X69800000Y32000000D02*
X55600000Y32000000D01*
X55600000Y32000000D02*
X55600000Y35300000D01*
X69800000Y33950000D02*
X68800000Y33950000D01*
X68800000Y33950000D02*
X68800000Y32450000D01*
X68800000Y32450000D02*
X69800000Y32450000D01*
X69800000Y32450000D02*
X69800000Y33950000D01*
%TO.C,J5*%
X62500000Y13800000D02*
X61900000Y13200000D01*
X62500000Y13800000D02*
X62500000Y12400000D01*
X62500000Y13800000D02*
X63100000Y13200000D01*
X55600000Y14300000D02*
X69800000Y14300000D01*
X69800000Y14300000D02*
X69800000Y11000000D01*
X69800000Y11000000D02*
X55600000Y11000000D01*
X55600000Y11000000D02*
X55600000Y14300000D01*
X69800000Y12950000D02*
X68800000Y12950000D01*
X68800000Y12950000D02*
X68800000Y11450000D01*
X68800000Y11450000D02*
X69800000Y11450000D01*
X69800000Y11450000D02*
X69800000Y12950000D01*
%TO.C,SW1*%
X33000000Y81750000D02*
X51900000Y81750000D01*
X51900000Y81750000D02*
X51900000Y92350000D01*
X51900000Y92350000D02*
X33000000Y92350000D01*
X33000000Y92350000D02*
X33000000Y81750000D01*
%TD*%
M02*
