%TF.GenerationSoftware,KiCad,Pcbnew,7.0.9*%
%TF.CreationDate,2024-02-10T00:09:35-05:00*%
%TF.ProjectId,BREAD_Slice,42524541-445f-4536-9c69-63652e6b6963,rev?*%
%TF.SameCoordinates,PX74eba40PY8552dc0*%
%TF.FileFunction,Soldermask,Bot*%
%TF.FilePolarity,Negative*%
%FSLAX46Y46*%
G04 Gerber Fmt 4.6, Leading zero omitted, Abs format (unit mm)*
G04 Created by KiCad (PCBNEW 7.0.9) date 2024-02-10 00:09:35*
%MOMM*%
%LPD*%
G01*
G04 APERTURE LIST*
G04 Aperture macros list*
%AMRoundRect*
0 Rectangle with rounded corners*
0 $1 Rounding radius*
0 $2 $3 $4 $5 $6 $7 $8 $9 X,Y pos of 4 corners*
0 Add a 4 corners polygon primitive as box body*
4,1,4,$2,$3,$4,$5,$6,$7,$8,$9,$2,$3,0*
0 Add four circle primitives for the rounded corners*
1,1,$1+$1,$2,$3*
1,1,$1+$1,$4,$5*
1,1,$1+$1,$6,$7*
1,1,$1+$1,$8,$9*
0 Add four rect primitives between the rounded corners*
20,1,$1+$1,$2,$3,$4,$5,0*
20,1,$1+$1,$4,$5,$6,$7,0*
20,1,$1+$1,$6,$7,$8,$9,0*
20,1,$1+$1,$8,$9,$2,$3,0*%
G04 Aperture macros list end*
%ADD10C,2.400000*%
%ADD11RoundRect,0.200000X-0.512500X-0.150000X0.512500X-0.150000X0.512500X0.150000X-0.512500X0.150000X0*%
%ADD12C,5.100000*%
%ADD13RoundRect,0.050000X-0.800000X-0.800000X0.800000X-0.800000X0.800000X0.800000X-0.800000X0.800000X0*%
%ADD14O,1.700000X1.700000*%
%ADD15RoundRect,0.050000X-0.850000X-0.850000X0.850000X-0.850000X0.850000X0.850000X-0.850000X0.850000X0*%
%ADD16O,1.800000X1.800000*%
%ADD17RoundRect,0.050000X-0.900000X0.900000X-0.900000X-0.900000X0.900000X-0.900000X0.900000X0.900000X0*%
%ADD18O,1.900000X1.900000*%
%ADD19C,2.300000*%
%ADD20C,3.100000*%
%ADD21RoundRect,0.300000X0.412500X0.650000X-0.412500X0.650000X-0.412500X-0.650000X0.412500X-0.650000X0*%
%ADD22RoundRect,0.300000X-0.325000X-0.650000X0.325000X-0.650000X0.325000X0.650000X-0.325000X0.650000X0*%
%ADD23RoundRect,0.200000X0.150000X0.625000X-0.150000X0.625000X-0.150000X-0.625000X0.150000X-0.625000X0*%
%ADD24RoundRect,0.300000X0.350000X0.650000X-0.350000X0.650000X-0.350000X-0.650000X0.350000X-0.650000X0*%
%ADD25RoundRect,0.300000X-0.400000X-0.625000X0.400000X-0.625000X0.400000X0.625000X-0.400000X0.625000X0*%
%ADD26RoundRect,0.300000X-0.375000X-1.075000X0.375000X-1.075000X0.375000X1.075000X-0.375000X1.075000X0*%
%ADD27RoundRect,0.300000X0.325000X0.650000X-0.325000X0.650000X-0.325000X-0.650000X0.325000X-0.650000X0*%
%ADD28RoundRect,0.300000X-0.412500X-0.650000X0.412500X-0.650000X0.412500X0.650000X-0.412500X0.650000X0*%
G04 APERTURE END LIST*
D10*
%TO.C,J11*%
X58000000Y69600000D03*
X66200000Y69600000D03*
%TD*%
%TO.C,J17*%
X58000000Y45400000D03*
X66200000Y45400000D03*
%TD*%
D11*
%TO.C,U2*%
X11137500Y74650000D03*
X11137500Y75600000D03*
X11137500Y76550000D03*
X8862500Y76550000D03*
X8862500Y75600000D03*
X8862500Y74650000D03*
%TD*%
D12*
%TO.C,H1*%
X5000000Y95000000D03*
%TD*%
%TO.C,H2*%
X65000000Y95000000D03*
%TD*%
%TO.C,H3*%
X5000000Y5000000D03*
%TD*%
%TO.C,H4*%
X65000000Y5000000D03*
%TD*%
D13*
%TO.C,A1*%
X12400000Y39800000D03*
D14*
X12400000Y37260000D03*
X12400000Y34720000D03*
X12400000Y32180000D03*
X12400000Y29640000D03*
X12400000Y27100000D03*
X12400000Y24560000D03*
X12400000Y22020000D03*
X12400000Y19480000D03*
X12400000Y16940000D03*
X12400000Y14400000D03*
X12400000Y11860000D03*
X12400000Y9320000D03*
X12400000Y6780000D03*
X12400000Y4240000D03*
X27640000Y4240000D03*
X27640000Y6780000D03*
X27640000Y9320000D03*
X27640000Y11860000D03*
X27640000Y14400000D03*
X27640000Y16940000D03*
X27640000Y19480000D03*
X27640000Y22020000D03*
X27640000Y24560000D03*
X27640000Y27100000D03*
X27640000Y29640000D03*
X27640000Y32180000D03*
X27640000Y34720000D03*
X27640000Y37260000D03*
X27640000Y39800000D03*
%TD*%
D15*
%TO.C,J1*%
X3600000Y61450000D03*
D16*
X3600000Y58910000D03*
X3600000Y56370000D03*
X3600000Y53830000D03*
X3600000Y51290000D03*
X3600000Y48750000D03*
X3600000Y46210000D03*
X3600000Y43670000D03*
X3600000Y41130000D03*
X3600000Y38590000D03*
%TD*%
D17*
%TO.C,U3*%
X34000000Y37700000D03*
D18*
X39080000Y36000000D03*
X34000000Y34300000D03*
X39080000Y32600000D03*
X34000000Y30900000D03*
X39080000Y29200000D03*
X34000000Y27500000D03*
X39080000Y25800000D03*
X34000000Y24100000D03*
X39080000Y22400000D03*
X34000000Y20700000D03*
%TD*%
D10*
%TO.C,J13*%
X58000000Y79600000D03*
X66200000Y79600000D03*
%TD*%
D17*
%TO.C,U1*%
X33965000Y77600000D03*
D18*
X39045000Y75900000D03*
X33965000Y74200000D03*
X39045000Y72500000D03*
X33965000Y70800000D03*
X39045000Y69100000D03*
X33965000Y67400000D03*
X39045000Y65700000D03*
X33965000Y64000000D03*
X39045000Y62300000D03*
X33965000Y60600000D03*
%TD*%
D10*
%TO.C,J14*%
X58000000Y60400000D03*
X66200000Y60400000D03*
%TD*%
%TO.C,J12*%
X58000000Y84600000D03*
X66200000Y84600000D03*
%TD*%
D19*
%TO.C,J8*%
X58000000Y29700000D03*
X66200000Y29700000D03*
%TD*%
%TO.C,J4*%
X58000000Y15700000D03*
X66200000Y15700000D03*
%TD*%
%TO.C,J3*%
X58000000Y19200000D03*
X66200000Y19200000D03*
%TD*%
D20*
%TO.C,SW2*%
X37700000Y43900000D03*
X37700000Y49600000D03*
X42450000Y43900000D03*
X42450000Y49600000D03*
X47200000Y43900000D03*
X47200000Y49600000D03*
%TD*%
D19*
%TO.C,J2*%
X58000000Y22700000D03*
X66200000Y22700000D03*
%TD*%
%TO.C,J6*%
X58000000Y36700000D03*
X66200000Y36700000D03*
%TD*%
D10*
%TO.C,J15*%
X58000000Y55400000D03*
X66200000Y55400000D03*
%TD*%
%TO.C,J10*%
X58000000Y74600000D03*
X66200000Y74600000D03*
%TD*%
%TO.C,J16*%
X58000000Y50400000D03*
X66200000Y50400000D03*
%TD*%
D19*
%TO.C,J9*%
X58000000Y26200000D03*
X66200000Y26200000D03*
%TD*%
%TO.C,J7*%
X58000000Y33200000D03*
X66200000Y33200000D03*
%TD*%
%TO.C,J5*%
X58000000Y12200000D03*
X66200000Y12200000D03*
%TD*%
D20*
%TO.C,SW1*%
X37700000Y84200000D03*
X37700000Y89900000D03*
X42450000Y84200000D03*
X42450000Y89900000D03*
X47200000Y84200000D03*
X47200000Y89900000D03*
%TD*%
D21*
%TO.C,C6*%
X39027500Y78200000D03*
X35902500Y78200000D03*
%TD*%
D22*
%TO.C,C5*%
X13525000Y79000000D03*
X16475000Y79000000D03*
%TD*%
%TO.C,C7*%
X13525000Y82000000D03*
X16475000Y82000000D03*
%TD*%
D23*
%TO.C,J18*%
X21510000Y5400000D03*
X20510000Y5400000D03*
X19510000Y5400000D03*
X18510000Y5400000D03*
D24*
X17210000Y1525000D03*
X22810000Y1525000D03*
%TD*%
D25*
%TO.C,R1*%
X42250000Y63000000D03*
X45350000Y63000000D03*
%TD*%
D21*
%TO.C,C9*%
X39105000Y38300000D03*
X35980000Y38300000D03*
%TD*%
D26*
%TO.C,L1*%
X13600000Y75600000D03*
X16400000Y75600000D03*
%TD*%
D27*
%TO.C,C1*%
X8325000Y79000000D03*
X11275000Y79000000D03*
%TD*%
D25*
%TO.C,R2*%
X42150000Y23100000D03*
X45250000Y23100000D03*
%TD*%
D28*
%TO.C,C10*%
X35917500Y20000000D03*
X39042500Y20000000D03*
%TD*%
D22*
%TO.C,C3*%
X41305000Y29200000D03*
X44255000Y29200000D03*
%TD*%
D28*
%TO.C,C11*%
X42137500Y25800000D03*
X45262500Y25800000D03*
%TD*%
D22*
%TO.C,C2*%
X41190000Y69100000D03*
X44140000Y69100000D03*
%TD*%
D27*
%TO.C,C4*%
X11125000Y72200000D03*
X14075000Y72200000D03*
%TD*%
D28*
%TO.C,C8*%
X35902500Y60000000D03*
X39027500Y60000000D03*
%TD*%
%TO.C,C12*%
X42237500Y65700000D03*
X45362500Y65700000D03*
%TD*%
M02*
