M48
; DRILL file {KiCad 7.0.9} date Sat Feb 10 00:08:33 2024
; FORMAT={-:-/ absolute / inch / decimal}
; #@! TF.CreationDate,2024-02-10T00:08:33-05:00
; #@! TF.GenerationSoftware,Kicad,Pcbnew,7.0.9
; #@! TF.FileFunction,Plated,1,2,PTH
FMAT,2
INCH
; #@! TA.AperFunction,Plated,PTH,ViaDrill
T1C0.0079
; #@! TA.AperFunction,Plated,PTH,ViaDrill
T2C0.0157
; #@! TA.AperFunction,Plated,PTH,ViaDrill
T3C0.0315
; #@! TA.AperFunction,Plated,PTH,ComponentDrill
T4C0.0394
; #@! TA.AperFunction,Plated,PTH,ComponentDrill
T5C0.0433
; #@! TA.AperFunction,Plated,PTH,ComponentDrill
T6C0.0650
%
G90
G05
T1
X0.3937Y2.9449
X0.437Y3.0512
X0.4449Y3.1693
X0.4724Y3.0512
X0.4882Y3.1378
X0.4882Y3.0866
X0.5354Y3.1693
T2
X0.2913Y2.9626
X0.2992Y2.8346
X0.4409Y3.2382
X0.7126Y3.1713
X0.7126Y3.0571
X0.7126Y2.8602
X0.7283Y0.2835
X0.7677Y0.2835
X0.8071Y0.1299
X0.9528Y0.9646
X0.9528Y0.8661
X1.1791Y1.0669
X1.1811Y1.7835
X1.9764Y0.0827
T3
X0.6457Y2.1496
T4
X0.1417Y2.4193
X0.1417Y2.3193
X0.1417Y2.2193
X0.1417Y2.1193
X0.1417Y2.0193
X0.1417Y1.9193
X0.1417Y1.8193
X0.1417Y1.7193
X0.1417Y1.6193
X0.1417Y1.5193
X0.4882Y1.5669
X0.4882Y1.4669
X0.4882Y1.3669
X0.4882Y1.2669
X0.4882Y1.1669
X0.4882Y1.0669
X0.4882Y0.9669
X0.4882Y0.8669
X0.4882Y0.7669
X0.4882Y0.6669
X0.4882Y0.5669
X0.4882Y0.4669
X0.4882Y0.3669
X0.4882Y0.2669
X0.4882Y0.1669
X1.0882Y1.5669
X1.0882Y1.4669
X1.0882Y1.3669
X1.0882Y1.2669
X1.0882Y1.1669
X1.0882Y1.0669
X1.0882Y0.9669
X1.0882Y0.8669
X1.0882Y0.7669
X1.0882Y0.6669
X1.0882Y0.5669
X1.0882Y0.4669
X1.0882Y0.3669
X1.0882Y0.2669
X1.0882Y0.1669
X1.3372Y3.0551
X1.3372Y2.9213
X1.3372Y2.7874
X1.3372Y2.6535
X1.3372Y2.5197
X1.3372Y2.3858
X1.3386Y1.4843
X1.3386Y1.3504
X1.3386Y1.2165
X1.3386Y1.0827
X1.3386Y0.9488
X1.3386Y0.815
X1.5372Y2.9882
X1.5372Y2.8543
X1.5372Y2.7205
X1.5372Y2.5866
X1.5372Y2.4528
X1.5386Y1.4173
X1.5386Y1.2835
X1.5386Y1.1496
X1.5386Y1.0157
X1.5386Y0.8819
T5
X2.2835Y3.3307
X2.2835Y3.1339
X2.2835Y2.937
X2.2835Y2.7402
X2.2835Y2.378
X2.2835Y2.1811
X2.2835Y1.9843
X2.2835Y1.7874
X2.2835Y1.4449
X2.2835Y1.3071
X2.2835Y1.1693
X2.2835Y1.0315
X2.2835Y0.8937
X2.2835Y0.7559
X2.2835Y0.6181
X2.2835Y0.4803
X2.6063Y3.3307
X2.6063Y3.1339
X2.6063Y2.937
X2.6063Y2.7402
X2.6063Y2.378
X2.6063Y2.1811
X2.6063Y1.9843
X2.6063Y1.7874
X2.6063Y1.4449
X2.6063Y1.3071
X2.6063Y1.1693
X2.6063Y1.0315
X2.6063Y0.8937
X2.6063Y0.7559
X2.6063Y0.6181
X2.6063Y0.4803
T6
X1.4843Y3.5394
X1.4843Y3.315
X1.4843Y1.9528
X1.4843Y1.7283
X1.6713Y3.5394
X1.6713Y3.315
X1.6713Y1.9528
X1.6713Y1.7283
X1.8583Y3.5394
X1.8583Y3.315
X1.8583Y1.9528
X1.8583Y1.7283
T0
M30
