%TF.GenerationSoftware,KiCad,Pcbnew,7.0.9*%
%TF.CreationDate,2024-02-10T00:09:35-05:00*%
%TF.ProjectId,BREAD_Slice,42524541-445f-4536-9c69-63652e6b6963,rev?*%
%TF.SameCoordinates,PX74eba40PY8552dc0*%
%TF.FileFunction,Legend,Bot*%
%TF.FilePolarity,Positive*%
%FSLAX46Y46*%
G04 Gerber Fmt 4.6, Leading zero omitted, Abs format (unit mm)*
G04 Created by KiCad (PCBNEW 7.0.9) date 2024-02-10 00:09:35*
%MOMM*%
%LPD*%
G01*
G04 APERTURE LIST*
%ADD10C,0.120000*%
%ADD11C,0.125000*%
%ADD12C,0.150000*%
%ADD13C,0.100000*%
G04 APERTURE END LIST*
D10*
X31900000Y52864450D02*
X33220000Y52864450D01*
X33700000Y52864450D02*
X35020000Y52864450D01*
X35500000Y52864450D02*
X36820000Y52864450D01*
X37300000Y52864450D02*
X38620000Y52864450D01*
X39100000Y52864450D02*
X40420000Y52864450D01*
X40900000Y52864450D02*
X42220000Y52864450D01*
X42700000Y52864450D02*
X44020000Y52864450D01*
X44500000Y52864450D02*
X45820000Y52864450D01*
X46300000Y52864450D02*
X47620000Y52864450D01*
X48100000Y52864450D02*
X49420000Y52864450D01*
X49900000Y52864450D02*
X50100000Y52864450D01*
X50100000Y52864450D02*
X50100000Y51544450D01*
X50100000Y51064450D02*
X50100000Y49744450D01*
X50100000Y49264450D02*
X50100000Y47944450D01*
X50100000Y47464450D02*
X50100000Y46144450D01*
X50100000Y45664450D02*
X50100000Y44344450D01*
X50100000Y43864450D02*
X50100000Y42544450D01*
X50100000Y42064450D02*
X50100000Y40744450D01*
X50100000Y40264450D02*
X50100000Y38944450D01*
X50100000Y38464450D02*
X50100000Y37144450D01*
X50100000Y36664450D02*
X50100000Y35344450D01*
X50100000Y34864450D02*
X50100000Y33544450D01*
X50100000Y33064450D02*
X50100000Y31744450D01*
X50100000Y31264450D02*
X50100000Y29944450D01*
X50100000Y29464450D02*
X50100000Y28144450D01*
X50100000Y27664450D02*
X50100000Y26344450D01*
X50100000Y25864450D02*
X50100000Y24544450D01*
X50100000Y24064450D02*
X50100000Y22744450D01*
X50100000Y22264450D02*
X50100000Y20944450D01*
X50100000Y20464450D02*
X50100000Y19144450D01*
X50100000Y18664450D02*
X50100000Y17344450D01*
X50100000Y16864450D02*
X50100000Y16539050D01*
X50100000Y16539050D02*
X48780000Y16539050D01*
X48300000Y16539050D02*
X46980000Y16539050D01*
X46500000Y16539050D02*
X45180000Y16539050D01*
X44700000Y16539050D02*
X43380000Y16539050D01*
X42900000Y16539050D02*
X41580000Y16539050D01*
X41100000Y16539050D02*
X39780000Y16539050D01*
X39300000Y16539050D02*
X37980000Y16539050D01*
X37500000Y16539050D02*
X36180000Y16539050D01*
X35700000Y16539050D02*
X34380000Y16539050D01*
X33900000Y16539050D02*
X32580000Y16539050D01*
X32100000Y16539050D02*
X31900000Y16539050D01*
X31900000Y16539050D02*
X31900000Y17859050D01*
X31900000Y18339050D02*
X31900000Y19659050D01*
X31900000Y20139050D02*
X31900000Y21459050D01*
X31900000Y21939050D02*
X31900000Y23259050D01*
X31900000Y23739050D02*
X31900000Y25059050D01*
X31900000Y25539050D02*
X31900000Y26859050D01*
X31900000Y27339050D02*
X31900000Y28659050D01*
X31900000Y29139050D02*
X31900000Y30459050D01*
X31900000Y30939050D02*
X31900000Y32259050D01*
X31900000Y32739050D02*
X31900000Y34059050D01*
X31900000Y34539050D02*
X31900000Y35859050D01*
X31900000Y36339050D02*
X31900000Y37659050D01*
X31900000Y38139050D02*
X31900000Y39459050D01*
X31900000Y39939050D02*
X31900000Y41259050D01*
X31900000Y41739050D02*
X31900000Y43059050D01*
X31900000Y43539050D02*
X31900000Y44859050D01*
X31900000Y45339050D02*
X31900000Y46659050D01*
X31900000Y47139050D02*
X31900000Y48459050D01*
X31900000Y48939050D02*
X31900000Y50259050D01*
X31900000Y50739050D02*
X31900000Y52059050D01*
X31900000Y52539050D02*
X31900000Y52864450D01*
X31900000Y93064450D02*
X33220000Y93064450D01*
X33700000Y93064450D02*
X35020000Y93064450D01*
X35500000Y93064450D02*
X36820000Y93064450D01*
X37300000Y93064450D02*
X38620000Y93064450D01*
X39100000Y93064450D02*
X40420000Y93064450D01*
X40900000Y93064450D02*
X42220000Y93064450D01*
X42700000Y93064450D02*
X44020000Y93064450D01*
X44500000Y93064450D02*
X45820000Y93064450D01*
X46300000Y93064450D02*
X47620000Y93064450D01*
X48100000Y93064450D02*
X49420000Y93064450D01*
X49900000Y93064450D02*
X50100000Y93064450D01*
X50100000Y93064450D02*
X50100000Y91744450D01*
X50100000Y91264450D02*
X50100000Y89944450D01*
X50100000Y89464450D02*
X50100000Y88144450D01*
X50100000Y87664450D02*
X50100000Y86344450D01*
X50100000Y85864450D02*
X50100000Y84544450D01*
X50100000Y84064450D02*
X50100000Y82744450D01*
X50100000Y82264450D02*
X50100000Y80944450D01*
X50100000Y80464450D02*
X50100000Y79144450D01*
X50100000Y78664450D02*
X50100000Y77344450D01*
X50100000Y76864450D02*
X50100000Y75544450D01*
X50100000Y75064450D02*
X50100000Y73744450D01*
X50100000Y73264450D02*
X50100000Y71944450D01*
X50100000Y71464450D02*
X50100000Y70144450D01*
X50100000Y69664450D02*
X50100000Y68344450D01*
X50100000Y67864450D02*
X50100000Y66544450D01*
X50100000Y66064450D02*
X50100000Y64744450D01*
X50100000Y64264450D02*
X50100000Y62944450D01*
X50100000Y62464450D02*
X50100000Y61144450D01*
X50100000Y60664450D02*
X50100000Y59344450D01*
X50100000Y58864450D02*
X50100000Y57544450D01*
X50100000Y57064450D02*
X50100000Y56739050D01*
X50100000Y56739050D02*
X48780000Y56739050D01*
X48300000Y56739050D02*
X46980000Y56739050D01*
X46500000Y56739050D02*
X45180000Y56739050D01*
X44700000Y56739050D02*
X43380000Y56739050D01*
X42900000Y56739050D02*
X41580000Y56739050D01*
X41100000Y56739050D02*
X39780000Y56739050D01*
X39300000Y56739050D02*
X37980000Y56739050D01*
X37500000Y56739050D02*
X36180000Y56739050D01*
X35700000Y56739050D02*
X34380000Y56739050D01*
X33900000Y56739050D02*
X32580000Y56739050D01*
X32100000Y56739050D02*
X31900000Y56739050D01*
X31900000Y56739050D02*
X31900000Y58059050D01*
X31900000Y58539050D02*
X31900000Y59859050D01*
X31900000Y60339050D02*
X31900000Y61659050D01*
X31900000Y62139050D02*
X31900000Y63459050D01*
X31900000Y63939050D02*
X31900000Y65259050D01*
X31900000Y65739050D02*
X31900000Y67059050D01*
X31900000Y67539050D02*
X31900000Y68859050D01*
X31900000Y69339050D02*
X31900000Y70659050D01*
X31900000Y71139050D02*
X31900000Y72459050D01*
X31900000Y72939050D02*
X31900000Y74259050D01*
X31900000Y74739050D02*
X31900000Y76059050D01*
X31900000Y76539050D02*
X31900000Y77859050D01*
X31900000Y78339050D02*
X31900000Y79659050D01*
X31900000Y80139050D02*
X31900000Y81459050D01*
X31900000Y81939050D02*
X31900000Y83259050D01*
X31900000Y83739050D02*
X31900000Y85059050D01*
X31900000Y85539050D02*
X31900000Y86859050D01*
X31900000Y87339050D02*
X31900000Y88659050D01*
X31900000Y89139050D02*
X31900000Y90459050D01*
X31900000Y90939050D02*
X31900000Y92259050D01*
X31900000Y92739050D02*
X31900000Y93064450D01*
X6250000Y88500000D02*
X7570000Y88500000D01*
X8050000Y88500000D02*
X9370000Y88500000D01*
X9850000Y88500000D02*
X11170000Y88500000D01*
X11650000Y88500000D02*
X12970000Y88500000D01*
X13450000Y88500000D02*
X14770000Y88500000D01*
X15250000Y88500000D02*
X16570000Y88500000D01*
X17050000Y88500000D02*
X18370000Y88500000D01*
X18850000Y88500000D02*
X19950000Y88500000D01*
X19950000Y88500000D02*
X19950000Y87180000D01*
X19950000Y86700000D02*
X19950000Y85380000D01*
X19950000Y84900000D02*
X19950000Y83580000D01*
X19950000Y83100000D02*
X19950000Y81780000D01*
X19950000Y81300000D02*
X19950000Y79980000D01*
X19950000Y79500000D02*
X19950000Y78180000D01*
X19950000Y77700000D02*
X19950000Y76380000D01*
X19950000Y75900000D02*
X19950000Y74580000D01*
X19950000Y74100000D02*
X19950000Y72780000D01*
X19950000Y72300000D02*
X19950000Y70980000D01*
X19950000Y70500000D02*
X19950000Y70000000D01*
X19950000Y70000000D02*
X18630000Y70000000D01*
X18150000Y70000000D02*
X16830000Y70000000D01*
X16350000Y70000000D02*
X15030000Y70000000D01*
X14550000Y70000000D02*
X13230000Y70000000D01*
X12750000Y70000000D02*
X11430000Y70000000D01*
X10950000Y70000000D02*
X9630000Y70000000D01*
X9150000Y70000000D02*
X7830000Y70000000D01*
X7350000Y70000000D02*
X6250000Y70000000D01*
X6250000Y70000000D02*
X6250000Y71320000D01*
X6250000Y71800000D02*
X6250000Y73120000D01*
X6250000Y73600000D02*
X6250000Y74920000D01*
X6250000Y75400000D02*
X6250000Y76720000D01*
X6250000Y77200000D02*
X6250000Y78520000D01*
X6250000Y79000000D02*
X6250000Y80320000D01*
X6250000Y80800000D02*
X6250000Y82120000D01*
X6250000Y82600000D02*
X6250000Y83920000D01*
X6250000Y84400000D02*
X6250000Y85720000D01*
X6250000Y86200000D02*
X6250000Y87520000D01*
X6250000Y88000000D02*
X6250000Y88500000D01*
D11*
X69477190Y74788096D02*
X69501000Y74811905D01*
X69501000Y74811905D02*
X69524809Y74883334D01*
X69524809Y74883334D02*
X69524809Y74930953D01*
X69524809Y74930953D02*
X69501000Y75002381D01*
X69501000Y75002381D02*
X69453380Y75050000D01*
X69453380Y75050000D02*
X69405761Y75073810D01*
X69405761Y75073810D02*
X69310523Y75097619D01*
X69310523Y75097619D02*
X69239095Y75097619D01*
X69239095Y75097619D02*
X69143857Y75073810D01*
X69143857Y75073810D02*
X69096238Y75050000D01*
X69096238Y75050000D02*
X69048619Y75002381D01*
X69048619Y75002381D02*
X69024809Y74930953D01*
X69024809Y74930953D02*
X69024809Y74883334D01*
X69024809Y74883334D02*
X69048619Y74811905D01*
X69048619Y74811905D02*
X69072428Y74788096D01*
X69024809Y74573810D02*
X69429571Y74573810D01*
X69429571Y74573810D02*
X69477190Y74550000D01*
X69477190Y74550000D02*
X69501000Y74526191D01*
X69501000Y74526191D02*
X69524809Y74478572D01*
X69524809Y74478572D02*
X69524809Y74383334D01*
X69524809Y74383334D02*
X69501000Y74335715D01*
X69501000Y74335715D02*
X69477190Y74311905D01*
X69477190Y74311905D02*
X69429571Y74288096D01*
X69429571Y74288096D02*
X69024809Y74288096D01*
X69501000Y74073809D02*
X69524809Y74002381D01*
X69524809Y74002381D02*
X69524809Y73883333D01*
X69524809Y73883333D02*
X69501000Y73835714D01*
X69501000Y73835714D02*
X69477190Y73811905D01*
X69477190Y73811905D02*
X69429571Y73788095D01*
X69429571Y73788095D02*
X69381952Y73788095D01*
X69381952Y73788095D02*
X69334333Y73811905D01*
X69334333Y73811905D02*
X69310523Y73835714D01*
X69310523Y73835714D02*
X69286714Y73883333D01*
X69286714Y73883333D02*
X69262904Y73978571D01*
X69262904Y73978571D02*
X69239095Y74026190D01*
X69239095Y74026190D02*
X69215285Y74050000D01*
X69215285Y74050000D02*
X69167666Y74073809D01*
X69167666Y74073809D02*
X69120047Y74073809D01*
X69120047Y74073809D02*
X69072428Y74050000D01*
X69072428Y74050000D02*
X69048619Y74026190D01*
X69048619Y74026190D02*
X69024809Y73978571D01*
X69024809Y73978571D02*
X69024809Y73859524D01*
X69024809Y73859524D02*
X69048619Y73788095D01*
X69024809Y73645238D02*
X69024809Y73359524D01*
X69524809Y73502381D02*
X69024809Y73502381D01*
X69024809Y73097620D02*
X69024809Y73002382D01*
X69024809Y73002382D02*
X69048619Y72954763D01*
X69048619Y72954763D02*
X69096238Y72907144D01*
X69096238Y72907144D02*
X69191476Y72883334D01*
X69191476Y72883334D02*
X69358142Y72883334D01*
X69358142Y72883334D02*
X69453380Y72907144D01*
X69453380Y72907144D02*
X69501000Y72954763D01*
X69501000Y72954763D02*
X69524809Y73002382D01*
X69524809Y73002382D02*
X69524809Y73097620D01*
X69524809Y73097620D02*
X69501000Y73145239D01*
X69501000Y73145239D02*
X69453380Y73192858D01*
X69453380Y73192858D02*
X69358142Y73216667D01*
X69358142Y73216667D02*
X69191476Y73216667D01*
X69191476Y73216667D02*
X69096238Y73192858D01*
X69096238Y73192858D02*
X69048619Y73145239D01*
X69048619Y73145239D02*
X69024809Y73097620D01*
X69524809Y72669048D02*
X69024809Y72669048D01*
X69024809Y72669048D02*
X69381952Y72502381D01*
X69381952Y72502381D02*
X69024809Y72335715D01*
X69024809Y72335715D02*
X69524809Y72335715D01*
X69524809Y71716667D02*
X69024809Y71716667D01*
X69024809Y71716667D02*
X69024809Y71526191D01*
X69024809Y71526191D02*
X69048619Y71478572D01*
X69048619Y71478572D02*
X69072428Y71454762D01*
X69072428Y71454762D02*
X69120047Y71430953D01*
X69120047Y71430953D02*
X69191476Y71430953D01*
X69191476Y71430953D02*
X69239095Y71454762D01*
X69239095Y71454762D02*
X69262904Y71478572D01*
X69262904Y71478572D02*
X69286714Y71526191D01*
X69286714Y71526191D02*
X69286714Y71716667D01*
X69024809Y71264286D02*
X69524809Y71145238D01*
X69524809Y71145238D02*
X69167666Y71050000D01*
X69167666Y71050000D02*
X69524809Y70954762D01*
X69524809Y70954762D02*
X69024809Y70835714D01*
X69524809Y70359524D02*
X69286714Y70526190D01*
X69524809Y70645238D02*
X69024809Y70645238D01*
X69024809Y70645238D02*
X69024809Y70454762D01*
X69024809Y70454762D02*
X69048619Y70407143D01*
X69048619Y70407143D02*
X69072428Y70383333D01*
X69072428Y70383333D02*
X69120047Y70359524D01*
X69120047Y70359524D02*
X69191476Y70359524D01*
X69191476Y70359524D02*
X69239095Y70383333D01*
X69239095Y70383333D02*
X69262904Y70407143D01*
X69262904Y70407143D02*
X69286714Y70454762D01*
X69286714Y70454762D02*
X69286714Y70645238D01*
X69524809Y69502381D02*
X69524809Y69788095D01*
X69524809Y69645238D02*
X69024809Y69645238D01*
X69024809Y69645238D02*
X69096238Y69692857D01*
X69096238Y69692857D02*
X69143857Y69740476D01*
X69143857Y69740476D02*
X69167666Y69788095D01*
D12*
X68969104Y23714286D02*
X68969104Y23238096D01*
X69254819Y23809524D02*
X68254819Y23476191D01*
X68254819Y23476191D02*
X69254819Y23142858D01*
X68350057Y22857143D02*
X68302438Y22809524D01*
X68302438Y22809524D02*
X68254819Y22714286D01*
X68254819Y22714286D02*
X68254819Y22476191D01*
X68254819Y22476191D02*
X68302438Y22380953D01*
X68302438Y22380953D02*
X68350057Y22333334D01*
X68350057Y22333334D02*
X68445295Y22285715D01*
X68445295Y22285715D02*
X68540533Y22285715D01*
X68540533Y22285715D02*
X68683390Y22333334D01*
X68683390Y22333334D02*
X69254819Y22904762D01*
X69254819Y22904762D02*
X69254819Y22285715D01*
X67776048Y45373867D02*
X68537953Y45373867D01*
X68157000Y45754820D02*
X68157000Y44992915D01*
X68731009Y19904762D02*
X68778628Y19761905D01*
X68778628Y19761905D02*
X68826247Y19714286D01*
X68826247Y19714286D02*
X68921485Y19666667D01*
X68921485Y19666667D02*
X69064342Y19666667D01*
X69064342Y19666667D02*
X69159580Y19714286D01*
X69159580Y19714286D02*
X69207200Y19761905D01*
X69207200Y19761905D02*
X69254819Y19857143D01*
X69254819Y19857143D02*
X69254819Y20238095D01*
X69254819Y20238095D02*
X68254819Y20238095D01*
X68254819Y20238095D02*
X68254819Y19904762D01*
X68254819Y19904762D02*
X68302438Y19809524D01*
X68302438Y19809524D02*
X68350057Y19761905D01*
X68350057Y19761905D02*
X68445295Y19714286D01*
X68445295Y19714286D02*
X68540533Y19714286D01*
X68540533Y19714286D02*
X68635771Y19761905D01*
X68635771Y19761905D02*
X68683390Y19809524D01*
X68683390Y19809524D02*
X68731009Y19904762D01*
X68731009Y19904762D02*
X68731009Y20238095D01*
X68350057Y19285714D02*
X68302438Y19238095D01*
X68302438Y19238095D02*
X68254819Y19142857D01*
X68254819Y19142857D02*
X68254819Y18904762D01*
X68254819Y18904762D02*
X68302438Y18809524D01*
X68302438Y18809524D02*
X68350057Y18761905D01*
X68350057Y18761905D02*
X68445295Y18714286D01*
X68445295Y18714286D02*
X68540533Y18714286D01*
X68540533Y18714286D02*
X68683390Y18761905D01*
X68683390Y18761905D02*
X69254819Y19333333D01*
X69254819Y19333333D02*
X69254819Y18714286D01*
X68969104Y37614286D02*
X68969104Y37138096D01*
X69254819Y37709524D02*
X68254819Y37376191D01*
X68254819Y37376191D02*
X69254819Y37042858D01*
X69254819Y36185715D02*
X69254819Y36757143D01*
X69254819Y36471429D02*
X68254819Y36471429D01*
X68254819Y36471429D02*
X68397676Y36566667D01*
X68397676Y36566667D02*
X68492914Y36661905D01*
X68492914Y36661905D02*
X68540533Y36757143D01*
X67776048Y69573867D02*
X68537953Y69573867D01*
X68157000Y69954820D02*
X68157000Y69192915D01*
X68254819Y30190477D02*
X68254819Y30666667D01*
X68254819Y30666667D02*
X68731009Y30714286D01*
X68731009Y30714286D02*
X68683390Y30666667D01*
X68683390Y30666667D02*
X68635771Y30571429D01*
X68635771Y30571429D02*
X68635771Y30333334D01*
X68635771Y30333334D02*
X68683390Y30238096D01*
X68683390Y30238096D02*
X68731009Y30190477D01*
X68731009Y30190477D02*
X68826247Y30142858D01*
X68826247Y30142858D02*
X69064342Y30142858D01*
X69064342Y30142858D02*
X69159580Y30190477D01*
X69159580Y30190477D02*
X69207200Y30238096D01*
X69207200Y30238096D02*
X69254819Y30333334D01*
X69254819Y30333334D02*
X69254819Y30571429D01*
X69254819Y30571429D02*
X69207200Y30666667D01*
X69207200Y30666667D02*
X69159580Y30714286D01*
X68254819Y29857143D02*
X69254819Y29523810D01*
X69254819Y29523810D02*
X68254819Y29190477D01*
X68230865Y74980952D02*
X68230865Y74219047D01*
X68254819Y16190477D02*
X68254819Y16666667D01*
X68254819Y16666667D02*
X68731009Y16714286D01*
X68731009Y16714286D02*
X68683390Y16666667D01*
X68683390Y16666667D02*
X68635771Y16571429D01*
X68635771Y16571429D02*
X68635771Y16333334D01*
X68635771Y16333334D02*
X68683390Y16238096D01*
X68683390Y16238096D02*
X68731009Y16190477D01*
X68731009Y16190477D02*
X68826247Y16142858D01*
X68826247Y16142858D02*
X69064342Y16142858D01*
X69064342Y16142858D02*
X69159580Y16190477D01*
X69159580Y16190477D02*
X69207200Y16238096D01*
X69207200Y16238096D02*
X69254819Y16333334D01*
X69254819Y16333334D02*
X69254819Y16571429D01*
X69254819Y16571429D02*
X69207200Y16666667D01*
X69207200Y16666667D02*
X69159580Y16714286D01*
X68254819Y15857143D02*
X69254819Y15523810D01*
X69254819Y15523810D02*
X68254819Y15190477D01*
X15861904Y85940181D02*
X16433332Y85940181D01*
X16147618Y85940181D02*
X16147618Y86940181D01*
X16147618Y86940181D02*
X16242856Y86797324D01*
X16242856Y86797324D02*
X16338094Y86702086D01*
X16338094Y86702086D02*
X16433332Y86654467D01*
X15480951Y86844943D02*
X15433332Y86892562D01*
X15433332Y86892562D02*
X15338094Y86940181D01*
X15338094Y86940181D02*
X15099999Y86940181D01*
X15099999Y86940181D02*
X15004761Y86892562D01*
X15004761Y86892562D02*
X14957142Y86844943D01*
X14957142Y86844943D02*
X14909523Y86749705D01*
X14909523Y86749705D02*
X14909523Y86654467D01*
X14909523Y86654467D02*
X14957142Y86511610D01*
X14957142Y86511610D02*
X15528570Y85940181D01*
X15528570Y85940181D02*
X14909523Y85940181D01*
X14623808Y86940181D02*
X14290475Y85940181D01*
X14290475Y85940181D02*
X13957142Y86940181D01*
X13623808Y86321134D02*
X12861904Y86321134D01*
X12385713Y86606848D02*
X11623809Y86321134D01*
X11623809Y86321134D02*
X12385713Y86035420D01*
X10671428Y86940181D02*
X11147618Y86940181D01*
X11147618Y86940181D02*
X11195237Y86463991D01*
X11195237Y86463991D02*
X11147618Y86511610D01*
X11147618Y86511610D02*
X11052380Y86559229D01*
X11052380Y86559229D02*
X10814285Y86559229D01*
X10814285Y86559229D02*
X10719047Y86511610D01*
X10719047Y86511610D02*
X10671428Y86463991D01*
X10671428Y86463991D02*
X10623809Y86368753D01*
X10623809Y86368753D02*
X10623809Y86130658D01*
X10623809Y86130658D02*
X10671428Y86035420D01*
X10671428Y86035420D02*
X10719047Y85987800D01*
X10719047Y85987800D02*
X10814285Y85940181D01*
X10814285Y85940181D02*
X11052380Y85940181D01*
X11052380Y85940181D02*
X11147618Y85987800D01*
X11147618Y85987800D02*
X11195237Y86035420D01*
X10338094Y86940181D02*
X10004761Y85940181D01*
X10004761Y85940181D02*
X9671428Y86940181D01*
X15885715Y84330181D02*
X16219048Y84806372D01*
X16457143Y84330181D02*
X16457143Y85330181D01*
X16457143Y85330181D02*
X16076191Y85330181D01*
X16076191Y85330181D02*
X15980953Y85282562D01*
X15980953Y85282562D02*
X15933334Y85234943D01*
X15933334Y85234943D02*
X15885715Y85139705D01*
X15885715Y85139705D02*
X15885715Y84996848D01*
X15885715Y84996848D02*
X15933334Y84901610D01*
X15933334Y84901610D02*
X15980953Y84853991D01*
X15980953Y84853991D02*
X16076191Y84806372D01*
X16076191Y84806372D02*
X16457143Y84806372D01*
X15076191Y84377800D02*
X15171429Y84330181D01*
X15171429Y84330181D02*
X15361905Y84330181D01*
X15361905Y84330181D02*
X15457143Y84377800D01*
X15457143Y84377800D02*
X15504762Y84473039D01*
X15504762Y84473039D02*
X15504762Y84853991D01*
X15504762Y84853991D02*
X15457143Y84949229D01*
X15457143Y84949229D02*
X15361905Y84996848D01*
X15361905Y84996848D02*
X15171429Y84996848D01*
X15171429Y84996848D02*
X15076191Y84949229D01*
X15076191Y84949229D02*
X15028572Y84853991D01*
X15028572Y84853991D02*
X15028572Y84758753D01*
X15028572Y84758753D02*
X15504762Y84663515D01*
X14171429Y84996848D02*
X14171429Y84187324D01*
X14171429Y84187324D02*
X14219048Y84092086D01*
X14219048Y84092086D02*
X14266667Y84044467D01*
X14266667Y84044467D02*
X14361905Y83996848D01*
X14361905Y83996848D02*
X14504762Y83996848D01*
X14504762Y83996848D02*
X14600000Y84044467D01*
X14171429Y84377800D02*
X14266667Y84330181D01*
X14266667Y84330181D02*
X14457143Y84330181D01*
X14457143Y84330181D02*
X14552381Y84377800D01*
X14552381Y84377800D02*
X14600000Y84425420D01*
X14600000Y84425420D02*
X14647619Y84520658D01*
X14647619Y84520658D02*
X14647619Y84806372D01*
X14647619Y84806372D02*
X14600000Y84901610D01*
X14600000Y84901610D02*
X14552381Y84949229D01*
X14552381Y84949229D02*
X14457143Y84996848D01*
X14457143Y84996848D02*
X14266667Y84996848D01*
X14266667Y84996848D02*
X14171429Y84949229D01*
X13266667Y84996848D02*
X13266667Y84330181D01*
X13695238Y84996848D02*
X13695238Y84473039D01*
X13695238Y84473039D02*
X13647619Y84377800D01*
X13647619Y84377800D02*
X13552381Y84330181D01*
X13552381Y84330181D02*
X13409524Y84330181D01*
X13409524Y84330181D02*
X13314286Y84377800D01*
X13314286Y84377800D02*
X13266667Y84425420D01*
X12647619Y84330181D02*
X12742857Y84377800D01*
X12742857Y84377800D02*
X12790476Y84473039D01*
X12790476Y84473039D02*
X12790476Y85330181D01*
X11838095Y84330181D02*
X11838095Y84853991D01*
X11838095Y84853991D02*
X11885714Y84949229D01*
X11885714Y84949229D02*
X11980952Y84996848D01*
X11980952Y84996848D02*
X12171428Y84996848D01*
X12171428Y84996848D02*
X12266666Y84949229D01*
X11838095Y84377800D02*
X11933333Y84330181D01*
X11933333Y84330181D02*
X12171428Y84330181D01*
X12171428Y84330181D02*
X12266666Y84377800D01*
X12266666Y84377800D02*
X12314285Y84473039D01*
X12314285Y84473039D02*
X12314285Y84568277D01*
X12314285Y84568277D02*
X12266666Y84663515D01*
X12266666Y84663515D02*
X12171428Y84711134D01*
X12171428Y84711134D02*
X11933333Y84711134D01*
X11933333Y84711134D02*
X11838095Y84758753D01*
X11504761Y84996848D02*
X11123809Y84996848D01*
X11361904Y85330181D02*
X11361904Y84473039D01*
X11361904Y84473039D02*
X11314285Y84377800D01*
X11314285Y84377800D02*
X11219047Y84330181D01*
X11219047Y84330181D02*
X11123809Y84330181D01*
X10647618Y84330181D02*
X10742856Y84377800D01*
X10742856Y84377800D02*
X10790475Y84425420D01*
X10790475Y84425420D02*
X10838094Y84520658D01*
X10838094Y84520658D02*
X10838094Y84806372D01*
X10838094Y84806372D02*
X10790475Y84901610D01*
X10790475Y84901610D02*
X10742856Y84949229D01*
X10742856Y84949229D02*
X10647618Y84996848D01*
X10647618Y84996848D02*
X10504761Y84996848D01*
X10504761Y84996848D02*
X10409523Y84949229D01*
X10409523Y84949229D02*
X10361904Y84901610D01*
X10361904Y84901610D02*
X10314285Y84806372D01*
X10314285Y84806372D02*
X10314285Y84520658D01*
X10314285Y84520658D02*
X10361904Y84425420D01*
X10361904Y84425420D02*
X10409523Y84377800D01*
X10409523Y84377800D02*
X10504761Y84330181D01*
X10504761Y84330181D02*
X10647618Y84330181D01*
X9885713Y84330181D02*
X9885713Y84996848D01*
X9885713Y84806372D02*
X9838094Y84901610D01*
X9838094Y84901610D02*
X9790475Y84949229D01*
X9790475Y84949229D02*
X9695237Y84996848D01*
X9695237Y84996848D02*
X9599999Y84996848D01*
X47190476Y74430181D02*
X47190476Y75430181D01*
X47190476Y75430181D02*
X46857143Y74715896D01*
X46857143Y74715896D02*
X46523810Y75430181D01*
X46523810Y75430181D02*
X46523810Y74430181D01*
X45904762Y74430181D02*
X46000000Y74477800D01*
X46000000Y74477800D02*
X46047619Y74525420D01*
X46047619Y74525420D02*
X46095238Y74620658D01*
X46095238Y74620658D02*
X46095238Y74906372D01*
X46095238Y74906372D02*
X46047619Y75001610D01*
X46047619Y75001610D02*
X46000000Y75049229D01*
X46000000Y75049229D02*
X45904762Y75096848D01*
X45904762Y75096848D02*
X45761905Y75096848D01*
X45761905Y75096848D02*
X45666667Y75049229D01*
X45666667Y75049229D02*
X45619048Y75001610D01*
X45619048Y75001610D02*
X45571429Y74906372D01*
X45571429Y74906372D02*
X45571429Y74620658D01*
X45571429Y74620658D02*
X45619048Y74525420D01*
X45619048Y74525420D02*
X45666667Y74477800D01*
X45666667Y74477800D02*
X45761905Y74430181D01*
X45761905Y74430181D02*
X45904762Y74430181D01*
X45285714Y75096848D02*
X44904762Y75096848D01*
X45142857Y75430181D02*
X45142857Y74573039D01*
X45142857Y74573039D02*
X45095238Y74477800D01*
X45095238Y74477800D02*
X45000000Y74430181D01*
X45000000Y74430181D02*
X44904762Y74430181D01*
X44428571Y74430181D02*
X44523809Y74477800D01*
X44523809Y74477800D02*
X44571428Y74525420D01*
X44571428Y74525420D02*
X44619047Y74620658D01*
X44619047Y74620658D02*
X44619047Y74906372D01*
X44619047Y74906372D02*
X44571428Y75001610D01*
X44571428Y75001610D02*
X44523809Y75049229D01*
X44523809Y75049229D02*
X44428571Y75096848D01*
X44428571Y75096848D02*
X44285714Y75096848D01*
X44285714Y75096848D02*
X44190476Y75049229D01*
X44190476Y75049229D02*
X44142857Y75001610D01*
X44142857Y75001610D02*
X44095238Y74906372D01*
X44095238Y74906372D02*
X44095238Y74620658D01*
X44095238Y74620658D02*
X44142857Y74525420D01*
X44142857Y74525420D02*
X44190476Y74477800D01*
X44190476Y74477800D02*
X44285714Y74430181D01*
X44285714Y74430181D02*
X44428571Y74430181D01*
X43666666Y74430181D02*
X43666666Y75096848D01*
X43666666Y74906372D02*
X43619047Y75001610D01*
X43619047Y75001610D02*
X43571428Y75049229D01*
X43571428Y75049229D02*
X43476190Y75096848D01*
X43476190Y75096848D02*
X43380952Y75096848D01*
X41761904Y74430181D02*
X42333332Y74430181D01*
X42047618Y74430181D02*
X42047618Y75430181D01*
X42047618Y75430181D02*
X42142856Y75287324D01*
X42142856Y75287324D02*
X42238094Y75192086D01*
X42238094Y75192086D02*
X42333332Y75144467D01*
X68302438Y13261905D02*
X68254819Y13357143D01*
X68254819Y13357143D02*
X68254819Y13500000D01*
X68254819Y13500000D02*
X68302438Y13642857D01*
X68302438Y13642857D02*
X68397676Y13738095D01*
X68397676Y13738095D02*
X68492914Y13785714D01*
X68492914Y13785714D02*
X68683390Y13833333D01*
X68683390Y13833333D02*
X68826247Y13833333D01*
X68826247Y13833333D02*
X69016723Y13785714D01*
X69016723Y13785714D02*
X69111961Y13738095D01*
X69111961Y13738095D02*
X69207200Y13642857D01*
X69207200Y13642857D02*
X69254819Y13500000D01*
X69254819Y13500000D02*
X69254819Y13404762D01*
X69254819Y13404762D02*
X69207200Y13261905D01*
X69207200Y13261905D02*
X69159580Y13214286D01*
X69159580Y13214286D02*
X68826247Y13214286D01*
X68826247Y13214286D02*
X68826247Y13404762D01*
X69254819Y12785714D02*
X68254819Y12785714D01*
X68254819Y12785714D02*
X69254819Y12214286D01*
X69254819Y12214286D02*
X68254819Y12214286D01*
X69254819Y11738095D02*
X68254819Y11738095D01*
X68254819Y11738095D02*
X68254819Y11500000D01*
X68254819Y11500000D02*
X68302438Y11357143D01*
X68302438Y11357143D02*
X68397676Y11261905D01*
X68397676Y11261905D02*
X68492914Y11214286D01*
X68492914Y11214286D02*
X68683390Y11166667D01*
X68683390Y11166667D02*
X68826247Y11166667D01*
X68826247Y11166667D02*
X69016723Y11214286D01*
X69016723Y11214286D02*
X69111961Y11261905D01*
X69111961Y11261905D02*
X69207200Y11357143D01*
X69207200Y11357143D02*
X69254819Y11500000D01*
X69254819Y11500000D02*
X69254819Y11738095D01*
X68302438Y27261905D02*
X68254819Y27357143D01*
X68254819Y27357143D02*
X68254819Y27500000D01*
X68254819Y27500000D02*
X68302438Y27642857D01*
X68302438Y27642857D02*
X68397676Y27738095D01*
X68397676Y27738095D02*
X68492914Y27785714D01*
X68492914Y27785714D02*
X68683390Y27833333D01*
X68683390Y27833333D02*
X68826247Y27833333D01*
X68826247Y27833333D02*
X69016723Y27785714D01*
X69016723Y27785714D02*
X69111961Y27738095D01*
X69111961Y27738095D02*
X69207200Y27642857D01*
X69207200Y27642857D02*
X69254819Y27500000D01*
X69254819Y27500000D02*
X69254819Y27404762D01*
X69254819Y27404762D02*
X69207200Y27261905D01*
X69207200Y27261905D02*
X69159580Y27214286D01*
X69159580Y27214286D02*
X68826247Y27214286D01*
X68826247Y27214286D02*
X68826247Y27404762D01*
X69254819Y26785714D02*
X68254819Y26785714D01*
X68254819Y26785714D02*
X69254819Y26214286D01*
X69254819Y26214286D02*
X68254819Y26214286D01*
X69254819Y25738095D02*
X68254819Y25738095D01*
X68254819Y25738095D02*
X68254819Y25500000D01*
X68254819Y25500000D02*
X68302438Y25357143D01*
X68302438Y25357143D02*
X68397676Y25261905D01*
X68397676Y25261905D02*
X68492914Y25214286D01*
X68492914Y25214286D02*
X68683390Y25166667D01*
X68683390Y25166667D02*
X68826247Y25166667D01*
X68826247Y25166667D02*
X69016723Y25214286D01*
X69016723Y25214286D02*
X69111961Y25261905D01*
X69111961Y25261905D02*
X69207200Y25357143D01*
X69207200Y25357143D02*
X69254819Y25500000D01*
X69254819Y25500000D02*
X69254819Y25738095D01*
X69254819Y61828571D02*
X68254819Y61828571D01*
X68254819Y61828571D02*
X68969104Y61495238D01*
X68969104Y61495238D02*
X68254819Y61161905D01*
X68254819Y61161905D02*
X69254819Y61161905D01*
X68350057Y60733333D02*
X68302438Y60685714D01*
X68302438Y60685714D02*
X68254819Y60590476D01*
X68254819Y60590476D02*
X68254819Y60352381D01*
X68254819Y60352381D02*
X68302438Y60257143D01*
X68302438Y60257143D02*
X68350057Y60209524D01*
X68350057Y60209524D02*
X68445295Y60161905D01*
X68445295Y60161905D02*
X68540533Y60161905D01*
X68540533Y60161905D02*
X68683390Y60209524D01*
X68683390Y60209524D02*
X69254819Y60780952D01*
X69254819Y60780952D02*
X69254819Y60161905D01*
X68873866Y59733333D02*
X68873866Y58971428D01*
X22166666Y10740181D02*
X22642856Y10740181D01*
X22642856Y10740181D02*
X22690475Y10263991D01*
X22690475Y10263991D02*
X22642856Y10311610D01*
X22642856Y10311610D02*
X22547618Y10359229D01*
X22547618Y10359229D02*
X22309523Y10359229D01*
X22309523Y10359229D02*
X22214285Y10311610D01*
X22214285Y10311610D02*
X22166666Y10263991D01*
X22166666Y10263991D02*
X22119047Y10168753D01*
X22119047Y10168753D02*
X22119047Y9930658D01*
X22119047Y9930658D02*
X22166666Y9835420D01*
X22166666Y9835420D02*
X22214285Y9787800D01*
X22214285Y9787800D02*
X22309523Y9740181D01*
X22309523Y9740181D02*
X22547618Y9740181D01*
X22547618Y9740181D02*
X22642856Y9787800D01*
X22642856Y9787800D02*
X22690475Y9835420D01*
X21833332Y10740181D02*
X21499999Y9740181D01*
X21499999Y9740181D02*
X21166666Y10740181D01*
X20071427Y9740181D02*
X20071427Y10740181D01*
X19642856Y10644943D02*
X19595237Y10692562D01*
X19595237Y10692562D02*
X19499999Y10740181D01*
X19499999Y10740181D02*
X19261904Y10740181D01*
X19261904Y10740181D02*
X19166666Y10692562D01*
X19166666Y10692562D02*
X19119047Y10644943D01*
X19119047Y10644943D02*
X19071428Y10549705D01*
X19071428Y10549705D02*
X19071428Y10454467D01*
X19071428Y10454467D02*
X19119047Y10311610D01*
X19119047Y10311610D02*
X19690475Y9740181D01*
X19690475Y9740181D02*
X19071428Y9740181D01*
X18071428Y9835420D02*
X18119047Y9787800D01*
X18119047Y9787800D02*
X18261904Y9740181D01*
X18261904Y9740181D02*
X18357142Y9740181D01*
X18357142Y9740181D02*
X18499999Y9787800D01*
X18499999Y9787800D02*
X18595237Y9883039D01*
X18595237Y9883039D02*
X18642856Y9978277D01*
X18642856Y9978277D02*
X18690475Y10168753D01*
X18690475Y10168753D02*
X18690475Y10311610D01*
X18690475Y10311610D02*
X18642856Y10502086D01*
X18642856Y10502086D02*
X18595237Y10597324D01*
X18595237Y10597324D02*
X18499999Y10692562D01*
X18499999Y10692562D02*
X18357142Y10740181D01*
X18357142Y10740181D02*
X18261904Y10740181D01*
X18261904Y10740181D02*
X18119047Y10692562D01*
X18119047Y10692562D02*
X18071428Y10644943D01*
X22952381Y8225420D02*
X23000000Y8177800D01*
X23000000Y8177800D02*
X23142857Y8130181D01*
X23142857Y8130181D02*
X23238095Y8130181D01*
X23238095Y8130181D02*
X23380952Y8177800D01*
X23380952Y8177800D02*
X23476190Y8273039D01*
X23476190Y8273039D02*
X23523809Y8368277D01*
X23523809Y8368277D02*
X23571428Y8558753D01*
X23571428Y8558753D02*
X23571428Y8701610D01*
X23571428Y8701610D02*
X23523809Y8892086D01*
X23523809Y8892086D02*
X23476190Y8987324D01*
X23476190Y8987324D02*
X23380952Y9082562D01*
X23380952Y9082562D02*
X23238095Y9130181D01*
X23238095Y9130181D02*
X23142857Y9130181D01*
X23142857Y9130181D02*
X23000000Y9082562D01*
X23000000Y9082562D02*
X22952381Y9034943D01*
X22380952Y8130181D02*
X22476190Y8177800D01*
X22476190Y8177800D02*
X22523809Y8225420D01*
X22523809Y8225420D02*
X22571428Y8320658D01*
X22571428Y8320658D02*
X22571428Y8606372D01*
X22571428Y8606372D02*
X22523809Y8701610D01*
X22523809Y8701610D02*
X22476190Y8749229D01*
X22476190Y8749229D02*
X22380952Y8796848D01*
X22380952Y8796848D02*
X22238095Y8796848D01*
X22238095Y8796848D02*
X22142857Y8749229D01*
X22142857Y8749229D02*
X22095238Y8701610D01*
X22095238Y8701610D02*
X22047619Y8606372D01*
X22047619Y8606372D02*
X22047619Y8320658D01*
X22047619Y8320658D02*
X22095238Y8225420D01*
X22095238Y8225420D02*
X22142857Y8177800D01*
X22142857Y8177800D02*
X22238095Y8130181D01*
X22238095Y8130181D02*
X22380952Y8130181D01*
X21619047Y8796848D02*
X21619047Y8130181D01*
X21619047Y8701610D02*
X21571428Y8749229D01*
X21571428Y8749229D02*
X21476190Y8796848D01*
X21476190Y8796848D02*
X21333333Y8796848D01*
X21333333Y8796848D02*
X21238095Y8749229D01*
X21238095Y8749229D02*
X21190476Y8653991D01*
X21190476Y8653991D02*
X21190476Y8130181D01*
X20714285Y8796848D02*
X20714285Y8130181D01*
X20714285Y8701610D02*
X20666666Y8749229D01*
X20666666Y8749229D02*
X20571428Y8796848D01*
X20571428Y8796848D02*
X20428571Y8796848D01*
X20428571Y8796848D02*
X20333333Y8749229D01*
X20333333Y8749229D02*
X20285714Y8653991D01*
X20285714Y8653991D02*
X20285714Y8130181D01*
X19428571Y8177800D02*
X19523809Y8130181D01*
X19523809Y8130181D02*
X19714285Y8130181D01*
X19714285Y8130181D02*
X19809523Y8177800D01*
X19809523Y8177800D02*
X19857142Y8273039D01*
X19857142Y8273039D02*
X19857142Y8653991D01*
X19857142Y8653991D02*
X19809523Y8749229D01*
X19809523Y8749229D02*
X19714285Y8796848D01*
X19714285Y8796848D02*
X19523809Y8796848D01*
X19523809Y8796848D02*
X19428571Y8749229D01*
X19428571Y8749229D02*
X19380952Y8653991D01*
X19380952Y8653991D02*
X19380952Y8558753D01*
X19380952Y8558753D02*
X19857142Y8463515D01*
X18523809Y8177800D02*
X18619047Y8130181D01*
X18619047Y8130181D02*
X18809523Y8130181D01*
X18809523Y8130181D02*
X18904761Y8177800D01*
X18904761Y8177800D02*
X18952380Y8225420D01*
X18952380Y8225420D02*
X18999999Y8320658D01*
X18999999Y8320658D02*
X18999999Y8606372D01*
X18999999Y8606372D02*
X18952380Y8701610D01*
X18952380Y8701610D02*
X18904761Y8749229D01*
X18904761Y8749229D02*
X18809523Y8796848D01*
X18809523Y8796848D02*
X18619047Y8796848D01*
X18619047Y8796848D02*
X18523809Y8749229D01*
X18238094Y8796848D02*
X17857142Y8796848D01*
X18095237Y9130181D02*
X18095237Y8273039D01*
X18095237Y8273039D02*
X18047618Y8177800D01*
X18047618Y8177800D02*
X17952380Y8130181D01*
X17952380Y8130181D02*
X17857142Y8130181D01*
X17380951Y8130181D02*
X17476189Y8177800D01*
X17476189Y8177800D02*
X17523808Y8225420D01*
X17523808Y8225420D02*
X17571427Y8320658D01*
X17571427Y8320658D02*
X17571427Y8606372D01*
X17571427Y8606372D02*
X17523808Y8701610D01*
X17523808Y8701610D02*
X17476189Y8749229D01*
X17476189Y8749229D02*
X17380951Y8796848D01*
X17380951Y8796848D02*
X17238094Y8796848D01*
X17238094Y8796848D02*
X17142856Y8749229D01*
X17142856Y8749229D02*
X17095237Y8701610D01*
X17095237Y8701610D02*
X17047618Y8606372D01*
X17047618Y8606372D02*
X17047618Y8320658D01*
X17047618Y8320658D02*
X17095237Y8225420D01*
X17095237Y8225420D02*
X17142856Y8177800D01*
X17142856Y8177800D02*
X17238094Y8130181D01*
X17238094Y8130181D02*
X17380951Y8130181D01*
X16619046Y8130181D02*
X16619046Y8796848D01*
X16619046Y8606372D02*
X16571427Y8701610D01*
X16571427Y8701610D02*
X16523808Y8749229D01*
X16523808Y8749229D02*
X16428570Y8796848D01*
X16428570Y8796848D02*
X16333332Y8796848D01*
X69254819Y86028571D02*
X68254819Y86028571D01*
X68254819Y86028571D02*
X68969104Y85695238D01*
X68969104Y85695238D02*
X68254819Y85361905D01*
X68254819Y85361905D02*
X69254819Y85361905D01*
X69254819Y84361905D02*
X69254819Y84933333D01*
X69254819Y84647619D02*
X68254819Y84647619D01*
X68254819Y84647619D02*
X68397676Y84742857D01*
X68397676Y84742857D02*
X68492914Y84838095D01*
X68492914Y84838095D02*
X68540533Y84933333D01*
X68873866Y83933333D02*
X68873866Y83171428D01*
X68731009Y33804762D02*
X68778628Y33661905D01*
X68778628Y33661905D02*
X68826247Y33614286D01*
X68826247Y33614286D02*
X68921485Y33566667D01*
X68921485Y33566667D02*
X69064342Y33566667D01*
X69064342Y33566667D02*
X69159580Y33614286D01*
X69159580Y33614286D02*
X69207200Y33661905D01*
X69207200Y33661905D02*
X69254819Y33757143D01*
X69254819Y33757143D02*
X69254819Y34138095D01*
X69254819Y34138095D02*
X68254819Y34138095D01*
X68254819Y34138095D02*
X68254819Y33804762D01*
X68254819Y33804762D02*
X68302438Y33709524D01*
X68302438Y33709524D02*
X68350057Y33661905D01*
X68350057Y33661905D02*
X68445295Y33614286D01*
X68445295Y33614286D02*
X68540533Y33614286D01*
X68540533Y33614286D02*
X68635771Y33661905D01*
X68635771Y33661905D02*
X68683390Y33709524D01*
X68683390Y33709524D02*
X68731009Y33804762D01*
X68731009Y33804762D02*
X68731009Y34138095D01*
X69254819Y32614286D02*
X69254819Y33185714D01*
X69254819Y32900000D02*
X68254819Y32900000D01*
X68254819Y32900000D02*
X68397676Y32995238D01*
X68397676Y32995238D02*
X68492914Y33090476D01*
X68492914Y33090476D02*
X68540533Y33185714D01*
X47190476Y34230181D02*
X47190476Y35230181D01*
X47190476Y35230181D02*
X46857143Y34515896D01*
X46857143Y34515896D02*
X46523810Y35230181D01*
X46523810Y35230181D02*
X46523810Y34230181D01*
X45904762Y34230181D02*
X46000000Y34277800D01*
X46000000Y34277800D02*
X46047619Y34325420D01*
X46047619Y34325420D02*
X46095238Y34420658D01*
X46095238Y34420658D02*
X46095238Y34706372D01*
X46095238Y34706372D02*
X46047619Y34801610D01*
X46047619Y34801610D02*
X46000000Y34849229D01*
X46000000Y34849229D02*
X45904762Y34896848D01*
X45904762Y34896848D02*
X45761905Y34896848D01*
X45761905Y34896848D02*
X45666667Y34849229D01*
X45666667Y34849229D02*
X45619048Y34801610D01*
X45619048Y34801610D02*
X45571429Y34706372D01*
X45571429Y34706372D02*
X45571429Y34420658D01*
X45571429Y34420658D02*
X45619048Y34325420D01*
X45619048Y34325420D02*
X45666667Y34277800D01*
X45666667Y34277800D02*
X45761905Y34230181D01*
X45761905Y34230181D02*
X45904762Y34230181D01*
X45285714Y34896848D02*
X44904762Y34896848D01*
X45142857Y35230181D02*
X45142857Y34373039D01*
X45142857Y34373039D02*
X45095238Y34277800D01*
X45095238Y34277800D02*
X45000000Y34230181D01*
X45000000Y34230181D02*
X44904762Y34230181D01*
X44428571Y34230181D02*
X44523809Y34277800D01*
X44523809Y34277800D02*
X44571428Y34325420D01*
X44571428Y34325420D02*
X44619047Y34420658D01*
X44619047Y34420658D02*
X44619047Y34706372D01*
X44619047Y34706372D02*
X44571428Y34801610D01*
X44571428Y34801610D02*
X44523809Y34849229D01*
X44523809Y34849229D02*
X44428571Y34896848D01*
X44428571Y34896848D02*
X44285714Y34896848D01*
X44285714Y34896848D02*
X44190476Y34849229D01*
X44190476Y34849229D02*
X44142857Y34801610D01*
X44142857Y34801610D02*
X44095238Y34706372D01*
X44095238Y34706372D02*
X44095238Y34420658D01*
X44095238Y34420658D02*
X44142857Y34325420D01*
X44142857Y34325420D02*
X44190476Y34277800D01*
X44190476Y34277800D02*
X44285714Y34230181D01*
X44285714Y34230181D02*
X44428571Y34230181D01*
X43666666Y34230181D02*
X43666666Y34896848D01*
X43666666Y34706372D02*
X43619047Y34801610D01*
X43619047Y34801610D02*
X43571428Y34849229D01*
X43571428Y34849229D02*
X43476190Y34896848D01*
X43476190Y34896848D02*
X43380952Y34896848D01*
X42333332Y35134943D02*
X42285713Y35182562D01*
X42285713Y35182562D02*
X42190475Y35230181D01*
X42190475Y35230181D02*
X41952380Y35230181D01*
X41952380Y35230181D02*
X41857142Y35182562D01*
X41857142Y35182562D02*
X41809523Y35134943D01*
X41809523Y35134943D02*
X41761904Y35039705D01*
X41761904Y35039705D02*
X41761904Y34944467D01*
X41761904Y34944467D02*
X41809523Y34801610D01*
X41809523Y34801610D02*
X42380951Y34230181D01*
X42380951Y34230181D02*
X41761904Y34230181D01*
X68230865Y50780952D02*
X68230865Y50019047D01*
X69254819Y56828571D02*
X68254819Y56828571D01*
X68254819Y56828571D02*
X68969104Y56495238D01*
X68969104Y56495238D02*
X68254819Y56161905D01*
X68254819Y56161905D02*
X69254819Y56161905D01*
X68350057Y55733333D02*
X68302438Y55685714D01*
X68302438Y55685714D02*
X68254819Y55590476D01*
X68254819Y55590476D02*
X68254819Y55352381D01*
X68254819Y55352381D02*
X68302438Y55257143D01*
X68302438Y55257143D02*
X68350057Y55209524D01*
X68350057Y55209524D02*
X68445295Y55161905D01*
X68445295Y55161905D02*
X68540533Y55161905D01*
X68540533Y55161905D02*
X68683390Y55209524D01*
X68683390Y55209524D02*
X69254819Y55780952D01*
X69254819Y55780952D02*
X69254819Y55161905D01*
X68873866Y54733333D02*
X68873866Y53971428D01*
X69254819Y54352381D02*
X68492914Y54352381D01*
X69254819Y81028571D02*
X68254819Y81028571D01*
X68254819Y81028571D02*
X68969104Y80695238D01*
X68969104Y80695238D02*
X68254819Y80361905D01*
X68254819Y80361905D02*
X69254819Y80361905D01*
X69254819Y79361905D02*
X69254819Y79933333D01*
X69254819Y79647619D02*
X68254819Y79647619D01*
X68254819Y79647619D02*
X68397676Y79742857D01*
X68397676Y79742857D02*
X68492914Y79838095D01*
X68492914Y79838095D02*
X68540533Y79933333D01*
X68873866Y78933333D02*
X68873866Y78171428D01*
X69254819Y78552381D02*
X68492914Y78552381D01*
D11*
X69477190Y50588096D02*
X69501000Y50611905D01*
X69501000Y50611905D02*
X69524809Y50683334D01*
X69524809Y50683334D02*
X69524809Y50730953D01*
X69524809Y50730953D02*
X69501000Y50802381D01*
X69501000Y50802381D02*
X69453380Y50850000D01*
X69453380Y50850000D02*
X69405761Y50873810D01*
X69405761Y50873810D02*
X69310523Y50897619D01*
X69310523Y50897619D02*
X69239095Y50897619D01*
X69239095Y50897619D02*
X69143857Y50873810D01*
X69143857Y50873810D02*
X69096238Y50850000D01*
X69096238Y50850000D02*
X69048619Y50802381D01*
X69048619Y50802381D02*
X69024809Y50730953D01*
X69024809Y50730953D02*
X69024809Y50683334D01*
X69024809Y50683334D02*
X69048619Y50611905D01*
X69048619Y50611905D02*
X69072428Y50588096D01*
X69024809Y50373810D02*
X69429571Y50373810D01*
X69429571Y50373810D02*
X69477190Y50350000D01*
X69477190Y50350000D02*
X69501000Y50326191D01*
X69501000Y50326191D02*
X69524809Y50278572D01*
X69524809Y50278572D02*
X69524809Y50183334D01*
X69524809Y50183334D02*
X69501000Y50135715D01*
X69501000Y50135715D02*
X69477190Y50111905D01*
X69477190Y50111905D02*
X69429571Y50088096D01*
X69429571Y50088096D02*
X69024809Y50088096D01*
X69501000Y49873809D02*
X69524809Y49802381D01*
X69524809Y49802381D02*
X69524809Y49683333D01*
X69524809Y49683333D02*
X69501000Y49635714D01*
X69501000Y49635714D02*
X69477190Y49611905D01*
X69477190Y49611905D02*
X69429571Y49588095D01*
X69429571Y49588095D02*
X69381952Y49588095D01*
X69381952Y49588095D02*
X69334333Y49611905D01*
X69334333Y49611905D02*
X69310523Y49635714D01*
X69310523Y49635714D02*
X69286714Y49683333D01*
X69286714Y49683333D02*
X69262904Y49778571D01*
X69262904Y49778571D02*
X69239095Y49826190D01*
X69239095Y49826190D02*
X69215285Y49850000D01*
X69215285Y49850000D02*
X69167666Y49873809D01*
X69167666Y49873809D02*
X69120047Y49873809D01*
X69120047Y49873809D02*
X69072428Y49850000D01*
X69072428Y49850000D02*
X69048619Y49826190D01*
X69048619Y49826190D02*
X69024809Y49778571D01*
X69024809Y49778571D02*
X69024809Y49659524D01*
X69024809Y49659524D02*
X69048619Y49588095D01*
X69024809Y49445238D02*
X69024809Y49159524D01*
X69524809Y49302381D02*
X69024809Y49302381D01*
X69024809Y48897620D02*
X69024809Y48802382D01*
X69024809Y48802382D02*
X69048619Y48754763D01*
X69048619Y48754763D02*
X69096238Y48707144D01*
X69096238Y48707144D02*
X69191476Y48683334D01*
X69191476Y48683334D02*
X69358142Y48683334D01*
X69358142Y48683334D02*
X69453380Y48707144D01*
X69453380Y48707144D02*
X69501000Y48754763D01*
X69501000Y48754763D02*
X69524809Y48802382D01*
X69524809Y48802382D02*
X69524809Y48897620D01*
X69524809Y48897620D02*
X69501000Y48945239D01*
X69501000Y48945239D02*
X69453380Y48992858D01*
X69453380Y48992858D02*
X69358142Y49016667D01*
X69358142Y49016667D02*
X69191476Y49016667D01*
X69191476Y49016667D02*
X69096238Y48992858D01*
X69096238Y48992858D02*
X69048619Y48945239D01*
X69048619Y48945239D02*
X69024809Y48897620D01*
X69524809Y48469048D02*
X69024809Y48469048D01*
X69024809Y48469048D02*
X69381952Y48302381D01*
X69381952Y48302381D02*
X69024809Y48135715D01*
X69024809Y48135715D02*
X69524809Y48135715D01*
X69524809Y47516667D02*
X69024809Y47516667D01*
X69024809Y47516667D02*
X69024809Y47326191D01*
X69024809Y47326191D02*
X69048619Y47278572D01*
X69048619Y47278572D02*
X69072428Y47254762D01*
X69072428Y47254762D02*
X69120047Y47230953D01*
X69120047Y47230953D02*
X69191476Y47230953D01*
X69191476Y47230953D02*
X69239095Y47254762D01*
X69239095Y47254762D02*
X69262904Y47278572D01*
X69262904Y47278572D02*
X69286714Y47326191D01*
X69286714Y47326191D02*
X69286714Y47516667D01*
X69024809Y47064286D02*
X69524809Y46945238D01*
X69524809Y46945238D02*
X69167666Y46850000D01*
X69167666Y46850000D02*
X69524809Y46754762D01*
X69524809Y46754762D02*
X69024809Y46635714D01*
X69524809Y46159524D02*
X69286714Y46326190D01*
X69524809Y46445238D02*
X69024809Y46445238D01*
X69024809Y46445238D02*
X69024809Y46254762D01*
X69024809Y46254762D02*
X69048619Y46207143D01*
X69048619Y46207143D02*
X69072428Y46183333D01*
X69072428Y46183333D02*
X69120047Y46159524D01*
X69120047Y46159524D02*
X69191476Y46159524D01*
X69191476Y46159524D02*
X69239095Y46183333D01*
X69239095Y46183333D02*
X69262904Y46207143D01*
X69262904Y46207143D02*
X69286714Y46254762D01*
X69286714Y46254762D02*
X69286714Y46445238D01*
X69072428Y45588095D02*
X69048619Y45564286D01*
X69048619Y45564286D02*
X69024809Y45516667D01*
X69024809Y45516667D02*
X69024809Y45397619D01*
X69024809Y45397619D02*
X69048619Y45350000D01*
X69048619Y45350000D02*
X69072428Y45326191D01*
X69072428Y45326191D02*
X69120047Y45302381D01*
X69120047Y45302381D02*
X69167666Y45302381D01*
X69167666Y45302381D02*
X69239095Y45326191D01*
X69239095Y45326191D02*
X69524809Y45611905D01*
X69524809Y45611905D02*
X69524809Y45302381D01*
D12*
X9861904Y73745181D02*
X9861904Y72935658D01*
X9861904Y72935658D02*
X9814285Y72840420D01*
X9814285Y72840420D02*
X9766666Y72792800D01*
X9766666Y72792800D02*
X9671428Y72745181D01*
X9671428Y72745181D02*
X9480952Y72745181D01*
X9480952Y72745181D02*
X9385714Y72792800D01*
X9385714Y72792800D02*
X9338095Y72840420D01*
X9338095Y72840420D02*
X9290476Y72935658D01*
X9290476Y72935658D02*
X9290476Y73745181D01*
X8861904Y73649943D02*
X8814285Y73697562D01*
X8814285Y73697562D02*
X8719047Y73745181D01*
X8719047Y73745181D02*
X8480952Y73745181D01*
X8480952Y73745181D02*
X8385714Y73697562D01*
X8385714Y73697562D02*
X8338095Y73649943D01*
X8338095Y73649943D02*
X8290476Y73554705D01*
X8290476Y73554705D02*
X8290476Y73459467D01*
X8290476Y73459467D02*
X8338095Y73316610D01*
X8338095Y73316610D02*
X8909523Y72745181D01*
X8909523Y72745181D02*
X8290476Y72745181D01*
X37631666Y79690420D02*
X37679285Y79642800D01*
X37679285Y79642800D02*
X37822142Y79595181D01*
X37822142Y79595181D02*
X37917380Y79595181D01*
X37917380Y79595181D02*
X38060237Y79642800D01*
X38060237Y79642800D02*
X38155475Y79738039D01*
X38155475Y79738039D02*
X38203094Y79833277D01*
X38203094Y79833277D02*
X38250713Y80023753D01*
X38250713Y80023753D02*
X38250713Y80166610D01*
X38250713Y80166610D02*
X38203094Y80357086D01*
X38203094Y80357086D02*
X38155475Y80452324D01*
X38155475Y80452324D02*
X38060237Y80547562D01*
X38060237Y80547562D02*
X37917380Y80595181D01*
X37917380Y80595181D02*
X37822142Y80595181D01*
X37822142Y80595181D02*
X37679285Y80547562D01*
X37679285Y80547562D02*
X37631666Y80499943D01*
X36774523Y80595181D02*
X36964999Y80595181D01*
X36964999Y80595181D02*
X37060237Y80547562D01*
X37060237Y80547562D02*
X37107856Y80499943D01*
X37107856Y80499943D02*
X37203094Y80357086D01*
X37203094Y80357086D02*
X37250713Y80166610D01*
X37250713Y80166610D02*
X37250713Y79785658D01*
X37250713Y79785658D02*
X37203094Y79690420D01*
X37203094Y79690420D02*
X37155475Y79642800D01*
X37155475Y79642800D02*
X37060237Y79595181D01*
X37060237Y79595181D02*
X36869761Y79595181D01*
X36869761Y79595181D02*
X36774523Y79642800D01*
X36774523Y79642800D02*
X36726904Y79690420D01*
X36726904Y79690420D02*
X36679285Y79785658D01*
X36679285Y79785658D02*
X36679285Y80023753D01*
X36679285Y80023753D02*
X36726904Y80118991D01*
X36726904Y80118991D02*
X36774523Y80166610D01*
X36774523Y80166610D02*
X36869761Y80214229D01*
X36869761Y80214229D02*
X37060237Y80214229D01*
X37060237Y80214229D02*
X37155475Y80166610D01*
X37155475Y80166610D02*
X37203094Y80118991D01*
X37203094Y80118991D02*
X37250713Y80023753D01*
X18566666Y78640420D02*
X18614285Y78592800D01*
X18614285Y78592800D02*
X18757142Y78545181D01*
X18757142Y78545181D02*
X18852380Y78545181D01*
X18852380Y78545181D02*
X18995237Y78592800D01*
X18995237Y78592800D02*
X19090475Y78688039D01*
X19090475Y78688039D02*
X19138094Y78783277D01*
X19138094Y78783277D02*
X19185713Y78973753D01*
X19185713Y78973753D02*
X19185713Y79116610D01*
X19185713Y79116610D02*
X19138094Y79307086D01*
X19138094Y79307086D02*
X19090475Y79402324D01*
X19090475Y79402324D02*
X18995237Y79497562D01*
X18995237Y79497562D02*
X18852380Y79545181D01*
X18852380Y79545181D02*
X18757142Y79545181D01*
X18757142Y79545181D02*
X18614285Y79497562D01*
X18614285Y79497562D02*
X18566666Y79449943D01*
X17661904Y79545181D02*
X18138094Y79545181D01*
X18138094Y79545181D02*
X18185713Y79068991D01*
X18185713Y79068991D02*
X18138094Y79116610D01*
X18138094Y79116610D02*
X18042856Y79164229D01*
X18042856Y79164229D02*
X17804761Y79164229D01*
X17804761Y79164229D02*
X17709523Y79116610D01*
X17709523Y79116610D02*
X17661904Y79068991D01*
X17661904Y79068991D02*
X17614285Y78973753D01*
X17614285Y78973753D02*
X17614285Y78735658D01*
X17614285Y78735658D02*
X17661904Y78640420D01*
X17661904Y78640420D02*
X17709523Y78592800D01*
X17709523Y78592800D02*
X17804761Y78545181D01*
X17804761Y78545181D02*
X18042856Y78545181D01*
X18042856Y78545181D02*
X18138094Y78592800D01*
X18138094Y78592800D02*
X18185713Y78640420D01*
X18566666Y81640420D02*
X18614285Y81592800D01*
X18614285Y81592800D02*
X18757142Y81545181D01*
X18757142Y81545181D02*
X18852380Y81545181D01*
X18852380Y81545181D02*
X18995237Y81592800D01*
X18995237Y81592800D02*
X19090475Y81688039D01*
X19090475Y81688039D02*
X19138094Y81783277D01*
X19138094Y81783277D02*
X19185713Y81973753D01*
X19185713Y81973753D02*
X19185713Y82116610D01*
X19185713Y82116610D02*
X19138094Y82307086D01*
X19138094Y82307086D02*
X19090475Y82402324D01*
X19090475Y82402324D02*
X18995237Y82497562D01*
X18995237Y82497562D02*
X18852380Y82545181D01*
X18852380Y82545181D02*
X18757142Y82545181D01*
X18757142Y82545181D02*
X18614285Y82497562D01*
X18614285Y82497562D02*
X18566666Y82449943D01*
X18233332Y82545181D02*
X17566666Y82545181D01*
X17566666Y82545181D02*
X17995237Y81545181D01*
X20819523Y2245181D02*
X20819523Y1530896D01*
X20819523Y1530896D02*
X20867142Y1388039D01*
X20867142Y1388039D02*
X20962380Y1292800D01*
X20962380Y1292800D02*
X21105237Y1245181D01*
X21105237Y1245181D02*
X21200475Y1245181D01*
X19819523Y1245181D02*
X20390951Y1245181D01*
X20105237Y1245181D02*
X20105237Y2245181D01*
X20105237Y2245181D02*
X20200475Y2102324D01*
X20200475Y2102324D02*
X20295713Y2007086D01*
X20295713Y2007086D02*
X20390951Y1959467D01*
X19248094Y1816610D02*
X19343332Y1864229D01*
X19343332Y1864229D02*
X19390951Y1911848D01*
X19390951Y1911848D02*
X19438570Y2007086D01*
X19438570Y2007086D02*
X19438570Y2054705D01*
X19438570Y2054705D02*
X19390951Y2149943D01*
X19390951Y2149943D02*
X19343332Y2197562D01*
X19343332Y2197562D02*
X19248094Y2245181D01*
X19248094Y2245181D02*
X19057618Y2245181D01*
X19057618Y2245181D02*
X18962380Y2197562D01*
X18962380Y2197562D02*
X18914761Y2149943D01*
X18914761Y2149943D02*
X18867142Y2054705D01*
X18867142Y2054705D02*
X18867142Y2007086D01*
X18867142Y2007086D02*
X18914761Y1911848D01*
X18914761Y1911848D02*
X18962380Y1864229D01*
X18962380Y1864229D02*
X19057618Y1816610D01*
X19057618Y1816610D02*
X19248094Y1816610D01*
X19248094Y1816610D02*
X19343332Y1768991D01*
X19343332Y1768991D02*
X19390951Y1721372D01*
X19390951Y1721372D02*
X19438570Y1626134D01*
X19438570Y1626134D02*
X19438570Y1435658D01*
X19438570Y1435658D02*
X19390951Y1340420D01*
X19390951Y1340420D02*
X19343332Y1292800D01*
X19343332Y1292800D02*
X19248094Y1245181D01*
X19248094Y1245181D02*
X19057618Y1245181D01*
X19057618Y1245181D02*
X18962380Y1292800D01*
X18962380Y1292800D02*
X18914761Y1340420D01*
X18914761Y1340420D02*
X18867142Y1435658D01*
X18867142Y1435658D02*
X18867142Y1626134D01*
X18867142Y1626134D02*
X18914761Y1721372D01*
X18914761Y1721372D02*
X18962380Y1768991D01*
X18962380Y1768991D02*
X19057618Y1816610D01*
X47466666Y62545181D02*
X47799999Y63021372D01*
X48038094Y62545181D02*
X48038094Y63545181D01*
X48038094Y63545181D02*
X47657142Y63545181D01*
X47657142Y63545181D02*
X47561904Y63497562D01*
X47561904Y63497562D02*
X47514285Y63449943D01*
X47514285Y63449943D02*
X47466666Y63354705D01*
X47466666Y63354705D02*
X47466666Y63211848D01*
X47466666Y63211848D02*
X47514285Y63116610D01*
X47514285Y63116610D02*
X47561904Y63068991D01*
X47561904Y63068991D02*
X47657142Y63021372D01*
X47657142Y63021372D02*
X48038094Y63021372D01*
X46514285Y62545181D02*
X47085713Y62545181D01*
X46799999Y62545181D02*
X46799999Y63545181D01*
X46799999Y63545181D02*
X46895237Y63402324D01*
X46895237Y63402324D02*
X46990475Y63307086D01*
X46990475Y63307086D02*
X47085713Y63259467D01*
X37709166Y39790420D02*
X37756785Y39742800D01*
X37756785Y39742800D02*
X37899642Y39695181D01*
X37899642Y39695181D02*
X37994880Y39695181D01*
X37994880Y39695181D02*
X38137737Y39742800D01*
X38137737Y39742800D02*
X38232975Y39838039D01*
X38232975Y39838039D02*
X38280594Y39933277D01*
X38280594Y39933277D02*
X38328213Y40123753D01*
X38328213Y40123753D02*
X38328213Y40266610D01*
X38328213Y40266610D02*
X38280594Y40457086D01*
X38280594Y40457086D02*
X38232975Y40552324D01*
X38232975Y40552324D02*
X38137737Y40647562D01*
X38137737Y40647562D02*
X37994880Y40695181D01*
X37994880Y40695181D02*
X37899642Y40695181D01*
X37899642Y40695181D02*
X37756785Y40647562D01*
X37756785Y40647562D02*
X37709166Y40599943D01*
X37232975Y39695181D02*
X37042499Y39695181D01*
X37042499Y39695181D02*
X36947261Y39742800D01*
X36947261Y39742800D02*
X36899642Y39790420D01*
X36899642Y39790420D02*
X36804404Y39933277D01*
X36804404Y39933277D02*
X36756785Y40123753D01*
X36756785Y40123753D02*
X36756785Y40504705D01*
X36756785Y40504705D02*
X36804404Y40599943D01*
X36804404Y40599943D02*
X36852023Y40647562D01*
X36852023Y40647562D02*
X36947261Y40695181D01*
X36947261Y40695181D02*
X37137737Y40695181D01*
X37137737Y40695181D02*
X37232975Y40647562D01*
X37232975Y40647562D02*
X37280594Y40599943D01*
X37280594Y40599943D02*
X37328213Y40504705D01*
X37328213Y40504705D02*
X37328213Y40266610D01*
X37328213Y40266610D02*
X37280594Y40171372D01*
X37280594Y40171372D02*
X37232975Y40123753D01*
X37232975Y40123753D02*
X37137737Y40076134D01*
X37137737Y40076134D02*
X36947261Y40076134D01*
X36947261Y40076134D02*
X36852023Y40123753D01*
X36852023Y40123753D02*
X36804404Y40171372D01*
X36804404Y40171372D02*
X36756785Y40266610D01*
X18366666Y75145181D02*
X18842856Y75145181D01*
X18842856Y75145181D02*
X18842856Y76145181D01*
X17509523Y75145181D02*
X18080951Y75145181D01*
X17795237Y75145181D02*
X17795237Y76145181D01*
X17795237Y76145181D02*
X17890475Y76002324D01*
X17890475Y76002324D02*
X17985713Y75907086D01*
X17985713Y75907086D02*
X18080951Y75859467D01*
X9966666Y80490420D02*
X10014285Y80442800D01*
X10014285Y80442800D02*
X10157142Y80395181D01*
X10157142Y80395181D02*
X10252380Y80395181D01*
X10252380Y80395181D02*
X10395237Y80442800D01*
X10395237Y80442800D02*
X10490475Y80538039D01*
X10490475Y80538039D02*
X10538094Y80633277D01*
X10538094Y80633277D02*
X10585713Y80823753D01*
X10585713Y80823753D02*
X10585713Y80966610D01*
X10585713Y80966610D02*
X10538094Y81157086D01*
X10538094Y81157086D02*
X10490475Y81252324D01*
X10490475Y81252324D02*
X10395237Y81347562D01*
X10395237Y81347562D02*
X10252380Y81395181D01*
X10252380Y81395181D02*
X10157142Y81395181D01*
X10157142Y81395181D02*
X10014285Y81347562D01*
X10014285Y81347562D02*
X9966666Y81299943D01*
X9014285Y80395181D02*
X9585713Y80395181D01*
X9299999Y80395181D02*
X9299999Y81395181D01*
X9299999Y81395181D02*
X9395237Y81252324D01*
X9395237Y81252324D02*
X9490475Y81157086D01*
X9490475Y81157086D02*
X9585713Y81109467D01*
X47466666Y22645181D02*
X47799999Y23121372D01*
X48038094Y22645181D02*
X48038094Y23645181D01*
X48038094Y23645181D02*
X47657142Y23645181D01*
X47657142Y23645181D02*
X47561904Y23597562D01*
X47561904Y23597562D02*
X47514285Y23549943D01*
X47514285Y23549943D02*
X47466666Y23454705D01*
X47466666Y23454705D02*
X47466666Y23311848D01*
X47466666Y23311848D02*
X47514285Y23216610D01*
X47514285Y23216610D02*
X47561904Y23168991D01*
X47561904Y23168991D02*
X47657142Y23121372D01*
X47657142Y23121372D02*
X48038094Y23121372D01*
X47085713Y23549943D02*
X47038094Y23597562D01*
X47038094Y23597562D02*
X46942856Y23645181D01*
X46942856Y23645181D02*
X46704761Y23645181D01*
X46704761Y23645181D02*
X46609523Y23597562D01*
X46609523Y23597562D02*
X46561904Y23549943D01*
X46561904Y23549943D02*
X46514285Y23454705D01*
X46514285Y23454705D02*
X46514285Y23359467D01*
X46514285Y23359467D02*
X46561904Y23216610D01*
X46561904Y23216610D02*
X47133332Y22645181D01*
X47133332Y22645181D02*
X46514285Y22645181D01*
X38122857Y17790420D02*
X38170476Y17742800D01*
X38170476Y17742800D02*
X38313333Y17695181D01*
X38313333Y17695181D02*
X38408571Y17695181D01*
X38408571Y17695181D02*
X38551428Y17742800D01*
X38551428Y17742800D02*
X38646666Y17838039D01*
X38646666Y17838039D02*
X38694285Y17933277D01*
X38694285Y17933277D02*
X38741904Y18123753D01*
X38741904Y18123753D02*
X38741904Y18266610D01*
X38741904Y18266610D02*
X38694285Y18457086D01*
X38694285Y18457086D02*
X38646666Y18552324D01*
X38646666Y18552324D02*
X38551428Y18647562D01*
X38551428Y18647562D02*
X38408571Y18695181D01*
X38408571Y18695181D02*
X38313333Y18695181D01*
X38313333Y18695181D02*
X38170476Y18647562D01*
X38170476Y18647562D02*
X38122857Y18599943D01*
X37170476Y17695181D02*
X37741904Y17695181D01*
X37456190Y17695181D02*
X37456190Y18695181D01*
X37456190Y18695181D02*
X37551428Y18552324D01*
X37551428Y18552324D02*
X37646666Y18457086D01*
X37646666Y18457086D02*
X37741904Y18409467D01*
X36551428Y18695181D02*
X36456190Y18695181D01*
X36456190Y18695181D02*
X36360952Y18647562D01*
X36360952Y18647562D02*
X36313333Y18599943D01*
X36313333Y18599943D02*
X36265714Y18504705D01*
X36265714Y18504705D02*
X36218095Y18314229D01*
X36218095Y18314229D02*
X36218095Y18076134D01*
X36218095Y18076134D02*
X36265714Y17885658D01*
X36265714Y17885658D02*
X36313333Y17790420D01*
X36313333Y17790420D02*
X36360952Y17742800D01*
X36360952Y17742800D02*
X36456190Y17695181D01*
X36456190Y17695181D02*
X36551428Y17695181D01*
X36551428Y17695181D02*
X36646666Y17742800D01*
X36646666Y17742800D02*
X36694285Y17790420D01*
X36694285Y17790420D02*
X36741904Y17885658D01*
X36741904Y17885658D02*
X36789523Y18076134D01*
X36789523Y18076134D02*
X36789523Y18314229D01*
X36789523Y18314229D02*
X36741904Y18504705D01*
X36741904Y18504705D02*
X36694285Y18599943D01*
X36694285Y18599943D02*
X36646666Y18647562D01*
X36646666Y18647562D02*
X36551428Y18695181D01*
X42966666Y30840420D02*
X43014285Y30792800D01*
X43014285Y30792800D02*
X43157142Y30745181D01*
X43157142Y30745181D02*
X43252380Y30745181D01*
X43252380Y30745181D02*
X43395237Y30792800D01*
X43395237Y30792800D02*
X43490475Y30888039D01*
X43490475Y30888039D02*
X43538094Y30983277D01*
X43538094Y30983277D02*
X43585713Y31173753D01*
X43585713Y31173753D02*
X43585713Y31316610D01*
X43585713Y31316610D02*
X43538094Y31507086D01*
X43538094Y31507086D02*
X43490475Y31602324D01*
X43490475Y31602324D02*
X43395237Y31697562D01*
X43395237Y31697562D02*
X43252380Y31745181D01*
X43252380Y31745181D02*
X43157142Y31745181D01*
X43157142Y31745181D02*
X43014285Y31697562D01*
X43014285Y31697562D02*
X42966666Y31649943D01*
X42633332Y31745181D02*
X42014285Y31745181D01*
X42014285Y31745181D02*
X42347618Y31364229D01*
X42347618Y31364229D02*
X42204761Y31364229D01*
X42204761Y31364229D02*
X42109523Y31316610D01*
X42109523Y31316610D02*
X42061904Y31268991D01*
X42061904Y31268991D02*
X42014285Y31173753D01*
X42014285Y31173753D02*
X42014285Y30935658D01*
X42014285Y30935658D02*
X42061904Y30840420D01*
X42061904Y30840420D02*
X42109523Y30792800D01*
X42109523Y30792800D02*
X42204761Y30745181D01*
X42204761Y30745181D02*
X42490475Y30745181D01*
X42490475Y30745181D02*
X42585713Y30792800D01*
X42585713Y30792800D02*
X42633332Y30840420D01*
X48242857Y25440420D02*
X48290476Y25392800D01*
X48290476Y25392800D02*
X48433333Y25345181D01*
X48433333Y25345181D02*
X48528571Y25345181D01*
X48528571Y25345181D02*
X48671428Y25392800D01*
X48671428Y25392800D02*
X48766666Y25488039D01*
X48766666Y25488039D02*
X48814285Y25583277D01*
X48814285Y25583277D02*
X48861904Y25773753D01*
X48861904Y25773753D02*
X48861904Y25916610D01*
X48861904Y25916610D02*
X48814285Y26107086D01*
X48814285Y26107086D02*
X48766666Y26202324D01*
X48766666Y26202324D02*
X48671428Y26297562D01*
X48671428Y26297562D02*
X48528571Y26345181D01*
X48528571Y26345181D02*
X48433333Y26345181D01*
X48433333Y26345181D02*
X48290476Y26297562D01*
X48290476Y26297562D02*
X48242857Y26249943D01*
X47290476Y25345181D02*
X47861904Y25345181D01*
X47576190Y25345181D02*
X47576190Y26345181D01*
X47576190Y26345181D02*
X47671428Y26202324D01*
X47671428Y26202324D02*
X47766666Y26107086D01*
X47766666Y26107086D02*
X47861904Y26059467D01*
X46338095Y25345181D02*
X46909523Y25345181D01*
X46623809Y25345181D02*
X46623809Y26345181D01*
X46623809Y26345181D02*
X46719047Y26202324D01*
X46719047Y26202324D02*
X46814285Y26107086D01*
X46814285Y26107086D02*
X46909523Y26059467D01*
X42831666Y70640420D02*
X42879285Y70592800D01*
X42879285Y70592800D02*
X43022142Y70545181D01*
X43022142Y70545181D02*
X43117380Y70545181D01*
X43117380Y70545181D02*
X43260237Y70592800D01*
X43260237Y70592800D02*
X43355475Y70688039D01*
X43355475Y70688039D02*
X43403094Y70783277D01*
X43403094Y70783277D02*
X43450713Y70973753D01*
X43450713Y70973753D02*
X43450713Y71116610D01*
X43450713Y71116610D02*
X43403094Y71307086D01*
X43403094Y71307086D02*
X43355475Y71402324D01*
X43355475Y71402324D02*
X43260237Y71497562D01*
X43260237Y71497562D02*
X43117380Y71545181D01*
X43117380Y71545181D02*
X43022142Y71545181D01*
X43022142Y71545181D02*
X42879285Y71497562D01*
X42879285Y71497562D02*
X42831666Y71449943D01*
X42450713Y71449943D02*
X42403094Y71497562D01*
X42403094Y71497562D02*
X42307856Y71545181D01*
X42307856Y71545181D02*
X42069761Y71545181D01*
X42069761Y71545181D02*
X41974523Y71497562D01*
X41974523Y71497562D02*
X41926904Y71449943D01*
X41926904Y71449943D02*
X41879285Y71354705D01*
X41879285Y71354705D02*
X41879285Y71259467D01*
X41879285Y71259467D02*
X41926904Y71116610D01*
X41926904Y71116610D02*
X42498332Y70545181D01*
X42498332Y70545181D02*
X41879285Y70545181D01*
X16266666Y71840420D02*
X16314285Y71792800D01*
X16314285Y71792800D02*
X16457142Y71745181D01*
X16457142Y71745181D02*
X16552380Y71745181D01*
X16552380Y71745181D02*
X16695237Y71792800D01*
X16695237Y71792800D02*
X16790475Y71888039D01*
X16790475Y71888039D02*
X16838094Y71983277D01*
X16838094Y71983277D02*
X16885713Y72173753D01*
X16885713Y72173753D02*
X16885713Y72316610D01*
X16885713Y72316610D02*
X16838094Y72507086D01*
X16838094Y72507086D02*
X16790475Y72602324D01*
X16790475Y72602324D02*
X16695237Y72697562D01*
X16695237Y72697562D02*
X16552380Y72745181D01*
X16552380Y72745181D02*
X16457142Y72745181D01*
X16457142Y72745181D02*
X16314285Y72697562D01*
X16314285Y72697562D02*
X16266666Y72649943D01*
X15409523Y72411848D02*
X15409523Y71745181D01*
X15647618Y72792800D02*
X15885713Y72078515D01*
X15885713Y72078515D02*
X15266666Y72078515D01*
X37631666Y57790420D02*
X37679285Y57742800D01*
X37679285Y57742800D02*
X37822142Y57695181D01*
X37822142Y57695181D02*
X37917380Y57695181D01*
X37917380Y57695181D02*
X38060237Y57742800D01*
X38060237Y57742800D02*
X38155475Y57838039D01*
X38155475Y57838039D02*
X38203094Y57933277D01*
X38203094Y57933277D02*
X38250713Y58123753D01*
X38250713Y58123753D02*
X38250713Y58266610D01*
X38250713Y58266610D02*
X38203094Y58457086D01*
X38203094Y58457086D02*
X38155475Y58552324D01*
X38155475Y58552324D02*
X38060237Y58647562D01*
X38060237Y58647562D02*
X37917380Y58695181D01*
X37917380Y58695181D02*
X37822142Y58695181D01*
X37822142Y58695181D02*
X37679285Y58647562D01*
X37679285Y58647562D02*
X37631666Y58599943D01*
X37060237Y58266610D02*
X37155475Y58314229D01*
X37155475Y58314229D02*
X37203094Y58361848D01*
X37203094Y58361848D02*
X37250713Y58457086D01*
X37250713Y58457086D02*
X37250713Y58504705D01*
X37250713Y58504705D02*
X37203094Y58599943D01*
X37203094Y58599943D02*
X37155475Y58647562D01*
X37155475Y58647562D02*
X37060237Y58695181D01*
X37060237Y58695181D02*
X36869761Y58695181D01*
X36869761Y58695181D02*
X36774523Y58647562D01*
X36774523Y58647562D02*
X36726904Y58599943D01*
X36726904Y58599943D02*
X36679285Y58504705D01*
X36679285Y58504705D02*
X36679285Y58457086D01*
X36679285Y58457086D02*
X36726904Y58361848D01*
X36726904Y58361848D02*
X36774523Y58314229D01*
X36774523Y58314229D02*
X36869761Y58266610D01*
X36869761Y58266610D02*
X37060237Y58266610D01*
X37060237Y58266610D02*
X37155475Y58218991D01*
X37155475Y58218991D02*
X37203094Y58171372D01*
X37203094Y58171372D02*
X37250713Y58076134D01*
X37250713Y58076134D02*
X37250713Y57885658D01*
X37250713Y57885658D02*
X37203094Y57790420D01*
X37203094Y57790420D02*
X37155475Y57742800D01*
X37155475Y57742800D02*
X37060237Y57695181D01*
X37060237Y57695181D02*
X36869761Y57695181D01*
X36869761Y57695181D02*
X36774523Y57742800D01*
X36774523Y57742800D02*
X36726904Y57790420D01*
X36726904Y57790420D02*
X36679285Y57885658D01*
X36679285Y57885658D02*
X36679285Y58076134D01*
X36679285Y58076134D02*
X36726904Y58171372D01*
X36726904Y58171372D02*
X36774523Y58218991D01*
X36774523Y58218991D02*
X36869761Y58266610D01*
X48442857Y65340420D02*
X48490476Y65292800D01*
X48490476Y65292800D02*
X48633333Y65245181D01*
X48633333Y65245181D02*
X48728571Y65245181D01*
X48728571Y65245181D02*
X48871428Y65292800D01*
X48871428Y65292800D02*
X48966666Y65388039D01*
X48966666Y65388039D02*
X49014285Y65483277D01*
X49014285Y65483277D02*
X49061904Y65673753D01*
X49061904Y65673753D02*
X49061904Y65816610D01*
X49061904Y65816610D02*
X49014285Y66007086D01*
X49014285Y66007086D02*
X48966666Y66102324D01*
X48966666Y66102324D02*
X48871428Y66197562D01*
X48871428Y66197562D02*
X48728571Y66245181D01*
X48728571Y66245181D02*
X48633333Y66245181D01*
X48633333Y66245181D02*
X48490476Y66197562D01*
X48490476Y66197562D02*
X48442857Y66149943D01*
X47490476Y65245181D02*
X48061904Y65245181D01*
X47776190Y65245181D02*
X47776190Y66245181D01*
X47776190Y66245181D02*
X47871428Y66102324D01*
X47871428Y66102324D02*
X47966666Y66007086D01*
X47966666Y66007086D02*
X48061904Y65959467D01*
X47109523Y66149943D02*
X47061904Y66197562D01*
X47061904Y66197562D02*
X46966666Y66245181D01*
X46966666Y66245181D02*
X46728571Y66245181D01*
X46728571Y66245181D02*
X46633333Y66197562D01*
X46633333Y66197562D02*
X46585714Y66149943D01*
X46585714Y66149943D02*
X46538095Y66054705D01*
X46538095Y66054705D02*
X46538095Y65959467D01*
X46538095Y65959467D02*
X46585714Y65816610D01*
X46585714Y65816610D02*
X47157142Y65245181D01*
X47157142Y65245181D02*
X46538095Y65245181D01*
D10*
%TO.C,U2*%
X10000000Y74040000D02*
X8200000Y74040000D01*
X10000000Y77160000D02*
X9200000Y77160000D01*
X10000000Y77160000D02*
X10800000Y77160000D01*
X10000000Y74040000D02*
X10800000Y74040000D01*
D13*
%TO.C,J13*%
X69800000Y82300000D02*
X62800000Y82300000D01*
%TO.C,J8*%
X69800000Y31800000D02*
X62800000Y31800000D01*
%TO.C,J4*%
X69800000Y17800000D02*
X62800000Y17800000D01*
%TO.C,J3*%
X69800000Y21300000D02*
X62800000Y21300000D01*
%TO.C,J2*%
X69800000Y24800000D02*
X62800000Y24800000D01*
%TO.C,J15*%
X69800000Y58100000D02*
X62800000Y58100000D01*
%TO.C,J10*%
X69800000Y77300000D02*
X62800000Y77300000D01*
%TO.C,J16*%
X69800000Y53100000D02*
X62800000Y53100000D01*
%TO.C,J9*%
X69800000Y28300000D02*
X62800000Y28300000D01*
%TO.C,J7*%
X69800000Y35300000D02*
X62800000Y35300000D01*
%TO.C,J5*%
X69800000Y14300000D02*
X62800000Y14300000D01*
D10*
%TO.C,C6*%
X38176252Y77290000D02*
X36753748Y77290000D01*
X38176252Y79110000D02*
X36753748Y79110000D01*
%TO.C,C5*%
X14288748Y78090000D02*
X15711252Y78090000D01*
X14288748Y79910000D02*
X15711252Y79910000D01*
%TO.C,C7*%
X14288748Y81090000D02*
X15711252Y81090000D01*
X14288748Y82910000D02*
X15711252Y82910000D01*
%TO.C,J18*%
X21950000Y715000D02*
X18070000Y715000D01*
X23120000Y2685000D02*
X23120000Y5185000D01*
X16900000Y2685000D02*
X16900000Y5185000D01*
X23120000Y5185000D02*
X22070000Y5185000D01*
X16900000Y5185000D02*
X17950000Y5185000D01*
X22070000Y5185000D02*
X22070000Y6175000D01*
%TO.C,R1*%
X43072936Y62090000D02*
X44527064Y62090000D01*
X43072936Y63910000D02*
X44527064Y63910000D01*
%TO.C,C9*%
X38253752Y37390000D02*
X36831248Y37390000D01*
X38253752Y39210000D02*
X36831248Y39210000D01*
%TO.C,L1*%
X14397936Y76960000D02*
X15602064Y76960000D01*
X14397936Y74240000D02*
X15602064Y74240000D01*
%TO.C,C1*%
X10511252Y78090000D02*
X9088748Y78090000D01*
X10511252Y79910000D02*
X9088748Y79910000D01*
%TO.C,R2*%
X42972936Y22190000D02*
X44427064Y22190000D01*
X42972936Y24010000D02*
X44427064Y24010000D01*
%TO.C,C10*%
X36768748Y20910000D02*
X38191252Y20910000D01*
X36768748Y19090000D02*
X38191252Y19090000D01*
%TO.C,C3*%
X42068748Y28290000D02*
X43491252Y28290000D01*
X42068748Y30110000D02*
X43491252Y30110000D01*
%TO.C,C11*%
X42988748Y26710000D02*
X44411252Y26710000D01*
X42988748Y24890000D02*
X44411252Y24890000D01*
%TO.C,C2*%
X41953748Y68190000D02*
X43376252Y68190000D01*
X41953748Y70010000D02*
X43376252Y70010000D01*
%TO.C,C4*%
X13311252Y71290000D02*
X11888748Y71290000D01*
X13311252Y73110000D02*
X11888748Y73110000D01*
%TO.C,C8*%
X36753748Y60910000D02*
X38176252Y60910000D01*
X36753748Y59090000D02*
X38176252Y59090000D01*
%TO.C,C12*%
X43088748Y66610000D02*
X44511252Y66610000D01*
X43088748Y64790000D02*
X44511252Y64790000D01*
%TD*%
M02*
