M48
; DRILL file {KiCad 7.0.9} date Fri Feb  9 11:24:05 2024
; FORMAT={-:-/ absolute / inch / decimal}
; #@! TF.CreationDate,2024-02-09T11:24:05-05:00
; #@! TF.GenerationSoftware,Kicad,Pcbnew,7.0.9
; #@! TF.FileFunction,Plated,1,2,PTH
FMAT,2
INCH
; #@! TA.AperFunction,Plated,PTH,ViaDrill
T1C0.0079
; #@! TA.AperFunction,Plated,PTH,ViaDrill
T2C0.0157
; #@! TA.AperFunction,Plated,PTH,ComponentDrill
T3C0.0394
; #@! TA.AperFunction,Plated,PTH,ComponentDrill
T4C0.0400
%
G90
G05
T1
X0.5276Y-2.3327
X0.5748Y-2.25
X0.5748Y-2.3012
X0.5906Y-2.2146
X0.6181Y-2.3327
X0.626Y-2.2146
X0.6693Y-2.1083
T2
X0.3228Y-1.6171
X0.3504Y-1.4685
X0.3583Y-2.0236
X0.3583Y-2.2205
X0.3583Y-2.3346
X0.5039Y-0.9269
X0.5039Y-1.0423
X0.5065Y-1.1447
X0.5065Y-1.247
X0.5945Y-0.7953
X0.622Y-2.4016
X0.6363Y-1.543
X0.6378Y-1.6929
X0.6378Y-1.8425
X0.7047Y-1.0355
X0.7362Y-2.4961
X0.7421Y-0.9409
X0.7638Y-1.5443
X0.7638Y-1.6939
X0.7638Y-1.8435
X0.7756Y-1.9961
X0.7795Y-2.126
T3
X1.1693Y-1.1732
X1.1693Y-1.2732
X1.1693Y-1.3732
X1.1693Y-1.4732
X1.1693Y-1.5732
X1.1693Y-1.6732
X1.1693Y-1.7732
X1.1693Y-1.8732
X1.1693Y-1.9732
X1.1693Y-2.0732
T4
X0.1772Y-0.8917
X0.1772Y-0.9917
X0.1772Y-1.0917
X0.1772Y-1.1917
X0.1772Y-1.2917
X0.1772Y-1.3917
X0.1772Y-1.4917
X0.1772Y-1.5917
X0.1772Y-1.6917
X0.1772Y-1.7917
X0.1772Y-1.8917
X0.1772Y-1.9917
X0.9772Y-0.8917
X0.9772Y-0.9917
X0.9772Y-1.0917
X0.9772Y-1.1917
X0.9772Y-1.2917
X0.9772Y-1.3917
X0.9772Y-1.4917
X0.9772Y-1.5917
X0.9772Y-1.6917
X0.9772Y-1.7917
X0.9772Y-1.8917
X0.9772Y-1.9917
X0.9772Y-2.0917
X0.9772Y-2.1917
X0.9772Y-2.2917
X0.9772Y-2.3917
T0
M30
