%TF.GenerationSoftware,KiCad,Pcbnew,7.0.9*%
%TF.CreationDate,2024-02-09T11:23:59-05:00*%
%TF.ProjectId,BREAD_Loaf,42524541-445f-44c6-9f61-662e6b696361,rev?*%
%TF.SameCoordinates,PX2fdfdc0PY36746e0*%
%TF.FileFunction,Legend,Bot*%
%TF.FilePolarity,Positive*%
%FSLAX46Y46*%
G04 Gerber Fmt 4.6, Leading zero omitted, Abs format (unit mm)*
G04 Created by KiCad (PCBNEW 7.0.9) date 2024-02-09 11:23:59*
%MOMM*%
%LPD*%
G01*
G04 APERTURE LIST*
%ADD10C,0.150000*%
%ADD11C,0.120000*%
%ADD12C,0.152400*%
G04 APERTURE END LIST*
D10*
X11175000Y-34800000D02*
X12825000Y-34800000D01*
X13425000Y-34800000D02*
X15075000Y-34800000D01*
X15675000Y-34800000D02*
X17325000Y-34800000D01*
X17925000Y-34800000D02*
X19575000Y-34800000D01*
X20175000Y-34800000D02*
X21825000Y-34800000D01*
X22425000Y-34800000D02*
X23025000Y-34800000D01*
X23025000Y-34800000D02*
X23025000Y-36450000D01*
X23025000Y-37050000D02*
X23025000Y-38700000D01*
X23025000Y-39300000D02*
X23025000Y-40950000D01*
X23025000Y-41550000D02*
X23025000Y-43200000D01*
X23025000Y-43800000D02*
X23025000Y-45450000D01*
X23025000Y-46050000D02*
X23025000Y-47700000D01*
X23025000Y-48300000D02*
X23025000Y-49200000D01*
X23025000Y-49200000D02*
X21375000Y-49200000D01*
X20775000Y-49200000D02*
X19125000Y-49200000D01*
X18525000Y-49200000D02*
X16875000Y-49200000D01*
X16275000Y-49200000D02*
X14625000Y-49200000D01*
X14025000Y-49200000D02*
X12375000Y-49200000D01*
X11775000Y-49200000D02*
X11175000Y-49200000D01*
X11175000Y-49200000D02*
X11175000Y-47550000D01*
X11175000Y-46950000D02*
X11175000Y-45300000D01*
X11175000Y-44700000D02*
X11175000Y-43050000D01*
X11175000Y-42450000D02*
X11175000Y-40800000D01*
X11175000Y-40200000D02*
X11175000Y-38550000D01*
X11175000Y-37950000D02*
X11175000Y-36300000D01*
X11175000Y-35700000D02*
X11175000Y-34800000D01*
X6000000Y-17650000D02*
X7650000Y-17650000D01*
X8250000Y-17650000D02*
X9900000Y-17650000D01*
X10500000Y-17650000D02*
X12150000Y-17650000D01*
X12750000Y-17650000D02*
X14400000Y-17650000D01*
X15000000Y-17650000D02*
X16650000Y-17650000D01*
X17250000Y-17650000D02*
X18900000Y-17650000D01*
X19500000Y-17650000D02*
X21150000Y-17650000D01*
X21500000Y-17650000D02*
X21500000Y-19300000D01*
X21500000Y-19900000D02*
X21500000Y-21550000D01*
X21500000Y-22150000D02*
X21500000Y-23250000D01*
X21500000Y-23250000D02*
X19850000Y-23250000D01*
X19250000Y-23250000D02*
X17600000Y-23250000D01*
X17000000Y-23250000D02*
X15350000Y-23250000D01*
X14750000Y-23250000D02*
X13100000Y-23250000D01*
X12500000Y-23250000D02*
X10850000Y-23250000D01*
X10250000Y-23250000D02*
X8600000Y-23250000D01*
X8000000Y-23250000D02*
X6350000Y-23250000D01*
X6000000Y-23250000D02*
X6000000Y-21600000D01*
X6000000Y-21000000D02*
X6000000Y-19350000D01*
X6000000Y-18750000D02*
X6000000Y-17650000D01*
X5800000Y-34800000D02*
X7450000Y-34800000D01*
X8050000Y-34800000D02*
X9700000Y-34800000D01*
X10300000Y-34800000D02*
X11175000Y-34800000D01*
X11175000Y-34800000D02*
X11175000Y-36450000D01*
X11175000Y-37050000D02*
X11175000Y-38700000D01*
X11175000Y-39300000D02*
X11175000Y-40950000D01*
X11175000Y-41550000D02*
X11175000Y-43200000D01*
X11175000Y-43800000D02*
X11175000Y-45450000D01*
X11175000Y-46050000D02*
X11175000Y-47700000D01*
X11175000Y-48300000D02*
X11175000Y-49200000D01*
X11175000Y-49200000D02*
X9525000Y-49200000D01*
X8925000Y-49200000D02*
X7275000Y-49200000D01*
X6675000Y-49200000D02*
X5800000Y-49200000D01*
X5800000Y-49200000D02*
X5800000Y-47550000D01*
X5800000Y-46950000D02*
X5800000Y-45300000D01*
X5800000Y-44700000D02*
X5800000Y-43050000D01*
X5800000Y-42450000D02*
X5800000Y-40800000D01*
X5800000Y-40200000D02*
X5800000Y-38550000D01*
X5800000Y-37950000D02*
X5800000Y-36300000D01*
X5800000Y-35700000D02*
X5800000Y-34800000D01*
X21552382Y-36669819D02*
X22028572Y-36669819D01*
X22028572Y-36669819D02*
X22028572Y-35669819D01*
X20838096Y-36622200D02*
X20933334Y-36669819D01*
X20933334Y-36669819D02*
X21123810Y-36669819D01*
X21123810Y-36669819D02*
X21219048Y-36622200D01*
X21219048Y-36622200D02*
X21266667Y-36526961D01*
X21266667Y-36526961D02*
X21266667Y-36146009D01*
X21266667Y-36146009D02*
X21219048Y-36050771D01*
X21219048Y-36050771D02*
X21123810Y-36003152D01*
X21123810Y-36003152D02*
X20933334Y-36003152D01*
X20933334Y-36003152D02*
X20838096Y-36050771D01*
X20838096Y-36050771D02*
X20790477Y-36146009D01*
X20790477Y-36146009D02*
X20790477Y-36241247D01*
X20790477Y-36241247D02*
X21266667Y-36336485D01*
X20457143Y-36003152D02*
X20219048Y-36669819D01*
X20219048Y-36669819D02*
X19980953Y-36003152D01*
X19219048Y-36622200D02*
X19314286Y-36669819D01*
X19314286Y-36669819D02*
X19504762Y-36669819D01*
X19504762Y-36669819D02*
X19600000Y-36622200D01*
X19600000Y-36622200D02*
X19647619Y-36526961D01*
X19647619Y-36526961D02*
X19647619Y-36146009D01*
X19647619Y-36146009D02*
X19600000Y-36050771D01*
X19600000Y-36050771D02*
X19504762Y-36003152D01*
X19504762Y-36003152D02*
X19314286Y-36003152D01*
X19314286Y-36003152D02*
X19219048Y-36050771D01*
X19219048Y-36050771D02*
X19171429Y-36146009D01*
X19171429Y-36146009D02*
X19171429Y-36241247D01*
X19171429Y-36241247D02*
X19647619Y-36336485D01*
X18600000Y-36669819D02*
X18695238Y-36622200D01*
X18695238Y-36622200D02*
X18742857Y-36526961D01*
X18742857Y-36526961D02*
X18742857Y-35669819D01*
X17504761Y-36622200D02*
X17361904Y-36669819D01*
X17361904Y-36669819D02*
X17123809Y-36669819D01*
X17123809Y-36669819D02*
X17028571Y-36622200D01*
X17028571Y-36622200D02*
X16980952Y-36574580D01*
X16980952Y-36574580D02*
X16933333Y-36479342D01*
X16933333Y-36479342D02*
X16933333Y-36384104D01*
X16933333Y-36384104D02*
X16980952Y-36288866D01*
X16980952Y-36288866D02*
X17028571Y-36241247D01*
X17028571Y-36241247D02*
X17123809Y-36193628D01*
X17123809Y-36193628D02*
X17314285Y-36146009D01*
X17314285Y-36146009D02*
X17409523Y-36098390D01*
X17409523Y-36098390D02*
X17457142Y-36050771D01*
X17457142Y-36050771D02*
X17504761Y-35955533D01*
X17504761Y-35955533D02*
X17504761Y-35860295D01*
X17504761Y-35860295D02*
X17457142Y-35765057D01*
X17457142Y-35765057D02*
X17409523Y-35717438D01*
X17409523Y-35717438D02*
X17314285Y-35669819D01*
X17314285Y-35669819D02*
X17076190Y-35669819D01*
X17076190Y-35669819D02*
X16933333Y-35717438D01*
X16504761Y-36669819D02*
X16504761Y-35669819D01*
X16076190Y-36669819D02*
X16076190Y-36146009D01*
X16076190Y-36146009D02*
X16123809Y-36050771D01*
X16123809Y-36050771D02*
X16219047Y-36003152D01*
X16219047Y-36003152D02*
X16361904Y-36003152D01*
X16361904Y-36003152D02*
X16457142Y-36050771D01*
X16457142Y-36050771D02*
X16504761Y-36098390D01*
X15599999Y-36669819D02*
X15599999Y-36003152D01*
X15599999Y-35669819D02*
X15647618Y-35717438D01*
X15647618Y-35717438D02*
X15599999Y-35765057D01*
X15599999Y-35765057D02*
X15552380Y-35717438D01*
X15552380Y-35717438D02*
X15599999Y-35669819D01*
X15599999Y-35669819D02*
X15599999Y-35765057D01*
X15266666Y-36003152D02*
X14885714Y-36003152D01*
X15123809Y-36669819D02*
X15123809Y-35812676D01*
X15123809Y-35812676D02*
X15076190Y-35717438D01*
X15076190Y-35717438D02*
X14980952Y-35669819D01*
X14980952Y-35669819D02*
X14885714Y-35669819D01*
X14695237Y-36003152D02*
X14314285Y-36003152D01*
X14552380Y-35669819D02*
X14552380Y-36526961D01*
X14552380Y-36526961D02*
X14504761Y-36622200D01*
X14504761Y-36622200D02*
X14409523Y-36669819D01*
X14409523Y-36669819D02*
X14314285Y-36669819D01*
X13599999Y-36622200D02*
X13695237Y-36669819D01*
X13695237Y-36669819D02*
X13885713Y-36669819D01*
X13885713Y-36669819D02*
X13980951Y-36622200D01*
X13980951Y-36622200D02*
X14028570Y-36526961D01*
X14028570Y-36526961D02*
X14028570Y-36146009D01*
X14028570Y-36146009D02*
X13980951Y-36050771D01*
X13980951Y-36050771D02*
X13885713Y-36003152D01*
X13885713Y-36003152D02*
X13695237Y-36003152D01*
X13695237Y-36003152D02*
X13599999Y-36050771D01*
X13599999Y-36050771D02*
X13552380Y-36146009D01*
X13552380Y-36146009D02*
X13552380Y-36241247D01*
X13552380Y-36241247D02*
X14028570Y-36336485D01*
X13123808Y-36669819D02*
X13123808Y-36003152D01*
X13123808Y-36193628D02*
X13076189Y-36098390D01*
X13076189Y-36098390D02*
X13028570Y-36050771D01*
X13028570Y-36050771D02*
X12933332Y-36003152D01*
X12933332Y-36003152D02*
X12838094Y-36003152D01*
X12552379Y-36622200D02*
X12457141Y-36669819D01*
X12457141Y-36669819D02*
X12266665Y-36669819D01*
X12266665Y-36669819D02*
X12171427Y-36622200D01*
X12171427Y-36622200D02*
X12123808Y-36526961D01*
X12123808Y-36526961D02*
X12123808Y-36479342D01*
X12123808Y-36479342D02*
X12171427Y-36384104D01*
X12171427Y-36384104D02*
X12266665Y-36336485D01*
X12266665Y-36336485D02*
X12409522Y-36336485D01*
X12409522Y-36336485D02*
X12504760Y-36288866D01*
X12504760Y-36288866D02*
X12552379Y-36193628D01*
X12552379Y-36193628D02*
X12552379Y-36146009D01*
X12552379Y-36146009D02*
X12504760Y-36050771D01*
X12504760Y-36050771D02*
X12409522Y-36003152D01*
X12409522Y-36003152D02*
X12266665Y-36003152D01*
X12266665Y-36003152D02*
X12171427Y-36050771D01*
X6000000Y-23250000D02*
X7650000Y-23250000D01*
X8250000Y-23250000D02*
X9900000Y-23250000D01*
X10500000Y-23250000D02*
X12150000Y-23250000D01*
X12750000Y-23250000D02*
X14400000Y-23250000D01*
X15000000Y-23250000D02*
X16650000Y-23250000D01*
X17250000Y-23250000D02*
X18900000Y-23250000D01*
X19500000Y-23250000D02*
X21150000Y-23250000D01*
X21750000Y-23250000D02*
X23400000Y-23250000D01*
X23500000Y-23250000D02*
X23500000Y-24900000D01*
X23500000Y-25500000D02*
X23500000Y-27150000D01*
X23500000Y-27750000D02*
X23500000Y-29400000D01*
X23500000Y-30000000D02*
X23500000Y-31650000D01*
X23500000Y-32250000D02*
X23500000Y-33750000D01*
X23500000Y-33750000D02*
X21850000Y-33750000D01*
X21250000Y-33750000D02*
X19600000Y-33750000D01*
X19000000Y-33750000D02*
X17350000Y-33750000D01*
X16750000Y-33750000D02*
X15100000Y-33750000D01*
X14500000Y-33750000D02*
X12850000Y-33750000D01*
X12250000Y-33750000D02*
X10600000Y-33750000D01*
X10000000Y-33750000D02*
X8350000Y-33750000D01*
X7750000Y-33750000D02*
X6100000Y-33750000D01*
X6000000Y-33750000D02*
X6000000Y-32100000D01*
X6000000Y-31500000D02*
X6000000Y-29850000D01*
X6000000Y-29250000D02*
X6000000Y-27600000D01*
X6000000Y-27000000D02*
X6000000Y-25350000D01*
X6000000Y-24750000D02*
X6000000Y-23250000D01*
D11*
X20500000Y-49200000D02*
X19180000Y-49200000D01*
X18700000Y-49200000D02*
X17380000Y-49200000D01*
X16900000Y-49200000D02*
X15580000Y-49200000D01*
X15100000Y-49200000D02*
X13780000Y-49200000D01*
X13300000Y-49200000D02*
X11980000Y-49200000D01*
X11500000Y-49200000D02*
X10180000Y-49200000D01*
X9700000Y-49200000D02*
X8380000Y-49200000D01*
X7900000Y-49200000D02*
X6800000Y-49200000D01*
X6800000Y-49200000D02*
X6800000Y-50520000D01*
X6800000Y-51000000D02*
X6800000Y-52320000D01*
X6800000Y-52800000D02*
X6800000Y-54120000D01*
X6800000Y-54600000D02*
X6800000Y-55920000D01*
X6800000Y-56400000D02*
X6800000Y-57720000D01*
X6800000Y-58200000D02*
X6800000Y-59520000D01*
X6800000Y-60000000D02*
X6800000Y-61320000D01*
X6800000Y-61800000D02*
X6800000Y-63120000D01*
X6800000Y-63600000D02*
X6800000Y-64920000D01*
X6800000Y-65400000D02*
X6800000Y-66000000D01*
X6800000Y-66000000D02*
X8120000Y-66000000D01*
X8600000Y-66000000D02*
X9920000Y-66000000D01*
X10400000Y-66000000D02*
X11720000Y-66000000D01*
X12200000Y-66000000D02*
X13520000Y-66000000D01*
X14000000Y-66000000D02*
X15320000Y-66000000D01*
X15800000Y-66000000D02*
X17120000Y-66000000D01*
X17600000Y-66000000D02*
X18920000Y-66000000D01*
X19400000Y-66000000D02*
X20500000Y-66000000D01*
X20500000Y-66000000D02*
X20500000Y-64680000D01*
X20500000Y-64200000D02*
X20500000Y-62880000D01*
X20500000Y-62400000D02*
X20500000Y-61080000D01*
X20500000Y-60600000D02*
X20500000Y-59280000D01*
X20500000Y-58800000D02*
X20500000Y-57480000D01*
X20500000Y-57000000D02*
X20500000Y-55680000D01*
X20500000Y-55200000D02*
X20500000Y-53880000D01*
X20500000Y-53400000D02*
X20500000Y-52080000D01*
X20500000Y-51600000D02*
X20500000Y-50280000D01*
X20500000Y-49800000D02*
X20500000Y-49200000D01*
D10*
X21830365Y-25024200D02*
X21716079Y-25062295D01*
X21716079Y-25062295D02*
X21525603Y-25062295D01*
X21525603Y-25062295D02*
X21449412Y-25024200D01*
X21449412Y-25024200D02*
X21411317Y-24986104D01*
X21411317Y-24986104D02*
X21373222Y-24909914D01*
X21373222Y-24909914D02*
X21373222Y-24833723D01*
X21373222Y-24833723D02*
X21411317Y-24757533D01*
X21411317Y-24757533D02*
X21449412Y-24719438D01*
X21449412Y-24719438D02*
X21525603Y-24681342D01*
X21525603Y-24681342D02*
X21677984Y-24643247D01*
X21677984Y-24643247D02*
X21754174Y-24605152D01*
X21754174Y-24605152D02*
X21792269Y-24567057D01*
X21792269Y-24567057D02*
X21830365Y-24490866D01*
X21830365Y-24490866D02*
X21830365Y-24414676D01*
X21830365Y-24414676D02*
X21792269Y-24338485D01*
X21792269Y-24338485D02*
X21754174Y-24300390D01*
X21754174Y-24300390D02*
X21677984Y-24262295D01*
X21677984Y-24262295D02*
X21487507Y-24262295D01*
X21487507Y-24262295D02*
X21373222Y-24300390D01*
X21030364Y-25062295D02*
X21030364Y-24262295D01*
X21030364Y-24262295D02*
X20839888Y-24262295D01*
X20839888Y-24262295D02*
X20725602Y-24300390D01*
X20725602Y-24300390D02*
X20649412Y-24376580D01*
X20649412Y-24376580D02*
X20611317Y-24452771D01*
X20611317Y-24452771D02*
X20573221Y-24605152D01*
X20573221Y-24605152D02*
X20573221Y-24719438D01*
X20573221Y-24719438D02*
X20611317Y-24871819D01*
X20611317Y-24871819D02*
X20649412Y-24948009D01*
X20649412Y-24948009D02*
X20725602Y-25024200D01*
X20725602Y-25024200D02*
X20839888Y-25062295D01*
X20839888Y-25062295D02*
X21030364Y-25062295D01*
X20268460Y-24833723D02*
X19887507Y-24833723D01*
X20344650Y-25062295D02*
X20077983Y-24262295D01*
X20077983Y-24262295D02*
X19811317Y-25062295D01*
X18554174Y-24262295D02*
X18935126Y-24262295D01*
X18935126Y-24262295D02*
X18973222Y-24643247D01*
X18973222Y-24643247D02*
X18935126Y-24605152D01*
X18935126Y-24605152D02*
X18858936Y-24567057D01*
X18858936Y-24567057D02*
X18668460Y-24567057D01*
X18668460Y-24567057D02*
X18592269Y-24605152D01*
X18592269Y-24605152D02*
X18554174Y-24643247D01*
X18554174Y-24643247D02*
X18516079Y-24719438D01*
X18516079Y-24719438D02*
X18516079Y-24909914D01*
X18516079Y-24909914D02*
X18554174Y-24986104D01*
X18554174Y-24986104D02*
X18592269Y-25024200D01*
X18592269Y-25024200D02*
X18668460Y-25062295D01*
X18668460Y-25062295D02*
X18858936Y-25062295D01*
X18858936Y-25062295D02*
X18935126Y-25024200D01*
X18935126Y-25024200D02*
X18973222Y-24986104D01*
X18287507Y-24262295D02*
X18020840Y-25062295D01*
X18020840Y-25062295D02*
X17754174Y-24262295D01*
X9476189Y-45539819D02*
X9476189Y-44539819D01*
X9047618Y-44635057D02*
X8999999Y-44587438D01*
X8999999Y-44587438D02*
X8904761Y-44539819D01*
X8904761Y-44539819D02*
X8666666Y-44539819D01*
X8666666Y-44539819D02*
X8571428Y-44587438D01*
X8571428Y-44587438D02*
X8523809Y-44635057D01*
X8523809Y-44635057D02*
X8476190Y-44730295D01*
X8476190Y-44730295D02*
X8476190Y-44825533D01*
X8476190Y-44825533D02*
X8523809Y-44968390D01*
X8523809Y-44968390D02*
X9095237Y-45539819D01*
X9095237Y-45539819D02*
X8476190Y-45539819D01*
X7476190Y-45444580D02*
X7523809Y-45492200D01*
X7523809Y-45492200D02*
X7666666Y-45539819D01*
X7666666Y-45539819D02*
X7761904Y-45539819D01*
X7761904Y-45539819D02*
X7904761Y-45492200D01*
X7904761Y-45492200D02*
X7999999Y-45396961D01*
X7999999Y-45396961D02*
X8047618Y-45301723D01*
X8047618Y-45301723D02*
X8095237Y-45111247D01*
X8095237Y-45111247D02*
X8095237Y-44968390D01*
X8095237Y-44968390D02*
X8047618Y-44777914D01*
X8047618Y-44777914D02*
X7999999Y-44682676D01*
X7999999Y-44682676D02*
X7904761Y-44587438D01*
X7904761Y-44587438D02*
X7761904Y-44539819D01*
X7761904Y-44539819D02*
X7666666Y-44539819D01*
X7666666Y-44539819D02*
X7523809Y-44587438D01*
X7523809Y-44587438D02*
X7476190Y-44635057D01*
X9690476Y-47149819D02*
X10166666Y-47149819D01*
X10166666Y-47149819D02*
X10166666Y-46149819D01*
X8976190Y-47102200D02*
X9071428Y-47149819D01*
X9071428Y-47149819D02*
X9261904Y-47149819D01*
X9261904Y-47149819D02*
X9357142Y-47102200D01*
X9357142Y-47102200D02*
X9404761Y-47006961D01*
X9404761Y-47006961D02*
X9404761Y-46626009D01*
X9404761Y-46626009D02*
X9357142Y-46530771D01*
X9357142Y-46530771D02*
X9261904Y-46483152D01*
X9261904Y-46483152D02*
X9071428Y-46483152D01*
X9071428Y-46483152D02*
X8976190Y-46530771D01*
X8976190Y-46530771D02*
X8928571Y-46626009D01*
X8928571Y-46626009D02*
X8928571Y-46721247D01*
X8928571Y-46721247D02*
X9404761Y-46816485D01*
X8595237Y-46483152D02*
X8357142Y-47149819D01*
X8357142Y-47149819D02*
X8119047Y-46483152D01*
X7357142Y-47102200D02*
X7452380Y-47149819D01*
X7452380Y-47149819D02*
X7642856Y-47149819D01*
X7642856Y-47149819D02*
X7738094Y-47102200D01*
X7738094Y-47102200D02*
X7785713Y-47006961D01*
X7785713Y-47006961D02*
X7785713Y-46626009D01*
X7785713Y-46626009D02*
X7738094Y-46530771D01*
X7738094Y-46530771D02*
X7642856Y-46483152D01*
X7642856Y-46483152D02*
X7452380Y-46483152D01*
X7452380Y-46483152D02*
X7357142Y-46530771D01*
X7357142Y-46530771D02*
X7309523Y-46626009D01*
X7309523Y-46626009D02*
X7309523Y-46721247D01*
X7309523Y-46721247D02*
X7785713Y-46816485D01*
X6738094Y-47149819D02*
X6833332Y-47102200D01*
X6833332Y-47102200D02*
X6880951Y-47006961D01*
X6880951Y-47006961D02*
X6880951Y-46149819D01*
X10785714Y-48712200D02*
X10642857Y-48759819D01*
X10642857Y-48759819D02*
X10404762Y-48759819D01*
X10404762Y-48759819D02*
X10309524Y-48712200D01*
X10309524Y-48712200D02*
X10261905Y-48664580D01*
X10261905Y-48664580D02*
X10214286Y-48569342D01*
X10214286Y-48569342D02*
X10214286Y-48474104D01*
X10214286Y-48474104D02*
X10261905Y-48378866D01*
X10261905Y-48378866D02*
X10309524Y-48331247D01*
X10309524Y-48331247D02*
X10404762Y-48283628D01*
X10404762Y-48283628D02*
X10595238Y-48236009D01*
X10595238Y-48236009D02*
X10690476Y-48188390D01*
X10690476Y-48188390D02*
X10738095Y-48140771D01*
X10738095Y-48140771D02*
X10785714Y-48045533D01*
X10785714Y-48045533D02*
X10785714Y-47950295D01*
X10785714Y-47950295D02*
X10738095Y-47855057D01*
X10738095Y-47855057D02*
X10690476Y-47807438D01*
X10690476Y-47807438D02*
X10595238Y-47759819D01*
X10595238Y-47759819D02*
X10357143Y-47759819D01*
X10357143Y-47759819D02*
X10214286Y-47807438D01*
X9785714Y-48759819D02*
X9785714Y-47759819D01*
X9357143Y-48759819D02*
X9357143Y-48236009D01*
X9357143Y-48236009D02*
X9404762Y-48140771D01*
X9404762Y-48140771D02*
X9500000Y-48093152D01*
X9500000Y-48093152D02*
X9642857Y-48093152D01*
X9642857Y-48093152D02*
X9738095Y-48140771D01*
X9738095Y-48140771D02*
X9785714Y-48188390D01*
X8880952Y-48759819D02*
X8880952Y-48093152D01*
X8880952Y-47759819D02*
X8928571Y-47807438D01*
X8928571Y-47807438D02*
X8880952Y-47855057D01*
X8880952Y-47855057D02*
X8833333Y-47807438D01*
X8833333Y-47807438D02*
X8880952Y-47759819D01*
X8880952Y-47759819D02*
X8880952Y-47855057D01*
X8547619Y-48093152D02*
X8166667Y-48093152D01*
X8404762Y-48759819D02*
X8404762Y-47902676D01*
X8404762Y-47902676D02*
X8357143Y-47807438D01*
X8357143Y-47807438D02*
X8261905Y-47759819D01*
X8261905Y-47759819D02*
X8166667Y-47759819D01*
X7976190Y-48093152D02*
X7595238Y-48093152D01*
X7833333Y-47759819D02*
X7833333Y-48616961D01*
X7833333Y-48616961D02*
X7785714Y-48712200D01*
X7785714Y-48712200D02*
X7690476Y-48759819D01*
X7690476Y-48759819D02*
X7595238Y-48759819D01*
X6880952Y-48712200D02*
X6976190Y-48759819D01*
X6976190Y-48759819D02*
X7166666Y-48759819D01*
X7166666Y-48759819D02*
X7261904Y-48712200D01*
X7261904Y-48712200D02*
X7309523Y-48616961D01*
X7309523Y-48616961D02*
X7309523Y-48236009D01*
X7309523Y-48236009D02*
X7261904Y-48140771D01*
X7261904Y-48140771D02*
X7166666Y-48093152D01*
X7166666Y-48093152D02*
X6976190Y-48093152D01*
X6976190Y-48093152D02*
X6880952Y-48140771D01*
X6880952Y-48140771D02*
X6833333Y-48236009D01*
X6833333Y-48236009D02*
X6833333Y-48331247D01*
X6833333Y-48331247D02*
X7309523Y-48426485D01*
X6404761Y-48759819D02*
X6404761Y-48093152D01*
X6404761Y-48283628D02*
X6357142Y-48188390D01*
X6357142Y-48188390D02*
X6309523Y-48140771D01*
X6309523Y-48140771D02*
X6214285Y-48093152D01*
X6214285Y-48093152D02*
X6119047Y-48093152D01*
X16361904Y-63459819D02*
X16933332Y-63459819D01*
X16647618Y-63459819D02*
X16647618Y-62459819D01*
X16647618Y-62459819D02*
X16742856Y-62602676D01*
X16742856Y-62602676D02*
X16838094Y-62697914D01*
X16838094Y-62697914D02*
X16933332Y-62745533D01*
X15980951Y-62555057D02*
X15933332Y-62507438D01*
X15933332Y-62507438D02*
X15838094Y-62459819D01*
X15838094Y-62459819D02*
X15599999Y-62459819D01*
X15599999Y-62459819D02*
X15504761Y-62507438D01*
X15504761Y-62507438D02*
X15457142Y-62555057D01*
X15457142Y-62555057D02*
X15409523Y-62650295D01*
X15409523Y-62650295D02*
X15409523Y-62745533D01*
X15409523Y-62745533D02*
X15457142Y-62888390D01*
X15457142Y-62888390D02*
X16028570Y-63459819D01*
X16028570Y-63459819D02*
X15409523Y-63459819D01*
X15123808Y-62459819D02*
X14790475Y-63459819D01*
X14790475Y-63459819D02*
X14457142Y-62459819D01*
X14123808Y-63078866D02*
X13361904Y-63078866D01*
X12885713Y-62793152D02*
X12123809Y-63078866D01*
X12123809Y-63078866D02*
X12885713Y-63364580D01*
X11171428Y-62459819D02*
X11647618Y-62459819D01*
X11647618Y-62459819D02*
X11695237Y-62936009D01*
X11695237Y-62936009D02*
X11647618Y-62888390D01*
X11647618Y-62888390D02*
X11552380Y-62840771D01*
X11552380Y-62840771D02*
X11314285Y-62840771D01*
X11314285Y-62840771D02*
X11219047Y-62888390D01*
X11219047Y-62888390D02*
X11171428Y-62936009D01*
X11171428Y-62936009D02*
X11123809Y-63031247D01*
X11123809Y-63031247D02*
X11123809Y-63269342D01*
X11123809Y-63269342D02*
X11171428Y-63364580D01*
X11171428Y-63364580D02*
X11219047Y-63412200D01*
X11219047Y-63412200D02*
X11314285Y-63459819D01*
X11314285Y-63459819D02*
X11552380Y-63459819D01*
X11552380Y-63459819D02*
X11647618Y-63412200D01*
X11647618Y-63412200D02*
X11695237Y-63364580D01*
X10838094Y-62459819D02*
X10504761Y-63459819D01*
X10504761Y-63459819D02*
X10171428Y-62459819D01*
X16385715Y-65069819D02*
X16719048Y-64593628D01*
X16957143Y-65069819D02*
X16957143Y-64069819D01*
X16957143Y-64069819D02*
X16576191Y-64069819D01*
X16576191Y-64069819D02*
X16480953Y-64117438D01*
X16480953Y-64117438D02*
X16433334Y-64165057D01*
X16433334Y-64165057D02*
X16385715Y-64260295D01*
X16385715Y-64260295D02*
X16385715Y-64403152D01*
X16385715Y-64403152D02*
X16433334Y-64498390D01*
X16433334Y-64498390D02*
X16480953Y-64546009D01*
X16480953Y-64546009D02*
X16576191Y-64593628D01*
X16576191Y-64593628D02*
X16957143Y-64593628D01*
X15576191Y-65022200D02*
X15671429Y-65069819D01*
X15671429Y-65069819D02*
X15861905Y-65069819D01*
X15861905Y-65069819D02*
X15957143Y-65022200D01*
X15957143Y-65022200D02*
X16004762Y-64926961D01*
X16004762Y-64926961D02*
X16004762Y-64546009D01*
X16004762Y-64546009D02*
X15957143Y-64450771D01*
X15957143Y-64450771D02*
X15861905Y-64403152D01*
X15861905Y-64403152D02*
X15671429Y-64403152D01*
X15671429Y-64403152D02*
X15576191Y-64450771D01*
X15576191Y-64450771D02*
X15528572Y-64546009D01*
X15528572Y-64546009D02*
X15528572Y-64641247D01*
X15528572Y-64641247D02*
X16004762Y-64736485D01*
X14671429Y-64403152D02*
X14671429Y-65212676D01*
X14671429Y-65212676D02*
X14719048Y-65307914D01*
X14719048Y-65307914D02*
X14766667Y-65355533D01*
X14766667Y-65355533D02*
X14861905Y-65403152D01*
X14861905Y-65403152D02*
X15004762Y-65403152D01*
X15004762Y-65403152D02*
X15100000Y-65355533D01*
X14671429Y-65022200D02*
X14766667Y-65069819D01*
X14766667Y-65069819D02*
X14957143Y-65069819D01*
X14957143Y-65069819D02*
X15052381Y-65022200D01*
X15052381Y-65022200D02*
X15100000Y-64974580D01*
X15100000Y-64974580D02*
X15147619Y-64879342D01*
X15147619Y-64879342D02*
X15147619Y-64593628D01*
X15147619Y-64593628D02*
X15100000Y-64498390D01*
X15100000Y-64498390D02*
X15052381Y-64450771D01*
X15052381Y-64450771D02*
X14957143Y-64403152D01*
X14957143Y-64403152D02*
X14766667Y-64403152D01*
X14766667Y-64403152D02*
X14671429Y-64450771D01*
X13766667Y-64403152D02*
X13766667Y-65069819D01*
X14195238Y-64403152D02*
X14195238Y-64926961D01*
X14195238Y-64926961D02*
X14147619Y-65022200D01*
X14147619Y-65022200D02*
X14052381Y-65069819D01*
X14052381Y-65069819D02*
X13909524Y-65069819D01*
X13909524Y-65069819D02*
X13814286Y-65022200D01*
X13814286Y-65022200D02*
X13766667Y-64974580D01*
X13147619Y-65069819D02*
X13242857Y-65022200D01*
X13242857Y-65022200D02*
X13290476Y-64926961D01*
X13290476Y-64926961D02*
X13290476Y-64069819D01*
X12338095Y-65069819D02*
X12338095Y-64546009D01*
X12338095Y-64546009D02*
X12385714Y-64450771D01*
X12385714Y-64450771D02*
X12480952Y-64403152D01*
X12480952Y-64403152D02*
X12671428Y-64403152D01*
X12671428Y-64403152D02*
X12766666Y-64450771D01*
X12338095Y-65022200D02*
X12433333Y-65069819D01*
X12433333Y-65069819D02*
X12671428Y-65069819D01*
X12671428Y-65069819D02*
X12766666Y-65022200D01*
X12766666Y-65022200D02*
X12814285Y-64926961D01*
X12814285Y-64926961D02*
X12814285Y-64831723D01*
X12814285Y-64831723D02*
X12766666Y-64736485D01*
X12766666Y-64736485D02*
X12671428Y-64688866D01*
X12671428Y-64688866D02*
X12433333Y-64688866D01*
X12433333Y-64688866D02*
X12338095Y-64641247D01*
X12004761Y-64403152D02*
X11623809Y-64403152D01*
X11861904Y-64069819D02*
X11861904Y-64926961D01*
X11861904Y-64926961D02*
X11814285Y-65022200D01*
X11814285Y-65022200D02*
X11719047Y-65069819D01*
X11719047Y-65069819D02*
X11623809Y-65069819D01*
X11147618Y-65069819D02*
X11242856Y-65022200D01*
X11242856Y-65022200D02*
X11290475Y-64974580D01*
X11290475Y-64974580D02*
X11338094Y-64879342D01*
X11338094Y-64879342D02*
X11338094Y-64593628D01*
X11338094Y-64593628D02*
X11290475Y-64498390D01*
X11290475Y-64498390D02*
X11242856Y-64450771D01*
X11242856Y-64450771D02*
X11147618Y-64403152D01*
X11147618Y-64403152D02*
X11004761Y-64403152D01*
X11004761Y-64403152D02*
X10909523Y-64450771D01*
X10909523Y-64450771D02*
X10861904Y-64498390D01*
X10861904Y-64498390D02*
X10814285Y-64593628D01*
X10814285Y-64593628D02*
X10814285Y-64879342D01*
X10814285Y-64879342D02*
X10861904Y-64974580D01*
X10861904Y-64974580D02*
X10909523Y-65022200D01*
X10909523Y-65022200D02*
X11004761Y-65069819D01*
X11004761Y-65069819D02*
X11147618Y-65069819D01*
X10385713Y-65069819D02*
X10385713Y-64403152D01*
X10385713Y-64593628D02*
X10338094Y-64498390D01*
X10338094Y-64498390D02*
X10290475Y-64450771D01*
X10290475Y-64450771D02*
X10195237Y-64403152D01*
X10195237Y-64403152D02*
X10099999Y-64403152D01*
X22993922Y-30224200D02*
X22879636Y-30262295D01*
X22879636Y-30262295D02*
X22689160Y-30262295D01*
X22689160Y-30262295D02*
X22612969Y-30224200D01*
X22612969Y-30224200D02*
X22574874Y-30186104D01*
X22574874Y-30186104D02*
X22536779Y-30109914D01*
X22536779Y-30109914D02*
X22536779Y-30033723D01*
X22536779Y-30033723D02*
X22574874Y-29957533D01*
X22574874Y-29957533D02*
X22612969Y-29919438D01*
X22612969Y-29919438D02*
X22689160Y-29881342D01*
X22689160Y-29881342D02*
X22841541Y-29843247D01*
X22841541Y-29843247D02*
X22917731Y-29805152D01*
X22917731Y-29805152D02*
X22955826Y-29767057D01*
X22955826Y-29767057D02*
X22993922Y-29690866D01*
X22993922Y-29690866D02*
X22993922Y-29614676D01*
X22993922Y-29614676D02*
X22955826Y-29538485D01*
X22955826Y-29538485D02*
X22917731Y-29500390D01*
X22917731Y-29500390D02*
X22841541Y-29462295D01*
X22841541Y-29462295D02*
X22651064Y-29462295D01*
X22651064Y-29462295D02*
X22536779Y-29500390D01*
X22193921Y-30262295D02*
X22193921Y-29462295D01*
X22193921Y-29462295D02*
X22003445Y-29462295D01*
X22003445Y-29462295D02*
X21889159Y-29500390D01*
X21889159Y-29500390D02*
X21812969Y-29576580D01*
X21812969Y-29576580D02*
X21774874Y-29652771D01*
X21774874Y-29652771D02*
X21736778Y-29805152D01*
X21736778Y-29805152D02*
X21736778Y-29919438D01*
X21736778Y-29919438D02*
X21774874Y-30071819D01*
X21774874Y-30071819D02*
X21812969Y-30148009D01*
X21812969Y-30148009D02*
X21889159Y-30224200D01*
X21889159Y-30224200D02*
X22003445Y-30262295D01*
X22003445Y-30262295D02*
X22193921Y-30262295D01*
X21432017Y-30033723D02*
X21051064Y-30033723D01*
X21508207Y-30262295D02*
X21241540Y-29462295D01*
X21241540Y-29462295D02*
X20974874Y-30262295D01*
X20174874Y-29462295D02*
X19679636Y-29462295D01*
X19679636Y-29462295D02*
X19946302Y-29767057D01*
X19946302Y-29767057D02*
X19832017Y-29767057D01*
X19832017Y-29767057D02*
X19755826Y-29805152D01*
X19755826Y-29805152D02*
X19717731Y-29843247D01*
X19717731Y-29843247D02*
X19679636Y-29919438D01*
X19679636Y-29919438D02*
X19679636Y-30109914D01*
X19679636Y-30109914D02*
X19717731Y-30186104D01*
X19717731Y-30186104D02*
X19755826Y-30224200D01*
X19755826Y-30224200D02*
X19832017Y-30262295D01*
X19832017Y-30262295D02*
X20060588Y-30262295D01*
X20060588Y-30262295D02*
X20136779Y-30224200D01*
X20136779Y-30224200D02*
X20174874Y-30186104D01*
X19336778Y-30186104D02*
X19298683Y-30224200D01*
X19298683Y-30224200D02*
X19336778Y-30262295D01*
X19336778Y-30262295D02*
X19374874Y-30224200D01*
X19374874Y-30224200D02*
X19336778Y-30186104D01*
X19336778Y-30186104D02*
X19336778Y-30262295D01*
X19032017Y-29462295D02*
X18536779Y-29462295D01*
X18536779Y-29462295D02*
X18803445Y-29767057D01*
X18803445Y-29767057D02*
X18689160Y-29767057D01*
X18689160Y-29767057D02*
X18612969Y-29805152D01*
X18612969Y-29805152D02*
X18574874Y-29843247D01*
X18574874Y-29843247D02*
X18536779Y-29919438D01*
X18536779Y-29919438D02*
X18536779Y-30109914D01*
X18536779Y-30109914D02*
X18574874Y-30186104D01*
X18574874Y-30186104D02*
X18612969Y-30224200D01*
X18612969Y-30224200D02*
X18689160Y-30262295D01*
X18689160Y-30262295D02*
X18917731Y-30262295D01*
X18917731Y-30262295D02*
X18993922Y-30224200D01*
X18993922Y-30224200D02*
X19032017Y-30186104D01*
X18308207Y-29462295D02*
X18041540Y-30262295D01*
X18041540Y-30262295D02*
X17774874Y-29462295D01*
X22955827Y-32824200D02*
X22841541Y-32862295D01*
X22841541Y-32862295D02*
X22651065Y-32862295D01*
X22651065Y-32862295D02*
X22574874Y-32824200D01*
X22574874Y-32824200D02*
X22536779Y-32786104D01*
X22536779Y-32786104D02*
X22498684Y-32709914D01*
X22498684Y-32709914D02*
X22498684Y-32633723D01*
X22498684Y-32633723D02*
X22536779Y-32557533D01*
X22536779Y-32557533D02*
X22574874Y-32519438D01*
X22574874Y-32519438D02*
X22651065Y-32481342D01*
X22651065Y-32481342D02*
X22803446Y-32443247D01*
X22803446Y-32443247D02*
X22879636Y-32405152D01*
X22879636Y-32405152D02*
X22917731Y-32367057D01*
X22917731Y-32367057D02*
X22955827Y-32290866D01*
X22955827Y-32290866D02*
X22955827Y-32214676D01*
X22955827Y-32214676D02*
X22917731Y-32138485D01*
X22917731Y-32138485D02*
X22879636Y-32100390D01*
X22879636Y-32100390D02*
X22803446Y-32062295D01*
X22803446Y-32062295D02*
X22612969Y-32062295D01*
X22612969Y-32062295D02*
X22498684Y-32100390D01*
X21698683Y-32786104D02*
X21736779Y-32824200D01*
X21736779Y-32824200D02*
X21851064Y-32862295D01*
X21851064Y-32862295D02*
X21927255Y-32862295D01*
X21927255Y-32862295D02*
X22041541Y-32824200D01*
X22041541Y-32824200D02*
X22117731Y-32748009D01*
X22117731Y-32748009D02*
X22155826Y-32671819D01*
X22155826Y-32671819D02*
X22193922Y-32519438D01*
X22193922Y-32519438D02*
X22193922Y-32405152D01*
X22193922Y-32405152D02*
X22155826Y-32252771D01*
X22155826Y-32252771D02*
X22117731Y-32176580D01*
X22117731Y-32176580D02*
X22041541Y-32100390D01*
X22041541Y-32100390D02*
X21927255Y-32062295D01*
X21927255Y-32062295D02*
X21851064Y-32062295D01*
X21851064Y-32062295D02*
X21736779Y-32100390D01*
X21736779Y-32100390D02*
X21698683Y-32138485D01*
X20974874Y-32862295D02*
X21355826Y-32862295D01*
X21355826Y-32862295D02*
X21355826Y-32062295D01*
X20174874Y-32062295D02*
X19679636Y-32062295D01*
X19679636Y-32062295D02*
X19946302Y-32367057D01*
X19946302Y-32367057D02*
X19832017Y-32367057D01*
X19832017Y-32367057D02*
X19755826Y-32405152D01*
X19755826Y-32405152D02*
X19717731Y-32443247D01*
X19717731Y-32443247D02*
X19679636Y-32519438D01*
X19679636Y-32519438D02*
X19679636Y-32709914D01*
X19679636Y-32709914D02*
X19717731Y-32786104D01*
X19717731Y-32786104D02*
X19755826Y-32824200D01*
X19755826Y-32824200D02*
X19832017Y-32862295D01*
X19832017Y-32862295D02*
X20060588Y-32862295D01*
X20060588Y-32862295D02*
X20136779Y-32824200D01*
X20136779Y-32824200D02*
X20174874Y-32786104D01*
X19336778Y-32786104D02*
X19298683Y-32824200D01*
X19298683Y-32824200D02*
X19336778Y-32862295D01*
X19336778Y-32862295D02*
X19374874Y-32824200D01*
X19374874Y-32824200D02*
X19336778Y-32786104D01*
X19336778Y-32786104D02*
X19336778Y-32862295D01*
X19032017Y-32062295D02*
X18536779Y-32062295D01*
X18536779Y-32062295D02*
X18803445Y-32367057D01*
X18803445Y-32367057D02*
X18689160Y-32367057D01*
X18689160Y-32367057D02*
X18612969Y-32405152D01*
X18612969Y-32405152D02*
X18574874Y-32443247D01*
X18574874Y-32443247D02*
X18536779Y-32519438D01*
X18536779Y-32519438D02*
X18536779Y-32709914D01*
X18536779Y-32709914D02*
X18574874Y-32786104D01*
X18574874Y-32786104D02*
X18612969Y-32824200D01*
X18612969Y-32824200D02*
X18689160Y-32862295D01*
X18689160Y-32862295D02*
X18917731Y-32862295D01*
X18917731Y-32862295D02*
X18993922Y-32824200D01*
X18993922Y-32824200D02*
X19032017Y-32786104D01*
X18308207Y-32062295D02*
X18041540Y-32862295D01*
X18041540Y-32862295D02*
X17774874Y-32062295D01*
X7769819Y-24407142D02*
X6769819Y-24407142D01*
X6865057Y-24835713D02*
X6817438Y-24883332D01*
X6817438Y-24883332D02*
X6769819Y-24978570D01*
X6769819Y-24978570D02*
X6769819Y-25216665D01*
X6769819Y-25216665D02*
X6817438Y-25311903D01*
X6817438Y-25311903D02*
X6865057Y-25359522D01*
X6865057Y-25359522D02*
X6960295Y-25407141D01*
X6960295Y-25407141D02*
X7055533Y-25407141D01*
X7055533Y-25407141D02*
X7198390Y-25359522D01*
X7198390Y-25359522D02*
X7769819Y-24788094D01*
X7769819Y-24788094D02*
X7769819Y-25407141D01*
X7674580Y-26407141D02*
X7722200Y-26359522D01*
X7722200Y-26359522D02*
X7769819Y-26216665D01*
X7769819Y-26216665D02*
X7769819Y-26121427D01*
X7769819Y-26121427D02*
X7722200Y-25978570D01*
X7722200Y-25978570D02*
X7626961Y-25883332D01*
X7626961Y-25883332D02*
X7531723Y-25835713D01*
X7531723Y-25835713D02*
X7341247Y-25788094D01*
X7341247Y-25788094D02*
X7198390Y-25788094D01*
X7198390Y-25788094D02*
X7007914Y-25835713D01*
X7007914Y-25835713D02*
X6912676Y-25883332D01*
X6912676Y-25883332D02*
X6817438Y-25978570D01*
X6817438Y-25978570D02*
X6769819Y-26121427D01*
X6769819Y-26121427D02*
X6769819Y-26216665D01*
X6769819Y-26216665D02*
X6817438Y-26359522D01*
X6817438Y-26359522D02*
X6865057Y-26407141D01*
X7769819Y-27597618D02*
X6769819Y-27597618D01*
X6769819Y-27597618D02*
X6769819Y-27978570D01*
X6769819Y-27978570D02*
X6817438Y-28073808D01*
X6817438Y-28073808D02*
X6865057Y-28121427D01*
X6865057Y-28121427D02*
X6960295Y-28169046D01*
X6960295Y-28169046D02*
X7103152Y-28169046D01*
X7103152Y-28169046D02*
X7198390Y-28121427D01*
X7198390Y-28121427D02*
X7246009Y-28073808D01*
X7246009Y-28073808D02*
X7293628Y-27978570D01*
X7293628Y-27978570D02*
X7293628Y-27597618D01*
X7103152Y-29026189D02*
X7769819Y-29026189D01*
X7103152Y-28597618D02*
X7626961Y-28597618D01*
X7626961Y-28597618D02*
X7722200Y-28645237D01*
X7722200Y-28645237D02*
X7769819Y-28740475D01*
X7769819Y-28740475D02*
X7769819Y-28883332D01*
X7769819Y-28883332D02*
X7722200Y-28978570D01*
X7722200Y-28978570D02*
X7674580Y-29026189D01*
X7769819Y-29645237D02*
X7722200Y-29549999D01*
X7722200Y-29549999D02*
X7626961Y-29502380D01*
X7626961Y-29502380D02*
X6769819Y-29502380D01*
X7769819Y-30169047D02*
X7722200Y-30073809D01*
X7722200Y-30073809D02*
X7626961Y-30026190D01*
X7626961Y-30026190D02*
X6769819Y-30026190D01*
X7103152Y-30978571D02*
X7769819Y-30978571D01*
X7103152Y-30550000D02*
X7626961Y-30550000D01*
X7626961Y-30550000D02*
X7722200Y-30597619D01*
X7722200Y-30597619D02*
X7769819Y-30692857D01*
X7769819Y-30692857D02*
X7769819Y-30835714D01*
X7769819Y-30835714D02*
X7722200Y-30930952D01*
X7722200Y-30930952D02*
X7674580Y-30978571D01*
X7103152Y-31454762D02*
X8103152Y-31454762D01*
X7150771Y-31454762D02*
X7103152Y-31550000D01*
X7103152Y-31550000D02*
X7103152Y-31740476D01*
X7103152Y-31740476D02*
X7150771Y-31835714D01*
X7150771Y-31835714D02*
X7198390Y-31883333D01*
X7198390Y-31883333D02*
X7293628Y-31930952D01*
X7293628Y-31930952D02*
X7579342Y-31930952D01*
X7579342Y-31930952D02*
X7674580Y-31883333D01*
X7674580Y-31883333D02*
X7722200Y-31835714D01*
X7722200Y-31835714D02*
X7769819Y-31740476D01*
X7769819Y-31740476D02*
X7769819Y-31550000D01*
X7769819Y-31550000D02*
X7722200Y-31454762D01*
X7722200Y-32311905D02*
X7769819Y-32407143D01*
X7769819Y-32407143D02*
X7769819Y-32597619D01*
X7769819Y-32597619D02*
X7722200Y-32692857D01*
X7722200Y-32692857D02*
X7626961Y-32740476D01*
X7626961Y-32740476D02*
X7579342Y-32740476D01*
X7579342Y-32740476D02*
X7484104Y-32692857D01*
X7484104Y-32692857D02*
X7436485Y-32597619D01*
X7436485Y-32597619D02*
X7436485Y-32454762D01*
X7436485Y-32454762D02*
X7388866Y-32359524D01*
X7388866Y-32359524D02*
X7293628Y-32311905D01*
X7293628Y-32311905D02*
X7246009Y-32311905D01*
X7246009Y-32311905D02*
X7150771Y-32359524D01*
X7150771Y-32359524D02*
X7103152Y-32454762D01*
X7103152Y-32454762D02*
X7103152Y-32597619D01*
X7103152Y-32597619D02*
X7150771Y-32692857D01*
X10876189Y-20139819D02*
X10876189Y-19139819D01*
X10447618Y-19235057D02*
X10399999Y-19187438D01*
X10399999Y-19187438D02*
X10304761Y-19139819D01*
X10304761Y-19139819D02*
X10066666Y-19139819D01*
X10066666Y-19139819D02*
X9971428Y-19187438D01*
X9971428Y-19187438D02*
X9923809Y-19235057D01*
X9923809Y-19235057D02*
X9876190Y-19330295D01*
X9876190Y-19330295D02*
X9876190Y-19425533D01*
X9876190Y-19425533D02*
X9923809Y-19568390D01*
X9923809Y-19568390D02*
X10495237Y-20139819D01*
X10495237Y-20139819D02*
X9876190Y-20139819D01*
X8876190Y-20044580D02*
X8923809Y-20092200D01*
X8923809Y-20092200D02*
X9066666Y-20139819D01*
X9066666Y-20139819D02*
X9161904Y-20139819D01*
X9161904Y-20139819D02*
X9304761Y-20092200D01*
X9304761Y-20092200D02*
X9399999Y-19996961D01*
X9399999Y-19996961D02*
X9447618Y-19901723D01*
X9447618Y-19901723D02*
X9495237Y-19711247D01*
X9495237Y-19711247D02*
X9495237Y-19568390D01*
X9495237Y-19568390D02*
X9447618Y-19377914D01*
X9447618Y-19377914D02*
X9399999Y-19282676D01*
X9399999Y-19282676D02*
X9304761Y-19187438D01*
X9304761Y-19187438D02*
X9161904Y-19139819D01*
X9161904Y-19139819D02*
X9066666Y-19139819D01*
X9066666Y-19139819D02*
X8923809Y-19187438D01*
X8923809Y-19187438D02*
X8876190Y-19235057D01*
X12876190Y-21226009D02*
X12542857Y-21226009D01*
X12400000Y-21749819D02*
X12876190Y-21749819D01*
X12876190Y-21749819D02*
X12876190Y-20749819D01*
X12876190Y-20749819D02*
X12400000Y-20749819D01*
X12066666Y-21749819D02*
X11542857Y-21083152D01*
X12066666Y-21083152D02*
X11542857Y-21749819D01*
X11304761Y-21083152D02*
X10923809Y-21083152D01*
X11161904Y-20749819D02*
X11161904Y-21606961D01*
X11161904Y-21606961D02*
X11114285Y-21702200D01*
X11114285Y-21702200D02*
X11019047Y-21749819D01*
X11019047Y-21749819D02*
X10923809Y-21749819D01*
X10209523Y-21702200D02*
X10304761Y-21749819D01*
X10304761Y-21749819D02*
X10495237Y-21749819D01*
X10495237Y-21749819D02*
X10590475Y-21702200D01*
X10590475Y-21702200D02*
X10638094Y-21606961D01*
X10638094Y-21606961D02*
X10638094Y-21226009D01*
X10638094Y-21226009D02*
X10590475Y-21130771D01*
X10590475Y-21130771D02*
X10495237Y-21083152D01*
X10495237Y-21083152D02*
X10304761Y-21083152D01*
X10304761Y-21083152D02*
X10209523Y-21130771D01*
X10209523Y-21130771D02*
X10161904Y-21226009D01*
X10161904Y-21226009D02*
X10161904Y-21321247D01*
X10161904Y-21321247D02*
X10638094Y-21416485D01*
X9733332Y-21083152D02*
X9733332Y-21749819D01*
X9733332Y-21178390D02*
X9685713Y-21130771D01*
X9685713Y-21130771D02*
X9590475Y-21083152D01*
X9590475Y-21083152D02*
X9447618Y-21083152D01*
X9447618Y-21083152D02*
X9352380Y-21130771D01*
X9352380Y-21130771D02*
X9304761Y-21226009D01*
X9304761Y-21226009D02*
X9304761Y-21749819D01*
X8399999Y-21749819D02*
X8399999Y-20749819D01*
X8399999Y-21702200D02*
X8495237Y-21749819D01*
X8495237Y-21749819D02*
X8685713Y-21749819D01*
X8685713Y-21749819D02*
X8780951Y-21702200D01*
X8780951Y-21702200D02*
X8828570Y-21654580D01*
X8828570Y-21654580D02*
X8876189Y-21559342D01*
X8876189Y-21559342D02*
X8876189Y-21273628D01*
X8876189Y-21273628D02*
X8828570Y-21178390D01*
X8828570Y-21178390D02*
X8780951Y-21130771D01*
X8780951Y-21130771D02*
X8685713Y-21083152D01*
X8685713Y-21083152D02*
X8495237Y-21083152D01*
X8495237Y-21083152D02*
X8399999Y-21130771D01*
X7542856Y-21702200D02*
X7638094Y-21749819D01*
X7638094Y-21749819D02*
X7828570Y-21749819D01*
X7828570Y-21749819D02*
X7923808Y-21702200D01*
X7923808Y-21702200D02*
X7971427Y-21606961D01*
X7971427Y-21606961D02*
X7971427Y-21226009D01*
X7971427Y-21226009D02*
X7923808Y-21130771D01*
X7923808Y-21130771D02*
X7828570Y-21083152D01*
X7828570Y-21083152D02*
X7638094Y-21083152D01*
X7638094Y-21083152D02*
X7542856Y-21130771D01*
X7542856Y-21130771D02*
X7495237Y-21226009D01*
X7495237Y-21226009D02*
X7495237Y-21321247D01*
X7495237Y-21321247D02*
X7971427Y-21416485D01*
X7066665Y-21749819D02*
X7066665Y-21083152D01*
X7066665Y-21273628D02*
X7019046Y-21178390D01*
X7019046Y-21178390D02*
X6971427Y-21130771D01*
X6971427Y-21130771D02*
X6876189Y-21083152D01*
X6876189Y-21083152D02*
X6780951Y-21083152D01*
X21812970Y-27624200D02*
X21698684Y-27662295D01*
X21698684Y-27662295D02*
X21508208Y-27662295D01*
X21508208Y-27662295D02*
X21432017Y-27624200D01*
X21432017Y-27624200D02*
X21393922Y-27586104D01*
X21393922Y-27586104D02*
X21355827Y-27509914D01*
X21355827Y-27509914D02*
X21355827Y-27433723D01*
X21355827Y-27433723D02*
X21393922Y-27357533D01*
X21393922Y-27357533D02*
X21432017Y-27319438D01*
X21432017Y-27319438D02*
X21508208Y-27281342D01*
X21508208Y-27281342D02*
X21660589Y-27243247D01*
X21660589Y-27243247D02*
X21736779Y-27205152D01*
X21736779Y-27205152D02*
X21774874Y-27167057D01*
X21774874Y-27167057D02*
X21812970Y-27090866D01*
X21812970Y-27090866D02*
X21812970Y-27014676D01*
X21812970Y-27014676D02*
X21774874Y-26938485D01*
X21774874Y-26938485D02*
X21736779Y-26900390D01*
X21736779Y-26900390D02*
X21660589Y-26862295D01*
X21660589Y-26862295D02*
X21470112Y-26862295D01*
X21470112Y-26862295D02*
X21355827Y-26900390D01*
X20555826Y-27586104D02*
X20593922Y-27624200D01*
X20593922Y-27624200D02*
X20708207Y-27662295D01*
X20708207Y-27662295D02*
X20784398Y-27662295D01*
X20784398Y-27662295D02*
X20898684Y-27624200D01*
X20898684Y-27624200D02*
X20974874Y-27548009D01*
X20974874Y-27548009D02*
X21012969Y-27471819D01*
X21012969Y-27471819D02*
X21051065Y-27319438D01*
X21051065Y-27319438D02*
X21051065Y-27205152D01*
X21051065Y-27205152D02*
X21012969Y-27052771D01*
X21012969Y-27052771D02*
X20974874Y-26976580D01*
X20974874Y-26976580D02*
X20898684Y-26900390D01*
X20898684Y-26900390D02*
X20784398Y-26862295D01*
X20784398Y-26862295D02*
X20708207Y-26862295D01*
X20708207Y-26862295D02*
X20593922Y-26900390D01*
X20593922Y-26900390D02*
X20555826Y-26938485D01*
X19832017Y-27662295D02*
X20212969Y-27662295D01*
X20212969Y-27662295D02*
X20212969Y-26862295D01*
X18574874Y-26862295D02*
X18955826Y-26862295D01*
X18955826Y-26862295D02*
X18993922Y-27243247D01*
X18993922Y-27243247D02*
X18955826Y-27205152D01*
X18955826Y-27205152D02*
X18879636Y-27167057D01*
X18879636Y-27167057D02*
X18689160Y-27167057D01*
X18689160Y-27167057D02*
X18612969Y-27205152D01*
X18612969Y-27205152D02*
X18574874Y-27243247D01*
X18574874Y-27243247D02*
X18536779Y-27319438D01*
X18536779Y-27319438D02*
X18536779Y-27509914D01*
X18536779Y-27509914D02*
X18574874Y-27586104D01*
X18574874Y-27586104D02*
X18612969Y-27624200D01*
X18612969Y-27624200D02*
X18689160Y-27662295D01*
X18689160Y-27662295D02*
X18879636Y-27662295D01*
X18879636Y-27662295D02*
X18955826Y-27624200D01*
X18955826Y-27624200D02*
X18993922Y-27586104D01*
X18308207Y-26862295D02*
X18041540Y-27662295D01*
X18041540Y-27662295D02*
X17774874Y-26862295D01*
X30033333Y-26554819D02*
X30033333Y-27269104D01*
X30033333Y-27269104D02*
X30080952Y-27411961D01*
X30080952Y-27411961D02*
X30176190Y-27507200D01*
X30176190Y-27507200D02*
X30319047Y-27554819D01*
X30319047Y-27554819D02*
X30414285Y-27554819D01*
X29128571Y-26554819D02*
X29319047Y-26554819D01*
X29319047Y-26554819D02*
X29414285Y-26602438D01*
X29414285Y-26602438D02*
X29461904Y-26650057D01*
X29461904Y-26650057D02*
X29557142Y-26792914D01*
X29557142Y-26792914D02*
X29604761Y-26983390D01*
X29604761Y-26983390D02*
X29604761Y-27364342D01*
X29604761Y-27364342D02*
X29557142Y-27459580D01*
X29557142Y-27459580D02*
X29509523Y-27507200D01*
X29509523Y-27507200D02*
X29414285Y-27554819D01*
X29414285Y-27554819D02*
X29223809Y-27554819D01*
X29223809Y-27554819D02*
X29128571Y-27507200D01*
X29128571Y-27507200D02*
X29080952Y-27459580D01*
X29080952Y-27459580D02*
X29033333Y-27364342D01*
X29033333Y-27364342D02*
X29033333Y-27126247D01*
X29033333Y-27126247D02*
X29080952Y-27031009D01*
X29080952Y-27031009D02*
X29128571Y-26983390D01*
X29128571Y-26983390D02*
X29223809Y-26935771D01*
X29223809Y-26935771D02*
X29414285Y-26935771D01*
X29414285Y-26935771D02*
X29509523Y-26983390D01*
X29509523Y-26983390D02*
X29557142Y-27031009D01*
X29557142Y-27031009D02*
X29604761Y-27126247D01*
X22554819Y-42833333D02*
X22078628Y-42500000D01*
X22554819Y-42261905D02*
X21554819Y-42261905D01*
X21554819Y-42261905D02*
X21554819Y-42642857D01*
X21554819Y-42642857D02*
X21602438Y-42738095D01*
X21602438Y-42738095D02*
X21650057Y-42785714D01*
X21650057Y-42785714D02*
X21745295Y-42833333D01*
X21745295Y-42833333D02*
X21888152Y-42833333D01*
X21888152Y-42833333D02*
X21983390Y-42785714D01*
X21983390Y-42785714D02*
X22031009Y-42738095D01*
X22031009Y-42738095D02*
X22078628Y-42642857D01*
X22078628Y-42642857D02*
X22078628Y-42261905D01*
X21554819Y-43738095D02*
X21554819Y-43261905D01*
X21554819Y-43261905D02*
X22031009Y-43214286D01*
X22031009Y-43214286D02*
X21983390Y-43261905D01*
X21983390Y-43261905D02*
X21935771Y-43357143D01*
X21935771Y-43357143D02*
X21935771Y-43595238D01*
X21935771Y-43595238D02*
X21983390Y-43690476D01*
X21983390Y-43690476D02*
X22031009Y-43738095D01*
X22031009Y-43738095D02*
X22126247Y-43785714D01*
X22126247Y-43785714D02*
X22364342Y-43785714D01*
X22364342Y-43785714D02*
X22459580Y-43738095D01*
X22459580Y-43738095D02*
X22507200Y-43690476D01*
X22507200Y-43690476D02*
X22554819Y-43595238D01*
X22554819Y-43595238D02*
X22554819Y-43357143D01*
X22554819Y-43357143D02*
X22507200Y-43261905D01*
X22507200Y-43261905D02*
X22459580Y-43214286D01*
X22554819Y-39033333D02*
X22078628Y-38700000D01*
X22554819Y-38461905D02*
X21554819Y-38461905D01*
X21554819Y-38461905D02*
X21554819Y-38842857D01*
X21554819Y-38842857D02*
X21602438Y-38938095D01*
X21602438Y-38938095D02*
X21650057Y-38985714D01*
X21650057Y-38985714D02*
X21745295Y-39033333D01*
X21745295Y-39033333D02*
X21888152Y-39033333D01*
X21888152Y-39033333D02*
X21983390Y-38985714D01*
X21983390Y-38985714D02*
X22031009Y-38938095D01*
X22031009Y-38938095D02*
X22078628Y-38842857D01*
X22078628Y-38842857D02*
X22078628Y-38461905D01*
X21554819Y-39890476D02*
X21554819Y-39700000D01*
X21554819Y-39700000D02*
X21602438Y-39604762D01*
X21602438Y-39604762D02*
X21650057Y-39557143D01*
X21650057Y-39557143D02*
X21792914Y-39461905D01*
X21792914Y-39461905D02*
X21983390Y-39414286D01*
X21983390Y-39414286D02*
X22364342Y-39414286D01*
X22364342Y-39414286D02*
X22459580Y-39461905D01*
X22459580Y-39461905D02*
X22507200Y-39509524D01*
X22507200Y-39509524D02*
X22554819Y-39604762D01*
X22554819Y-39604762D02*
X22554819Y-39795238D01*
X22554819Y-39795238D02*
X22507200Y-39890476D01*
X22507200Y-39890476D02*
X22459580Y-39938095D01*
X22459580Y-39938095D02*
X22364342Y-39985714D01*
X22364342Y-39985714D02*
X22126247Y-39985714D01*
X22126247Y-39985714D02*
X22031009Y-39938095D01*
X22031009Y-39938095D02*
X21983390Y-39890476D01*
X21983390Y-39890476D02*
X21935771Y-39795238D01*
X21935771Y-39795238D02*
X21935771Y-39604762D01*
X21935771Y-39604762D02*
X21983390Y-39509524D01*
X21983390Y-39509524D02*
X22031009Y-39461905D01*
X22031009Y-39461905D02*
X22126247Y-39414286D01*
X18895238Y-44800057D02*
X18990476Y-44752438D01*
X18990476Y-44752438D02*
X19085714Y-44657200D01*
X19085714Y-44657200D02*
X19228571Y-44514342D01*
X19228571Y-44514342D02*
X19323809Y-44466723D01*
X19323809Y-44466723D02*
X19419047Y-44466723D01*
X19371428Y-44704819D02*
X19466666Y-44657200D01*
X19466666Y-44657200D02*
X19561904Y-44561961D01*
X19561904Y-44561961D02*
X19609523Y-44371485D01*
X19609523Y-44371485D02*
X19609523Y-44038152D01*
X19609523Y-44038152D02*
X19561904Y-43847676D01*
X19561904Y-43847676D02*
X19466666Y-43752438D01*
X19466666Y-43752438D02*
X19371428Y-43704819D01*
X19371428Y-43704819D02*
X19180952Y-43704819D01*
X19180952Y-43704819D02*
X19085714Y-43752438D01*
X19085714Y-43752438D02*
X18990476Y-43847676D01*
X18990476Y-43847676D02*
X18942857Y-44038152D01*
X18942857Y-44038152D02*
X18942857Y-44371485D01*
X18942857Y-44371485D02*
X18990476Y-44561961D01*
X18990476Y-44561961D02*
X19085714Y-44657200D01*
X19085714Y-44657200D02*
X19180952Y-44704819D01*
X19180952Y-44704819D02*
X19371428Y-44704819D01*
X18561904Y-43800057D02*
X18514285Y-43752438D01*
X18514285Y-43752438D02*
X18419047Y-43704819D01*
X18419047Y-43704819D02*
X18180952Y-43704819D01*
X18180952Y-43704819D02*
X18085714Y-43752438D01*
X18085714Y-43752438D02*
X18038095Y-43800057D01*
X18038095Y-43800057D02*
X17990476Y-43895295D01*
X17990476Y-43895295D02*
X17990476Y-43990533D01*
X17990476Y-43990533D02*
X18038095Y-44133390D01*
X18038095Y-44133390D02*
X18609523Y-44704819D01*
X18609523Y-44704819D02*
X17990476Y-44704819D01*
X10417857Y-32954819D02*
X10751190Y-32478628D01*
X10989285Y-32954819D02*
X10989285Y-31954819D01*
X10989285Y-31954819D02*
X10608333Y-31954819D01*
X10608333Y-31954819D02*
X10513095Y-32002438D01*
X10513095Y-32002438D02*
X10465476Y-32050057D01*
X10465476Y-32050057D02*
X10417857Y-32145295D01*
X10417857Y-32145295D02*
X10417857Y-32288152D01*
X10417857Y-32288152D02*
X10465476Y-32383390D01*
X10465476Y-32383390D02*
X10513095Y-32431009D01*
X10513095Y-32431009D02*
X10608333Y-32478628D01*
X10608333Y-32478628D02*
X10989285Y-32478628D01*
X9465476Y-32954819D02*
X10036904Y-32954819D01*
X9751190Y-32954819D02*
X9751190Y-31954819D01*
X9751190Y-31954819D02*
X9846428Y-32097676D01*
X9846428Y-32097676D02*
X9941666Y-32192914D01*
X9941666Y-32192914D02*
X10036904Y-32240533D01*
X9084523Y-32050057D02*
X9036904Y-32002438D01*
X9036904Y-32002438D02*
X8941666Y-31954819D01*
X8941666Y-31954819D02*
X8703571Y-31954819D01*
X8703571Y-31954819D02*
X8608333Y-32002438D01*
X8608333Y-32002438D02*
X8560714Y-32050057D01*
X8560714Y-32050057D02*
X8513095Y-32145295D01*
X8513095Y-32145295D02*
X8513095Y-32240533D01*
X8513095Y-32240533D02*
X8560714Y-32383390D01*
X8560714Y-32383390D02*
X9132142Y-32954819D01*
X9132142Y-32954819D02*
X8513095Y-32954819D01*
X18895238Y-41000057D02*
X18990476Y-40952438D01*
X18990476Y-40952438D02*
X19085714Y-40857200D01*
X19085714Y-40857200D02*
X19228571Y-40714342D01*
X19228571Y-40714342D02*
X19323809Y-40666723D01*
X19323809Y-40666723D02*
X19419047Y-40666723D01*
X19371428Y-40904819D02*
X19466666Y-40857200D01*
X19466666Y-40857200D02*
X19561904Y-40761961D01*
X19561904Y-40761961D02*
X19609523Y-40571485D01*
X19609523Y-40571485D02*
X19609523Y-40238152D01*
X19609523Y-40238152D02*
X19561904Y-40047676D01*
X19561904Y-40047676D02*
X19466666Y-39952438D01*
X19466666Y-39952438D02*
X19371428Y-39904819D01*
X19371428Y-39904819D02*
X19180952Y-39904819D01*
X19180952Y-39904819D02*
X19085714Y-39952438D01*
X19085714Y-39952438D02*
X18990476Y-40047676D01*
X18990476Y-40047676D02*
X18942857Y-40238152D01*
X18942857Y-40238152D02*
X18942857Y-40571485D01*
X18942857Y-40571485D02*
X18990476Y-40761961D01*
X18990476Y-40761961D02*
X19085714Y-40857200D01*
X19085714Y-40857200D02*
X19180952Y-40904819D01*
X19180952Y-40904819D02*
X19371428Y-40904819D01*
X18609523Y-39904819D02*
X17990476Y-39904819D01*
X17990476Y-39904819D02*
X18323809Y-40285771D01*
X18323809Y-40285771D02*
X18180952Y-40285771D01*
X18180952Y-40285771D02*
X18085714Y-40333390D01*
X18085714Y-40333390D02*
X18038095Y-40381009D01*
X18038095Y-40381009D02*
X17990476Y-40476247D01*
X17990476Y-40476247D02*
X17990476Y-40714342D01*
X17990476Y-40714342D02*
X18038095Y-40809580D01*
X18038095Y-40809580D02*
X18085714Y-40857200D01*
X18085714Y-40857200D02*
X18180952Y-40904819D01*
X18180952Y-40904819D02*
X18466666Y-40904819D01*
X18466666Y-40904819D02*
X18561904Y-40857200D01*
X18561904Y-40857200D02*
X18609523Y-40809580D01*
X12624819Y-42833333D02*
X12148628Y-42500000D01*
X12624819Y-42261905D02*
X11624819Y-42261905D01*
X11624819Y-42261905D02*
X11624819Y-42642857D01*
X11624819Y-42642857D02*
X11672438Y-42738095D01*
X11672438Y-42738095D02*
X11720057Y-42785714D01*
X11720057Y-42785714D02*
X11815295Y-42833333D01*
X11815295Y-42833333D02*
X11958152Y-42833333D01*
X11958152Y-42833333D02*
X12053390Y-42785714D01*
X12053390Y-42785714D02*
X12101009Y-42738095D01*
X12101009Y-42738095D02*
X12148628Y-42642857D01*
X12148628Y-42642857D02*
X12148628Y-42261905D01*
X11720057Y-43214286D02*
X11672438Y-43261905D01*
X11672438Y-43261905D02*
X11624819Y-43357143D01*
X11624819Y-43357143D02*
X11624819Y-43595238D01*
X11624819Y-43595238D02*
X11672438Y-43690476D01*
X11672438Y-43690476D02*
X11720057Y-43738095D01*
X11720057Y-43738095D02*
X11815295Y-43785714D01*
X11815295Y-43785714D02*
X11910533Y-43785714D01*
X11910533Y-43785714D02*
X12053390Y-43738095D01*
X12053390Y-43738095D02*
X12624819Y-43166667D01*
X12624819Y-43166667D02*
X12624819Y-43785714D01*
X10522157Y-27754819D02*
X10855490Y-27278628D01*
X11093585Y-27754819D02*
X11093585Y-26754819D01*
X11093585Y-26754819D02*
X10712633Y-26754819D01*
X10712633Y-26754819D02*
X10617395Y-26802438D01*
X10617395Y-26802438D02*
X10569776Y-26850057D01*
X10569776Y-26850057D02*
X10522157Y-26945295D01*
X10522157Y-26945295D02*
X10522157Y-27088152D01*
X10522157Y-27088152D02*
X10569776Y-27183390D01*
X10569776Y-27183390D02*
X10617395Y-27231009D01*
X10617395Y-27231009D02*
X10712633Y-27278628D01*
X10712633Y-27278628D02*
X11093585Y-27278628D01*
X9569776Y-27754819D02*
X10141204Y-27754819D01*
X9855490Y-27754819D02*
X9855490Y-26754819D01*
X9855490Y-26754819D02*
X9950728Y-26897676D01*
X9950728Y-26897676D02*
X10045966Y-26992914D01*
X10045966Y-26992914D02*
X10141204Y-27040533D01*
X8617395Y-27754819D02*
X9188823Y-27754819D01*
X8903109Y-27754819D02*
X8903109Y-26754819D01*
X8903109Y-26754819D02*
X8998347Y-26897676D01*
X8998347Y-26897676D02*
X9093585Y-26992914D01*
X9093585Y-26992914D02*
X9188823Y-27040533D01*
X22492319Y-46633333D02*
X22016128Y-46300000D01*
X22492319Y-46061905D02*
X21492319Y-46061905D01*
X21492319Y-46061905D02*
X21492319Y-46442857D01*
X21492319Y-46442857D02*
X21539938Y-46538095D01*
X21539938Y-46538095D02*
X21587557Y-46585714D01*
X21587557Y-46585714D02*
X21682795Y-46633333D01*
X21682795Y-46633333D02*
X21825652Y-46633333D01*
X21825652Y-46633333D02*
X21920890Y-46585714D01*
X21920890Y-46585714D02*
X21968509Y-46538095D01*
X21968509Y-46538095D02*
X22016128Y-46442857D01*
X22016128Y-46442857D02*
X22016128Y-46061905D01*
X21825652Y-47490476D02*
X22492319Y-47490476D01*
X21444700Y-47252381D02*
X22158985Y-47014286D01*
X22158985Y-47014286D02*
X22158985Y-47633333D01*
X10404566Y-25154819D02*
X10737899Y-24678628D01*
X10975994Y-25154819D02*
X10975994Y-24154819D01*
X10975994Y-24154819D02*
X10595042Y-24154819D01*
X10595042Y-24154819D02*
X10499804Y-24202438D01*
X10499804Y-24202438D02*
X10452185Y-24250057D01*
X10452185Y-24250057D02*
X10404566Y-24345295D01*
X10404566Y-24345295D02*
X10404566Y-24488152D01*
X10404566Y-24488152D02*
X10452185Y-24583390D01*
X10452185Y-24583390D02*
X10499804Y-24631009D01*
X10499804Y-24631009D02*
X10595042Y-24678628D01*
X10595042Y-24678628D02*
X10975994Y-24678628D01*
X9928375Y-25154819D02*
X9737899Y-25154819D01*
X9737899Y-25154819D02*
X9642661Y-25107200D01*
X9642661Y-25107200D02*
X9595042Y-25059580D01*
X9595042Y-25059580D02*
X9499804Y-24916723D01*
X9499804Y-24916723D02*
X9452185Y-24726247D01*
X9452185Y-24726247D02*
X9452185Y-24345295D01*
X9452185Y-24345295D02*
X9499804Y-24250057D01*
X9499804Y-24250057D02*
X9547423Y-24202438D01*
X9547423Y-24202438D02*
X9642661Y-24154819D01*
X9642661Y-24154819D02*
X9833137Y-24154819D01*
X9833137Y-24154819D02*
X9928375Y-24202438D01*
X9928375Y-24202438D02*
X9975994Y-24250057D01*
X9975994Y-24250057D02*
X10023613Y-24345295D01*
X10023613Y-24345295D02*
X10023613Y-24583390D01*
X10023613Y-24583390D02*
X9975994Y-24678628D01*
X9975994Y-24678628D02*
X9928375Y-24726247D01*
X9928375Y-24726247D02*
X9833137Y-24773866D01*
X9833137Y-24773866D02*
X9642661Y-24773866D01*
X9642661Y-24773866D02*
X9547423Y-24726247D01*
X9547423Y-24726247D02*
X9499804Y-24678628D01*
X9499804Y-24678628D02*
X9452185Y-24583390D01*
X11366666Y-51409580D02*
X11414285Y-51457200D01*
X11414285Y-51457200D02*
X11557142Y-51504819D01*
X11557142Y-51504819D02*
X11652380Y-51504819D01*
X11652380Y-51504819D02*
X11795237Y-51457200D01*
X11795237Y-51457200D02*
X11890475Y-51361961D01*
X11890475Y-51361961D02*
X11938094Y-51266723D01*
X11938094Y-51266723D02*
X11985713Y-51076247D01*
X11985713Y-51076247D02*
X11985713Y-50933390D01*
X11985713Y-50933390D02*
X11938094Y-50742914D01*
X11938094Y-50742914D02*
X11890475Y-50647676D01*
X11890475Y-50647676D02*
X11795237Y-50552438D01*
X11795237Y-50552438D02*
X11652380Y-50504819D01*
X11652380Y-50504819D02*
X11557142Y-50504819D01*
X11557142Y-50504819D02*
X11414285Y-50552438D01*
X11414285Y-50552438D02*
X11366666Y-50600057D01*
X10985713Y-50600057D02*
X10938094Y-50552438D01*
X10938094Y-50552438D02*
X10842856Y-50504819D01*
X10842856Y-50504819D02*
X10604761Y-50504819D01*
X10604761Y-50504819D02*
X10509523Y-50552438D01*
X10509523Y-50552438D02*
X10461904Y-50600057D01*
X10461904Y-50600057D02*
X10414285Y-50695295D01*
X10414285Y-50695295D02*
X10414285Y-50790533D01*
X10414285Y-50790533D02*
X10461904Y-50933390D01*
X10461904Y-50933390D02*
X11033332Y-51504819D01*
X11033332Y-51504819D02*
X10414285Y-51504819D01*
X12624819Y-39033333D02*
X12148628Y-38700000D01*
X12624819Y-38461905D02*
X11624819Y-38461905D01*
X11624819Y-38461905D02*
X11624819Y-38842857D01*
X11624819Y-38842857D02*
X11672438Y-38938095D01*
X11672438Y-38938095D02*
X11720057Y-38985714D01*
X11720057Y-38985714D02*
X11815295Y-39033333D01*
X11815295Y-39033333D02*
X11958152Y-39033333D01*
X11958152Y-39033333D02*
X12053390Y-38985714D01*
X12053390Y-38985714D02*
X12101009Y-38938095D01*
X12101009Y-38938095D02*
X12148628Y-38842857D01*
X12148628Y-38842857D02*
X12148628Y-38461905D01*
X11624819Y-39366667D02*
X11624819Y-39985714D01*
X11624819Y-39985714D02*
X12005771Y-39652381D01*
X12005771Y-39652381D02*
X12005771Y-39795238D01*
X12005771Y-39795238D02*
X12053390Y-39890476D01*
X12053390Y-39890476D02*
X12101009Y-39938095D01*
X12101009Y-39938095D02*
X12196247Y-39985714D01*
X12196247Y-39985714D02*
X12434342Y-39985714D01*
X12434342Y-39985714D02*
X12529580Y-39938095D01*
X12529580Y-39938095D02*
X12577200Y-39890476D01*
X12577200Y-39890476D02*
X12624819Y-39795238D01*
X12624819Y-39795238D02*
X12624819Y-39509524D01*
X12624819Y-39509524D02*
X12577200Y-39414286D01*
X12577200Y-39414286D02*
X12529580Y-39366667D01*
X8766666Y-58209580D02*
X8814285Y-58257200D01*
X8814285Y-58257200D02*
X8957142Y-58304819D01*
X8957142Y-58304819D02*
X9052380Y-58304819D01*
X9052380Y-58304819D02*
X9195237Y-58257200D01*
X9195237Y-58257200D02*
X9290475Y-58161961D01*
X9290475Y-58161961D02*
X9338094Y-58066723D01*
X9338094Y-58066723D02*
X9385713Y-57876247D01*
X9385713Y-57876247D02*
X9385713Y-57733390D01*
X9385713Y-57733390D02*
X9338094Y-57542914D01*
X9338094Y-57542914D02*
X9290475Y-57447676D01*
X9290475Y-57447676D02*
X9195237Y-57352438D01*
X9195237Y-57352438D02*
X9052380Y-57304819D01*
X9052380Y-57304819D02*
X8957142Y-57304819D01*
X8957142Y-57304819D02*
X8814285Y-57352438D01*
X8814285Y-57352438D02*
X8766666Y-57400057D01*
X8433332Y-57304819D02*
X7814285Y-57304819D01*
X7814285Y-57304819D02*
X8147618Y-57685771D01*
X8147618Y-57685771D02*
X8004761Y-57685771D01*
X8004761Y-57685771D02*
X7909523Y-57733390D01*
X7909523Y-57733390D02*
X7861904Y-57781009D01*
X7861904Y-57781009D02*
X7814285Y-57876247D01*
X7814285Y-57876247D02*
X7814285Y-58114342D01*
X7814285Y-58114342D02*
X7861904Y-58209580D01*
X7861904Y-58209580D02*
X7909523Y-58257200D01*
X7909523Y-58257200D02*
X8004761Y-58304819D01*
X8004761Y-58304819D02*
X8290475Y-58304819D01*
X8290475Y-58304819D02*
X8385713Y-58257200D01*
X8385713Y-58257200D02*
X8433332Y-58209580D01*
X17366666Y-60059580D02*
X17414285Y-60107200D01*
X17414285Y-60107200D02*
X17557142Y-60154819D01*
X17557142Y-60154819D02*
X17652380Y-60154819D01*
X17652380Y-60154819D02*
X17795237Y-60107200D01*
X17795237Y-60107200D02*
X17890475Y-60011961D01*
X17890475Y-60011961D02*
X17938094Y-59916723D01*
X17938094Y-59916723D02*
X17985713Y-59726247D01*
X17985713Y-59726247D02*
X17985713Y-59583390D01*
X17985713Y-59583390D02*
X17938094Y-59392914D01*
X17938094Y-59392914D02*
X17890475Y-59297676D01*
X17890475Y-59297676D02*
X17795237Y-59202438D01*
X17795237Y-59202438D02*
X17652380Y-59154819D01*
X17652380Y-59154819D02*
X17557142Y-59154819D01*
X17557142Y-59154819D02*
X17414285Y-59202438D01*
X17414285Y-59202438D02*
X17366666Y-59250057D01*
X16414285Y-60154819D02*
X16985713Y-60154819D01*
X16699999Y-60154819D02*
X16699999Y-59154819D01*
X16699999Y-59154819D02*
X16795237Y-59297676D01*
X16795237Y-59297676D02*
X16890475Y-59392914D01*
X16890475Y-59392914D02*
X16985713Y-59440533D01*
X12562319Y-46633333D02*
X12086128Y-46300000D01*
X12562319Y-46061905D02*
X11562319Y-46061905D01*
X11562319Y-46061905D02*
X11562319Y-46442857D01*
X11562319Y-46442857D02*
X11609938Y-46538095D01*
X11609938Y-46538095D02*
X11657557Y-46585714D01*
X11657557Y-46585714D02*
X11752795Y-46633333D01*
X11752795Y-46633333D02*
X11895652Y-46633333D01*
X11895652Y-46633333D02*
X11990890Y-46585714D01*
X11990890Y-46585714D02*
X12038509Y-46538095D01*
X12038509Y-46538095D02*
X12086128Y-46442857D01*
X12086128Y-46442857D02*
X12086128Y-46061905D01*
X12562319Y-47585714D02*
X12562319Y-47014286D01*
X12562319Y-47300000D02*
X11562319Y-47300000D01*
X11562319Y-47300000D02*
X11705176Y-47204762D01*
X11705176Y-47204762D02*
X11800414Y-47109524D01*
X11800414Y-47109524D02*
X11848033Y-47014286D01*
X8666666Y-61009580D02*
X8714285Y-61057200D01*
X8714285Y-61057200D02*
X8857142Y-61104819D01*
X8857142Y-61104819D02*
X8952380Y-61104819D01*
X8952380Y-61104819D02*
X9095237Y-61057200D01*
X9095237Y-61057200D02*
X9190475Y-60961961D01*
X9190475Y-60961961D02*
X9238094Y-60866723D01*
X9238094Y-60866723D02*
X9285713Y-60676247D01*
X9285713Y-60676247D02*
X9285713Y-60533390D01*
X9285713Y-60533390D02*
X9238094Y-60342914D01*
X9238094Y-60342914D02*
X9190475Y-60247676D01*
X9190475Y-60247676D02*
X9095237Y-60152438D01*
X9095237Y-60152438D02*
X8952380Y-60104819D01*
X8952380Y-60104819D02*
X8857142Y-60104819D01*
X8857142Y-60104819D02*
X8714285Y-60152438D01*
X8714285Y-60152438D02*
X8666666Y-60200057D01*
X7809523Y-60438152D02*
X7809523Y-61104819D01*
X8047618Y-60057200D02*
X8285713Y-60771485D01*
X8285713Y-60771485D02*
X7666666Y-60771485D01*
X19161904Y-51704819D02*
X19161904Y-52514342D01*
X19161904Y-52514342D02*
X19114285Y-52609580D01*
X19114285Y-52609580D02*
X19066666Y-52657200D01*
X19066666Y-52657200D02*
X18971428Y-52704819D01*
X18971428Y-52704819D02*
X18780952Y-52704819D01*
X18780952Y-52704819D02*
X18685714Y-52657200D01*
X18685714Y-52657200D02*
X18638095Y-52609580D01*
X18638095Y-52609580D02*
X18590476Y-52514342D01*
X18590476Y-52514342D02*
X18590476Y-51704819D01*
X18161904Y-51800057D02*
X18114285Y-51752438D01*
X18114285Y-51752438D02*
X18019047Y-51704819D01*
X18019047Y-51704819D02*
X17780952Y-51704819D01*
X17780952Y-51704819D02*
X17685714Y-51752438D01*
X17685714Y-51752438D02*
X17638095Y-51800057D01*
X17638095Y-51800057D02*
X17590476Y-51895295D01*
X17590476Y-51895295D02*
X17590476Y-51990533D01*
X17590476Y-51990533D02*
X17638095Y-52133390D01*
X17638095Y-52133390D02*
X18209523Y-52704819D01*
X18209523Y-52704819D02*
X17590476Y-52704819D01*
X15861904Y-18254819D02*
X15861904Y-19064342D01*
X15861904Y-19064342D02*
X15814285Y-19159580D01*
X15814285Y-19159580D02*
X15766666Y-19207200D01*
X15766666Y-19207200D02*
X15671428Y-19254819D01*
X15671428Y-19254819D02*
X15480952Y-19254819D01*
X15480952Y-19254819D02*
X15385714Y-19207200D01*
X15385714Y-19207200D02*
X15338095Y-19159580D01*
X15338095Y-19159580D02*
X15290476Y-19064342D01*
X15290476Y-19064342D02*
X15290476Y-18254819D01*
X14290476Y-19254819D02*
X14861904Y-19254819D01*
X14576190Y-19254819D02*
X14576190Y-18254819D01*
X14576190Y-18254819D02*
X14671428Y-18397676D01*
X14671428Y-18397676D02*
X14766666Y-18492914D01*
X14766666Y-18492914D02*
X14861904Y-18540533D01*
X6254819Y-37038095D02*
X7064342Y-37038095D01*
X7064342Y-37038095D02*
X7159580Y-37085714D01*
X7159580Y-37085714D02*
X7207200Y-37133333D01*
X7207200Y-37133333D02*
X7254819Y-37228571D01*
X7254819Y-37228571D02*
X7254819Y-37419047D01*
X7254819Y-37419047D02*
X7207200Y-37514285D01*
X7207200Y-37514285D02*
X7159580Y-37561904D01*
X7159580Y-37561904D02*
X7064342Y-37609523D01*
X7064342Y-37609523D02*
X6254819Y-37609523D01*
X6254819Y-37990476D02*
X6254819Y-38609523D01*
X6254819Y-38609523D02*
X6635771Y-38276190D01*
X6635771Y-38276190D02*
X6635771Y-38419047D01*
X6635771Y-38419047D02*
X6683390Y-38514285D01*
X6683390Y-38514285D02*
X6731009Y-38561904D01*
X6731009Y-38561904D02*
X6826247Y-38609523D01*
X6826247Y-38609523D02*
X7064342Y-38609523D01*
X7064342Y-38609523D02*
X7159580Y-38561904D01*
X7159580Y-38561904D02*
X7207200Y-38514285D01*
X7207200Y-38514285D02*
X7254819Y-38419047D01*
X7254819Y-38419047D02*
X7254819Y-38133333D01*
X7254819Y-38133333D02*
X7207200Y-38038095D01*
X7207200Y-38038095D02*
X7159580Y-37990476D01*
X20354819Y-20633333D02*
X19878628Y-20300000D01*
X20354819Y-20061905D02*
X19354819Y-20061905D01*
X19354819Y-20061905D02*
X19354819Y-20442857D01*
X19354819Y-20442857D02*
X19402438Y-20538095D01*
X19402438Y-20538095D02*
X19450057Y-20585714D01*
X19450057Y-20585714D02*
X19545295Y-20633333D01*
X19545295Y-20633333D02*
X19688152Y-20633333D01*
X19688152Y-20633333D02*
X19783390Y-20585714D01*
X19783390Y-20585714D02*
X19831009Y-20538095D01*
X19831009Y-20538095D02*
X19878628Y-20442857D01*
X19878628Y-20442857D02*
X19878628Y-20061905D01*
X19354819Y-20966667D02*
X19354819Y-21633333D01*
X19354819Y-21633333D02*
X20354819Y-21204762D01*
X10917857Y-30354819D02*
X11251190Y-29878628D01*
X11489285Y-30354819D02*
X11489285Y-29354819D01*
X11489285Y-29354819D02*
X11108333Y-29354819D01*
X11108333Y-29354819D02*
X11013095Y-29402438D01*
X11013095Y-29402438D02*
X10965476Y-29450057D01*
X10965476Y-29450057D02*
X10917857Y-29545295D01*
X10917857Y-29545295D02*
X10917857Y-29688152D01*
X10917857Y-29688152D02*
X10965476Y-29783390D01*
X10965476Y-29783390D02*
X11013095Y-29831009D01*
X11013095Y-29831009D02*
X11108333Y-29878628D01*
X11108333Y-29878628D02*
X11489285Y-29878628D01*
X9965476Y-30354819D02*
X10536904Y-30354819D01*
X10251190Y-30354819D02*
X10251190Y-29354819D01*
X10251190Y-29354819D02*
X10346428Y-29497676D01*
X10346428Y-29497676D02*
X10441666Y-29592914D01*
X10441666Y-29592914D02*
X10536904Y-29640533D01*
X9346428Y-29354819D02*
X9251190Y-29354819D01*
X9251190Y-29354819D02*
X9155952Y-29402438D01*
X9155952Y-29402438D02*
X9108333Y-29450057D01*
X9108333Y-29450057D02*
X9060714Y-29545295D01*
X9060714Y-29545295D02*
X9013095Y-29735771D01*
X9013095Y-29735771D02*
X9013095Y-29973866D01*
X9013095Y-29973866D02*
X9060714Y-30164342D01*
X9060714Y-30164342D02*
X9108333Y-30259580D01*
X9108333Y-30259580D02*
X9155952Y-30307200D01*
X9155952Y-30307200D02*
X9251190Y-30354819D01*
X9251190Y-30354819D02*
X9346428Y-30354819D01*
X9346428Y-30354819D02*
X9441666Y-30307200D01*
X9441666Y-30307200D02*
X9489285Y-30259580D01*
X9489285Y-30259580D02*
X9536904Y-30164342D01*
X9536904Y-30164342D02*
X9584523Y-29973866D01*
X9584523Y-29973866D02*
X9584523Y-29735771D01*
X9584523Y-29735771D02*
X9536904Y-29545295D01*
X9536904Y-29545295D02*
X9489285Y-29450057D01*
X9489285Y-29450057D02*
X9441666Y-29402438D01*
X9441666Y-29402438D02*
X9346428Y-29354819D01*
X9366666Y-44154819D02*
X9699999Y-43678628D01*
X9938094Y-44154819D02*
X9938094Y-43154819D01*
X9938094Y-43154819D02*
X9557142Y-43154819D01*
X9557142Y-43154819D02*
X9461904Y-43202438D01*
X9461904Y-43202438D02*
X9414285Y-43250057D01*
X9414285Y-43250057D02*
X9366666Y-43345295D01*
X9366666Y-43345295D02*
X9366666Y-43488152D01*
X9366666Y-43488152D02*
X9414285Y-43583390D01*
X9414285Y-43583390D02*
X9461904Y-43631009D01*
X9461904Y-43631009D02*
X9557142Y-43678628D01*
X9557142Y-43678628D02*
X9938094Y-43678628D01*
X8795237Y-43583390D02*
X8890475Y-43535771D01*
X8890475Y-43535771D02*
X8938094Y-43488152D01*
X8938094Y-43488152D02*
X8985713Y-43392914D01*
X8985713Y-43392914D02*
X8985713Y-43345295D01*
X8985713Y-43345295D02*
X8938094Y-43250057D01*
X8938094Y-43250057D02*
X8890475Y-43202438D01*
X8890475Y-43202438D02*
X8795237Y-43154819D01*
X8795237Y-43154819D02*
X8604761Y-43154819D01*
X8604761Y-43154819D02*
X8509523Y-43202438D01*
X8509523Y-43202438D02*
X8461904Y-43250057D01*
X8461904Y-43250057D02*
X8414285Y-43345295D01*
X8414285Y-43345295D02*
X8414285Y-43392914D01*
X8414285Y-43392914D02*
X8461904Y-43488152D01*
X8461904Y-43488152D02*
X8509523Y-43535771D01*
X8509523Y-43535771D02*
X8604761Y-43583390D01*
X8604761Y-43583390D02*
X8795237Y-43583390D01*
X8795237Y-43583390D02*
X8890475Y-43631009D01*
X8890475Y-43631009D02*
X8938094Y-43678628D01*
X8938094Y-43678628D02*
X8985713Y-43773866D01*
X8985713Y-43773866D02*
X8985713Y-43964342D01*
X8985713Y-43964342D02*
X8938094Y-44059580D01*
X8938094Y-44059580D02*
X8890475Y-44107200D01*
X8890475Y-44107200D02*
X8795237Y-44154819D01*
X8795237Y-44154819D02*
X8604761Y-44154819D01*
X8604761Y-44154819D02*
X8509523Y-44107200D01*
X8509523Y-44107200D02*
X8461904Y-44059580D01*
X8461904Y-44059580D02*
X8414285Y-43964342D01*
X8414285Y-43964342D02*
X8414285Y-43773866D01*
X8414285Y-43773866D02*
X8461904Y-43678628D01*
X8461904Y-43678628D02*
X8509523Y-43631009D01*
X8509523Y-43631009D02*
X8604761Y-43583390D01*
X8866666Y-55004819D02*
X9342856Y-55004819D01*
X9342856Y-55004819D02*
X9342856Y-54004819D01*
X8009523Y-55004819D02*
X8580951Y-55004819D01*
X8295237Y-55004819D02*
X8295237Y-54004819D01*
X8295237Y-54004819D02*
X8390475Y-54147676D01*
X8390475Y-54147676D02*
X8485713Y-54242914D01*
X8485713Y-54242914D02*
X8580951Y-54290533D01*
X18795238Y-48600057D02*
X18890476Y-48552438D01*
X18890476Y-48552438D02*
X18985714Y-48457200D01*
X18985714Y-48457200D02*
X19128571Y-48314342D01*
X19128571Y-48314342D02*
X19223809Y-48266723D01*
X19223809Y-48266723D02*
X19319047Y-48266723D01*
X19271428Y-48504819D02*
X19366666Y-48457200D01*
X19366666Y-48457200D02*
X19461904Y-48361961D01*
X19461904Y-48361961D02*
X19509523Y-48171485D01*
X19509523Y-48171485D02*
X19509523Y-47838152D01*
X19509523Y-47838152D02*
X19461904Y-47647676D01*
X19461904Y-47647676D02*
X19366666Y-47552438D01*
X19366666Y-47552438D02*
X19271428Y-47504819D01*
X19271428Y-47504819D02*
X19080952Y-47504819D01*
X19080952Y-47504819D02*
X18985714Y-47552438D01*
X18985714Y-47552438D02*
X18890476Y-47647676D01*
X18890476Y-47647676D02*
X18842857Y-47838152D01*
X18842857Y-47838152D02*
X18842857Y-48171485D01*
X18842857Y-48171485D02*
X18890476Y-48361961D01*
X18890476Y-48361961D02*
X18985714Y-48457200D01*
X18985714Y-48457200D02*
X19080952Y-48504819D01*
X19080952Y-48504819D02*
X19271428Y-48504819D01*
X17890476Y-48504819D02*
X18461904Y-48504819D01*
X18176190Y-48504819D02*
X18176190Y-47504819D01*
X18176190Y-47504819D02*
X18271428Y-47647676D01*
X18271428Y-47647676D02*
X18366666Y-47742914D01*
X18366666Y-47742914D02*
X18461904Y-47790533D01*
D11*
%TO.C,J6*%
X39790000Y-53990000D02*
X31160000Y-53990000D01*
X39790000Y-51390000D02*
X31160000Y-51390000D01*
X39790000Y-48850000D02*
X31160000Y-48850000D01*
X39790000Y-46310000D02*
X31160000Y-46310000D01*
X39790000Y-43770000D02*
X31160000Y-43770000D01*
X39790000Y-41230000D02*
X31160000Y-41230000D01*
X39790000Y-38690000D02*
X31160000Y-38690000D01*
X39790000Y-36150000D02*
X31160000Y-36150000D01*
X39790000Y-33610000D02*
X31160000Y-33610000D01*
X39790000Y-31070000D02*
X31160000Y-31070000D01*
X39790000Y-30951900D02*
X31160000Y-30951900D01*
X39790000Y-30833805D02*
X31160000Y-30833805D01*
X39790000Y-30715710D02*
X31160000Y-30715710D01*
X39790000Y-30597615D02*
X31160000Y-30597615D01*
X39790000Y-30479520D02*
X31160000Y-30479520D01*
X39790000Y-30361425D02*
X31160000Y-30361425D01*
X39790000Y-30243330D02*
X31160000Y-30243330D01*
X39790000Y-30125235D02*
X31160000Y-30125235D01*
X39790000Y-30007140D02*
X31160000Y-30007140D01*
X39790000Y-29889045D02*
X31160000Y-29889045D01*
X39790000Y-29770950D02*
X31160000Y-29770950D01*
X39790000Y-29652855D02*
X31160000Y-29652855D01*
X39790000Y-29534760D02*
X31160000Y-29534760D01*
X39790000Y-29416665D02*
X31160000Y-29416665D01*
X39790000Y-29298570D02*
X31160000Y-29298570D01*
X39790000Y-29180475D02*
X31160000Y-29180475D01*
X39790000Y-29062380D02*
X31160000Y-29062380D01*
X39790000Y-28944285D02*
X31160000Y-28944285D01*
X39790000Y-28826190D02*
X31160000Y-28826190D01*
X39790000Y-28708095D02*
X31160000Y-28708095D01*
X39790000Y-28590000D02*
X31160000Y-28590000D01*
X39790000Y-28470000D02*
X39790000Y-53990000D01*
X39790000Y-28470000D02*
X31160000Y-28470000D01*
X31160000Y-53020000D02*
X30750000Y-53020000D01*
X31160000Y-52300000D02*
X30750000Y-52300000D01*
X31160000Y-50480000D02*
X30750000Y-50480000D01*
X31160000Y-49760000D02*
X30750000Y-49760000D01*
X31160000Y-47940000D02*
X30750000Y-47940000D01*
X31160000Y-47220000D02*
X30750000Y-47220000D01*
X31160000Y-45400000D02*
X30750000Y-45400000D01*
X31160000Y-44680000D02*
X30750000Y-44680000D01*
X31160000Y-42860000D02*
X30750000Y-42860000D01*
X31160000Y-42140000D02*
X30750000Y-42140000D01*
X31160000Y-40320000D02*
X30750000Y-40320000D01*
X31160000Y-39600000D02*
X30750000Y-39600000D01*
X31160000Y-37780000D02*
X30750000Y-37780000D01*
X31160000Y-37060000D02*
X30750000Y-37060000D01*
X31160000Y-35240000D02*
X30750000Y-35240000D01*
X31160000Y-34520000D02*
X30750000Y-34520000D01*
X31160000Y-32700000D02*
X30750000Y-32700000D01*
X31160000Y-31980000D02*
X30750000Y-31980000D01*
X31160000Y-30160000D02*
X30810000Y-30160000D01*
X31160000Y-29440000D02*
X30810000Y-29440000D01*
X31160000Y-28470000D02*
X31160000Y-53990000D01*
X29700000Y-28470000D02*
X28590000Y-28470000D01*
X28590000Y-28470000D02*
X28590000Y-29800000D01*
D12*
%TO.C,JP3*%
X14980800Y-29341200D02*
X14980800Y-30458800D01*
X15438000Y-30916000D02*
X16962000Y-30916000D01*
X16962000Y-28884000D02*
X15438000Y-28884000D01*
X17419200Y-29341200D02*
X17419200Y-30458800D01*
X15438000Y-28884000D02*
G75*
G03*
X14980800Y-29341200I1J-457201D01*
G01*
X14980800Y-30458800D02*
G75*
G03*
X15438000Y-30916000I457201J1D01*
G01*
X17419200Y-29341200D02*
G75*
G03*
X16962000Y-28884000I-457200J0D01*
G01*
X16962000Y-30916000D02*
G75*
G03*
X17419200Y-30458800I0J457200D01*
G01*
D11*
%TO.C,R5*%
X21122500Y-42762742D02*
X21122500Y-43237258D01*
X20077500Y-42762742D02*
X20077500Y-43237258D01*
D12*
%TO.C,JP2*%
X16962000Y-28316000D02*
G75*
G03*
X17419200Y-27858800I0J457200D01*
G01*
X17419200Y-26741200D02*
G75*
G03*
X16962000Y-26284000I-457200J0D01*
G01*
X14980800Y-27858800D02*
G75*
G03*
X15438000Y-28316000I457201J1D01*
G01*
X15438000Y-26284000D02*
G75*
G03*
X14980800Y-26741200I1J-457201D01*
G01*
X17419200Y-26741200D02*
X17419200Y-27858800D01*
X16962000Y-26284000D02*
X15438000Y-26284000D01*
X15438000Y-28316000D02*
X16962000Y-28316000D01*
X14980800Y-26741200D02*
X14980800Y-27858800D01*
%TO.C,JP1*%
X16941300Y-25716000D02*
G75*
G03*
X17398500Y-25258800I0J457200D01*
G01*
X17398500Y-24141200D02*
G75*
G03*
X16941300Y-23684000I-457200J0D01*
G01*
X14960100Y-25258800D02*
G75*
G03*
X15417300Y-25716000I457201J1D01*
G01*
X15417300Y-23684000D02*
G75*
G03*
X14960100Y-24141200I1J-457201D01*
G01*
X17398500Y-24141200D02*
X17398500Y-25258800D01*
X16941300Y-23684000D02*
X15417300Y-23684000D01*
X15417300Y-25716000D02*
X16941300Y-25716000D01*
X14960100Y-24141200D02*
X14960100Y-25258800D01*
D11*
%TO.C,R6*%
X20077500Y-38962742D02*
X20077500Y-39437258D01*
X21122500Y-38962742D02*
X21122500Y-39437258D01*
%TO.C,Q2*%
X17100000Y-41440000D02*
X16450000Y-41440000D01*
X17100000Y-41440000D02*
X17750000Y-41440000D01*
X17100000Y-44560000D02*
X15425000Y-44560000D01*
X17100000Y-44560000D02*
X17750000Y-44560000D01*
%TO.C,R12*%
X12662742Y-31977500D02*
X13137258Y-31977500D01*
X12662742Y-33022500D02*
X13137258Y-33022500D01*
%TO.C,Q3*%
X17100000Y-40760000D02*
X17750000Y-40760000D01*
X17100000Y-40760000D02*
X15425000Y-40760000D01*
X17100000Y-37640000D02*
X17750000Y-37640000D01*
X17100000Y-37640000D02*
X16450000Y-37640000D01*
%TO.C,R2*%
X14122500Y-42762742D02*
X14122500Y-43237258D01*
X13077500Y-42762742D02*
X13077500Y-43237258D01*
%TO.C,R11*%
X12662742Y-27822500D02*
X13137258Y-27822500D01*
X12662742Y-26777500D02*
X13137258Y-26777500D01*
%TO.C,R4*%
X21060000Y-46562742D02*
X21060000Y-47037258D01*
X20015000Y-46562742D02*
X20015000Y-47037258D01*
%TO.C,R9*%
X12621342Y-25222500D02*
X13095858Y-25222500D01*
X12621342Y-24177500D02*
X13095858Y-24177500D01*
%TO.C,C2*%
X13888748Y-50140000D02*
X15311252Y-50140000D01*
X13888748Y-51960000D02*
X15311252Y-51960000D01*
%TO.C,R3*%
X13077500Y-38962742D02*
X13077500Y-39437258D01*
X14122500Y-38962742D02*
X14122500Y-39437258D01*
%TO.C,C3*%
X12611252Y-58760000D02*
X11188748Y-58760000D01*
X12611252Y-56940000D02*
X11188748Y-56940000D01*
%TO.C,C1*%
X16488748Y-56940000D02*
X17911252Y-56940000D01*
X16488748Y-58760000D02*
X17911252Y-58760000D01*
%TO.C,R1*%
X14060000Y-46562742D02*
X14060000Y-47037258D01*
X13015000Y-46562742D02*
X13015000Y-47037258D01*
%TO.C,C4*%
X12611252Y-61660000D02*
X11188748Y-61660000D01*
X12611252Y-59840000D02*
X11188748Y-59840000D01*
%TO.C,U2*%
X17000000Y-56110000D02*
X17800000Y-56110000D01*
X17000000Y-56110000D02*
X16200000Y-56110000D01*
X17000000Y-52990000D02*
X18800000Y-52990000D01*
X17000000Y-52990000D02*
X16200000Y-52990000D01*
%TO.C,U1*%
X15800000Y-21960000D02*
X14400000Y-21960000D01*
X14400000Y-19640000D02*
X16300000Y-19640000D01*
%TO.C,U3*%
X10700000Y-39300000D02*
X10700000Y-36300000D01*
X7700000Y-39300000D02*
X7700000Y-35300000D01*
D12*
%TO.C,JP4*%
X14980800Y-31941200D02*
X14980800Y-33058800D01*
X15438000Y-33516000D02*
X16962000Y-33516000D01*
X16962000Y-31484000D02*
X15438000Y-31484000D01*
X17419200Y-31941200D02*
X17419200Y-33058800D01*
X15438000Y-31484000D02*
G75*
G03*
X14980800Y-31941200I1J-457201D01*
G01*
X14980800Y-33058800D02*
G75*
G03*
X15438000Y-33516000I457201J1D01*
G01*
X17419200Y-31941200D02*
G75*
G03*
X16962000Y-31484000I-457200J0D01*
G01*
X16962000Y-33516000D02*
G75*
G03*
X17419200Y-33058800I0J457200D01*
G01*
D11*
%TO.C,R7*%
X18922500Y-20562742D02*
X18922500Y-21037258D01*
X17877500Y-20562742D02*
X17877500Y-21037258D01*
%TO.C,R10*%
X12662742Y-29377500D02*
X13137258Y-29377500D01*
X12662742Y-30422500D02*
X13137258Y-30422500D01*
%TO.C,R8*%
X9437258Y-42722500D02*
X8962742Y-42722500D01*
X9437258Y-41677500D02*
X8962742Y-41677500D01*
%TO.C,L1*%
X12502064Y-55910000D02*
X11297936Y-55910000D01*
X12502064Y-53190000D02*
X11297936Y-53190000D01*
%TO.C,Q1*%
X17100000Y-45240000D02*
X16450000Y-45240000D01*
X17100000Y-45240000D02*
X17750000Y-45240000D01*
X17100000Y-48360000D02*
X15425000Y-48360000D01*
X17100000Y-48360000D02*
X17750000Y-48360000D01*
%TD*%
M02*
