%TF.GenerationSoftware,KiCad,Pcbnew,7.0.9*%
%TF.CreationDate,2024-02-09T11:23:59-05:00*%
%TF.ProjectId,BREAD_Loaf,42524541-445f-44c6-9f61-662e6b696361,rev?*%
%TF.SameCoordinates,PX2fdfdc0PY36746e0*%
%TF.FileFunction,Legend,Top*%
%TF.FilePolarity,Positive*%
%FSLAX46Y46*%
G04 Gerber Fmt 4.6, Leading zero omitted, Abs format (unit mm)*
G04 Created by KiCad (PCBNEW 7.0.9) date 2024-02-09 11:23:59*
%MOMM*%
%LPD*%
G01*
G04 APERTURE LIST*
%ADD10C,0.150000*%
%ADD11C,0.101600*%
%ADD12C,0.127000*%
%ADD13C,0.010000*%
G04 APERTURE END LIST*
D10*
X36101315Y-32712295D02*
X35644172Y-32712295D01*
X35872744Y-32712295D02*
X35872744Y-31912295D01*
X35872744Y-31912295D02*
X35796553Y-32026580D01*
X35796553Y-32026580D02*
X35720363Y-32102771D01*
X35720363Y-32102771D02*
X35644172Y-32140866D01*
X36406077Y-31988485D02*
X36444173Y-31950390D01*
X36444173Y-31950390D02*
X36520363Y-31912295D01*
X36520363Y-31912295D02*
X36710839Y-31912295D01*
X36710839Y-31912295D02*
X36787030Y-31950390D01*
X36787030Y-31950390D02*
X36825125Y-31988485D01*
X36825125Y-31988485D02*
X36863220Y-32064676D01*
X36863220Y-32064676D02*
X36863220Y-32140866D01*
X36863220Y-32140866D02*
X36825125Y-32255152D01*
X36825125Y-32255152D02*
X36367982Y-32712295D01*
X36367982Y-32712295D02*
X36863220Y-32712295D01*
X37091792Y-31912295D02*
X37358459Y-32712295D01*
X37358459Y-32712295D02*
X37625125Y-31912295D01*
X35644172Y-35224200D02*
X35758458Y-35262295D01*
X35758458Y-35262295D02*
X35948934Y-35262295D01*
X35948934Y-35262295D02*
X36025125Y-35224200D01*
X36025125Y-35224200D02*
X36063220Y-35186104D01*
X36063220Y-35186104D02*
X36101315Y-35109914D01*
X36101315Y-35109914D02*
X36101315Y-35033723D01*
X36101315Y-35033723D02*
X36063220Y-34957533D01*
X36063220Y-34957533D02*
X36025125Y-34919438D01*
X36025125Y-34919438D02*
X35948934Y-34881342D01*
X35948934Y-34881342D02*
X35796553Y-34843247D01*
X35796553Y-34843247D02*
X35720363Y-34805152D01*
X35720363Y-34805152D02*
X35682268Y-34767057D01*
X35682268Y-34767057D02*
X35644172Y-34690866D01*
X35644172Y-34690866D02*
X35644172Y-34614676D01*
X35644172Y-34614676D02*
X35682268Y-34538485D01*
X35682268Y-34538485D02*
X35720363Y-34500390D01*
X35720363Y-34500390D02*
X35796553Y-34462295D01*
X35796553Y-34462295D02*
X35987030Y-34462295D01*
X35987030Y-34462295D02*
X36101315Y-34500390D01*
X36901316Y-35186104D02*
X36863220Y-35224200D01*
X36863220Y-35224200D02*
X36748935Y-35262295D01*
X36748935Y-35262295D02*
X36672744Y-35262295D01*
X36672744Y-35262295D02*
X36558458Y-35224200D01*
X36558458Y-35224200D02*
X36482268Y-35148009D01*
X36482268Y-35148009D02*
X36444173Y-35071819D01*
X36444173Y-35071819D02*
X36406077Y-34919438D01*
X36406077Y-34919438D02*
X36406077Y-34805152D01*
X36406077Y-34805152D02*
X36444173Y-34652771D01*
X36444173Y-34652771D02*
X36482268Y-34576580D01*
X36482268Y-34576580D02*
X36558458Y-34500390D01*
X36558458Y-34500390D02*
X36672744Y-34462295D01*
X36672744Y-34462295D02*
X36748935Y-34462295D01*
X36748935Y-34462295D02*
X36863220Y-34500390D01*
X36863220Y-34500390D02*
X36901316Y-34538485D01*
X37625125Y-35262295D02*
X37244173Y-35262295D01*
X37244173Y-35262295D02*
X37244173Y-34462295D01*
X35606077Y-37774200D02*
X35720363Y-37812295D01*
X35720363Y-37812295D02*
X35910839Y-37812295D01*
X35910839Y-37812295D02*
X35987030Y-37774200D01*
X35987030Y-37774200D02*
X36025125Y-37736104D01*
X36025125Y-37736104D02*
X36063220Y-37659914D01*
X36063220Y-37659914D02*
X36063220Y-37583723D01*
X36063220Y-37583723D02*
X36025125Y-37507533D01*
X36025125Y-37507533D02*
X35987030Y-37469438D01*
X35987030Y-37469438D02*
X35910839Y-37431342D01*
X35910839Y-37431342D02*
X35758458Y-37393247D01*
X35758458Y-37393247D02*
X35682268Y-37355152D01*
X35682268Y-37355152D02*
X35644173Y-37317057D01*
X35644173Y-37317057D02*
X35606077Y-37240866D01*
X35606077Y-37240866D02*
X35606077Y-37164676D01*
X35606077Y-37164676D02*
X35644173Y-37088485D01*
X35644173Y-37088485D02*
X35682268Y-37050390D01*
X35682268Y-37050390D02*
X35758458Y-37012295D01*
X35758458Y-37012295D02*
X35948935Y-37012295D01*
X35948935Y-37012295D02*
X36063220Y-37050390D01*
X36406078Y-37812295D02*
X36406078Y-37012295D01*
X36406078Y-37012295D02*
X36596554Y-37012295D01*
X36596554Y-37012295D02*
X36710840Y-37050390D01*
X36710840Y-37050390D02*
X36787030Y-37126580D01*
X36787030Y-37126580D02*
X36825125Y-37202771D01*
X36825125Y-37202771D02*
X36863221Y-37355152D01*
X36863221Y-37355152D02*
X36863221Y-37469438D01*
X36863221Y-37469438D02*
X36825125Y-37621819D01*
X36825125Y-37621819D02*
X36787030Y-37698009D01*
X36787030Y-37698009D02*
X36710840Y-37774200D01*
X36710840Y-37774200D02*
X36596554Y-37812295D01*
X36596554Y-37812295D02*
X36406078Y-37812295D01*
X37167982Y-37583723D02*
X37548935Y-37583723D01*
X37091792Y-37812295D02*
X37358459Y-37012295D01*
X37358459Y-37012295D02*
X37625125Y-37812295D01*
X35872744Y-29400390D02*
X35796554Y-29362295D01*
X35796554Y-29362295D02*
X35682268Y-29362295D01*
X35682268Y-29362295D02*
X35567982Y-29400390D01*
X35567982Y-29400390D02*
X35491792Y-29476580D01*
X35491792Y-29476580D02*
X35453697Y-29552771D01*
X35453697Y-29552771D02*
X35415601Y-29705152D01*
X35415601Y-29705152D02*
X35415601Y-29819438D01*
X35415601Y-29819438D02*
X35453697Y-29971819D01*
X35453697Y-29971819D02*
X35491792Y-30048009D01*
X35491792Y-30048009D02*
X35567982Y-30124200D01*
X35567982Y-30124200D02*
X35682268Y-30162295D01*
X35682268Y-30162295D02*
X35758459Y-30162295D01*
X35758459Y-30162295D02*
X35872744Y-30124200D01*
X35872744Y-30124200D02*
X35910840Y-30086104D01*
X35910840Y-30086104D02*
X35910840Y-29819438D01*
X35910840Y-29819438D02*
X35758459Y-29819438D01*
X36253697Y-30162295D02*
X36253697Y-29362295D01*
X36253697Y-29362295D02*
X36710840Y-30162295D01*
X36710840Y-30162295D02*
X36710840Y-29362295D01*
X37091792Y-30162295D02*
X37091792Y-29362295D01*
X37091792Y-29362295D02*
X37282268Y-29362295D01*
X37282268Y-29362295D02*
X37396554Y-29400390D01*
X37396554Y-29400390D02*
X37472744Y-29476580D01*
X37472744Y-29476580D02*
X37510839Y-29552771D01*
X37510839Y-29552771D02*
X37548935Y-29705152D01*
X37548935Y-29705152D02*
X37548935Y-29819438D01*
X37548935Y-29819438D02*
X37510839Y-29971819D01*
X37510839Y-29971819D02*
X37472744Y-30048009D01*
X37472744Y-30048009D02*
X37396554Y-30124200D01*
X37396554Y-30124200D02*
X37282268Y-30162295D01*
X37282268Y-30162295D02*
X37091792Y-30162295D01*
X35872744Y-52250390D02*
X35796554Y-52212295D01*
X35796554Y-52212295D02*
X35682268Y-52212295D01*
X35682268Y-52212295D02*
X35567982Y-52250390D01*
X35567982Y-52250390D02*
X35491792Y-52326580D01*
X35491792Y-52326580D02*
X35453697Y-52402771D01*
X35453697Y-52402771D02*
X35415601Y-52555152D01*
X35415601Y-52555152D02*
X35415601Y-52669438D01*
X35415601Y-52669438D02*
X35453697Y-52821819D01*
X35453697Y-52821819D02*
X35491792Y-52898009D01*
X35491792Y-52898009D02*
X35567982Y-52974200D01*
X35567982Y-52974200D02*
X35682268Y-53012295D01*
X35682268Y-53012295D02*
X35758459Y-53012295D01*
X35758459Y-53012295D02*
X35872744Y-52974200D01*
X35872744Y-52974200D02*
X35910840Y-52936104D01*
X35910840Y-52936104D02*
X35910840Y-52669438D01*
X35910840Y-52669438D02*
X35758459Y-52669438D01*
X36253697Y-53012295D02*
X36253697Y-52212295D01*
X36253697Y-52212295D02*
X36710840Y-53012295D01*
X36710840Y-53012295D02*
X36710840Y-52212295D01*
X37091792Y-53012295D02*
X37091792Y-52212295D01*
X37091792Y-52212295D02*
X37282268Y-52212295D01*
X37282268Y-52212295D02*
X37396554Y-52250390D01*
X37396554Y-52250390D02*
X37472744Y-52326580D01*
X37472744Y-52326580D02*
X37510839Y-52402771D01*
X37510839Y-52402771D02*
X37548935Y-52555152D01*
X37548935Y-52555152D02*
X37548935Y-52669438D01*
X37548935Y-52669438D02*
X37510839Y-52821819D01*
X37510839Y-52821819D02*
X37472744Y-52898009D01*
X37472744Y-52898009D02*
X37396554Y-52974200D01*
X37396554Y-52974200D02*
X37282268Y-53012295D01*
X37282268Y-53012295D02*
X37091792Y-53012295D01*
X34767982Y-45374200D02*
X34882268Y-45412295D01*
X34882268Y-45412295D02*
X35072744Y-45412295D01*
X35072744Y-45412295D02*
X35148935Y-45374200D01*
X35148935Y-45374200D02*
X35187030Y-45336104D01*
X35187030Y-45336104D02*
X35225125Y-45259914D01*
X35225125Y-45259914D02*
X35225125Y-45183723D01*
X35225125Y-45183723D02*
X35187030Y-45107533D01*
X35187030Y-45107533D02*
X35148935Y-45069438D01*
X35148935Y-45069438D02*
X35072744Y-45031342D01*
X35072744Y-45031342D02*
X34920363Y-44993247D01*
X34920363Y-44993247D02*
X34844173Y-44955152D01*
X34844173Y-44955152D02*
X34806078Y-44917057D01*
X34806078Y-44917057D02*
X34767982Y-44840866D01*
X34767982Y-44840866D02*
X34767982Y-44764676D01*
X34767982Y-44764676D02*
X34806078Y-44688485D01*
X34806078Y-44688485D02*
X34844173Y-44650390D01*
X34844173Y-44650390D02*
X34920363Y-44612295D01*
X34920363Y-44612295D02*
X35110840Y-44612295D01*
X35110840Y-44612295D02*
X35225125Y-44650390D01*
X35720364Y-45031342D02*
X35720364Y-45412295D01*
X35453697Y-44612295D02*
X35720364Y-45031342D01*
X35720364Y-45031342D02*
X35987030Y-44612295D01*
X36253697Y-45412295D02*
X36253697Y-44612295D01*
X36253697Y-44612295D02*
X36710840Y-45412295D01*
X36710840Y-45412295D02*
X36710840Y-44612295D01*
X37548935Y-45336104D02*
X37510839Y-45374200D01*
X37510839Y-45374200D02*
X37396554Y-45412295D01*
X37396554Y-45412295D02*
X37320363Y-45412295D01*
X37320363Y-45412295D02*
X37206077Y-45374200D01*
X37206077Y-45374200D02*
X37129887Y-45298009D01*
X37129887Y-45298009D02*
X37091792Y-45221819D01*
X37091792Y-45221819D02*
X37053696Y-45069438D01*
X37053696Y-45069438D02*
X37053696Y-44955152D01*
X37053696Y-44955152D02*
X37091792Y-44802771D01*
X37091792Y-44802771D02*
X37129887Y-44726580D01*
X37129887Y-44726580D02*
X37206077Y-44650390D01*
X37206077Y-44650390D02*
X37320363Y-44612295D01*
X37320363Y-44612295D02*
X37396554Y-44612295D01*
X37396554Y-44612295D02*
X37510839Y-44650390D01*
X37510839Y-44650390D02*
X37548935Y-44688485D01*
X34158458Y-42443247D02*
X34425124Y-42443247D01*
X34539410Y-42862295D02*
X34158458Y-42862295D01*
X34158458Y-42862295D02*
X34158458Y-42062295D01*
X34158458Y-42062295D02*
X34539410Y-42062295D01*
X34844172Y-42824200D02*
X34958458Y-42862295D01*
X34958458Y-42862295D02*
X35148934Y-42862295D01*
X35148934Y-42862295D02*
X35225125Y-42824200D01*
X35225125Y-42824200D02*
X35263220Y-42786104D01*
X35263220Y-42786104D02*
X35301315Y-42709914D01*
X35301315Y-42709914D02*
X35301315Y-42633723D01*
X35301315Y-42633723D02*
X35263220Y-42557533D01*
X35263220Y-42557533D02*
X35225125Y-42519438D01*
X35225125Y-42519438D02*
X35148934Y-42481342D01*
X35148934Y-42481342D02*
X34996553Y-42443247D01*
X34996553Y-42443247D02*
X34920363Y-42405152D01*
X34920363Y-42405152D02*
X34882268Y-42367057D01*
X34882268Y-42367057D02*
X34844172Y-42290866D01*
X34844172Y-42290866D02*
X34844172Y-42214676D01*
X34844172Y-42214676D02*
X34882268Y-42138485D01*
X34882268Y-42138485D02*
X34920363Y-42100390D01*
X34920363Y-42100390D02*
X34996553Y-42062295D01*
X34996553Y-42062295D02*
X35187030Y-42062295D01*
X35187030Y-42062295D02*
X35301315Y-42100390D01*
X35529887Y-42062295D02*
X35987030Y-42062295D01*
X35758458Y-42862295D02*
X35758458Y-42062295D01*
X36406078Y-42062295D02*
X36558459Y-42062295D01*
X36558459Y-42062295D02*
X36634649Y-42100390D01*
X36634649Y-42100390D02*
X36710840Y-42176580D01*
X36710840Y-42176580D02*
X36748935Y-42328961D01*
X36748935Y-42328961D02*
X36748935Y-42595628D01*
X36748935Y-42595628D02*
X36710840Y-42748009D01*
X36710840Y-42748009D02*
X36634649Y-42824200D01*
X36634649Y-42824200D02*
X36558459Y-42862295D01*
X36558459Y-42862295D02*
X36406078Y-42862295D01*
X36406078Y-42862295D02*
X36329887Y-42824200D01*
X36329887Y-42824200D02*
X36253697Y-42748009D01*
X36253697Y-42748009D02*
X36215601Y-42595628D01*
X36215601Y-42595628D02*
X36215601Y-42328961D01*
X36215601Y-42328961D02*
X36253697Y-42176580D01*
X36253697Y-42176580D02*
X36329887Y-42100390D01*
X36329887Y-42100390D02*
X36406078Y-42062295D01*
X37091792Y-42862295D02*
X37091792Y-42062295D01*
X37091792Y-42062295D02*
X37396554Y-42062295D01*
X37396554Y-42062295D02*
X37472744Y-42100390D01*
X37472744Y-42100390D02*
X37510839Y-42138485D01*
X37510839Y-42138485D02*
X37548935Y-42214676D01*
X37548935Y-42214676D02*
X37548935Y-42328961D01*
X37548935Y-42328961D02*
X37510839Y-42405152D01*
X37510839Y-42405152D02*
X37472744Y-42443247D01*
X37472744Y-42443247D02*
X37396554Y-42481342D01*
X37396554Y-42481342D02*
X37091792Y-42481342D01*
X36101315Y-50512295D02*
X35644172Y-50512295D01*
X35872744Y-50512295D02*
X35872744Y-49712295D01*
X35872744Y-49712295D02*
X35796553Y-49826580D01*
X35796553Y-49826580D02*
X35720363Y-49902771D01*
X35720363Y-49902771D02*
X35644172Y-49940866D01*
X36406077Y-49788485D02*
X36444173Y-49750390D01*
X36444173Y-49750390D02*
X36520363Y-49712295D01*
X36520363Y-49712295D02*
X36710839Y-49712295D01*
X36710839Y-49712295D02*
X36787030Y-49750390D01*
X36787030Y-49750390D02*
X36825125Y-49788485D01*
X36825125Y-49788485D02*
X36863220Y-49864676D01*
X36863220Y-49864676D02*
X36863220Y-49940866D01*
X36863220Y-49940866D02*
X36825125Y-50055152D01*
X36825125Y-50055152D02*
X36367982Y-50512295D01*
X36367982Y-50512295D02*
X36863220Y-50512295D01*
X37091792Y-49712295D02*
X37358459Y-50512295D01*
X37358459Y-50512295D02*
X37625125Y-49712295D01*
X35872744Y-39600390D02*
X35796554Y-39562295D01*
X35796554Y-39562295D02*
X35682268Y-39562295D01*
X35682268Y-39562295D02*
X35567982Y-39600390D01*
X35567982Y-39600390D02*
X35491792Y-39676580D01*
X35491792Y-39676580D02*
X35453697Y-39752771D01*
X35453697Y-39752771D02*
X35415601Y-39905152D01*
X35415601Y-39905152D02*
X35415601Y-40019438D01*
X35415601Y-40019438D02*
X35453697Y-40171819D01*
X35453697Y-40171819D02*
X35491792Y-40248009D01*
X35491792Y-40248009D02*
X35567982Y-40324200D01*
X35567982Y-40324200D02*
X35682268Y-40362295D01*
X35682268Y-40362295D02*
X35758459Y-40362295D01*
X35758459Y-40362295D02*
X35872744Y-40324200D01*
X35872744Y-40324200D02*
X35910840Y-40286104D01*
X35910840Y-40286104D02*
X35910840Y-40019438D01*
X35910840Y-40019438D02*
X35758459Y-40019438D01*
X36253697Y-40362295D02*
X36253697Y-39562295D01*
X36253697Y-39562295D02*
X36710840Y-40362295D01*
X36710840Y-40362295D02*
X36710840Y-39562295D01*
X37091792Y-40362295D02*
X37091792Y-39562295D01*
X37091792Y-39562295D02*
X37282268Y-39562295D01*
X37282268Y-39562295D02*
X37396554Y-39600390D01*
X37396554Y-39600390D02*
X37472744Y-39676580D01*
X37472744Y-39676580D02*
X37510839Y-39752771D01*
X37510839Y-39752771D02*
X37548935Y-39905152D01*
X37548935Y-39905152D02*
X37548935Y-40019438D01*
X37548935Y-40019438D02*
X37510839Y-40171819D01*
X37510839Y-40171819D02*
X37472744Y-40248009D01*
X37472744Y-40248009D02*
X37396554Y-40324200D01*
X37396554Y-40324200D02*
X37282268Y-40362295D01*
X37282268Y-40362295D02*
X37091792Y-40362295D01*
X36063221Y-47962295D02*
X36063221Y-47162295D01*
X36444173Y-47962295D02*
X36444173Y-47162295D01*
X36444173Y-47162295D02*
X36901316Y-47962295D01*
X36901316Y-47962295D02*
X36901316Y-47162295D01*
X37167982Y-47162295D02*
X37625125Y-47162295D01*
X37396553Y-47962295D02*
X37396553Y-47162295D01*
X16546930Y-33012969D02*
X16546930Y-32536779D01*
X16546930Y-32536779D02*
X17546930Y-32536779D01*
X16546930Y-33489160D02*
X16594550Y-33393922D01*
X16594550Y-33393922D02*
X16642169Y-33346303D01*
X16642169Y-33346303D02*
X16737407Y-33298684D01*
X16737407Y-33298684D02*
X17023121Y-33298684D01*
X17023121Y-33298684D02*
X17118359Y-33346303D01*
X17118359Y-33346303D02*
X17165978Y-33393922D01*
X17165978Y-33393922D02*
X17213597Y-33489160D01*
X17213597Y-33489160D02*
X17213597Y-33632017D01*
X17213597Y-33632017D02*
X17165978Y-33727255D01*
X17165978Y-33727255D02*
X17118359Y-33774874D01*
X17118359Y-33774874D02*
X17023121Y-33822493D01*
X17023121Y-33822493D02*
X16737407Y-33822493D01*
X16737407Y-33822493D02*
X16642169Y-33774874D01*
X16642169Y-33774874D02*
X16594550Y-33727255D01*
X16594550Y-33727255D02*
X16546930Y-33632017D01*
X16546930Y-33632017D02*
X16546930Y-33489160D01*
X16546930Y-34679636D02*
X17070740Y-34679636D01*
X17070740Y-34679636D02*
X17165978Y-34632017D01*
X17165978Y-34632017D02*
X17213597Y-34536779D01*
X17213597Y-34536779D02*
X17213597Y-34346303D01*
X17213597Y-34346303D02*
X17165978Y-34251065D01*
X16594550Y-34679636D02*
X16546930Y-34584398D01*
X16546930Y-34584398D02*
X16546930Y-34346303D01*
X16546930Y-34346303D02*
X16594550Y-34251065D01*
X16594550Y-34251065D02*
X16689788Y-34203446D01*
X16689788Y-34203446D02*
X16785026Y-34203446D01*
X16785026Y-34203446D02*
X16880264Y-34251065D01*
X16880264Y-34251065D02*
X16927883Y-34346303D01*
X16927883Y-34346303D02*
X16927883Y-34584398D01*
X16927883Y-34584398D02*
X16975502Y-34679636D01*
X17213597Y-35012970D02*
X17213597Y-35393922D01*
X16546930Y-35155827D02*
X17404073Y-35155827D01*
X17404073Y-35155827D02*
X17499311Y-35203446D01*
X17499311Y-35203446D02*
X17546930Y-35298684D01*
X17546930Y-35298684D02*
X17546930Y-35393922D01*
X17070740Y-36822494D02*
X17023121Y-36965351D01*
X17023121Y-36965351D02*
X16975502Y-37012970D01*
X16975502Y-37012970D02*
X16880264Y-37060589D01*
X16880264Y-37060589D02*
X16737407Y-37060589D01*
X16737407Y-37060589D02*
X16642169Y-37012970D01*
X16642169Y-37012970D02*
X16594550Y-36965351D01*
X16594550Y-36965351D02*
X16546930Y-36870113D01*
X16546930Y-36870113D02*
X16546930Y-36489161D01*
X16546930Y-36489161D02*
X17546930Y-36489161D01*
X17546930Y-36489161D02*
X17546930Y-36822494D01*
X17546930Y-36822494D02*
X17499311Y-36917732D01*
X17499311Y-36917732D02*
X17451692Y-36965351D01*
X17451692Y-36965351D02*
X17356454Y-37012970D01*
X17356454Y-37012970D02*
X17261216Y-37012970D01*
X17261216Y-37012970D02*
X17165978Y-36965351D01*
X17165978Y-36965351D02*
X17118359Y-36917732D01*
X17118359Y-36917732D02*
X17070740Y-36822494D01*
X17070740Y-36822494D02*
X17070740Y-36489161D01*
X16546930Y-37917732D02*
X17070740Y-37917732D01*
X17070740Y-37917732D02*
X17165978Y-37870113D01*
X17165978Y-37870113D02*
X17213597Y-37774875D01*
X17213597Y-37774875D02*
X17213597Y-37584399D01*
X17213597Y-37584399D02*
X17165978Y-37489161D01*
X16594550Y-37917732D02*
X16546930Y-37822494D01*
X16546930Y-37822494D02*
X16546930Y-37584399D01*
X16546930Y-37584399D02*
X16594550Y-37489161D01*
X16594550Y-37489161D02*
X16689788Y-37441542D01*
X16689788Y-37441542D02*
X16785026Y-37441542D01*
X16785026Y-37441542D02*
X16880264Y-37489161D01*
X16880264Y-37489161D02*
X16927883Y-37584399D01*
X16927883Y-37584399D02*
X16927883Y-37822494D01*
X16927883Y-37822494D02*
X16975502Y-37917732D01*
X16594550Y-38822494D02*
X16546930Y-38727256D01*
X16546930Y-38727256D02*
X16546930Y-38536780D01*
X16546930Y-38536780D02*
X16594550Y-38441542D01*
X16594550Y-38441542D02*
X16642169Y-38393923D01*
X16642169Y-38393923D02*
X16737407Y-38346304D01*
X16737407Y-38346304D02*
X17023121Y-38346304D01*
X17023121Y-38346304D02*
X17118359Y-38393923D01*
X17118359Y-38393923D02*
X17165978Y-38441542D01*
X17165978Y-38441542D02*
X17213597Y-38536780D01*
X17213597Y-38536780D02*
X17213597Y-38727256D01*
X17213597Y-38727256D02*
X17165978Y-38822494D01*
X16546930Y-39251066D02*
X17546930Y-39251066D01*
X16927883Y-39346304D02*
X16546930Y-39632018D01*
X17213597Y-39632018D02*
X16832645Y-39251066D01*
X17213597Y-40060590D02*
X16213597Y-40060590D01*
X17165978Y-40060590D02*
X17213597Y-40155828D01*
X17213597Y-40155828D02*
X17213597Y-40346304D01*
X17213597Y-40346304D02*
X17165978Y-40441542D01*
X17165978Y-40441542D02*
X17118359Y-40489161D01*
X17118359Y-40489161D02*
X17023121Y-40536780D01*
X17023121Y-40536780D02*
X16737407Y-40536780D01*
X16737407Y-40536780D02*
X16642169Y-40489161D01*
X16642169Y-40489161D02*
X16594550Y-40441542D01*
X16594550Y-40441542D02*
X16546930Y-40346304D01*
X16546930Y-40346304D02*
X16546930Y-40155828D01*
X16546930Y-40155828D02*
X16594550Y-40060590D01*
X16546930Y-41108209D02*
X16594550Y-41012971D01*
X16594550Y-41012971D02*
X16689788Y-40965352D01*
X16689788Y-40965352D02*
X17546930Y-40965352D01*
X16546930Y-41917733D02*
X17070740Y-41917733D01*
X17070740Y-41917733D02*
X17165978Y-41870114D01*
X17165978Y-41870114D02*
X17213597Y-41774876D01*
X17213597Y-41774876D02*
X17213597Y-41584400D01*
X17213597Y-41584400D02*
X17165978Y-41489162D01*
X16594550Y-41917733D02*
X16546930Y-41822495D01*
X16546930Y-41822495D02*
X16546930Y-41584400D01*
X16546930Y-41584400D02*
X16594550Y-41489162D01*
X16594550Y-41489162D02*
X16689788Y-41441543D01*
X16689788Y-41441543D02*
X16785026Y-41441543D01*
X16785026Y-41441543D02*
X16880264Y-41489162D01*
X16880264Y-41489162D02*
X16927883Y-41584400D01*
X16927883Y-41584400D02*
X16927883Y-41822495D01*
X16927883Y-41822495D02*
X16975502Y-41917733D01*
X17213597Y-42393924D02*
X16546930Y-42393924D01*
X17118359Y-42393924D02*
X17165978Y-42441543D01*
X17165978Y-42441543D02*
X17213597Y-42536781D01*
X17213597Y-42536781D02*
X17213597Y-42679638D01*
X17213597Y-42679638D02*
X17165978Y-42774876D01*
X17165978Y-42774876D02*
X17070740Y-42822495D01*
X17070740Y-42822495D02*
X16546930Y-42822495D01*
X16594550Y-43679638D02*
X16546930Y-43584400D01*
X16546930Y-43584400D02*
X16546930Y-43393924D01*
X16546930Y-43393924D02*
X16594550Y-43298686D01*
X16594550Y-43298686D02*
X16689788Y-43251067D01*
X16689788Y-43251067D02*
X17070740Y-43251067D01*
X17070740Y-43251067D02*
X17165978Y-43298686D01*
X17165978Y-43298686D02*
X17213597Y-43393924D01*
X17213597Y-43393924D02*
X17213597Y-43584400D01*
X17213597Y-43584400D02*
X17165978Y-43679638D01*
X17165978Y-43679638D02*
X17070740Y-43727257D01*
X17070740Y-43727257D02*
X16975502Y-43727257D01*
X16975502Y-43727257D02*
X16880264Y-43251067D01*
X15460740Y-32536779D02*
X15460740Y-32870112D01*
X14936930Y-33012969D02*
X14936930Y-32536779D01*
X14936930Y-32536779D02*
X15936930Y-32536779D01*
X15936930Y-32536779D02*
X15936930Y-33012969D01*
X14984550Y-33393922D02*
X14936930Y-33536779D01*
X14936930Y-33536779D02*
X14936930Y-33774874D01*
X14936930Y-33774874D02*
X14984550Y-33870112D01*
X14984550Y-33870112D02*
X15032169Y-33917731D01*
X15032169Y-33917731D02*
X15127407Y-33965350D01*
X15127407Y-33965350D02*
X15222645Y-33965350D01*
X15222645Y-33965350D02*
X15317883Y-33917731D01*
X15317883Y-33917731D02*
X15365502Y-33870112D01*
X15365502Y-33870112D02*
X15413121Y-33774874D01*
X15413121Y-33774874D02*
X15460740Y-33584398D01*
X15460740Y-33584398D02*
X15508359Y-33489160D01*
X15508359Y-33489160D02*
X15555978Y-33441541D01*
X15555978Y-33441541D02*
X15651216Y-33393922D01*
X15651216Y-33393922D02*
X15746454Y-33393922D01*
X15746454Y-33393922D02*
X15841692Y-33441541D01*
X15841692Y-33441541D02*
X15889311Y-33489160D01*
X15889311Y-33489160D02*
X15936930Y-33584398D01*
X15936930Y-33584398D02*
X15936930Y-33822493D01*
X15936930Y-33822493D02*
X15889311Y-33965350D01*
X14936930Y-34393922D02*
X15936930Y-34393922D01*
X15936930Y-34393922D02*
X15936930Y-34774874D01*
X15936930Y-34774874D02*
X15889311Y-34870112D01*
X15889311Y-34870112D02*
X15841692Y-34917731D01*
X15841692Y-34917731D02*
X15746454Y-34965350D01*
X15746454Y-34965350D02*
X15603597Y-34965350D01*
X15603597Y-34965350D02*
X15508359Y-34917731D01*
X15508359Y-34917731D02*
X15460740Y-34870112D01*
X15460740Y-34870112D02*
X15413121Y-34774874D01*
X15413121Y-34774874D02*
X15413121Y-34393922D01*
X15936930Y-35298684D02*
X15936930Y-35917731D01*
X15936930Y-35917731D02*
X15555978Y-35584398D01*
X15555978Y-35584398D02*
X15555978Y-35727255D01*
X15555978Y-35727255D02*
X15508359Y-35822493D01*
X15508359Y-35822493D02*
X15460740Y-35870112D01*
X15460740Y-35870112D02*
X15365502Y-35917731D01*
X15365502Y-35917731D02*
X15127407Y-35917731D01*
X15127407Y-35917731D02*
X15032169Y-35870112D01*
X15032169Y-35870112D02*
X14984550Y-35822493D01*
X14984550Y-35822493D02*
X14936930Y-35727255D01*
X14936930Y-35727255D02*
X14936930Y-35441541D01*
X14936930Y-35441541D02*
X14984550Y-35346303D01*
X14984550Y-35346303D02*
X15032169Y-35298684D01*
X15841692Y-36298684D02*
X15889311Y-36346303D01*
X15889311Y-36346303D02*
X15936930Y-36441541D01*
X15936930Y-36441541D02*
X15936930Y-36679636D01*
X15936930Y-36679636D02*
X15889311Y-36774874D01*
X15889311Y-36774874D02*
X15841692Y-36822493D01*
X15841692Y-36822493D02*
X15746454Y-36870112D01*
X15746454Y-36870112D02*
X15651216Y-36870112D01*
X15651216Y-36870112D02*
X15508359Y-36822493D01*
X15508359Y-36822493D02*
X14936930Y-36251065D01*
X14936930Y-36251065D02*
X14936930Y-36870112D01*
X15936930Y-37917732D02*
X15936930Y-38489160D01*
X14936930Y-38203446D02*
X15936930Y-38203446D01*
X14936930Y-38822494D02*
X15936930Y-38822494D01*
X14936930Y-39251065D02*
X15460740Y-39251065D01*
X15460740Y-39251065D02*
X15555978Y-39203446D01*
X15555978Y-39203446D02*
X15603597Y-39108208D01*
X15603597Y-39108208D02*
X15603597Y-38965351D01*
X15603597Y-38965351D02*
X15555978Y-38870113D01*
X15555978Y-38870113D02*
X15508359Y-38822494D01*
X14936930Y-39727256D02*
X15603597Y-39727256D01*
X15936930Y-39727256D02*
X15889311Y-39679637D01*
X15889311Y-39679637D02*
X15841692Y-39727256D01*
X15841692Y-39727256D02*
X15889311Y-39774875D01*
X15889311Y-39774875D02*
X15936930Y-39727256D01*
X15936930Y-39727256D02*
X15841692Y-39727256D01*
X15603597Y-40203446D02*
X14936930Y-40203446D01*
X15508359Y-40203446D02*
X15555978Y-40251065D01*
X15555978Y-40251065D02*
X15603597Y-40346303D01*
X15603597Y-40346303D02*
X15603597Y-40489160D01*
X15603597Y-40489160D02*
X15555978Y-40584398D01*
X15555978Y-40584398D02*
X15460740Y-40632017D01*
X15460740Y-40632017D02*
X14936930Y-40632017D01*
X15603597Y-41536779D02*
X14794073Y-41536779D01*
X14794073Y-41536779D02*
X14698835Y-41489160D01*
X14698835Y-41489160D02*
X14651216Y-41441541D01*
X14651216Y-41441541D02*
X14603597Y-41346303D01*
X14603597Y-41346303D02*
X14603597Y-41203446D01*
X14603597Y-41203446D02*
X14651216Y-41108208D01*
X14984550Y-41536779D02*
X14936930Y-41441541D01*
X14936930Y-41441541D02*
X14936930Y-41251065D01*
X14936930Y-41251065D02*
X14984550Y-41155827D01*
X14984550Y-41155827D02*
X15032169Y-41108208D01*
X15032169Y-41108208D02*
X15127407Y-41060589D01*
X15127407Y-41060589D02*
X15413121Y-41060589D01*
X15413121Y-41060589D02*
X15508359Y-41108208D01*
X15508359Y-41108208D02*
X15555978Y-41155827D01*
X15555978Y-41155827D02*
X15603597Y-41251065D01*
X15603597Y-41251065D02*
X15603597Y-41441541D01*
X15603597Y-41441541D02*
X15555978Y-41536779D01*
X14936930Y-42774875D02*
X15936930Y-42774875D01*
X15936930Y-42774875D02*
X15936930Y-43155827D01*
X15936930Y-43155827D02*
X15889311Y-43251065D01*
X15889311Y-43251065D02*
X15841692Y-43298684D01*
X15841692Y-43298684D02*
X15746454Y-43346303D01*
X15746454Y-43346303D02*
X15603597Y-43346303D01*
X15603597Y-43346303D02*
X15508359Y-43298684D01*
X15508359Y-43298684D02*
X15460740Y-43251065D01*
X15460740Y-43251065D02*
X15413121Y-43155827D01*
X15413121Y-43155827D02*
X15413121Y-42774875D01*
X14936930Y-43917732D02*
X14984550Y-43822494D01*
X14984550Y-43822494D02*
X15079788Y-43774875D01*
X15079788Y-43774875D02*
X15936930Y-43774875D01*
X15603597Y-44727256D02*
X14936930Y-44727256D01*
X15603597Y-44298685D02*
X15079788Y-44298685D01*
X15079788Y-44298685D02*
X14984550Y-44346304D01*
X14984550Y-44346304D02*
X14936930Y-44441542D01*
X14936930Y-44441542D02*
X14936930Y-44584399D01*
X14936930Y-44584399D02*
X14984550Y-44679637D01*
X14984550Y-44679637D02*
X15032169Y-44727256D01*
X14984550Y-45155828D02*
X14936930Y-45251066D01*
X14936930Y-45251066D02*
X14936930Y-45441542D01*
X14936930Y-45441542D02*
X14984550Y-45536780D01*
X14984550Y-45536780D02*
X15079788Y-45584399D01*
X15079788Y-45584399D02*
X15127407Y-45584399D01*
X15127407Y-45584399D02*
X15222645Y-45536780D01*
X15222645Y-45536780D02*
X15270264Y-45441542D01*
X15270264Y-45441542D02*
X15270264Y-45298685D01*
X15270264Y-45298685D02*
X15317883Y-45203447D01*
X15317883Y-45203447D02*
X15413121Y-45155828D01*
X15413121Y-45155828D02*
X15460740Y-45155828D01*
X15460740Y-45155828D02*
X15555978Y-45203447D01*
X15555978Y-45203447D02*
X15603597Y-45298685D01*
X15603597Y-45298685D02*
X15603597Y-45441542D01*
X15603597Y-45441542D02*
X15555978Y-45536780D01*
X13326930Y-33012969D02*
X13326930Y-32536779D01*
X13326930Y-32536779D02*
X14326930Y-32536779D01*
X14326930Y-33536779D02*
X14326930Y-33727255D01*
X14326930Y-33727255D02*
X14279311Y-33822493D01*
X14279311Y-33822493D02*
X14184073Y-33917731D01*
X14184073Y-33917731D02*
X13993597Y-33965350D01*
X13993597Y-33965350D02*
X13660264Y-33965350D01*
X13660264Y-33965350D02*
X13469788Y-33917731D01*
X13469788Y-33917731D02*
X13374550Y-33822493D01*
X13374550Y-33822493D02*
X13326930Y-33727255D01*
X13326930Y-33727255D02*
X13326930Y-33536779D01*
X13326930Y-33536779D02*
X13374550Y-33441541D01*
X13374550Y-33441541D02*
X13469788Y-33346303D01*
X13469788Y-33346303D02*
X13660264Y-33298684D01*
X13660264Y-33298684D02*
X13993597Y-33298684D01*
X13993597Y-33298684D02*
X14184073Y-33346303D01*
X14184073Y-33346303D02*
X14279311Y-33441541D01*
X14279311Y-33441541D02*
X14326930Y-33536779D01*
X13612645Y-34346303D02*
X13612645Y-34822493D01*
X13326930Y-34251065D02*
X14326930Y-34584398D01*
X14326930Y-34584398D02*
X13326930Y-34917731D01*
X13850740Y-35584398D02*
X13850740Y-35251065D01*
X13326930Y-35251065D02*
X14326930Y-35251065D01*
X14326930Y-35251065D02*
X14326930Y-35727255D01*
X13231692Y-35870113D02*
X13231692Y-36632017D01*
X13850740Y-36870113D02*
X13850740Y-37203446D01*
X13326930Y-37346303D02*
X13326930Y-36870113D01*
X13326930Y-36870113D02*
X14326930Y-36870113D01*
X14326930Y-36870113D02*
X14326930Y-37346303D01*
X13374550Y-37727256D02*
X13326930Y-37870113D01*
X13326930Y-37870113D02*
X13326930Y-38108208D01*
X13326930Y-38108208D02*
X13374550Y-38203446D01*
X13374550Y-38203446D02*
X13422169Y-38251065D01*
X13422169Y-38251065D02*
X13517407Y-38298684D01*
X13517407Y-38298684D02*
X13612645Y-38298684D01*
X13612645Y-38298684D02*
X13707883Y-38251065D01*
X13707883Y-38251065D02*
X13755502Y-38203446D01*
X13755502Y-38203446D02*
X13803121Y-38108208D01*
X13803121Y-38108208D02*
X13850740Y-37917732D01*
X13850740Y-37917732D02*
X13898359Y-37822494D01*
X13898359Y-37822494D02*
X13945978Y-37774875D01*
X13945978Y-37774875D02*
X14041216Y-37727256D01*
X14041216Y-37727256D02*
X14136454Y-37727256D01*
X14136454Y-37727256D02*
X14231692Y-37774875D01*
X14231692Y-37774875D02*
X14279311Y-37822494D01*
X14279311Y-37822494D02*
X14326930Y-37917732D01*
X14326930Y-37917732D02*
X14326930Y-38155827D01*
X14326930Y-38155827D02*
X14279311Y-38298684D01*
X13326930Y-38727256D02*
X14326930Y-38727256D01*
X14326930Y-38727256D02*
X14326930Y-39108208D01*
X14326930Y-39108208D02*
X14279311Y-39203446D01*
X14279311Y-39203446D02*
X14231692Y-39251065D01*
X14231692Y-39251065D02*
X14136454Y-39298684D01*
X14136454Y-39298684D02*
X13993597Y-39298684D01*
X13993597Y-39298684D02*
X13898359Y-39251065D01*
X13898359Y-39251065D02*
X13850740Y-39203446D01*
X13850740Y-39203446D02*
X13803121Y-39108208D01*
X13803121Y-39108208D02*
X13803121Y-38727256D01*
X14326930Y-39584399D02*
X14326930Y-40155827D01*
X13326930Y-39870113D02*
X14326930Y-39870113D01*
X13326930Y-40489161D02*
X14326930Y-40489161D01*
X14326930Y-40489161D02*
X14326930Y-40870113D01*
X14326930Y-40870113D02*
X14279311Y-40965351D01*
X14279311Y-40965351D02*
X14231692Y-41012970D01*
X14231692Y-41012970D02*
X14136454Y-41060589D01*
X14136454Y-41060589D02*
X13993597Y-41060589D01*
X13993597Y-41060589D02*
X13898359Y-41012970D01*
X13898359Y-41012970D02*
X13850740Y-40965351D01*
X13850740Y-40965351D02*
X13803121Y-40870113D01*
X13803121Y-40870113D02*
X13803121Y-40489161D01*
X11716930Y-33108207D02*
X12193121Y-32774874D01*
X11716930Y-32536779D02*
X12716930Y-32536779D01*
X12716930Y-32536779D02*
X12716930Y-32917731D01*
X12716930Y-32917731D02*
X12669311Y-33012969D01*
X12669311Y-33012969D02*
X12621692Y-33060588D01*
X12621692Y-33060588D02*
X12526454Y-33108207D01*
X12526454Y-33108207D02*
X12383597Y-33108207D01*
X12383597Y-33108207D02*
X12288359Y-33060588D01*
X12288359Y-33060588D02*
X12240740Y-33012969D01*
X12240740Y-33012969D02*
X12193121Y-32917731D01*
X12193121Y-32917731D02*
X12193121Y-32536779D01*
X12716930Y-33727255D02*
X12716930Y-33822493D01*
X12716930Y-33822493D02*
X12669311Y-33917731D01*
X12669311Y-33917731D02*
X12621692Y-33965350D01*
X12621692Y-33965350D02*
X12526454Y-34012969D01*
X12526454Y-34012969D02*
X12335978Y-34060588D01*
X12335978Y-34060588D02*
X12097883Y-34060588D01*
X12097883Y-34060588D02*
X11907407Y-34012969D01*
X11907407Y-34012969D02*
X11812169Y-33965350D01*
X11812169Y-33965350D02*
X11764550Y-33917731D01*
X11764550Y-33917731D02*
X11716930Y-33822493D01*
X11716930Y-33822493D02*
X11716930Y-33727255D01*
X11716930Y-33727255D02*
X11764550Y-33632017D01*
X11764550Y-33632017D02*
X11812169Y-33584398D01*
X11812169Y-33584398D02*
X11907407Y-33536779D01*
X11907407Y-33536779D02*
X12097883Y-33489160D01*
X12097883Y-33489160D02*
X12335978Y-33489160D01*
X12335978Y-33489160D02*
X12526454Y-33536779D01*
X12526454Y-33536779D02*
X12621692Y-33584398D01*
X12621692Y-33584398D02*
X12669311Y-33632017D01*
X12669311Y-33632017D02*
X12716930Y-33727255D01*
X12621692Y-35203446D02*
X12669311Y-35251065D01*
X12669311Y-35251065D02*
X12716930Y-35346303D01*
X12716930Y-35346303D02*
X12716930Y-35584398D01*
X12716930Y-35584398D02*
X12669311Y-35679636D01*
X12669311Y-35679636D02*
X12621692Y-35727255D01*
X12621692Y-35727255D02*
X12526454Y-35774874D01*
X12526454Y-35774874D02*
X12431216Y-35774874D01*
X12431216Y-35774874D02*
X12288359Y-35727255D01*
X12288359Y-35727255D02*
X11716930Y-35155827D01*
X11716930Y-35155827D02*
X11716930Y-35774874D01*
X12716930Y-36393922D02*
X12716930Y-36489160D01*
X12716930Y-36489160D02*
X12669311Y-36584398D01*
X12669311Y-36584398D02*
X12621692Y-36632017D01*
X12621692Y-36632017D02*
X12526454Y-36679636D01*
X12526454Y-36679636D02*
X12335978Y-36727255D01*
X12335978Y-36727255D02*
X12097883Y-36727255D01*
X12097883Y-36727255D02*
X11907407Y-36679636D01*
X11907407Y-36679636D02*
X11812169Y-36632017D01*
X11812169Y-36632017D02*
X11764550Y-36584398D01*
X11764550Y-36584398D02*
X11716930Y-36489160D01*
X11716930Y-36489160D02*
X11716930Y-36393922D01*
X11716930Y-36393922D02*
X11764550Y-36298684D01*
X11764550Y-36298684D02*
X11812169Y-36251065D01*
X11812169Y-36251065D02*
X11907407Y-36203446D01*
X11907407Y-36203446D02*
X12097883Y-36155827D01*
X12097883Y-36155827D02*
X12335978Y-36155827D01*
X12335978Y-36155827D02*
X12526454Y-36203446D01*
X12526454Y-36203446D02*
X12621692Y-36251065D01*
X12621692Y-36251065D02*
X12669311Y-36298684D01*
X12669311Y-36298684D02*
X12716930Y-36393922D01*
X12621692Y-37108208D02*
X12669311Y-37155827D01*
X12669311Y-37155827D02*
X12716930Y-37251065D01*
X12716930Y-37251065D02*
X12716930Y-37489160D01*
X12716930Y-37489160D02*
X12669311Y-37584398D01*
X12669311Y-37584398D02*
X12621692Y-37632017D01*
X12621692Y-37632017D02*
X12526454Y-37679636D01*
X12526454Y-37679636D02*
X12431216Y-37679636D01*
X12431216Y-37679636D02*
X12288359Y-37632017D01*
X12288359Y-37632017D02*
X11716930Y-37060589D01*
X11716930Y-37060589D02*
X11716930Y-37679636D01*
X12383597Y-38536779D02*
X11716930Y-38536779D01*
X12764550Y-38298684D02*
X12050264Y-38060589D01*
X12050264Y-38060589D02*
X12050264Y-38679636D01*
D11*
X5380533Y-18206840D02*
X5380533Y-19041411D01*
X5380533Y-19041411D02*
X5324894Y-19208325D01*
X5324894Y-19208325D02*
X5213618Y-19319602D01*
X5213618Y-19319602D02*
X5046704Y-19375240D01*
X5046704Y-19375240D02*
X4935428Y-19375240D01*
X5881276Y-18318116D02*
X5936914Y-18262478D01*
X5936914Y-18262478D02*
X6048190Y-18206840D01*
X6048190Y-18206840D02*
X6326381Y-18206840D01*
X6326381Y-18206840D02*
X6437657Y-18262478D01*
X6437657Y-18262478D02*
X6493295Y-18318116D01*
X6493295Y-18318116D02*
X6548933Y-18429392D01*
X6548933Y-18429392D02*
X6548933Y-18540668D01*
X6548933Y-18540668D02*
X6493295Y-18707582D01*
X6493295Y-18707582D02*
X5825638Y-19375240D01*
X5825638Y-19375240D02*
X6548933Y-19375240D01*
D10*
X10279047Y-19224819D02*
X10850475Y-19224819D01*
X10564761Y-20224819D02*
X10564761Y-19224819D01*
X11183809Y-20224819D02*
X11183809Y-19224819D01*
X11612380Y-20224819D02*
X11612380Y-19701009D01*
X11612380Y-19701009D02*
X11564761Y-19605771D01*
X11564761Y-19605771D02*
X11469523Y-19558152D01*
X11469523Y-19558152D02*
X11326666Y-19558152D01*
X11326666Y-19558152D02*
X11231428Y-19605771D01*
X11231428Y-19605771D02*
X11183809Y-19653390D01*
X12088571Y-20224819D02*
X12088571Y-19558152D01*
X12088571Y-19224819D02*
X12040952Y-19272438D01*
X12040952Y-19272438D02*
X12088571Y-19320057D01*
X12088571Y-19320057D02*
X12136190Y-19272438D01*
X12136190Y-19272438D02*
X12088571Y-19224819D01*
X12088571Y-19224819D02*
X12088571Y-19320057D01*
X12564761Y-19558152D02*
X12564761Y-20224819D01*
X12564761Y-19653390D02*
X12612380Y-19605771D01*
X12612380Y-19605771D02*
X12707618Y-19558152D01*
X12707618Y-19558152D02*
X12850475Y-19558152D01*
X12850475Y-19558152D02*
X12945713Y-19605771D01*
X12945713Y-19605771D02*
X12993332Y-19701009D01*
X12993332Y-19701009D02*
X12993332Y-20224819D01*
X13898094Y-19558152D02*
X13898094Y-20367676D01*
X13898094Y-20367676D02*
X13850475Y-20462914D01*
X13850475Y-20462914D02*
X13802856Y-20510533D01*
X13802856Y-20510533D02*
X13707618Y-20558152D01*
X13707618Y-20558152D02*
X13564761Y-20558152D01*
X13564761Y-20558152D02*
X13469523Y-20510533D01*
X13898094Y-20177200D02*
X13802856Y-20224819D01*
X13802856Y-20224819D02*
X13612380Y-20224819D01*
X13612380Y-20224819D02*
X13517142Y-20177200D01*
X13517142Y-20177200D02*
X13469523Y-20129580D01*
X13469523Y-20129580D02*
X13421904Y-20034342D01*
X13421904Y-20034342D02*
X13421904Y-19748628D01*
X13421904Y-19748628D02*
X13469523Y-19653390D01*
X13469523Y-19653390D02*
X13517142Y-19605771D01*
X13517142Y-19605771D02*
X13612380Y-19558152D01*
X13612380Y-19558152D02*
X13802856Y-19558152D01*
X13802856Y-19558152D02*
X13898094Y-19605771D01*
X15136190Y-20224819D02*
X15136190Y-19224819D01*
X15136190Y-19224819D02*
X15517142Y-19224819D01*
X15517142Y-19224819D02*
X15612380Y-19272438D01*
X15612380Y-19272438D02*
X15659999Y-19320057D01*
X15659999Y-19320057D02*
X15707618Y-19415295D01*
X15707618Y-19415295D02*
X15707618Y-19558152D01*
X15707618Y-19558152D02*
X15659999Y-19653390D01*
X15659999Y-19653390D02*
X15612380Y-19701009D01*
X15612380Y-19701009D02*
X15517142Y-19748628D01*
X15517142Y-19748628D02*
X15136190Y-19748628D01*
X16279047Y-20224819D02*
X16183809Y-20177200D01*
X16183809Y-20177200D02*
X16136190Y-20081961D01*
X16136190Y-20081961D02*
X16136190Y-19224819D01*
X17088571Y-19558152D02*
X17088571Y-20224819D01*
X16660000Y-19558152D02*
X16660000Y-20081961D01*
X16660000Y-20081961D02*
X16707619Y-20177200D01*
X16707619Y-20177200D02*
X16802857Y-20224819D01*
X16802857Y-20224819D02*
X16945714Y-20224819D01*
X16945714Y-20224819D02*
X17040952Y-20177200D01*
X17040952Y-20177200D02*
X17088571Y-20129580D01*
X17517143Y-20177200D02*
X17612381Y-20224819D01*
X17612381Y-20224819D02*
X17802857Y-20224819D01*
X17802857Y-20224819D02*
X17898095Y-20177200D01*
X17898095Y-20177200D02*
X17945714Y-20081961D01*
X17945714Y-20081961D02*
X17945714Y-20034342D01*
X17945714Y-20034342D02*
X17898095Y-19939104D01*
X17898095Y-19939104D02*
X17802857Y-19891485D01*
X17802857Y-19891485D02*
X17660000Y-19891485D01*
X17660000Y-19891485D02*
X17564762Y-19843866D01*
X17564762Y-19843866D02*
X17517143Y-19748628D01*
X17517143Y-19748628D02*
X17517143Y-19701009D01*
X17517143Y-19701009D02*
X17564762Y-19605771D01*
X17564762Y-19605771D02*
X17660000Y-19558152D01*
X17660000Y-19558152D02*
X17802857Y-19558152D01*
X17802857Y-19558152D02*
X17898095Y-19605771D01*
X19707619Y-20129580D02*
X19660000Y-20177200D01*
X19660000Y-20177200D02*
X19517143Y-20224819D01*
X19517143Y-20224819D02*
X19421905Y-20224819D01*
X19421905Y-20224819D02*
X19279048Y-20177200D01*
X19279048Y-20177200D02*
X19183810Y-20081961D01*
X19183810Y-20081961D02*
X19136191Y-19986723D01*
X19136191Y-19986723D02*
X19088572Y-19796247D01*
X19088572Y-19796247D02*
X19088572Y-19653390D01*
X19088572Y-19653390D02*
X19136191Y-19462914D01*
X19136191Y-19462914D02*
X19183810Y-19367676D01*
X19183810Y-19367676D02*
X19279048Y-19272438D01*
X19279048Y-19272438D02*
X19421905Y-19224819D01*
X19421905Y-19224819D02*
X19517143Y-19224819D01*
X19517143Y-19224819D02*
X19660000Y-19272438D01*
X19660000Y-19272438D02*
X19707619Y-19320057D01*
X9207619Y-17851009D02*
X9540952Y-17851009D01*
X9683809Y-18374819D02*
X9207619Y-18374819D01*
X9207619Y-18374819D02*
X9207619Y-17374819D01*
X9207619Y-17374819D02*
X9683809Y-17374819D01*
X10064762Y-18327200D02*
X10207619Y-18374819D01*
X10207619Y-18374819D02*
X10445714Y-18374819D01*
X10445714Y-18374819D02*
X10540952Y-18327200D01*
X10540952Y-18327200D02*
X10588571Y-18279580D01*
X10588571Y-18279580D02*
X10636190Y-18184342D01*
X10636190Y-18184342D02*
X10636190Y-18089104D01*
X10636190Y-18089104D02*
X10588571Y-17993866D01*
X10588571Y-17993866D02*
X10540952Y-17946247D01*
X10540952Y-17946247D02*
X10445714Y-17898628D01*
X10445714Y-17898628D02*
X10255238Y-17851009D01*
X10255238Y-17851009D02*
X10160000Y-17803390D01*
X10160000Y-17803390D02*
X10112381Y-17755771D01*
X10112381Y-17755771D02*
X10064762Y-17660533D01*
X10064762Y-17660533D02*
X10064762Y-17565295D01*
X10064762Y-17565295D02*
X10112381Y-17470057D01*
X10112381Y-17470057D02*
X10160000Y-17422438D01*
X10160000Y-17422438D02*
X10255238Y-17374819D01*
X10255238Y-17374819D02*
X10493333Y-17374819D01*
X10493333Y-17374819D02*
X10636190Y-17422438D01*
X11064762Y-18374819D02*
X11064762Y-17374819D01*
X11064762Y-17374819D02*
X11445714Y-17374819D01*
X11445714Y-17374819D02*
X11540952Y-17422438D01*
X11540952Y-17422438D02*
X11588571Y-17470057D01*
X11588571Y-17470057D02*
X11636190Y-17565295D01*
X11636190Y-17565295D02*
X11636190Y-17708152D01*
X11636190Y-17708152D02*
X11588571Y-17803390D01*
X11588571Y-17803390D02*
X11540952Y-17851009D01*
X11540952Y-17851009D02*
X11445714Y-17898628D01*
X11445714Y-17898628D02*
X11064762Y-17898628D01*
X11969524Y-17374819D02*
X12588571Y-17374819D01*
X12588571Y-17374819D02*
X12255238Y-17755771D01*
X12255238Y-17755771D02*
X12398095Y-17755771D01*
X12398095Y-17755771D02*
X12493333Y-17803390D01*
X12493333Y-17803390D02*
X12540952Y-17851009D01*
X12540952Y-17851009D02*
X12588571Y-17946247D01*
X12588571Y-17946247D02*
X12588571Y-18184342D01*
X12588571Y-18184342D02*
X12540952Y-18279580D01*
X12540952Y-18279580D02*
X12493333Y-18327200D01*
X12493333Y-18327200D02*
X12398095Y-18374819D01*
X12398095Y-18374819D02*
X12112381Y-18374819D01*
X12112381Y-18374819D02*
X12017143Y-18327200D01*
X12017143Y-18327200D02*
X11969524Y-18279580D01*
X12969524Y-17470057D02*
X13017143Y-17422438D01*
X13017143Y-17422438D02*
X13112381Y-17374819D01*
X13112381Y-17374819D02*
X13350476Y-17374819D01*
X13350476Y-17374819D02*
X13445714Y-17422438D01*
X13445714Y-17422438D02*
X13493333Y-17470057D01*
X13493333Y-17470057D02*
X13540952Y-17565295D01*
X13540952Y-17565295D02*
X13540952Y-17660533D01*
X13540952Y-17660533D02*
X13493333Y-17803390D01*
X13493333Y-17803390D02*
X12921905Y-18374819D01*
X12921905Y-18374819D02*
X13540952Y-18374819D01*
X13969524Y-17993866D02*
X14731429Y-17993866D01*
X15112381Y-17374819D02*
X15350476Y-18374819D01*
X15350476Y-18374819D02*
X15540952Y-17660533D01*
X15540952Y-17660533D02*
X15731428Y-18374819D01*
X15731428Y-18374819D02*
X15969524Y-17374819D01*
X16921904Y-18374819D02*
X16588571Y-17898628D01*
X16350476Y-18374819D02*
X16350476Y-17374819D01*
X16350476Y-17374819D02*
X16731428Y-17374819D01*
X16731428Y-17374819D02*
X16826666Y-17422438D01*
X16826666Y-17422438D02*
X16874285Y-17470057D01*
X16874285Y-17470057D02*
X16921904Y-17565295D01*
X16921904Y-17565295D02*
X16921904Y-17708152D01*
X16921904Y-17708152D02*
X16874285Y-17803390D01*
X16874285Y-17803390D02*
X16826666Y-17851009D01*
X16826666Y-17851009D02*
X16731428Y-17898628D01*
X16731428Y-17898628D02*
X16350476Y-17898628D01*
X17540952Y-17374819D02*
X17731428Y-17374819D01*
X17731428Y-17374819D02*
X17826666Y-17422438D01*
X17826666Y-17422438D02*
X17921904Y-17517676D01*
X17921904Y-17517676D02*
X17969523Y-17708152D01*
X17969523Y-17708152D02*
X17969523Y-18041485D01*
X17969523Y-18041485D02*
X17921904Y-18231961D01*
X17921904Y-18231961D02*
X17826666Y-18327200D01*
X17826666Y-18327200D02*
X17731428Y-18374819D01*
X17731428Y-18374819D02*
X17540952Y-18374819D01*
X17540952Y-18374819D02*
X17445714Y-18327200D01*
X17445714Y-18327200D02*
X17350476Y-18231961D01*
X17350476Y-18231961D02*
X17302857Y-18041485D01*
X17302857Y-18041485D02*
X17302857Y-17708152D01*
X17302857Y-17708152D02*
X17350476Y-17517676D01*
X17350476Y-17517676D02*
X17445714Y-17422438D01*
X17445714Y-17422438D02*
X17540952Y-17374819D01*
X18588571Y-17374819D02*
X18779047Y-17374819D01*
X18779047Y-17374819D02*
X18874285Y-17422438D01*
X18874285Y-17422438D02*
X18969523Y-17517676D01*
X18969523Y-17517676D02*
X19017142Y-17708152D01*
X19017142Y-17708152D02*
X19017142Y-18041485D01*
X19017142Y-18041485D02*
X18969523Y-18231961D01*
X18969523Y-18231961D02*
X18874285Y-18327200D01*
X18874285Y-18327200D02*
X18779047Y-18374819D01*
X18779047Y-18374819D02*
X18588571Y-18374819D01*
X18588571Y-18374819D02*
X18493333Y-18327200D01*
X18493333Y-18327200D02*
X18398095Y-18231961D01*
X18398095Y-18231961D02*
X18350476Y-18041485D01*
X18350476Y-18041485D02*
X18350476Y-17708152D01*
X18350476Y-17708152D02*
X18398095Y-17517676D01*
X18398095Y-17517676D02*
X18493333Y-17422438D01*
X18493333Y-17422438D02*
X18588571Y-17374819D01*
X19445714Y-18374819D02*
X19445714Y-17374819D01*
X19445714Y-17374819D02*
X19779047Y-18089104D01*
X19779047Y-18089104D02*
X20112380Y-17374819D01*
X20112380Y-17374819D02*
X20112380Y-18374819D01*
D12*
%TO.C,J2*%
X3230000Y-51870000D02*
X3230000Y-18840000D01*
X5770000Y-16300000D02*
X23550000Y-16300000D01*
X26090000Y-18840000D02*
X26130000Y-61920000D01*
X5770000Y-16300000D02*
G75*
G03*
X3230000Y-18840000I0J-2540000D01*
G01*
X26090000Y-18840000D02*
G75*
G03*
X23550000Y-16300000I-2540000J0D01*
G01*
%TO.C,Logo1*%
D13*
X14405717Y-24583548D02*
X14509316Y-24586143D01*
X14598477Y-24590279D01*
X14666773Y-24595962D01*
X14707779Y-24603194D01*
X14716171Y-24607554D01*
X14724637Y-24631827D01*
X14738410Y-24687099D01*
X14756295Y-24767863D01*
X14777097Y-24868613D01*
X14799622Y-24983842D01*
X14811427Y-25046623D01*
X14833694Y-25165738D01*
X14853866Y-25271960D01*
X14870930Y-25360098D01*
X14883876Y-25424959D01*
X14891690Y-25461351D01*
X14893423Y-25467341D01*
X14912955Y-25477464D01*
X14960002Y-25498863D01*
X15027842Y-25528686D01*
X15109754Y-25564080D01*
X15199017Y-25602193D01*
X15288910Y-25640172D01*
X15372710Y-25675165D01*
X15443698Y-25704319D01*
X15495151Y-25724782D01*
X15520348Y-25733702D01*
X15521449Y-25733868D01*
X15541326Y-25723756D01*
X15587068Y-25695408D01*
X15654128Y-25651802D01*
X15737961Y-25595919D01*
X15834019Y-25530738D01*
X15889195Y-25492846D01*
X15990364Y-25423800D01*
X16082215Y-25362475D01*
X16160101Y-25311862D01*
X16219376Y-25274954D01*
X16255394Y-25254743D01*
X16263468Y-25251824D01*
X16282261Y-25264372D01*
X16322388Y-25299062D01*
X16379352Y-25351462D01*
X16448660Y-25417141D01*
X16525814Y-25491669D01*
X16606320Y-25570612D01*
X16685682Y-25649542D01*
X16759405Y-25724025D01*
X16822993Y-25789631D01*
X16871951Y-25841929D01*
X16901784Y-25876486D01*
X16908903Y-25888047D01*
X16898892Y-25906871D01*
X16870767Y-25951894D01*
X16827391Y-26018738D01*
X16771627Y-26103026D01*
X16706339Y-26200381D01*
X16656599Y-26273818D01*
X16404294Y-26644858D01*
X16659290Y-27263430D01*
X17103914Y-27347250D01*
X17548538Y-27431071D01*
X17548538Y-28356519D01*
X17103914Y-28440339D01*
X16659290Y-28524160D01*
X16531792Y-28833445D01*
X16404294Y-29142731D01*
X16656599Y-29513771D01*
X16726849Y-29617682D01*
X16789573Y-29711612D01*
X16841907Y-29791177D01*
X16880988Y-29851995D01*
X16903952Y-29889682D01*
X16908903Y-29899946D01*
X16896169Y-29918435D01*
X16860963Y-29957945D01*
X16807783Y-30014047D01*
X16741127Y-30082312D01*
X16665491Y-30158311D01*
X16585373Y-30237617D01*
X16505271Y-30315800D01*
X16429681Y-30388432D01*
X16363100Y-30451084D01*
X16310027Y-30499328D01*
X16274958Y-30528735D01*
X16263222Y-30535766D01*
X16241585Y-30525648D01*
X16194183Y-30497284D01*
X16125652Y-30453654D01*
X16040630Y-30397743D01*
X15943752Y-30332531D01*
X15888495Y-30294744D01*
X15787597Y-30225868D01*
X15696546Y-30164665D01*
X15619875Y-30114103D01*
X15562117Y-30077153D01*
X15527802Y-30056783D01*
X15520591Y-30053722D01*
X15500097Y-30060661D01*
X15452332Y-30079576D01*
X15384013Y-30107612D01*
X15301856Y-30141916D01*
X15212575Y-30179634D01*
X15122887Y-30217912D01*
X15039507Y-30253895D01*
X14969151Y-30284731D01*
X14918535Y-30307564D01*
X14894374Y-30319542D01*
X14893423Y-30320249D01*
X14888809Y-30339056D01*
X14878517Y-30389143D01*
X14863558Y-30465318D01*
X14844944Y-30562390D01*
X14823686Y-30675168D01*
X14811427Y-30740967D01*
X14788483Y-30861475D01*
X14766650Y-30970322D01*
X14747123Y-31062001D01*
X14731097Y-31131006D01*
X14719766Y-31171829D01*
X14716171Y-31180036D01*
X14691839Y-31188073D01*
X14636886Y-31194558D01*
X14557737Y-31199495D01*
X14460819Y-31202889D01*
X14352558Y-31204743D01*
X14239380Y-31205063D01*
X14127710Y-31203852D01*
X14023977Y-31201115D01*
X13934604Y-31196856D01*
X13866019Y-31191080D01*
X13824648Y-31183792D01*
X13816035Y-31179420D01*
X13805712Y-31153289D01*
X13790953Y-31097918D01*
X13773493Y-31020632D01*
X13755065Y-30928755D01*
X13749104Y-30896683D01*
X13720779Y-30742049D01*
X13697969Y-30619900D01*
X13679765Y-30526198D01*
X13665262Y-30456909D01*
X13653553Y-30407996D01*
X13643730Y-30375422D01*
X13634889Y-30355153D01*
X13626121Y-30343151D01*
X13624388Y-30341472D01*
X13596474Y-30324709D01*
X13542150Y-30299139D01*
X13468068Y-30267313D01*
X13380880Y-30231785D01*
X13287237Y-30195108D01*
X13193793Y-30159836D01*
X13107198Y-30128521D01*
X13034105Y-30103718D01*
X12981167Y-30087979D01*
X12955034Y-30083857D01*
X12954119Y-30084201D01*
X12932759Y-30098166D01*
X12885761Y-30129847D01*
X12818018Y-30175916D01*
X12734422Y-30233043D01*
X12639863Y-30297898D01*
X12612991Y-30316368D01*
X12515570Y-30382224D01*
X12426682Y-30440175D01*
X12351433Y-30487063D01*
X12294925Y-30519732D01*
X12262264Y-30535025D01*
X12258252Y-30535766D01*
X12237161Y-30522917D01*
X12195381Y-30487413D01*
X12137400Y-30433818D01*
X12067710Y-30366696D01*
X11990800Y-30290612D01*
X11911162Y-30210129D01*
X11833284Y-30129812D01*
X11761659Y-30054224D01*
X11700775Y-29987930D01*
X11655124Y-29935494D01*
X11629195Y-29901480D01*
X11624962Y-29892070D01*
X11634933Y-29870168D01*
X11661825Y-29825325D01*
X11701109Y-29764846D01*
X11732728Y-29718314D01*
X11790747Y-29634000D01*
X11859061Y-29534151D01*
X11927266Y-29433998D01*
X11963770Y-29380152D01*
X12087045Y-29197896D01*
X12004325Y-29044906D01*
X11968086Y-28975207D01*
X11939919Y-28915939D01*
X11923854Y-28875836D01*
X11921619Y-28865628D01*
X11938123Y-28853354D01*
X11984763Y-28829138D01*
X12057236Y-28794788D01*
X12151239Y-28752113D01*
X12262471Y-28702919D01*
X12386630Y-28649015D01*
X12519413Y-28592209D01*
X12656518Y-28534307D01*
X12793643Y-28477118D01*
X12926487Y-28422449D01*
X13050747Y-28372109D01*
X13162120Y-28327905D01*
X13256306Y-28291644D01*
X13329001Y-28265134D01*
X13375904Y-28250183D01*
X13392012Y-28247779D01*
X13412559Y-28266836D01*
X13445912Y-28308561D01*
X13485143Y-28364231D01*
X13488246Y-28368903D01*
X13603422Y-28512789D01*
X13737792Y-28628808D01*
X13887061Y-28715955D01*
X14046932Y-28773224D01*
X14213108Y-28799611D01*
X14381293Y-28794110D01*
X14547190Y-28755715D01*
X14706503Y-28683420D01*
X14741358Y-28662151D01*
X14882108Y-28551521D01*
X14995131Y-28420827D01*
X15079842Y-28274589D01*
X15135651Y-28117333D01*
X15161971Y-27953582D01*
X15158215Y-27787858D01*
X15123795Y-27624687D01*
X15058122Y-27468590D01*
X14960610Y-27324092D01*
X14921032Y-27279394D01*
X14797142Y-27165637D01*
X14666721Y-27082743D01*
X14520530Y-27025881D01*
X14375757Y-26994212D01*
X14212985Y-26986394D01*
X14049405Y-27012463D01*
X13890547Y-27069770D01*
X13741939Y-27155669D01*
X13609110Y-27267511D01*
X13497589Y-27402648D01*
X13485834Y-27420408D01*
X13447337Y-27476675D01*
X13413982Y-27519448D01*
X13392685Y-27539897D01*
X13392012Y-27540194D01*
X13368974Y-27535804D01*
X13316688Y-27518401D01*
X13239455Y-27489793D01*
X13141577Y-27451790D01*
X13027354Y-27406199D01*
X12901087Y-27354828D01*
X12767078Y-27299487D01*
X12629627Y-27241983D01*
X12493037Y-27184126D01*
X12361608Y-27127723D01*
X12239640Y-27074583D01*
X12131436Y-27026515D01*
X12041296Y-26985326D01*
X11973522Y-26952826D01*
X11932415Y-26930822D01*
X11921619Y-26921961D01*
X11930026Y-26894885D01*
X11952573Y-26844222D01*
X11985232Y-26778708D01*
X12004325Y-26742684D01*
X12087045Y-26589693D01*
X11963770Y-26407437D01*
X11900617Y-26314400D01*
X11831118Y-26212540D01*
X11765680Y-26117087D01*
X11732728Y-26069275D01*
X11687572Y-26002030D01*
X11651788Y-25945089D01*
X11629907Y-25905879D01*
X11625282Y-25893144D01*
X11637760Y-25874608D01*
X11672593Y-25833584D01*
X11726167Y-25774050D01*
X11794862Y-25699983D01*
X11875064Y-25615360D01*
X11926559Y-25561840D01*
X12018559Y-25468206D01*
X12100846Y-25387284D01*
X12169900Y-25322348D01*
X12222201Y-25276667D01*
X12254229Y-25253514D01*
X12260729Y-25251293D01*
X12285451Y-25261601D01*
X12335440Y-25290086D01*
X12405633Y-25333588D01*
X12490970Y-25388948D01*
X12586389Y-25453005D01*
X12612991Y-25471222D01*
X12709678Y-25537598D01*
X12796728Y-25597147D01*
X12869250Y-25646541D01*
X12922352Y-25682450D01*
X12951142Y-25701544D01*
X12954119Y-25703389D01*
X12977063Y-25700630D01*
X13027509Y-25685987D01*
X13098804Y-25662012D01*
X13184298Y-25631259D01*
X13277338Y-25596281D01*
X13371271Y-25559632D01*
X13459446Y-25523864D01*
X13535211Y-25491531D01*
X13591914Y-25465187D01*
X13622902Y-25447383D01*
X13624388Y-25446118D01*
X13633244Y-25435231D01*
X13642002Y-25416843D01*
X13651568Y-25386919D01*
X13662849Y-25341422D01*
X13676752Y-25276316D01*
X13694182Y-25187564D01*
X13716047Y-25071132D01*
X13743254Y-24922983D01*
X13749104Y-24890907D01*
X13767471Y-24795839D01*
X13785440Y-24712960D01*
X13801276Y-24649595D01*
X13813245Y-24613067D01*
X13816035Y-24608169D01*
X13840773Y-24600098D01*
X13896055Y-24593538D01*
X13975456Y-24588492D01*
X14072549Y-24584966D01*
X14180907Y-24582964D01*
X14294105Y-24582489D01*
X14405717Y-24583548D01*
G36*
X14405717Y-24583548D02*
G01*
X14509316Y-24586143D01*
X14598477Y-24590279D01*
X14666773Y-24595962D01*
X14707779Y-24603194D01*
X14716171Y-24607554D01*
X14724637Y-24631827D01*
X14738410Y-24687099D01*
X14756295Y-24767863D01*
X14777097Y-24868613D01*
X14799622Y-24983842D01*
X14811427Y-25046623D01*
X14833694Y-25165738D01*
X14853866Y-25271960D01*
X14870930Y-25360098D01*
X14883876Y-25424959D01*
X14891690Y-25461351D01*
X14893423Y-25467341D01*
X14912955Y-25477464D01*
X14960002Y-25498863D01*
X15027842Y-25528686D01*
X15109754Y-25564080D01*
X15199017Y-25602193D01*
X15288910Y-25640172D01*
X15372710Y-25675165D01*
X15443698Y-25704319D01*
X15495151Y-25724782D01*
X15520348Y-25733702D01*
X15521449Y-25733868D01*
X15541326Y-25723756D01*
X15587068Y-25695408D01*
X15654128Y-25651802D01*
X15737961Y-25595919D01*
X15834019Y-25530738D01*
X15889195Y-25492846D01*
X15990364Y-25423800D01*
X16082215Y-25362475D01*
X16160101Y-25311862D01*
X16219376Y-25274954D01*
X16255394Y-25254743D01*
X16263468Y-25251824D01*
X16282261Y-25264372D01*
X16322388Y-25299062D01*
X16379352Y-25351462D01*
X16448660Y-25417141D01*
X16525814Y-25491669D01*
X16606320Y-25570612D01*
X16685682Y-25649542D01*
X16759405Y-25724025D01*
X16822993Y-25789631D01*
X16871951Y-25841929D01*
X16901784Y-25876486D01*
X16908903Y-25888047D01*
X16898892Y-25906871D01*
X16870767Y-25951894D01*
X16827391Y-26018738D01*
X16771627Y-26103026D01*
X16706339Y-26200381D01*
X16656599Y-26273818D01*
X16404294Y-26644858D01*
X16659290Y-27263430D01*
X17103914Y-27347250D01*
X17548538Y-27431071D01*
X17548538Y-28356519D01*
X17103914Y-28440339D01*
X16659290Y-28524160D01*
X16531792Y-28833445D01*
X16404294Y-29142731D01*
X16656599Y-29513771D01*
X16726849Y-29617682D01*
X16789573Y-29711612D01*
X16841907Y-29791177D01*
X16880988Y-29851995D01*
X16903952Y-29889682D01*
X16908903Y-29899946D01*
X16896169Y-29918435D01*
X16860963Y-29957945D01*
X16807783Y-30014047D01*
X16741127Y-30082312D01*
X16665491Y-30158311D01*
X16585373Y-30237617D01*
X16505271Y-30315800D01*
X16429681Y-30388432D01*
X16363100Y-30451084D01*
X16310027Y-30499328D01*
X16274958Y-30528735D01*
X16263222Y-30535766D01*
X16241585Y-30525648D01*
X16194183Y-30497284D01*
X16125652Y-30453654D01*
X16040630Y-30397743D01*
X15943752Y-30332531D01*
X15888495Y-30294744D01*
X15787597Y-30225868D01*
X15696546Y-30164665D01*
X15619875Y-30114103D01*
X15562117Y-30077153D01*
X15527802Y-30056783D01*
X15520591Y-30053722D01*
X15500097Y-30060661D01*
X15452332Y-30079576D01*
X15384013Y-30107612D01*
X15301856Y-30141916D01*
X15212575Y-30179634D01*
X15122887Y-30217912D01*
X15039507Y-30253895D01*
X14969151Y-30284731D01*
X14918535Y-30307564D01*
X14894374Y-30319542D01*
X14893423Y-30320249D01*
X14888809Y-30339056D01*
X14878517Y-30389143D01*
X14863558Y-30465318D01*
X14844944Y-30562390D01*
X14823686Y-30675168D01*
X14811427Y-30740967D01*
X14788483Y-30861475D01*
X14766650Y-30970322D01*
X14747123Y-31062001D01*
X14731097Y-31131006D01*
X14719766Y-31171829D01*
X14716171Y-31180036D01*
X14691839Y-31188073D01*
X14636886Y-31194558D01*
X14557737Y-31199495D01*
X14460819Y-31202889D01*
X14352558Y-31204743D01*
X14239380Y-31205063D01*
X14127710Y-31203852D01*
X14023977Y-31201115D01*
X13934604Y-31196856D01*
X13866019Y-31191080D01*
X13824648Y-31183792D01*
X13816035Y-31179420D01*
X13805712Y-31153289D01*
X13790953Y-31097918D01*
X13773493Y-31020632D01*
X13755065Y-30928755D01*
X13749104Y-30896683D01*
X13720779Y-30742049D01*
X13697969Y-30619900D01*
X13679765Y-30526198D01*
X13665262Y-30456909D01*
X13653553Y-30407996D01*
X13643730Y-30375422D01*
X13634889Y-30355153D01*
X13626121Y-30343151D01*
X13624388Y-30341472D01*
X13596474Y-30324709D01*
X13542150Y-30299139D01*
X13468068Y-30267313D01*
X13380880Y-30231785D01*
X13287237Y-30195108D01*
X13193793Y-30159836D01*
X13107198Y-30128521D01*
X13034105Y-30103718D01*
X12981167Y-30087979D01*
X12955034Y-30083857D01*
X12954119Y-30084201D01*
X12932759Y-30098166D01*
X12885761Y-30129847D01*
X12818018Y-30175916D01*
X12734422Y-30233043D01*
X12639863Y-30297898D01*
X12612991Y-30316368D01*
X12515570Y-30382224D01*
X12426682Y-30440175D01*
X12351433Y-30487063D01*
X12294925Y-30519732D01*
X12262264Y-30535025D01*
X12258252Y-30535766D01*
X12237161Y-30522917D01*
X12195381Y-30487413D01*
X12137400Y-30433818D01*
X12067710Y-30366696D01*
X11990800Y-30290612D01*
X11911162Y-30210129D01*
X11833284Y-30129812D01*
X11761659Y-30054224D01*
X11700775Y-29987930D01*
X11655124Y-29935494D01*
X11629195Y-29901480D01*
X11624962Y-29892070D01*
X11634933Y-29870168D01*
X11661825Y-29825325D01*
X11701109Y-29764846D01*
X11732728Y-29718314D01*
X11790747Y-29634000D01*
X11859061Y-29534151D01*
X11927266Y-29433998D01*
X11963770Y-29380152D01*
X12087045Y-29197896D01*
X12004325Y-29044906D01*
X11968086Y-28975207D01*
X11939919Y-28915939D01*
X11923854Y-28875836D01*
X11921619Y-28865628D01*
X11938123Y-28853354D01*
X11984763Y-28829138D01*
X12057236Y-28794788D01*
X12151239Y-28752113D01*
X12262471Y-28702919D01*
X12386630Y-28649015D01*
X12519413Y-28592209D01*
X12656518Y-28534307D01*
X12793643Y-28477118D01*
X12926487Y-28422449D01*
X13050747Y-28372109D01*
X13162120Y-28327905D01*
X13256306Y-28291644D01*
X13329001Y-28265134D01*
X13375904Y-28250183D01*
X13392012Y-28247779D01*
X13412559Y-28266836D01*
X13445912Y-28308561D01*
X13485143Y-28364231D01*
X13488246Y-28368903D01*
X13603422Y-28512789D01*
X13737792Y-28628808D01*
X13887061Y-28715955D01*
X14046932Y-28773224D01*
X14213108Y-28799611D01*
X14381293Y-28794110D01*
X14547190Y-28755715D01*
X14706503Y-28683420D01*
X14741358Y-28662151D01*
X14882108Y-28551521D01*
X14995131Y-28420827D01*
X15079842Y-28274589D01*
X15135651Y-28117333D01*
X15161971Y-27953582D01*
X15158215Y-27787858D01*
X15123795Y-27624687D01*
X15058122Y-27468590D01*
X14960610Y-27324092D01*
X14921032Y-27279394D01*
X14797142Y-27165637D01*
X14666721Y-27082743D01*
X14520530Y-27025881D01*
X14375757Y-26994212D01*
X14212985Y-26986394D01*
X14049405Y-27012463D01*
X13890547Y-27069770D01*
X13741939Y-27155669D01*
X13609110Y-27267511D01*
X13497589Y-27402648D01*
X13485834Y-27420408D01*
X13447337Y-27476675D01*
X13413982Y-27519448D01*
X13392685Y-27539897D01*
X13392012Y-27540194D01*
X13368974Y-27535804D01*
X13316688Y-27518401D01*
X13239455Y-27489793D01*
X13141577Y-27451790D01*
X13027354Y-27406199D01*
X12901087Y-27354828D01*
X12767078Y-27299487D01*
X12629627Y-27241983D01*
X12493037Y-27184126D01*
X12361608Y-27127723D01*
X12239640Y-27074583D01*
X12131436Y-27026515D01*
X12041296Y-26985326D01*
X11973522Y-26952826D01*
X11932415Y-26930822D01*
X11921619Y-26921961D01*
X11930026Y-26894885D01*
X11952573Y-26844222D01*
X11985232Y-26778708D01*
X12004325Y-26742684D01*
X12087045Y-26589693D01*
X11963770Y-26407437D01*
X11900617Y-26314400D01*
X11831118Y-26212540D01*
X11765680Y-26117087D01*
X11732728Y-26069275D01*
X11687572Y-26002030D01*
X11651788Y-25945089D01*
X11629907Y-25905879D01*
X11625282Y-25893144D01*
X11637760Y-25874608D01*
X11672593Y-25833584D01*
X11726167Y-25774050D01*
X11794862Y-25699983D01*
X11875064Y-25615360D01*
X11926559Y-25561840D01*
X12018559Y-25468206D01*
X12100846Y-25387284D01*
X12169900Y-25322348D01*
X12222201Y-25276667D01*
X12254229Y-25253514D01*
X12260729Y-25251293D01*
X12285451Y-25261601D01*
X12335440Y-25290086D01*
X12405633Y-25333588D01*
X12490970Y-25388948D01*
X12586389Y-25453005D01*
X12612991Y-25471222D01*
X12709678Y-25537598D01*
X12796728Y-25597147D01*
X12869250Y-25646541D01*
X12922352Y-25682450D01*
X12951142Y-25701544D01*
X12954119Y-25703389D01*
X12977063Y-25700630D01*
X13027509Y-25685987D01*
X13098804Y-25662012D01*
X13184298Y-25631259D01*
X13277338Y-25596281D01*
X13371271Y-25559632D01*
X13459446Y-25523864D01*
X13535211Y-25491531D01*
X13591914Y-25465187D01*
X13622902Y-25447383D01*
X13624388Y-25446118D01*
X13633244Y-25435231D01*
X13642002Y-25416843D01*
X13651568Y-25386919D01*
X13662849Y-25341422D01*
X13676752Y-25276316D01*
X13694182Y-25187564D01*
X13716047Y-25071132D01*
X13743254Y-24922983D01*
X13749104Y-24890907D01*
X13767471Y-24795839D01*
X13785440Y-24712960D01*
X13801276Y-24649595D01*
X13813245Y-24613067D01*
X13816035Y-24608169D01*
X13840773Y-24600098D01*
X13896055Y-24593538D01*
X13975456Y-24588492D01*
X14072549Y-24584966D01*
X14180907Y-24582964D01*
X14294105Y-24582489D01*
X14405717Y-24583548D01*
G37*
%TD*%
M02*
