%TF.GenerationSoftware,KiCad,Pcbnew,7.0.9*%
%TF.CreationDate,2024-02-09T11:23:59-05:00*%
%TF.ProjectId,BREAD_Loaf,42524541-445f-44c6-9f61-662e6b696361,rev?*%
%TF.SameCoordinates,PX2fdfdc0PY36746e0*%
%TF.FileFunction,Paste,Bot*%
%TF.FilePolarity,Positive*%
%FSLAX46Y46*%
G04 Gerber Fmt 4.6, Leading zero omitted, Abs format (unit mm)*
G04 Created by KiCad (PCBNEW 7.0.9) date 2024-02-09 11:23:59*
%MOMM*%
%LPD*%
G01*
G04 APERTURE LIST*
G04 Aperture macros list*
%AMRoundRect*
0 Rectangle with rounded corners*
0 $1 Rounding radius*
0 $2 $3 $4 $5 $6 $7 $8 $9 X,Y pos of 4 corners*
0 Add a 4 corners polygon primitive as box body*
4,1,4,$2,$3,$4,$5,$6,$7,$8,$9,$2,$3,0*
0 Add four circle primitives for the rounded corners*
1,1,$1+$1,$2,$3*
1,1,$1+$1,$4,$5*
1,1,$1+$1,$6,$7*
1,1,$1+$1,$8,$9*
0 Add four rect primitives between the rounded corners*
20,1,$1+$1,$2,$3,$4,$5,0*
20,1,$1+$1,$4,$5,$6,$7,0*
20,1,$1+$1,$6,$7,$8,$9,0*
20,1,$1+$1,$8,$9,$2,$3,0*%
G04 Aperture macros list end*
%ADD10RoundRect,0.200000X-0.275000X0.200000X-0.275000X-0.200000X0.275000X-0.200000X0.275000X0.200000X0*%
%ADD11RoundRect,0.150000X-0.587500X-0.150000X0.587500X-0.150000X0.587500X0.150000X-0.587500X0.150000X0*%
%ADD12RoundRect,0.200000X-0.200000X-0.275000X0.200000X-0.275000X0.200000X0.275000X-0.200000X0.275000X0*%
%ADD13RoundRect,0.250000X-0.325000X-0.650000X0.325000X-0.650000X0.325000X0.650000X-0.325000X0.650000X0*%
%ADD14RoundRect,0.250000X0.325000X0.650000X-0.325000X0.650000X-0.325000X-0.650000X0.325000X-0.650000X0*%
%ADD15RoundRect,0.150000X0.512500X0.150000X-0.512500X0.150000X-0.512500X-0.150000X0.512500X-0.150000X0*%
%ADD16R,0.650000X0.400000*%
%ADD17R,0.300000X1.600000*%
%ADD18RoundRect,0.200000X0.200000X0.275000X-0.200000X0.275000X-0.200000X-0.275000X0.200000X-0.275000X0*%
%ADD19RoundRect,0.250000X0.375000X1.075000X-0.375000X1.075000X-0.375000X-1.075000X0.375000X-1.075000X0*%
G04 APERTURE END LIST*
D10*
%TO.C,R5*%
X20600000Y-42175000D03*
X20600000Y-43825000D03*
%TD*%
%TO.C,R6*%
X20600000Y-40025000D03*
X20600000Y-38375000D03*
%TD*%
D11*
%TO.C,Q2*%
X16162500Y-43950000D03*
X16162500Y-42050000D03*
X18037500Y-43000000D03*
%TD*%
D12*
%TO.C,R12*%
X12075000Y-32500000D03*
X13725000Y-32500000D03*
%TD*%
D11*
%TO.C,Q3*%
X18037500Y-39200000D03*
X16162500Y-38250000D03*
X16162500Y-40150000D03*
%TD*%
D10*
%TO.C,R2*%
X13600000Y-42175000D03*
X13600000Y-43825000D03*
%TD*%
D12*
%TO.C,R11*%
X13725000Y-27300000D03*
X12075000Y-27300000D03*
%TD*%
D10*
%TO.C,R4*%
X20537500Y-45975000D03*
X20537500Y-47625000D03*
%TD*%
D12*
%TO.C,R9*%
X13683600Y-24700000D03*
X12033600Y-24700000D03*
%TD*%
D13*
%TO.C,C2*%
X13125000Y-51050000D03*
X16075000Y-51050000D03*
%TD*%
D10*
%TO.C,R3*%
X13600000Y-40025000D03*
X13600000Y-38375000D03*
%TD*%
D14*
%TO.C,C3*%
X13375000Y-57850000D03*
X10425000Y-57850000D03*
%TD*%
D13*
%TO.C,C1*%
X15725000Y-57850000D03*
X18675000Y-57850000D03*
%TD*%
D10*
%TO.C,R1*%
X13537500Y-45975000D03*
X13537500Y-47625000D03*
%TD*%
D14*
%TO.C,C4*%
X13375000Y-60750000D03*
X10425000Y-60750000D03*
%TD*%
D15*
%TO.C,U2*%
X18137500Y-53600000D03*
X18137500Y-54550000D03*
X18137500Y-55500000D03*
X15862500Y-55500000D03*
X15862500Y-54550000D03*
X15862500Y-53600000D03*
%TD*%
D16*
%TO.C,U1*%
X16050000Y-20150000D03*
X16050000Y-20800000D03*
X16050000Y-21450000D03*
X14150000Y-21450000D03*
X14150000Y-20800000D03*
X14150000Y-20150000D03*
%TD*%
D17*
%TO.C,U3*%
X8225000Y-36100000D03*
X8875000Y-36100000D03*
X9525000Y-36100000D03*
X10175000Y-36100000D03*
X10175000Y-39500000D03*
X9525000Y-39500000D03*
X8875000Y-39500000D03*
X8225000Y-39500000D03*
%TD*%
D10*
%TO.C,R7*%
X18400000Y-19975000D03*
X18400000Y-21625000D03*
%TD*%
D12*
%TO.C,R10*%
X12075000Y-29900000D03*
X13725000Y-29900000D03*
%TD*%
D18*
%TO.C,R8*%
X10025000Y-42200000D03*
X8375000Y-42200000D03*
%TD*%
D19*
%TO.C,L1*%
X13300000Y-54550000D03*
X10500000Y-54550000D03*
%TD*%
D11*
%TO.C,Q1*%
X16162500Y-47750000D03*
X16162500Y-45850000D03*
X18037500Y-46800000D03*
%TD*%
M02*
