%TF.GenerationSoftware,KiCad,Pcbnew,7.0.9*%
%TF.CreationDate,2024-02-09T11:23:59-05:00*%
%TF.ProjectId,BREAD_Loaf,42524541-445f-44c6-9f61-662e6b696361,rev?*%
%TF.SameCoordinates,PX2fdfdc0PY36746e0*%
%TF.FileFunction,Soldermask,Top*%
%TF.FilePolarity,Negative*%
%FSLAX46Y46*%
G04 Gerber Fmt 4.6, Leading zero omitted, Abs format (unit mm)*
G04 Created by KiCad (PCBNEW 7.0.9) date 2024-02-09 11:23:59*
%MOMM*%
%LPD*%
G01*
G04 APERTURE LIST*
G04 Aperture macros list*
%AMRoundRect*
0 Rectangle with rounded corners*
0 $1 Rounding radius*
0 $2 $3 $4 $5 $6 $7 $8 $9 X,Y pos of 4 corners*
0 Add a 4 corners polygon primitive as box body*
4,1,4,$2,$3,$4,$5,$6,$7,$8,$9,$2,$3,0*
0 Add four circle primitives for the rounded corners*
1,1,$1+$1,$2,$3*
1,1,$1+$1,$4,$5*
1,1,$1+$1,$6,$7*
1,1,$1+$1,$8,$9*
0 Add four rect primitives between the rounded corners*
20,1,$1+$1,$2,$3,$4,$5,0*
20,1,$1+$1,$4,$5,$6,$7,0*
20,1,$1+$1,$6,$7,$8,$9,0*
20,1,$1+$1,$8,$9,$2,$3,0*%
G04 Aperture macros list end*
%ADD10C,2.082800*%
%ADD11C,3.302000*%
%ADD12RoundRect,1.000000X-5.000000X-5.000000X5.000000X-5.000000X5.000000X5.000000X-5.000000X5.000000X0*%
%ADD13R,1.700000X1.700000*%
%ADD14O,1.700000X1.700000*%
G04 APERTURE END LIST*
D10*
%TO.C,J2*%
X4500000Y-22650000D03*
X4500000Y-25190000D03*
X4500000Y-27730000D03*
X4500000Y-30270000D03*
X4500000Y-32810000D03*
X4500000Y-35350000D03*
X4500000Y-37890000D03*
X4500000Y-40430000D03*
X4500000Y-42970000D03*
X4500000Y-45510000D03*
X4500000Y-48050000D03*
X4500000Y-50590000D03*
X24820000Y-22650000D03*
X24820000Y-25190000D03*
X24820000Y-27730000D03*
X24820000Y-30270000D03*
X24820000Y-32810000D03*
X24820000Y-35350000D03*
X24820000Y-37890000D03*
X24820000Y-40430000D03*
X24820000Y-42970000D03*
X24820000Y-45510000D03*
X24820000Y-48050000D03*
X24820000Y-50590000D03*
X24820000Y-53130000D03*
X24820000Y-55670000D03*
X24820000Y-58210000D03*
X24820000Y-60750000D03*
%TD*%
D11*
%TO.C,ST2*%
X31100000Y-61250000D03*
%TD*%
%TO.C,ST1*%
X31100000Y-21250000D03*
%TD*%
D12*
%TO.C,HS1*%
X14566750Y-55850000D03*
%TD*%
D13*
%TO.C,J6*%
X29700000Y-29800000D03*
D14*
X29700000Y-32340000D03*
X29700000Y-34880000D03*
X29700000Y-37420000D03*
X29700000Y-39960000D03*
X29700000Y-42500000D03*
X29700000Y-45040000D03*
X29700000Y-47580000D03*
X29700000Y-50120000D03*
X29700000Y-52660000D03*
%TD*%
M02*
