%TF.GenerationSoftware,KiCad,Pcbnew,7.0.9*%
%TF.CreationDate,2024-02-10T01:22:26-05:00*%
%TF.ProjectId,BREAD_Slice,42524541-445f-4536-9c69-63652e6b6963,rev?*%
%TF.SameCoordinates,PX74eba40PY8552dc0*%
%TF.FileFunction,Legend,Bot*%
%TF.FilePolarity,Positive*%
%FSLAX46Y46*%
G04 Gerber Fmt 4.6, Leading zero omitted, Abs format (unit mm)*
G04 Created by KiCad (PCBNEW 7.0.9) date 2024-02-10 01:22:26*
%MOMM*%
%LPD*%
G01*
G04 APERTURE LIST*
%ADD10C,0.120000*%
%ADD11C,0.250000*%
%ADD12C,0.150000*%
%ADD13C,0.100000*%
%ADD14C,0.127000*%
%ADD15C,0.200000*%
G04 APERTURE END LIST*
D10*
X31600000Y32500000D02*
X32920000Y32500000D01*
X33400000Y32500000D02*
X34720000Y32500000D01*
X35200000Y32500000D02*
X36520000Y32500000D01*
X37000000Y32500000D02*
X38320000Y32500000D01*
X38800000Y32500000D02*
X40120000Y32500000D01*
X40600000Y32500000D02*
X41920000Y32500000D01*
X42400000Y32500000D02*
X43720000Y32500000D01*
X44200000Y32500000D02*
X45520000Y32500000D01*
X46000000Y32500000D02*
X47320000Y32500000D01*
X47800000Y32500000D02*
X49120000Y32500000D01*
X49600000Y32500000D02*
X50550000Y32500000D01*
X50550000Y32500000D02*
X50550000Y31180000D01*
X50550000Y30700000D02*
X50550000Y29380000D01*
X50550000Y28900000D02*
X50550000Y27580000D01*
X50550000Y27100000D02*
X50550000Y25780000D01*
X50550000Y25300000D02*
X50550000Y23980000D01*
X50550000Y23500000D02*
X50550000Y22900000D01*
X50550000Y22900000D02*
X49230000Y22900000D01*
X48750000Y22900000D02*
X47430000Y22900000D01*
X46950000Y22900000D02*
X45630000Y22900000D01*
X45150000Y22900000D02*
X43830000Y22900000D01*
X43350000Y22900000D02*
X42030000Y22900000D01*
X41550000Y22900000D02*
X40230000Y22900000D01*
X39750000Y22900000D02*
X38430000Y22900000D01*
X37950000Y22900000D02*
X36630000Y22900000D01*
X36150000Y22900000D02*
X34830000Y22900000D01*
X34350000Y22900000D02*
X33030000Y22900000D01*
X32550000Y22900000D02*
X31600000Y22900000D01*
X31600000Y22900000D02*
X31600000Y24220000D01*
X31600000Y24700000D02*
X31600000Y26020000D01*
X31600000Y26500000D02*
X31600000Y27820000D01*
X31600000Y28300000D02*
X31600000Y29620000D01*
X31600000Y30100000D02*
X31600000Y31420000D01*
X31600000Y31900000D02*
X31600000Y32500000D01*
X31600000Y21600000D02*
X32920000Y21600000D01*
X33400000Y21600000D02*
X34720000Y21600000D01*
X35200000Y21600000D02*
X36520000Y21600000D01*
X37000000Y21600000D02*
X38320000Y21600000D01*
X38800000Y21600000D02*
X40120000Y21600000D01*
X40600000Y21600000D02*
X41920000Y21600000D01*
X42400000Y21600000D02*
X43720000Y21600000D01*
X44200000Y21600000D02*
X45520000Y21600000D01*
X46000000Y21600000D02*
X47320000Y21600000D01*
X47800000Y21600000D02*
X49120000Y21600000D01*
X49600000Y21600000D02*
X50550000Y21600000D01*
X50550000Y21600000D02*
X50550000Y20280000D01*
X50550000Y19800000D02*
X50550000Y18480000D01*
X50550000Y18000000D02*
X50550000Y16680000D01*
X50550000Y16200000D02*
X50550000Y14880000D01*
X50550000Y14400000D02*
X50550000Y13080000D01*
X50550000Y12600000D02*
X50550000Y11280000D01*
X50550000Y10800000D02*
X50550000Y10800000D01*
X50550000Y10800000D02*
X49230000Y10800000D01*
X48750000Y10800000D02*
X47430000Y10800000D01*
X46950000Y10800000D02*
X45630000Y10800000D01*
X45150000Y10800000D02*
X43830000Y10800000D01*
X43350000Y10800000D02*
X42030000Y10800000D01*
X41550000Y10800000D02*
X40230000Y10800000D01*
X39750000Y10800000D02*
X38430000Y10800000D01*
X37950000Y10800000D02*
X36630000Y10800000D01*
X36150000Y10800000D02*
X34830000Y10800000D01*
X34350000Y10800000D02*
X33030000Y10800000D01*
X32550000Y10800000D02*
X31600000Y10800000D01*
X31600000Y10800000D02*
X31600000Y12120000D01*
X31600000Y12600000D02*
X31600000Y13920000D01*
X31600000Y14400000D02*
X31600000Y15720000D01*
X31600000Y16200000D02*
X31600000Y17520000D01*
X31600000Y18000000D02*
X31600000Y19320000D01*
X31600000Y19800000D02*
X31600000Y21120000D01*
X31600000Y21600000D02*
X31600000Y21600000D01*
X20500000Y70800000D02*
X21820000Y70800000D01*
X22300000Y70800000D02*
X23620000Y70800000D01*
X24100000Y70800000D02*
X25420000Y70800000D01*
X25900000Y70800000D02*
X27220000Y70800000D01*
X27700000Y70800000D02*
X29020000Y70800000D01*
X29500000Y70800000D02*
X30820000Y70800000D01*
X31300000Y70800000D02*
X32620000Y70800000D01*
X33100000Y70800000D02*
X34420000Y70800000D01*
X34900000Y70800000D02*
X36220000Y70800000D01*
X36700000Y70800000D02*
X38020000Y70800000D01*
X38500000Y70800000D02*
X39820000Y70800000D01*
X40300000Y70800000D02*
X41620000Y70800000D01*
X42100000Y70800000D02*
X43420000Y70800000D01*
X43900000Y70800000D02*
X45220000Y70800000D01*
X45700000Y70800000D02*
X47020000Y70800000D01*
X47500000Y70800000D02*
X48400000Y70800000D01*
X48400000Y70800000D02*
X48400000Y69480000D01*
X48400000Y69000000D02*
X48400000Y67680000D01*
X48400000Y67200000D02*
X48400000Y65880000D01*
X48400000Y65400000D02*
X48400000Y64080000D01*
X48400000Y63600000D02*
X48400000Y62280000D01*
X48400000Y61800000D02*
X48400000Y60480000D01*
X48400000Y60000000D02*
X48400000Y58680000D01*
X48400000Y58200000D02*
X48400000Y56880000D01*
X48400000Y56400000D02*
X48400000Y55080000D01*
X48400000Y54600000D02*
X48400000Y53280000D01*
X48400000Y52800000D02*
X48400000Y51480000D01*
X48400000Y51000000D02*
X48400000Y49680000D01*
X48400000Y49200000D02*
X48400000Y47880000D01*
X48400000Y47400000D02*
X48400000Y46080000D01*
X48400000Y45600000D02*
X48400000Y44280000D01*
X48400000Y44000000D02*
X47080000Y44000000D01*
X46600000Y44000000D02*
X45280000Y44000000D01*
X44800000Y44000000D02*
X43480000Y44000000D01*
X43000000Y44000000D02*
X41680000Y44000000D01*
X41200000Y44000000D02*
X39880000Y44000000D01*
X39400000Y44000000D02*
X38080000Y44000000D01*
X37600000Y44000000D02*
X36280000Y44000000D01*
X35800000Y44000000D02*
X34480000Y44000000D01*
X34000000Y44000000D02*
X32680000Y44000000D01*
X32200000Y44000000D02*
X30880000Y44000000D01*
X30400000Y44000000D02*
X29080000Y44000000D01*
X28600000Y44000000D02*
X27280000Y44000000D01*
X26800000Y44000000D02*
X25480000Y44000000D01*
X25000000Y44000000D02*
X23680000Y44000000D01*
X23200000Y44000000D02*
X21880000Y44000000D01*
X21400000Y44000000D02*
X20500000Y44000000D01*
X20500000Y44000000D02*
X20500000Y45320000D01*
X20500000Y45800000D02*
X20500000Y47120000D01*
X20500000Y47600000D02*
X20500000Y48920000D01*
X20500000Y49400000D02*
X20500000Y50720000D01*
X20500000Y51200000D02*
X20500000Y52520000D01*
X20500000Y53000000D02*
X20500000Y54320000D01*
X20500000Y54800000D02*
X20500000Y56120000D01*
X20500000Y56600000D02*
X20500000Y57920000D01*
X20500000Y58400000D02*
X20500000Y59720000D01*
X20500000Y60200000D02*
X20500000Y61520000D01*
X20500000Y62000000D02*
X20500000Y63320000D01*
X20500000Y63800000D02*
X20500000Y65120000D01*
X20500000Y65600000D02*
X20500000Y66920000D01*
X20500000Y67400000D02*
X20500000Y68720000D01*
X20500000Y69200000D02*
X20500000Y70520000D01*
X6400000Y87600000D02*
X7720000Y87600000D01*
X8200000Y87600000D02*
X9520000Y87600000D01*
X10000000Y87600000D02*
X11320000Y87600000D01*
X11800000Y87600000D02*
X13120000Y87600000D01*
X13600000Y87600000D02*
X14920000Y87600000D01*
X15400000Y87600000D02*
X16720000Y87600000D01*
X17200000Y87600000D02*
X18520000Y87600000D01*
X19000000Y87600000D02*
X20100000Y87600000D01*
X20100000Y87600000D02*
X20100000Y86280000D01*
X20100000Y85800000D02*
X20100000Y84480000D01*
X20100000Y84000000D02*
X20100000Y82680000D01*
X20100000Y82200000D02*
X20100000Y80880000D01*
X20100000Y80400000D02*
X20100000Y79080000D01*
X20100000Y78600000D02*
X20100000Y77280000D01*
X20100000Y76800000D02*
X20100000Y75480000D01*
X20100000Y75000000D02*
X20100000Y73680000D01*
X20100000Y73200000D02*
X20100000Y71880000D01*
X20100000Y71400000D02*
X20100000Y70080000D01*
X20100000Y69600000D02*
X20100000Y69100000D01*
X20100000Y69100000D02*
X18780000Y69100000D01*
X18300000Y69100000D02*
X16980000Y69100000D01*
X16500000Y69100000D02*
X15180000Y69100000D01*
X14700000Y69100000D02*
X13380000Y69100000D01*
X12900000Y69100000D02*
X11580000Y69100000D01*
X11100000Y69100000D02*
X9780000Y69100000D01*
X9300000Y69100000D02*
X7980000Y69100000D01*
X7500000Y69100000D02*
X6400000Y69100000D01*
X6400000Y69100000D02*
X6400000Y70420000D01*
X6400000Y70900000D02*
X6400000Y72220000D01*
X6400000Y72700000D02*
X6400000Y74020000D01*
X6400000Y74500000D02*
X6400000Y75820000D01*
X6400000Y76300000D02*
X6400000Y77620000D01*
X6400000Y78100000D02*
X6400000Y79420000D01*
X6400000Y79900000D02*
X6400000Y81220000D01*
X6400000Y81700000D02*
X6400000Y83020000D01*
X6400000Y83500000D02*
X6400000Y84820000D01*
X6400000Y85300000D02*
X6400000Y86620000D01*
X6400000Y87100000D02*
X6400000Y87600000D01*
X20500000Y97600000D02*
X21820000Y97600000D01*
X22300000Y97600000D02*
X23620000Y97600000D01*
X24100000Y97600000D02*
X25420000Y97600000D01*
X25900000Y97600000D02*
X27220000Y97600000D01*
X27700000Y97600000D02*
X29020000Y97600000D01*
X29500000Y97600000D02*
X30820000Y97600000D01*
X31300000Y97600000D02*
X32620000Y97600000D01*
X33100000Y97600000D02*
X34420000Y97600000D01*
X34900000Y97600000D02*
X36220000Y97600000D01*
X36700000Y97600000D02*
X38020000Y97600000D01*
X38500000Y97600000D02*
X39820000Y97600000D01*
X40300000Y97600000D02*
X41620000Y97600000D01*
X42100000Y97600000D02*
X43420000Y97600000D01*
X43900000Y97600000D02*
X45220000Y97600000D01*
X45700000Y97600000D02*
X47020000Y97600000D01*
X47500000Y97600000D02*
X48400000Y97600000D01*
X48400000Y97600000D02*
X48400000Y96280000D01*
X48400000Y95800000D02*
X48400000Y94480000D01*
X48400000Y94000000D02*
X48400000Y92680000D01*
X48400000Y92200000D02*
X48400000Y90880000D01*
X48400000Y90400000D02*
X48400000Y89080000D01*
X48400000Y88600000D02*
X48400000Y87280000D01*
X48400000Y86800000D02*
X48400000Y85480000D01*
X48400000Y85000000D02*
X48400000Y83680000D01*
X48400000Y83200000D02*
X48400000Y81880000D01*
X48400000Y81400000D02*
X48400000Y80080000D01*
X48400000Y79600000D02*
X48400000Y78280000D01*
X48400000Y77800000D02*
X48400000Y76480000D01*
X48400000Y76000000D02*
X48400000Y74680000D01*
X48400000Y74200000D02*
X48400000Y72880000D01*
X48400000Y72400000D02*
X48400000Y71080000D01*
X48400000Y70800000D02*
X47080000Y70800000D01*
X46600000Y70800000D02*
X45280000Y70800000D01*
X44800000Y70800000D02*
X43480000Y70800000D01*
X43000000Y70800000D02*
X41680000Y70800000D01*
X41200000Y70800000D02*
X39880000Y70800000D01*
X39400000Y70800000D02*
X38080000Y70800000D01*
X37600000Y70800000D02*
X36280000Y70800000D01*
X35800000Y70800000D02*
X34480000Y70800000D01*
X34000000Y70800000D02*
X32680000Y70800000D01*
X32200000Y70800000D02*
X30880000Y70800000D01*
X30400000Y70800000D02*
X29080000Y70800000D01*
X28600000Y70800000D02*
X27280000Y70800000D01*
X26800000Y70800000D02*
X25480000Y70800000D01*
X25000000Y70800000D02*
X23680000Y70800000D01*
X23200000Y70800000D02*
X21880000Y70800000D01*
X21400000Y70800000D02*
X20500000Y70800000D01*
X20500000Y70800000D02*
X20500000Y72120000D01*
X20500000Y72600000D02*
X20500000Y73920000D01*
X20500000Y74400000D02*
X20500000Y75720000D01*
X20500000Y76200000D02*
X20500000Y77520000D01*
X20500000Y78000000D02*
X20500000Y79320000D01*
X20500000Y79800000D02*
X20500000Y81120000D01*
X20500000Y81600000D02*
X20500000Y82920000D01*
X20500000Y83400000D02*
X20500000Y84720000D01*
X20500000Y85200000D02*
X20500000Y86520000D01*
X20500000Y87000000D02*
X20500000Y88320000D01*
X20500000Y88800000D02*
X20500000Y90120000D01*
X20500000Y90600000D02*
X20500000Y91920000D01*
X20500000Y92400000D02*
X20500000Y93720000D01*
X20500000Y94200000D02*
X20500000Y95520000D01*
X20500000Y96000000D02*
X20500000Y97320000D01*
D11*
X68631333Y12119050D02*
X68631333Y12880954D01*
X68250380Y12500002D02*
X69012285Y12500002D01*
X69349619Y52009526D02*
X68349619Y52009526D01*
X68349619Y52009526D02*
X69349619Y51438098D01*
X69349619Y51438098D02*
X68349619Y51438098D01*
X68349619Y50771431D02*
X68349619Y50580955D01*
X68349619Y50580955D02*
X68397238Y50485717D01*
X68397238Y50485717D02*
X68492476Y50390479D01*
X68492476Y50390479D02*
X68682952Y50342860D01*
X68682952Y50342860D02*
X69016285Y50342860D01*
X69016285Y50342860D02*
X69206761Y50390479D01*
X69206761Y50390479D02*
X69302000Y50485717D01*
X69302000Y50485717D02*
X69349619Y50580955D01*
X69349619Y50580955D02*
X69349619Y50771431D01*
X69349619Y50771431D02*
X69302000Y50866669D01*
X69302000Y50866669D02*
X69206761Y50961907D01*
X69206761Y50961907D02*
X69016285Y51009526D01*
X69016285Y51009526D02*
X68682952Y51009526D01*
X68682952Y51009526D02*
X68492476Y50961907D01*
X68492476Y50961907D02*
X68397238Y50866669D01*
X68397238Y50866669D02*
X68349619Y50771431D01*
D12*
X36871429Y57745181D02*
X37204762Y58221372D01*
X37442857Y57745181D02*
X37442857Y58745181D01*
X37442857Y58745181D02*
X37061905Y58745181D01*
X37061905Y58745181D02*
X36966667Y58697562D01*
X36966667Y58697562D02*
X36919048Y58649943D01*
X36919048Y58649943D02*
X36871429Y58554705D01*
X36871429Y58554705D02*
X36871429Y58411848D01*
X36871429Y58411848D02*
X36919048Y58316610D01*
X36919048Y58316610D02*
X36966667Y58268991D01*
X36966667Y58268991D02*
X37061905Y58221372D01*
X37061905Y58221372D02*
X37442857Y58221372D01*
X36061905Y57792800D02*
X36157143Y57745181D01*
X36157143Y57745181D02*
X36347619Y57745181D01*
X36347619Y57745181D02*
X36442857Y57792800D01*
X36442857Y57792800D02*
X36490476Y57888039D01*
X36490476Y57888039D02*
X36490476Y58268991D01*
X36490476Y58268991D02*
X36442857Y58364229D01*
X36442857Y58364229D02*
X36347619Y58411848D01*
X36347619Y58411848D02*
X36157143Y58411848D01*
X36157143Y58411848D02*
X36061905Y58364229D01*
X36061905Y58364229D02*
X36014286Y58268991D01*
X36014286Y58268991D02*
X36014286Y58173753D01*
X36014286Y58173753D02*
X36490476Y58078515D01*
X35442857Y57745181D02*
X35538095Y57792800D01*
X35538095Y57792800D02*
X35585714Y57888039D01*
X35585714Y57888039D02*
X35585714Y58745181D01*
X34633333Y57745181D02*
X34633333Y58268991D01*
X34633333Y58268991D02*
X34680952Y58364229D01*
X34680952Y58364229D02*
X34776190Y58411848D01*
X34776190Y58411848D02*
X34966666Y58411848D01*
X34966666Y58411848D02*
X35061904Y58364229D01*
X34633333Y57792800D02*
X34728571Y57745181D01*
X34728571Y57745181D02*
X34966666Y57745181D01*
X34966666Y57745181D02*
X35061904Y57792800D01*
X35061904Y57792800D02*
X35109523Y57888039D01*
X35109523Y57888039D02*
X35109523Y57983277D01*
X35109523Y57983277D02*
X35061904Y58078515D01*
X35061904Y58078515D02*
X34966666Y58126134D01*
X34966666Y58126134D02*
X34728571Y58126134D01*
X34728571Y58126134D02*
X34633333Y58173753D01*
X34252380Y58411848D02*
X34014285Y57745181D01*
X33776190Y58411848D02*
X34014285Y57745181D01*
X34014285Y57745181D02*
X34109523Y57507086D01*
X34109523Y57507086D02*
X34157142Y57459467D01*
X34157142Y57459467D02*
X34252380Y57411848D01*
X32680951Y58649943D02*
X32633332Y58697562D01*
X32633332Y58697562D02*
X32538094Y58745181D01*
X32538094Y58745181D02*
X32299999Y58745181D01*
X32299999Y58745181D02*
X32204761Y58697562D01*
X32204761Y58697562D02*
X32157142Y58649943D01*
X32157142Y58649943D02*
X32109523Y58554705D01*
X32109523Y58554705D02*
X32109523Y58459467D01*
X32109523Y58459467D02*
X32157142Y58316610D01*
X32157142Y58316610D02*
X32728570Y57745181D01*
X32728570Y57745181D02*
X32109523Y57745181D01*
D11*
X69349619Y46723810D02*
X68349619Y46723810D01*
X69349619Y46247620D02*
X68349619Y46247620D01*
X68349619Y46247620D02*
X69349619Y45676192D01*
X69349619Y45676192D02*
X68349619Y45676192D01*
D12*
X47028571Y31645181D02*
X46457143Y31645181D01*
X46742857Y30645181D02*
X46742857Y31645181D01*
X46123809Y30645181D02*
X46123809Y31645181D01*
X45695238Y30645181D02*
X45695238Y31168991D01*
X45695238Y31168991D02*
X45742857Y31264229D01*
X45742857Y31264229D02*
X45838095Y31311848D01*
X45838095Y31311848D02*
X45980952Y31311848D01*
X45980952Y31311848D02*
X46076190Y31264229D01*
X46076190Y31264229D02*
X46123809Y31216610D01*
X44838095Y30692800D02*
X44933333Y30645181D01*
X44933333Y30645181D02*
X45123809Y30645181D01*
X45123809Y30645181D02*
X45219047Y30692800D01*
X45219047Y30692800D02*
X45266666Y30788039D01*
X45266666Y30788039D02*
X45266666Y31168991D01*
X45266666Y31168991D02*
X45219047Y31264229D01*
X45219047Y31264229D02*
X45123809Y31311848D01*
X45123809Y31311848D02*
X44933333Y31311848D01*
X44933333Y31311848D02*
X44838095Y31264229D01*
X44838095Y31264229D02*
X44790476Y31168991D01*
X44790476Y31168991D02*
X44790476Y31073753D01*
X44790476Y31073753D02*
X45266666Y30978515D01*
X44361904Y30645181D02*
X44361904Y31311848D01*
X44361904Y31121372D02*
X44314285Y31216610D01*
X44314285Y31216610D02*
X44266666Y31264229D01*
X44266666Y31264229D02*
X44171428Y31311848D01*
X44171428Y31311848D02*
X44076190Y31311848D01*
X43742856Y30645181D02*
X43742856Y31311848D01*
X43742856Y31216610D02*
X43695237Y31264229D01*
X43695237Y31264229D02*
X43599999Y31311848D01*
X43599999Y31311848D02*
X43457142Y31311848D01*
X43457142Y31311848D02*
X43361904Y31264229D01*
X43361904Y31264229D02*
X43314285Y31168991D01*
X43314285Y31168991D02*
X43314285Y30645181D01*
X43314285Y31168991D02*
X43266666Y31264229D01*
X43266666Y31264229D02*
X43171428Y31311848D01*
X43171428Y31311848D02*
X43028571Y31311848D01*
X43028571Y31311848D02*
X42933332Y31264229D01*
X42933332Y31264229D02*
X42885713Y31168991D01*
X42885713Y31168991D02*
X42885713Y30645181D01*
X42266666Y30645181D02*
X42361904Y30692800D01*
X42361904Y30692800D02*
X42409523Y30740420D01*
X42409523Y30740420D02*
X42457142Y30835658D01*
X42457142Y30835658D02*
X42457142Y31121372D01*
X42457142Y31121372D02*
X42409523Y31216610D01*
X42409523Y31216610D02*
X42361904Y31264229D01*
X42361904Y31264229D02*
X42266666Y31311848D01*
X42266666Y31311848D02*
X42123809Y31311848D01*
X42123809Y31311848D02*
X42028571Y31264229D01*
X42028571Y31264229D02*
X41980952Y31216610D01*
X41980952Y31216610D02*
X41933333Y31121372D01*
X41933333Y31121372D02*
X41933333Y30835658D01*
X41933333Y30835658D02*
X41980952Y30740420D01*
X41980952Y30740420D02*
X42028571Y30692800D01*
X42028571Y30692800D02*
X42123809Y30645181D01*
X42123809Y30645181D02*
X42266666Y30645181D01*
X41076190Y30692800D02*
X41171428Y30645181D01*
X41171428Y30645181D02*
X41361904Y30645181D01*
X41361904Y30645181D02*
X41457142Y30692800D01*
X41457142Y30692800D02*
X41504761Y30740420D01*
X41504761Y30740420D02*
X41552380Y30835658D01*
X41552380Y30835658D02*
X41552380Y31121372D01*
X41552380Y31121372D02*
X41504761Y31216610D01*
X41504761Y31216610D02*
X41457142Y31264229D01*
X41457142Y31264229D02*
X41361904Y31311848D01*
X41361904Y31311848D02*
X41171428Y31311848D01*
X41171428Y31311848D02*
X41076190Y31264229D01*
X40504761Y30645181D02*
X40599999Y30692800D01*
X40599999Y30692800D02*
X40647618Y30740420D01*
X40647618Y30740420D02*
X40695237Y30835658D01*
X40695237Y30835658D02*
X40695237Y31121372D01*
X40695237Y31121372D02*
X40647618Y31216610D01*
X40647618Y31216610D02*
X40599999Y31264229D01*
X40599999Y31264229D02*
X40504761Y31311848D01*
X40504761Y31311848D02*
X40361904Y31311848D01*
X40361904Y31311848D02*
X40266666Y31264229D01*
X40266666Y31264229D02*
X40219047Y31216610D01*
X40219047Y31216610D02*
X40171428Y31121372D01*
X40171428Y31121372D02*
X40171428Y30835658D01*
X40171428Y30835658D02*
X40219047Y30740420D01*
X40219047Y30740420D02*
X40266666Y30692800D01*
X40266666Y30692800D02*
X40361904Y30645181D01*
X40361904Y30645181D02*
X40504761Y30645181D01*
X39314285Y31311848D02*
X39314285Y30645181D01*
X39742856Y31311848D02*
X39742856Y30788039D01*
X39742856Y30788039D02*
X39695237Y30692800D01*
X39695237Y30692800D02*
X39599999Y30645181D01*
X39599999Y30645181D02*
X39457142Y30645181D01*
X39457142Y30645181D02*
X39361904Y30692800D01*
X39361904Y30692800D02*
X39314285Y30740420D01*
X38838094Y31311848D02*
X38838094Y30311848D01*
X38838094Y31264229D02*
X38742856Y31311848D01*
X38742856Y31311848D02*
X38552380Y31311848D01*
X38552380Y31311848D02*
X38457142Y31264229D01*
X38457142Y31264229D02*
X38409523Y31216610D01*
X38409523Y31216610D02*
X38361904Y31121372D01*
X38361904Y31121372D02*
X38361904Y30835658D01*
X38361904Y30835658D02*
X38409523Y30740420D01*
X38409523Y30740420D02*
X38457142Y30692800D01*
X38457142Y30692800D02*
X38552380Y30645181D01*
X38552380Y30645181D02*
X38742856Y30645181D01*
X38742856Y30645181D02*
X38838094Y30692800D01*
X37790475Y30645181D02*
X37885713Y30692800D01*
X37885713Y30692800D02*
X37933332Y30788039D01*
X37933332Y30788039D02*
X37933332Y31645181D01*
X37028570Y30692800D02*
X37123808Y30645181D01*
X37123808Y30645181D02*
X37314284Y30645181D01*
X37314284Y30645181D02*
X37409522Y30692800D01*
X37409522Y30692800D02*
X37457141Y30788039D01*
X37457141Y30788039D02*
X37457141Y31168991D01*
X37457141Y31168991D02*
X37409522Y31264229D01*
X37409522Y31264229D02*
X37314284Y31311848D01*
X37314284Y31311848D02*
X37123808Y31311848D01*
X37123808Y31311848D02*
X37028570Y31264229D01*
X37028570Y31264229D02*
X36980951Y31168991D01*
X36980951Y31168991D02*
X36980951Y31073753D01*
X36980951Y31073753D02*
X37457141Y30978515D01*
X35266665Y30645181D02*
X35838093Y30645181D01*
X35552379Y30645181D02*
X35552379Y31645181D01*
X35552379Y31645181D02*
X35647617Y31502324D01*
X35647617Y31502324D02*
X35742855Y31407086D01*
X35742855Y31407086D02*
X35838093Y31359467D01*
D11*
X68297238Y71961905D02*
X68249619Y72057143D01*
X68249619Y72057143D02*
X68249619Y72200000D01*
X68249619Y72200000D02*
X68297238Y72342857D01*
X68297238Y72342857D02*
X68392476Y72438095D01*
X68392476Y72438095D02*
X68487714Y72485714D01*
X68487714Y72485714D02*
X68678190Y72533333D01*
X68678190Y72533333D02*
X68821047Y72533333D01*
X68821047Y72533333D02*
X69011523Y72485714D01*
X69011523Y72485714D02*
X69106761Y72438095D01*
X69106761Y72438095D02*
X69202000Y72342857D01*
X69202000Y72342857D02*
X69249619Y72200000D01*
X69249619Y72200000D02*
X69249619Y72104762D01*
X69249619Y72104762D02*
X69202000Y71961905D01*
X69202000Y71961905D02*
X69154380Y71914286D01*
X69154380Y71914286D02*
X68821047Y71914286D01*
X68821047Y71914286D02*
X68821047Y72104762D01*
X69249619Y71485714D02*
X68249619Y71485714D01*
X68249619Y71485714D02*
X69249619Y70914286D01*
X69249619Y70914286D02*
X68249619Y70914286D01*
X69249619Y70438095D02*
X68249619Y70438095D01*
X68249619Y70438095D02*
X68249619Y70200000D01*
X68249619Y70200000D02*
X68297238Y70057143D01*
X68297238Y70057143D02*
X68392476Y69961905D01*
X68392476Y69961905D02*
X68487714Y69914286D01*
X68487714Y69914286D02*
X68678190Y69866667D01*
X68678190Y69866667D02*
X68821047Y69866667D01*
X68821047Y69866667D02*
X69011523Y69914286D01*
X69011523Y69914286D02*
X69106761Y69961905D01*
X69106761Y69961905D02*
X69202000Y70057143D01*
X69202000Y70057143D02*
X69249619Y70200000D01*
X69249619Y70200000D02*
X69249619Y70438095D01*
D12*
X36871429Y82945181D02*
X37204762Y83421372D01*
X37442857Y82945181D02*
X37442857Y83945181D01*
X37442857Y83945181D02*
X37061905Y83945181D01*
X37061905Y83945181D02*
X36966667Y83897562D01*
X36966667Y83897562D02*
X36919048Y83849943D01*
X36919048Y83849943D02*
X36871429Y83754705D01*
X36871429Y83754705D02*
X36871429Y83611848D01*
X36871429Y83611848D02*
X36919048Y83516610D01*
X36919048Y83516610D02*
X36966667Y83468991D01*
X36966667Y83468991D02*
X37061905Y83421372D01*
X37061905Y83421372D02*
X37442857Y83421372D01*
X36061905Y82992800D02*
X36157143Y82945181D01*
X36157143Y82945181D02*
X36347619Y82945181D01*
X36347619Y82945181D02*
X36442857Y82992800D01*
X36442857Y82992800D02*
X36490476Y83088039D01*
X36490476Y83088039D02*
X36490476Y83468991D01*
X36490476Y83468991D02*
X36442857Y83564229D01*
X36442857Y83564229D02*
X36347619Y83611848D01*
X36347619Y83611848D02*
X36157143Y83611848D01*
X36157143Y83611848D02*
X36061905Y83564229D01*
X36061905Y83564229D02*
X36014286Y83468991D01*
X36014286Y83468991D02*
X36014286Y83373753D01*
X36014286Y83373753D02*
X36490476Y83278515D01*
X35442857Y82945181D02*
X35538095Y82992800D01*
X35538095Y82992800D02*
X35585714Y83088039D01*
X35585714Y83088039D02*
X35585714Y83945181D01*
X34633333Y82945181D02*
X34633333Y83468991D01*
X34633333Y83468991D02*
X34680952Y83564229D01*
X34680952Y83564229D02*
X34776190Y83611848D01*
X34776190Y83611848D02*
X34966666Y83611848D01*
X34966666Y83611848D02*
X35061904Y83564229D01*
X34633333Y82992800D02*
X34728571Y82945181D01*
X34728571Y82945181D02*
X34966666Y82945181D01*
X34966666Y82945181D02*
X35061904Y82992800D01*
X35061904Y82992800D02*
X35109523Y83088039D01*
X35109523Y83088039D02*
X35109523Y83183277D01*
X35109523Y83183277D02*
X35061904Y83278515D01*
X35061904Y83278515D02*
X34966666Y83326134D01*
X34966666Y83326134D02*
X34728571Y83326134D01*
X34728571Y83326134D02*
X34633333Y83373753D01*
X34252380Y83611848D02*
X34014285Y82945181D01*
X33776190Y83611848D02*
X34014285Y82945181D01*
X34014285Y82945181D02*
X34109523Y82707086D01*
X34109523Y82707086D02*
X34157142Y82659467D01*
X34157142Y82659467D02*
X34252380Y82611848D01*
X32109523Y82945181D02*
X32680951Y82945181D01*
X32395237Y82945181D02*
X32395237Y83945181D01*
X32395237Y83945181D02*
X32490475Y83802324D01*
X32490475Y83802324D02*
X32585713Y83707086D01*
X32585713Y83707086D02*
X32680951Y83659467D01*
D11*
X68631333Y19119049D02*
X68631333Y19880953D01*
X68250380Y19500001D02*
X69012285Y19500001D01*
D12*
X22176666Y10740181D02*
X22652856Y10740181D01*
X22652856Y10740181D02*
X22700475Y10263991D01*
X22700475Y10263991D02*
X22652856Y10311610D01*
X22652856Y10311610D02*
X22557618Y10359229D01*
X22557618Y10359229D02*
X22319523Y10359229D01*
X22319523Y10359229D02*
X22224285Y10311610D01*
X22224285Y10311610D02*
X22176666Y10263991D01*
X22176666Y10263991D02*
X22129047Y10168753D01*
X22129047Y10168753D02*
X22129047Y9930658D01*
X22129047Y9930658D02*
X22176666Y9835420D01*
X22176666Y9835420D02*
X22224285Y9787800D01*
X22224285Y9787800D02*
X22319523Y9740181D01*
X22319523Y9740181D02*
X22557618Y9740181D01*
X22557618Y9740181D02*
X22652856Y9787800D01*
X22652856Y9787800D02*
X22700475Y9835420D01*
X21843332Y10740181D02*
X21509999Y9740181D01*
X21509999Y9740181D02*
X21176666Y10740181D01*
X20081427Y9740181D02*
X20081427Y10740181D01*
X19652856Y10644943D02*
X19605237Y10692562D01*
X19605237Y10692562D02*
X19509999Y10740181D01*
X19509999Y10740181D02*
X19271904Y10740181D01*
X19271904Y10740181D02*
X19176666Y10692562D01*
X19176666Y10692562D02*
X19129047Y10644943D01*
X19129047Y10644943D02*
X19081428Y10549705D01*
X19081428Y10549705D02*
X19081428Y10454467D01*
X19081428Y10454467D02*
X19129047Y10311610D01*
X19129047Y10311610D02*
X19700475Y9740181D01*
X19700475Y9740181D02*
X19081428Y9740181D01*
X18081428Y9835420D02*
X18129047Y9787800D01*
X18129047Y9787800D02*
X18271904Y9740181D01*
X18271904Y9740181D02*
X18367142Y9740181D01*
X18367142Y9740181D02*
X18509999Y9787800D01*
X18509999Y9787800D02*
X18605237Y9883039D01*
X18605237Y9883039D02*
X18652856Y9978277D01*
X18652856Y9978277D02*
X18700475Y10168753D01*
X18700475Y10168753D02*
X18700475Y10311610D01*
X18700475Y10311610D02*
X18652856Y10502086D01*
X18652856Y10502086D02*
X18605237Y10597324D01*
X18605237Y10597324D02*
X18509999Y10692562D01*
X18509999Y10692562D02*
X18367142Y10740181D01*
X18367142Y10740181D02*
X18271904Y10740181D01*
X18271904Y10740181D02*
X18129047Y10692562D01*
X18129047Y10692562D02*
X18081428Y10644943D01*
X22962381Y8225420D02*
X23010000Y8177800D01*
X23010000Y8177800D02*
X23152857Y8130181D01*
X23152857Y8130181D02*
X23248095Y8130181D01*
X23248095Y8130181D02*
X23390952Y8177800D01*
X23390952Y8177800D02*
X23486190Y8273039D01*
X23486190Y8273039D02*
X23533809Y8368277D01*
X23533809Y8368277D02*
X23581428Y8558753D01*
X23581428Y8558753D02*
X23581428Y8701610D01*
X23581428Y8701610D02*
X23533809Y8892086D01*
X23533809Y8892086D02*
X23486190Y8987324D01*
X23486190Y8987324D02*
X23390952Y9082562D01*
X23390952Y9082562D02*
X23248095Y9130181D01*
X23248095Y9130181D02*
X23152857Y9130181D01*
X23152857Y9130181D02*
X23010000Y9082562D01*
X23010000Y9082562D02*
X22962381Y9034943D01*
X22390952Y8130181D02*
X22486190Y8177800D01*
X22486190Y8177800D02*
X22533809Y8225420D01*
X22533809Y8225420D02*
X22581428Y8320658D01*
X22581428Y8320658D02*
X22581428Y8606372D01*
X22581428Y8606372D02*
X22533809Y8701610D01*
X22533809Y8701610D02*
X22486190Y8749229D01*
X22486190Y8749229D02*
X22390952Y8796848D01*
X22390952Y8796848D02*
X22248095Y8796848D01*
X22248095Y8796848D02*
X22152857Y8749229D01*
X22152857Y8749229D02*
X22105238Y8701610D01*
X22105238Y8701610D02*
X22057619Y8606372D01*
X22057619Y8606372D02*
X22057619Y8320658D01*
X22057619Y8320658D02*
X22105238Y8225420D01*
X22105238Y8225420D02*
X22152857Y8177800D01*
X22152857Y8177800D02*
X22248095Y8130181D01*
X22248095Y8130181D02*
X22390952Y8130181D01*
X21629047Y8796848D02*
X21629047Y8130181D01*
X21629047Y8701610D02*
X21581428Y8749229D01*
X21581428Y8749229D02*
X21486190Y8796848D01*
X21486190Y8796848D02*
X21343333Y8796848D01*
X21343333Y8796848D02*
X21248095Y8749229D01*
X21248095Y8749229D02*
X21200476Y8653991D01*
X21200476Y8653991D02*
X21200476Y8130181D01*
X20724285Y8796848D02*
X20724285Y8130181D01*
X20724285Y8701610D02*
X20676666Y8749229D01*
X20676666Y8749229D02*
X20581428Y8796848D01*
X20581428Y8796848D02*
X20438571Y8796848D01*
X20438571Y8796848D02*
X20343333Y8749229D01*
X20343333Y8749229D02*
X20295714Y8653991D01*
X20295714Y8653991D02*
X20295714Y8130181D01*
X19438571Y8177800D02*
X19533809Y8130181D01*
X19533809Y8130181D02*
X19724285Y8130181D01*
X19724285Y8130181D02*
X19819523Y8177800D01*
X19819523Y8177800D02*
X19867142Y8273039D01*
X19867142Y8273039D02*
X19867142Y8653991D01*
X19867142Y8653991D02*
X19819523Y8749229D01*
X19819523Y8749229D02*
X19724285Y8796848D01*
X19724285Y8796848D02*
X19533809Y8796848D01*
X19533809Y8796848D02*
X19438571Y8749229D01*
X19438571Y8749229D02*
X19390952Y8653991D01*
X19390952Y8653991D02*
X19390952Y8558753D01*
X19390952Y8558753D02*
X19867142Y8463515D01*
X18533809Y8177800D02*
X18629047Y8130181D01*
X18629047Y8130181D02*
X18819523Y8130181D01*
X18819523Y8130181D02*
X18914761Y8177800D01*
X18914761Y8177800D02*
X18962380Y8225420D01*
X18962380Y8225420D02*
X19009999Y8320658D01*
X19009999Y8320658D02*
X19009999Y8606372D01*
X19009999Y8606372D02*
X18962380Y8701610D01*
X18962380Y8701610D02*
X18914761Y8749229D01*
X18914761Y8749229D02*
X18819523Y8796848D01*
X18819523Y8796848D02*
X18629047Y8796848D01*
X18629047Y8796848D02*
X18533809Y8749229D01*
X18248094Y8796848D02*
X17867142Y8796848D01*
X18105237Y9130181D02*
X18105237Y8273039D01*
X18105237Y8273039D02*
X18057618Y8177800D01*
X18057618Y8177800D02*
X17962380Y8130181D01*
X17962380Y8130181D02*
X17867142Y8130181D01*
X17390951Y8130181D02*
X17486189Y8177800D01*
X17486189Y8177800D02*
X17533808Y8225420D01*
X17533808Y8225420D02*
X17581427Y8320658D01*
X17581427Y8320658D02*
X17581427Y8606372D01*
X17581427Y8606372D02*
X17533808Y8701610D01*
X17533808Y8701610D02*
X17486189Y8749229D01*
X17486189Y8749229D02*
X17390951Y8796848D01*
X17390951Y8796848D02*
X17248094Y8796848D01*
X17248094Y8796848D02*
X17152856Y8749229D01*
X17152856Y8749229D02*
X17105237Y8701610D01*
X17105237Y8701610D02*
X17057618Y8606372D01*
X17057618Y8606372D02*
X17057618Y8320658D01*
X17057618Y8320658D02*
X17105237Y8225420D01*
X17105237Y8225420D02*
X17152856Y8177800D01*
X17152856Y8177800D02*
X17248094Y8130181D01*
X17248094Y8130181D02*
X17390951Y8130181D01*
X16629046Y8130181D02*
X16629046Y8796848D01*
X16629046Y8606372D02*
X16581427Y8701610D01*
X16581427Y8701610D02*
X16533808Y8749229D01*
X16533808Y8749229D02*
X16438570Y8796848D01*
X16438570Y8796848D02*
X16343332Y8796848D01*
X47028571Y12545181D02*
X46457143Y12545181D01*
X46742857Y11545181D02*
X46742857Y12545181D01*
X46123809Y11545181D02*
X46123809Y12545181D01*
X45695238Y11545181D02*
X45695238Y12068991D01*
X45695238Y12068991D02*
X45742857Y12164229D01*
X45742857Y12164229D02*
X45838095Y12211848D01*
X45838095Y12211848D02*
X45980952Y12211848D01*
X45980952Y12211848D02*
X46076190Y12164229D01*
X46076190Y12164229D02*
X46123809Y12116610D01*
X44838095Y11592800D02*
X44933333Y11545181D01*
X44933333Y11545181D02*
X45123809Y11545181D01*
X45123809Y11545181D02*
X45219047Y11592800D01*
X45219047Y11592800D02*
X45266666Y11688039D01*
X45266666Y11688039D02*
X45266666Y12068991D01*
X45266666Y12068991D02*
X45219047Y12164229D01*
X45219047Y12164229D02*
X45123809Y12211848D01*
X45123809Y12211848D02*
X44933333Y12211848D01*
X44933333Y12211848D02*
X44838095Y12164229D01*
X44838095Y12164229D02*
X44790476Y12068991D01*
X44790476Y12068991D02*
X44790476Y11973753D01*
X44790476Y11973753D02*
X45266666Y11878515D01*
X44361904Y11545181D02*
X44361904Y12211848D01*
X44361904Y12021372D02*
X44314285Y12116610D01*
X44314285Y12116610D02*
X44266666Y12164229D01*
X44266666Y12164229D02*
X44171428Y12211848D01*
X44171428Y12211848D02*
X44076190Y12211848D01*
X43742856Y11545181D02*
X43742856Y12211848D01*
X43742856Y12116610D02*
X43695237Y12164229D01*
X43695237Y12164229D02*
X43599999Y12211848D01*
X43599999Y12211848D02*
X43457142Y12211848D01*
X43457142Y12211848D02*
X43361904Y12164229D01*
X43361904Y12164229D02*
X43314285Y12068991D01*
X43314285Y12068991D02*
X43314285Y11545181D01*
X43314285Y12068991D02*
X43266666Y12164229D01*
X43266666Y12164229D02*
X43171428Y12211848D01*
X43171428Y12211848D02*
X43028571Y12211848D01*
X43028571Y12211848D02*
X42933332Y12164229D01*
X42933332Y12164229D02*
X42885713Y12068991D01*
X42885713Y12068991D02*
X42885713Y11545181D01*
X42266666Y11545181D02*
X42361904Y11592800D01*
X42361904Y11592800D02*
X42409523Y11640420D01*
X42409523Y11640420D02*
X42457142Y11735658D01*
X42457142Y11735658D02*
X42457142Y12021372D01*
X42457142Y12021372D02*
X42409523Y12116610D01*
X42409523Y12116610D02*
X42361904Y12164229D01*
X42361904Y12164229D02*
X42266666Y12211848D01*
X42266666Y12211848D02*
X42123809Y12211848D01*
X42123809Y12211848D02*
X42028571Y12164229D01*
X42028571Y12164229D02*
X41980952Y12116610D01*
X41980952Y12116610D02*
X41933333Y12021372D01*
X41933333Y12021372D02*
X41933333Y11735658D01*
X41933333Y11735658D02*
X41980952Y11640420D01*
X41980952Y11640420D02*
X42028571Y11592800D01*
X42028571Y11592800D02*
X42123809Y11545181D01*
X42123809Y11545181D02*
X42266666Y11545181D01*
X41076190Y11592800D02*
X41171428Y11545181D01*
X41171428Y11545181D02*
X41361904Y11545181D01*
X41361904Y11545181D02*
X41457142Y11592800D01*
X41457142Y11592800D02*
X41504761Y11640420D01*
X41504761Y11640420D02*
X41552380Y11735658D01*
X41552380Y11735658D02*
X41552380Y12021372D01*
X41552380Y12021372D02*
X41504761Y12116610D01*
X41504761Y12116610D02*
X41457142Y12164229D01*
X41457142Y12164229D02*
X41361904Y12211848D01*
X41361904Y12211848D02*
X41171428Y12211848D01*
X41171428Y12211848D02*
X41076190Y12164229D01*
X40504761Y11545181D02*
X40599999Y11592800D01*
X40599999Y11592800D02*
X40647618Y11640420D01*
X40647618Y11640420D02*
X40695237Y11735658D01*
X40695237Y11735658D02*
X40695237Y12021372D01*
X40695237Y12021372D02*
X40647618Y12116610D01*
X40647618Y12116610D02*
X40599999Y12164229D01*
X40599999Y12164229D02*
X40504761Y12211848D01*
X40504761Y12211848D02*
X40361904Y12211848D01*
X40361904Y12211848D02*
X40266666Y12164229D01*
X40266666Y12164229D02*
X40219047Y12116610D01*
X40219047Y12116610D02*
X40171428Y12021372D01*
X40171428Y12021372D02*
X40171428Y11735658D01*
X40171428Y11735658D02*
X40219047Y11640420D01*
X40219047Y11640420D02*
X40266666Y11592800D01*
X40266666Y11592800D02*
X40361904Y11545181D01*
X40361904Y11545181D02*
X40504761Y11545181D01*
X39314285Y12211848D02*
X39314285Y11545181D01*
X39742856Y12211848D02*
X39742856Y11688039D01*
X39742856Y11688039D02*
X39695237Y11592800D01*
X39695237Y11592800D02*
X39599999Y11545181D01*
X39599999Y11545181D02*
X39457142Y11545181D01*
X39457142Y11545181D02*
X39361904Y11592800D01*
X39361904Y11592800D02*
X39314285Y11640420D01*
X38838094Y12211848D02*
X38838094Y11211848D01*
X38838094Y12164229D02*
X38742856Y12211848D01*
X38742856Y12211848D02*
X38552380Y12211848D01*
X38552380Y12211848D02*
X38457142Y12164229D01*
X38457142Y12164229D02*
X38409523Y12116610D01*
X38409523Y12116610D02*
X38361904Y12021372D01*
X38361904Y12021372D02*
X38361904Y11735658D01*
X38361904Y11735658D02*
X38409523Y11640420D01*
X38409523Y11640420D02*
X38457142Y11592800D01*
X38457142Y11592800D02*
X38552380Y11545181D01*
X38552380Y11545181D02*
X38742856Y11545181D01*
X38742856Y11545181D02*
X38838094Y11592800D01*
X37790475Y11545181D02*
X37885713Y11592800D01*
X37885713Y11592800D02*
X37933332Y11688039D01*
X37933332Y11688039D02*
X37933332Y12545181D01*
X37028570Y11592800D02*
X37123808Y11545181D01*
X37123808Y11545181D02*
X37314284Y11545181D01*
X37314284Y11545181D02*
X37409522Y11592800D01*
X37409522Y11592800D02*
X37457141Y11688039D01*
X37457141Y11688039D02*
X37457141Y12068991D01*
X37457141Y12068991D02*
X37409522Y12164229D01*
X37409522Y12164229D02*
X37314284Y12211848D01*
X37314284Y12211848D02*
X37123808Y12211848D01*
X37123808Y12211848D02*
X37028570Y12164229D01*
X37028570Y12164229D02*
X36980951Y12068991D01*
X36980951Y12068991D02*
X36980951Y11973753D01*
X36980951Y11973753D02*
X37457141Y11878515D01*
X35838093Y12449943D02*
X35790474Y12497562D01*
X35790474Y12497562D02*
X35695236Y12545181D01*
X35695236Y12545181D02*
X35457141Y12545181D01*
X35457141Y12545181D02*
X35361903Y12497562D01*
X35361903Y12497562D02*
X35314284Y12449943D01*
X35314284Y12449943D02*
X35266665Y12354705D01*
X35266665Y12354705D02*
X35266665Y12259467D01*
X35266665Y12259467D02*
X35314284Y12116610D01*
X35314284Y12116610D02*
X35885712Y11545181D01*
X35885712Y11545181D02*
X35266665Y11545181D01*
D11*
X68925809Y36176191D02*
X68925809Y35842858D01*
X69449619Y35700001D02*
X69449619Y36176191D01*
X69449619Y36176191D02*
X68449619Y36176191D01*
X68449619Y36176191D02*
X68449619Y35700001D01*
X69402000Y34557143D02*
X69449619Y34414286D01*
X69449619Y34414286D02*
X69449619Y34176191D01*
X69449619Y34176191D02*
X69402000Y34080953D01*
X69402000Y34080953D02*
X69354380Y34033334D01*
X69354380Y34033334D02*
X69259142Y33985715D01*
X69259142Y33985715D02*
X69163904Y33985715D01*
X69163904Y33985715D02*
X69068666Y34033334D01*
X69068666Y34033334D02*
X69021047Y34080953D01*
X69021047Y34080953D02*
X68973428Y34176191D01*
X68973428Y34176191D02*
X68925809Y34366667D01*
X68925809Y34366667D02*
X68878190Y34461905D01*
X68878190Y34461905D02*
X68830571Y34509524D01*
X68830571Y34509524D02*
X68735333Y34557143D01*
X68735333Y34557143D02*
X68640095Y34557143D01*
X68640095Y34557143D02*
X68544857Y34509524D01*
X68544857Y34509524D02*
X68497238Y34461905D01*
X68497238Y34461905D02*
X68449619Y34366667D01*
X68449619Y34366667D02*
X68449619Y34128572D01*
X68449619Y34128572D02*
X68497238Y33985715D01*
X68449619Y33700000D02*
X68449619Y33128572D01*
X69449619Y33414286D02*
X68449619Y33414286D01*
X68449619Y32604762D02*
X68449619Y32414286D01*
X68449619Y32414286D02*
X68497238Y32319048D01*
X68497238Y32319048D02*
X68592476Y32223810D01*
X68592476Y32223810D02*
X68782952Y32176191D01*
X68782952Y32176191D02*
X69116285Y32176191D01*
X69116285Y32176191D02*
X69306761Y32223810D01*
X69306761Y32223810D02*
X69402000Y32319048D01*
X69402000Y32319048D02*
X69449619Y32414286D01*
X69449619Y32414286D02*
X69449619Y32604762D01*
X69449619Y32604762D02*
X69402000Y32700000D01*
X69402000Y32700000D02*
X69306761Y32795238D01*
X69306761Y32795238D02*
X69116285Y32842857D01*
X69116285Y32842857D02*
X68782952Y32842857D01*
X68782952Y32842857D02*
X68592476Y32795238D01*
X68592476Y32795238D02*
X68497238Y32700000D01*
X68497238Y32700000D02*
X68449619Y32604762D01*
X69449619Y31747619D02*
X68449619Y31747619D01*
X68449619Y31747619D02*
X68449619Y31366667D01*
X68449619Y31366667D02*
X68497238Y31271429D01*
X68497238Y31271429D02*
X68544857Y31223810D01*
X68544857Y31223810D02*
X68640095Y31176191D01*
X68640095Y31176191D02*
X68782952Y31176191D01*
X68782952Y31176191D02*
X68878190Y31223810D01*
X68878190Y31223810D02*
X68925809Y31271429D01*
X68925809Y31271429D02*
X68973428Y31366667D01*
X68973428Y31366667D02*
X68973428Y31747619D01*
X69249619Y86985714D02*
X68249619Y86985714D01*
X68249619Y86985714D02*
X69249619Y86414286D01*
X69249619Y86414286D02*
X68249619Y86414286D01*
X69154380Y85366667D02*
X69202000Y85414286D01*
X69202000Y85414286D02*
X69249619Y85557143D01*
X69249619Y85557143D02*
X69249619Y85652381D01*
X69249619Y85652381D02*
X69202000Y85795238D01*
X69202000Y85795238D02*
X69106761Y85890476D01*
X69106761Y85890476D02*
X69011523Y85938095D01*
X69011523Y85938095D02*
X68821047Y85985714D01*
X68821047Y85985714D02*
X68678190Y85985714D01*
X68678190Y85985714D02*
X68487714Y85938095D01*
X68487714Y85938095D02*
X68392476Y85890476D01*
X68392476Y85890476D02*
X68297238Y85795238D01*
X68297238Y85795238D02*
X68249619Y85652381D01*
X68249619Y85652381D02*
X68249619Y85557143D01*
X68249619Y85557143D02*
X68297238Y85414286D01*
X68297238Y85414286D02*
X68344857Y85366667D01*
D12*
X15961904Y85640181D02*
X16533332Y85640181D01*
X16247618Y85640181D02*
X16247618Y86640181D01*
X16247618Y86640181D02*
X16342856Y86497324D01*
X16342856Y86497324D02*
X16438094Y86402086D01*
X16438094Y86402086D02*
X16533332Y86354467D01*
X15580951Y86544943D02*
X15533332Y86592562D01*
X15533332Y86592562D02*
X15438094Y86640181D01*
X15438094Y86640181D02*
X15199999Y86640181D01*
X15199999Y86640181D02*
X15104761Y86592562D01*
X15104761Y86592562D02*
X15057142Y86544943D01*
X15057142Y86544943D02*
X15009523Y86449705D01*
X15009523Y86449705D02*
X15009523Y86354467D01*
X15009523Y86354467D02*
X15057142Y86211610D01*
X15057142Y86211610D02*
X15628570Y85640181D01*
X15628570Y85640181D02*
X15009523Y85640181D01*
X14723808Y86640181D02*
X14390475Y85640181D01*
X14390475Y85640181D02*
X14057142Y86640181D01*
X13723808Y86021134D02*
X12961904Y86021134D01*
X12485713Y86306848D02*
X11723809Y86021134D01*
X11723809Y86021134D02*
X12485713Y85735420D01*
X10771428Y86640181D02*
X11247618Y86640181D01*
X11247618Y86640181D02*
X11295237Y86163991D01*
X11295237Y86163991D02*
X11247618Y86211610D01*
X11247618Y86211610D02*
X11152380Y86259229D01*
X11152380Y86259229D02*
X10914285Y86259229D01*
X10914285Y86259229D02*
X10819047Y86211610D01*
X10819047Y86211610D02*
X10771428Y86163991D01*
X10771428Y86163991D02*
X10723809Y86068753D01*
X10723809Y86068753D02*
X10723809Y85830658D01*
X10723809Y85830658D02*
X10771428Y85735420D01*
X10771428Y85735420D02*
X10819047Y85687800D01*
X10819047Y85687800D02*
X10914285Y85640181D01*
X10914285Y85640181D02*
X11152380Y85640181D01*
X11152380Y85640181D02*
X11247618Y85687800D01*
X11247618Y85687800D02*
X11295237Y85735420D01*
X10438094Y86640181D02*
X10104761Y85640181D01*
X10104761Y85640181D02*
X9771428Y86640181D01*
X15985715Y84030181D02*
X16319048Y84506372D01*
X16557143Y84030181D02*
X16557143Y85030181D01*
X16557143Y85030181D02*
X16176191Y85030181D01*
X16176191Y85030181D02*
X16080953Y84982562D01*
X16080953Y84982562D02*
X16033334Y84934943D01*
X16033334Y84934943D02*
X15985715Y84839705D01*
X15985715Y84839705D02*
X15985715Y84696848D01*
X15985715Y84696848D02*
X16033334Y84601610D01*
X16033334Y84601610D02*
X16080953Y84553991D01*
X16080953Y84553991D02*
X16176191Y84506372D01*
X16176191Y84506372D02*
X16557143Y84506372D01*
X15176191Y84077800D02*
X15271429Y84030181D01*
X15271429Y84030181D02*
X15461905Y84030181D01*
X15461905Y84030181D02*
X15557143Y84077800D01*
X15557143Y84077800D02*
X15604762Y84173039D01*
X15604762Y84173039D02*
X15604762Y84553991D01*
X15604762Y84553991D02*
X15557143Y84649229D01*
X15557143Y84649229D02*
X15461905Y84696848D01*
X15461905Y84696848D02*
X15271429Y84696848D01*
X15271429Y84696848D02*
X15176191Y84649229D01*
X15176191Y84649229D02*
X15128572Y84553991D01*
X15128572Y84553991D02*
X15128572Y84458753D01*
X15128572Y84458753D02*
X15604762Y84363515D01*
X14271429Y84696848D02*
X14271429Y83887324D01*
X14271429Y83887324D02*
X14319048Y83792086D01*
X14319048Y83792086D02*
X14366667Y83744467D01*
X14366667Y83744467D02*
X14461905Y83696848D01*
X14461905Y83696848D02*
X14604762Y83696848D01*
X14604762Y83696848D02*
X14700000Y83744467D01*
X14271429Y84077800D02*
X14366667Y84030181D01*
X14366667Y84030181D02*
X14557143Y84030181D01*
X14557143Y84030181D02*
X14652381Y84077800D01*
X14652381Y84077800D02*
X14700000Y84125420D01*
X14700000Y84125420D02*
X14747619Y84220658D01*
X14747619Y84220658D02*
X14747619Y84506372D01*
X14747619Y84506372D02*
X14700000Y84601610D01*
X14700000Y84601610D02*
X14652381Y84649229D01*
X14652381Y84649229D02*
X14557143Y84696848D01*
X14557143Y84696848D02*
X14366667Y84696848D01*
X14366667Y84696848D02*
X14271429Y84649229D01*
X13366667Y84696848D02*
X13366667Y84030181D01*
X13795238Y84696848D02*
X13795238Y84173039D01*
X13795238Y84173039D02*
X13747619Y84077800D01*
X13747619Y84077800D02*
X13652381Y84030181D01*
X13652381Y84030181D02*
X13509524Y84030181D01*
X13509524Y84030181D02*
X13414286Y84077800D01*
X13414286Y84077800D02*
X13366667Y84125420D01*
X12747619Y84030181D02*
X12842857Y84077800D01*
X12842857Y84077800D02*
X12890476Y84173039D01*
X12890476Y84173039D02*
X12890476Y85030181D01*
X11938095Y84030181D02*
X11938095Y84553991D01*
X11938095Y84553991D02*
X11985714Y84649229D01*
X11985714Y84649229D02*
X12080952Y84696848D01*
X12080952Y84696848D02*
X12271428Y84696848D01*
X12271428Y84696848D02*
X12366666Y84649229D01*
X11938095Y84077800D02*
X12033333Y84030181D01*
X12033333Y84030181D02*
X12271428Y84030181D01*
X12271428Y84030181D02*
X12366666Y84077800D01*
X12366666Y84077800D02*
X12414285Y84173039D01*
X12414285Y84173039D02*
X12414285Y84268277D01*
X12414285Y84268277D02*
X12366666Y84363515D01*
X12366666Y84363515D02*
X12271428Y84411134D01*
X12271428Y84411134D02*
X12033333Y84411134D01*
X12033333Y84411134D02*
X11938095Y84458753D01*
X11604761Y84696848D02*
X11223809Y84696848D01*
X11461904Y85030181D02*
X11461904Y84173039D01*
X11461904Y84173039D02*
X11414285Y84077800D01*
X11414285Y84077800D02*
X11319047Y84030181D01*
X11319047Y84030181D02*
X11223809Y84030181D01*
X10747618Y84030181D02*
X10842856Y84077800D01*
X10842856Y84077800D02*
X10890475Y84125420D01*
X10890475Y84125420D02*
X10938094Y84220658D01*
X10938094Y84220658D02*
X10938094Y84506372D01*
X10938094Y84506372D02*
X10890475Y84601610D01*
X10890475Y84601610D02*
X10842856Y84649229D01*
X10842856Y84649229D02*
X10747618Y84696848D01*
X10747618Y84696848D02*
X10604761Y84696848D01*
X10604761Y84696848D02*
X10509523Y84649229D01*
X10509523Y84649229D02*
X10461904Y84601610D01*
X10461904Y84601610D02*
X10414285Y84506372D01*
X10414285Y84506372D02*
X10414285Y84220658D01*
X10414285Y84220658D02*
X10461904Y84125420D01*
X10461904Y84125420D02*
X10509523Y84077800D01*
X10509523Y84077800D02*
X10604761Y84030181D01*
X10604761Y84030181D02*
X10747618Y84030181D01*
X9985713Y84030181D02*
X9985713Y84696848D01*
X9985713Y84506372D02*
X9938094Y84601610D01*
X9938094Y84601610D02*
X9890475Y84649229D01*
X9890475Y84649229D02*
X9795237Y84696848D01*
X9795237Y84696848D02*
X9699999Y84696848D01*
D11*
X68825809Y66276191D02*
X68825809Y65942858D01*
X69349619Y65800001D02*
X69349619Y66276191D01*
X69349619Y66276191D02*
X68349619Y66276191D01*
X68349619Y66276191D02*
X68349619Y65800001D01*
X69302000Y64657143D02*
X69349619Y64514286D01*
X69349619Y64514286D02*
X69349619Y64276191D01*
X69349619Y64276191D02*
X69302000Y64180953D01*
X69302000Y64180953D02*
X69254380Y64133334D01*
X69254380Y64133334D02*
X69159142Y64085715D01*
X69159142Y64085715D02*
X69063904Y64085715D01*
X69063904Y64085715D02*
X68968666Y64133334D01*
X68968666Y64133334D02*
X68921047Y64180953D01*
X68921047Y64180953D02*
X68873428Y64276191D01*
X68873428Y64276191D02*
X68825809Y64466667D01*
X68825809Y64466667D02*
X68778190Y64561905D01*
X68778190Y64561905D02*
X68730571Y64609524D01*
X68730571Y64609524D02*
X68635333Y64657143D01*
X68635333Y64657143D02*
X68540095Y64657143D01*
X68540095Y64657143D02*
X68444857Y64609524D01*
X68444857Y64609524D02*
X68397238Y64561905D01*
X68397238Y64561905D02*
X68349619Y64466667D01*
X68349619Y64466667D02*
X68349619Y64228572D01*
X68349619Y64228572D02*
X68397238Y64085715D01*
X68349619Y63800000D02*
X68349619Y63228572D01*
X69349619Y63514286D02*
X68349619Y63514286D01*
X68349619Y62704762D02*
X68349619Y62514286D01*
X68349619Y62514286D02*
X68397238Y62419048D01*
X68397238Y62419048D02*
X68492476Y62323810D01*
X68492476Y62323810D02*
X68682952Y62276191D01*
X68682952Y62276191D02*
X69016285Y62276191D01*
X69016285Y62276191D02*
X69206761Y62323810D01*
X69206761Y62323810D02*
X69302000Y62419048D01*
X69302000Y62419048D02*
X69349619Y62514286D01*
X69349619Y62514286D02*
X69349619Y62704762D01*
X69349619Y62704762D02*
X69302000Y62800000D01*
X69302000Y62800000D02*
X69206761Y62895238D01*
X69206761Y62895238D02*
X69016285Y62942857D01*
X69016285Y62942857D02*
X68682952Y62942857D01*
X68682952Y62942857D02*
X68492476Y62895238D01*
X68492476Y62895238D02*
X68397238Y62800000D01*
X68397238Y62800000D02*
X68349619Y62704762D01*
X69349619Y61847619D02*
X68349619Y61847619D01*
X68349619Y61847619D02*
X68349619Y61466667D01*
X68349619Y61466667D02*
X68397238Y61371429D01*
X68397238Y61371429D02*
X68444857Y61323810D01*
X68444857Y61323810D02*
X68540095Y61276191D01*
X68540095Y61276191D02*
X68682952Y61276191D01*
X68682952Y61276191D02*
X68778190Y61323810D01*
X68778190Y61323810D02*
X68825809Y61371429D01*
X68825809Y61371429D02*
X68873428Y61466667D01*
X68873428Y61466667D02*
X68873428Y61847619D01*
X69249619Y82009525D02*
X68249619Y82009525D01*
X68249619Y82009525D02*
X69249619Y81438097D01*
X69249619Y81438097D02*
X68249619Y81438097D01*
X68249619Y80771430D02*
X68249619Y80580954D01*
X68249619Y80580954D02*
X68297238Y80485716D01*
X68297238Y80485716D02*
X68392476Y80390478D01*
X68392476Y80390478D02*
X68582952Y80342859D01*
X68582952Y80342859D02*
X68916285Y80342859D01*
X68916285Y80342859D02*
X69106761Y80390478D01*
X69106761Y80390478D02*
X69202000Y80485716D01*
X69202000Y80485716D02*
X69249619Y80580954D01*
X69249619Y80580954D02*
X69249619Y80771430D01*
X69249619Y80771430D02*
X69202000Y80866668D01*
X69202000Y80866668D02*
X69106761Y80961906D01*
X69106761Y80961906D02*
X68916285Y81009525D01*
X68916285Y81009525D02*
X68582952Y81009525D01*
X68582952Y81009525D02*
X68392476Y80961906D01*
X68392476Y80961906D02*
X68297238Y80866668D01*
X68297238Y80866668D02*
X68249619Y80771430D01*
X68631333Y15619050D02*
X68631333Y16380954D01*
X69249619Y76723809D02*
X68249619Y76723809D01*
X69249619Y76247619D02*
X68249619Y76247619D01*
X68249619Y76247619D02*
X69249619Y75676191D01*
X69249619Y75676191D02*
X68249619Y75676191D01*
X68397238Y41961906D02*
X68349619Y42057144D01*
X68349619Y42057144D02*
X68349619Y42200001D01*
X68349619Y42200001D02*
X68397238Y42342858D01*
X68397238Y42342858D02*
X68492476Y42438096D01*
X68492476Y42438096D02*
X68587714Y42485715D01*
X68587714Y42485715D02*
X68778190Y42533334D01*
X68778190Y42533334D02*
X68921047Y42533334D01*
X68921047Y42533334D02*
X69111523Y42485715D01*
X69111523Y42485715D02*
X69206761Y42438096D01*
X69206761Y42438096D02*
X69302000Y42342858D01*
X69302000Y42342858D02*
X69349619Y42200001D01*
X69349619Y42200001D02*
X69349619Y42104763D01*
X69349619Y42104763D02*
X69302000Y41961906D01*
X69302000Y41961906D02*
X69254380Y41914287D01*
X69254380Y41914287D02*
X68921047Y41914287D01*
X68921047Y41914287D02*
X68921047Y42104763D01*
X69349619Y41485715D02*
X68349619Y41485715D01*
X68349619Y41485715D02*
X69349619Y40914287D01*
X69349619Y40914287D02*
X68349619Y40914287D01*
X69349619Y40438096D02*
X68349619Y40438096D01*
X68349619Y40438096D02*
X68349619Y40200001D01*
X68349619Y40200001D02*
X68397238Y40057144D01*
X68397238Y40057144D02*
X68492476Y39961906D01*
X68492476Y39961906D02*
X68587714Y39914287D01*
X68587714Y39914287D02*
X68778190Y39866668D01*
X68778190Y39866668D02*
X68921047Y39866668D01*
X68921047Y39866668D02*
X69111523Y39914287D01*
X69111523Y39914287D02*
X69206761Y39961906D01*
X69206761Y39961906D02*
X69302000Y40057144D01*
X69302000Y40057144D02*
X69349619Y40200001D01*
X69349619Y40200001D02*
X69349619Y40438096D01*
X69349619Y56985715D02*
X68349619Y56985715D01*
X68349619Y56985715D02*
X69349619Y56414287D01*
X69349619Y56414287D02*
X68349619Y56414287D01*
X69254380Y55366668D02*
X69302000Y55414287D01*
X69302000Y55414287D02*
X69349619Y55557144D01*
X69349619Y55557144D02*
X69349619Y55652382D01*
X69349619Y55652382D02*
X69302000Y55795239D01*
X69302000Y55795239D02*
X69206761Y55890477D01*
X69206761Y55890477D02*
X69111523Y55938096D01*
X69111523Y55938096D02*
X68921047Y55985715D01*
X68921047Y55985715D02*
X68778190Y55985715D01*
X68778190Y55985715D02*
X68587714Y55938096D01*
X68587714Y55938096D02*
X68492476Y55890477D01*
X68492476Y55890477D02*
X68397238Y55795239D01*
X68397238Y55795239D02*
X68349619Y55652382D01*
X68349619Y55652382D02*
X68349619Y55557144D01*
X68349619Y55557144D02*
X68397238Y55414287D01*
X68397238Y55414287D02*
X68444857Y55366668D01*
X68631333Y22619049D02*
X68631333Y23380953D01*
D12*
X12666666Y70140420D02*
X12714285Y70092800D01*
X12714285Y70092800D02*
X12857142Y70045181D01*
X12857142Y70045181D02*
X12952380Y70045181D01*
X12952380Y70045181D02*
X13095237Y70092800D01*
X13095237Y70092800D02*
X13190475Y70188039D01*
X13190475Y70188039D02*
X13238094Y70283277D01*
X13238094Y70283277D02*
X13285713Y70473753D01*
X13285713Y70473753D02*
X13285713Y70616610D01*
X13285713Y70616610D02*
X13238094Y70807086D01*
X13238094Y70807086D02*
X13190475Y70902324D01*
X13190475Y70902324D02*
X13095237Y70997562D01*
X13095237Y70997562D02*
X12952380Y71045181D01*
X12952380Y71045181D02*
X12857142Y71045181D01*
X12857142Y71045181D02*
X12714285Y70997562D01*
X12714285Y70997562D02*
X12666666Y70949943D01*
X12285713Y70949943D02*
X12238094Y70997562D01*
X12238094Y70997562D02*
X12142856Y71045181D01*
X12142856Y71045181D02*
X11904761Y71045181D01*
X11904761Y71045181D02*
X11809523Y70997562D01*
X11809523Y70997562D02*
X11761904Y70949943D01*
X11761904Y70949943D02*
X11714285Y70854705D01*
X11714285Y70854705D02*
X11714285Y70759467D01*
X11714285Y70759467D02*
X11761904Y70616610D01*
X11761904Y70616610D02*
X12333332Y70045181D01*
X12333332Y70045181D02*
X11714285Y70045181D01*
X48233333Y17248991D02*
X48566666Y17248991D01*
X48566666Y16725181D02*
X48566666Y17725181D01*
X48566666Y17725181D02*
X48090476Y17725181D01*
X47376190Y17248991D02*
X47233333Y17201372D01*
X47233333Y17201372D02*
X47185714Y17153753D01*
X47185714Y17153753D02*
X47138095Y17058515D01*
X47138095Y17058515D02*
X47138095Y16915658D01*
X47138095Y16915658D02*
X47185714Y16820420D01*
X47185714Y16820420D02*
X47233333Y16772800D01*
X47233333Y16772800D02*
X47328571Y16725181D01*
X47328571Y16725181D02*
X47709523Y16725181D01*
X47709523Y16725181D02*
X47709523Y17725181D01*
X47709523Y17725181D02*
X47376190Y17725181D01*
X47376190Y17725181D02*
X47280952Y17677562D01*
X47280952Y17677562D02*
X47233333Y17629943D01*
X47233333Y17629943D02*
X47185714Y17534705D01*
X47185714Y17534705D02*
X47185714Y17439467D01*
X47185714Y17439467D02*
X47233333Y17344229D01*
X47233333Y17344229D02*
X47280952Y17296610D01*
X47280952Y17296610D02*
X47376190Y17248991D01*
X47376190Y17248991D02*
X47709523Y17248991D01*
X46280952Y17391848D02*
X46280952Y16725181D01*
X46519047Y17772800D02*
X46757142Y17058515D01*
X46757142Y17058515D02*
X46138095Y17058515D01*
X20333333Y2245181D02*
X20333333Y1530896D01*
X20333333Y1530896D02*
X20380952Y1388039D01*
X20380952Y1388039D02*
X20476190Y1292800D01*
X20476190Y1292800D02*
X20619047Y1245181D01*
X20619047Y1245181D02*
X20714285Y1245181D01*
X19904761Y2149943D02*
X19857142Y2197562D01*
X19857142Y2197562D02*
X19761904Y2245181D01*
X19761904Y2245181D02*
X19523809Y2245181D01*
X19523809Y2245181D02*
X19428571Y2197562D01*
X19428571Y2197562D02*
X19380952Y2149943D01*
X19380952Y2149943D02*
X19333333Y2054705D01*
X19333333Y2054705D02*
X19333333Y1959467D01*
X19333333Y1959467D02*
X19380952Y1816610D01*
X19380952Y1816610D02*
X19952380Y1245181D01*
X19952380Y1245181D02*
X19333333Y1245181D01*
X44809580Y17366667D02*
X44857200Y17414286D01*
X44857200Y17414286D02*
X44904819Y17557143D01*
X44904819Y17557143D02*
X44904819Y17652381D01*
X44904819Y17652381D02*
X44857200Y17795238D01*
X44857200Y17795238D02*
X44761961Y17890476D01*
X44761961Y17890476D02*
X44666723Y17938095D01*
X44666723Y17938095D02*
X44476247Y17985714D01*
X44476247Y17985714D02*
X44333390Y17985714D01*
X44333390Y17985714D02*
X44142914Y17938095D01*
X44142914Y17938095D02*
X44047676Y17890476D01*
X44047676Y17890476D02*
X43952438Y17795238D01*
X43952438Y17795238D02*
X43904819Y17652381D01*
X43904819Y17652381D02*
X43904819Y17557143D01*
X43904819Y17557143D02*
X43952438Y17414286D01*
X43952438Y17414286D02*
X44000057Y17366667D01*
X43904819Y16509524D02*
X43904819Y16700000D01*
X43904819Y16700000D02*
X43952438Y16795238D01*
X43952438Y16795238D02*
X44000057Y16842857D01*
X44000057Y16842857D02*
X44142914Y16938095D01*
X44142914Y16938095D02*
X44333390Y16985714D01*
X44333390Y16985714D02*
X44714342Y16985714D01*
X44714342Y16985714D02*
X44809580Y16938095D01*
X44809580Y16938095D02*
X44857200Y16890476D01*
X44857200Y16890476D02*
X44904819Y16795238D01*
X44904819Y16795238D02*
X44904819Y16604762D01*
X44904819Y16604762D02*
X44857200Y16509524D01*
X44857200Y16509524D02*
X44809580Y16461905D01*
X44809580Y16461905D02*
X44714342Y16414286D01*
X44714342Y16414286D02*
X44476247Y16414286D01*
X44476247Y16414286D02*
X44381009Y16461905D01*
X44381009Y16461905D02*
X44333390Y16509524D01*
X44333390Y16509524D02*
X44285771Y16604762D01*
X44285771Y16604762D02*
X44285771Y16795238D01*
X44285771Y16795238D02*
X44333390Y16890476D01*
X44333390Y16890476D02*
X44381009Y16938095D01*
X44381009Y16938095D02*
X44476247Y16985714D01*
X18766666Y78640420D02*
X18814285Y78592800D01*
X18814285Y78592800D02*
X18957142Y78545181D01*
X18957142Y78545181D02*
X19052380Y78545181D01*
X19052380Y78545181D02*
X19195237Y78592800D01*
X19195237Y78592800D02*
X19290475Y78688039D01*
X19290475Y78688039D02*
X19338094Y78783277D01*
X19338094Y78783277D02*
X19385713Y78973753D01*
X19385713Y78973753D02*
X19385713Y79116610D01*
X19385713Y79116610D02*
X19338094Y79307086D01*
X19338094Y79307086D02*
X19290475Y79402324D01*
X19290475Y79402324D02*
X19195237Y79497562D01*
X19195237Y79497562D02*
X19052380Y79545181D01*
X19052380Y79545181D02*
X18957142Y79545181D01*
X18957142Y79545181D02*
X18814285Y79497562D01*
X18814285Y79497562D02*
X18766666Y79449943D01*
X18433332Y79545181D02*
X17814285Y79545181D01*
X17814285Y79545181D02*
X18147618Y79164229D01*
X18147618Y79164229D02*
X18004761Y79164229D01*
X18004761Y79164229D02*
X17909523Y79116610D01*
X17909523Y79116610D02*
X17861904Y79068991D01*
X17861904Y79068991D02*
X17814285Y78973753D01*
X17814285Y78973753D02*
X17814285Y78735658D01*
X17814285Y78735658D02*
X17861904Y78640420D01*
X17861904Y78640420D02*
X17909523Y78592800D01*
X17909523Y78592800D02*
X18004761Y78545181D01*
X18004761Y78545181D02*
X18290475Y78545181D01*
X18290475Y78545181D02*
X18385713Y78592800D01*
X18385713Y78592800D02*
X18433332Y78640420D01*
X48233333Y22448991D02*
X48566666Y22448991D01*
X48566666Y21925181D02*
X48566666Y22925181D01*
X48566666Y22925181D02*
X48090476Y22925181D01*
X47376190Y22448991D02*
X47233333Y22401372D01*
X47233333Y22401372D02*
X47185714Y22353753D01*
X47185714Y22353753D02*
X47138095Y22258515D01*
X47138095Y22258515D02*
X47138095Y22115658D01*
X47138095Y22115658D02*
X47185714Y22020420D01*
X47185714Y22020420D02*
X47233333Y21972800D01*
X47233333Y21972800D02*
X47328571Y21925181D01*
X47328571Y21925181D02*
X47709523Y21925181D01*
X47709523Y21925181D02*
X47709523Y22925181D01*
X47709523Y22925181D02*
X47376190Y22925181D01*
X47376190Y22925181D02*
X47280952Y22877562D01*
X47280952Y22877562D02*
X47233333Y22829943D01*
X47233333Y22829943D02*
X47185714Y22734705D01*
X47185714Y22734705D02*
X47185714Y22639467D01*
X47185714Y22639467D02*
X47233333Y22544229D01*
X47233333Y22544229D02*
X47280952Y22496610D01*
X47280952Y22496610D02*
X47376190Y22448991D01*
X47376190Y22448991D02*
X47709523Y22448991D01*
X46185714Y21925181D02*
X46757142Y21925181D01*
X46471428Y21925181D02*
X46471428Y22925181D01*
X46471428Y22925181D02*
X46566666Y22782324D01*
X46566666Y22782324D02*
X46661904Y22687086D01*
X46661904Y22687086D02*
X46757142Y22639467D01*
X18766666Y81640420D02*
X18814285Y81592800D01*
X18814285Y81592800D02*
X18957142Y81545181D01*
X18957142Y81545181D02*
X19052380Y81545181D01*
X19052380Y81545181D02*
X19195237Y81592800D01*
X19195237Y81592800D02*
X19290475Y81688039D01*
X19290475Y81688039D02*
X19338094Y81783277D01*
X19338094Y81783277D02*
X19385713Y81973753D01*
X19385713Y81973753D02*
X19385713Y82116610D01*
X19385713Y82116610D02*
X19338094Y82307086D01*
X19338094Y82307086D02*
X19290475Y82402324D01*
X19290475Y82402324D02*
X19195237Y82497562D01*
X19195237Y82497562D02*
X19052380Y82545181D01*
X19052380Y82545181D02*
X18957142Y82545181D01*
X18957142Y82545181D02*
X18814285Y82497562D01*
X18814285Y82497562D02*
X18766666Y82449943D01*
X17909523Y82211848D02*
X17909523Y81545181D01*
X18147618Y82592800D02*
X18385713Y81878515D01*
X18385713Y81878515D02*
X17766666Y81878515D01*
X25761904Y75695181D02*
X25761904Y74885658D01*
X25761904Y74885658D02*
X25714285Y74790420D01*
X25714285Y74790420D02*
X25666666Y74742800D01*
X25666666Y74742800D02*
X25571428Y74695181D01*
X25571428Y74695181D02*
X25380952Y74695181D01*
X25380952Y74695181D02*
X25285714Y74742800D01*
X25285714Y74742800D02*
X25238095Y74790420D01*
X25238095Y74790420D02*
X25190476Y74885658D01*
X25190476Y74885658D02*
X25190476Y75695181D01*
X24761904Y75599943D02*
X24714285Y75647562D01*
X24714285Y75647562D02*
X24619047Y75695181D01*
X24619047Y75695181D02*
X24380952Y75695181D01*
X24380952Y75695181D02*
X24285714Y75647562D01*
X24285714Y75647562D02*
X24238095Y75599943D01*
X24238095Y75599943D02*
X24190476Y75504705D01*
X24190476Y75504705D02*
X24190476Y75409467D01*
X24190476Y75409467D02*
X24238095Y75266610D01*
X24238095Y75266610D02*
X24809523Y74695181D01*
X24809523Y74695181D02*
X24190476Y74695181D01*
X25761904Y48895181D02*
X25761904Y48085658D01*
X25761904Y48085658D02*
X25714285Y47990420D01*
X25714285Y47990420D02*
X25666666Y47942800D01*
X25666666Y47942800D02*
X25571428Y47895181D01*
X25571428Y47895181D02*
X25380952Y47895181D01*
X25380952Y47895181D02*
X25285714Y47942800D01*
X25285714Y47942800D02*
X25238095Y47990420D01*
X25238095Y47990420D02*
X25190476Y48085658D01*
X25190476Y48085658D02*
X25190476Y48895181D01*
X24238095Y48895181D02*
X24714285Y48895181D01*
X24714285Y48895181D02*
X24761904Y48418991D01*
X24761904Y48418991D02*
X24714285Y48466610D01*
X24714285Y48466610D02*
X24619047Y48514229D01*
X24619047Y48514229D02*
X24380952Y48514229D01*
X24380952Y48514229D02*
X24285714Y48466610D01*
X24285714Y48466610D02*
X24238095Y48418991D01*
X24238095Y48418991D02*
X24190476Y48323753D01*
X24190476Y48323753D02*
X24190476Y48085658D01*
X24190476Y48085658D02*
X24238095Y47990420D01*
X24238095Y47990420D02*
X24285714Y47942800D01*
X24285714Y47942800D02*
X24380952Y47895181D01*
X24380952Y47895181D02*
X24619047Y47895181D01*
X24619047Y47895181D02*
X24714285Y47942800D01*
X24714285Y47942800D02*
X24761904Y47990420D01*
X18666666Y75245181D02*
X19142856Y75245181D01*
X19142856Y75245181D02*
X19142856Y76245181D01*
X17809523Y75245181D02*
X18380951Y75245181D01*
X18095237Y75245181D02*
X18095237Y76245181D01*
X18095237Y76245181D02*
X18190475Y76102324D01*
X18190475Y76102324D02*
X18285713Y76007086D01*
X18285713Y76007086D02*
X18380951Y75959467D01*
X10066666Y80490420D02*
X10114285Y80442800D01*
X10114285Y80442800D02*
X10257142Y80395181D01*
X10257142Y80395181D02*
X10352380Y80395181D01*
X10352380Y80395181D02*
X10495237Y80442800D01*
X10495237Y80442800D02*
X10590475Y80538039D01*
X10590475Y80538039D02*
X10638094Y80633277D01*
X10638094Y80633277D02*
X10685713Y80823753D01*
X10685713Y80823753D02*
X10685713Y80966610D01*
X10685713Y80966610D02*
X10638094Y81157086D01*
X10638094Y81157086D02*
X10590475Y81252324D01*
X10590475Y81252324D02*
X10495237Y81347562D01*
X10495237Y81347562D02*
X10352380Y81395181D01*
X10352380Y81395181D02*
X10257142Y81395181D01*
X10257142Y81395181D02*
X10114285Y81347562D01*
X10114285Y81347562D02*
X10066666Y81299943D01*
X9114285Y80395181D02*
X9685713Y80395181D01*
X9399999Y80395181D02*
X9399999Y81395181D01*
X9399999Y81395181D02*
X9495237Y81252324D01*
X9495237Y81252324D02*
X9590475Y81157086D01*
X9590475Y81157086D02*
X9685713Y81109467D01*
X48233333Y13748991D02*
X48566666Y13748991D01*
X48566666Y13225181D02*
X48566666Y14225181D01*
X48566666Y14225181D02*
X48090476Y14225181D01*
X47376190Y13748991D02*
X47233333Y13701372D01*
X47233333Y13701372D02*
X47185714Y13653753D01*
X47185714Y13653753D02*
X47138095Y13558515D01*
X47138095Y13558515D02*
X47138095Y13415658D01*
X47138095Y13415658D02*
X47185714Y13320420D01*
X47185714Y13320420D02*
X47233333Y13272800D01*
X47233333Y13272800D02*
X47328571Y13225181D01*
X47328571Y13225181D02*
X47709523Y13225181D01*
X47709523Y13225181D02*
X47709523Y14225181D01*
X47709523Y14225181D02*
X47376190Y14225181D01*
X47376190Y14225181D02*
X47280952Y14177562D01*
X47280952Y14177562D02*
X47233333Y14129943D01*
X47233333Y14129943D02*
X47185714Y14034705D01*
X47185714Y14034705D02*
X47185714Y13939467D01*
X47185714Y13939467D02*
X47233333Y13844229D01*
X47233333Y13844229D02*
X47280952Y13796610D01*
X47280952Y13796610D02*
X47376190Y13748991D01*
X47376190Y13748991D02*
X47709523Y13748991D01*
X46804761Y14225181D02*
X46185714Y14225181D01*
X46185714Y14225181D02*
X46519047Y13844229D01*
X46519047Y13844229D02*
X46376190Y13844229D01*
X46376190Y13844229D02*
X46280952Y13796610D01*
X46280952Y13796610D02*
X46233333Y13748991D01*
X46233333Y13748991D02*
X46185714Y13653753D01*
X46185714Y13653753D02*
X46185714Y13415658D01*
X46185714Y13415658D02*
X46233333Y13320420D01*
X46233333Y13320420D02*
X46280952Y13272800D01*
X46280952Y13272800D02*
X46376190Y13225181D01*
X46376190Y13225181D02*
X46661904Y13225181D01*
X46661904Y13225181D02*
X46757142Y13272800D01*
X46757142Y13272800D02*
X46804761Y13320420D01*
X9861904Y73845181D02*
X9861904Y73035658D01*
X9861904Y73035658D02*
X9814285Y72940420D01*
X9814285Y72940420D02*
X9766666Y72892800D01*
X9766666Y72892800D02*
X9671428Y72845181D01*
X9671428Y72845181D02*
X9480952Y72845181D01*
X9480952Y72845181D02*
X9385714Y72892800D01*
X9385714Y72892800D02*
X9338095Y72940420D01*
X9338095Y72940420D02*
X9290476Y73035658D01*
X9290476Y73035658D02*
X9290476Y73845181D01*
X8290476Y72845181D02*
X8861904Y72845181D01*
X8576190Y72845181D02*
X8576190Y73845181D01*
X8576190Y73845181D02*
X8671428Y73702324D01*
X8671428Y73702324D02*
X8766666Y73607086D01*
X8766666Y73607086D02*
X8861904Y73559467D01*
X44809580Y26166667D02*
X44857200Y26214286D01*
X44857200Y26214286D02*
X44904819Y26357143D01*
X44904819Y26357143D02*
X44904819Y26452381D01*
X44904819Y26452381D02*
X44857200Y26595238D01*
X44857200Y26595238D02*
X44761961Y26690476D01*
X44761961Y26690476D02*
X44666723Y26738095D01*
X44666723Y26738095D02*
X44476247Y26785714D01*
X44476247Y26785714D02*
X44333390Y26785714D01*
X44333390Y26785714D02*
X44142914Y26738095D01*
X44142914Y26738095D02*
X44047676Y26690476D01*
X44047676Y26690476D02*
X43952438Y26595238D01*
X43952438Y26595238D02*
X43904819Y26452381D01*
X43904819Y26452381D02*
X43904819Y26357143D01*
X43904819Y26357143D02*
X43952438Y26214286D01*
X43952438Y26214286D02*
X44000057Y26166667D01*
X43904819Y25261905D02*
X43904819Y25738095D01*
X43904819Y25738095D02*
X44381009Y25785714D01*
X44381009Y25785714D02*
X44333390Y25738095D01*
X44333390Y25738095D02*
X44285771Y25642857D01*
X44285771Y25642857D02*
X44285771Y25404762D01*
X44285771Y25404762D02*
X44333390Y25309524D01*
X44333390Y25309524D02*
X44381009Y25261905D01*
X44381009Y25261905D02*
X44476247Y25214286D01*
X44476247Y25214286D02*
X44714342Y25214286D01*
X44714342Y25214286D02*
X44809580Y25261905D01*
X44809580Y25261905D02*
X44857200Y25309524D01*
X44857200Y25309524D02*
X44904819Y25404762D01*
X44904819Y25404762D02*
X44904819Y25642857D01*
X44904819Y25642857D02*
X44857200Y25738095D01*
X44857200Y25738095D02*
X44809580Y25785714D01*
X48233333Y25948991D02*
X48566666Y25948991D01*
X48566666Y25425181D02*
X48566666Y26425181D01*
X48566666Y26425181D02*
X48090476Y26425181D01*
X47376190Y25948991D02*
X47233333Y25901372D01*
X47233333Y25901372D02*
X47185714Y25853753D01*
X47185714Y25853753D02*
X47138095Y25758515D01*
X47138095Y25758515D02*
X47138095Y25615658D01*
X47138095Y25615658D02*
X47185714Y25520420D01*
X47185714Y25520420D02*
X47233333Y25472800D01*
X47233333Y25472800D02*
X47328571Y25425181D01*
X47328571Y25425181D02*
X47709523Y25425181D01*
X47709523Y25425181D02*
X47709523Y26425181D01*
X47709523Y26425181D02*
X47376190Y26425181D01*
X47376190Y26425181D02*
X47280952Y26377562D01*
X47280952Y26377562D02*
X47233333Y26329943D01*
X47233333Y26329943D02*
X47185714Y26234705D01*
X47185714Y26234705D02*
X47185714Y26139467D01*
X47185714Y26139467D02*
X47233333Y26044229D01*
X47233333Y26044229D02*
X47280952Y25996610D01*
X47280952Y25996610D02*
X47376190Y25948991D01*
X47376190Y25948991D02*
X47709523Y25948991D01*
X46757142Y26329943D02*
X46709523Y26377562D01*
X46709523Y26377562D02*
X46614285Y26425181D01*
X46614285Y26425181D02*
X46376190Y26425181D01*
X46376190Y26425181D02*
X46280952Y26377562D01*
X46280952Y26377562D02*
X46233333Y26329943D01*
X46233333Y26329943D02*
X46185714Y26234705D01*
X46185714Y26234705D02*
X46185714Y26139467D01*
X46185714Y26139467D02*
X46233333Y25996610D01*
X46233333Y25996610D02*
X46804761Y25425181D01*
X46804761Y25425181D02*
X46185714Y25425181D01*
X37661904Y21077181D02*
X37661904Y20267658D01*
X37661904Y20267658D02*
X37614285Y20172420D01*
X37614285Y20172420D02*
X37566666Y20124800D01*
X37566666Y20124800D02*
X37471428Y20077181D01*
X37471428Y20077181D02*
X37280952Y20077181D01*
X37280952Y20077181D02*
X37185714Y20124800D01*
X37185714Y20124800D02*
X37138095Y20172420D01*
X37138095Y20172420D02*
X37090476Y20267658D01*
X37090476Y20267658D02*
X37090476Y21077181D01*
X36185714Y20743848D02*
X36185714Y20077181D01*
X36423809Y21124800D02*
X36661904Y20410515D01*
X36661904Y20410515D02*
X36042857Y20410515D01*
X37661904Y29845181D02*
X37661904Y29035658D01*
X37661904Y29035658D02*
X37614285Y28940420D01*
X37614285Y28940420D02*
X37566666Y28892800D01*
X37566666Y28892800D02*
X37471428Y28845181D01*
X37471428Y28845181D02*
X37280952Y28845181D01*
X37280952Y28845181D02*
X37185714Y28892800D01*
X37185714Y28892800D02*
X37138095Y28940420D01*
X37138095Y28940420D02*
X37090476Y29035658D01*
X37090476Y29035658D02*
X37090476Y29845181D01*
X36709523Y29845181D02*
X36090476Y29845181D01*
X36090476Y29845181D02*
X36423809Y29464229D01*
X36423809Y29464229D02*
X36280952Y29464229D01*
X36280952Y29464229D02*
X36185714Y29416610D01*
X36185714Y29416610D02*
X36138095Y29368991D01*
X36138095Y29368991D02*
X36090476Y29273753D01*
X36090476Y29273753D02*
X36090476Y29035658D01*
X36090476Y29035658D02*
X36138095Y28940420D01*
X36138095Y28940420D02*
X36185714Y28892800D01*
X36185714Y28892800D02*
X36280952Y28845181D01*
X36280952Y28845181D02*
X36566666Y28845181D01*
X36566666Y28845181D02*
X36661904Y28892800D01*
X36661904Y28892800D02*
X36709523Y28940420D01*
D13*
%TO.C,J17*%
X69800000Y38800000D02*
X62800000Y38800000D01*
%TO.C,J16*%
X69800000Y43800000D02*
X62800000Y43800000D01*
%TO.C,J15*%
X69800000Y48800000D02*
X62800000Y48800000D01*
%TO.C,J14*%
X69800000Y53800000D02*
X62800000Y53800000D01*
%TO.C,J13*%
X69800000Y58800000D02*
X62800000Y58800000D01*
%TO.C,J9*%
X69800000Y68800000D02*
X62800000Y68800000D01*
%TO.C,J8*%
X69800000Y73800000D02*
X62800000Y73800000D01*
%TO.C,J7*%
X69800000Y78800000D02*
X62800000Y78800000D01*
%TO.C,J6*%
X69800000Y83800000D02*
X62800000Y83800000D01*
D10*
%TO.C,C2*%
X13211252Y73110000D02*
X11788748Y73110000D01*
X13211252Y71290000D02*
X11788748Y71290000D01*
D13*
%TO.C,J3*%
X69800000Y21200000D02*
X62800000Y21200000D01*
%TO.C,J11*%
X69800000Y14200000D02*
X62800000Y14200000D01*
%TO.C,J12*%
X69800000Y17700000D02*
X62800000Y17700000D01*
D10*
%TO.C,FB4*%
X46672936Y19910000D02*
X48127064Y19910000D01*
X46672936Y18090000D02*
X48127064Y18090000D01*
%TO.C,J2*%
X21950000Y715000D02*
X18070000Y715000D01*
X23120000Y2685000D02*
X23120000Y5185000D01*
X16900000Y2685000D02*
X16900000Y5185000D01*
X23120000Y5185000D02*
X22070000Y5185000D01*
X16900000Y5185000D02*
X17950000Y5185000D01*
X22070000Y5185000D02*
X22070000Y6175000D01*
%TO.C,C6*%
X43510000Y16488748D02*
X43510000Y17911252D01*
X41690000Y16488748D02*
X41690000Y17911252D01*
%TO.C,C3*%
X14488748Y78090000D02*
X15911252Y78090000D01*
X14488748Y79910000D02*
X15911252Y79910000D01*
%TO.C,FB1*%
X46672936Y25110000D02*
X48127064Y25110000D01*
X46672936Y23290000D02*
X48127064Y23290000D01*
%TO.C,C4*%
X14488748Y81090000D02*
X15911252Y81090000D01*
X14488748Y82910000D02*
X15911252Y82910000D01*
%TO.C,U2*%
X22690000Y71490000D02*
X22690000Y71705000D01*
X25000000Y71490000D02*
X22690000Y71490000D01*
X27310000Y74095000D02*
X29000000Y74095000D01*
X27310000Y74310000D02*
X27310000Y74095000D01*
X27310000Y71490000D02*
X27310000Y71705000D01*
X25000000Y74310000D02*
X27310000Y74310000D01*
X22690000Y74310000D02*
X22690000Y74095000D01*
X25000000Y71490000D02*
X27310000Y71490000D01*
X25000000Y74310000D02*
X22690000Y74310000D01*
%TO.C,U5*%
X22690000Y44690000D02*
X22690000Y44905000D01*
X25000000Y44690000D02*
X22690000Y44690000D01*
X27310000Y47295000D02*
X29000000Y47295000D01*
X27310000Y47510000D02*
X27310000Y47295000D01*
X27310000Y44690000D02*
X27310000Y44905000D01*
X25000000Y47510000D02*
X27310000Y47510000D01*
X22690000Y47510000D02*
X22690000Y47295000D01*
X25000000Y44690000D02*
X27310000Y44690000D01*
X25000000Y47510000D02*
X22690000Y47510000D01*
%TO.C,L1*%
X14597936Y77060000D02*
X15802064Y77060000D01*
X14597936Y74340000D02*
X15802064Y74340000D01*
%TO.C,C1*%
X10611252Y79910000D02*
X9188748Y79910000D01*
X10611252Y78090000D02*
X9188748Y78090000D01*
%TO.C,FB3*%
X46672936Y16410000D02*
X48127064Y16410000D01*
X46672936Y14590000D02*
X48127064Y14590000D01*
%TO.C,U1*%
X10100000Y74140000D02*
X10900000Y74140000D01*
X10100000Y77260000D02*
X10900000Y77260000D01*
X10100000Y77260000D02*
X9300000Y77260000D01*
X10100000Y74140000D02*
X8300000Y74140000D01*
%TO.C,C5*%
X43510000Y25288748D02*
X43510000Y26711252D01*
X41690000Y25288748D02*
X41690000Y26711252D01*
%TO.C,FB2*%
X46672936Y28610000D02*
X48127064Y28610000D01*
X46672936Y26790000D02*
X48127064Y26790000D01*
D14*
%TO.C,U4*%
X38900000Y14680000D02*
X34900000Y14680000D01*
X38900000Y19720000D02*
X34900000Y19720000D01*
D15*
X41445000Y19695000D02*
G75*
G03*
X41445000Y19695000I-100000J0D01*
G01*
D14*
%TO.C,U3*%
X38900000Y23480000D02*
X34900000Y23480000D01*
X38900000Y28520000D02*
X34900000Y28520000D01*
D15*
X41445000Y28495000D02*
G75*
G03*
X41445000Y28495000I-100000J0D01*
G01*
%TD*%
M02*
