M48
; DRILL file {KiCad 7.0.9} date Sat Feb 10 00:10:43 2024
; FORMAT={-:-/ absolute / inch / decimal}
; #@! TF.CreationDate,2024-02-10T00:10:43-05:00
; #@! TF.GenerationSoftware,Kicad,Pcbnew,7.0.9
; #@! TF.FileFunction,Plated,1,2,PTH
FMAT,2
INCH
; #@! TA.AperFunction,Plated,PTH,ViaDrill
T1C0.0079
; #@! TA.AperFunction,Plated,PTH,ViaDrill
T2C0.0157
; #@! TA.AperFunction,Plated,PTH,ViaDrill
T3C0.0315
; #@! TA.AperFunction,Plated,PTH,ComponentDrill
T4C0.0315
; #@! TA.AperFunction,Plated,PTH,ComponentDrill
T5C0.0394
; #@! TA.AperFunction,Plated,PTH,ComponentDrill
T6C0.0433
; #@! TA.AperFunction,Plated,PTH,ComponentDrill
T7C0.0461
; #@! TA.AperFunction,Plated,PTH,ComponentDrill
T8C0.0512
%
G90
G05
T1
X0.3976Y2.9449
X0.4409Y3.0512
X0.4488Y3.1693
X0.4764Y3.0512
X0.4921Y3.1378
X0.4921Y3.0866
X0.5394Y3.1693
T2
X0.2953Y2.9626
X0.3031Y2.8346
X0.4449Y3.2382
X0.7165Y3.1713
X0.7165Y3.0571
X0.7165Y2.8602
X0.7283Y0.2835
X0.7717Y0.2835
X0.8071Y0.1279
X0.937Y0.9646
X0.937Y0.8661
X1.2795Y0.6969
X1.2795Y0.6024
X1.4685Y0.9488
X1.9764Y0.0827
T3
X0.6535Y2.0118
T4
X0.9213Y3.3272
X0.9213Y3.0272
X0.9213Y2.2799
X0.9213Y1.9799
T5
X0.1417Y2.4193
X0.1417Y2.3193
X0.1417Y2.2193
X0.1417Y2.1193
X0.1417Y2.0193
X0.1417Y1.9193
X0.1417Y1.8193
X0.1417Y1.7193
X0.1417Y1.6193
X0.1417Y1.5193
X0.4882Y1.5669
X0.4882Y1.4669
X0.4882Y1.3669
X0.4882Y1.2669
X0.4882Y1.1669
X0.4882Y1.0669
X0.4882Y0.9669
X0.4882Y0.8669
X0.4882Y0.7669
X0.4882Y0.6669
X0.4882Y0.5669
X0.4882Y0.4669
X0.4882Y0.3669
X0.4882Y0.2669
X0.4882Y0.1669
X1.0882Y1.5669
X1.0882Y1.4669
X1.0882Y1.3669
X1.0882Y1.2669
X1.0882Y1.1669
X1.0882Y1.0669
X1.0882Y0.9669
X1.0882Y0.8669
X1.0882Y0.7669
X1.0882Y0.6669
X1.0882Y0.5669
X1.0882Y0.4669
X1.0882Y0.3669
X1.0882Y0.2669
X1.0882Y0.1669
T6
X2.2835Y3.3898
X2.2835Y3.1929
X2.2835Y2.9961
X2.2835Y2.7992
X2.2835Y2.6024
X2.2835Y2.4055
X2.2835Y2.2087
X2.2835Y2.0118
X2.2835Y1.815
X2.2835Y1.6181
X2.2835Y1.4213
X2.2835Y1.2244
X2.2835Y0.8898
X2.2835Y0.752
X2.2835Y0.6142
X2.2835Y0.4764
X2.6063Y3.3898
X2.6063Y3.1929
X2.6063Y2.9961
X2.6063Y2.7992
X2.6063Y2.6024
X2.6063Y2.4055
X2.6063Y2.2087
X2.6063Y2.0118
X2.6063Y1.815
X2.6063Y1.6181
X2.6063Y1.4213
X2.6063Y1.2244
X2.6063Y0.8898
X2.6063Y0.752
X2.6063Y0.6142
X2.6063Y0.4764
T7
X1.1201Y3.7202
X1.1201Y3.5233
X1.1201Y2.669
X1.1201Y2.4722
X1.6201Y3.7202
X1.6201Y3.5233
X1.6201Y2.669
X1.6201Y2.4722
T8
X1.0797Y3.3276
X1.0797Y3.0276
X1.0797Y2.2803
X1.0797Y1.9803
X1.4797Y3.0276
X1.4797Y1.9803
X1.6797Y3.3276
X1.6797Y2.2803
X1.7797Y3.0276
X1.7797Y1.9803
T0
M30
