%TF.GenerationSoftware,KiCad,Pcbnew,7.0.9*%
%TF.CreationDate,2024-02-10T01:58:27-05:00*%
%TF.ProjectId,BREAD_Loaf,42524541-445f-44c6-9f61-662e6b696361,rev?*%
%TF.SameCoordinates,PX2fdfdc0PY36746e0*%
%TF.FileFunction,Copper,L2,Bot*%
%TF.FilePolarity,Positive*%
%FSLAX46Y46*%
G04 Gerber Fmt 4.6, Leading zero omitted, Abs format (unit mm)*
G04 Created by KiCad (PCBNEW 7.0.9) date 2024-02-10 01:58:27*
%MOMM*%
%LPD*%
G01*
G04 APERTURE LIST*
%TA.AperFunction,ComponentPad*%
%ADD10R,1.700000X1.700000*%
%TD*%
%TA.AperFunction,ComponentPad*%
%ADD11O,1.700000X1.700000*%
%TD*%
%TA.AperFunction,ComponentPad*%
%ADD12R,4.000000X2.000000*%
%TD*%
%TA.AperFunction,ComponentPad*%
%ADD13O,3.300000X2.000000*%
%TD*%
%TA.AperFunction,ComponentPad*%
%ADD14O,2.000000X3.500000*%
%TD*%
%TA.AperFunction,ComponentPad*%
%ADD15C,1.700000*%
%TD*%
%TA.AperFunction,Conductor*%
%ADD16C,2.000000*%
%TD*%
%TA.AperFunction,Conductor*%
%ADD17C,3.000000*%
%TD*%
G04 APERTURE END LIST*
D10*
%TO.P,J3,1,Pin_1*%
%TO.N,GND*%
X53000000Y-38590000D03*
D11*
%TO.P,J3,2,Pin_2*%
%TO.N,+12V*%
X53000000Y-41130000D03*
%TO.P,J3,3,Pin_3*%
%TO.N,/SCL_5V*%
X53000000Y-43670000D03*
%TO.P,J3,4,Pin_4*%
%TO.N,/SDA_5V*%
X53000000Y-46210000D03*
%TO.P,J3,5,Pin_5*%
%TO.N,GND*%
X53000000Y-48750000D03*
%TO.P,J3,6,Pin_6*%
%TO.N,/E_STOP_5V*%
X53000000Y-51290000D03*
%TO.P,J3,7,Pin_7*%
%TO.N,/INT_5V*%
X53000000Y-53830000D03*
%TO.P,J3,8,Pin_8*%
%TO.N,/SYNC_5V*%
X53000000Y-56370000D03*
%TO.P,J3,9,Pin_9*%
%TO.N,+12V*%
X53000000Y-58910000D03*
%TO.P,J3,10,Pin_10*%
%TO.N,GND*%
X53000000Y-61450000D03*
%TD*%
D10*
%TO.P,J5,1,Pin_1*%
%TO.N,GND*%
X113800000Y-38590000D03*
D11*
%TO.P,J5,2,Pin_2*%
%TO.N,+12V*%
X113800000Y-41130000D03*
%TO.P,J5,3,Pin_3*%
%TO.N,/SCL_5V*%
X113800000Y-43670000D03*
%TO.P,J5,4,Pin_4*%
%TO.N,/SDA_5V*%
X113800000Y-46210000D03*
%TO.P,J5,5,Pin_5*%
%TO.N,GND*%
X113800000Y-48750000D03*
%TO.P,J5,6,Pin_6*%
%TO.N,/E_STOP_5V*%
X113800000Y-51290000D03*
%TO.P,J5,7,Pin_7*%
%TO.N,/INT_5V*%
X113800000Y-53830000D03*
%TO.P,J5,8,Pin_8*%
%TO.N,/SYNC_5V*%
X113800000Y-56370000D03*
%TO.P,J5,9,Pin_9*%
%TO.N,+12V*%
X113800000Y-58910000D03*
%TO.P,J5,10,Pin_10*%
%TO.N,GND*%
X113800000Y-61450000D03*
%TD*%
D10*
%TO.P,J4,1,Pin_1*%
%TO.N,GND*%
X83400000Y-38590000D03*
D11*
%TO.P,J4,2,Pin_2*%
%TO.N,+12V*%
X83400000Y-41130000D03*
%TO.P,J4,3,Pin_3*%
%TO.N,/SCL_5V*%
X83400000Y-43670000D03*
%TO.P,J4,4,Pin_4*%
%TO.N,/SDA_5V*%
X83400000Y-46210000D03*
%TO.P,J4,5,Pin_5*%
%TO.N,GND*%
X83400000Y-48750000D03*
%TO.P,J4,6,Pin_6*%
%TO.N,/E_STOP_5V*%
X83400000Y-51290000D03*
%TO.P,J4,7,Pin_7*%
%TO.N,/INT_5V*%
X83400000Y-53830000D03*
%TO.P,J4,8,Pin_8*%
%TO.N,/SYNC_5V*%
X83400000Y-56370000D03*
%TO.P,J4,9,Pin_9*%
%TO.N,+12V*%
X83400000Y-58910000D03*
%TO.P,J4,10,Pin_10*%
%TO.N,GND*%
X83400000Y-61450000D03*
%TD*%
D10*
%TO.P,J2,1,Pin_1*%
%TO.N,GND*%
X22600000Y-38590000D03*
D11*
%TO.P,J2,2,Pin_2*%
%TO.N,+12V*%
X22600000Y-41130000D03*
%TO.P,J2,3,Pin_3*%
%TO.N,/SCL_5V*%
X22600000Y-43670000D03*
%TO.P,J2,4,Pin_4*%
%TO.N,/SDA_5V*%
X22600000Y-46210000D03*
%TO.P,J2,5,Pin_5*%
%TO.N,GND*%
X22600000Y-48750000D03*
%TO.P,J2,6,Pin_6*%
%TO.N,/E_STOP_5V*%
X22600000Y-51290000D03*
%TO.P,J2,7,Pin_7*%
%TO.N,/INT_5V*%
X22600000Y-53830000D03*
%TO.P,J2,8,Pin_8*%
%TO.N,/SYNC_5V*%
X22600000Y-56370000D03*
%TO.P,J2,9,Pin_9*%
%TO.N,+12V*%
X22600000Y-58910000D03*
%TO.P,J2,10,Pin_10*%
%TO.N,GND*%
X22600000Y-61450000D03*
%TD*%
D12*
%TO.P,J7,1*%
%TO.N,+12V*%
X38200000Y-62700000D03*
D13*
%TO.P,J7,2*%
%TO.N,GND*%
X38200000Y-68700000D03*
D14*
%TO.P,J7,MP*%
%TO.N,N/C*%
X42700000Y-69700000D03*
X33700000Y-69700000D03*
%TD*%
D15*
%TO.P,J1,1,1*%
%TO.N,GND*%
X10000000Y-61460000D03*
%TO.P,J1,2,2*%
%TO.N,+12V*%
X10000000Y-58920000D03*
%TO.P,J1,3,3*%
%TO.N,/SYNC_5V*%
X10000000Y-56380000D03*
%TO.P,J1,4,4*%
%TO.N,/INT_5V*%
X10000000Y-53840000D03*
%TO.P,J1,5,5*%
%TO.N,/E_STOP_5V*%
X10000000Y-51300000D03*
%TO.P,J1,6,6*%
%TO.N,GND*%
X10000000Y-48760000D03*
%TO.P,J1,7,7*%
%TO.N,/SDA_5V*%
X10000000Y-46220000D03*
%TO.P,J1,8,8*%
%TO.N,/SCL_5V*%
X10000000Y-43680000D03*
%TO.P,J1,9,9*%
%TO.N,+12V*%
X10000000Y-41140000D03*
%TO.P,J1,10,10*%
%TO.N,GND*%
X10000000Y-38600000D03*
%TD*%
D10*
%TO.P,J6,1,1*%
%TO.N,GND*%
X117500000Y-38600000D03*
D11*
%TO.P,J6,2,2*%
%TO.N,+12V*%
X117500000Y-41140000D03*
%TO.P,J6,3,3*%
%TO.N,/SCL_5V*%
X117500000Y-43680000D03*
%TO.P,J6,4,4*%
%TO.N,/SDA_5V*%
X117500000Y-46220000D03*
%TO.P,J6,5,5*%
%TO.N,GND*%
X117500000Y-48760000D03*
%TO.P,J6,6,6*%
%TO.N,/E_STOP_5V*%
X117500000Y-51300000D03*
%TO.P,J6,7,7*%
%TO.N,/INT_5V*%
X117500000Y-53840000D03*
%TO.P,J6,8,8*%
%TO.N,/SYNC_5V*%
X117500000Y-56380000D03*
%TO.P,J6,9,9*%
%TO.N,+12V*%
X117500000Y-58920000D03*
%TO.P,J6,10,10*%
%TO.N,GND*%
X117500000Y-61460000D03*
%TD*%
D16*
%TO.N,+12V*%
X22590000Y-41140000D02*
X22600000Y-41130000D01*
X113800000Y-41130000D02*
X117490000Y-41130000D01*
X113810000Y-58920000D02*
X113800000Y-58910000D01*
X10010000Y-58910000D02*
X10000000Y-58920000D01*
X117490000Y-41130000D02*
X117500000Y-41140000D01*
X117500000Y-58920000D02*
X113810000Y-58920000D01*
X53000000Y-58910000D02*
X83400000Y-58910000D01*
X83400000Y-41130000D02*
X113800000Y-41130000D01*
X113800000Y-58910000D02*
X83400000Y-58910000D01*
X53000000Y-41130000D02*
X83400000Y-41130000D01*
D17*
X38200000Y-62700000D02*
X38200000Y-58910000D01*
D16*
X10000000Y-41140000D02*
X22590000Y-41140000D01*
X22600000Y-58910000D02*
X10010000Y-58910000D01*
X38200000Y-58910000D02*
X22600000Y-58910000D01*
X22600000Y-41130000D02*
X53000000Y-41130000D01*
X53000000Y-58910000D02*
X38200000Y-58910000D01*
%TD*%
%TA.AperFunction,Conductor*%
%TO.N,GND*%
G36*
X122902004Y-25000631D02*
G01*
X122983743Y-25005988D01*
X123165459Y-25018985D01*
X123173100Y-25020015D01*
X123261535Y-25037606D01*
X123289420Y-25043153D01*
X123315023Y-25048722D01*
X123433666Y-25074531D01*
X123440383Y-25076395D01*
X123559437Y-25116809D01*
X123656671Y-25153076D01*
X123691741Y-25166157D01*
X123697499Y-25168643D01*
X123812952Y-25225578D01*
X123934906Y-25292170D01*
X123939634Y-25295032D01*
X123996571Y-25333076D01*
X124046649Y-25366537D01*
X124049358Y-25368454D01*
X124158652Y-25450271D01*
X124162345Y-25453265D01*
X124259502Y-25538469D01*
X124262448Y-25541228D01*
X124358769Y-25637549D01*
X124361526Y-25640492D01*
X124446729Y-25737648D01*
X124449732Y-25741353D01*
X124501564Y-25810592D01*
X124531543Y-25850639D01*
X124533461Y-25853349D01*
X124604962Y-25960357D01*
X124607828Y-25965091D01*
X124674421Y-26087047D01*
X124731355Y-26202499D01*
X124733841Y-26208257D01*
X124770212Y-26305768D01*
X124783201Y-26340592D01*
X124823597Y-26459596D01*
X124825472Y-26466352D01*
X124856846Y-26610579D01*
X124879980Y-26726880D01*
X124881015Y-26734560D01*
X124894017Y-26916350D01*
X124899367Y-26997966D01*
X124899500Y-27002023D01*
X124899500Y-73017975D01*
X124899367Y-73022032D01*
X124894017Y-73103648D01*
X124881015Y-73285438D01*
X124879980Y-73293118D01*
X124856846Y-73409420D01*
X124825472Y-73553646D01*
X124823597Y-73560401D01*
X124789297Y-73661448D01*
X124783208Y-73679388D01*
X124783195Y-73679425D01*
X124733841Y-73811741D01*
X124731355Y-73817499D01*
X124674421Y-73932952D01*
X124607828Y-74054907D01*
X124604961Y-74059641D01*
X124533461Y-74166649D01*
X124531543Y-74169359D01*
X124449744Y-74278631D01*
X124446723Y-74282357D01*
X124361529Y-74379502D01*
X124358755Y-74382464D01*
X124262464Y-74478755D01*
X124259502Y-74481529D01*
X124162357Y-74566723D01*
X124158631Y-74569744D01*
X124049359Y-74651543D01*
X124046649Y-74653461D01*
X123939641Y-74724961D01*
X123934907Y-74727828D01*
X123812952Y-74794421D01*
X123697499Y-74851355D01*
X123691741Y-74853841D01*
X123570956Y-74898893D01*
X123559418Y-74903197D01*
X123440401Y-74943597D01*
X123433646Y-74945472D01*
X123289420Y-74976846D01*
X123173118Y-74999980D01*
X123165438Y-75001015D01*
X122983648Y-75014017D01*
X122932582Y-75017364D01*
X122902025Y-75019367D01*
X122897976Y-75019500D01*
X5702024Y-75019500D01*
X5697974Y-75019367D01*
X5659954Y-75016875D01*
X5616350Y-75014017D01*
X5434560Y-75001015D01*
X5426880Y-74999980D01*
X5310579Y-74976846D01*
X5166352Y-74945472D01*
X5159596Y-74943597D01*
X5127881Y-74932831D01*
X5040578Y-74903196D01*
X5005768Y-74890212D01*
X4908257Y-74853841D01*
X4902499Y-74851355D01*
X4787047Y-74794421D01*
X4665091Y-74727828D01*
X4660357Y-74724962D01*
X4553349Y-74653461D01*
X4550639Y-74651543D01*
X4510592Y-74621564D01*
X4441353Y-74569732D01*
X4437648Y-74566729D01*
X4340492Y-74481526D01*
X4337549Y-74478769D01*
X4241228Y-74382448D01*
X4238469Y-74379502D01*
X4205450Y-74341851D01*
X4153265Y-74282345D01*
X4150271Y-74278652D01*
X4068454Y-74169358D01*
X4066537Y-74166649D01*
X3995036Y-74059641D01*
X3992170Y-74054906D01*
X3925578Y-73932952D01*
X3868643Y-73817499D01*
X3866157Y-73811741D01*
X3853076Y-73776671D01*
X3816805Y-73679425D01*
X3776395Y-73560383D01*
X3774531Y-73553666D01*
X3743153Y-73409420D01*
X3738641Y-73386738D01*
X3720015Y-73293100D01*
X3718985Y-73285459D01*
X3705986Y-73103708D01*
X3702938Y-73057198D01*
X3700633Y-73022019D01*
X3700500Y-73017964D01*
X3700500Y-70089594D01*
X20695686Y-70089594D01*
X20726114Y-70366125D01*
X20796478Y-70635272D01*
X20875963Y-70822317D01*
X20905284Y-70891314D01*
X20989285Y-71028955D01*
X21050205Y-71128776D01*
X21050212Y-71128786D01*
X21228161Y-71342616D01*
X21228167Y-71342621D01*
X21393918Y-71491133D01*
X21435357Y-71528263D01*
X21667373Y-71681763D01*
X21919267Y-71799846D01*
X21919274Y-71799848D01*
X21919276Y-71799849D01*
X22185657Y-71879992D01*
X22185664Y-71879993D01*
X22185669Y-71879995D01*
X22460901Y-71920500D01*
X22460906Y-71920500D01*
X22669469Y-71920500D01*
X22729862Y-71916079D01*
X22877455Y-71905277D01*
X23148997Y-71844788D01*
X23408838Y-71745408D01*
X23651440Y-71609253D01*
X23871632Y-71439226D01*
X24064722Y-71238951D01*
X24226593Y-71012696D01*
X24324475Y-70822315D01*
X24353790Y-70765298D01*
X24353794Y-70765288D01*
X24353797Y-70765283D01*
X24441057Y-70509502D01*
X32299500Y-70509502D01*
X32314652Y-70687536D01*
X32374724Y-70918248D01*
X32472919Y-71135480D01*
X32472924Y-71135488D01*
X32606413Y-71332993D01*
X32606418Y-71332998D01*
X32606421Y-71333003D01*
X32771379Y-71505118D01*
X32963053Y-71646879D01*
X33175926Y-71754207D01*
X33403877Y-71824016D01*
X33640346Y-71854298D01*
X33878532Y-71844180D01*
X34111581Y-71793954D01*
X34332790Y-71705064D01*
X34341014Y-71700000D01*
X37144417Y-71700000D01*
X37164699Y-71905932D01*
X37164700Y-71905934D01*
X37224768Y-72103954D01*
X37322315Y-72286450D01*
X37322317Y-72286452D01*
X37453589Y-72446410D01*
X37550209Y-72525702D01*
X37613550Y-72577685D01*
X37796046Y-72675232D01*
X37994066Y-72735300D01*
X37994065Y-72735300D01*
X38032647Y-72739100D01*
X38148392Y-72750500D01*
X38148395Y-72750500D01*
X38251605Y-72750500D01*
X38251608Y-72750500D01*
X38405934Y-72735300D01*
X38603954Y-72675232D01*
X38786450Y-72577685D01*
X38946410Y-72446410D01*
X39077685Y-72286450D01*
X39175232Y-72103954D01*
X39235300Y-71905934D01*
X39255583Y-71700000D01*
X39235300Y-71494066D01*
X39175232Y-71296046D01*
X39077685Y-71113550D01*
X39008259Y-71028954D01*
X38946410Y-70953589D01*
X38786452Y-70822317D01*
X38786453Y-70822317D01*
X38786450Y-70822315D01*
X38603954Y-70724768D01*
X38405934Y-70664700D01*
X38405932Y-70664699D01*
X38405934Y-70664699D01*
X38286805Y-70652966D01*
X38251608Y-70649500D01*
X38148392Y-70649500D01*
X38110298Y-70653251D01*
X37994067Y-70664699D01*
X37796043Y-70724769D01*
X37720248Y-70765283D01*
X37613550Y-70822315D01*
X37613548Y-70822316D01*
X37613547Y-70822317D01*
X37453589Y-70953589D01*
X37322317Y-71113547D01*
X37322315Y-71113550D01*
X37314174Y-71128781D01*
X37224769Y-71296043D01*
X37164699Y-71494067D01*
X37144417Y-71700000D01*
X34341014Y-71700000D01*
X34535795Y-71580069D01*
X34714755Y-71422564D01*
X34864523Y-71237080D01*
X34980790Y-71028954D01*
X35060211Y-70804171D01*
X35084125Y-70664700D01*
X35100499Y-70569209D01*
X35100500Y-70569198D01*
X35100500Y-70509502D01*
X41299500Y-70509502D01*
X41314652Y-70687536D01*
X41374724Y-70918248D01*
X41472919Y-71135480D01*
X41472924Y-71135488D01*
X41606413Y-71332993D01*
X41606418Y-71332998D01*
X41606421Y-71333003D01*
X41771379Y-71505118D01*
X41963053Y-71646879D01*
X42175926Y-71754207D01*
X42403877Y-71824016D01*
X42640346Y-71854298D01*
X42878532Y-71844180D01*
X43111581Y-71793954D01*
X43332790Y-71705064D01*
X43535795Y-71580069D01*
X43714755Y-71422564D01*
X43864523Y-71237080D01*
X43980790Y-71028954D01*
X44060211Y-70804171D01*
X44084125Y-70664700D01*
X44100499Y-70569209D01*
X44100500Y-70569198D01*
X44100500Y-70089594D01*
X51095686Y-70089594D01*
X51126114Y-70366125D01*
X51196478Y-70635272D01*
X51275963Y-70822317D01*
X51305284Y-70891314D01*
X51389285Y-71028955D01*
X51450205Y-71128776D01*
X51450212Y-71128786D01*
X51628161Y-71342616D01*
X51628167Y-71342621D01*
X51793918Y-71491133D01*
X51835357Y-71528263D01*
X52067373Y-71681763D01*
X52319267Y-71799846D01*
X52319274Y-71799848D01*
X52319276Y-71799849D01*
X52585657Y-71879992D01*
X52585664Y-71879993D01*
X52585669Y-71879995D01*
X52860901Y-71920500D01*
X52860906Y-71920500D01*
X53069469Y-71920500D01*
X53129862Y-71916079D01*
X53277455Y-71905277D01*
X53548997Y-71844788D01*
X53808838Y-71745408D01*
X54051440Y-71609253D01*
X54271632Y-71439226D01*
X54464722Y-71238951D01*
X54626593Y-71012696D01*
X54724475Y-70822315D01*
X54753790Y-70765298D01*
X54753794Y-70765288D01*
X54753797Y-70765283D01*
X54843621Y-70501986D01*
X54894152Y-70228416D01*
X54899226Y-70089594D01*
X81495686Y-70089594D01*
X81526114Y-70366125D01*
X81596478Y-70635272D01*
X81675963Y-70822317D01*
X81705284Y-70891314D01*
X81789285Y-71028955D01*
X81850205Y-71128776D01*
X81850212Y-71128786D01*
X82028161Y-71342616D01*
X82028167Y-71342621D01*
X82193918Y-71491133D01*
X82235357Y-71528263D01*
X82467373Y-71681763D01*
X82719267Y-71799846D01*
X82719274Y-71799848D01*
X82719276Y-71799849D01*
X82985657Y-71879992D01*
X82985664Y-71879993D01*
X82985669Y-71879995D01*
X83260901Y-71920500D01*
X83260906Y-71920500D01*
X83469469Y-71920500D01*
X83529862Y-71916079D01*
X83677455Y-71905277D01*
X83948997Y-71844788D01*
X84208838Y-71745408D01*
X84451440Y-71609253D01*
X84671632Y-71439226D01*
X84864722Y-71238951D01*
X85026593Y-71012696D01*
X85124475Y-70822315D01*
X85153790Y-70765298D01*
X85153794Y-70765288D01*
X85153797Y-70765283D01*
X85243621Y-70501986D01*
X85294152Y-70228416D01*
X85299226Y-70089594D01*
X111895686Y-70089594D01*
X111926114Y-70366125D01*
X111996478Y-70635272D01*
X112075963Y-70822317D01*
X112105284Y-70891314D01*
X112189285Y-71028955D01*
X112250205Y-71128776D01*
X112250212Y-71128786D01*
X112428161Y-71342616D01*
X112428167Y-71342621D01*
X112593918Y-71491133D01*
X112635357Y-71528263D01*
X112867373Y-71681763D01*
X113119267Y-71799846D01*
X113119274Y-71799848D01*
X113119276Y-71799849D01*
X113385657Y-71879992D01*
X113385664Y-71879993D01*
X113385669Y-71879995D01*
X113660901Y-71920500D01*
X113660906Y-71920500D01*
X113869469Y-71920500D01*
X113929862Y-71916079D01*
X114077455Y-71905277D01*
X114348997Y-71844788D01*
X114608838Y-71745408D01*
X114851440Y-71609253D01*
X115071632Y-71439226D01*
X115264722Y-71238951D01*
X115426593Y-71012696D01*
X115524475Y-70822315D01*
X115553790Y-70765298D01*
X115553794Y-70765288D01*
X115553797Y-70765283D01*
X115643621Y-70501986D01*
X115694152Y-70228416D01*
X115704313Y-69950404D01*
X115673886Y-69673876D01*
X115603520Y-69404724D01*
X115494716Y-69148686D01*
X115349792Y-68911219D01*
X115258112Y-68801053D01*
X115171838Y-68697383D01*
X115171832Y-68697378D01*
X114964643Y-68511737D01*
X114732629Y-68358238D01*
X114732627Y-68358237D01*
X114480733Y-68240154D01*
X114480728Y-68240152D01*
X114480723Y-68240150D01*
X114214342Y-68160007D01*
X114214328Y-68160004D01*
X114095565Y-68142526D01*
X113939099Y-68119500D01*
X113730537Y-68119500D01*
X113730531Y-68119500D01*
X113522545Y-68134723D01*
X113522535Y-68134724D01*
X113251007Y-68195210D01*
X113250997Y-68195213D01*
X112991161Y-68294592D01*
X112748561Y-68430746D01*
X112748556Y-68430749D01*
X112528369Y-68600772D01*
X112528359Y-68600781D01*
X112335281Y-68801045D01*
X112335274Y-68801053D01*
X112173412Y-69027295D01*
X112173405Y-69027307D01*
X112046209Y-69274701D01*
X112046205Y-69274711D01*
X111956379Y-69538012D01*
X111956378Y-69538018D01*
X111905848Y-69811584D01*
X111905847Y-69811591D01*
X111895686Y-70089594D01*
X85299226Y-70089594D01*
X85304313Y-69950404D01*
X85273886Y-69673876D01*
X85203520Y-69404724D01*
X85094716Y-69148686D01*
X84949792Y-68911219D01*
X84858112Y-68801053D01*
X84771838Y-68697383D01*
X84771832Y-68697378D01*
X84564643Y-68511737D01*
X84332629Y-68358238D01*
X84332627Y-68358237D01*
X84080733Y-68240154D01*
X84080728Y-68240152D01*
X84080723Y-68240150D01*
X83814342Y-68160007D01*
X83814328Y-68160004D01*
X83695565Y-68142526D01*
X83539099Y-68119500D01*
X83330537Y-68119500D01*
X83330531Y-68119500D01*
X83122545Y-68134723D01*
X83122535Y-68134724D01*
X82851007Y-68195210D01*
X82850997Y-68195213D01*
X82591161Y-68294592D01*
X82348561Y-68430746D01*
X82348556Y-68430749D01*
X82128369Y-68600772D01*
X82128359Y-68600781D01*
X81935281Y-68801045D01*
X81935274Y-68801053D01*
X81773412Y-69027295D01*
X81773405Y-69027307D01*
X81646209Y-69274701D01*
X81646205Y-69274711D01*
X81556379Y-69538012D01*
X81556378Y-69538018D01*
X81505848Y-69811584D01*
X81505847Y-69811591D01*
X81495686Y-70089594D01*
X54899226Y-70089594D01*
X54904313Y-69950404D01*
X54873886Y-69673876D01*
X54803520Y-69404724D01*
X54694716Y-69148686D01*
X54549792Y-68911219D01*
X54458112Y-68801053D01*
X54371838Y-68697383D01*
X54371832Y-68697378D01*
X54164643Y-68511737D01*
X53932629Y-68358238D01*
X53932627Y-68358237D01*
X53680733Y-68240154D01*
X53680728Y-68240152D01*
X53680723Y-68240150D01*
X53414342Y-68160007D01*
X53414328Y-68160004D01*
X53295565Y-68142526D01*
X53139099Y-68119500D01*
X52930537Y-68119500D01*
X52930531Y-68119500D01*
X52722545Y-68134723D01*
X52722535Y-68134724D01*
X52451007Y-68195210D01*
X52450997Y-68195213D01*
X52191161Y-68294592D01*
X51948561Y-68430746D01*
X51948556Y-68430749D01*
X51728369Y-68600772D01*
X51728359Y-68600781D01*
X51535281Y-68801045D01*
X51535274Y-68801053D01*
X51373412Y-69027295D01*
X51373405Y-69027307D01*
X51246209Y-69274701D01*
X51246205Y-69274711D01*
X51156379Y-69538012D01*
X51156378Y-69538018D01*
X51105848Y-69811584D01*
X51105847Y-69811591D01*
X51095686Y-70089594D01*
X44100500Y-70089594D01*
X44100500Y-68890498D01*
X44085347Y-68712463D01*
X44025275Y-68481751D01*
X43927080Y-68264519D01*
X43927075Y-68264511D01*
X43793586Y-68067006D01*
X43793582Y-68067001D01*
X43793579Y-68066997D01*
X43628621Y-67894882D01*
X43436947Y-67753121D01*
X43224074Y-67645793D01*
X43094283Y-67606045D01*
X42996121Y-67575983D01*
X42759647Y-67545701D01*
X42521471Y-67555819D01*
X42521467Y-67555819D01*
X42288419Y-67606045D01*
X42067211Y-67694935D01*
X41864203Y-67819932D01*
X41685245Y-67977435D01*
X41612929Y-68066997D01*
X41535477Y-68162920D01*
X41535476Y-68162922D01*
X41419210Y-68371044D01*
X41339788Y-68595829D01*
X41299500Y-68830790D01*
X41299500Y-70509502D01*
X35100500Y-70509502D01*
X35100500Y-68950000D01*
X36375948Y-68950000D01*
X36390864Y-69029804D01*
X36471201Y-69237177D01*
X36471202Y-69237179D01*
X36588278Y-69426261D01*
X36738099Y-69590608D01*
X36915574Y-69724631D01*
X37114649Y-69823759D01*
X37328560Y-69884621D01*
X37494523Y-69900000D01*
X37950000Y-69900000D01*
X37950000Y-69200000D01*
X38450000Y-69200000D01*
X38450000Y-69900000D01*
X38905477Y-69900000D01*
X39071439Y-69884621D01*
X39285350Y-69823759D01*
X39484425Y-69724631D01*
X39661900Y-69590608D01*
X39811721Y-69426261D01*
X39928797Y-69237179D01*
X39928798Y-69237177D01*
X40009135Y-69029804D01*
X40024052Y-68950000D01*
X39283686Y-68950000D01*
X39309493Y-68909844D01*
X39350000Y-68771889D01*
X39350000Y-68628111D01*
X39309493Y-68490156D01*
X39283686Y-68450000D01*
X40024052Y-68450000D01*
X40009135Y-68370195D01*
X39928798Y-68162822D01*
X39928797Y-68162820D01*
X39811721Y-67973738D01*
X39661900Y-67809391D01*
X39484425Y-67675368D01*
X39285350Y-67576240D01*
X39071439Y-67515378D01*
X38905477Y-67500000D01*
X38450000Y-67500000D01*
X38450000Y-68200000D01*
X37950000Y-68200000D01*
X37950000Y-67500000D01*
X37494523Y-67500000D01*
X37328560Y-67515378D01*
X37114649Y-67576240D01*
X36915574Y-67675368D01*
X36738099Y-67809391D01*
X36588278Y-67973738D01*
X36471202Y-68162820D01*
X36471201Y-68162822D01*
X36390864Y-68370195D01*
X36375948Y-68450000D01*
X37116314Y-68450000D01*
X37090507Y-68490156D01*
X37050000Y-68628111D01*
X37050000Y-68771889D01*
X37090507Y-68909844D01*
X37116314Y-68950000D01*
X36375948Y-68950000D01*
X35100500Y-68950000D01*
X35100500Y-68890498D01*
X35085347Y-68712463D01*
X35025275Y-68481751D01*
X34927080Y-68264519D01*
X34927075Y-68264511D01*
X34793586Y-68067006D01*
X34793582Y-68067001D01*
X34793579Y-68066997D01*
X34628621Y-67894882D01*
X34436947Y-67753121D01*
X34224074Y-67645793D01*
X34094283Y-67606045D01*
X33996121Y-67575983D01*
X33759647Y-67545701D01*
X33521471Y-67555819D01*
X33521467Y-67555819D01*
X33288419Y-67606045D01*
X33067211Y-67694935D01*
X32864203Y-67819932D01*
X32685245Y-67977435D01*
X32612929Y-68066997D01*
X32535477Y-68162920D01*
X32535476Y-68162922D01*
X32419210Y-68371044D01*
X32339788Y-68595829D01*
X32299500Y-68830790D01*
X32299500Y-70509502D01*
X24441057Y-70509502D01*
X24443621Y-70501986D01*
X24494152Y-70228416D01*
X24504313Y-69950404D01*
X24473886Y-69673876D01*
X24403520Y-69404724D01*
X24294716Y-69148686D01*
X24149792Y-68911219D01*
X24058112Y-68801053D01*
X23971838Y-68697383D01*
X23971832Y-68697378D01*
X23764643Y-68511737D01*
X23532629Y-68358238D01*
X23532627Y-68358237D01*
X23280733Y-68240154D01*
X23280728Y-68240152D01*
X23280723Y-68240150D01*
X23014342Y-68160007D01*
X23014328Y-68160004D01*
X22895565Y-68142526D01*
X22739099Y-68119500D01*
X22530537Y-68119500D01*
X22530531Y-68119500D01*
X22322545Y-68134723D01*
X22322535Y-68134724D01*
X22051007Y-68195210D01*
X22050997Y-68195213D01*
X21791161Y-68294592D01*
X21548561Y-68430746D01*
X21548556Y-68430749D01*
X21328369Y-68600772D01*
X21328359Y-68600781D01*
X21135281Y-68801045D01*
X21135274Y-68801053D01*
X20973412Y-69027295D01*
X20973405Y-69027307D01*
X20846209Y-69274701D01*
X20846205Y-69274711D01*
X20756379Y-69538012D01*
X20756378Y-69538018D01*
X20705848Y-69811584D01*
X20705847Y-69811591D01*
X20695686Y-70089594D01*
X3700500Y-70089594D01*
X3700500Y-59009441D01*
X8597284Y-59009441D01*
X8632579Y-59245221D01*
X8632579Y-59245224D01*
X8707210Y-59471638D01*
X8819032Y-59682184D01*
X8819036Y-59682190D01*
X8964826Y-59870802D01*
X8964834Y-59870811D01*
X9140397Y-60032067D01*
X9140400Y-60032069D01*
X9140407Y-60032075D01*
X9340713Y-60161351D01*
X9559986Y-60254914D01*
X9564897Y-60256082D01*
X9625563Y-60290743D01*
X9657859Y-60352700D01*
X9651532Y-60422283D01*
X9608590Y-60477399D01*
X9594660Y-60486076D01*
X9454529Y-60560976D01*
X9867466Y-60973913D01*
X9857685Y-60975320D01*
X9726900Y-61035048D01*
X9618239Y-61129202D01*
X9540507Y-61250156D01*
X9516923Y-61330476D01*
X9100976Y-60914529D01*
X9100975Y-60914529D01*
X9025234Y-61056234D01*
X8965191Y-61254166D01*
X8944919Y-61460000D01*
X8965191Y-61665834D01*
X9025233Y-61863766D01*
X9100975Y-62005469D01*
X9100976Y-62005469D01*
X9516922Y-61589523D01*
X9540507Y-61669844D01*
X9618239Y-61790798D01*
X9726900Y-61884952D01*
X9857685Y-61944680D01*
X9867466Y-61946086D01*
X9454528Y-62359023D01*
X9596233Y-62434766D01*
X9794165Y-62494808D01*
X10000000Y-62515080D01*
X10205834Y-62494808D01*
X10403764Y-62434766D01*
X10545470Y-62359022D01*
X10132534Y-61946086D01*
X10142315Y-61944680D01*
X10273100Y-61884952D01*
X10381761Y-61790798D01*
X10459493Y-61669844D01*
X10483076Y-61589523D01*
X10899022Y-62005469D01*
X10974766Y-61863764D01*
X11034808Y-61665834D01*
X11055080Y-61460000D01*
X11034808Y-61254165D01*
X10974766Y-61056233D01*
X10899023Y-60914528D01*
X10483076Y-61330475D01*
X10459493Y-61250156D01*
X10381761Y-61129202D01*
X10273100Y-61035048D01*
X10142315Y-60975320D01*
X10132533Y-60973913D01*
X10545469Y-60560976D01*
X10545469Y-60560975D01*
X10513445Y-60543858D01*
X10463601Y-60494896D01*
X10448140Y-60426759D01*
X10471971Y-60361079D01*
X10527529Y-60318710D01*
X10571898Y-60310500D01*
X22009393Y-60310500D01*
X22076432Y-60330185D01*
X22122187Y-60382989D01*
X22132131Y-60452147D01*
X22103106Y-60515703D01*
X22067846Y-60543858D01*
X22013833Y-60572728D01*
X22013826Y-60572732D01*
X21853944Y-60703944D01*
X21722732Y-60863826D01*
X21722728Y-60863833D01*
X21625233Y-61046233D01*
X21578590Y-61200000D01*
X22166314Y-61200000D01*
X22140507Y-61240156D01*
X22100000Y-61378111D01*
X22100000Y-61521889D01*
X22140507Y-61659844D01*
X22166314Y-61700000D01*
X21578590Y-61700000D01*
X21625233Y-61853766D01*
X21722728Y-62036166D01*
X21722732Y-62036173D01*
X21853944Y-62196055D01*
X22013826Y-62327267D01*
X22013833Y-62327271D01*
X22196233Y-62424766D01*
X22350000Y-62471410D01*
X22350000Y-61885501D01*
X22457685Y-61934680D01*
X22564237Y-61950000D01*
X22635763Y-61950000D01*
X22742315Y-61934680D01*
X22850000Y-61885501D01*
X22850000Y-62471410D01*
X23003766Y-62424766D01*
X23186166Y-62327271D01*
X23186173Y-62327267D01*
X23346055Y-62196055D01*
X23477267Y-62036173D01*
X23477271Y-62036166D01*
X23574766Y-61853766D01*
X23621410Y-61700000D01*
X23033686Y-61700000D01*
X23059493Y-61659844D01*
X23100000Y-61521889D01*
X23100000Y-61378111D01*
X23059493Y-61240156D01*
X23033686Y-61200000D01*
X23621410Y-61200000D01*
X23574766Y-61046233D01*
X23477271Y-60863833D01*
X23477267Y-60863826D01*
X23346055Y-60703944D01*
X23186173Y-60572732D01*
X23186166Y-60572728D01*
X23132154Y-60543858D01*
X23082310Y-60494896D01*
X23066849Y-60426758D01*
X23090680Y-60361079D01*
X23146238Y-60318710D01*
X23190607Y-60310500D01*
X36175500Y-60310500D01*
X36242539Y-60330185D01*
X36288294Y-60382989D01*
X36299500Y-60434500D01*
X36299500Y-61175500D01*
X36279815Y-61242539D01*
X36227011Y-61288294D01*
X36175510Y-61299500D01*
X36168485Y-61299500D01*
X36096435Y-61310911D01*
X36074696Y-61314354D01*
X35961658Y-61371950D01*
X35961657Y-61371951D01*
X35961652Y-61371954D01*
X35871954Y-61461652D01*
X35871951Y-61461657D01*
X35814352Y-61574698D01*
X35799500Y-61668475D01*
X35799500Y-63731517D01*
X35810292Y-63799657D01*
X35814354Y-63825304D01*
X35871950Y-63938342D01*
X35871952Y-63938344D01*
X35871954Y-63938347D01*
X35961652Y-64028045D01*
X35961654Y-64028046D01*
X35961658Y-64028050D01*
X36074694Y-64085645D01*
X36074698Y-64085647D01*
X36168475Y-64100499D01*
X36168481Y-64100500D01*
X36864396Y-64100499D01*
X36931435Y-64120183D01*
X36950462Y-64135232D01*
X36981049Y-64164722D01*
X36981052Y-64164724D01*
X36981053Y-64164725D01*
X37207295Y-64326587D01*
X37207298Y-64326588D01*
X37207304Y-64326593D01*
X37283180Y-64365603D01*
X37454701Y-64453790D01*
X37454711Y-64453794D01*
X37454717Y-64453797D01*
X37718014Y-64543621D01*
X37991584Y-64594152D01*
X38207815Y-64602055D01*
X38269594Y-64604313D01*
X38269594Y-64604312D01*
X38269596Y-64604313D01*
X38546124Y-64573886D01*
X38815276Y-64503520D01*
X39071314Y-64394716D01*
X39308781Y-64249792D01*
X39411000Y-64164725D01*
X39453704Y-64129187D01*
X39517825Y-64101434D01*
X39533023Y-64100499D01*
X40231517Y-64100499D01*
X40231518Y-64100499D01*
X40325304Y-64085646D01*
X40438342Y-64028050D01*
X40528050Y-63938342D01*
X40585646Y-63825304D01*
X40585646Y-63825302D01*
X40585647Y-63825301D01*
X40600499Y-63731524D01*
X40600500Y-63731519D01*
X40600499Y-61668482D01*
X40585646Y-61574696D01*
X40528050Y-61461658D01*
X40528046Y-61461654D01*
X40528045Y-61461652D01*
X40438347Y-61371954D01*
X40438344Y-61371952D01*
X40438342Y-61371950D01*
X40361517Y-61332805D01*
X40325301Y-61314352D01*
X40231524Y-61299500D01*
X40231519Y-61299500D01*
X40224500Y-61299500D01*
X40157461Y-61279815D01*
X40111706Y-61227011D01*
X40100500Y-61175500D01*
X40100500Y-60434500D01*
X40120185Y-60367461D01*
X40172989Y-60321706D01*
X40224500Y-60310500D01*
X52409393Y-60310500D01*
X52476432Y-60330185D01*
X52522187Y-60382989D01*
X52532131Y-60452147D01*
X52503106Y-60515703D01*
X52467846Y-60543858D01*
X52413833Y-60572728D01*
X52413826Y-60572732D01*
X52253944Y-60703944D01*
X52122732Y-60863826D01*
X52122728Y-60863833D01*
X52025233Y-61046233D01*
X51978590Y-61200000D01*
X52566314Y-61200000D01*
X52540507Y-61240156D01*
X52500000Y-61378111D01*
X52500000Y-61521889D01*
X52540507Y-61659844D01*
X52566314Y-61700000D01*
X51978590Y-61700000D01*
X52025233Y-61853766D01*
X52122728Y-62036166D01*
X52122732Y-62036173D01*
X52253944Y-62196055D01*
X52413826Y-62327267D01*
X52413833Y-62327271D01*
X52596233Y-62424766D01*
X52750000Y-62471410D01*
X52750000Y-61885501D01*
X52857685Y-61934680D01*
X52964237Y-61950000D01*
X53035763Y-61950000D01*
X53142315Y-61934680D01*
X53250000Y-61885501D01*
X53250000Y-62471410D01*
X53403766Y-62424766D01*
X53586166Y-62327271D01*
X53586173Y-62327267D01*
X53746055Y-62196055D01*
X53877267Y-62036173D01*
X53877271Y-62036166D01*
X53974766Y-61853766D01*
X54021410Y-61700000D01*
X53433686Y-61700000D01*
X53459493Y-61659844D01*
X53500000Y-61521889D01*
X53500000Y-61378111D01*
X53459493Y-61240156D01*
X53433686Y-61200000D01*
X54021410Y-61200000D01*
X53974766Y-61046233D01*
X53877271Y-60863833D01*
X53877267Y-60863826D01*
X53746055Y-60703944D01*
X53586173Y-60572732D01*
X53586166Y-60572728D01*
X53532154Y-60543858D01*
X53482310Y-60494896D01*
X53466849Y-60426758D01*
X53490680Y-60361079D01*
X53546238Y-60318710D01*
X53590607Y-60310500D01*
X82809393Y-60310500D01*
X82876432Y-60330185D01*
X82922187Y-60382989D01*
X82932131Y-60452147D01*
X82903106Y-60515703D01*
X82867846Y-60543858D01*
X82813833Y-60572728D01*
X82813826Y-60572732D01*
X82653944Y-60703944D01*
X82522732Y-60863826D01*
X82522728Y-60863833D01*
X82425233Y-61046233D01*
X82378590Y-61200000D01*
X82966314Y-61200000D01*
X82940507Y-61240156D01*
X82900000Y-61378111D01*
X82900000Y-61521889D01*
X82940507Y-61659844D01*
X82966314Y-61700000D01*
X82378590Y-61700000D01*
X82425233Y-61853766D01*
X82522728Y-62036166D01*
X82522732Y-62036173D01*
X82653944Y-62196055D01*
X82813826Y-62327267D01*
X82813833Y-62327271D01*
X82996233Y-62424766D01*
X83150000Y-62471410D01*
X83150000Y-61885501D01*
X83257685Y-61934680D01*
X83364237Y-61950000D01*
X83435763Y-61950000D01*
X83542315Y-61934680D01*
X83650000Y-61885501D01*
X83650000Y-62471410D01*
X83803766Y-62424766D01*
X83986166Y-62327271D01*
X83986173Y-62327267D01*
X84146055Y-62196055D01*
X84277267Y-62036173D01*
X84277271Y-62036166D01*
X84374766Y-61853766D01*
X84421410Y-61700000D01*
X83833686Y-61700000D01*
X83859493Y-61659844D01*
X83900000Y-61521889D01*
X83900000Y-61378111D01*
X83859493Y-61240156D01*
X83833686Y-61200000D01*
X84421410Y-61200000D01*
X84374766Y-61046233D01*
X84277271Y-60863833D01*
X84277267Y-60863826D01*
X84146055Y-60703944D01*
X83986173Y-60572732D01*
X83986166Y-60572728D01*
X83932154Y-60543858D01*
X83882310Y-60494896D01*
X83866849Y-60426758D01*
X83890680Y-60361079D01*
X83946238Y-60318710D01*
X83990607Y-60310500D01*
X113209393Y-60310500D01*
X113276432Y-60330185D01*
X113322187Y-60382989D01*
X113332131Y-60452147D01*
X113303106Y-60515703D01*
X113267846Y-60543858D01*
X113213833Y-60572728D01*
X113213826Y-60572732D01*
X113053944Y-60703944D01*
X112922732Y-60863826D01*
X112922728Y-60863833D01*
X112825233Y-61046233D01*
X112778590Y-61200000D01*
X113366314Y-61200000D01*
X113340507Y-61240156D01*
X113300000Y-61378111D01*
X113300000Y-61521889D01*
X113340507Y-61659844D01*
X113366314Y-61700000D01*
X112778590Y-61700000D01*
X112825233Y-61853766D01*
X112922728Y-62036166D01*
X112922732Y-62036173D01*
X113053944Y-62196055D01*
X113213826Y-62327267D01*
X113213833Y-62327271D01*
X113396233Y-62424766D01*
X113550000Y-62471410D01*
X113550000Y-61885501D01*
X113657685Y-61934680D01*
X113764237Y-61950000D01*
X113835763Y-61950000D01*
X113942315Y-61934680D01*
X114050000Y-61885501D01*
X114050000Y-62471410D01*
X114203766Y-62424766D01*
X114386166Y-62327271D01*
X114386173Y-62327267D01*
X114546055Y-62196055D01*
X114677267Y-62036173D01*
X114677271Y-62036166D01*
X114774766Y-61853766D01*
X114821410Y-61700000D01*
X114233686Y-61700000D01*
X114259493Y-61659844D01*
X114300000Y-61521889D01*
X114300000Y-61378111D01*
X114259493Y-61240156D01*
X114233686Y-61200000D01*
X114821410Y-61200000D01*
X114774766Y-61046233D01*
X114677271Y-60863833D01*
X114677267Y-60863826D01*
X114546055Y-60703944D01*
X114386173Y-60572732D01*
X114386166Y-60572728D01*
X114350863Y-60553858D01*
X114301018Y-60504896D01*
X114285558Y-60436758D01*
X114309390Y-60371078D01*
X114364947Y-60328710D01*
X114409316Y-60320500D01*
X116909393Y-60320500D01*
X116976432Y-60340185D01*
X117022187Y-60392989D01*
X117032131Y-60462147D01*
X117003106Y-60525703D01*
X116967846Y-60553858D01*
X116913833Y-60582728D01*
X116913826Y-60582732D01*
X116753944Y-60713944D01*
X116622732Y-60873826D01*
X116622728Y-60873833D01*
X116525233Y-61056233D01*
X116478590Y-61210000D01*
X117066314Y-61210000D01*
X117040507Y-61250156D01*
X117000000Y-61388111D01*
X117000000Y-61531889D01*
X117040507Y-61669844D01*
X117066314Y-61710000D01*
X116478590Y-61710000D01*
X116525233Y-61863766D01*
X116622728Y-62046166D01*
X116622732Y-62046173D01*
X116753944Y-62206055D01*
X116913826Y-62337267D01*
X116913833Y-62337271D01*
X117096233Y-62434766D01*
X117250000Y-62481410D01*
X117250000Y-61895501D01*
X117357685Y-61944680D01*
X117464237Y-61960000D01*
X117535763Y-61960000D01*
X117642315Y-61944680D01*
X117750000Y-61895501D01*
X117750000Y-62481410D01*
X117903766Y-62434766D01*
X118086166Y-62337271D01*
X118086173Y-62337267D01*
X118246055Y-62206055D01*
X118377267Y-62046173D01*
X118377271Y-62046166D01*
X118474766Y-61863766D01*
X118521410Y-61710000D01*
X117933686Y-61710000D01*
X117959493Y-61669844D01*
X118000000Y-61531889D01*
X118000000Y-61388111D01*
X117959493Y-61250156D01*
X117933686Y-61210000D01*
X118521410Y-61210000D01*
X118474766Y-61056233D01*
X118377271Y-60873833D01*
X118377267Y-60873826D01*
X118246055Y-60713944D01*
X118086173Y-60582732D01*
X118086166Y-60582728D01*
X117902639Y-60484631D01*
X117852795Y-60435669D01*
X117837334Y-60367531D01*
X117861166Y-60301852D01*
X117916723Y-60259483D01*
X117929848Y-60255274D01*
X117968246Y-60245276D01*
X117968246Y-60245275D01*
X117968249Y-60245275D01*
X118153909Y-60161351D01*
X118185480Y-60147080D01*
X118185481Y-60147078D01*
X118185486Y-60147077D01*
X118383003Y-60013579D01*
X118555118Y-59848621D01*
X118696879Y-59656947D01*
X118804207Y-59444074D01*
X118874016Y-59216123D01*
X118904298Y-58979654D01*
X118894180Y-58741468D01*
X118843954Y-58508419D01*
X118755064Y-58287210D01*
X118630069Y-58084205D01*
X118472564Y-57905245D01*
X118287080Y-57755477D01*
X118141920Y-57674385D01*
X118092995Y-57624506D01*
X118078803Y-57556093D01*
X118103851Y-57490867D01*
X118131267Y-57464561D01*
X118306877Y-57341598D01*
X118461598Y-57186877D01*
X118587102Y-57007639D01*
X118679575Y-56809330D01*
X118736207Y-56597977D01*
X118755277Y-56380000D01*
X118754402Y-56370002D01*
X118751569Y-56337618D01*
X118736207Y-56162023D01*
X118679575Y-55950670D01*
X118587102Y-55752362D01*
X118587100Y-55752359D01*
X118587099Y-55752357D01*
X118461599Y-55573124D01*
X118451596Y-55563121D01*
X118306877Y-55418402D01*
X118127639Y-55292898D01*
X117976414Y-55222381D01*
X117923977Y-55176210D01*
X117904825Y-55109016D01*
X117925041Y-55042135D01*
X117976414Y-54997618D01*
X118127639Y-54927102D01*
X118306877Y-54801598D01*
X118461598Y-54646877D01*
X118587102Y-54467639D01*
X118679575Y-54269330D01*
X118736207Y-54057977D01*
X118755277Y-53840000D01*
X118754402Y-53830002D01*
X118751569Y-53797618D01*
X118736207Y-53622023D01*
X118679575Y-53410670D01*
X118587102Y-53212362D01*
X118587100Y-53212359D01*
X118587099Y-53212357D01*
X118461599Y-53033124D01*
X118451596Y-53023121D01*
X118306877Y-52878402D01*
X118127639Y-52752898D01*
X117976414Y-52682381D01*
X117923977Y-52636210D01*
X117904825Y-52569016D01*
X117925041Y-52502135D01*
X117976414Y-52457618D01*
X118127639Y-52387102D01*
X118306877Y-52261598D01*
X118461598Y-52106877D01*
X118587102Y-51927639D01*
X118679575Y-51729330D01*
X118736207Y-51517977D01*
X118755277Y-51300000D01*
X118754402Y-51290002D01*
X118751569Y-51257618D01*
X118736207Y-51082023D01*
X118679575Y-50870670D01*
X118587102Y-50672362D01*
X118587100Y-50672359D01*
X118587099Y-50672357D01*
X118461599Y-50493124D01*
X118451596Y-50483121D01*
X118306877Y-50338402D01*
X118127639Y-50212898D01*
X118127640Y-50212898D01*
X118127638Y-50212897D01*
X118028484Y-50166661D01*
X117929330Y-50120425D01*
X117929326Y-50120424D01*
X117929322Y-50120422D01*
X117717977Y-50063793D01*
X117500002Y-50044723D01*
X117499998Y-50044723D01*
X117354682Y-50057436D01*
X117282023Y-50063793D01*
X117282020Y-50063793D01*
X117070677Y-50120422D01*
X117070668Y-50120426D01*
X116872361Y-50212898D01*
X116872357Y-50212900D01*
X116693121Y-50338402D01*
X116538402Y-50493121D01*
X116412900Y-50672357D01*
X116412898Y-50672361D01*
X116320426Y-50870668D01*
X116320422Y-50870677D01*
X116263793Y-51082020D01*
X116263793Y-51082024D01*
X116244723Y-51299997D01*
X116244723Y-51300002D01*
X116263793Y-51517975D01*
X116263793Y-51517979D01*
X116320422Y-51729322D01*
X116320424Y-51729326D01*
X116320425Y-51729330D01*
X116366661Y-51828484D01*
X116412897Y-51927638D01*
X116412898Y-51927639D01*
X116538402Y-52106877D01*
X116693123Y-52261598D01*
X116858078Y-52377101D01*
X116872361Y-52387102D01*
X117023583Y-52457618D01*
X117076022Y-52503790D01*
X117095174Y-52570984D01*
X117074958Y-52637865D01*
X117023583Y-52682382D01*
X116872361Y-52752898D01*
X116872357Y-52752900D01*
X116693121Y-52878402D01*
X116538402Y-53033121D01*
X116412900Y-53212357D01*
X116412898Y-53212361D01*
X116320426Y-53410668D01*
X116320422Y-53410677D01*
X116263793Y-53622020D01*
X116263793Y-53622024D01*
X116244723Y-53839997D01*
X116244723Y-53840002D01*
X116263793Y-54057975D01*
X116263793Y-54057979D01*
X116320422Y-54269322D01*
X116320424Y-54269326D01*
X116320425Y-54269330D01*
X116366661Y-54368484D01*
X116412897Y-54467638D01*
X116412898Y-54467639D01*
X116538402Y-54646877D01*
X116693123Y-54801598D01*
X116858078Y-54917101D01*
X116872361Y-54927102D01*
X117023583Y-54997618D01*
X117076022Y-55043790D01*
X117095174Y-55110984D01*
X117074958Y-55177865D01*
X117023583Y-55222382D01*
X116872361Y-55292898D01*
X116872357Y-55292900D01*
X116693121Y-55418402D01*
X116538402Y-55573121D01*
X116412900Y-55752357D01*
X116412898Y-55752361D01*
X116320426Y-55950668D01*
X116320422Y-55950677D01*
X116263793Y-56162020D01*
X116263793Y-56162024D01*
X116244723Y-56379997D01*
X116244723Y-56380002D01*
X116263793Y-56597975D01*
X116263793Y-56597979D01*
X116320422Y-56809322D01*
X116320424Y-56809326D01*
X116320425Y-56809330D01*
X116366661Y-56908484D01*
X116412897Y-57007638D01*
X116412898Y-57007639D01*
X116538402Y-57186877D01*
X116538406Y-57186881D01*
X116659344Y-57307819D01*
X116692829Y-57369142D01*
X116687845Y-57438834D01*
X116645973Y-57494767D01*
X116580509Y-57519184D01*
X116571663Y-57519500D01*
X114718337Y-57519500D01*
X114651298Y-57499815D01*
X114605543Y-57447011D01*
X114595599Y-57377853D01*
X114624624Y-57314297D01*
X114630656Y-57307819D01*
X114655070Y-57283405D01*
X114761598Y-57176877D01*
X114887102Y-56997639D01*
X114979575Y-56799330D01*
X115036207Y-56587977D01*
X115054402Y-56380000D01*
X115055277Y-56370002D01*
X115055277Y-56369997D01*
X115051569Y-56327618D01*
X115036207Y-56152023D01*
X114982256Y-55950677D01*
X114979577Y-55940677D01*
X114979576Y-55940676D01*
X114979575Y-55940670D01*
X114887102Y-55742362D01*
X114887100Y-55742359D01*
X114887099Y-55742357D01*
X114761599Y-55563124D01*
X114761596Y-55563121D01*
X114606877Y-55408402D01*
X114427639Y-55282898D01*
X114276414Y-55212381D01*
X114223977Y-55166210D01*
X114204825Y-55099016D01*
X114225041Y-55032135D01*
X114276414Y-54987618D01*
X114427639Y-54917102D01*
X114606877Y-54791598D01*
X114761598Y-54636877D01*
X114887102Y-54457639D01*
X114979575Y-54259330D01*
X115036207Y-54047977D01*
X115054402Y-53840000D01*
X115055277Y-53830002D01*
X115055277Y-53829997D01*
X115051569Y-53787618D01*
X115036207Y-53612023D01*
X114982256Y-53410677D01*
X114979577Y-53400677D01*
X114979576Y-53400676D01*
X114979575Y-53400670D01*
X114887102Y-53202362D01*
X114887100Y-53202359D01*
X114887099Y-53202357D01*
X114761599Y-53023124D01*
X114761596Y-53023121D01*
X114606877Y-52868402D01*
X114427639Y-52742898D01*
X114276414Y-52672381D01*
X114223977Y-52626210D01*
X114204825Y-52559016D01*
X114225041Y-52492135D01*
X114276414Y-52447618D01*
X114427639Y-52377102D01*
X114606877Y-52251598D01*
X114761598Y-52096877D01*
X114887102Y-51917639D01*
X114979575Y-51719330D01*
X115036207Y-51507977D01*
X115054402Y-51300000D01*
X115055277Y-51290002D01*
X115055277Y-51289997D01*
X115051569Y-51247618D01*
X115036207Y-51072023D01*
X114982256Y-50870677D01*
X114979577Y-50860677D01*
X114979576Y-50860676D01*
X114979575Y-50860670D01*
X114887102Y-50662362D01*
X114887100Y-50662359D01*
X114887099Y-50662357D01*
X114761599Y-50483124D01*
X114761596Y-50483121D01*
X114606877Y-50328402D01*
X114468978Y-50231844D01*
X114427638Y-50202897D01*
X114328484Y-50156661D01*
X114229330Y-50110425D01*
X114229326Y-50110424D01*
X114229322Y-50110422D01*
X114017977Y-50053793D01*
X113800002Y-50034723D01*
X113799998Y-50034723D01*
X113685696Y-50044723D01*
X113582023Y-50053793D01*
X113582020Y-50053793D01*
X113370677Y-50110422D01*
X113370668Y-50110426D01*
X113172361Y-50202898D01*
X113172357Y-50202900D01*
X112993121Y-50328402D01*
X112838402Y-50483121D01*
X112712900Y-50662357D01*
X112712898Y-50662361D01*
X112620426Y-50860668D01*
X112620422Y-50860677D01*
X112563793Y-51072020D01*
X112563793Y-51072024D01*
X112544723Y-51289997D01*
X112544723Y-51290002D01*
X112563793Y-51507975D01*
X112563793Y-51507979D01*
X112620422Y-51719322D01*
X112620424Y-51719326D01*
X112620425Y-51719330D01*
X112625089Y-51729331D01*
X112712897Y-51917638D01*
X112712898Y-51917639D01*
X112838402Y-52096877D01*
X112993123Y-52251598D01*
X113172360Y-52377101D01*
X113172361Y-52377102D01*
X113323583Y-52447618D01*
X113376022Y-52493790D01*
X113395174Y-52560984D01*
X113374958Y-52627865D01*
X113323583Y-52672382D01*
X113172361Y-52742898D01*
X113172357Y-52742900D01*
X112993121Y-52868402D01*
X112838402Y-53023121D01*
X112712900Y-53202357D01*
X112712898Y-53202361D01*
X112620426Y-53400668D01*
X112620422Y-53400677D01*
X112563793Y-53612020D01*
X112563793Y-53612024D01*
X112544723Y-53829997D01*
X112544723Y-53830002D01*
X112563793Y-54047975D01*
X112563793Y-54047979D01*
X112620422Y-54259322D01*
X112620424Y-54259326D01*
X112620425Y-54259330D01*
X112625089Y-54269331D01*
X112712897Y-54457638D01*
X112712898Y-54457639D01*
X112838402Y-54636877D01*
X112993123Y-54791598D01*
X113172360Y-54917101D01*
X113172361Y-54917102D01*
X113323583Y-54987618D01*
X113376022Y-55033790D01*
X113395174Y-55100984D01*
X113374958Y-55167865D01*
X113323583Y-55212382D01*
X113172361Y-55282898D01*
X113172357Y-55282900D01*
X112993121Y-55408402D01*
X112838402Y-55563121D01*
X112712900Y-55742357D01*
X112712898Y-55742361D01*
X112620426Y-55940668D01*
X112620422Y-55940677D01*
X112563793Y-56152020D01*
X112563793Y-56152024D01*
X112544723Y-56369997D01*
X112544723Y-56370002D01*
X112563793Y-56587975D01*
X112563793Y-56587979D01*
X112620422Y-56799322D01*
X112620424Y-56799326D01*
X112620425Y-56799330D01*
X112625089Y-56809331D01*
X112712897Y-56997638D01*
X112718533Y-57005687D01*
X112838402Y-57176877D01*
X112838406Y-57176881D01*
X112959344Y-57297819D01*
X112992829Y-57359142D01*
X112987845Y-57428834D01*
X112945973Y-57484767D01*
X112880509Y-57509184D01*
X112871663Y-57509500D01*
X84328337Y-57509500D01*
X84261298Y-57489815D01*
X84215543Y-57437011D01*
X84205599Y-57367853D01*
X84234624Y-57304297D01*
X84240656Y-57297819D01*
X84255070Y-57283405D01*
X84361598Y-57176877D01*
X84487102Y-56997639D01*
X84579575Y-56799330D01*
X84636207Y-56587977D01*
X84654402Y-56380000D01*
X84655277Y-56370002D01*
X84655277Y-56369997D01*
X84651569Y-56327618D01*
X84636207Y-56152023D01*
X84582256Y-55950677D01*
X84579577Y-55940677D01*
X84579576Y-55940676D01*
X84579575Y-55940670D01*
X84487102Y-55742362D01*
X84487100Y-55742359D01*
X84487099Y-55742357D01*
X84361599Y-55563124D01*
X84361596Y-55563121D01*
X84206877Y-55408402D01*
X84027639Y-55282898D01*
X83876414Y-55212381D01*
X83823977Y-55166210D01*
X83804825Y-55099016D01*
X83825041Y-55032135D01*
X83876414Y-54987618D01*
X84027639Y-54917102D01*
X84206877Y-54791598D01*
X84361598Y-54636877D01*
X84487102Y-54457639D01*
X84579575Y-54259330D01*
X84636207Y-54047977D01*
X84654402Y-53840000D01*
X84655277Y-53830002D01*
X84655277Y-53829997D01*
X84651569Y-53787618D01*
X84636207Y-53612023D01*
X84582256Y-53410677D01*
X84579577Y-53400677D01*
X84579576Y-53400676D01*
X84579575Y-53400670D01*
X84487102Y-53202362D01*
X84487100Y-53202359D01*
X84487099Y-53202357D01*
X84361599Y-53023124D01*
X84361596Y-53023121D01*
X84206877Y-52868402D01*
X84027639Y-52742898D01*
X83876414Y-52672381D01*
X83823977Y-52626210D01*
X83804825Y-52559016D01*
X83825041Y-52492135D01*
X83876414Y-52447618D01*
X84027639Y-52377102D01*
X84206877Y-52251598D01*
X84361598Y-52096877D01*
X84487102Y-51917639D01*
X84579575Y-51719330D01*
X84636207Y-51507977D01*
X84654402Y-51300000D01*
X84655277Y-51290002D01*
X84655277Y-51289997D01*
X84651569Y-51247618D01*
X84636207Y-51072023D01*
X84582256Y-50870677D01*
X84579577Y-50860677D01*
X84579576Y-50860676D01*
X84579575Y-50860670D01*
X84487102Y-50662362D01*
X84487100Y-50662359D01*
X84487099Y-50662357D01*
X84361599Y-50483124D01*
X84361596Y-50483121D01*
X84206877Y-50328402D01*
X84068978Y-50231844D01*
X84027638Y-50202897D01*
X83928484Y-50156661D01*
X83829330Y-50110425D01*
X83829326Y-50110424D01*
X83829322Y-50110422D01*
X83617977Y-50053793D01*
X83400002Y-50034723D01*
X83399998Y-50034723D01*
X83285696Y-50044723D01*
X83182023Y-50053793D01*
X83182020Y-50053793D01*
X82970677Y-50110422D01*
X82970668Y-50110426D01*
X82772361Y-50202898D01*
X82772357Y-50202900D01*
X82593121Y-50328402D01*
X82438402Y-50483121D01*
X82312900Y-50662357D01*
X82312898Y-50662361D01*
X82220426Y-50860668D01*
X82220422Y-50860677D01*
X82163793Y-51072020D01*
X82163793Y-51072024D01*
X82144723Y-51289997D01*
X82144723Y-51290002D01*
X82163793Y-51507975D01*
X82163793Y-51507979D01*
X82220422Y-51719322D01*
X82220424Y-51719326D01*
X82220425Y-51719330D01*
X82225089Y-51729331D01*
X82312897Y-51917638D01*
X82312898Y-51917639D01*
X82438402Y-52096877D01*
X82593123Y-52251598D01*
X82772360Y-52377101D01*
X82772361Y-52377102D01*
X82923583Y-52447618D01*
X82976022Y-52493790D01*
X82995174Y-52560984D01*
X82974958Y-52627865D01*
X82923583Y-52672382D01*
X82772361Y-52742898D01*
X82772357Y-52742900D01*
X82593121Y-52868402D01*
X82438402Y-53023121D01*
X82312900Y-53202357D01*
X82312898Y-53202361D01*
X82220426Y-53400668D01*
X82220422Y-53400677D01*
X82163793Y-53612020D01*
X82163793Y-53612024D01*
X82144723Y-53829997D01*
X82144723Y-53830002D01*
X82163793Y-54047975D01*
X82163793Y-54047979D01*
X82220422Y-54259322D01*
X82220424Y-54259326D01*
X82220425Y-54259330D01*
X82225089Y-54269331D01*
X82312897Y-54457638D01*
X82312898Y-54457639D01*
X82438402Y-54636877D01*
X82593123Y-54791598D01*
X82772360Y-54917101D01*
X82772361Y-54917102D01*
X82923583Y-54987618D01*
X82976022Y-55033790D01*
X82995174Y-55100984D01*
X82974958Y-55167865D01*
X82923583Y-55212382D01*
X82772361Y-55282898D01*
X82772357Y-55282900D01*
X82593121Y-55408402D01*
X82438402Y-55563121D01*
X82312900Y-55742357D01*
X82312898Y-55742361D01*
X82220426Y-55940668D01*
X82220422Y-55940677D01*
X82163793Y-56152020D01*
X82163793Y-56152024D01*
X82144723Y-56369997D01*
X82144723Y-56370002D01*
X82163793Y-56587975D01*
X82163793Y-56587979D01*
X82220422Y-56799322D01*
X82220424Y-56799326D01*
X82220425Y-56799330D01*
X82225089Y-56809331D01*
X82312897Y-56997638D01*
X82318533Y-57005687D01*
X82438402Y-57176877D01*
X82438406Y-57176881D01*
X82559344Y-57297819D01*
X82592829Y-57359142D01*
X82587845Y-57428834D01*
X82545973Y-57484767D01*
X82480509Y-57509184D01*
X82471663Y-57509500D01*
X53928337Y-57509500D01*
X53861298Y-57489815D01*
X53815543Y-57437011D01*
X53805599Y-57367853D01*
X53834624Y-57304297D01*
X53840656Y-57297819D01*
X53855070Y-57283405D01*
X53961598Y-57176877D01*
X54087102Y-56997639D01*
X54179575Y-56799330D01*
X54236207Y-56587977D01*
X54254402Y-56380000D01*
X54255277Y-56370002D01*
X54255277Y-56369997D01*
X54251569Y-56327618D01*
X54236207Y-56152023D01*
X54182256Y-55950677D01*
X54179577Y-55940677D01*
X54179576Y-55940676D01*
X54179575Y-55940670D01*
X54087102Y-55742362D01*
X54087100Y-55742359D01*
X54087099Y-55742357D01*
X53961599Y-55563124D01*
X53961596Y-55563121D01*
X53806877Y-55408402D01*
X53627639Y-55282898D01*
X53476414Y-55212381D01*
X53423977Y-55166210D01*
X53404825Y-55099016D01*
X53425041Y-55032135D01*
X53476414Y-54987618D01*
X53627639Y-54917102D01*
X53806877Y-54791598D01*
X53961598Y-54636877D01*
X54087102Y-54457639D01*
X54179575Y-54259330D01*
X54236207Y-54047977D01*
X54254402Y-53840000D01*
X54255277Y-53830002D01*
X54255277Y-53829997D01*
X54251569Y-53787618D01*
X54236207Y-53612023D01*
X54182256Y-53410677D01*
X54179577Y-53400677D01*
X54179576Y-53400676D01*
X54179575Y-53400670D01*
X54087102Y-53202362D01*
X54087100Y-53202359D01*
X54087099Y-53202357D01*
X53961599Y-53023124D01*
X53961596Y-53023121D01*
X53806877Y-52868402D01*
X53627639Y-52742898D01*
X53476414Y-52672381D01*
X53423977Y-52626210D01*
X53404825Y-52559016D01*
X53425041Y-52492135D01*
X53476414Y-52447618D01*
X53627639Y-52377102D01*
X53806877Y-52251598D01*
X53961598Y-52096877D01*
X54087102Y-51917639D01*
X54179575Y-51719330D01*
X54236207Y-51507977D01*
X54254402Y-51300000D01*
X54255277Y-51290002D01*
X54255277Y-51289997D01*
X54251569Y-51247618D01*
X54236207Y-51072023D01*
X54182256Y-50870677D01*
X54179577Y-50860677D01*
X54179576Y-50860676D01*
X54179575Y-50860670D01*
X54087102Y-50662362D01*
X54087100Y-50662359D01*
X54087099Y-50662357D01*
X53961599Y-50483124D01*
X53961596Y-50483121D01*
X53806877Y-50328402D01*
X53668978Y-50231844D01*
X53627638Y-50202897D01*
X53528484Y-50156661D01*
X53429330Y-50110425D01*
X53429326Y-50110424D01*
X53429322Y-50110422D01*
X53217977Y-50053793D01*
X53000002Y-50034723D01*
X52999998Y-50034723D01*
X52885696Y-50044723D01*
X52782023Y-50053793D01*
X52782020Y-50053793D01*
X52570677Y-50110422D01*
X52570668Y-50110426D01*
X52372361Y-50202898D01*
X52372357Y-50202900D01*
X52193121Y-50328402D01*
X52038402Y-50483121D01*
X51912900Y-50662357D01*
X51912898Y-50662361D01*
X51820426Y-50860668D01*
X51820422Y-50860677D01*
X51763793Y-51072020D01*
X51763793Y-51072024D01*
X51744723Y-51289997D01*
X51744723Y-51290002D01*
X51763793Y-51507975D01*
X51763793Y-51507979D01*
X51820422Y-51719322D01*
X51820424Y-51719326D01*
X51820425Y-51719330D01*
X51825089Y-51729331D01*
X51912897Y-51917638D01*
X51912898Y-51917639D01*
X52038402Y-52096877D01*
X52193123Y-52251598D01*
X52372360Y-52377101D01*
X52372361Y-52377102D01*
X52523583Y-52447618D01*
X52576022Y-52493790D01*
X52595174Y-52560984D01*
X52574958Y-52627865D01*
X52523583Y-52672382D01*
X52372361Y-52742898D01*
X52372357Y-52742900D01*
X52193121Y-52868402D01*
X52038402Y-53023121D01*
X51912900Y-53202357D01*
X51912898Y-53202361D01*
X51820426Y-53400668D01*
X51820422Y-53400677D01*
X51763793Y-53612020D01*
X51763793Y-53612024D01*
X51744723Y-53829997D01*
X51744723Y-53830002D01*
X51763793Y-54047975D01*
X51763793Y-54047979D01*
X51820422Y-54259322D01*
X51820424Y-54259326D01*
X51820425Y-54259330D01*
X51825089Y-54269331D01*
X51912897Y-54457638D01*
X51912898Y-54457639D01*
X52038402Y-54636877D01*
X52193123Y-54791598D01*
X52372360Y-54917101D01*
X52372361Y-54917102D01*
X52523583Y-54987618D01*
X52576022Y-55033790D01*
X52595174Y-55100984D01*
X52574958Y-55167865D01*
X52523583Y-55212382D01*
X52372361Y-55282898D01*
X52372357Y-55282900D01*
X52193121Y-55408402D01*
X52038402Y-55563121D01*
X51912900Y-55742357D01*
X51912898Y-55742361D01*
X51820426Y-55940668D01*
X51820422Y-55940677D01*
X51763793Y-56152020D01*
X51763793Y-56152024D01*
X51744723Y-56369997D01*
X51744723Y-56370002D01*
X51763793Y-56587975D01*
X51763793Y-56587979D01*
X51820422Y-56799322D01*
X51820424Y-56799326D01*
X51820425Y-56799330D01*
X51825089Y-56809331D01*
X51912897Y-56997638D01*
X51918533Y-57005687D01*
X52038402Y-57176877D01*
X52038406Y-57176881D01*
X52159344Y-57297819D01*
X52192829Y-57359142D01*
X52187845Y-57428834D01*
X52145973Y-57484767D01*
X52080509Y-57509184D01*
X52071663Y-57509500D01*
X39535603Y-57509500D01*
X39468564Y-57489815D01*
X39449537Y-57474767D01*
X39418954Y-57445281D01*
X39418946Y-57445274D01*
X39192704Y-57283412D01*
X39192698Y-57283408D01*
X39192696Y-57283407D01*
X39184782Y-57279338D01*
X38945298Y-57156209D01*
X38945288Y-57156205D01*
X38945284Y-57156203D01*
X38945283Y-57156203D01*
X38799532Y-57106480D01*
X38681987Y-57066379D01*
X38681981Y-57066378D01*
X38518134Y-57036114D01*
X38408416Y-57015848D01*
X38408414Y-57015847D01*
X38408408Y-57015847D01*
X38130405Y-57005686D01*
X37853874Y-57036114D01*
X37584727Y-57106478D01*
X37328691Y-57215281D01*
X37091223Y-57360205D01*
X37091213Y-57360212D01*
X36946297Y-57480812D01*
X36882176Y-57508565D01*
X36866978Y-57509500D01*
X23528337Y-57509500D01*
X23461298Y-57489815D01*
X23415543Y-57437011D01*
X23405599Y-57367853D01*
X23434624Y-57304297D01*
X23440656Y-57297819D01*
X23455070Y-57283405D01*
X23561598Y-57176877D01*
X23687102Y-56997639D01*
X23779575Y-56799330D01*
X23836207Y-56587977D01*
X23854402Y-56380000D01*
X23855277Y-56370002D01*
X23855277Y-56369997D01*
X23851569Y-56327618D01*
X23836207Y-56152023D01*
X23782256Y-55950677D01*
X23779577Y-55940677D01*
X23779576Y-55940676D01*
X23779575Y-55940670D01*
X23687102Y-55742362D01*
X23687100Y-55742359D01*
X23687099Y-55742357D01*
X23561599Y-55563124D01*
X23561596Y-55563121D01*
X23406877Y-55408402D01*
X23227639Y-55282898D01*
X23076414Y-55212381D01*
X23023977Y-55166210D01*
X23004825Y-55099016D01*
X23025041Y-55032135D01*
X23076414Y-54987618D01*
X23227639Y-54917102D01*
X23406877Y-54791598D01*
X23561598Y-54636877D01*
X23687102Y-54457639D01*
X23779575Y-54259330D01*
X23836207Y-54047977D01*
X23854402Y-53840000D01*
X23855277Y-53830002D01*
X23855277Y-53829997D01*
X23851569Y-53787618D01*
X23836207Y-53612023D01*
X23782256Y-53410677D01*
X23779577Y-53400677D01*
X23779576Y-53400676D01*
X23779575Y-53400670D01*
X23687102Y-53202362D01*
X23687100Y-53202359D01*
X23687099Y-53202357D01*
X23561599Y-53023124D01*
X23561596Y-53023121D01*
X23406877Y-52868402D01*
X23227639Y-52742898D01*
X23076414Y-52672381D01*
X23023977Y-52626210D01*
X23004825Y-52559016D01*
X23025041Y-52492135D01*
X23076414Y-52447618D01*
X23227639Y-52377102D01*
X23406877Y-52251598D01*
X23561598Y-52096877D01*
X23687102Y-51917639D01*
X23779575Y-51719330D01*
X23836207Y-51507977D01*
X23854402Y-51300000D01*
X23855277Y-51290002D01*
X23855277Y-51289997D01*
X23851569Y-51247618D01*
X23836207Y-51072023D01*
X23782256Y-50870677D01*
X23779577Y-50860677D01*
X23779576Y-50860676D01*
X23779575Y-50860670D01*
X23687102Y-50662362D01*
X23687100Y-50662359D01*
X23687099Y-50662357D01*
X23561599Y-50483124D01*
X23561596Y-50483121D01*
X23406877Y-50328402D01*
X23268978Y-50231844D01*
X23227638Y-50202897D01*
X23128484Y-50156661D01*
X23029330Y-50110425D01*
X23029326Y-50110424D01*
X23029322Y-50110422D01*
X22817977Y-50053793D01*
X22600002Y-50034723D01*
X22599998Y-50034723D01*
X22485696Y-50044723D01*
X22382023Y-50053793D01*
X22382020Y-50053793D01*
X22170677Y-50110422D01*
X22170668Y-50110426D01*
X21972361Y-50202898D01*
X21972357Y-50202900D01*
X21793121Y-50328402D01*
X21638402Y-50483121D01*
X21512900Y-50662357D01*
X21512898Y-50662361D01*
X21420426Y-50860668D01*
X21420422Y-50860677D01*
X21363793Y-51072020D01*
X21363793Y-51072024D01*
X21344723Y-51289997D01*
X21344723Y-51290002D01*
X21363793Y-51507975D01*
X21363793Y-51507979D01*
X21420422Y-51719322D01*
X21420424Y-51719326D01*
X21420425Y-51719330D01*
X21425089Y-51729331D01*
X21512897Y-51917638D01*
X21512898Y-51917639D01*
X21638402Y-52096877D01*
X21793123Y-52251598D01*
X21972360Y-52377101D01*
X21972361Y-52377102D01*
X22123583Y-52447618D01*
X22176022Y-52493790D01*
X22195174Y-52560984D01*
X22174958Y-52627865D01*
X22123583Y-52672382D01*
X21972361Y-52742898D01*
X21972357Y-52742900D01*
X21793121Y-52868402D01*
X21638402Y-53023121D01*
X21512900Y-53202357D01*
X21512898Y-53202361D01*
X21420426Y-53400668D01*
X21420422Y-53400677D01*
X21363793Y-53612020D01*
X21363793Y-53612024D01*
X21344723Y-53829997D01*
X21344723Y-53830002D01*
X21363793Y-54047975D01*
X21363793Y-54047979D01*
X21420422Y-54259322D01*
X21420424Y-54259326D01*
X21420425Y-54259330D01*
X21425089Y-54269331D01*
X21512897Y-54457638D01*
X21512898Y-54457639D01*
X21638402Y-54636877D01*
X21793123Y-54791598D01*
X21972360Y-54917101D01*
X21972361Y-54917102D01*
X22123583Y-54987618D01*
X22176022Y-55033790D01*
X22195174Y-55100984D01*
X22174958Y-55167865D01*
X22123583Y-55212382D01*
X21972361Y-55282898D01*
X21972357Y-55282900D01*
X21793121Y-55408402D01*
X21638402Y-55563121D01*
X21512900Y-55742357D01*
X21512898Y-55742361D01*
X21420426Y-55940668D01*
X21420422Y-55940677D01*
X21363793Y-56152020D01*
X21363793Y-56152024D01*
X21344723Y-56369997D01*
X21344723Y-56370002D01*
X21363793Y-56587975D01*
X21363793Y-56587979D01*
X21420422Y-56799322D01*
X21420424Y-56799326D01*
X21420425Y-56799330D01*
X21425089Y-56809331D01*
X21512897Y-56997638D01*
X21518533Y-57005687D01*
X21638402Y-57176877D01*
X21638406Y-57176881D01*
X21759344Y-57297819D01*
X21792829Y-57359142D01*
X21787845Y-57428834D01*
X21745973Y-57484767D01*
X21680509Y-57509184D01*
X21671663Y-57509500D01*
X10938337Y-57509500D01*
X10871298Y-57489815D01*
X10825543Y-57437011D01*
X10815599Y-57367853D01*
X10844624Y-57304297D01*
X10850656Y-57297819D01*
X10865070Y-57283405D01*
X10961598Y-57186877D01*
X11087102Y-57007639D01*
X11179575Y-56809330D01*
X11236207Y-56597977D01*
X11255277Y-56380000D01*
X11254402Y-56370002D01*
X11251569Y-56337618D01*
X11236207Y-56162023D01*
X11179575Y-55950670D01*
X11087102Y-55752362D01*
X11087100Y-55752359D01*
X11087099Y-55752357D01*
X10961599Y-55573124D01*
X10951596Y-55563121D01*
X10806877Y-55418402D01*
X10627639Y-55292898D01*
X10476414Y-55222381D01*
X10423977Y-55176210D01*
X10404825Y-55109016D01*
X10425041Y-55042135D01*
X10476414Y-54997618D01*
X10627639Y-54927102D01*
X10806877Y-54801598D01*
X10961598Y-54646877D01*
X11087102Y-54467639D01*
X11179575Y-54269330D01*
X11236207Y-54057977D01*
X11255277Y-53840000D01*
X11254402Y-53830002D01*
X11251569Y-53797618D01*
X11236207Y-53622023D01*
X11179575Y-53410670D01*
X11087102Y-53212362D01*
X11087100Y-53212359D01*
X11087099Y-53212357D01*
X10961599Y-53033124D01*
X10951596Y-53023121D01*
X10806877Y-52878402D01*
X10627639Y-52752898D01*
X10476414Y-52682381D01*
X10423977Y-52636210D01*
X10404825Y-52569016D01*
X10425041Y-52502135D01*
X10476414Y-52457618D01*
X10627639Y-52387102D01*
X10806877Y-52261598D01*
X10961598Y-52106877D01*
X11087102Y-51927639D01*
X11179575Y-51729330D01*
X11236207Y-51517977D01*
X11255277Y-51300000D01*
X11254402Y-51290002D01*
X11251569Y-51257618D01*
X11236207Y-51082023D01*
X11179575Y-50870670D01*
X11087102Y-50672362D01*
X11087100Y-50672359D01*
X11087099Y-50672357D01*
X10961599Y-50493124D01*
X10951596Y-50483121D01*
X10806877Y-50338402D01*
X10627639Y-50212898D01*
X10627640Y-50212898D01*
X10627638Y-50212897D01*
X10528484Y-50166661D01*
X10429330Y-50120425D01*
X10429326Y-50120424D01*
X10429322Y-50120422D01*
X10217977Y-50063793D01*
X10093675Y-50052918D01*
X10028607Y-50027465D01*
X9999493Y-49987261D01*
X9980819Y-50019387D01*
X9918621Y-50051218D01*
X9906324Y-50052918D01*
X9782023Y-50063793D01*
X9782020Y-50063793D01*
X9570677Y-50120422D01*
X9570668Y-50120426D01*
X9372361Y-50212898D01*
X9372357Y-50212900D01*
X9193121Y-50338402D01*
X9038402Y-50493121D01*
X8912900Y-50672357D01*
X8912898Y-50672361D01*
X8820426Y-50870668D01*
X8820422Y-50870677D01*
X8763793Y-51082020D01*
X8763793Y-51082024D01*
X8744723Y-51299997D01*
X8744723Y-51300002D01*
X8763793Y-51517975D01*
X8763793Y-51517979D01*
X8820422Y-51729322D01*
X8820424Y-51729326D01*
X8820425Y-51729330D01*
X8866661Y-51828484D01*
X8912897Y-51927638D01*
X8912898Y-51927639D01*
X9038402Y-52106877D01*
X9193123Y-52261598D01*
X9358078Y-52377101D01*
X9372361Y-52387102D01*
X9523583Y-52457618D01*
X9576022Y-52503790D01*
X9595174Y-52570984D01*
X9574958Y-52637865D01*
X9523583Y-52682382D01*
X9372361Y-52752898D01*
X9372357Y-52752900D01*
X9193121Y-52878402D01*
X9038402Y-53033121D01*
X8912900Y-53212357D01*
X8912898Y-53212361D01*
X8820426Y-53410668D01*
X8820422Y-53410677D01*
X8763793Y-53622020D01*
X8763793Y-53622024D01*
X8744723Y-53839997D01*
X8744723Y-53840002D01*
X8763793Y-54057975D01*
X8763793Y-54057979D01*
X8820422Y-54269322D01*
X8820424Y-54269326D01*
X8820425Y-54269330D01*
X8866661Y-54368484D01*
X8912897Y-54467638D01*
X8912898Y-54467639D01*
X9038402Y-54646877D01*
X9193123Y-54801598D01*
X9358078Y-54917101D01*
X9372361Y-54927102D01*
X9523583Y-54997618D01*
X9576022Y-55043790D01*
X9595174Y-55110984D01*
X9574958Y-55177865D01*
X9523583Y-55222382D01*
X9372361Y-55292898D01*
X9372357Y-55292900D01*
X9193121Y-55418402D01*
X9038402Y-55573121D01*
X8912900Y-55752357D01*
X8912898Y-55752361D01*
X8820426Y-55950668D01*
X8820422Y-55950677D01*
X8763793Y-56162020D01*
X8763793Y-56162024D01*
X8744723Y-56379997D01*
X8744723Y-56380002D01*
X8763793Y-56597975D01*
X8763793Y-56597979D01*
X8820422Y-56809322D01*
X8820424Y-56809326D01*
X8820425Y-56809330D01*
X8866661Y-56908484D01*
X8912897Y-57007638D01*
X8912898Y-57007639D01*
X9038402Y-57186877D01*
X9193123Y-57341598D01*
X9362543Y-57460227D01*
X9406168Y-57514805D01*
X9413360Y-57584303D01*
X9381838Y-57646658D01*
X9342498Y-57674793D01*
X9324513Y-57682922D01*
X9319762Y-57686134D01*
X9303812Y-57695268D01*
X9298624Y-57697747D01*
X9213426Y-57758004D01*
X9127001Y-57816417D01*
X9126992Y-57816424D01*
X9122850Y-57820394D01*
X9108680Y-57832087D01*
X9103989Y-57835405D01*
X9103987Y-57835407D01*
X9030225Y-57909168D01*
X8954883Y-57981377D01*
X8922907Y-58024611D01*
X8920460Y-58027707D01*
X8852449Y-58108373D01*
X8852445Y-58108379D01*
X8821428Y-58161232D01*
X8817807Y-58166715D01*
X8813118Y-58173056D01*
X8805636Y-58187894D01*
X8803749Y-58191358D01*
X8731793Y-58313979D01*
X8731786Y-58313994D01*
X8647614Y-58537036D01*
X8602345Y-58771100D01*
X8597284Y-59009441D01*
X3700500Y-59009441D01*
X3700500Y-48760000D01*
X8944919Y-48760000D01*
X8965191Y-48965834D01*
X9025233Y-49163766D01*
X9100975Y-49305469D01*
X9100976Y-49305469D01*
X9516922Y-48889523D01*
X9540507Y-48969844D01*
X9618239Y-49090798D01*
X9726900Y-49184952D01*
X9857685Y-49244680D01*
X9867466Y-49246086D01*
X9454528Y-49659023D01*
X9596233Y-49734766D01*
X9794165Y-49794808D01*
X9907670Y-49805987D01*
X9972457Y-49832148D01*
X10000432Y-49871681D01*
X10018204Y-49840328D01*
X10080051Y-49807821D01*
X10092329Y-49805987D01*
X10205834Y-49794808D01*
X10403764Y-49734766D01*
X10545470Y-49659022D01*
X10132534Y-49246086D01*
X10142315Y-49244680D01*
X10273100Y-49184952D01*
X10381761Y-49090798D01*
X10459493Y-48969844D01*
X10483076Y-48889523D01*
X10899022Y-49305469D01*
X10974766Y-49163764D01*
X11024444Y-49000000D01*
X21578590Y-49000000D01*
X21625233Y-49153766D01*
X21722728Y-49336166D01*
X21722732Y-49336173D01*
X21853944Y-49496055D01*
X22013826Y-49627267D01*
X22013833Y-49627271D01*
X22196233Y-49724766D01*
X22350000Y-49771410D01*
X22350000Y-49185501D01*
X22457685Y-49234680D01*
X22564237Y-49250000D01*
X22635763Y-49250000D01*
X22742315Y-49234680D01*
X22850000Y-49185501D01*
X22850000Y-49771410D01*
X23003766Y-49724766D01*
X23186166Y-49627271D01*
X23186173Y-49627267D01*
X23346055Y-49496055D01*
X23477267Y-49336173D01*
X23477271Y-49336166D01*
X23574766Y-49153766D01*
X23621410Y-49000000D01*
X51978590Y-49000000D01*
X52025233Y-49153766D01*
X52122728Y-49336166D01*
X52122732Y-49336173D01*
X52253944Y-49496055D01*
X52413826Y-49627267D01*
X52413833Y-49627271D01*
X52596233Y-49724766D01*
X52750000Y-49771410D01*
X52750000Y-49185501D01*
X52857685Y-49234680D01*
X52964237Y-49250000D01*
X53035763Y-49250000D01*
X53142315Y-49234680D01*
X53250000Y-49185501D01*
X53250000Y-49771410D01*
X53403766Y-49724766D01*
X53586166Y-49627271D01*
X53586173Y-49627267D01*
X53746055Y-49496055D01*
X53877267Y-49336173D01*
X53877271Y-49336166D01*
X53974766Y-49153766D01*
X54021410Y-49000000D01*
X82378590Y-49000000D01*
X82425233Y-49153766D01*
X82522728Y-49336166D01*
X82522732Y-49336173D01*
X82653944Y-49496055D01*
X82813826Y-49627267D01*
X82813833Y-49627271D01*
X82996233Y-49724766D01*
X83150000Y-49771410D01*
X83150000Y-49185501D01*
X83257685Y-49234680D01*
X83364237Y-49250000D01*
X83435763Y-49250000D01*
X83542315Y-49234680D01*
X83650000Y-49185501D01*
X83650000Y-49771410D01*
X83803766Y-49724766D01*
X83986166Y-49627271D01*
X83986173Y-49627267D01*
X84146055Y-49496055D01*
X84277267Y-49336173D01*
X84277271Y-49336166D01*
X84374766Y-49153766D01*
X84421410Y-49000000D01*
X112778590Y-49000000D01*
X112825233Y-49153766D01*
X112922728Y-49336166D01*
X112922732Y-49336173D01*
X113053944Y-49496055D01*
X113213826Y-49627267D01*
X113213833Y-49627271D01*
X113396233Y-49724766D01*
X113550000Y-49771410D01*
X113550000Y-49185501D01*
X113657685Y-49234680D01*
X113764237Y-49250000D01*
X113835763Y-49250000D01*
X113942315Y-49234680D01*
X114050000Y-49185501D01*
X114050000Y-49771410D01*
X114203766Y-49724766D01*
X114386166Y-49627271D01*
X114386173Y-49627267D01*
X114546055Y-49496055D01*
X114677267Y-49336173D01*
X114677271Y-49336166D01*
X114774766Y-49153766D01*
X114818377Y-49010000D01*
X116478590Y-49010000D01*
X116525233Y-49163766D01*
X116622728Y-49346166D01*
X116622732Y-49346173D01*
X116753944Y-49506055D01*
X116913826Y-49637267D01*
X116913833Y-49637271D01*
X117096233Y-49734766D01*
X117250000Y-49781410D01*
X117250000Y-49195501D01*
X117357685Y-49244680D01*
X117464237Y-49260000D01*
X117535763Y-49260000D01*
X117642315Y-49244680D01*
X117750000Y-49195501D01*
X117750000Y-49781410D01*
X117903766Y-49734766D01*
X118086166Y-49637271D01*
X118086173Y-49637267D01*
X118246055Y-49506055D01*
X118377267Y-49346173D01*
X118377271Y-49346166D01*
X118474766Y-49163766D01*
X118521410Y-49010000D01*
X117933686Y-49010000D01*
X117959493Y-48969844D01*
X118000000Y-48831889D01*
X118000000Y-48688111D01*
X117959493Y-48550156D01*
X117933686Y-48510000D01*
X118521410Y-48510000D01*
X118474766Y-48356233D01*
X118377271Y-48173833D01*
X118377267Y-48173826D01*
X118246055Y-48013944D01*
X118086173Y-47882732D01*
X118086166Y-47882728D01*
X117903763Y-47785232D01*
X117750000Y-47738587D01*
X117750000Y-48324498D01*
X117642315Y-48275320D01*
X117535763Y-48260000D01*
X117464237Y-48260000D01*
X117357685Y-48275320D01*
X117250000Y-48324498D01*
X117250000Y-47738587D01*
X117096236Y-47785232D01*
X116913833Y-47882728D01*
X116913826Y-47882732D01*
X116753944Y-48013944D01*
X116622732Y-48173826D01*
X116622728Y-48173833D01*
X116525233Y-48356233D01*
X116478590Y-48510000D01*
X117066314Y-48510000D01*
X117040507Y-48550156D01*
X117000000Y-48688111D01*
X117000000Y-48831889D01*
X117040507Y-48969844D01*
X117066314Y-49010000D01*
X116478590Y-49010000D01*
X114818377Y-49010000D01*
X114821410Y-49000000D01*
X114233686Y-49000000D01*
X114259493Y-48959844D01*
X114300000Y-48821889D01*
X114300000Y-48678111D01*
X114259493Y-48540156D01*
X114233686Y-48500000D01*
X114821410Y-48500000D01*
X114774766Y-48346233D01*
X114677271Y-48163833D01*
X114677267Y-48163826D01*
X114546055Y-48003944D01*
X114386173Y-47872732D01*
X114386166Y-47872728D01*
X114203763Y-47775232D01*
X114050000Y-47728587D01*
X114050000Y-48314498D01*
X113942315Y-48265320D01*
X113835763Y-48250000D01*
X113764237Y-48250000D01*
X113657685Y-48265320D01*
X113550000Y-48314498D01*
X113550000Y-47728587D01*
X113396236Y-47775232D01*
X113213833Y-47872728D01*
X113213826Y-47872732D01*
X113053944Y-48003944D01*
X112922732Y-48163826D01*
X112922728Y-48163833D01*
X112825233Y-48346233D01*
X112778590Y-48500000D01*
X113366314Y-48500000D01*
X113340507Y-48540156D01*
X113300000Y-48678111D01*
X113300000Y-48821889D01*
X113340507Y-48959844D01*
X113366314Y-49000000D01*
X112778590Y-49000000D01*
X84421410Y-49000000D01*
X83833686Y-49000000D01*
X83859493Y-48959844D01*
X83900000Y-48821889D01*
X83900000Y-48678111D01*
X83859493Y-48540156D01*
X83833686Y-48500000D01*
X84421410Y-48500000D01*
X84374766Y-48346233D01*
X84277271Y-48163833D01*
X84277267Y-48163826D01*
X84146055Y-48003944D01*
X83986173Y-47872732D01*
X83986166Y-47872728D01*
X83803763Y-47775232D01*
X83650000Y-47728587D01*
X83650000Y-48314498D01*
X83542315Y-48265320D01*
X83435763Y-48250000D01*
X83364237Y-48250000D01*
X83257685Y-48265320D01*
X83150000Y-48314498D01*
X83150000Y-47728587D01*
X82996236Y-47775232D01*
X82813833Y-47872728D01*
X82813826Y-47872732D01*
X82653944Y-48003944D01*
X82522732Y-48163826D01*
X82522728Y-48163833D01*
X82425233Y-48346233D01*
X82378590Y-48500000D01*
X82966314Y-48500000D01*
X82940507Y-48540156D01*
X82900000Y-48678111D01*
X82900000Y-48821889D01*
X82940507Y-48959844D01*
X82966314Y-49000000D01*
X82378590Y-49000000D01*
X54021410Y-49000000D01*
X53433686Y-49000000D01*
X53459493Y-48959844D01*
X53500000Y-48821889D01*
X53500000Y-48678111D01*
X53459493Y-48540156D01*
X53433686Y-48500000D01*
X54021410Y-48500000D01*
X53974766Y-48346233D01*
X53877271Y-48163833D01*
X53877267Y-48163826D01*
X53746055Y-48003944D01*
X53586173Y-47872732D01*
X53586166Y-47872728D01*
X53403763Y-47775232D01*
X53250000Y-47728587D01*
X53250000Y-48314498D01*
X53142315Y-48265320D01*
X53035763Y-48250000D01*
X52964237Y-48250000D01*
X52857685Y-48265320D01*
X52750000Y-48314498D01*
X52750000Y-47728587D01*
X52596236Y-47775232D01*
X52413833Y-47872728D01*
X52413826Y-47872732D01*
X52253944Y-48003944D01*
X52122732Y-48163826D01*
X52122728Y-48163833D01*
X52025233Y-48346233D01*
X51978590Y-48500000D01*
X52566314Y-48500000D01*
X52540507Y-48540156D01*
X52500000Y-48678111D01*
X52500000Y-48821889D01*
X52540507Y-48959844D01*
X52566314Y-49000000D01*
X51978590Y-49000000D01*
X23621410Y-49000000D01*
X23033686Y-49000000D01*
X23059493Y-48959844D01*
X23100000Y-48821889D01*
X23100000Y-48678111D01*
X23059493Y-48540156D01*
X23033686Y-48500000D01*
X23621410Y-48500000D01*
X23574766Y-48346233D01*
X23477271Y-48163833D01*
X23477267Y-48163826D01*
X23346055Y-48003944D01*
X23186173Y-47872732D01*
X23186166Y-47872728D01*
X23003763Y-47775232D01*
X22850000Y-47728587D01*
X22850000Y-48314498D01*
X22742315Y-48265320D01*
X22635763Y-48250000D01*
X22564237Y-48250000D01*
X22457685Y-48265320D01*
X22350000Y-48314498D01*
X22350000Y-47728587D01*
X22196236Y-47775232D01*
X22013833Y-47872728D01*
X22013826Y-47872732D01*
X21853944Y-48003944D01*
X21722732Y-48163826D01*
X21722728Y-48163833D01*
X21625233Y-48346233D01*
X21578590Y-48500000D01*
X22166314Y-48500000D01*
X22140507Y-48540156D01*
X22100000Y-48678111D01*
X22100000Y-48821889D01*
X22140507Y-48959844D01*
X22166314Y-49000000D01*
X21578590Y-49000000D01*
X11024444Y-49000000D01*
X11034808Y-48965834D01*
X11055080Y-48760000D01*
X11034808Y-48554165D01*
X10974766Y-48356233D01*
X10899023Y-48214528D01*
X10483076Y-48630475D01*
X10459493Y-48550156D01*
X10381761Y-48429202D01*
X10273100Y-48335048D01*
X10142315Y-48275320D01*
X10132533Y-48273913D01*
X10545469Y-47860976D01*
X10545469Y-47860975D01*
X10403766Y-47785233D01*
X10205835Y-47725191D01*
X10092328Y-47714012D01*
X10027541Y-47687851D01*
X9999566Y-47648317D01*
X9981796Y-47679670D01*
X9919949Y-47712178D01*
X9907671Y-47714012D01*
X9794166Y-47725191D01*
X9596234Y-47785234D01*
X9454529Y-47860975D01*
X9454529Y-47860976D01*
X9867466Y-48273913D01*
X9857685Y-48275320D01*
X9726900Y-48335048D01*
X9618239Y-48429202D01*
X9540507Y-48550156D01*
X9516923Y-48630476D01*
X9100976Y-48214529D01*
X9100975Y-48214529D01*
X9025234Y-48356234D01*
X8965191Y-48554166D01*
X8944919Y-48760000D01*
X3700500Y-48760000D01*
X3700500Y-41080346D01*
X8595702Y-41080346D01*
X8605819Y-41318528D01*
X8605819Y-41318532D01*
X8656045Y-41551580D01*
X8744935Y-41772788D01*
X8744936Y-41772790D01*
X8869931Y-41975795D01*
X9027436Y-42154755D01*
X9212920Y-42304523D01*
X9212924Y-42304525D01*
X9358077Y-42385613D01*
X9407004Y-42435493D01*
X9421196Y-42503906D01*
X9396148Y-42569132D01*
X9368727Y-42595442D01*
X9193118Y-42718405D01*
X9038402Y-42873121D01*
X8912900Y-43052357D01*
X8912898Y-43052361D01*
X8820426Y-43250668D01*
X8820422Y-43250677D01*
X8763793Y-43462020D01*
X8763793Y-43462024D01*
X8744723Y-43679997D01*
X8744723Y-43680002D01*
X8763793Y-43897975D01*
X8763793Y-43897979D01*
X8820422Y-44109322D01*
X8820424Y-44109326D01*
X8820425Y-44109330D01*
X8866661Y-44208484D01*
X8912897Y-44307638D01*
X8912898Y-44307639D01*
X9038402Y-44486877D01*
X9193123Y-44641598D01*
X9358078Y-44757101D01*
X9372361Y-44767102D01*
X9523583Y-44837618D01*
X9576022Y-44883790D01*
X9595174Y-44950984D01*
X9574958Y-45017865D01*
X9523583Y-45062382D01*
X9372361Y-45132898D01*
X9372357Y-45132900D01*
X9193121Y-45258402D01*
X9038402Y-45413121D01*
X8912900Y-45592357D01*
X8912898Y-45592361D01*
X8820426Y-45790668D01*
X8820422Y-45790677D01*
X8763793Y-46002020D01*
X8763793Y-46002024D01*
X8744723Y-46219997D01*
X8744723Y-46220002D01*
X8763793Y-46437975D01*
X8763793Y-46437979D01*
X8820422Y-46649322D01*
X8820424Y-46649326D01*
X8820425Y-46649330D01*
X8866661Y-46748484D01*
X8912897Y-46847638D01*
X8912898Y-46847639D01*
X9038402Y-47026877D01*
X9193123Y-47181598D01*
X9372361Y-47307102D01*
X9570670Y-47399575D01*
X9782023Y-47456207D01*
X9906324Y-47467081D01*
X9971392Y-47492533D01*
X10000504Y-47532737D01*
X10019181Y-47500611D01*
X10081379Y-47468780D01*
X10093663Y-47467082D01*
X10217977Y-47456207D01*
X10429330Y-47399575D01*
X10627639Y-47307102D01*
X10806877Y-47181598D01*
X10961598Y-47026877D01*
X11087102Y-46847639D01*
X11179575Y-46649330D01*
X11236207Y-46437977D01*
X11255277Y-46220000D01*
X11254402Y-46210002D01*
X11251569Y-46177618D01*
X11236207Y-46002023D01*
X11179575Y-45790670D01*
X11087102Y-45592362D01*
X11087100Y-45592359D01*
X11087099Y-45592357D01*
X10961599Y-45413124D01*
X10951596Y-45403121D01*
X10806877Y-45258402D01*
X10627639Y-45132898D01*
X10476414Y-45062381D01*
X10423977Y-45016210D01*
X10404825Y-44949016D01*
X10425041Y-44882135D01*
X10476414Y-44837618D01*
X10627639Y-44767102D01*
X10806877Y-44641598D01*
X10961598Y-44486877D01*
X11087102Y-44307639D01*
X11179575Y-44109330D01*
X11236207Y-43897977D01*
X11255277Y-43680000D01*
X11254402Y-43670002D01*
X11251569Y-43637618D01*
X11236207Y-43462023D01*
X11179575Y-43250670D01*
X11087102Y-43052362D01*
X11087100Y-43052359D01*
X11087099Y-43052357D01*
X10961599Y-42873124D01*
X10951596Y-42863121D01*
X10840654Y-42752179D01*
X10807171Y-42690859D01*
X10812155Y-42621167D01*
X10854026Y-42565233D01*
X10919490Y-42540816D01*
X10928337Y-42540500D01*
X21661662Y-42540500D01*
X21728701Y-42560185D01*
X21774456Y-42612989D01*
X21784400Y-42682147D01*
X21755375Y-42745703D01*
X21749343Y-42752181D01*
X21638402Y-42863121D01*
X21512900Y-43042357D01*
X21512898Y-43042361D01*
X21420426Y-43240668D01*
X21420422Y-43240677D01*
X21363793Y-43452020D01*
X21363793Y-43452024D01*
X21344723Y-43669997D01*
X21344723Y-43670002D01*
X21363793Y-43887975D01*
X21363793Y-43887979D01*
X21420422Y-44099322D01*
X21420424Y-44099326D01*
X21420425Y-44099330D01*
X21425089Y-44109331D01*
X21512897Y-44297638D01*
X21512898Y-44297639D01*
X21638402Y-44476877D01*
X21793123Y-44631598D01*
X21972360Y-44757101D01*
X21972361Y-44757102D01*
X22123583Y-44827618D01*
X22176022Y-44873790D01*
X22195174Y-44940984D01*
X22174958Y-45007865D01*
X22123583Y-45052382D01*
X21972361Y-45122898D01*
X21972357Y-45122900D01*
X21793121Y-45248402D01*
X21638402Y-45403121D01*
X21512900Y-45582357D01*
X21512898Y-45582361D01*
X21420426Y-45780668D01*
X21420422Y-45780677D01*
X21363793Y-45992020D01*
X21363793Y-45992024D01*
X21344723Y-46209997D01*
X21344723Y-46210002D01*
X21363793Y-46427975D01*
X21363793Y-46427979D01*
X21420422Y-46639322D01*
X21420424Y-46639326D01*
X21420425Y-46639330D01*
X21425089Y-46649331D01*
X21512897Y-46837638D01*
X21512898Y-46837639D01*
X21638402Y-47016877D01*
X21793123Y-47171598D01*
X21972361Y-47297102D01*
X22170670Y-47389575D01*
X22382023Y-47446207D01*
X22564926Y-47462208D01*
X22599998Y-47465277D01*
X22600000Y-47465277D01*
X22600002Y-47465277D01*
X22628254Y-47462805D01*
X22817977Y-47446207D01*
X23029330Y-47389575D01*
X23227639Y-47297102D01*
X23406877Y-47171598D01*
X23561598Y-47016877D01*
X23687102Y-46837639D01*
X23779575Y-46639330D01*
X23836207Y-46427977D01*
X23854402Y-46220000D01*
X23855277Y-46210002D01*
X23855277Y-46209997D01*
X23851569Y-46167618D01*
X23836207Y-45992023D01*
X23782256Y-45790677D01*
X23779577Y-45780677D01*
X23779576Y-45780676D01*
X23779575Y-45780670D01*
X23687102Y-45582362D01*
X23687100Y-45582359D01*
X23687099Y-45582357D01*
X23561599Y-45403124D01*
X23561596Y-45403121D01*
X23406877Y-45248402D01*
X23227639Y-45122898D01*
X23076414Y-45052381D01*
X23023977Y-45006210D01*
X23004825Y-44939016D01*
X23025041Y-44872135D01*
X23076414Y-44827618D01*
X23227639Y-44757102D01*
X23406877Y-44631598D01*
X23561598Y-44476877D01*
X23687102Y-44297639D01*
X23779575Y-44099330D01*
X23836207Y-43887977D01*
X23854402Y-43680000D01*
X23855277Y-43670002D01*
X23855277Y-43669997D01*
X23851569Y-43627618D01*
X23836207Y-43452023D01*
X23782256Y-43250677D01*
X23779577Y-43240677D01*
X23779576Y-43240676D01*
X23779575Y-43240670D01*
X23687102Y-43042362D01*
X23687100Y-43042359D01*
X23687099Y-43042357D01*
X23561599Y-42863124D01*
X23561596Y-42863121D01*
X23440654Y-42742179D01*
X23407171Y-42680859D01*
X23412155Y-42611167D01*
X23454026Y-42555233D01*
X23519490Y-42530816D01*
X23528337Y-42530500D01*
X52071662Y-42530500D01*
X52138701Y-42550185D01*
X52184456Y-42602989D01*
X52194400Y-42672147D01*
X52165375Y-42735703D01*
X52159343Y-42742181D01*
X52038402Y-42863121D01*
X51912900Y-43042357D01*
X51912898Y-43042361D01*
X51820426Y-43240668D01*
X51820422Y-43240677D01*
X51763793Y-43452020D01*
X51763793Y-43452024D01*
X51744723Y-43669997D01*
X51744723Y-43670002D01*
X51763793Y-43887975D01*
X51763793Y-43887979D01*
X51820422Y-44099322D01*
X51820424Y-44099326D01*
X51820425Y-44099330D01*
X51825089Y-44109331D01*
X51912897Y-44297638D01*
X51912898Y-44297639D01*
X52038402Y-44476877D01*
X52193123Y-44631598D01*
X52372360Y-44757101D01*
X52372361Y-44757102D01*
X52523583Y-44827618D01*
X52576022Y-44873790D01*
X52595174Y-44940984D01*
X52574958Y-45007865D01*
X52523583Y-45052382D01*
X52372361Y-45122898D01*
X52372357Y-45122900D01*
X52193121Y-45248402D01*
X52038402Y-45403121D01*
X51912900Y-45582357D01*
X51912898Y-45582361D01*
X51820426Y-45780668D01*
X51820422Y-45780677D01*
X51763793Y-45992020D01*
X51763793Y-45992024D01*
X51744723Y-46209997D01*
X51744723Y-46210002D01*
X51763793Y-46427975D01*
X51763793Y-46427979D01*
X51820422Y-46639322D01*
X51820424Y-46639326D01*
X51820425Y-46639330D01*
X51825089Y-46649331D01*
X51912897Y-46837638D01*
X51912898Y-46837639D01*
X52038402Y-47016877D01*
X52193123Y-47171598D01*
X52372361Y-47297102D01*
X52570670Y-47389575D01*
X52782023Y-47446207D01*
X52964926Y-47462208D01*
X52999998Y-47465277D01*
X53000000Y-47465277D01*
X53000002Y-47465277D01*
X53028254Y-47462805D01*
X53217977Y-47446207D01*
X53429330Y-47389575D01*
X53627639Y-47297102D01*
X53806877Y-47171598D01*
X53961598Y-47016877D01*
X54087102Y-46837639D01*
X54179575Y-46639330D01*
X54236207Y-46427977D01*
X54254402Y-46220000D01*
X54255277Y-46210002D01*
X54255277Y-46209997D01*
X54251569Y-46167618D01*
X54236207Y-45992023D01*
X54182256Y-45790677D01*
X54179577Y-45780677D01*
X54179576Y-45780676D01*
X54179575Y-45780670D01*
X54087102Y-45582362D01*
X54087100Y-45582359D01*
X54087099Y-45582357D01*
X53961599Y-45403124D01*
X53961596Y-45403121D01*
X53806877Y-45248402D01*
X53627639Y-45122898D01*
X53476414Y-45052381D01*
X53423977Y-45006210D01*
X53404825Y-44939016D01*
X53425041Y-44872135D01*
X53476414Y-44827618D01*
X53627639Y-44757102D01*
X53806877Y-44631598D01*
X53961598Y-44476877D01*
X54087102Y-44297639D01*
X54179575Y-44099330D01*
X54236207Y-43887977D01*
X54254402Y-43680000D01*
X54255277Y-43670002D01*
X54255277Y-43669997D01*
X54251569Y-43627618D01*
X54236207Y-43452023D01*
X54182256Y-43250677D01*
X54179577Y-43240677D01*
X54179576Y-43240676D01*
X54179575Y-43240670D01*
X54087102Y-43042362D01*
X54087100Y-43042359D01*
X54087099Y-43042357D01*
X53961599Y-42863124D01*
X53961596Y-42863121D01*
X53840654Y-42742179D01*
X53807171Y-42680859D01*
X53812155Y-42611167D01*
X53854026Y-42555233D01*
X53919490Y-42530816D01*
X53928337Y-42530500D01*
X82471662Y-42530500D01*
X82538701Y-42550185D01*
X82584456Y-42602989D01*
X82594400Y-42672147D01*
X82565375Y-42735703D01*
X82559343Y-42742181D01*
X82438402Y-42863121D01*
X82312900Y-43042357D01*
X82312898Y-43042361D01*
X82220426Y-43240668D01*
X82220422Y-43240677D01*
X82163793Y-43452020D01*
X82163793Y-43452024D01*
X82144723Y-43669997D01*
X82144723Y-43670002D01*
X82163793Y-43887975D01*
X82163793Y-43887979D01*
X82220422Y-44099322D01*
X82220424Y-44099326D01*
X82220425Y-44099330D01*
X82225089Y-44109331D01*
X82312897Y-44297638D01*
X82312898Y-44297639D01*
X82438402Y-44476877D01*
X82593123Y-44631598D01*
X82772360Y-44757101D01*
X82772361Y-44757102D01*
X82923583Y-44827618D01*
X82976022Y-44873790D01*
X82995174Y-44940984D01*
X82974958Y-45007865D01*
X82923583Y-45052382D01*
X82772361Y-45122898D01*
X82772357Y-45122900D01*
X82593121Y-45248402D01*
X82438402Y-45403121D01*
X82312900Y-45582357D01*
X82312898Y-45582361D01*
X82220426Y-45780668D01*
X82220422Y-45780677D01*
X82163793Y-45992020D01*
X82163793Y-45992024D01*
X82144723Y-46209997D01*
X82144723Y-46210002D01*
X82163793Y-46427975D01*
X82163793Y-46427979D01*
X82220422Y-46639322D01*
X82220424Y-46639326D01*
X82220425Y-46639330D01*
X82225089Y-46649331D01*
X82312897Y-46837638D01*
X82312898Y-46837639D01*
X82438402Y-47016877D01*
X82593123Y-47171598D01*
X82772361Y-47297102D01*
X82970670Y-47389575D01*
X83182023Y-47446207D01*
X83364926Y-47462208D01*
X83399998Y-47465277D01*
X83400000Y-47465277D01*
X83400002Y-47465277D01*
X83428254Y-47462805D01*
X83617977Y-47446207D01*
X83829330Y-47389575D01*
X84027639Y-47297102D01*
X84206877Y-47171598D01*
X84361598Y-47016877D01*
X84487102Y-46837639D01*
X84579575Y-46639330D01*
X84636207Y-46427977D01*
X84654402Y-46220000D01*
X84655277Y-46210002D01*
X84655277Y-46209997D01*
X84651569Y-46167618D01*
X84636207Y-45992023D01*
X84582256Y-45790677D01*
X84579577Y-45780677D01*
X84579576Y-45780676D01*
X84579575Y-45780670D01*
X84487102Y-45582362D01*
X84487100Y-45582359D01*
X84487099Y-45582357D01*
X84361599Y-45403124D01*
X84361596Y-45403121D01*
X84206877Y-45248402D01*
X84027639Y-45122898D01*
X83876414Y-45052381D01*
X83823977Y-45006210D01*
X83804825Y-44939016D01*
X83825041Y-44872135D01*
X83876414Y-44827618D01*
X84027639Y-44757102D01*
X84206877Y-44631598D01*
X84361598Y-44476877D01*
X84487102Y-44297639D01*
X84579575Y-44099330D01*
X84636207Y-43887977D01*
X84654402Y-43680000D01*
X84655277Y-43670002D01*
X84655277Y-43669997D01*
X84651569Y-43627618D01*
X84636207Y-43452023D01*
X84582256Y-43250677D01*
X84579577Y-43240677D01*
X84579576Y-43240676D01*
X84579575Y-43240670D01*
X84487102Y-43042362D01*
X84487100Y-43042359D01*
X84487099Y-43042357D01*
X84361599Y-42863124D01*
X84361596Y-42863121D01*
X84240654Y-42742179D01*
X84207171Y-42680859D01*
X84212155Y-42611167D01*
X84254026Y-42555233D01*
X84319490Y-42530816D01*
X84328337Y-42530500D01*
X112871662Y-42530500D01*
X112938701Y-42550185D01*
X112984456Y-42602989D01*
X112994400Y-42672147D01*
X112965375Y-42735703D01*
X112959343Y-42742181D01*
X112838402Y-42863121D01*
X112712900Y-43042357D01*
X112712898Y-43042361D01*
X112620426Y-43240668D01*
X112620422Y-43240677D01*
X112563793Y-43452020D01*
X112563793Y-43452024D01*
X112544723Y-43669997D01*
X112544723Y-43670002D01*
X112563793Y-43887975D01*
X112563793Y-43887979D01*
X112620422Y-44099322D01*
X112620424Y-44099326D01*
X112620425Y-44099330D01*
X112625089Y-44109331D01*
X112712897Y-44297638D01*
X112712898Y-44297639D01*
X112838402Y-44476877D01*
X112993123Y-44631598D01*
X113172360Y-44757101D01*
X113172361Y-44757102D01*
X113323583Y-44827618D01*
X113376022Y-44873790D01*
X113395174Y-44940984D01*
X113374958Y-45007865D01*
X113323583Y-45052382D01*
X113172361Y-45122898D01*
X113172357Y-45122900D01*
X112993121Y-45248402D01*
X112838402Y-45403121D01*
X112712900Y-45582357D01*
X112712898Y-45582361D01*
X112620426Y-45780668D01*
X112620422Y-45780677D01*
X112563793Y-45992020D01*
X112563793Y-45992024D01*
X112544723Y-46209997D01*
X112544723Y-46210002D01*
X112563793Y-46427975D01*
X112563793Y-46427979D01*
X112620422Y-46639322D01*
X112620424Y-46639326D01*
X112620425Y-46639330D01*
X112625089Y-46649331D01*
X112712897Y-46837638D01*
X112712898Y-46837639D01*
X112838402Y-47016877D01*
X112993123Y-47171598D01*
X113172361Y-47297102D01*
X113370670Y-47389575D01*
X113582023Y-47446207D01*
X113764926Y-47462208D01*
X113799998Y-47465277D01*
X113800000Y-47465277D01*
X113800002Y-47465277D01*
X113828254Y-47462805D01*
X114017977Y-47446207D01*
X114229330Y-47389575D01*
X114427639Y-47297102D01*
X114606877Y-47171598D01*
X114761598Y-47016877D01*
X114887102Y-46837639D01*
X114979575Y-46639330D01*
X115036207Y-46427977D01*
X115054402Y-46220000D01*
X115055277Y-46210002D01*
X115055277Y-46209997D01*
X115051569Y-46167618D01*
X115036207Y-45992023D01*
X114982256Y-45790677D01*
X114979577Y-45780677D01*
X114979576Y-45780676D01*
X114979575Y-45780670D01*
X114887102Y-45582362D01*
X114887100Y-45582359D01*
X114887099Y-45582357D01*
X114761599Y-45403124D01*
X114761596Y-45403121D01*
X114606877Y-45248402D01*
X114427639Y-45122898D01*
X114276414Y-45052381D01*
X114223977Y-45006210D01*
X114204825Y-44939016D01*
X114225041Y-44872135D01*
X114276414Y-44827618D01*
X114427639Y-44757102D01*
X114606877Y-44631598D01*
X114761598Y-44476877D01*
X114887102Y-44297639D01*
X114979575Y-44099330D01*
X115036207Y-43887977D01*
X115054402Y-43680000D01*
X115055277Y-43670002D01*
X115055277Y-43669997D01*
X115051569Y-43627618D01*
X115036207Y-43452023D01*
X114982256Y-43250677D01*
X114979577Y-43240677D01*
X114979576Y-43240676D01*
X114979575Y-43240670D01*
X114887102Y-43042362D01*
X114887100Y-43042359D01*
X114887099Y-43042357D01*
X114761599Y-42863124D01*
X114761596Y-42863121D01*
X114640654Y-42742179D01*
X114607171Y-42680859D01*
X114612155Y-42611167D01*
X114654026Y-42555233D01*
X114719490Y-42530816D01*
X114728337Y-42530500D01*
X116581662Y-42530500D01*
X116648701Y-42550185D01*
X116694456Y-42602989D01*
X116704400Y-42672147D01*
X116675375Y-42735703D01*
X116669343Y-42742181D01*
X116538402Y-42873121D01*
X116412900Y-43052357D01*
X116412898Y-43052361D01*
X116320426Y-43250668D01*
X116320422Y-43250677D01*
X116263793Y-43462020D01*
X116263793Y-43462024D01*
X116244723Y-43679997D01*
X116244723Y-43680002D01*
X116263793Y-43897975D01*
X116263793Y-43897979D01*
X116320422Y-44109322D01*
X116320424Y-44109326D01*
X116320425Y-44109330D01*
X116366661Y-44208484D01*
X116412897Y-44307638D01*
X116412898Y-44307639D01*
X116538402Y-44486877D01*
X116693123Y-44641598D01*
X116858078Y-44757101D01*
X116872361Y-44767102D01*
X117023583Y-44837618D01*
X117076022Y-44883790D01*
X117095174Y-44950984D01*
X117074958Y-45017865D01*
X117023583Y-45062382D01*
X116872361Y-45132898D01*
X116872357Y-45132900D01*
X116693121Y-45258402D01*
X116538402Y-45413121D01*
X116412900Y-45592357D01*
X116412898Y-45592361D01*
X116320426Y-45790668D01*
X116320422Y-45790677D01*
X116263793Y-46002020D01*
X116263793Y-46002024D01*
X116244723Y-46219997D01*
X116244723Y-46220002D01*
X116263793Y-46437975D01*
X116263793Y-46437979D01*
X116320422Y-46649322D01*
X116320424Y-46649326D01*
X116320425Y-46649330D01*
X116366661Y-46748484D01*
X116412897Y-46847638D01*
X116412898Y-46847639D01*
X116538402Y-47026877D01*
X116693123Y-47181598D01*
X116872361Y-47307102D01*
X117070670Y-47399575D01*
X117282023Y-47456207D01*
X117464926Y-47472208D01*
X117499998Y-47475277D01*
X117500000Y-47475277D01*
X117500002Y-47475277D01*
X117528254Y-47472805D01*
X117717977Y-47456207D01*
X117929330Y-47399575D01*
X118127639Y-47307102D01*
X118306877Y-47181598D01*
X118461598Y-47026877D01*
X118587102Y-46847639D01*
X118679575Y-46649330D01*
X118736207Y-46437977D01*
X118755277Y-46220000D01*
X118754402Y-46210002D01*
X118751569Y-46177618D01*
X118736207Y-46002023D01*
X118679575Y-45790670D01*
X118587102Y-45592362D01*
X118587100Y-45592359D01*
X118587099Y-45592357D01*
X118461599Y-45413124D01*
X118451596Y-45403121D01*
X118306877Y-45258402D01*
X118127639Y-45132898D01*
X117976414Y-45062381D01*
X117923977Y-45016210D01*
X117904825Y-44949016D01*
X117925041Y-44882135D01*
X117976414Y-44837618D01*
X118127639Y-44767102D01*
X118306877Y-44641598D01*
X118461598Y-44486877D01*
X118587102Y-44307639D01*
X118679575Y-44109330D01*
X118736207Y-43897977D01*
X118755277Y-43680000D01*
X118754402Y-43670002D01*
X118751569Y-43637618D01*
X118736207Y-43462023D01*
X118679575Y-43250670D01*
X118587102Y-43052362D01*
X118587100Y-43052359D01*
X118587099Y-43052357D01*
X118461599Y-42873124D01*
X118451596Y-42863121D01*
X118306877Y-42718402D01*
X118130668Y-42595019D01*
X118087044Y-42540442D01*
X118079852Y-42470944D01*
X118111374Y-42408589D01*
X118143630Y-42383932D01*
X118262185Y-42320967D01*
X118450807Y-42175170D01*
X118612075Y-41999593D01*
X118741351Y-41799287D01*
X118834914Y-41580014D01*
X118890076Y-41348083D01*
X118905247Y-41110166D01*
X118879992Y-40873107D01*
X118815037Y-40643727D01*
X118746115Y-40499490D01*
X118745443Y-40497961D01*
X118744329Y-40495755D01*
X118712251Y-40428622D01*
X118694167Y-40403054D01*
X118689906Y-40397029D01*
X118640617Y-40327340D01*
X118638448Y-40324056D01*
X118620069Y-40294205D01*
X118620068Y-40294204D01*
X118607543Y-40279973D01*
X118603473Y-40274822D01*
X118574590Y-40233984D01*
X118513228Y-40172622D01*
X118510542Y-40169759D01*
X118462564Y-40115245D01*
X118381400Y-40049709D01*
X118301621Y-39982446D01*
X118296671Y-39979541D01*
X118281541Y-39969078D01*
X118277085Y-39965480D01*
X118277080Y-39965476D01*
X118185999Y-39914596D01*
X118128657Y-39880945D01*
X118080801Y-39830038D01*
X118068064Y-39761339D01*
X118094491Y-39696660D01*
X118151690Y-39656536D01*
X118191416Y-39650000D01*
X118369699Y-39650000D01*
X118369702Y-39649999D01*
X118428033Y-39638397D01*
X118428034Y-39638396D01*
X118494191Y-39594191D01*
X118538396Y-39528034D01*
X118538397Y-39528033D01*
X118549999Y-39469702D01*
X118550000Y-39469699D01*
X118550000Y-38850000D01*
X117933686Y-38850000D01*
X117959493Y-38809844D01*
X118000000Y-38671889D01*
X118000000Y-38528111D01*
X117959493Y-38390156D01*
X117933686Y-38350000D01*
X118550000Y-38350000D01*
X118550000Y-37730301D01*
X118549999Y-37730297D01*
X118538397Y-37671966D01*
X118538396Y-37671965D01*
X118494191Y-37605808D01*
X118428034Y-37561603D01*
X118428033Y-37561602D01*
X118369702Y-37550000D01*
X117750000Y-37550000D01*
X117750000Y-38164498D01*
X117642315Y-38115320D01*
X117535763Y-38100000D01*
X117464237Y-38100000D01*
X117357685Y-38115320D01*
X117250000Y-38164498D01*
X117250000Y-37550000D01*
X116630297Y-37550000D01*
X116571966Y-37561602D01*
X116571965Y-37561603D01*
X116505808Y-37605808D01*
X116461603Y-37671965D01*
X116461602Y-37671966D01*
X116450000Y-37730297D01*
X116450000Y-38350000D01*
X117066314Y-38350000D01*
X117040507Y-38390156D01*
X117000000Y-38528111D01*
X117000000Y-38671889D01*
X117040507Y-38809844D01*
X117066314Y-38850000D01*
X116450000Y-38850000D01*
X116450000Y-39469702D01*
X116461602Y-39528033D01*
X116461603Y-39528035D01*
X116467332Y-39536608D01*
X116488211Y-39603285D01*
X116469727Y-39670665D01*
X116417749Y-39717356D01*
X116364231Y-39729500D01*
X114929088Y-39729500D01*
X114862049Y-39709815D01*
X114816294Y-39657011D01*
X114806350Y-39587853D01*
X114825985Y-39536610D01*
X114838396Y-39518034D01*
X114838397Y-39518033D01*
X114849999Y-39459702D01*
X114850000Y-39459699D01*
X114850000Y-38840000D01*
X114233686Y-38840000D01*
X114259493Y-38799844D01*
X114300000Y-38661889D01*
X114300000Y-38518111D01*
X114259493Y-38380156D01*
X114233686Y-38340000D01*
X114850000Y-38340000D01*
X114850000Y-37720301D01*
X114849999Y-37720297D01*
X114838397Y-37661966D01*
X114838396Y-37661965D01*
X114794191Y-37595808D01*
X114728034Y-37551603D01*
X114728033Y-37551602D01*
X114669702Y-37540000D01*
X114050000Y-37540000D01*
X114050000Y-38154498D01*
X113942315Y-38105320D01*
X113835763Y-38090000D01*
X113764237Y-38090000D01*
X113657685Y-38105320D01*
X113550000Y-38154498D01*
X113550000Y-37540000D01*
X112930297Y-37540000D01*
X112871966Y-37551602D01*
X112871965Y-37551603D01*
X112805808Y-37595808D01*
X112761603Y-37661965D01*
X112761602Y-37661966D01*
X112750000Y-37720297D01*
X112750000Y-38340000D01*
X113366314Y-38340000D01*
X113340507Y-38380156D01*
X113300000Y-38518111D01*
X113300000Y-38661889D01*
X113340507Y-38799844D01*
X113366314Y-38840000D01*
X112750000Y-38840000D01*
X112750000Y-39459702D01*
X112761602Y-39518033D01*
X112761603Y-39518034D01*
X112774015Y-39536610D01*
X112794892Y-39603288D01*
X112776407Y-39670668D01*
X112724427Y-39717358D01*
X112670912Y-39729500D01*
X84529088Y-39729500D01*
X84462049Y-39709815D01*
X84416294Y-39657011D01*
X84406350Y-39587853D01*
X84425985Y-39536610D01*
X84438396Y-39518034D01*
X84438397Y-39518033D01*
X84449999Y-39459702D01*
X84450000Y-39459699D01*
X84450000Y-38840000D01*
X83833686Y-38840000D01*
X83859493Y-38799844D01*
X83900000Y-38661889D01*
X83900000Y-38518111D01*
X83859493Y-38380156D01*
X83833686Y-38340000D01*
X84450000Y-38340000D01*
X84450000Y-37720301D01*
X84449999Y-37720297D01*
X84438397Y-37661966D01*
X84438396Y-37661965D01*
X84394191Y-37595808D01*
X84328034Y-37551603D01*
X84328033Y-37551602D01*
X84269702Y-37540000D01*
X83650000Y-37540000D01*
X83650000Y-38154498D01*
X83542315Y-38105320D01*
X83435763Y-38090000D01*
X83364237Y-38090000D01*
X83257685Y-38105320D01*
X83150000Y-38154498D01*
X83150000Y-37540000D01*
X82530297Y-37540000D01*
X82471966Y-37551602D01*
X82471965Y-37551603D01*
X82405808Y-37595808D01*
X82361603Y-37661965D01*
X82361602Y-37661966D01*
X82350000Y-37720297D01*
X82350000Y-38340000D01*
X82966314Y-38340000D01*
X82940507Y-38380156D01*
X82900000Y-38518111D01*
X82900000Y-38661889D01*
X82940507Y-38799844D01*
X82966314Y-38840000D01*
X82350000Y-38840000D01*
X82350000Y-39459702D01*
X82361602Y-39518033D01*
X82361603Y-39518034D01*
X82374015Y-39536610D01*
X82394892Y-39603288D01*
X82376407Y-39670668D01*
X82324427Y-39717358D01*
X82270912Y-39729500D01*
X54129088Y-39729500D01*
X54062049Y-39709815D01*
X54016294Y-39657011D01*
X54006350Y-39587853D01*
X54025985Y-39536610D01*
X54038396Y-39518034D01*
X54038397Y-39518033D01*
X54049999Y-39459702D01*
X54050000Y-39459699D01*
X54050000Y-38840000D01*
X53433686Y-38840000D01*
X53459493Y-38799844D01*
X53500000Y-38661889D01*
X53500000Y-38518111D01*
X53459493Y-38380156D01*
X53433686Y-38340000D01*
X54050000Y-38340000D01*
X54050000Y-37720301D01*
X54049999Y-37720297D01*
X54038397Y-37661966D01*
X54038396Y-37661965D01*
X53994191Y-37595808D01*
X53928034Y-37551603D01*
X53928033Y-37551602D01*
X53869702Y-37540000D01*
X53250000Y-37540000D01*
X53250000Y-38154498D01*
X53142315Y-38105320D01*
X53035763Y-38090000D01*
X52964237Y-38090000D01*
X52857685Y-38105320D01*
X52750000Y-38154498D01*
X52750000Y-37540000D01*
X52130297Y-37540000D01*
X52071966Y-37551602D01*
X52071965Y-37551603D01*
X52005808Y-37595808D01*
X51961603Y-37661965D01*
X51961602Y-37661966D01*
X51950000Y-37720297D01*
X51950000Y-38340000D01*
X52566314Y-38340000D01*
X52540507Y-38380156D01*
X52500000Y-38518111D01*
X52500000Y-38661889D01*
X52540507Y-38799844D01*
X52566314Y-38840000D01*
X51950000Y-38840000D01*
X51950000Y-39459702D01*
X51961602Y-39518033D01*
X51961603Y-39518034D01*
X51974015Y-39536610D01*
X51994892Y-39603288D01*
X51976407Y-39670668D01*
X51924427Y-39717358D01*
X51870912Y-39729500D01*
X23729088Y-39729500D01*
X23662049Y-39709815D01*
X23616294Y-39657011D01*
X23606350Y-39587853D01*
X23625985Y-39536610D01*
X23638396Y-39518034D01*
X23638397Y-39518033D01*
X23649999Y-39459702D01*
X23650000Y-39459699D01*
X23650000Y-38840000D01*
X23033686Y-38840000D01*
X23059493Y-38799844D01*
X23100000Y-38661889D01*
X23100000Y-38518111D01*
X23059493Y-38380156D01*
X23033686Y-38340000D01*
X23650000Y-38340000D01*
X23650000Y-37720301D01*
X23649999Y-37720297D01*
X23638397Y-37661966D01*
X23638396Y-37661965D01*
X23594191Y-37595808D01*
X23528034Y-37551603D01*
X23528033Y-37551602D01*
X23469702Y-37540000D01*
X22850000Y-37540000D01*
X22850000Y-38154498D01*
X22742315Y-38105320D01*
X22635763Y-38090000D01*
X22564237Y-38090000D01*
X22457685Y-38105320D01*
X22350000Y-38154498D01*
X22350000Y-37540000D01*
X21730297Y-37540000D01*
X21671966Y-37551602D01*
X21671965Y-37551603D01*
X21605808Y-37595808D01*
X21561603Y-37661965D01*
X21561602Y-37661966D01*
X21550000Y-37720297D01*
X21550000Y-38340000D01*
X22166314Y-38340000D01*
X22140507Y-38380156D01*
X22100000Y-38518111D01*
X22100000Y-38661889D01*
X22140507Y-38799844D01*
X22166314Y-38840000D01*
X21550000Y-38840000D01*
X21550000Y-39459702D01*
X21561602Y-39518033D01*
X21580697Y-39546610D01*
X21601574Y-39613287D01*
X21583089Y-39680667D01*
X21531110Y-39727357D01*
X21477594Y-39739500D01*
X10590605Y-39739500D01*
X10523566Y-39719815D01*
X10477811Y-39667011D01*
X10467867Y-39597853D01*
X10496892Y-39534297D01*
X10532152Y-39506142D01*
X10545470Y-39499023D01*
X10132534Y-39086086D01*
X10142315Y-39084680D01*
X10273100Y-39024952D01*
X10381761Y-38930798D01*
X10459493Y-38809844D01*
X10483076Y-38729523D01*
X10899022Y-39145469D01*
X10974766Y-39003764D01*
X11034808Y-38805834D01*
X11055080Y-38600000D01*
X11034808Y-38394165D01*
X10974766Y-38196233D01*
X10899023Y-38054528D01*
X10483076Y-38470475D01*
X10459493Y-38390156D01*
X10381761Y-38269202D01*
X10273100Y-38175048D01*
X10142315Y-38115320D01*
X10132533Y-38113913D01*
X10545469Y-37700976D01*
X10545469Y-37700975D01*
X10403766Y-37625233D01*
X10205834Y-37565191D01*
X10000000Y-37544919D01*
X9794166Y-37565191D01*
X9596234Y-37625234D01*
X9454529Y-37700975D01*
X9454529Y-37700976D01*
X9867466Y-38113913D01*
X9857685Y-38115320D01*
X9726900Y-38175048D01*
X9618239Y-38269202D01*
X9540507Y-38390156D01*
X9516923Y-38470476D01*
X9100976Y-38054529D01*
X9100975Y-38054529D01*
X9025234Y-38196234D01*
X8965191Y-38394166D01*
X8944919Y-38600000D01*
X8965191Y-38805834D01*
X9025233Y-39003766D01*
X9100975Y-39145469D01*
X9100976Y-39145469D01*
X9516922Y-38729523D01*
X9540507Y-38809844D01*
X9618239Y-38930798D01*
X9726900Y-39024952D01*
X9857685Y-39084680D01*
X9867466Y-39086086D01*
X9454528Y-39499023D01*
X9597360Y-39575368D01*
X9647204Y-39624330D01*
X9662665Y-39692468D01*
X9638833Y-39758148D01*
X9583276Y-39800516D01*
X9570154Y-39804724D01*
X9531757Y-39814722D01*
X9531752Y-39814724D01*
X9314519Y-39912919D01*
X9314511Y-39912924D01*
X9117006Y-40046413D01*
X9116997Y-40046421D01*
X8944881Y-40211379D01*
X8803123Y-40403050D01*
X8803120Y-40403054D01*
X8695796Y-40615920D01*
X8695793Y-40615926D01*
X8625983Y-40843878D01*
X8595702Y-41080346D01*
X3700500Y-41080346D01*
X3700500Y-30089594D01*
X20695686Y-30089594D01*
X20726114Y-30366125D01*
X20796478Y-30635272D01*
X20851726Y-30765283D01*
X20905284Y-30891314D01*
X21050205Y-31128776D01*
X21050212Y-31128786D01*
X21228161Y-31342616D01*
X21228167Y-31342621D01*
X21393918Y-31491133D01*
X21435357Y-31528263D01*
X21667373Y-31681763D01*
X21919267Y-31799846D01*
X21919274Y-31799848D01*
X21919276Y-31799849D01*
X22185657Y-31879992D01*
X22185664Y-31879993D01*
X22185669Y-31879995D01*
X22460901Y-31920500D01*
X22460906Y-31920500D01*
X22669469Y-31920500D01*
X22729862Y-31916079D01*
X22877455Y-31905277D01*
X23148997Y-31844788D01*
X23408838Y-31745408D01*
X23651440Y-31609253D01*
X23871632Y-31439226D01*
X24064722Y-31238951D01*
X24226593Y-31012696D01*
X24302580Y-30864900D01*
X24353790Y-30765298D01*
X24353794Y-30765288D01*
X24353797Y-30765283D01*
X24443621Y-30501986D01*
X24494152Y-30228416D01*
X24499226Y-30089594D01*
X51095686Y-30089594D01*
X51126114Y-30366125D01*
X51196478Y-30635272D01*
X51251726Y-30765283D01*
X51305284Y-30891314D01*
X51450205Y-31128776D01*
X51450212Y-31128786D01*
X51628161Y-31342616D01*
X51628167Y-31342621D01*
X51793918Y-31491133D01*
X51835357Y-31528263D01*
X52067373Y-31681763D01*
X52319267Y-31799846D01*
X52319274Y-31799848D01*
X52319276Y-31799849D01*
X52585657Y-31879992D01*
X52585664Y-31879993D01*
X52585669Y-31879995D01*
X52860901Y-31920500D01*
X52860906Y-31920500D01*
X53069469Y-31920500D01*
X53129862Y-31916079D01*
X53277455Y-31905277D01*
X53548997Y-31844788D01*
X53808838Y-31745408D01*
X54051440Y-31609253D01*
X54271632Y-31439226D01*
X54464722Y-31238951D01*
X54626593Y-31012696D01*
X54702580Y-30864900D01*
X54753790Y-30765298D01*
X54753794Y-30765288D01*
X54753797Y-30765283D01*
X54843621Y-30501986D01*
X54894152Y-30228416D01*
X54899226Y-30089594D01*
X81495686Y-30089594D01*
X81526114Y-30366125D01*
X81596478Y-30635272D01*
X81651726Y-30765283D01*
X81705284Y-30891314D01*
X81850205Y-31128776D01*
X81850212Y-31128786D01*
X82028161Y-31342616D01*
X82028167Y-31342621D01*
X82193918Y-31491133D01*
X82235357Y-31528263D01*
X82467373Y-31681763D01*
X82719267Y-31799846D01*
X82719274Y-31799848D01*
X82719276Y-31799849D01*
X82985657Y-31879992D01*
X82985664Y-31879993D01*
X82985669Y-31879995D01*
X83260901Y-31920500D01*
X83260906Y-31920500D01*
X83469469Y-31920500D01*
X83529862Y-31916079D01*
X83677455Y-31905277D01*
X83948997Y-31844788D01*
X84208838Y-31745408D01*
X84451440Y-31609253D01*
X84671632Y-31439226D01*
X84864722Y-31238951D01*
X85026593Y-31012696D01*
X85102580Y-30864900D01*
X85153790Y-30765298D01*
X85153794Y-30765288D01*
X85153797Y-30765283D01*
X85243621Y-30501986D01*
X85294152Y-30228416D01*
X85299226Y-30089594D01*
X111895686Y-30089594D01*
X111926114Y-30366125D01*
X111996478Y-30635272D01*
X112051726Y-30765283D01*
X112105284Y-30891314D01*
X112250205Y-31128776D01*
X112250212Y-31128786D01*
X112428161Y-31342616D01*
X112428167Y-31342621D01*
X112593918Y-31491133D01*
X112635357Y-31528263D01*
X112867373Y-31681763D01*
X113119267Y-31799846D01*
X113119274Y-31799848D01*
X113119276Y-31799849D01*
X113385657Y-31879992D01*
X113385664Y-31879993D01*
X113385669Y-31879995D01*
X113660901Y-31920500D01*
X113660906Y-31920500D01*
X113869469Y-31920500D01*
X113929862Y-31916079D01*
X114077455Y-31905277D01*
X114348997Y-31844788D01*
X114608838Y-31745408D01*
X114851440Y-31609253D01*
X115071632Y-31439226D01*
X115264722Y-31238951D01*
X115426593Y-31012696D01*
X115502580Y-30864900D01*
X115553790Y-30765298D01*
X115553794Y-30765288D01*
X115553797Y-30765283D01*
X115643621Y-30501986D01*
X115694152Y-30228416D01*
X115704313Y-29950404D01*
X115673886Y-29673876D01*
X115603520Y-29404724D01*
X115494716Y-29148686D01*
X115349792Y-28911219D01*
X115258112Y-28801053D01*
X115171838Y-28697383D01*
X115171832Y-28697378D01*
X114964643Y-28511737D01*
X114732629Y-28358238D01*
X114732627Y-28358237D01*
X114480733Y-28240154D01*
X114480728Y-28240152D01*
X114480723Y-28240150D01*
X114214342Y-28160007D01*
X114214328Y-28160004D01*
X114095565Y-28142526D01*
X113939099Y-28119500D01*
X113730537Y-28119500D01*
X113730531Y-28119500D01*
X113522545Y-28134723D01*
X113522535Y-28134724D01*
X113251007Y-28195210D01*
X113250997Y-28195213D01*
X112991161Y-28294592D01*
X112748561Y-28430746D01*
X112748556Y-28430749D01*
X112528369Y-28600772D01*
X112528359Y-28600781D01*
X112335281Y-28801045D01*
X112335274Y-28801053D01*
X112173412Y-29027295D01*
X112173405Y-29027307D01*
X112046209Y-29274701D01*
X112046205Y-29274711D01*
X111956379Y-29538012D01*
X111956378Y-29538018D01*
X111905848Y-29811584D01*
X111905847Y-29811591D01*
X111895686Y-30089594D01*
X85299226Y-30089594D01*
X85304313Y-29950404D01*
X85273886Y-29673876D01*
X85203520Y-29404724D01*
X85094716Y-29148686D01*
X84949792Y-28911219D01*
X84858112Y-28801053D01*
X84771838Y-28697383D01*
X84771832Y-28697378D01*
X84564643Y-28511737D01*
X84332629Y-28358238D01*
X84332627Y-28358237D01*
X84080733Y-28240154D01*
X84080728Y-28240152D01*
X84080723Y-28240150D01*
X83814342Y-28160007D01*
X83814328Y-28160004D01*
X83695565Y-28142526D01*
X83539099Y-28119500D01*
X83330537Y-28119500D01*
X83330531Y-28119500D01*
X83122545Y-28134723D01*
X83122535Y-28134724D01*
X82851007Y-28195210D01*
X82850997Y-28195213D01*
X82591161Y-28294592D01*
X82348561Y-28430746D01*
X82348556Y-28430749D01*
X82128369Y-28600772D01*
X82128359Y-28600781D01*
X81935281Y-28801045D01*
X81935274Y-28801053D01*
X81773412Y-29027295D01*
X81773405Y-29027307D01*
X81646209Y-29274701D01*
X81646205Y-29274711D01*
X81556379Y-29538012D01*
X81556378Y-29538018D01*
X81505848Y-29811584D01*
X81505847Y-29811591D01*
X81495686Y-30089594D01*
X54899226Y-30089594D01*
X54904313Y-29950404D01*
X54873886Y-29673876D01*
X54803520Y-29404724D01*
X54694716Y-29148686D01*
X54549792Y-28911219D01*
X54458112Y-28801053D01*
X54371838Y-28697383D01*
X54371832Y-28697378D01*
X54164643Y-28511737D01*
X53932629Y-28358238D01*
X53932627Y-28358237D01*
X53680733Y-28240154D01*
X53680728Y-28240152D01*
X53680723Y-28240150D01*
X53414342Y-28160007D01*
X53414328Y-28160004D01*
X53295565Y-28142526D01*
X53139099Y-28119500D01*
X52930537Y-28119500D01*
X52930531Y-28119500D01*
X52722545Y-28134723D01*
X52722535Y-28134724D01*
X52451007Y-28195210D01*
X52450997Y-28195213D01*
X52191161Y-28294592D01*
X51948561Y-28430746D01*
X51948556Y-28430749D01*
X51728369Y-28600772D01*
X51728359Y-28600781D01*
X51535281Y-28801045D01*
X51535274Y-28801053D01*
X51373412Y-29027295D01*
X51373405Y-29027307D01*
X51246209Y-29274701D01*
X51246205Y-29274711D01*
X51156379Y-29538012D01*
X51156378Y-29538018D01*
X51105848Y-29811584D01*
X51105847Y-29811591D01*
X51095686Y-30089594D01*
X24499226Y-30089594D01*
X24504313Y-29950404D01*
X24473886Y-29673876D01*
X24403520Y-29404724D01*
X24294716Y-29148686D01*
X24149792Y-28911219D01*
X24058112Y-28801053D01*
X23971838Y-28697383D01*
X23971832Y-28697378D01*
X23764643Y-28511737D01*
X23532629Y-28358238D01*
X23532627Y-28358237D01*
X23280733Y-28240154D01*
X23280728Y-28240152D01*
X23280723Y-28240150D01*
X23014342Y-28160007D01*
X23014328Y-28160004D01*
X22895565Y-28142526D01*
X22739099Y-28119500D01*
X22530537Y-28119500D01*
X22530531Y-28119500D01*
X22322545Y-28134723D01*
X22322535Y-28134724D01*
X22051007Y-28195210D01*
X22050997Y-28195213D01*
X21791161Y-28294592D01*
X21548561Y-28430746D01*
X21548556Y-28430749D01*
X21328369Y-28600772D01*
X21328359Y-28600781D01*
X21135281Y-28801045D01*
X21135274Y-28801053D01*
X20973412Y-29027295D01*
X20973405Y-29027307D01*
X20846209Y-29274701D01*
X20846205Y-29274711D01*
X20756379Y-29538012D01*
X20756378Y-29538018D01*
X20705848Y-29811584D01*
X20705847Y-29811591D01*
X20695686Y-30089594D01*
X3700500Y-30089594D01*
X3700500Y-27022035D01*
X3700633Y-27017980D01*
X3702393Y-26991103D01*
X3705989Y-26936244D01*
X3718986Y-26754536D01*
X3720014Y-26746903D01*
X3743153Y-26630579D01*
X3747504Y-26610579D01*
X3774533Y-26486323D01*
X3776392Y-26479625D01*
X3816815Y-26360543D01*
X3866159Y-26228251D01*
X3868633Y-26222520D01*
X3925583Y-26107036D01*
X3992179Y-25985076D01*
X3995019Y-25980384D01*
X4066563Y-25873311D01*
X4068428Y-25870676D01*
X4150291Y-25761321D01*
X4153244Y-25757678D01*
X4238503Y-25660459D01*
X4241198Y-25657581D01*
X4337581Y-25561198D01*
X4340459Y-25558503D01*
X4437678Y-25473244D01*
X4441321Y-25470291D01*
X4550676Y-25388428D01*
X4553311Y-25386563D01*
X4660384Y-25315019D01*
X4665076Y-25312179D01*
X4787036Y-25245583D01*
X4902520Y-25188633D01*
X4908251Y-25186159D01*
X5040543Y-25136815D01*
X5159625Y-25096392D01*
X5166323Y-25094533D01*
X5310579Y-25063153D01*
X5316728Y-25061929D01*
X5426903Y-25040014D01*
X5434536Y-25038986D01*
X5616244Y-25025989D01*
X5669211Y-25022517D01*
X5697981Y-25020633D01*
X5702036Y-25020500D01*
X5751776Y-25020500D01*
X5751848Y-25020490D01*
X122897968Y-25000500D01*
X122902004Y-25000631D01*
G37*
%TD.AperFunction*%
%TD*%
M02*
