M48
; DRILL file {KiCad 7.0.9} date Sat Feb 10 01:54:01 2024
; FORMAT={-:-/ absolute / inch / decimal}
; #@! TF.CreationDate,2024-02-10T01:54:01-05:00
; #@! TF.GenerationSoftware,Kicad,Pcbnew,7.0.9
; #@! TF.FileFunction,Plated,1,2,PTH
FMAT,2
INCH
; #@! TA.AperFunction,Plated,PTH,ComponentDrill
T1C0.0394
%
G90
G05
T1
X0.3937Y-1.5197
X0.3937Y-1.6197
X0.3937Y-1.7197
X0.3937Y-1.8197
X0.3937Y-1.9197
X0.3937Y-2.0197
X0.3937Y-2.1197
X0.3937Y-2.2197
X0.3937Y-2.3197
X0.3937Y-2.4197
X0.8898Y-1.5193
X0.8898Y-1.6193
X0.8898Y-1.7193
X0.8898Y-1.8193
X0.8898Y-1.9193
X0.8898Y-2.0193
X0.8898Y-2.1193
X0.8898Y-2.2193
X0.8898Y-2.3193
X0.8898Y-2.4193
X2.0866Y-1.5193
X2.0866Y-1.6193
X2.0866Y-1.7193
X2.0866Y-1.8193
X2.0866Y-1.9193
X2.0866Y-2.0193
X2.0866Y-2.1193
X2.0866Y-2.2193
X2.0866Y-2.3193
X2.0866Y-2.4193
X3.2835Y-1.5193
X3.2835Y-1.6193
X3.2835Y-1.7193
X3.2835Y-1.8193
X3.2835Y-1.9193
X3.2835Y-2.0193
X3.2835Y-2.1193
X3.2835Y-2.2193
X3.2835Y-2.3193
X3.2835Y-2.4193
X4.4803Y-1.5193
X4.4803Y-1.6193
X4.4803Y-1.7193
X4.4803Y-1.8193
X4.4803Y-1.9193
X4.4803Y-2.0193
X4.4803Y-2.1193
X4.4803Y-2.2193
X4.4803Y-2.3193
X4.4803Y-2.4193
X4.626Y-1.5197
X4.626Y-1.6197
X4.626Y-1.7197
X4.626Y-1.8197
X4.626Y-1.9197
X4.626Y-2.0197
X4.626Y-2.1197
X4.626Y-2.2197
X4.626Y-2.3197
X4.626Y-2.4197
T1
G00X1.3268Y-2.7736
M15
G01X1.3268Y-2.7146
M16
G05
G00X1.5433Y-2.4685
M15
G01X1.4646Y-2.4685
M16
G05
G00X1.5295Y-2.7047
M15
G01X1.4783Y-2.7047
M16
G05
G00X1.6811Y-2.7736
M15
G01X1.6811Y-2.7146
M16
G05
T0
M30
