%TF.GenerationSoftware,KiCad,Pcbnew,7.0.9*%
%TF.CreationDate,2024-02-10T01:58:27-05:00*%
%TF.ProjectId,BREAD_Loaf,42524541-445f-44c6-9f61-662e6b696361,rev?*%
%TF.SameCoordinates,PX2fdfdc0PY36746e0*%
%TF.FileFunction,Legend,Top*%
%TF.FilePolarity,Positive*%
%FSLAX46Y46*%
G04 Gerber Fmt 4.6, Leading zero omitted, Abs format (unit mm)*
G04 Created by KiCad (PCBNEW 7.0.9) date 2024-02-10 01:58:27*
%MOMM*%
%LPD*%
G01*
G04 APERTURE LIST*
%ADD10C,0.150000*%
%ADD11C,0.300000*%
%ADD12C,0.100000*%
%ADD13C,0.050000*%
%ADD14C,0.120000*%
%ADD15C,0.010000*%
G04 APERTURE END LIST*
D10*
X4890476Y-41512295D02*
X4433333Y-41512295D01*
X4661905Y-41512295D02*
X4661905Y-40712295D01*
X4661905Y-40712295D02*
X4585714Y-40826580D01*
X4585714Y-40826580D02*
X4509524Y-40902771D01*
X4509524Y-40902771D02*
X4433333Y-40940866D01*
X5195238Y-40788485D02*
X5233334Y-40750390D01*
X5233334Y-40750390D02*
X5309524Y-40712295D01*
X5309524Y-40712295D02*
X5500000Y-40712295D01*
X5500000Y-40712295D02*
X5576191Y-40750390D01*
X5576191Y-40750390D02*
X5614286Y-40788485D01*
X5614286Y-40788485D02*
X5652381Y-40864676D01*
X5652381Y-40864676D02*
X5652381Y-40940866D01*
X5652381Y-40940866D02*
X5614286Y-41055152D01*
X5614286Y-41055152D02*
X5157143Y-41512295D01*
X5157143Y-41512295D02*
X5652381Y-41512295D01*
X5880953Y-40712295D02*
X6147620Y-41512295D01*
X6147620Y-41512295D02*
X6414286Y-40712295D01*
X4433333Y-44024200D02*
X4547619Y-44062295D01*
X4547619Y-44062295D02*
X4738095Y-44062295D01*
X4738095Y-44062295D02*
X4814286Y-44024200D01*
X4814286Y-44024200D02*
X4852381Y-43986104D01*
X4852381Y-43986104D02*
X4890476Y-43909914D01*
X4890476Y-43909914D02*
X4890476Y-43833723D01*
X4890476Y-43833723D02*
X4852381Y-43757533D01*
X4852381Y-43757533D02*
X4814286Y-43719438D01*
X4814286Y-43719438D02*
X4738095Y-43681342D01*
X4738095Y-43681342D02*
X4585714Y-43643247D01*
X4585714Y-43643247D02*
X4509524Y-43605152D01*
X4509524Y-43605152D02*
X4471429Y-43567057D01*
X4471429Y-43567057D02*
X4433333Y-43490866D01*
X4433333Y-43490866D02*
X4433333Y-43414676D01*
X4433333Y-43414676D02*
X4471429Y-43338485D01*
X4471429Y-43338485D02*
X4509524Y-43300390D01*
X4509524Y-43300390D02*
X4585714Y-43262295D01*
X4585714Y-43262295D02*
X4776191Y-43262295D01*
X4776191Y-43262295D02*
X4890476Y-43300390D01*
X5690477Y-43986104D02*
X5652381Y-44024200D01*
X5652381Y-44024200D02*
X5538096Y-44062295D01*
X5538096Y-44062295D02*
X5461905Y-44062295D01*
X5461905Y-44062295D02*
X5347619Y-44024200D01*
X5347619Y-44024200D02*
X5271429Y-43948009D01*
X5271429Y-43948009D02*
X5233334Y-43871819D01*
X5233334Y-43871819D02*
X5195238Y-43719438D01*
X5195238Y-43719438D02*
X5195238Y-43605152D01*
X5195238Y-43605152D02*
X5233334Y-43452771D01*
X5233334Y-43452771D02*
X5271429Y-43376580D01*
X5271429Y-43376580D02*
X5347619Y-43300390D01*
X5347619Y-43300390D02*
X5461905Y-43262295D01*
X5461905Y-43262295D02*
X5538096Y-43262295D01*
X5538096Y-43262295D02*
X5652381Y-43300390D01*
X5652381Y-43300390D02*
X5690477Y-43338485D01*
X6414286Y-44062295D02*
X6033334Y-44062295D01*
X6033334Y-44062295D02*
X6033334Y-43262295D01*
X4471429Y-56762295D02*
X4471429Y-55962295D01*
X4852381Y-56762295D02*
X4852381Y-55962295D01*
X4852381Y-55962295D02*
X5309524Y-56762295D01*
X5309524Y-56762295D02*
X5309524Y-55962295D01*
X5576190Y-55962295D02*
X6033333Y-55962295D01*
X5804761Y-56762295D02*
X5804761Y-55962295D01*
X4471428Y-51243247D02*
X4738094Y-51243247D01*
X4852380Y-51662295D02*
X4471428Y-51662295D01*
X4471428Y-51662295D02*
X4471428Y-50862295D01*
X4471428Y-50862295D02*
X4852380Y-50862295D01*
X5157142Y-51624200D02*
X5271428Y-51662295D01*
X5271428Y-51662295D02*
X5461904Y-51662295D01*
X5461904Y-51662295D02*
X5538095Y-51624200D01*
X5538095Y-51624200D02*
X5576190Y-51586104D01*
X5576190Y-51586104D02*
X5614285Y-51509914D01*
X5614285Y-51509914D02*
X5614285Y-51433723D01*
X5614285Y-51433723D02*
X5576190Y-51357533D01*
X5576190Y-51357533D02*
X5538095Y-51319438D01*
X5538095Y-51319438D02*
X5461904Y-51281342D01*
X5461904Y-51281342D02*
X5309523Y-51243247D01*
X5309523Y-51243247D02*
X5233333Y-51205152D01*
X5233333Y-51205152D02*
X5195238Y-51167057D01*
X5195238Y-51167057D02*
X5157142Y-51090866D01*
X5157142Y-51090866D02*
X5157142Y-51014676D01*
X5157142Y-51014676D02*
X5195238Y-50938485D01*
X5195238Y-50938485D02*
X5233333Y-50900390D01*
X5233333Y-50900390D02*
X5309523Y-50862295D01*
X5309523Y-50862295D02*
X5500000Y-50862295D01*
X5500000Y-50862295D02*
X5614285Y-50900390D01*
X5842857Y-50862295D02*
X6300000Y-50862295D01*
X6071428Y-51662295D02*
X6071428Y-50862295D01*
X6719048Y-50862295D02*
X6871429Y-50862295D01*
X6871429Y-50862295D02*
X6947619Y-50900390D01*
X6947619Y-50900390D02*
X7023810Y-50976580D01*
X7023810Y-50976580D02*
X7061905Y-51128961D01*
X7061905Y-51128961D02*
X7061905Y-51395628D01*
X7061905Y-51395628D02*
X7023810Y-51548009D01*
X7023810Y-51548009D02*
X6947619Y-51624200D01*
X6947619Y-51624200D02*
X6871429Y-51662295D01*
X6871429Y-51662295D02*
X6719048Y-51662295D01*
X6719048Y-51662295D02*
X6642857Y-51624200D01*
X6642857Y-51624200D02*
X6566667Y-51548009D01*
X6566667Y-51548009D02*
X6528571Y-51395628D01*
X6528571Y-51395628D02*
X6528571Y-51128961D01*
X6528571Y-51128961D02*
X6566667Y-50976580D01*
X6566667Y-50976580D02*
X6642857Y-50900390D01*
X6642857Y-50900390D02*
X6719048Y-50862295D01*
X7404762Y-51662295D02*
X7404762Y-50862295D01*
X7404762Y-50862295D02*
X7709524Y-50862295D01*
X7709524Y-50862295D02*
X7785714Y-50900390D01*
X7785714Y-50900390D02*
X7823809Y-50938485D01*
X7823809Y-50938485D02*
X7861905Y-51014676D01*
X7861905Y-51014676D02*
X7861905Y-51128961D01*
X7861905Y-51128961D02*
X7823809Y-51205152D01*
X7823809Y-51205152D02*
X7785714Y-51243247D01*
X7785714Y-51243247D02*
X7709524Y-51281342D01*
X7709524Y-51281342D02*
X7404762Y-51281342D01*
X4433333Y-46574200D02*
X4547619Y-46612295D01*
X4547619Y-46612295D02*
X4738095Y-46612295D01*
X4738095Y-46612295D02*
X4814286Y-46574200D01*
X4814286Y-46574200D02*
X4852381Y-46536104D01*
X4852381Y-46536104D02*
X4890476Y-46459914D01*
X4890476Y-46459914D02*
X4890476Y-46383723D01*
X4890476Y-46383723D02*
X4852381Y-46307533D01*
X4852381Y-46307533D02*
X4814286Y-46269438D01*
X4814286Y-46269438D02*
X4738095Y-46231342D01*
X4738095Y-46231342D02*
X4585714Y-46193247D01*
X4585714Y-46193247D02*
X4509524Y-46155152D01*
X4509524Y-46155152D02*
X4471429Y-46117057D01*
X4471429Y-46117057D02*
X4433333Y-46040866D01*
X4433333Y-46040866D02*
X4433333Y-45964676D01*
X4433333Y-45964676D02*
X4471429Y-45888485D01*
X4471429Y-45888485D02*
X4509524Y-45850390D01*
X4509524Y-45850390D02*
X4585714Y-45812295D01*
X4585714Y-45812295D02*
X4776191Y-45812295D01*
X4776191Y-45812295D02*
X4890476Y-45850390D01*
X5233334Y-46612295D02*
X5233334Y-45812295D01*
X5233334Y-45812295D02*
X5423810Y-45812295D01*
X5423810Y-45812295D02*
X5538096Y-45850390D01*
X5538096Y-45850390D02*
X5614286Y-45926580D01*
X5614286Y-45926580D02*
X5652381Y-46002771D01*
X5652381Y-46002771D02*
X5690477Y-46155152D01*
X5690477Y-46155152D02*
X5690477Y-46269438D01*
X5690477Y-46269438D02*
X5652381Y-46421819D01*
X5652381Y-46421819D02*
X5614286Y-46498009D01*
X5614286Y-46498009D02*
X5538096Y-46574200D01*
X5538096Y-46574200D02*
X5423810Y-46612295D01*
X5423810Y-46612295D02*
X5233334Y-46612295D01*
X5995238Y-46383723D02*
X6376191Y-46383723D01*
X5919048Y-46612295D02*
X6185715Y-45812295D01*
X6185715Y-45812295D02*
X6452381Y-46612295D01*
X4433333Y-54174200D02*
X4547619Y-54212295D01*
X4547619Y-54212295D02*
X4738095Y-54212295D01*
X4738095Y-54212295D02*
X4814286Y-54174200D01*
X4814286Y-54174200D02*
X4852381Y-54136104D01*
X4852381Y-54136104D02*
X4890476Y-54059914D01*
X4890476Y-54059914D02*
X4890476Y-53983723D01*
X4890476Y-53983723D02*
X4852381Y-53907533D01*
X4852381Y-53907533D02*
X4814286Y-53869438D01*
X4814286Y-53869438D02*
X4738095Y-53831342D01*
X4738095Y-53831342D02*
X4585714Y-53793247D01*
X4585714Y-53793247D02*
X4509524Y-53755152D01*
X4509524Y-53755152D02*
X4471429Y-53717057D01*
X4471429Y-53717057D02*
X4433333Y-53640866D01*
X4433333Y-53640866D02*
X4433333Y-53564676D01*
X4433333Y-53564676D02*
X4471429Y-53488485D01*
X4471429Y-53488485D02*
X4509524Y-53450390D01*
X4509524Y-53450390D02*
X4585714Y-53412295D01*
X4585714Y-53412295D02*
X4776191Y-53412295D01*
X4776191Y-53412295D02*
X4890476Y-53450390D01*
X5385715Y-53831342D02*
X5385715Y-54212295D01*
X5119048Y-53412295D02*
X5385715Y-53831342D01*
X5385715Y-53831342D02*
X5652381Y-53412295D01*
X5919048Y-54212295D02*
X5919048Y-53412295D01*
X5919048Y-53412295D02*
X6376191Y-54212295D01*
X6376191Y-54212295D02*
X6376191Y-53412295D01*
X7214286Y-54136104D02*
X7176190Y-54174200D01*
X7176190Y-54174200D02*
X7061905Y-54212295D01*
X7061905Y-54212295D02*
X6985714Y-54212295D01*
X6985714Y-54212295D02*
X6871428Y-54174200D01*
X6871428Y-54174200D02*
X6795238Y-54098009D01*
X6795238Y-54098009D02*
X6757143Y-54021819D01*
X6757143Y-54021819D02*
X6719047Y-53869438D01*
X6719047Y-53869438D02*
X6719047Y-53755152D01*
X6719047Y-53755152D02*
X6757143Y-53602771D01*
X6757143Y-53602771D02*
X6795238Y-53526580D01*
X6795238Y-53526580D02*
X6871428Y-53450390D01*
X6871428Y-53450390D02*
X6985714Y-53412295D01*
X6985714Y-53412295D02*
X7061905Y-53412295D01*
X7061905Y-53412295D02*
X7176190Y-53450390D01*
X7176190Y-53450390D02*
X7214286Y-53488485D01*
X4890476Y-38200390D02*
X4814286Y-38162295D01*
X4814286Y-38162295D02*
X4700000Y-38162295D01*
X4700000Y-38162295D02*
X4585714Y-38200390D01*
X4585714Y-38200390D02*
X4509524Y-38276580D01*
X4509524Y-38276580D02*
X4471429Y-38352771D01*
X4471429Y-38352771D02*
X4433333Y-38505152D01*
X4433333Y-38505152D02*
X4433333Y-38619438D01*
X4433333Y-38619438D02*
X4471429Y-38771819D01*
X4471429Y-38771819D02*
X4509524Y-38848009D01*
X4509524Y-38848009D02*
X4585714Y-38924200D01*
X4585714Y-38924200D02*
X4700000Y-38962295D01*
X4700000Y-38962295D02*
X4776191Y-38962295D01*
X4776191Y-38962295D02*
X4890476Y-38924200D01*
X4890476Y-38924200D02*
X4928572Y-38886104D01*
X4928572Y-38886104D02*
X4928572Y-38619438D01*
X4928572Y-38619438D02*
X4776191Y-38619438D01*
X5271429Y-38962295D02*
X5271429Y-38162295D01*
X5271429Y-38162295D02*
X5728572Y-38962295D01*
X5728572Y-38962295D02*
X5728572Y-38162295D01*
X6109524Y-38962295D02*
X6109524Y-38162295D01*
X6109524Y-38162295D02*
X6300000Y-38162295D01*
X6300000Y-38162295D02*
X6414286Y-38200390D01*
X6414286Y-38200390D02*
X6490476Y-38276580D01*
X6490476Y-38276580D02*
X6528571Y-38352771D01*
X6528571Y-38352771D02*
X6566667Y-38505152D01*
X6566667Y-38505152D02*
X6566667Y-38619438D01*
X6566667Y-38619438D02*
X6528571Y-38771819D01*
X6528571Y-38771819D02*
X6490476Y-38848009D01*
X6490476Y-38848009D02*
X6414286Y-38924200D01*
X6414286Y-38924200D02*
X6300000Y-38962295D01*
X6300000Y-38962295D02*
X6109524Y-38962295D01*
X4890476Y-59312295D02*
X4433333Y-59312295D01*
X4661905Y-59312295D02*
X4661905Y-58512295D01*
X4661905Y-58512295D02*
X4585714Y-58626580D01*
X4585714Y-58626580D02*
X4509524Y-58702771D01*
X4509524Y-58702771D02*
X4433333Y-58740866D01*
X5195238Y-58588485D02*
X5233334Y-58550390D01*
X5233334Y-58550390D02*
X5309524Y-58512295D01*
X5309524Y-58512295D02*
X5500000Y-58512295D01*
X5500000Y-58512295D02*
X5576191Y-58550390D01*
X5576191Y-58550390D02*
X5614286Y-58588485D01*
X5614286Y-58588485D02*
X5652381Y-58664676D01*
X5652381Y-58664676D02*
X5652381Y-58740866D01*
X5652381Y-58740866D02*
X5614286Y-58855152D01*
X5614286Y-58855152D02*
X5157143Y-59312295D01*
X5157143Y-59312295D02*
X5652381Y-59312295D01*
X5880953Y-58512295D02*
X6147620Y-59312295D01*
X6147620Y-59312295D02*
X6414286Y-58512295D01*
X4890476Y-48400390D02*
X4814286Y-48362295D01*
X4814286Y-48362295D02*
X4700000Y-48362295D01*
X4700000Y-48362295D02*
X4585714Y-48400390D01*
X4585714Y-48400390D02*
X4509524Y-48476580D01*
X4509524Y-48476580D02*
X4471429Y-48552771D01*
X4471429Y-48552771D02*
X4433333Y-48705152D01*
X4433333Y-48705152D02*
X4433333Y-48819438D01*
X4433333Y-48819438D02*
X4471429Y-48971819D01*
X4471429Y-48971819D02*
X4509524Y-49048009D01*
X4509524Y-49048009D02*
X4585714Y-49124200D01*
X4585714Y-49124200D02*
X4700000Y-49162295D01*
X4700000Y-49162295D02*
X4776191Y-49162295D01*
X4776191Y-49162295D02*
X4890476Y-49124200D01*
X4890476Y-49124200D02*
X4928572Y-49086104D01*
X4928572Y-49086104D02*
X4928572Y-48819438D01*
X4928572Y-48819438D02*
X4776191Y-48819438D01*
X5271429Y-49162295D02*
X5271429Y-48362295D01*
X5271429Y-48362295D02*
X5728572Y-49162295D01*
X5728572Y-49162295D02*
X5728572Y-48362295D01*
X6109524Y-49162295D02*
X6109524Y-48362295D01*
X6109524Y-48362295D02*
X6300000Y-48362295D01*
X6300000Y-48362295D02*
X6414286Y-48400390D01*
X6414286Y-48400390D02*
X6490476Y-48476580D01*
X6490476Y-48476580D02*
X6528571Y-48552771D01*
X6528571Y-48552771D02*
X6566667Y-48705152D01*
X6566667Y-48705152D02*
X6566667Y-48819438D01*
X6566667Y-48819438D02*
X6528571Y-48971819D01*
X6528571Y-48971819D02*
X6490476Y-49048009D01*
X6490476Y-49048009D02*
X6414286Y-49124200D01*
X6414286Y-49124200D02*
X6300000Y-49162295D01*
X6300000Y-49162295D02*
X6109524Y-49162295D01*
X4890476Y-61050390D02*
X4814286Y-61012295D01*
X4814286Y-61012295D02*
X4700000Y-61012295D01*
X4700000Y-61012295D02*
X4585714Y-61050390D01*
X4585714Y-61050390D02*
X4509524Y-61126580D01*
X4509524Y-61126580D02*
X4471429Y-61202771D01*
X4471429Y-61202771D02*
X4433333Y-61355152D01*
X4433333Y-61355152D02*
X4433333Y-61469438D01*
X4433333Y-61469438D02*
X4471429Y-61621819D01*
X4471429Y-61621819D02*
X4509524Y-61698009D01*
X4509524Y-61698009D02*
X4585714Y-61774200D01*
X4585714Y-61774200D02*
X4700000Y-61812295D01*
X4700000Y-61812295D02*
X4776191Y-61812295D01*
X4776191Y-61812295D02*
X4890476Y-61774200D01*
X4890476Y-61774200D02*
X4928572Y-61736104D01*
X4928572Y-61736104D02*
X4928572Y-61469438D01*
X4928572Y-61469438D02*
X4776191Y-61469438D01*
X5271429Y-61812295D02*
X5271429Y-61012295D01*
X5271429Y-61012295D02*
X5728572Y-61812295D01*
X5728572Y-61812295D02*
X5728572Y-61012295D01*
X6109524Y-61812295D02*
X6109524Y-61012295D01*
X6109524Y-61012295D02*
X6300000Y-61012295D01*
X6300000Y-61012295D02*
X6414286Y-61050390D01*
X6414286Y-61050390D02*
X6490476Y-61126580D01*
X6490476Y-61126580D02*
X6528571Y-61202771D01*
X6528571Y-61202771D02*
X6566667Y-61355152D01*
X6566667Y-61355152D02*
X6566667Y-61469438D01*
X6566667Y-61469438D02*
X6528571Y-61621819D01*
X6528571Y-61621819D02*
X6490476Y-61698009D01*
X6490476Y-61698009D02*
X6414286Y-61774200D01*
X6414286Y-61774200D02*
X6300000Y-61812295D01*
X6300000Y-61812295D02*
X6109524Y-61812295D01*
D11*
X121400000Y-25300000D02*
X121400000Y-74700000D01*
X30200000Y-25300000D02*
X30200000Y-74700000D01*
X91000000Y-25300000D02*
X91000000Y-74700000D01*
X60600000Y-25300000D02*
X60600000Y-74700000D01*
D10*
X12161905Y-73607200D02*
X12304762Y-73654819D01*
X12304762Y-73654819D02*
X12542857Y-73654819D01*
X12542857Y-73654819D02*
X12638095Y-73607200D01*
X12638095Y-73607200D02*
X12685714Y-73559580D01*
X12685714Y-73559580D02*
X12733333Y-73464342D01*
X12733333Y-73464342D02*
X12733333Y-73369104D01*
X12733333Y-73369104D02*
X12685714Y-73273866D01*
X12685714Y-73273866D02*
X12638095Y-73226247D01*
X12638095Y-73226247D02*
X12542857Y-73178628D01*
X12542857Y-73178628D02*
X12352381Y-73131009D01*
X12352381Y-73131009D02*
X12257143Y-73083390D01*
X12257143Y-73083390D02*
X12209524Y-73035771D01*
X12209524Y-73035771D02*
X12161905Y-72940533D01*
X12161905Y-72940533D02*
X12161905Y-72845295D01*
X12161905Y-72845295D02*
X12209524Y-72750057D01*
X12209524Y-72750057D02*
X12257143Y-72702438D01*
X12257143Y-72702438D02*
X12352381Y-72654819D01*
X12352381Y-72654819D02*
X12590476Y-72654819D01*
X12590476Y-72654819D02*
X12733333Y-72702438D01*
X13638095Y-73654819D02*
X13161905Y-73654819D01*
X13161905Y-73654819D02*
X13161905Y-72654819D01*
X13971429Y-73654819D02*
X13971429Y-72654819D01*
X15019047Y-73559580D02*
X14971428Y-73607200D01*
X14971428Y-73607200D02*
X14828571Y-73654819D01*
X14828571Y-73654819D02*
X14733333Y-73654819D01*
X14733333Y-73654819D02*
X14590476Y-73607200D01*
X14590476Y-73607200D02*
X14495238Y-73511961D01*
X14495238Y-73511961D02*
X14447619Y-73416723D01*
X14447619Y-73416723D02*
X14400000Y-73226247D01*
X14400000Y-73226247D02*
X14400000Y-73083390D01*
X14400000Y-73083390D02*
X14447619Y-72892914D01*
X14447619Y-72892914D02*
X14495238Y-72797676D01*
X14495238Y-72797676D02*
X14590476Y-72702438D01*
X14590476Y-72702438D02*
X14733333Y-72654819D01*
X14733333Y-72654819D02*
X14828571Y-72654819D01*
X14828571Y-72654819D02*
X14971428Y-72702438D01*
X14971428Y-72702438D02*
X15019047Y-72750057D01*
X15447619Y-73131009D02*
X15780952Y-73131009D01*
X15923809Y-73654819D02*
X15447619Y-73654819D01*
X15447619Y-73654819D02*
X15447619Y-72654819D01*
X15447619Y-72654819D02*
X15923809Y-72654819D01*
X17638095Y-73654819D02*
X17066667Y-73654819D01*
X17352381Y-73654819D02*
X17352381Y-72654819D01*
X17352381Y-72654819D02*
X17257143Y-72797676D01*
X17257143Y-72797676D02*
X17161905Y-72892914D01*
X17161905Y-72892914D02*
X17066667Y-72940533D01*
X42561905Y-73607200D02*
X42704762Y-73654819D01*
X42704762Y-73654819D02*
X42942857Y-73654819D01*
X42942857Y-73654819D02*
X43038095Y-73607200D01*
X43038095Y-73607200D02*
X43085714Y-73559580D01*
X43085714Y-73559580D02*
X43133333Y-73464342D01*
X43133333Y-73464342D02*
X43133333Y-73369104D01*
X43133333Y-73369104D02*
X43085714Y-73273866D01*
X43085714Y-73273866D02*
X43038095Y-73226247D01*
X43038095Y-73226247D02*
X42942857Y-73178628D01*
X42942857Y-73178628D02*
X42752381Y-73131009D01*
X42752381Y-73131009D02*
X42657143Y-73083390D01*
X42657143Y-73083390D02*
X42609524Y-73035771D01*
X42609524Y-73035771D02*
X42561905Y-72940533D01*
X42561905Y-72940533D02*
X42561905Y-72845295D01*
X42561905Y-72845295D02*
X42609524Y-72750057D01*
X42609524Y-72750057D02*
X42657143Y-72702438D01*
X42657143Y-72702438D02*
X42752381Y-72654819D01*
X42752381Y-72654819D02*
X42990476Y-72654819D01*
X42990476Y-72654819D02*
X43133333Y-72702438D01*
X44038095Y-73654819D02*
X43561905Y-73654819D01*
X43561905Y-73654819D02*
X43561905Y-72654819D01*
X44371429Y-73654819D02*
X44371429Y-72654819D01*
X45419047Y-73559580D02*
X45371428Y-73607200D01*
X45371428Y-73607200D02*
X45228571Y-73654819D01*
X45228571Y-73654819D02*
X45133333Y-73654819D01*
X45133333Y-73654819D02*
X44990476Y-73607200D01*
X44990476Y-73607200D02*
X44895238Y-73511961D01*
X44895238Y-73511961D02*
X44847619Y-73416723D01*
X44847619Y-73416723D02*
X44800000Y-73226247D01*
X44800000Y-73226247D02*
X44800000Y-73083390D01*
X44800000Y-73083390D02*
X44847619Y-72892914D01*
X44847619Y-72892914D02*
X44895238Y-72797676D01*
X44895238Y-72797676D02*
X44990476Y-72702438D01*
X44990476Y-72702438D02*
X45133333Y-72654819D01*
X45133333Y-72654819D02*
X45228571Y-72654819D01*
X45228571Y-72654819D02*
X45371428Y-72702438D01*
X45371428Y-72702438D02*
X45419047Y-72750057D01*
X45847619Y-73131009D02*
X46180952Y-73131009D01*
X46323809Y-73654819D02*
X45847619Y-73654819D01*
X45847619Y-73654819D02*
X45847619Y-72654819D01*
X45847619Y-72654819D02*
X46323809Y-72654819D01*
X47466667Y-72750057D02*
X47514286Y-72702438D01*
X47514286Y-72702438D02*
X47609524Y-72654819D01*
X47609524Y-72654819D02*
X47847619Y-72654819D01*
X47847619Y-72654819D02*
X47942857Y-72702438D01*
X47942857Y-72702438D02*
X47990476Y-72750057D01*
X47990476Y-72750057D02*
X48038095Y-72845295D01*
X48038095Y-72845295D02*
X48038095Y-72940533D01*
X48038095Y-72940533D02*
X47990476Y-73083390D01*
X47990476Y-73083390D02*
X47419048Y-73654819D01*
X47419048Y-73654819D02*
X48038095Y-73654819D01*
X103361905Y-73607200D02*
X103504762Y-73654819D01*
X103504762Y-73654819D02*
X103742857Y-73654819D01*
X103742857Y-73654819D02*
X103838095Y-73607200D01*
X103838095Y-73607200D02*
X103885714Y-73559580D01*
X103885714Y-73559580D02*
X103933333Y-73464342D01*
X103933333Y-73464342D02*
X103933333Y-73369104D01*
X103933333Y-73369104D02*
X103885714Y-73273866D01*
X103885714Y-73273866D02*
X103838095Y-73226247D01*
X103838095Y-73226247D02*
X103742857Y-73178628D01*
X103742857Y-73178628D02*
X103552381Y-73131009D01*
X103552381Y-73131009D02*
X103457143Y-73083390D01*
X103457143Y-73083390D02*
X103409524Y-73035771D01*
X103409524Y-73035771D02*
X103361905Y-72940533D01*
X103361905Y-72940533D02*
X103361905Y-72845295D01*
X103361905Y-72845295D02*
X103409524Y-72750057D01*
X103409524Y-72750057D02*
X103457143Y-72702438D01*
X103457143Y-72702438D02*
X103552381Y-72654819D01*
X103552381Y-72654819D02*
X103790476Y-72654819D01*
X103790476Y-72654819D02*
X103933333Y-72702438D01*
X104838095Y-73654819D02*
X104361905Y-73654819D01*
X104361905Y-73654819D02*
X104361905Y-72654819D01*
X105171429Y-73654819D02*
X105171429Y-72654819D01*
X106219047Y-73559580D02*
X106171428Y-73607200D01*
X106171428Y-73607200D02*
X106028571Y-73654819D01*
X106028571Y-73654819D02*
X105933333Y-73654819D01*
X105933333Y-73654819D02*
X105790476Y-73607200D01*
X105790476Y-73607200D02*
X105695238Y-73511961D01*
X105695238Y-73511961D02*
X105647619Y-73416723D01*
X105647619Y-73416723D02*
X105600000Y-73226247D01*
X105600000Y-73226247D02*
X105600000Y-73083390D01*
X105600000Y-73083390D02*
X105647619Y-72892914D01*
X105647619Y-72892914D02*
X105695238Y-72797676D01*
X105695238Y-72797676D02*
X105790476Y-72702438D01*
X105790476Y-72702438D02*
X105933333Y-72654819D01*
X105933333Y-72654819D02*
X106028571Y-72654819D01*
X106028571Y-72654819D02*
X106171428Y-72702438D01*
X106171428Y-72702438D02*
X106219047Y-72750057D01*
X106647619Y-73131009D02*
X106980952Y-73131009D01*
X107123809Y-73654819D02*
X106647619Y-73654819D01*
X106647619Y-73654819D02*
X106647619Y-72654819D01*
X106647619Y-72654819D02*
X107123809Y-72654819D01*
X108742857Y-72988152D02*
X108742857Y-73654819D01*
X108504762Y-72607200D02*
X108266667Y-73321485D01*
X108266667Y-73321485D02*
X108885714Y-73321485D01*
X72961905Y-73607200D02*
X73104762Y-73654819D01*
X73104762Y-73654819D02*
X73342857Y-73654819D01*
X73342857Y-73654819D02*
X73438095Y-73607200D01*
X73438095Y-73607200D02*
X73485714Y-73559580D01*
X73485714Y-73559580D02*
X73533333Y-73464342D01*
X73533333Y-73464342D02*
X73533333Y-73369104D01*
X73533333Y-73369104D02*
X73485714Y-73273866D01*
X73485714Y-73273866D02*
X73438095Y-73226247D01*
X73438095Y-73226247D02*
X73342857Y-73178628D01*
X73342857Y-73178628D02*
X73152381Y-73131009D01*
X73152381Y-73131009D02*
X73057143Y-73083390D01*
X73057143Y-73083390D02*
X73009524Y-73035771D01*
X73009524Y-73035771D02*
X72961905Y-72940533D01*
X72961905Y-72940533D02*
X72961905Y-72845295D01*
X72961905Y-72845295D02*
X73009524Y-72750057D01*
X73009524Y-72750057D02*
X73057143Y-72702438D01*
X73057143Y-72702438D02*
X73152381Y-72654819D01*
X73152381Y-72654819D02*
X73390476Y-72654819D01*
X73390476Y-72654819D02*
X73533333Y-72702438D01*
X74438095Y-73654819D02*
X73961905Y-73654819D01*
X73961905Y-73654819D02*
X73961905Y-72654819D01*
X74771429Y-73654819D02*
X74771429Y-72654819D01*
X75819047Y-73559580D02*
X75771428Y-73607200D01*
X75771428Y-73607200D02*
X75628571Y-73654819D01*
X75628571Y-73654819D02*
X75533333Y-73654819D01*
X75533333Y-73654819D02*
X75390476Y-73607200D01*
X75390476Y-73607200D02*
X75295238Y-73511961D01*
X75295238Y-73511961D02*
X75247619Y-73416723D01*
X75247619Y-73416723D02*
X75200000Y-73226247D01*
X75200000Y-73226247D02*
X75200000Y-73083390D01*
X75200000Y-73083390D02*
X75247619Y-72892914D01*
X75247619Y-72892914D02*
X75295238Y-72797676D01*
X75295238Y-72797676D02*
X75390476Y-72702438D01*
X75390476Y-72702438D02*
X75533333Y-72654819D01*
X75533333Y-72654819D02*
X75628571Y-72654819D01*
X75628571Y-72654819D02*
X75771428Y-72702438D01*
X75771428Y-72702438D02*
X75819047Y-72750057D01*
X76247619Y-73131009D02*
X76580952Y-73131009D01*
X76723809Y-73654819D02*
X76247619Y-73654819D01*
X76247619Y-73654819D02*
X76247619Y-72654819D01*
X76247619Y-72654819D02*
X76723809Y-72654819D01*
X77819048Y-72654819D02*
X78438095Y-72654819D01*
X78438095Y-72654819D02*
X78104762Y-73035771D01*
X78104762Y-73035771D02*
X78247619Y-73035771D01*
X78247619Y-73035771D02*
X78342857Y-73083390D01*
X78342857Y-73083390D02*
X78390476Y-73131009D01*
X78390476Y-73131009D02*
X78438095Y-73226247D01*
X78438095Y-73226247D02*
X78438095Y-73464342D01*
X78438095Y-73464342D02*
X78390476Y-73559580D01*
X78390476Y-73559580D02*
X78342857Y-73607200D01*
X78342857Y-73607200D02*
X78247619Y-73654819D01*
X78247619Y-73654819D02*
X77961905Y-73654819D01*
X77961905Y-73654819D02*
X77866667Y-73607200D01*
X77866667Y-73607200D02*
X77819048Y-73559580D01*
X41674085Y-48601962D02*
X41674085Y-48125772D01*
X41674085Y-48125772D02*
X42674085Y-48125772D01*
X41674085Y-49078153D02*
X41721705Y-48982915D01*
X41721705Y-48982915D02*
X41769324Y-48935296D01*
X41769324Y-48935296D02*
X41864562Y-48887677D01*
X41864562Y-48887677D02*
X42150276Y-48887677D01*
X42150276Y-48887677D02*
X42245514Y-48935296D01*
X42245514Y-48935296D02*
X42293133Y-48982915D01*
X42293133Y-48982915D02*
X42340752Y-49078153D01*
X42340752Y-49078153D02*
X42340752Y-49221010D01*
X42340752Y-49221010D02*
X42293133Y-49316248D01*
X42293133Y-49316248D02*
X42245514Y-49363867D01*
X42245514Y-49363867D02*
X42150276Y-49411486D01*
X42150276Y-49411486D02*
X41864562Y-49411486D01*
X41864562Y-49411486D02*
X41769324Y-49363867D01*
X41769324Y-49363867D02*
X41721705Y-49316248D01*
X41721705Y-49316248D02*
X41674085Y-49221010D01*
X41674085Y-49221010D02*
X41674085Y-49078153D01*
X41674085Y-50268629D02*
X42197895Y-50268629D01*
X42197895Y-50268629D02*
X42293133Y-50221010D01*
X42293133Y-50221010D02*
X42340752Y-50125772D01*
X42340752Y-50125772D02*
X42340752Y-49935296D01*
X42340752Y-49935296D02*
X42293133Y-49840058D01*
X41721705Y-50268629D02*
X41674085Y-50173391D01*
X41674085Y-50173391D02*
X41674085Y-49935296D01*
X41674085Y-49935296D02*
X41721705Y-49840058D01*
X41721705Y-49840058D02*
X41816943Y-49792439D01*
X41816943Y-49792439D02*
X41912181Y-49792439D01*
X41912181Y-49792439D02*
X42007419Y-49840058D01*
X42007419Y-49840058D02*
X42055038Y-49935296D01*
X42055038Y-49935296D02*
X42055038Y-50173391D01*
X42055038Y-50173391D02*
X42102657Y-50268629D01*
X42340752Y-50601963D02*
X42340752Y-50982915D01*
X41674085Y-50744820D02*
X42531228Y-50744820D01*
X42531228Y-50744820D02*
X42626466Y-50792439D01*
X42626466Y-50792439D02*
X42674085Y-50887677D01*
X42674085Y-50887677D02*
X42674085Y-50982915D01*
X42197895Y-52411487D02*
X42150276Y-52554344D01*
X42150276Y-52554344D02*
X42102657Y-52601963D01*
X42102657Y-52601963D02*
X42007419Y-52649582D01*
X42007419Y-52649582D02*
X41864562Y-52649582D01*
X41864562Y-52649582D02*
X41769324Y-52601963D01*
X41769324Y-52601963D02*
X41721705Y-52554344D01*
X41721705Y-52554344D02*
X41674085Y-52459106D01*
X41674085Y-52459106D02*
X41674085Y-52078154D01*
X41674085Y-52078154D02*
X42674085Y-52078154D01*
X42674085Y-52078154D02*
X42674085Y-52411487D01*
X42674085Y-52411487D02*
X42626466Y-52506725D01*
X42626466Y-52506725D02*
X42578847Y-52554344D01*
X42578847Y-52554344D02*
X42483609Y-52601963D01*
X42483609Y-52601963D02*
X42388371Y-52601963D01*
X42388371Y-52601963D02*
X42293133Y-52554344D01*
X42293133Y-52554344D02*
X42245514Y-52506725D01*
X42245514Y-52506725D02*
X42197895Y-52411487D01*
X42197895Y-52411487D02*
X42197895Y-52078154D01*
X41674085Y-53506725D02*
X42197895Y-53506725D01*
X42197895Y-53506725D02*
X42293133Y-53459106D01*
X42293133Y-53459106D02*
X42340752Y-53363868D01*
X42340752Y-53363868D02*
X42340752Y-53173392D01*
X42340752Y-53173392D02*
X42293133Y-53078154D01*
X41721705Y-53506725D02*
X41674085Y-53411487D01*
X41674085Y-53411487D02*
X41674085Y-53173392D01*
X41674085Y-53173392D02*
X41721705Y-53078154D01*
X41721705Y-53078154D02*
X41816943Y-53030535D01*
X41816943Y-53030535D02*
X41912181Y-53030535D01*
X41912181Y-53030535D02*
X42007419Y-53078154D01*
X42007419Y-53078154D02*
X42055038Y-53173392D01*
X42055038Y-53173392D02*
X42055038Y-53411487D01*
X42055038Y-53411487D02*
X42102657Y-53506725D01*
X41721705Y-54411487D02*
X41674085Y-54316249D01*
X41674085Y-54316249D02*
X41674085Y-54125773D01*
X41674085Y-54125773D02*
X41721705Y-54030535D01*
X41721705Y-54030535D02*
X41769324Y-53982916D01*
X41769324Y-53982916D02*
X41864562Y-53935297D01*
X41864562Y-53935297D02*
X42150276Y-53935297D01*
X42150276Y-53935297D02*
X42245514Y-53982916D01*
X42245514Y-53982916D02*
X42293133Y-54030535D01*
X42293133Y-54030535D02*
X42340752Y-54125773D01*
X42340752Y-54125773D02*
X42340752Y-54316249D01*
X42340752Y-54316249D02*
X42293133Y-54411487D01*
X41674085Y-54840059D02*
X42674085Y-54840059D01*
X42055038Y-54935297D02*
X41674085Y-55221011D01*
X42340752Y-55221011D02*
X41959800Y-54840059D01*
X42340752Y-55649583D02*
X41340752Y-55649583D01*
X42293133Y-55649583D02*
X42340752Y-55744821D01*
X42340752Y-55744821D02*
X42340752Y-55935297D01*
X42340752Y-55935297D02*
X42293133Y-56030535D01*
X42293133Y-56030535D02*
X42245514Y-56078154D01*
X42245514Y-56078154D02*
X42150276Y-56125773D01*
X42150276Y-56125773D02*
X41864562Y-56125773D01*
X41864562Y-56125773D02*
X41769324Y-56078154D01*
X41769324Y-56078154D02*
X41721705Y-56030535D01*
X41721705Y-56030535D02*
X41674085Y-55935297D01*
X41674085Y-55935297D02*
X41674085Y-55744821D01*
X41674085Y-55744821D02*
X41721705Y-55649583D01*
X41674085Y-56697202D02*
X41721705Y-56601964D01*
X41721705Y-56601964D02*
X41816943Y-56554345D01*
X41816943Y-56554345D02*
X42674085Y-56554345D01*
X41674085Y-57506726D02*
X42197895Y-57506726D01*
X42197895Y-57506726D02*
X42293133Y-57459107D01*
X42293133Y-57459107D02*
X42340752Y-57363869D01*
X42340752Y-57363869D02*
X42340752Y-57173393D01*
X42340752Y-57173393D02*
X42293133Y-57078155D01*
X41721705Y-57506726D02*
X41674085Y-57411488D01*
X41674085Y-57411488D02*
X41674085Y-57173393D01*
X41674085Y-57173393D02*
X41721705Y-57078155D01*
X41721705Y-57078155D02*
X41816943Y-57030536D01*
X41816943Y-57030536D02*
X41912181Y-57030536D01*
X41912181Y-57030536D02*
X42007419Y-57078155D01*
X42007419Y-57078155D02*
X42055038Y-57173393D01*
X42055038Y-57173393D02*
X42055038Y-57411488D01*
X42055038Y-57411488D02*
X42102657Y-57506726D01*
X42340752Y-57982917D02*
X41674085Y-57982917D01*
X42245514Y-57982917D02*
X42293133Y-58030536D01*
X42293133Y-58030536D02*
X42340752Y-58125774D01*
X42340752Y-58125774D02*
X42340752Y-58268631D01*
X42340752Y-58268631D02*
X42293133Y-58363869D01*
X42293133Y-58363869D02*
X42197895Y-58411488D01*
X42197895Y-58411488D02*
X41674085Y-58411488D01*
X41721705Y-59268631D02*
X41674085Y-59173393D01*
X41674085Y-59173393D02*
X41674085Y-58982917D01*
X41674085Y-58982917D02*
X41721705Y-58887679D01*
X41721705Y-58887679D02*
X41816943Y-58840060D01*
X41816943Y-58840060D02*
X42197895Y-58840060D01*
X42197895Y-58840060D02*
X42293133Y-58887679D01*
X42293133Y-58887679D02*
X42340752Y-58982917D01*
X42340752Y-58982917D02*
X42340752Y-59173393D01*
X42340752Y-59173393D02*
X42293133Y-59268631D01*
X42293133Y-59268631D02*
X42197895Y-59316250D01*
X42197895Y-59316250D02*
X42102657Y-59316250D01*
X42102657Y-59316250D02*
X42007419Y-58840060D01*
X40587895Y-48125772D02*
X40587895Y-48459105D01*
X40064085Y-48601962D02*
X40064085Y-48125772D01*
X40064085Y-48125772D02*
X41064085Y-48125772D01*
X41064085Y-48125772D02*
X41064085Y-48601962D01*
X40064085Y-48935296D02*
X40730752Y-49459105D01*
X40730752Y-48935296D02*
X40064085Y-49459105D01*
X40730752Y-49697201D02*
X40730752Y-50078153D01*
X41064085Y-49840058D02*
X40206943Y-49840058D01*
X40206943Y-49840058D02*
X40111705Y-49887677D01*
X40111705Y-49887677D02*
X40064085Y-49982915D01*
X40064085Y-49982915D02*
X40064085Y-50078153D01*
X40111705Y-50792439D02*
X40064085Y-50697201D01*
X40064085Y-50697201D02*
X40064085Y-50506725D01*
X40064085Y-50506725D02*
X40111705Y-50411487D01*
X40111705Y-50411487D02*
X40206943Y-50363868D01*
X40206943Y-50363868D02*
X40587895Y-50363868D01*
X40587895Y-50363868D02*
X40683133Y-50411487D01*
X40683133Y-50411487D02*
X40730752Y-50506725D01*
X40730752Y-50506725D02*
X40730752Y-50697201D01*
X40730752Y-50697201D02*
X40683133Y-50792439D01*
X40683133Y-50792439D02*
X40587895Y-50840058D01*
X40587895Y-50840058D02*
X40492657Y-50840058D01*
X40492657Y-50840058D02*
X40397419Y-50363868D01*
X40730752Y-51268630D02*
X40064085Y-51268630D01*
X40635514Y-51268630D02*
X40683133Y-51316249D01*
X40683133Y-51316249D02*
X40730752Y-51411487D01*
X40730752Y-51411487D02*
X40730752Y-51554344D01*
X40730752Y-51554344D02*
X40683133Y-51649582D01*
X40683133Y-51649582D02*
X40587895Y-51697201D01*
X40587895Y-51697201D02*
X40064085Y-51697201D01*
X40064085Y-52601963D02*
X41064085Y-52601963D01*
X40111705Y-52601963D02*
X40064085Y-52506725D01*
X40064085Y-52506725D02*
X40064085Y-52316249D01*
X40064085Y-52316249D02*
X40111705Y-52221011D01*
X40111705Y-52221011D02*
X40159324Y-52173392D01*
X40159324Y-52173392D02*
X40254562Y-52125773D01*
X40254562Y-52125773D02*
X40540276Y-52125773D01*
X40540276Y-52125773D02*
X40635514Y-52173392D01*
X40635514Y-52173392D02*
X40683133Y-52221011D01*
X40683133Y-52221011D02*
X40730752Y-52316249D01*
X40730752Y-52316249D02*
X40730752Y-52506725D01*
X40730752Y-52506725D02*
X40683133Y-52601963D01*
X40111705Y-53459106D02*
X40064085Y-53363868D01*
X40064085Y-53363868D02*
X40064085Y-53173392D01*
X40064085Y-53173392D02*
X40111705Y-53078154D01*
X40111705Y-53078154D02*
X40206943Y-53030535D01*
X40206943Y-53030535D02*
X40587895Y-53030535D01*
X40587895Y-53030535D02*
X40683133Y-53078154D01*
X40683133Y-53078154D02*
X40730752Y-53173392D01*
X40730752Y-53173392D02*
X40730752Y-53363868D01*
X40730752Y-53363868D02*
X40683133Y-53459106D01*
X40683133Y-53459106D02*
X40587895Y-53506725D01*
X40587895Y-53506725D02*
X40492657Y-53506725D01*
X40492657Y-53506725D02*
X40397419Y-53030535D01*
X40064085Y-53935297D02*
X40730752Y-53935297D01*
X40540276Y-53935297D02*
X40635514Y-53982916D01*
X40635514Y-53982916D02*
X40683133Y-54030535D01*
X40683133Y-54030535D02*
X40730752Y-54125773D01*
X40730752Y-54125773D02*
X40730752Y-54221011D01*
X38454085Y-48601962D02*
X38454085Y-48125772D01*
X38454085Y-48125772D02*
X39454085Y-48125772D01*
X39454085Y-49125772D02*
X39454085Y-49316248D01*
X39454085Y-49316248D02*
X39406466Y-49411486D01*
X39406466Y-49411486D02*
X39311228Y-49506724D01*
X39311228Y-49506724D02*
X39120752Y-49554343D01*
X39120752Y-49554343D02*
X38787419Y-49554343D01*
X38787419Y-49554343D02*
X38596943Y-49506724D01*
X38596943Y-49506724D02*
X38501705Y-49411486D01*
X38501705Y-49411486D02*
X38454085Y-49316248D01*
X38454085Y-49316248D02*
X38454085Y-49125772D01*
X38454085Y-49125772D02*
X38501705Y-49030534D01*
X38501705Y-49030534D02*
X38596943Y-48935296D01*
X38596943Y-48935296D02*
X38787419Y-48887677D01*
X38787419Y-48887677D02*
X39120752Y-48887677D01*
X39120752Y-48887677D02*
X39311228Y-48935296D01*
X39311228Y-48935296D02*
X39406466Y-49030534D01*
X39406466Y-49030534D02*
X39454085Y-49125772D01*
X38739800Y-49935296D02*
X38739800Y-50411486D01*
X38454085Y-49840058D02*
X39454085Y-50173391D01*
X39454085Y-50173391D02*
X38454085Y-50506724D01*
X38977895Y-51173391D02*
X38977895Y-50840058D01*
X38454085Y-50840058D02*
X39454085Y-50840058D01*
X39454085Y-50840058D02*
X39454085Y-51316248D01*
X38358847Y-51459106D02*
X38358847Y-52221010D01*
X38454085Y-52363868D02*
X39120752Y-52887677D01*
X39120752Y-52363868D02*
X38454085Y-52887677D01*
X39454085Y-53459106D02*
X39454085Y-53554344D01*
X39454085Y-53554344D02*
X39406466Y-53649582D01*
X39406466Y-53649582D02*
X39358847Y-53697201D01*
X39358847Y-53697201D02*
X39263609Y-53744820D01*
X39263609Y-53744820D02*
X39073133Y-53792439D01*
X39073133Y-53792439D02*
X38835038Y-53792439D01*
X38835038Y-53792439D02*
X38644562Y-53744820D01*
X38644562Y-53744820D02*
X38549324Y-53697201D01*
X38549324Y-53697201D02*
X38501705Y-53649582D01*
X38501705Y-53649582D02*
X38454085Y-53554344D01*
X38454085Y-53554344D02*
X38454085Y-53459106D01*
X38454085Y-53459106D02*
X38501705Y-53363868D01*
X38501705Y-53363868D02*
X38549324Y-53316249D01*
X38549324Y-53316249D02*
X38644562Y-53268630D01*
X38644562Y-53268630D02*
X38835038Y-53221011D01*
X38835038Y-53221011D02*
X39073133Y-53221011D01*
X39073133Y-53221011D02*
X39263609Y-53268630D01*
X39263609Y-53268630D02*
X39358847Y-53316249D01*
X39358847Y-53316249D02*
X39406466Y-53363868D01*
X39406466Y-53363868D02*
X39454085Y-53459106D01*
X39120752Y-54649582D02*
X38454085Y-54649582D01*
X39501705Y-54411487D02*
X38787419Y-54173392D01*
X38787419Y-54173392D02*
X38787419Y-54792439D01*
X36844085Y-48697200D02*
X37320276Y-48363867D01*
X36844085Y-48125772D02*
X37844085Y-48125772D01*
X37844085Y-48125772D02*
X37844085Y-48506724D01*
X37844085Y-48506724D02*
X37796466Y-48601962D01*
X37796466Y-48601962D02*
X37748847Y-48649581D01*
X37748847Y-48649581D02*
X37653609Y-48697200D01*
X37653609Y-48697200D02*
X37510752Y-48697200D01*
X37510752Y-48697200D02*
X37415514Y-48649581D01*
X37415514Y-48649581D02*
X37367895Y-48601962D01*
X37367895Y-48601962D02*
X37320276Y-48506724D01*
X37320276Y-48506724D02*
X37320276Y-48125772D01*
X37748847Y-49078153D02*
X37796466Y-49125772D01*
X37796466Y-49125772D02*
X37844085Y-49221010D01*
X37844085Y-49221010D02*
X37844085Y-49459105D01*
X37844085Y-49459105D02*
X37796466Y-49554343D01*
X37796466Y-49554343D02*
X37748847Y-49601962D01*
X37748847Y-49601962D02*
X37653609Y-49649581D01*
X37653609Y-49649581D02*
X37558371Y-49649581D01*
X37558371Y-49649581D02*
X37415514Y-49601962D01*
X37415514Y-49601962D02*
X36844085Y-49030534D01*
X36844085Y-49030534D02*
X36844085Y-49649581D01*
X37748847Y-50792439D02*
X37796466Y-50840058D01*
X37796466Y-50840058D02*
X37844085Y-50935296D01*
X37844085Y-50935296D02*
X37844085Y-51173391D01*
X37844085Y-51173391D02*
X37796466Y-51268629D01*
X37796466Y-51268629D02*
X37748847Y-51316248D01*
X37748847Y-51316248D02*
X37653609Y-51363867D01*
X37653609Y-51363867D02*
X37558371Y-51363867D01*
X37558371Y-51363867D02*
X37415514Y-51316248D01*
X37415514Y-51316248D02*
X36844085Y-50744820D01*
X36844085Y-50744820D02*
X36844085Y-51363867D01*
X37844085Y-51982915D02*
X37844085Y-52078153D01*
X37844085Y-52078153D02*
X37796466Y-52173391D01*
X37796466Y-52173391D02*
X37748847Y-52221010D01*
X37748847Y-52221010D02*
X37653609Y-52268629D01*
X37653609Y-52268629D02*
X37463133Y-52316248D01*
X37463133Y-52316248D02*
X37225038Y-52316248D01*
X37225038Y-52316248D02*
X37034562Y-52268629D01*
X37034562Y-52268629D02*
X36939324Y-52221010D01*
X36939324Y-52221010D02*
X36891705Y-52173391D01*
X36891705Y-52173391D02*
X36844085Y-52078153D01*
X36844085Y-52078153D02*
X36844085Y-51982915D01*
X36844085Y-51982915D02*
X36891705Y-51887677D01*
X36891705Y-51887677D02*
X36939324Y-51840058D01*
X36939324Y-51840058D02*
X37034562Y-51792439D01*
X37034562Y-51792439D02*
X37225038Y-51744820D01*
X37225038Y-51744820D02*
X37463133Y-51744820D01*
X37463133Y-51744820D02*
X37653609Y-51792439D01*
X37653609Y-51792439D02*
X37748847Y-51840058D01*
X37748847Y-51840058D02*
X37796466Y-51887677D01*
X37796466Y-51887677D02*
X37844085Y-51982915D01*
X37748847Y-52697201D02*
X37796466Y-52744820D01*
X37796466Y-52744820D02*
X37844085Y-52840058D01*
X37844085Y-52840058D02*
X37844085Y-53078153D01*
X37844085Y-53078153D02*
X37796466Y-53173391D01*
X37796466Y-53173391D02*
X37748847Y-53221010D01*
X37748847Y-53221010D02*
X37653609Y-53268629D01*
X37653609Y-53268629D02*
X37558371Y-53268629D01*
X37558371Y-53268629D02*
X37415514Y-53221010D01*
X37415514Y-53221010D02*
X36844085Y-52649582D01*
X36844085Y-52649582D02*
X36844085Y-53268629D01*
X37510752Y-54125772D02*
X36844085Y-54125772D01*
X37891705Y-53887677D02*
X37177419Y-53649582D01*
X37177419Y-53649582D02*
X37177419Y-54268629D01*
D12*
X52666666Y-35507419D02*
X52666666Y-36221704D01*
X52666666Y-36221704D02*
X52619047Y-36364561D01*
X52619047Y-36364561D02*
X52523809Y-36459800D01*
X52523809Y-36459800D02*
X52380952Y-36507419D01*
X52380952Y-36507419D02*
X52285714Y-36507419D01*
X53047619Y-35507419D02*
X53666666Y-35507419D01*
X53666666Y-35507419D02*
X53333333Y-35888371D01*
X53333333Y-35888371D02*
X53476190Y-35888371D01*
X53476190Y-35888371D02*
X53571428Y-35935990D01*
X53571428Y-35935990D02*
X53619047Y-35983609D01*
X53619047Y-35983609D02*
X53666666Y-36078847D01*
X53666666Y-36078847D02*
X53666666Y-36316942D01*
X53666666Y-36316942D02*
X53619047Y-36412180D01*
X53619047Y-36412180D02*
X53571428Y-36459800D01*
X53571428Y-36459800D02*
X53476190Y-36507419D01*
X53476190Y-36507419D02*
X53190476Y-36507419D01*
X53190476Y-36507419D02*
X53095238Y-36459800D01*
X53095238Y-36459800D02*
X53047619Y-36412180D01*
X113466666Y-35507419D02*
X113466666Y-36221704D01*
X113466666Y-36221704D02*
X113419047Y-36364561D01*
X113419047Y-36364561D02*
X113323809Y-36459800D01*
X113323809Y-36459800D02*
X113180952Y-36507419D01*
X113180952Y-36507419D02*
X113085714Y-36507419D01*
X114419047Y-35507419D02*
X113942857Y-35507419D01*
X113942857Y-35507419D02*
X113895238Y-35983609D01*
X113895238Y-35983609D02*
X113942857Y-35935990D01*
X113942857Y-35935990D02*
X114038095Y-35888371D01*
X114038095Y-35888371D02*
X114276190Y-35888371D01*
X114276190Y-35888371D02*
X114371428Y-35935990D01*
X114371428Y-35935990D02*
X114419047Y-35983609D01*
X114419047Y-35983609D02*
X114466666Y-36078847D01*
X114466666Y-36078847D02*
X114466666Y-36316942D01*
X114466666Y-36316942D02*
X114419047Y-36412180D01*
X114419047Y-36412180D02*
X114371428Y-36459800D01*
X114371428Y-36459800D02*
X114276190Y-36507419D01*
X114276190Y-36507419D02*
X114038095Y-36507419D01*
X114038095Y-36507419D02*
X113942857Y-36459800D01*
X113942857Y-36459800D02*
X113895238Y-36412180D01*
X83066666Y-35507419D02*
X83066666Y-36221704D01*
X83066666Y-36221704D02*
X83019047Y-36364561D01*
X83019047Y-36364561D02*
X82923809Y-36459800D01*
X82923809Y-36459800D02*
X82780952Y-36507419D01*
X82780952Y-36507419D02*
X82685714Y-36507419D01*
X83971428Y-35840752D02*
X83971428Y-36507419D01*
X83733333Y-35459800D02*
X83495238Y-36174085D01*
X83495238Y-36174085D02*
X84114285Y-36174085D01*
X22266666Y-35507419D02*
X22266666Y-36221704D01*
X22266666Y-36221704D02*
X22219047Y-36364561D01*
X22219047Y-36364561D02*
X22123809Y-36459800D01*
X22123809Y-36459800D02*
X21980952Y-36507419D01*
X21980952Y-36507419D02*
X21885714Y-36507419D01*
X22695238Y-35602657D02*
X22742857Y-35555038D01*
X22742857Y-35555038D02*
X22838095Y-35507419D01*
X22838095Y-35507419D02*
X23076190Y-35507419D01*
X23076190Y-35507419D02*
X23171428Y-35555038D01*
X23171428Y-35555038D02*
X23219047Y-35602657D01*
X23219047Y-35602657D02*
X23266666Y-35697895D01*
X23266666Y-35697895D02*
X23266666Y-35793133D01*
X23266666Y-35793133D02*
X23219047Y-35935990D01*
X23219047Y-35935990D02*
X22647619Y-36507419D01*
X22647619Y-36507419D02*
X23266666Y-36507419D01*
D13*
%TO.C,J3*%
X47650000Y-34820000D02*
X47650000Y-65220000D01*
X49700000Y-34820000D02*
X47650000Y-34820000D01*
X49700000Y-65220000D02*
X47650000Y-65220000D01*
X49700076Y-30050000D02*
X49700000Y-34820000D01*
X49700076Y-69990001D02*
X49700152Y-65220001D01*
D14*
X51670000Y-39860000D02*
X51670000Y-62780000D01*
X51670000Y-39860000D02*
X54330000Y-39860000D01*
X51670000Y-62780000D02*
X54330000Y-62780000D01*
X53000000Y-37260000D02*
X54330000Y-37260000D01*
X54330000Y-37260000D02*
X54330000Y-38590000D01*
X54330000Y-39860000D02*
X54330000Y-62780000D01*
D13*
X56299924Y-30049999D02*
X56300000Y-34820000D01*
X56299924Y-69990000D02*
X56300000Y-65220000D01*
X59300000Y-34820000D02*
X56300000Y-34820000D01*
X59300000Y-34820000D02*
X59300000Y-65220000D01*
X59300000Y-65220000D02*
X56300000Y-65220000D01*
X55450000Y-36820000D02*
X57950000Y-36820000D01*
X57950000Y-36820000D02*
X57950000Y-63170000D01*
X57950000Y-63170000D02*
X55450000Y-63170000D01*
X55450000Y-63170000D02*
X55450000Y-36820000D01*
X56299924Y-30049999D02*
G75*
G03*
X49700076Y-30050000I-3299924J29999D01*
G01*
X49700076Y-69990001D02*
G75*
G03*
X56299924Y-69990000I3299924J-29999D01*
G01*
%TO.C,J5*%
X108450000Y-34820000D02*
X108450000Y-65220000D01*
X110500000Y-34820000D02*
X108450000Y-34820000D01*
X110500000Y-65220000D02*
X108450000Y-65220000D01*
X110500076Y-30050000D02*
X110500000Y-34820000D01*
X110500076Y-69990001D02*
X110500152Y-65220001D01*
D14*
X112470000Y-39860000D02*
X112470000Y-62780000D01*
X112470000Y-39860000D02*
X115130000Y-39860000D01*
X112470000Y-62780000D02*
X115130000Y-62780000D01*
X113800000Y-37260000D02*
X115130000Y-37260000D01*
X115130000Y-37260000D02*
X115130000Y-38590000D01*
X115130000Y-39860000D02*
X115130000Y-62780000D01*
D13*
X117099924Y-30049999D02*
X117100000Y-34820000D01*
X117099924Y-69990000D02*
X117100000Y-65220000D01*
X120100000Y-34820000D02*
X117100000Y-34820000D01*
X120100000Y-34820000D02*
X120100000Y-65220000D01*
X120100000Y-65220000D02*
X117100000Y-65220000D01*
X116250000Y-36820000D02*
X118750000Y-36820000D01*
X118750000Y-36820000D02*
X118750000Y-63170000D01*
X118750000Y-63170000D02*
X116250000Y-63170000D01*
X116250000Y-63170000D02*
X116250000Y-36820000D01*
X117099924Y-30049999D02*
G75*
G03*
X110500076Y-30050000I-3299924J29999D01*
G01*
X110500076Y-69990001D02*
G75*
G03*
X117099924Y-69990000I3299924J-29999D01*
G01*
%TO.C,Logo1*%
D15*
X39532872Y-40388016D02*
X39636471Y-40390611D01*
X39725632Y-40394747D01*
X39793928Y-40400430D01*
X39834934Y-40407662D01*
X39843326Y-40412022D01*
X39851792Y-40436295D01*
X39865565Y-40491567D01*
X39883450Y-40572331D01*
X39904252Y-40673081D01*
X39926777Y-40788310D01*
X39938582Y-40851091D01*
X39960849Y-40970206D01*
X39981021Y-41076428D01*
X39998085Y-41164566D01*
X40011031Y-41229427D01*
X40018845Y-41265819D01*
X40020578Y-41271809D01*
X40040110Y-41281932D01*
X40087157Y-41303331D01*
X40154997Y-41333154D01*
X40236909Y-41368548D01*
X40326172Y-41406661D01*
X40416065Y-41444640D01*
X40499865Y-41479633D01*
X40570853Y-41508787D01*
X40622306Y-41529250D01*
X40647503Y-41538170D01*
X40648604Y-41538336D01*
X40668481Y-41528224D01*
X40714223Y-41499876D01*
X40781283Y-41456270D01*
X40865116Y-41400387D01*
X40961174Y-41335206D01*
X41016350Y-41297314D01*
X41117519Y-41228268D01*
X41209370Y-41166943D01*
X41287256Y-41116330D01*
X41346531Y-41079422D01*
X41382549Y-41059211D01*
X41390623Y-41056292D01*
X41409416Y-41068840D01*
X41449543Y-41103530D01*
X41506507Y-41155930D01*
X41575815Y-41221609D01*
X41652969Y-41296137D01*
X41733475Y-41375080D01*
X41812837Y-41454010D01*
X41886560Y-41528493D01*
X41950148Y-41594099D01*
X41999106Y-41646397D01*
X42028939Y-41680954D01*
X42036058Y-41692515D01*
X42026047Y-41711339D01*
X41997922Y-41756362D01*
X41954546Y-41823206D01*
X41898782Y-41907494D01*
X41833494Y-42004849D01*
X41783754Y-42078286D01*
X41531449Y-42449326D01*
X41786445Y-43067898D01*
X42231069Y-43151718D01*
X42675693Y-43235539D01*
X42675693Y-44160987D01*
X42231069Y-44244807D01*
X41786445Y-44328628D01*
X41658947Y-44637913D01*
X41531449Y-44947199D01*
X41783754Y-45318239D01*
X41854004Y-45422150D01*
X41916728Y-45516080D01*
X41969062Y-45595645D01*
X42008143Y-45656463D01*
X42031107Y-45694150D01*
X42036058Y-45704414D01*
X42023324Y-45722903D01*
X41988118Y-45762413D01*
X41934938Y-45818515D01*
X41868282Y-45886780D01*
X41792646Y-45962779D01*
X41712528Y-46042085D01*
X41632426Y-46120268D01*
X41556836Y-46192900D01*
X41490255Y-46255552D01*
X41437182Y-46303796D01*
X41402113Y-46333203D01*
X41390377Y-46340234D01*
X41368740Y-46330116D01*
X41321338Y-46301752D01*
X41252807Y-46258122D01*
X41167785Y-46202211D01*
X41070907Y-46136999D01*
X41015650Y-46099212D01*
X40914752Y-46030336D01*
X40823701Y-45969133D01*
X40747030Y-45918571D01*
X40689272Y-45881621D01*
X40654957Y-45861251D01*
X40647746Y-45858190D01*
X40627252Y-45865129D01*
X40579487Y-45884044D01*
X40511168Y-45912080D01*
X40429011Y-45946384D01*
X40339730Y-45984102D01*
X40250042Y-46022380D01*
X40166662Y-46058363D01*
X40096306Y-46089199D01*
X40045690Y-46112032D01*
X40021529Y-46124010D01*
X40020578Y-46124717D01*
X40015964Y-46143524D01*
X40005672Y-46193611D01*
X39990713Y-46269786D01*
X39972099Y-46366858D01*
X39950841Y-46479636D01*
X39938582Y-46545435D01*
X39915638Y-46665943D01*
X39893805Y-46774790D01*
X39874278Y-46866469D01*
X39858252Y-46935474D01*
X39846921Y-46976297D01*
X39843326Y-46984504D01*
X39818994Y-46992541D01*
X39764041Y-46999026D01*
X39684892Y-47003963D01*
X39587974Y-47007357D01*
X39479713Y-47009211D01*
X39366535Y-47009531D01*
X39254865Y-47008320D01*
X39151132Y-47005583D01*
X39061759Y-47001324D01*
X38993174Y-46995548D01*
X38951803Y-46988260D01*
X38943190Y-46983888D01*
X38932867Y-46957757D01*
X38918108Y-46902386D01*
X38900648Y-46825100D01*
X38882220Y-46733223D01*
X38876259Y-46701151D01*
X38847934Y-46546517D01*
X38825124Y-46424368D01*
X38806920Y-46330666D01*
X38792417Y-46261377D01*
X38780708Y-46212464D01*
X38770885Y-46179890D01*
X38762044Y-46159621D01*
X38753276Y-46147619D01*
X38751543Y-46145940D01*
X38723629Y-46129177D01*
X38669305Y-46103607D01*
X38595223Y-46071781D01*
X38508035Y-46036253D01*
X38414392Y-45999576D01*
X38320948Y-45964304D01*
X38234353Y-45932989D01*
X38161260Y-45908186D01*
X38108322Y-45892447D01*
X38082189Y-45888325D01*
X38081274Y-45888669D01*
X38059914Y-45902634D01*
X38012916Y-45934315D01*
X37945173Y-45980384D01*
X37861577Y-46037511D01*
X37767018Y-46102366D01*
X37740146Y-46120836D01*
X37642725Y-46186692D01*
X37553837Y-46244643D01*
X37478588Y-46291531D01*
X37422080Y-46324200D01*
X37389419Y-46339493D01*
X37385407Y-46340234D01*
X37364316Y-46327385D01*
X37322536Y-46291881D01*
X37264555Y-46238286D01*
X37194865Y-46171164D01*
X37117955Y-46095080D01*
X37038317Y-46014597D01*
X36960439Y-45934280D01*
X36888814Y-45858692D01*
X36827930Y-45792398D01*
X36782279Y-45739962D01*
X36756350Y-45705948D01*
X36752117Y-45696538D01*
X36762088Y-45674636D01*
X36788980Y-45629793D01*
X36828264Y-45569314D01*
X36859883Y-45522782D01*
X36917902Y-45438468D01*
X36986216Y-45338619D01*
X37054421Y-45238466D01*
X37090925Y-45184620D01*
X37214200Y-45002364D01*
X37131480Y-44849374D01*
X37095241Y-44779675D01*
X37067074Y-44720407D01*
X37051009Y-44680304D01*
X37048774Y-44670096D01*
X37065278Y-44657822D01*
X37111918Y-44633606D01*
X37184391Y-44599256D01*
X37278394Y-44556581D01*
X37389626Y-44507387D01*
X37513785Y-44453483D01*
X37646568Y-44396677D01*
X37783673Y-44338775D01*
X37920798Y-44281586D01*
X38053642Y-44226917D01*
X38177902Y-44176577D01*
X38289275Y-44132373D01*
X38383461Y-44096112D01*
X38456156Y-44069602D01*
X38503059Y-44054651D01*
X38519167Y-44052247D01*
X38539714Y-44071304D01*
X38573067Y-44113029D01*
X38612298Y-44168699D01*
X38615401Y-44173371D01*
X38730577Y-44317257D01*
X38864947Y-44433276D01*
X39014216Y-44520423D01*
X39174087Y-44577692D01*
X39340263Y-44604079D01*
X39508448Y-44598578D01*
X39674345Y-44560183D01*
X39833658Y-44487888D01*
X39868513Y-44466619D01*
X40009263Y-44355989D01*
X40122286Y-44225295D01*
X40206997Y-44079057D01*
X40262806Y-43921801D01*
X40289126Y-43758050D01*
X40285370Y-43592326D01*
X40250950Y-43429155D01*
X40185277Y-43273058D01*
X40087765Y-43128560D01*
X40048187Y-43083862D01*
X39924297Y-42970105D01*
X39793876Y-42887211D01*
X39647685Y-42830349D01*
X39502912Y-42798680D01*
X39340140Y-42790862D01*
X39176560Y-42816931D01*
X39017702Y-42874238D01*
X38869094Y-42960137D01*
X38736265Y-43071979D01*
X38624744Y-43207116D01*
X38612989Y-43224876D01*
X38574492Y-43281143D01*
X38541137Y-43323916D01*
X38519840Y-43344365D01*
X38519167Y-43344662D01*
X38496129Y-43340272D01*
X38443843Y-43322869D01*
X38366610Y-43294261D01*
X38268732Y-43256258D01*
X38154509Y-43210667D01*
X38028242Y-43159296D01*
X37894233Y-43103955D01*
X37756782Y-43046451D01*
X37620192Y-42988594D01*
X37488763Y-42932191D01*
X37366795Y-42879051D01*
X37258591Y-42830983D01*
X37168451Y-42789794D01*
X37100677Y-42757294D01*
X37059570Y-42735290D01*
X37048774Y-42726429D01*
X37057181Y-42699353D01*
X37079728Y-42648690D01*
X37112387Y-42583176D01*
X37131480Y-42547152D01*
X37214200Y-42394161D01*
X37090925Y-42211905D01*
X37027772Y-42118868D01*
X36958273Y-42017008D01*
X36892835Y-41921555D01*
X36859883Y-41873743D01*
X36814727Y-41806498D01*
X36778943Y-41749557D01*
X36757062Y-41710347D01*
X36752437Y-41697612D01*
X36764915Y-41679076D01*
X36799748Y-41638052D01*
X36853322Y-41578518D01*
X36922017Y-41504451D01*
X37002219Y-41419828D01*
X37053714Y-41366308D01*
X37145714Y-41272674D01*
X37228001Y-41191752D01*
X37297055Y-41126816D01*
X37349356Y-41081135D01*
X37381384Y-41057982D01*
X37387884Y-41055761D01*
X37412606Y-41066069D01*
X37462595Y-41094554D01*
X37532788Y-41138056D01*
X37618125Y-41193416D01*
X37713544Y-41257473D01*
X37740146Y-41275690D01*
X37836833Y-41342066D01*
X37923883Y-41401615D01*
X37996405Y-41451009D01*
X38049507Y-41486918D01*
X38078297Y-41506012D01*
X38081274Y-41507857D01*
X38104218Y-41505098D01*
X38154664Y-41490455D01*
X38225959Y-41466480D01*
X38311453Y-41435727D01*
X38404493Y-41400749D01*
X38498426Y-41364100D01*
X38586601Y-41328332D01*
X38662366Y-41295999D01*
X38719069Y-41269655D01*
X38750057Y-41251851D01*
X38751543Y-41250586D01*
X38760399Y-41239699D01*
X38769157Y-41221311D01*
X38778723Y-41191387D01*
X38790004Y-41145890D01*
X38803907Y-41080784D01*
X38821337Y-40992032D01*
X38843202Y-40875600D01*
X38870409Y-40727451D01*
X38876259Y-40695375D01*
X38894626Y-40600307D01*
X38912595Y-40517428D01*
X38928431Y-40454063D01*
X38940400Y-40417535D01*
X38943190Y-40412637D01*
X38967928Y-40404566D01*
X39023210Y-40398006D01*
X39102611Y-40392960D01*
X39199704Y-40389434D01*
X39308062Y-40387432D01*
X39421260Y-40386957D01*
X39532872Y-40388016D01*
G36*
X39532872Y-40388016D02*
G01*
X39636471Y-40390611D01*
X39725632Y-40394747D01*
X39793928Y-40400430D01*
X39834934Y-40407662D01*
X39843326Y-40412022D01*
X39851792Y-40436295D01*
X39865565Y-40491567D01*
X39883450Y-40572331D01*
X39904252Y-40673081D01*
X39926777Y-40788310D01*
X39938582Y-40851091D01*
X39960849Y-40970206D01*
X39981021Y-41076428D01*
X39998085Y-41164566D01*
X40011031Y-41229427D01*
X40018845Y-41265819D01*
X40020578Y-41271809D01*
X40040110Y-41281932D01*
X40087157Y-41303331D01*
X40154997Y-41333154D01*
X40236909Y-41368548D01*
X40326172Y-41406661D01*
X40416065Y-41444640D01*
X40499865Y-41479633D01*
X40570853Y-41508787D01*
X40622306Y-41529250D01*
X40647503Y-41538170D01*
X40648604Y-41538336D01*
X40668481Y-41528224D01*
X40714223Y-41499876D01*
X40781283Y-41456270D01*
X40865116Y-41400387D01*
X40961174Y-41335206D01*
X41016350Y-41297314D01*
X41117519Y-41228268D01*
X41209370Y-41166943D01*
X41287256Y-41116330D01*
X41346531Y-41079422D01*
X41382549Y-41059211D01*
X41390623Y-41056292D01*
X41409416Y-41068840D01*
X41449543Y-41103530D01*
X41506507Y-41155930D01*
X41575815Y-41221609D01*
X41652969Y-41296137D01*
X41733475Y-41375080D01*
X41812837Y-41454010D01*
X41886560Y-41528493D01*
X41950148Y-41594099D01*
X41999106Y-41646397D01*
X42028939Y-41680954D01*
X42036058Y-41692515D01*
X42026047Y-41711339D01*
X41997922Y-41756362D01*
X41954546Y-41823206D01*
X41898782Y-41907494D01*
X41833494Y-42004849D01*
X41783754Y-42078286D01*
X41531449Y-42449326D01*
X41786445Y-43067898D01*
X42231069Y-43151718D01*
X42675693Y-43235539D01*
X42675693Y-44160987D01*
X42231069Y-44244807D01*
X41786445Y-44328628D01*
X41658947Y-44637913D01*
X41531449Y-44947199D01*
X41783754Y-45318239D01*
X41854004Y-45422150D01*
X41916728Y-45516080D01*
X41969062Y-45595645D01*
X42008143Y-45656463D01*
X42031107Y-45694150D01*
X42036058Y-45704414D01*
X42023324Y-45722903D01*
X41988118Y-45762413D01*
X41934938Y-45818515D01*
X41868282Y-45886780D01*
X41792646Y-45962779D01*
X41712528Y-46042085D01*
X41632426Y-46120268D01*
X41556836Y-46192900D01*
X41490255Y-46255552D01*
X41437182Y-46303796D01*
X41402113Y-46333203D01*
X41390377Y-46340234D01*
X41368740Y-46330116D01*
X41321338Y-46301752D01*
X41252807Y-46258122D01*
X41167785Y-46202211D01*
X41070907Y-46136999D01*
X41015650Y-46099212D01*
X40914752Y-46030336D01*
X40823701Y-45969133D01*
X40747030Y-45918571D01*
X40689272Y-45881621D01*
X40654957Y-45861251D01*
X40647746Y-45858190D01*
X40627252Y-45865129D01*
X40579487Y-45884044D01*
X40511168Y-45912080D01*
X40429011Y-45946384D01*
X40339730Y-45984102D01*
X40250042Y-46022380D01*
X40166662Y-46058363D01*
X40096306Y-46089199D01*
X40045690Y-46112032D01*
X40021529Y-46124010D01*
X40020578Y-46124717D01*
X40015964Y-46143524D01*
X40005672Y-46193611D01*
X39990713Y-46269786D01*
X39972099Y-46366858D01*
X39950841Y-46479636D01*
X39938582Y-46545435D01*
X39915638Y-46665943D01*
X39893805Y-46774790D01*
X39874278Y-46866469D01*
X39858252Y-46935474D01*
X39846921Y-46976297D01*
X39843326Y-46984504D01*
X39818994Y-46992541D01*
X39764041Y-46999026D01*
X39684892Y-47003963D01*
X39587974Y-47007357D01*
X39479713Y-47009211D01*
X39366535Y-47009531D01*
X39254865Y-47008320D01*
X39151132Y-47005583D01*
X39061759Y-47001324D01*
X38993174Y-46995548D01*
X38951803Y-46988260D01*
X38943190Y-46983888D01*
X38932867Y-46957757D01*
X38918108Y-46902386D01*
X38900648Y-46825100D01*
X38882220Y-46733223D01*
X38876259Y-46701151D01*
X38847934Y-46546517D01*
X38825124Y-46424368D01*
X38806920Y-46330666D01*
X38792417Y-46261377D01*
X38780708Y-46212464D01*
X38770885Y-46179890D01*
X38762044Y-46159621D01*
X38753276Y-46147619D01*
X38751543Y-46145940D01*
X38723629Y-46129177D01*
X38669305Y-46103607D01*
X38595223Y-46071781D01*
X38508035Y-46036253D01*
X38414392Y-45999576D01*
X38320948Y-45964304D01*
X38234353Y-45932989D01*
X38161260Y-45908186D01*
X38108322Y-45892447D01*
X38082189Y-45888325D01*
X38081274Y-45888669D01*
X38059914Y-45902634D01*
X38012916Y-45934315D01*
X37945173Y-45980384D01*
X37861577Y-46037511D01*
X37767018Y-46102366D01*
X37740146Y-46120836D01*
X37642725Y-46186692D01*
X37553837Y-46244643D01*
X37478588Y-46291531D01*
X37422080Y-46324200D01*
X37389419Y-46339493D01*
X37385407Y-46340234D01*
X37364316Y-46327385D01*
X37322536Y-46291881D01*
X37264555Y-46238286D01*
X37194865Y-46171164D01*
X37117955Y-46095080D01*
X37038317Y-46014597D01*
X36960439Y-45934280D01*
X36888814Y-45858692D01*
X36827930Y-45792398D01*
X36782279Y-45739962D01*
X36756350Y-45705948D01*
X36752117Y-45696538D01*
X36762088Y-45674636D01*
X36788980Y-45629793D01*
X36828264Y-45569314D01*
X36859883Y-45522782D01*
X36917902Y-45438468D01*
X36986216Y-45338619D01*
X37054421Y-45238466D01*
X37090925Y-45184620D01*
X37214200Y-45002364D01*
X37131480Y-44849374D01*
X37095241Y-44779675D01*
X37067074Y-44720407D01*
X37051009Y-44680304D01*
X37048774Y-44670096D01*
X37065278Y-44657822D01*
X37111918Y-44633606D01*
X37184391Y-44599256D01*
X37278394Y-44556581D01*
X37389626Y-44507387D01*
X37513785Y-44453483D01*
X37646568Y-44396677D01*
X37783673Y-44338775D01*
X37920798Y-44281586D01*
X38053642Y-44226917D01*
X38177902Y-44176577D01*
X38289275Y-44132373D01*
X38383461Y-44096112D01*
X38456156Y-44069602D01*
X38503059Y-44054651D01*
X38519167Y-44052247D01*
X38539714Y-44071304D01*
X38573067Y-44113029D01*
X38612298Y-44168699D01*
X38615401Y-44173371D01*
X38730577Y-44317257D01*
X38864947Y-44433276D01*
X39014216Y-44520423D01*
X39174087Y-44577692D01*
X39340263Y-44604079D01*
X39508448Y-44598578D01*
X39674345Y-44560183D01*
X39833658Y-44487888D01*
X39868513Y-44466619D01*
X40009263Y-44355989D01*
X40122286Y-44225295D01*
X40206997Y-44079057D01*
X40262806Y-43921801D01*
X40289126Y-43758050D01*
X40285370Y-43592326D01*
X40250950Y-43429155D01*
X40185277Y-43273058D01*
X40087765Y-43128560D01*
X40048187Y-43083862D01*
X39924297Y-42970105D01*
X39793876Y-42887211D01*
X39647685Y-42830349D01*
X39502912Y-42798680D01*
X39340140Y-42790862D01*
X39176560Y-42816931D01*
X39017702Y-42874238D01*
X38869094Y-42960137D01*
X38736265Y-43071979D01*
X38624744Y-43207116D01*
X38612989Y-43224876D01*
X38574492Y-43281143D01*
X38541137Y-43323916D01*
X38519840Y-43344365D01*
X38519167Y-43344662D01*
X38496129Y-43340272D01*
X38443843Y-43322869D01*
X38366610Y-43294261D01*
X38268732Y-43256258D01*
X38154509Y-43210667D01*
X38028242Y-43159296D01*
X37894233Y-43103955D01*
X37756782Y-43046451D01*
X37620192Y-42988594D01*
X37488763Y-42932191D01*
X37366795Y-42879051D01*
X37258591Y-42830983D01*
X37168451Y-42789794D01*
X37100677Y-42757294D01*
X37059570Y-42735290D01*
X37048774Y-42726429D01*
X37057181Y-42699353D01*
X37079728Y-42648690D01*
X37112387Y-42583176D01*
X37131480Y-42547152D01*
X37214200Y-42394161D01*
X37090925Y-42211905D01*
X37027772Y-42118868D01*
X36958273Y-42017008D01*
X36892835Y-41921555D01*
X36859883Y-41873743D01*
X36814727Y-41806498D01*
X36778943Y-41749557D01*
X36757062Y-41710347D01*
X36752437Y-41697612D01*
X36764915Y-41679076D01*
X36799748Y-41638052D01*
X36853322Y-41578518D01*
X36922017Y-41504451D01*
X37002219Y-41419828D01*
X37053714Y-41366308D01*
X37145714Y-41272674D01*
X37228001Y-41191752D01*
X37297055Y-41126816D01*
X37349356Y-41081135D01*
X37381384Y-41057982D01*
X37387884Y-41055761D01*
X37412606Y-41066069D01*
X37462595Y-41094554D01*
X37532788Y-41138056D01*
X37618125Y-41193416D01*
X37713544Y-41257473D01*
X37740146Y-41275690D01*
X37836833Y-41342066D01*
X37923883Y-41401615D01*
X37996405Y-41451009D01*
X38049507Y-41486918D01*
X38078297Y-41506012D01*
X38081274Y-41507857D01*
X38104218Y-41505098D01*
X38154664Y-41490455D01*
X38225959Y-41466480D01*
X38311453Y-41435727D01*
X38404493Y-41400749D01*
X38498426Y-41364100D01*
X38586601Y-41328332D01*
X38662366Y-41295999D01*
X38719069Y-41269655D01*
X38750057Y-41251851D01*
X38751543Y-41250586D01*
X38760399Y-41239699D01*
X38769157Y-41221311D01*
X38778723Y-41191387D01*
X38790004Y-41145890D01*
X38803907Y-41080784D01*
X38821337Y-40992032D01*
X38843202Y-40875600D01*
X38870409Y-40727451D01*
X38876259Y-40695375D01*
X38894626Y-40600307D01*
X38912595Y-40517428D01*
X38928431Y-40454063D01*
X38940400Y-40417535D01*
X38943190Y-40412637D01*
X38967928Y-40404566D01*
X39023210Y-40398006D01*
X39102611Y-40392960D01*
X39199704Y-40389434D01*
X39308062Y-40387432D01*
X39421260Y-40386957D01*
X39532872Y-40388016D01*
G37*
D13*
%TO.C,J4*%
X78050000Y-34820000D02*
X78050000Y-65220000D01*
X80100000Y-34820000D02*
X78050000Y-34820000D01*
X80100000Y-65220000D02*
X78050000Y-65220000D01*
X80100076Y-30050000D02*
X80100000Y-34820000D01*
X80100076Y-69990001D02*
X80100152Y-65220001D01*
D14*
X82070000Y-39860000D02*
X82070000Y-62780000D01*
X82070000Y-39860000D02*
X84730000Y-39860000D01*
X82070000Y-62780000D02*
X84730000Y-62780000D01*
X83400000Y-37260000D02*
X84730000Y-37260000D01*
X84730000Y-37260000D02*
X84730000Y-38590000D01*
X84730000Y-39860000D02*
X84730000Y-62780000D01*
D13*
X86699924Y-30049999D02*
X86700000Y-34820000D01*
X86699924Y-69990000D02*
X86700000Y-65220000D01*
X89700000Y-34820000D02*
X86700000Y-34820000D01*
X89700000Y-34820000D02*
X89700000Y-65220000D01*
X89700000Y-65220000D02*
X86700000Y-65220000D01*
X85850000Y-36820000D02*
X88350000Y-36820000D01*
X88350000Y-36820000D02*
X88350000Y-63170000D01*
X88350000Y-63170000D02*
X85850000Y-63170000D01*
X85850000Y-63170000D02*
X85850000Y-36820000D01*
X86699924Y-30049999D02*
G75*
G03*
X80100076Y-30050000I-3299924J29999D01*
G01*
X80100076Y-69990001D02*
G75*
G03*
X86699924Y-69990000I3299924J-29999D01*
G01*
%TO.C,J2*%
X17250000Y-34820000D02*
X17250000Y-65220000D01*
X19300000Y-34820000D02*
X17250000Y-34820000D01*
X19300000Y-65220000D02*
X17250000Y-65220000D01*
X19300076Y-30050000D02*
X19300000Y-34820000D01*
X19300076Y-69990001D02*
X19300152Y-65220001D01*
D14*
X21270000Y-39860000D02*
X21270000Y-62780000D01*
X21270000Y-39860000D02*
X23930000Y-39860000D01*
X21270000Y-62780000D02*
X23930000Y-62780000D01*
X22600000Y-37260000D02*
X23930000Y-37260000D01*
X23930000Y-37260000D02*
X23930000Y-38590000D01*
X23930000Y-39860000D02*
X23930000Y-62780000D01*
D13*
X25899924Y-30049999D02*
X25900000Y-34820000D01*
X25899924Y-69990000D02*
X25900000Y-65220000D01*
X28900000Y-34820000D02*
X25900000Y-34820000D01*
X28900000Y-34820000D02*
X28900000Y-65220000D01*
X28900000Y-65220000D02*
X25900000Y-65220000D01*
X25050000Y-36820000D02*
X27550000Y-36820000D01*
X27550000Y-36820000D02*
X27550000Y-63170000D01*
X27550000Y-63170000D02*
X25050000Y-63170000D01*
X25050000Y-63170000D02*
X25050000Y-36820000D01*
X25899924Y-30049999D02*
G75*
G03*
X19300076Y-30050000I-3299924J29999D01*
G01*
X19300076Y-69990001D02*
G75*
G03*
X25899924Y-69990000I3299924J-29999D01*
G01*
%TD*%
M02*
