%TF.GenerationSoftware,KiCad,Pcbnew,7.0.9*%
%TF.CreationDate,2024-02-10T01:58:27-05:00*%
%TF.ProjectId,BREAD_Loaf,42524541-445f-44c6-9f61-662e6b696361,rev?*%
%TF.SameCoordinates,PX2fdfdc0PY36746e0*%
%TF.FileFunction,Soldermask,Bot*%
%TF.FilePolarity,Negative*%
%FSLAX46Y46*%
G04 Gerber Fmt 4.6, Leading zero omitted, Abs format (unit mm)*
G04 Created by KiCad (PCBNEW 7.0.9) date 2024-02-10 01:58:27*
%MOMM*%
%LPD*%
G01*
G04 APERTURE LIST*
%ADD10C,3.300000*%
%ADD11R,1.700000X1.700000*%
%ADD12O,1.700000X1.700000*%
%ADD13C,1.600000*%
%ADD14R,4.000000X2.000000*%
%ADD15O,3.300000X2.000000*%
%ADD16O,2.000000X3.500000*%
%ADD17C,1.700000*%
G04 APERTURE END LIST*
D10*
%TO.C,J3*%
X53000000Y-30020000D03*
X53000000Y-70020000D03*
D11*
X53000000Y-38590000D03*
D12*
X53000000Y-41130000D03*
X53000000Y-43670000D03*
X53000000Y-46210000D03*
X53000000Y-48750000D03*
X53000000Y-51290000D03*
X53000000Y-53830000D03*
X53000000Y-56370000D03*
X53000000Y-58910000D03*
X53000000Y-61450000D03*
%TD*%
D10*
%TO.C,J5*%
X113800000Y-30020000D03*
X113800000Y-70020000D03*
D11*
X113800000Y-38590000D03*
D12*
X113800000Y-41130000D03*
X113800000Y-43670000D03*
X113800000Y-46210000D03*
X113800000Y-48750000D03*
X113800000Y-51290000D03*
X113800000Y-53830000D03*
X113800000Y-56370000D03*
X113800000Y-58910000D03*
X113800000Y-61450000D03*
%TD*%
D10*
%TO.C,J4*%
X83400000Y-30020000D03*
X83400000Y-70020000D03*
D11*
X83400000Y-38590000D03*
D12*
X83400000Y-41130000D03*
X83400000Y-43670000D03*
X83400000Y-46210000D03*
X83400000Y-48750000D03*
X83400000Y-51290000D03*
X83400000Y-53830000D03*
X83400000Y-56370000D03*
X83400000Y-58910000D03*
X83400000Y-61450000D03*
%TD*%
D10*
%TO.C,J2*%
X22600000Y-30020000D03*
X22600000Y-70020000D03*
D11*
X22600000Y-38590000D03*
D12*
X22600000Y-41130000D03*
X22600000Y-43670000D03*
X22600000Y-46210000D03*
X22600000Y-48750000D03*
X22600000Y-51290000D03*
X22600000Y-53830000D03*
X22600000Y-56370000D03*
X22600000Y-58910000D03*
X22600000Y-61450000D03*
%TD*%
D13*
%TO.C,J7*%
X38200000Y-71700000D03*
D14*
X38200000Y-62700000D03*
D15*
X38200000Y-68700000D03*
D16*
X42700000Y-69700000D03*
X33700000Y-69700000D03*
%TD*%
D17*
%TO.C,J1*%
X10000000Y-61460000D03*
X10000000Y-58920000D03*
X10000000Y-56380000D03*
X10000000Y-53840000D03*
X10000000Y-51300000D03*
X10000000Y-48760000D03*
X10000000Y-46220000D03*
X10000000Y-43680000D03*
X10000000Y-41140000D03*
X10000000Y-38600000D03*
%TD*%
D11*
%TO.C,J6*%
X117500000Y-38600000D03*
D12*
X117500000Y-41140000D03*
X117500000Y-43680000D03*
X117500000Y-46220000D03*
X117500000Y-48760000D03*
X117500000Y-51300000D03*
X117500000Y-53840000D03*
X117500000Y-56380000D03*
X117500000Y-58920000D03*
X117500000Y-61460000D03*
%TD*%
M02*
