%TF.GenerationSoftware,KiCad,Pcbnew,7.0.9*%
%TF.CreationDate,2024-02-10T01:58:27-05:00*%
%TF.ProjectId,BREAD_Loaf,42524541-445f-44c6-9f61-662e6b696361,rev?*%
%TF.SameCoordinates,PX2fdfdc0PY36746e0*%
%TF.FileFunction,Copper,L1,Top*%
%TF.FilePolarity,Positive*%
%FSLAX46Y46*%
G04 Gerber Fmt 4.6, Leading zero omitted, Abs format (unit mm)*
G04 Created by KiCad (PCBNEW 7.0.9) date 2024-02-10 01:58:27*
%MOMM*%
%LPD*%
G01*
G04 APERTURE LIST*
%TA.AperFunction,ComponentPad*%
%ADD10R,1.700000X1.700000*%
%TD*%
%TA.AperFunction,ComponentPad*%
%ADD11O,1.700000X1.700000*%
%TD*%
%TA.AperFunction,ComponentPad*%
%ADD12R,4.000000X2.000000*%
%TD*%
%TA.AperFunction,ComponentPad*%
%ADD13O,3.300000X2.000000*%
%TD*%
%TA.AperFunction,ComponentPad*%
%ADD14O,2.000000X3.500000*%
%TD*%
%TA.AperFunction,ComponentPad*%
%ADD15C,1.700000*%
%TD*%
%TA.AperFunction,Conductor*%
%ADD16C,2.000000*%
%TD*%
%TA.AperFunction,Conductor*%
%ADD17C,3.000000*%
%TD*%
%TA.AperFunction,Conductor*%
%ADD18C,0.500000*%
%TD*%
%TA.AperFunction,Conductor*%
%ADD19C,0.250000*%
%TD*%
G04 APERTURE END LIST*
D10*
%TO.P,J3,1,Pin_1*%
%TO.N,GND*%
X53000000Y-38590000D03*
D11*
%TO.P,J3,2,Pin_2*%
%TO.N,+12V*%
X53000000Y-41130000D03*
%TO.P,J3,3,Pin_3*%
%TO.N,/SCL_5V*%
X53000000Y-43670000D03*
%TO.P,J3,4,Pin_4*%
%TO.N,/SDA_5V*%
X53000000Y-46210000D03*
%TO.P,J3,5,Pin_5*%
%TO.N,GND*%
X53000000Y-48750000D03*
%TO.P,J3,6,Pin_6*%
%TO.N,/E_STOP_5V*%
X53000000Y-51290000D03*
%TO.P,J3,7,Pin_7*%
%TO.N,/INT_5V*%
X53000000Y-53830000D03*
%TO.P,J3,8,Pin_8*%
%TO.N,/SYNC_5V*%
X53000000Y-56370000D03*
%TO.P,J3,9,Pin_9*%
%TO.N,+12V*%
X53000000Y-58910000D03*
%TO.P,J3,10,Pin_10*%
%TO.N,GND*%
X53000000Y-61450000D03*
%TD*%
D10*
%TO.P,J5,1,Pin_1*%
%TO.N,GND*%
X113800000Y-38590000D03*
D11*
%TO.P,J5,2,Pin_2*%
%TO.N,+12V*%
X113800000Y-41130000D03*
%TO.P,J5,3,Pin_3*%
%TO.N,/SCL_5V*%
X113800000Y-43670000D03*
%TO.P,J5,4,Pin_4*%
%TO.N,/SDA_5V*%
X113800000Y-46210000D03*
%TO.P,J5,5,Pin_5*%
%TO.N,GND*%
X113800000Y-48750000D03*
%TO.P,J5,6,Pin_6*%
%TO.N,/E_STOP_5V*%
X113800000Y-51290000D03*
%TO.P,J5,7,Pin_7*%
%TO.N,/INT_5V*%
X113800000Y-53830000D03*
%TO.P,J5,8,Pin_8*%
%TO.N,/SYNC_5V*%
X113800000Y-56370000D03*
%TO.P,J5,9,Pin_9*%
%TO.N,+12V*%
X113800000Y-58910000D03*
%TO.P,J5,10,Pin_10*%
%TO.N,GND*%
X113800000Y-61450000D03*
%TD*%
D10*
%TO.P,J4,1,Pin_1*%
%TO.N,GND*%
X83400000Y-38590000D03*
D11*
%TO.P,J4,2,Pin_2*%
%TO.N,+12V*%
X83400000Y-41130000D03*
%TO.P,J4,3,Pin_3*%
%TO.N,/SCL_5V*%
X83400000Y-43670000D03*
%TO.P,J4,4,Pin_4*%
%TO.N,/SDA_5V*%
X83400000Y-46210000D03*
%TO.P,J4,5,Pin_5*%
%TO.N,GND*%
X83400000Y-48750000D03*
%TO.P,J4,6,Pin_6*%
%TO.N,/E_STOP_5V*%
X83400000Y-51290000D03*
%TO.P,J4,7,Pin_7*%
%TO.N,/INT_5V*%
X83400000Y-53830000D03*
%TO.P,J4,8,Pin_8*%
%TO.N,/SYNC_5V*%
X83400000Y-56370000D03*
%TO.P,J4,9,Pin_9*%
%TO.N,+12V*%
X83400000Y-58910000D03*
%TO.P,J4,10,Pin_10*%
%TO.N,GND*%
X83400000Y-61450000D03*
%TD*%
D10*
%TO.P,J2,1,Pin_1*%
%TO.N,GND*%
X22600000Y-38590000D03*
D11*
%TO.P,J2,2,Pin_2*%
%TO.N,+12V*%
X22600000Y-41130000D03*
%TO.P,J2,3,Pin_3*%
%TO.N,/SCL_5V*%
X22600000Y-43670000D03*
%TO.P,J2,4,Pin_4*%
%TO.N,/SDA_5V*%
X22600000Y-46210000D03*
%TO.P,J2,5,Pin_5*%
%TO.N,GND*%
X22600000Y-48750000D03*
%TO.P,J2,6,Pin_6*%
%TO.N,/E_STOP_5V*%
X22600000Y-51290000D03*
%TO.P,J2,7,Pin_7*%
%TO.N,/INT_5V*%
X22600000Y-53830000D03*
%TO.P,J2,8,Pin_8*%
%TO.N,/SYNC_5V*%
X22600000Y-56370000D03*
%TO.P,J2,9,Pin_9*%
%TO.N,+12V*%
X22600000Y-58910000D03*
%TO.P,J2,10,Pin_10*%
%TO.N,GND*%
X22600000Y-61450000D03*
%TD*%
D12*
%TO.P,J7,1*%
%TO.N,+12V*%
X38200000Y-62700000D03*
D13*
%TO.P,J7,2*%
%TO.N,GND*%
X38200000Y-68700000D03*
D14*
%TO.P,J7,MP*%
%TO.N,N/C*%
X42700000Y-69700000D03*
X33700000Y-69700000D03*
%TD*%
D15*
%TO.P,J1,1,1*%
%TO.N,GND*%
X10000000Y-61460000D03*
%TO.P,J1,2,2*%
%TO.N,+12V*%
X10000000Y-58920000D03*
%TO.P,J1,3,3*%
%TO.N,/SYNC_5V*%
X10000000Y-56380000D03*
%TO.P,J1,4,4*%
%TO.N,/INT_5V*%
X10000000Y-53840000D03*
%TO.P,J1,5,5*%
%TO.N,/E_STOP_5V*%
X10000000Y-51300000D03*
%TO.P,J1,6,6*%
%TO.N,GND*%
X10000000Y-48760000D03*
%TO.P,J1,7,7*%
%TO.N,/SDA_5V*%
X10000000Y-46220000D03*
%TO.P,J1,8,8*%
%TO.N,/SCL_5V*%
X10000000Y-43680000D03*
%TO.P,J1,9,9*%
%TO.N,+12V*%
X10000000Y-41140000D03*
%TO.P,J1,10,10*%
%TO.N,GND*%
X10000000Y-38600000D03*
%TD*%
D10*
%TO.P,J6,1,1*%
%TO.N,GND*%
X117500000Y-38600000D03*
D11*
%TO.P,J6,2,2*%
%TO.N,+12V*%
X117500000Y-41140000D03*
%TO.P,J6,3,3*%
%TO.N,/SCL_5V*%
X117500000Y-43680000D03*
%TO.P,J6,4,4*%
%TO.N,/SDA_5V*%
X117500000Y-46220000D03*
%TO.P,J6,5,5*%
%TO.N,GND*%
X117500000Y-48760000D03*
%TO.P,J6,6,6*%
%TO.N,/E_STOP_5V*%
X117500000Y-51300000D03*
%TO.P,J6,7,7*%
%TO.N,/INT_5V*%
X117500000Y-53840000D03*
%TO.P,J6,8,8*%
%TO.N,/SYNC_5V*%
X117500000Y-56380000D03*
%TO.P,J6,9,9*%
%TO.N,+12V*%
X117500000Y-58920000D03*
%TO.P,J6,10,10*%
%TO.N,GND*%
X117500000Y-61460000D03*
%TD*%
D16*
%TO.N,+12V*%
X119550000Y-41987919D02*
X119550000Y-57650000D01*
X113800000Y-58910000D02*
X83400000Y-58910000D01*
X10010000Y-58910000D02*
X10000000Y-58920000D01*
X10000000Y-41140000D02*
X22590000Y-41140000D01*
X119550000Y-57650000D02*
X118280000Y-58920000D01*
X118702081Y-41140000D02*
X119550000Y-41987919D01*
X83400000Y-58910000D02*
X53000000Y-58910000D01*
X22600000Y-58910000D02*
X10010000Y-58910000D01*
X53000000Y-58910000D02*
X38200000Y-58910000D01*
X7950000Y-41987919D02*
X7950000Y-57850000D01*
X117500000Y-41140000D02*
X118702081Y-41140000D01*
X22590000Y-41140000D02*
X22600000Y-41130000D01*
X9020000Y-58920000D02*
X10000000Y-58920000D01*
D17*
X38200000Y-62700000D02*
X38200000Y-58910000D01*
D16*
X8797919Y-41140000D02*
X7950000Y-41987919D01*
X118280000Y-58920000D02*
X117500000Y-58920000D01*
X117500000Y-58910000D02*
X113800000Y-58910000D01*
X7950000Y-57850000D02*
X9020000Y-58920000D01*
X22600000Y-41130000D02*
X53000000Y-41130000D01*
X113800000Y-41130000D02*
X117500000Y-41130000D01*
X53000000Y-41130000D02*
X83400000Y-41130000D01*
X38200000Y-58910000D02*
X22600000Y-58910000D01*
X83400000Y-41130000D02*
X113800000Y-41130000D01*
X10000000Y-41140000D02*
X8797919Y-41140000D01*
D18*
%TO.N,/SCL_5V*%
X83400000Y-43670000D02*
X113800000Y-43670000D01*
X22600000Y-43670000D02*
X53000000Y-43670000D01*
X113800000Y-43670000D02*
X117500000Y-43670000D01*
X22600000Y-43670000D02*
X10000000Y-43670000D01*
X53000000Y-43670000D02*
X83400000Y-43670000D01*
%TO.N,/SDA_5V*%
X83400000Y-46210000D02*
X53000000Y-46210000D01*
D19*
X10000000Y-46210000D02*
X22600000Y-46210000D01*
D18*
X53000000Y-46210000D02*
X22600000Y-46210000D01*
X117500000Y-46210000D02*
X113800000Y-46210000D01*
X113800000Y-46210000D02*
X83400000Y-46210000D01*
%TO.N,/E_STOP_5V*%
X83400000Y-51290000D02*
X113800000Y-51290000D01*
X113800000Y-51290000D02*
X117500000Y-51290000D01*
X22600000Y-51290000D02*
X10000000Y-51290000D01*
X53000000Y-51290000D02*
X83400000Y-51290000D01*
X22600000Y-51290000D02*
X53000000Y-51290000D01*
%TO.N,/INT_5V*%
X83400000Y-53830000D02*
X53000000Y-53830000D01*
X117500000Y-53830000D02*
X113800000Y-53830000D01*
D19*
X10000000Y-53830000D02*
X22600000Y-53830000D01*
D18*
X113800000Y-53830000D02*
X83400000Y-53830000D01*
X53000000Y-53830000D02*
X22600000Y-53830000D01*
%TO.N,/SYNC_5V*%
X113800000Y-56370000D02*
X117500000Y-56370000D01*
X22600000Y-56370000D02*
X53000000Y-56370000D01*
X22600000Y-56370000D02*
X10000000Y-56370000D01*
X83400000Y-56370000D02*
X113800000Y-56370000D01*
X53000000Y-56370000D02*
X83400000Y-56370000D01*
%TD*%
M02*
